%TF.GenerationSoftware,KiCad,Pcbnew,8.0.5-dirty*%
%TF.CreationDate,2024-12-24T10:24:37-08:00*%
%TF.ProjectId,nightshade,6e696768-7473-4686-9164-652e6b696361,rev?*%
%TF.SameCoordinates,Original*%
%TF.FileFunction,Drillmap*%
%TF.FilePolarity,Positive*%
%FSLAX45Y45*%
G04 Gerber Fmt 4.5, Leading zero omitted, Abs format (unit mm)*
G04 Created by KiCad (PCBNEW 8.0.5-dirty) date 2024-12-24 10:24:37*
%MOMM*%
%LPD*%
G01*
G04 APERTURE LIST*
%ADD10C,0.050000*%
%ADD11C,0.200000*%
G04 APERTURE END LIST*
D10*
X23710000Y-8445000D02*
X23710000Y-14100000D01*
X23315000Y-14495000D01*
X21687500Y-14495000D01*
X21687500Y-15640000D01*
X21592500Y-15735000D01*
X13655000Y-15735000D01*
X13560000Y-15640000D01*
X13560000Y-14825000D01*
X13052500Y-14825000D01*
X13052500Y-15640000D01*
X12957500Y-15735000D01*
X8324998Y-15735000D01*
X8230000Y-15640002D01*
X8230000Y-13199962D01*
X8223888Y-8395818D01*
X8558774Y-8065000D01*
X23330000Y-8065000D01*
X23710000Y-8445000D01*
D11*
X8482165Y-16048984D02*
X8482165Y-15848984D01*
X8482165Y-15848984D02*
X8529784Y-15848984D01*
X8529784Y-15848984D02*
X8558355Y-15858508D01*
X8558355Y-15858508D02*
X8577403Y-15877555D01*
X8577403Y-15877555D02*
X8586927Y-15896603D01*
X8586927Y-15896603D02*
X8596450Y-15934698D01*
X8596450Y-15934698D02*
X8596450Y-15963269D01*
X8596450Y-15963269D02*
X8586927Y-16001365D01*
X8586927Y-16001365D02*
X8577403Y-16020412D01*
X8577403Y-16020412D02*
X8558355Y-16039460D01*
X8558355Y-16039460D02*
X8529784Y-16048984D01*
X8529784Y-16048984D02*
X8482165Y-16048984D01*
X8682165Y-16048984D02*
X8682165Y-15915650D01*
X8682165Y-15953746D02*
X8691689Y-15934698D01*
X8691689Y-15934698D02*
X8701212Y-15925174D01*
X8701212Y-15925174D02*
X8720260Y-15915650D01*
X8720260Y-15915650D02*
X8739308Y-15915650D01*
X8805974Y-16048984D02*
X8805974Y-15915650D01*
X8805974Y-15848984D02*
X8796450Y-15858508D01*
X8796450Y-15858508D02*
X8805974Y-15868031D01*
X8805974Y-15868031D02*
X8815498Y-15858508D01*
X8815498Y-15858508D02*
X8805974Y-15848984D01*
X8805974Y-15848984D02*
X8805974Y-15868031D01*
X8929784Y-16048984D02*
X8910736Y-16039460D01*
X8910736Y-16039460D02*
X8901212Y-16020412D01*
X8901212Y-16020412D02*
X8901212Y-15848984D01*
X9034546Y-16048984D02*
X9015498Y-16039460D01*
X9015498Y-16039460D02*
X9005974Y-16020412D01*
X9005974Y-16020412D02*
X9005974Y-15848984D01*
X9263117Y-16048984D02*
X9263117Y-15848984D01*
X9263117Y-15848984D02*
X9329784Y-15991841D01*
X9329784Y-15991841D02*
X9396450Y-15848984D01*
X9396450Y-15848984D02*
X9396450Y-16048984D01*
X9577403Y-16048984D02*
X9577403Y-15944222D01*
X9577403Y-15944222D02*
X9567879Y-15925174D01*
X9567879Y-15925174D02*
X9548831Y-15915650D01*
X9548831Y-15915650D02*
X9510736Y-15915650D01*
X9510736Y-15915650D02*
X9491689Y-15925174D01*
X9577403Y-16039460D02*
X9558355Y-16048984D01*
X9558355Y-16048984D02*
X9510736Y-16048984D01*
X9510736Y-16048984D02*
X9491689Y-16039460D01*
X9491689Y-16039460D02*
X9482165Y-16020412D01*
X9482165Y-16020412D02*
X9482165Y-16001365D01*
X9482165Y-16001365D02*
X9491689Y-15982317D01*
X9491689Y-15982317D02*
X9510736Y-15972793D01*
X9510736Y-15972793D02*
X9558355Y-15972793D01*
X9558355Y-15972793D02*
X9577403Y-15963269D01*
X9672641Y-15915650D02*
X9672641Y-16115650D01*
X9672641Y-15925174D02*
X9691689Y-15915650D01*
X9691689Y-15915650D02*
X9729784Y-15915650D01*
X9729784Y-15915650D02*
X9748831Y-15925174D01*
X9748831Y-15925174D02*
X9758355Y-15934698D01*
X9758355Y-15934698D02*
X9767879Y-15953746D01*
X9767879Y-15953746D02*
X9767879Y-16010888D01*
X9767879Y-16010888D02*
X9758355Y-16029936D01*
X9758355Y-16029936D02*
X9748831Y-16039460D01*
X9748831Y-16039460D02*
X9729784Y-16048984D01*
X9729784Y-16048984D02*
X9691689Y-16048984D01*
X9691689Y-16048984D02*
X9672641Y-16039460D01*
X9853593Y-16029936D02*
X9863117Y-16039460D01*
X9863117Y-16039460D02*
X9853593Y-16048984D01*
X9853593Y-16048984D02*
X9844070Y-16039460D01*
X9844070Y-16039460D02*
X9853593Y-16029936D01*
X9853593Y-16029936D02*
X9853593Y-16048984D01*
X9853593Y-15925174D02*
X9863117Y-15934698D01*
X9863117Y-15934698D02*
X9853593Y-15944222D01*
X9853593Y-15944222D02*
X9844070Y-15934698D01*
X9844070Y-15934698D02*
X9853593Y-15925174D01*
X9853593Y-15925174D02*
X9853593Y-15944222D01*
M02*
