%TF.GenerationSoftware,KiCad,Pcbnew,8.0.5-dirty*%
%TF.CreationDate,2025-01-01T18:58:04-08:00*%
%TF.ProjectId,nightshade,6e696768-7473-4686-9164-652e6b696361,rev?*%
%TF.SameCoordinates,Original*%
%TF.FileFunction,Soldermask,Top*%
%TF.FilePolarity,Negative*%
%FSLAX46Y46*%
G04 Gerber Fmt 4.6, Leading zero omitted, Abs format (unit mm)*
G04 Created by KiCad (PCBNEW 8.0.5-dirty) date 2025-01-01 18:58:04*
%MOMM*%
%LPD*%
G01*
G04 APERTURE LIST*
G04 Aperture macros list*
%AMRoundRect*
0 Rectangle with rounded corners*
0 $1 Rounding radius*
0 $2 $3 $4 $5 $6 $7 $8 $9 X,Y pos of 4 corners*
0 Add a 4 corners polygon primitive as box body*
4,1,4,$2,$3,$4,$5,$6,$7,$8,$9,$2,$3,0*
0 Add four circle primitives for the rounded corners*
1,1,$1+$1,$2,$3*
1,1,$1+$1,$4,$5*
1,1,$1+$1,$6,$7*
1,1,$1+$1,$8,$9*
0 Add four rect primitives between the rounded corners*
20,1,$1+$1,$2,$3,$4,$5,0*
20,1,$1+$1,$4,$5,$6,$7,0*
20,1,$1+$1,$6,$7,$8,$9,0*
20,1,$1+$1,$8,$9,$2,$3,0*%
G04 Aperture macros list end*
%ADD10RoundRect,0.250000X0.650000X-0.325000X0.650000X0.325000X-0.650000X0.325000X-0.650000X-0.325000X0*%
%ADD11RoundRect,0.250000X-0.325000X-0.650000X0.325000X-0.650000X0.325000X0.650000X-0.325000X0.650000X0*%
%ADD12RoundRect,0.250000X0.475000X-0.250000X0.475000X0.250000X-0.475000X0.250000X-0.475000X-0.250000X0*%
%ADD13RoundRect,0.250000X-0.475000X0.250000X-0.475000X-0.250000X0.475000X-0.250000X0.475000X0.250000X0*%
%ADD14RoundRect,0.250000X-0.250000X-0.475000X0.250000X-0.475000X0.250000X0.475000X-0.250000X0.475000X0*%
%ADD15RoundRect,0.250000X0.250000X0.475000X-0.250000X0.475000X-0.250000X-0.475000X0.250000X-0.475000X0*%
%ADD16R,1.000000X1.000000*%
%ADD17RoundRect,0.218750X0.218750X0.381250X-0.218750X0.381250X-0.218750X-0.381250X0.218750X-0.381250X0*%
%ADD18R,1.780000X7.620000*%
%ADD19R,1.700000X1.700000*%
%ADD20O,1.700000X1.700000*%
%ADD21RoundRect,0.249998X-0.262502X-0.450002X0.262502X-0.450002X0.262502X0.450002X-0.262502X0.450002X0*%
%ADD22RoundRect,0.249998X0.262502X0.450002X-0.262502X0.450002X-0.262502X-0.450002X0.262502X-0.450002X0*%
%ADD23RoundRect,0.249998X-0.450002X0.262502X-0.450002X-0.262502X0.450002X-0.262502X0.450002X0.262502X0*%
%ADD24RoundRect,0.250100X0.449900X-0.262400X0.449900X0.262400X-0.449900X0.262400X-0.449900X-0.262400X0*%
%ADD25RoundRect,0.249998X0.450002X-0.262502X0.450002X0.262502X-0.450002X0.262502X-0.450002X-0.262502X0*%
%ADD26RoundRect,0.150000X0.150000X-0.875000X0.150000X0.875000X-0.150000X0.875000X-0.150000X-0.875000X0*%
%ADD27RoundRect,0.150000X-1.475000X-0.150000X1.475000X-0.150000X1.475000X0.150000X-1.475000X0.150000X0*%
%ADD28RoundRect,0.250000X-0.650000X0.325000X-0.650000X-0.325000X0.650000X-0.325000X0.650000X0.325000X0*%
%ADD29C,2.000000*%
%ADD30RoundRect,0.200000X-0.200000X-0.275000X0.200000X-0.275000X0.200000X0.275000X-0.200000X0.275000X0*%
%ADD31RoundRect,0.218750X-0.218750X-0.381250X0.218750X-0.381250X0.218750X0.381250X-0.218750X0.381250X0*%
%ADD32RoundRect,0.150000X-0.825000X-0.150000X0.825000X-0.150000X0.825000X0.150000X-0.825000X0.150000X0*%
%ADD33R,3.500000X2.400000*%
%ADD34R,0.800000X0.500000*%
%ADD35R,0.800000X0.400000*%
%ADD36O,1.000000X1.000000*%
%ADD37RoundRect,0.200000X0.200000X0.275000X-0.200000X0.275000X-0.200000X-0.275000X0.200000X-0.275000X0*%
%ADD38RoundRect,0.100000X0.100000X-0.775000X0.100000X0.775000X-0.100000X0.775000X-0.100000X-0.775000X0*%
%ADD39RoundRect,0.100000X0.775000X-0.100000X0.775000X0.100000X-0.775000X0.100000X-0.775000X-0.100000X0*%
%ADD40RoundRect,0.250000X-0.159099X0.512652X-0.512652X0.159099X0.159099X-0.512652X0.512652X-0.159099X0*%
%ADD41C,4.450000*%
%ADD42RoundRect,0.102000X0.847500X-0.847500X0.847500X0.847500X-0.847500X0.847500X-0.847500X-0.847500X0*%
%ADD43C,1.899000*%
%ADD44R,0.700000X1.925000*%
%ADD45R,1.925000X0.700000*%
G04 APERTURE END LIST*
D10*
%TO.C,C7*%
X170900000Y-111275000D03*
X170900000Y-108325000D03*
%TD*%
D11*
%TO.C,C8*%
X160564869Y-98507718D03*
X163514871Y-98507718D03*
%TD*%
D12*
%TO.C,C10*%
X172900000Y-115250000D03*
X172900000Y-113350000D03*
%TD*%
D10*
%TO.C,C25*%
X137600000Y-134875000D03*
X137600000Y-131925000D03*
%TD*%
D12*
%TO.C,C37*%
X185250000Y-116200000D03*
X185250000Y-114300000D03*
%TD*%
%TO.C,C39*%
X125150000Y-132200000D03*
X125150000Y-130300000D03*
%TD*%
D13*
%TO.C,C44*%
X179750000Y-114300000D03*
X179750000Y-116200000D03*
%TD*%
%TO.C,C46*%
X130500000Y-130250000D03*
X130500000Y-132150000D03*
%TD*%
D11*
%TO.C,C22*%
X211525000Y-144000000D03*
X214475000Y-144000000D03*
%TD*%
D14*
%TO.C,C24*%
X211450000Y-146200000D03*
X213350000Y-146200000D03*
%TD*%
D12*
%TO.C,C26*%
X214250000Y-110150000D03*
X214250000Y-108250000D03*
%TD*%
%TO.C,C28*%
X214250000Y-106750000D03*
X214250000Y-104850000D03*
%TD*%
%TO.C,C29*%
X214250000Y-103350000D03*
X214250000Y-101450000D03*
%TD*%
%TO.C,C33*%
X221000000Y-110150000D03*
X221000000Y-108250000D03*
%TD*%
%TO.C,C34*%
X221000000Y-106750000D03*
X221000000Y-104850000D03*
%TD*%
%TO.C,C35*%
X221000000Y-103350000D03*
X221000000Y-101450000D03*
%TD*%
D15*
%TO.C,C2*%
X119350000Y-97700000D03*
X117450000Y-97700000D03*
%TD*%
D13*
%TO.C,C5*%
X110100000Y-106500000D03*
X110100000Y-108400000D03*
%TD*%
D16*
%TO.C,D1*%
X195500000Y-90250000D03*
X195500000Y-92750000D03*
%TD*%
D17*
%TO.C,FB1*%
X218662500Y-101400000D03*
X216537500Y-101400000D03*
%TD*%
%TO.C,FB2*%
X218662500Y-105400000D03*
X216537500Y-105400000D03*
%TD*%
%TO.C,FB3*%
X218762500Y-108300000D03*
X216637500Y-108300000D03*
%TD*%
D18*
%TO.C,J2*%
X214350000Y-152310000D03*
X211810000Y-152310000D03*
X209270000Y-152310000D03*
X206730000Y-152310000D03*
X204190000Y-152310000D03*
X201650000Y-152310000D03*
X199110000Y-152310000D03*
X196570000Y-152310000D03*
X194030000Y-152310000D03*
X191490000Y-152310000D03*
X188950000Y-152310000D03*
X186410000Y-152310000D03*
X183870000Y-152310000D03*
X181330000Y-152310000D03*
X178790000Y-152310000D03*
X176250000Y-152310000D03*
X173710000Y-152310000D03*
X171170000Y-152310000D03*
X168630000Y-152310000D03*
X166090000Y-152310000D03*
X163550000Y-152310000D03*
X161010000Y-152310000D03*
X158470000Y-152310000D03*
X155930000Y-152310000D03*
X153390000Y-152310000D03*
X150850000Y-152310000D03*
X148310000Y-152310000D03*
X145770000Y-152310000D03*
X143230000Y-152310000D03*
X140690000Y-152310000D03*
X138150000Y-152310000D03*
X127990000Y-152310000D03*
X125450000Y-152310000D03*
X122910000Y-152310000D03*
X120370000Y-152310000D03*
X117830000Y-152310000D03*
X115290000Y-152310000D03*
X112750000Y-152310000D03*
X110210000Y-152310000D03*
X107670000Y-152310000D03*
X105130000Y-152310000D03*
X102590000Y-152310000D03*
X100050000Y-152310000D03*
X97510000Y-152310000D03*
X94970000Y-152310000D03*
X92430000Y-152310000D03*
X89890000Y-152310000D03*
X87350000Y-152310000D03*
X84810000Y-152310000D03*
%TD*%
D19*
%TO.C,JP3*%
X203886707Y-139250000D03*
D20*
X201346707Y-139250000D03*
%TD*%
D21*
%TO.C,R27*%
X181587500Y-114500000D03*
X183412500Y-114500000D03*
%TD*%
D22*
%TO.C,R28*%
X128750000Y-130400000D03*
X126925000Y-130400000D03*
%TD*%
D23*
%TO.C,R15*%
X197500000Y-90837500D03*
X197500000Y-92662500D03*
%TD*%
%TO.C,R14*%
X193500000Y-90087500D03*
X193500000Y-91912500D03*
%TD*%
D24*
%TO.C,R29*%
X85550000Y-106325000D03*
D25*
X85550000Y-104500000D03*
%TD*%
D26*
%TO.C,U6*%
X192285000Y-134950000D03*
X193555000Y-134950000D03*
X194825000Y-134950000D03*
X196095000Y-134950000D03*
X197365000Y-134950000D03*
X198635000Y-134950000D03*
X199905000Y-134950000D03*
X201175000Y-134950000D03*
X202445000Y-134950000D03*
X203715000Y-134950000D03*
X203715000Y-125650000D03*
X202445000Y-125650000D03*
X201175000Y-125650000D03*
X199905000Y-125650000D03*
X198635000Y-125650000D03*
X197365000Y-125650000D03*
X196095000Y-125650000D03*
X194825000Y-125650000D03*
X193555000Y-125650000D03*
X192285000Y-125650000D03*
%TD*%
D27*
%TO.C,U2*%
X115000000Y-101972000D03*
X115000000Y-103240000D03*
X115000000Y-104510000D03*
X115000000Y-105780000D03*
X115000000Y-107050000D03*
X115000000Y-108320000D03*
X115000000Y-109590000D03*
X115000000Y-110860000D03*
X115000000Y-112130000D03*
X115000000Y-113400000D03*
X115000000Y-114670000D03*
X115000000Y-115940000D03*
X115000000Y-117210000D03*
X115000000Y-118480000D03*
X115000000Y-119750000D03*
X115000000Y-121020000D03*
X115000000Y-122290000D03*
X115000000Y-123560000D03*
X115000000Y-124830000D03*
X115000000Y-126100000D03*
X124970000Y-126100000D03*
X124970000Y-124830000D03*
X124970000Y-123560000D03*
X124970000Y-122290000D03*
X124970000Y-121020000D03*
X124970000Y-119750000D03*
X124970000Y-118480000D03*
X124970000Y-117210000D03*
X124970000Y-115940000D03*
X124970000Y-114670000D03*
X124970000Y-113400000D03*
X124970000Y-112130000D03*
X124970000Y-110860000D03*
X124970000Y-109590000D03*
X124970000Y-108320000D03*
X124970000Y-107050000D03*
X124970000Y-105780000D03*
X124970000Y-104510000D03*
X124970000Y-103240000D03*
X124970000Y-101970000D03*
%TD*%
%TO.C,U3*%
X90100000Y-101972000D03*
X90100000Y-103240000D03*
X90100000Y-104510000D03*
X90100000Y-105780000D03*
X90100000Y-107050000D03*
X90100000Y-108320000D03*
X90100000Y-109590000D03*
X90100000Y-110860000D03*
X90100000Y-112130000D03*
X90100000Y-113400000D03*
X90100000Y-114670000D03*
X90100000Y-115940000D03*
X90100000Y-117210000D03*
X90100000Y-118480000D03*
X90100000Y-119750000D03*
X90100000Y-121020000D03*
X90100000Y-122290000D03*
X90100000Y-123560000D03*
X90100000Y-124830000D03*
X90100000Y-126100000D03*
X100070000Y-126100000D03*
X100070000Y-124830000D03*
X100070000Y-123560000D03*
X100070000Y-122290000D03*
X100070000Y-121020000D03*
X100070000Y-119750000D03*
X100070000Y-118480000D03*
X100070000Y-117210000D03*
X100070000Y-115940000D03*
X100070000Y-114670000D03*
X100070000Y-113400000D03*
X100070000Y-112130000D03*
X100070000Y-110860000D03*
X100070000Y-109590000D03*
X100070000Y-108320000D03*
X100070000Y-107050000D03*
X100070000Y-105780000D03*
X100070000Y-104510000D03*
X100070000Y-103240000D03*
X100070000Y-101970000D03*
%TD*%
D15*
%TO.C,C42*%
X192250000Y-123325000D03*
X190350000Y-123325000D03*
%TD*%
D28*
%TO.C,C30*%
X134000000Y-125700000D03*
X134000000Y-128650000D03*
%TD*%
D25*
%TO.C,R16*%
X176750000Y-110075000D03*
X176750000Y-108250000D03*
%TD*%
%TO.C,R17*%
X176750000Y-106700000D03*
X176750000Y-104875000D03*
%TD*%
%TO.C,R18*%
X176750000Y-103325000D03*
X176750000Y-101500000D03*
%TD*%
D29*
%TO.C,FID1*%
X232000000Y-87250000D03*
%TD*%
%TO.C,FID2*%
X233000000Y-142750000D03*
%TD*%
%TO.C,FID3*%
X87250000Y-87250000D03*
%TD*%
D30*
%TO.C,R11*%
X175075000Y-111800000D03*
X176725000Y-111800000D03*
%TD*%
D15*
%TO.C,C15*%
X183200000Y-139000000D03*
X181300000Y-139000000D03*
%TD*%
D22*
%TO.C,R13*%
X183162500Y-141000000D03*
X181337500Y-141000000D03*
%TD*%
D15*
%TO.C,C17*%
X175000000Y-145250000D03*
X173100000Y-145250000D03*
%TD*%
%TO.C,C18*%
X175000000Y-142500000D03*
X173100000Y-142500000D03*
%TD*%
D22*
%TO.C,R3*%
X132912500Y-118643011D03*
X131087500Y-118643011D03*
%TD*%
%TO.C,R4*%
X132912500Y-116725000D03*
X131087500Y-116725000D03*
%TD*%
D23*
%TO.C,R5*%
X105800000Y-109987500D03*
X105800000Y-111812500D03*
%TD*%
D25*
%TO.C,R6*%
X137700000Y-98000000D03*
X137700000Y-96175000D03*
%TD*%
D22*
%TO.C,R7*%
X134825000Y-108125000D03*
X133000000Y-108125000D03*
%TD*%
%TO.C,R8*%
X132900000Y-114825000D03*
X131075000Y-114825000D03*
%TD*%
D21*
%TO.C,R9*%
X209087500Y-85250000D03*
X210912500Y-85250000D03*
%TD*%
%TO.C,R10*%
X209087500Y-88500000D03*
X210912500Y-88500000D03*
%TD*%
D30*
%TO.C,R24*%
X210425000Y-114800000D03*
X212075000Y-114800000D03*
%TD*%
D31*
%TO.C,FB5*%
X114937500Y-132500000D03*
X117062500Y-132500000D03*
%TD*%
D15*
%TO.C,C13*%
X129650000Y-136200000D03*
X127750000Y-136200000D03*
%TD*%
%TO.C,C56*%
X91031425Y-97500000D03*
X89131425Y-97500000D03*
%TD*%
D19*
%TO.C,J1*%
X190734770Y-88000000D03*
D20*
X190734770Y-90540000D03*
X188194770Y-88000000D03*
X188194770Y-90540000D03*
X185654770Y-88000000D03*
X185654770Y-90540000D03*
X183114770Y-88000000D03*
X183114770Y-90540000D03*
X180574770Y-88000000D03*
X180574770Y-90540000D03*
X178034770Y-88000000D03*
X178034770Y-90540000D03*
X175494770Y-88000000D03*
X175494770Y-90540000D03*
X172954770Y-88000000D03*
X172954770Y-90540000D03*
X170414770Y-88000000D03*
X170414770Y-90540000D03*
X167874770Y-88000000D03*
X167874770Y-90540000D03*
X165334770Y-88000000D03*
X165334770Y-90540000D03*
X162794770Y-88000000D03*
X162794770Y-90540000D03*
X160254770Y-88000000D03*
X160254770Y-90540000D03*
%TD*%
D32*
%TO.C,U4*%
X200025000Y-90790000D03*
X200025000Y-92060000D03*
X200025000Y-93330000D03*
X200025000Y-94600000D03*
X204975000Y-94600000D03*
X204975000Y-93330000D03*
X204975000Y-92060000D03*
X204975000Y-90790000D03*
%TD*%
D15*
%TO.C,C41*%
X222600000Y-114450000D03*
X220700000Y-114450000D03*
%TD*%
D33*
%TO.C,Y1*%
X131900000Y-139450000D03*
X126700000Y-139450000D03*
%TD*%
D14*
%TO.C,C12*%
X131250000Y-136200000D03*
X133150000Y-136200000D03*
%TD*%
D34*
%TO.C,RN1*%
X218400000Y-94450000D03*
D35*
X218400000Y-93650000D03*
X218400000Y-92850000D03*
D34*
X218400000Y-92050000D03*
X216600000Y-92050000D03*
D35*
X216600000Y-92850000D03*
X216600000Y-93650000D03*
D34*
X216600000Y-94450000D03*
%TD*%
D14*
%TO.C,C32*%
X172250000Y-118250000D03*
X174150000Y-118250000D03*
%TD*%
D15*
%TO.C,C3*%
X116900000Y-130000000D03*
X115000000Y-130000000D03*
%TD*%
D34*
%TO.C,RN2*%
X223500000Y-94450000D03*
D35*
X223500000Y-93650000D03*
X223500000Y-92850000D03*
D34*
X223500000Y-92050000D03*
X221700000Y-92050000D03*
D35*
X221700000Y-92850000D03*
X221700000Y-93650000D03*
D34*
X221700000Y-94450000D03*
%TD*%
D15*
%TO.C,C54*%
X91700000Y-129900000D03*
X89800000Y-129900000D03*
%TD*%
D16*
%TO.C,JP2*%
X217250000Y-112500000D03*
D36*
X215980000Y-112500000D03*
%TD*%
D17*
%TO.C,FB4*%
X176750000Y-113400000D03*
X174625000Y-113400000D03*
%TD*%
D14*
%TO.C,C4*%
X137250000Y-101300000D03*
X139150000Y-101300000D03*
%TD*%
D37*
%TO.C,R25*%
X217625000Y-114800000D03*
X215975000Y-114800000D03*
%TD*%
D13*
%TO.C,C48*%
X169550000Y-100650000D03*
X169550000Y-102550000D03*
%TD*%
D38*
%TO.C,U1*%
X140450000Y-131750000D03*
X141100000Y-131750000D03*
X141750000Y-131750000D03*
X142400000Y-131750000D03*
X143050000Y-131750000D03*
X143700000Y-131750000D03*
X144350000Y-131750000D03*
X145000000Y-131750000D03*
X145650000Y-131750000D03*
X146300000Y-131750000D03*
X146950000Y-131750000D03*
X147600000Y-131750000D03*
X148250000Y-131750000D03*
X148900000Y-131750000D03*
X149550000Y-131750000D03*
X150200000Y-131750000D03*
X150850000Y-131750000D03*
X151500000Y-131750000D03*
X152150000Y-131750000D03*
X152800000Y-131750000D03*
X153450000Y-131750000D03*
X154100000Y-131750000D03*
X154750000Y-131750000D03*
X155400000Y-131750000D03*
X156050000Y-131750000D03*
X156700000Y-131750000D03*
X157350000Y-131750000D03*
X158000000Y-131750000D03*
X158650000Y-131750000D03*
X159300000Y-131750000D03*
X159950000Y-131750000D03*
X160600000Y-131750000D03*
X161250000Y-131750000D03*
X161900000Y-131750000D03*
X162550000Y-131750000D03*
X163200000Y-131750000D03*
X163850000Y-131750000D03*
X164500000Y-131750000D03*
X165150000Y-131750000D03*
X165800000Y-131750000D03*
D39*
X168250000Y-129300000D03*
X168250000Y-128650000D03*
X168250000Y-128000000D03*
X168250000Y-127350000D03*
X168250000Y-126700000D03*
X168250000Y-126050000D03*
X168250000Y-125400000D03*
X168250000Y-124750000D03*
X168250000Y-124100000D03*
X168250000Y-123450000D03*
X168250000Y-122800000D03*
X168250000Y-122150000D03*
X168250000Y-121500000D03*
X168250000Y-120850000D03*
X168250000Y-120200000D03*
X168250000Y-119550000D03*
X168250000Y-118900000D03*
X168250000Y-118250000D03*
X168250000Y-117600000D03*
X168250000Y-116950000D03*
X168250000Y-116300000D03*
X168250000Y-115650000D03*
X168250000Y-115000000D03*
X168250000Y-114350000D03*
X168250000Y-113700000D03*
X168250000Y-113050000D03*
X168250000Y-112400000D03*
X168250000Y-111750000D03*
X168250000Y-111100000D03*
X168250000Y-110450000D03*
X168250000Y-109800000D03*
X168250000Y-109150000D03*
X168250000Y-108500000D03*
X168250000Y-107850000D03*
X168250000Y-107200000D03*
X168250000Y-106550000D03*
X168250000Y-105900000D03*
X168250000Y-105250000D03*
X168250000Y-104600000D03*
X168250000Y-103950000D03*
D38*
X165800000Y-101500000D03*
X165150000Y-101500000D03*
X164500000Y-101500000D03*
X163850000Y-101500000D03*
X163200000Y-101500000D03*
X162550000Y-101500000D03*
X161900000Y-101500000D03*
X161250000Y-101500000D03*
X160600000Y-101500000D03*
X159950000Y-101500000D03*
X159300000Y-101500000D03*
X158650000Y-101500000D03*
X158000000Y-101500000D03*
X157350000Y-101500000D03*
X156700000Y-101500000D03*
X156050000Y-101500000D03*
X155400000Y-101500000D03*
X154750000Y-101500000D03*
X154100000Y-101500000D03*
X153450000Y-101500000D03*
X152800000Y-101500000D03*
X152150000Y-101500000D03*
X151500000Y-101500000D03*
X150850000Y-101500000D03*
X150200000Y-101500000D03*
X149550000Y-101500000D03*
X148900000Y-101500000D03*
X148250000Y-101500000D03*
X147600000Y-101500000D03*
X146950000Y-101500000D03*
X146300000Y-101500000D03*
X145650000Y-101500000D03*
X145000000Y-101500000D03*
X144350000Y-101500000D03*
X143700000Y-101500000D03*
X143050000Y-101500000D03*
X142400000Y-101500000D03*
X141750000Y-101500000D03*
X141100000Y-101500000D03*
X140450000Y-101500000D03*
D39*
X138000000Y-103950000D03*
X138000000Y-104600000D03*
X138000000Y-105250000D03*
X138000000Y-105900000D03*
X138000000Y-106550000D03*
X138000000Y-107200000D03*
X138000000Y-107850000D03*
X138000000Y-108500000D03*
X138000000Y-109150000D03*
X138000000Y-109800000D03*
X138000000Y-110450000D03*
X138000000Y-111100000D03*
X138000000Y-111750000D03*
X138000000Y-112400000D03*
X138000000Y-113050000D03*
X138000000Y-113700000D03*
X138000000Y-114350000D03*
X138000000Y-115000000D03*
X138000000Y-115650000D03*
X138000000Y-116300000D03*
X138000000Y-116950000D03*
X138000000Y-117600000D03*
X138000000Y-118250000D03*
X138000000Y-118900000D03*
X138000000Y-119550000D03*
X138000000Y-120200000D03*
X138000000Y-120850000D03*
X138000000Y-121500000D03*
X138000000Y-122150000D03*
X138000000Y-122800000D03*
X138000000Y-123450000D03*
X138000000Y-124100000D03*
X138000000Y-124750000D03*
X138000000Y-125400000D03*
X138000000Y-126050000D03*
X138000000Y-126700000D03*
X138000000Y-127350000D03*
X138000000Y-128000000D03*
X138000000Y-128650000D03*
X138000000Y-129300000D03*
%TD*%
D16*
%TO.C,JP1*%
X213250000Y-112500000D03*
D36*
X211980000Y-112500000D03*
%TD*%
D12*
%TO.C,C52*%
X85500000Y-110400000D03*
X85500000Y-108500000D03*
%TD*%
D40*
%TO.C,C49*%
X155421751Y-136018249D03*
X154078249Y-137361751D03*
%TD*%
D13*
%TO.C,C47*%
X135669695Y-116450000D03*
X135669695Y-118350000D03*
%TD*%
D14*
%TO.C,C11*%
X213050000Y-88500000D03*
X214950000Y-88500000D03*
%TD*%
%TO.C,C14*%
X213050000Y-85250000D03*
X214950000Y-85250000D03*
%TD*%
D12*
%TO.C,C50*%
X149100000Y-99200000D03*
X149100000Y-97300000D03*
%TD*%
D41*
%TO.C,J3*%
X230000000Y-119395000D03*
X230000000Y-94405000D03*
D42*
X227500000Y-102545000D03*
D43*
X227500000Y-104835000D03*
X227500000Y-107125000D03*
X227500000Y-109415000D03*
X227500000Y-111705000D03*
X230000000Y-101400000D03*
X230000000Y-103690000D03*
X230000000Y-105980000D03*
X230000000Y-108270000D03*
X230000000Y-110560000D03*
X232500000Y-102545000D03*
X232500000Y-104835000D03*
X232500000Y-107125000D03*
X232500000Y-109415000D03*
X232500000Y-111705000D03*
%TD*%
D44*
%TO.C,U5*%
X214115000Y-119907500D03*
X212845000Y-119907500D03*
X211575000Y-119907500D03*
X210305000Y-119907500D03*
X215385000Y-119907500D03*
X216655000Y-119907500D03*
X217925000Y-119907500D03*
X219195000Y-119907500D03*
D45*
X209427500Y-122055000D03*
X209427500Y-123325000D03*
X209427500Y-124595000D03*
X209427500Y-125865000D03*
X209427500Y-127135000D03*
X209427500Y-128405000D03*
X209427500Y-129675000D03*
X209427500Y-130945000D03*
D44*
X210305000Y-133092500D03*
X211575000Y-133092500D03*
X212845000Y-133092500D03*
X214115000Y-133092500D03*
X215385000Y-133092500D03*
X216655000Y-133092500D03*
X217925000Y-133092500D03*
X219195000Y-133092500D03*
D45*
X220072500Y-130945000D03*
X220072500Y-129675000D03*
X220072500Y-128405000D03*
X220072500Y-127135000D03*
X220072500Y-125865000D03*
X220072500Y-124595000D03*
X220072500Y-123325000D03*
X220072500Y-122055000D03*
%TD*%
G36*
X216817121Y-148520002D02*
G01*
X216863614Y-148573658D01*
X216875000Y-148626000D01*
X216875000Y-156347810D01*
X216854998Y-156415931D01*
X216838095Y-156436905D01*
X215961905Y-157313095D01*
X215899593Y-157347121D01*
X215872810Y-157350000D01*
X136602190Y-157350000D01*
X136534069Y-157329998D01*
X136513095Y-157313095D01*
X135636905Y-156436905D01*
X135602879Y-156374593D01*
X135600000Y-156347810D01*
X135600000Y-148626000D01*
X135620002Y-148557879D01*
X135673658Y-148511386D01*
X135726000Y-148500000D01*
X216749000Y-148500000D01*
X216817121Y-148520002D01*
G37*
G36*
X130467121Y-148520002D02*
G01*
X130513614Y-148573658D01*
X130525000Y-148626000D01*
X130525000Y-156347810D01*
X130504998Y-156415931D01*
X130488095Y-156436905D01*
X129611905Y-157313095D01*
X129549593Y-157347121D01*
X129522810Y-157350000D01*
X83302170Y-157350000D01*
X83234049Y-157329998D01*
X83213075Y-157313095D01*
X82336905Y-156436925D01*
X82302879Y-156374613D01*
X82300000Y-156347830D01*
X82300000Y-148626000D01*
X82320002Y-148557879D01*
X82373658Y-148511386D01*
X82426000Y-148500000D01*
X130399000Y-148500000D01*
X130467121Y-148520002D01*
G37*
M02*
