%TF.GenerationSoftware,KiCad,Pcbnew,8.0.5-dirty*%
%TF.CreationDate,2025-01-01T18:08:14-08:00*%
%TF.ProjectId,nightshade,6e696768-7473-4686-9164-652e6b696361,rev?*%
%TF.SameCoordinates,Original*%
%TF.FileFunction,Soldermask,Bot*%
%TF.FilePolarity,Negative*%
%FSLAX46Y46*%
G04 Gerber Fmt 4.6, Leading zero omitted, Abs format (unit mm)*
G04 Created by KiCad (PCBNEW 8.0.5-dirty) date 2025-01-01 18:08:14*
%MOMM*%
%LPD*%
G01*
G04 APERTURE LIST*
G04 Aperture macros list*
%AMRoundRect*
0 Rectangle with rounded corners*
0 $1 Rounding radius*
0 $2 $3 $4 $5 $6 $7 $8 $9 X,Y pos of 4 corners*
0 Add a 4 corners polygon primitive as box body*
4,1,4,$2,$3,$4,$5,$6,$7,$8,$9,$2,$3,0*
0 Add four circle primitives for the rounded corners*
1,1,$1+$1,$2,$3*
1,1,$1+$1,$4,$5*
1,1,$1+$1,$6,$7*
1,1,$1+$1,$8,$9*
0 Add four rect primitives between the rounded corners*
20,1,$1+$1,$2,$3,$4,$5,0*
20,1,$1+$1,$4,$5,$6,$7,0*
20,1,$1+$1,$6,$7,$8,$9,0*
20,1,$1+$1,$8,$9,$2,$3,0*%
G04 Aperture macros list end*
%ADD10R,1.780000X7.620000*%
%ADD11R,1.700000X1.700000*%
%ADD12O,1.700000X1.700000*%
%ADD13R,1.000000X1.000000*%
%ADD14O,1.000000X1.000000*%
%ADD15C,4.450000*%
%ADD16RoundRect,0.102000X0.847500X-0.847500X0.847500X0.847500X-0.847500X0.847500X-0.847500X-0.847500X0*%
%ADD17C,1.899000*%
%ADD18RoundRect,0.250000X-0.650000X0.325000X-0.650000X-0.325000X0.650000X-0.325000X0.650000X0.325000X0*%
%ADD19RoundRect,0.250000X-1.075000X-0.550000X1.075000X-0.550000X1.075000X0.550000X-1.075000X0.550000X0*%
%ADD20RoundRect,0.250000X-0.250000X-0.475000X0.250000X-0.475000X0.250000X0.475000X-0.250000X0.475000X0*%
%ADD21RoundRect,0.250000X0.250000X0.475000X-0.250000X0.475000X-0.250000X-0.475000X0.250000X-0.475000X0*%
%ADD22RoundRect,0.250000X0.475000X-0.250000X0.475000X0.250000X-0.475000X0.250000X-0.475000X-0.250000X0*%
%ADD23RoundRect,0.249998X-0.262502X-0.450002X0.262502X-0.450002X0.262502X0.450002X-0.262502X0.450002X0*%
%ADD24RoundRect,0.249998X0.262502X0.450002X-0.262502X0.450002X-0.262502X-0.450002X0.262502X-0.450002X0*%
%ADD25RoundRect,0.250000X-0.262500X-0.450000X0.262500X-0.450000X0.262500X0.450000X-0.262500X0.450000X0*%
%ADD26RoundRect,0.150000X1.475000X0.150000X-1.475000X0.150000X-1.475000X-0.150000X1.475000X-0.150000X0*%
%ADD27RoundRect,0.250000X-0.850000X-0.350000X0.850000X-0.350000X0.850000X0.350000X-0.850000X0.350000X0*%
%ADD28RoundRect,0.249997X-2.950003X-2.650003X2.950003X-2.650003X2.950003X2.650003X-2.950003X2.650003X0*%
%ADD29RoundRect,0.250000X-0.475000X0.250000X-0.475000X-0.250000X0.475000X-0.250000X0.475000X0.250000X0*%
%ADD30R,0.800000X0.500000*%
%ADD31R,0.800000X0.400000*%
G04 APERTURE END LIST*
D10*
%TO.C,J2*%
X214350000Y-152310000D03*
X211810000Y-152310000D03*
X209270000Y-152310000D03*
X206730000Y-152310000D03*
X204190000Y-152310000D03*
X201650000Y-152310000D03*
X199110000Y-152310000D03*
X196570000Y-152310000D03*
X194030000Y-152310000D03*
X191490000Y-152310000D03*
X188950000Y-152310000D03*
X186410000Y-152310000D03*
X183870000Y-152310000D03*
X181330000Y-152310000D03*
X178790000Y-152310000D03*
X176250000Y-152310000D03*
X173710000Y-152310000D03*
X171170000Y-152310000D03*
X168630000Y-152310000D03*
X166090000Y-152310000D03*
X163550000Y-152310000D03*
X161010000Y-152310000D03*
X158470000Y-152310000D03*
X155930000Y-152310000D03*
X153390000Y-152310000D03*
X150850000Y-152310000D03*
X148310000Y-152310000D03*
X145770000Y-152310000D03*
X143230000Y-152310000D03*
X140690000Y-152310000D03*
X138150000Y-152310000D03*
X127990000Y-152310000D03*
X125450000Y-152310000D03*
X122910000Y-152310000D03*
X120370000Y-152310000D03*
X117830000Y-152310000D03*
X115290000Y-152310000D03*
X112750000Y-152310000D03*
X110210000Y-152310000D03*
X107670000Y-152310000D03*
X105130000Y-152310000D03*
X102590000Y-152310000D03*
X100050000Y-152310000D03*
X97510000Y-152310000D03*
X94970000Y-152310000D03*
X92430000Y-152310000D03*
X89890000Y-152310000D03*
X87350000Y-152310000D03*
X84810000Y-152310000D03*
%TD*%
D11*
%TO.C,JP3*%
X203886707Y-138750000D03*
D12*
X201346707Y-138750000D03*
%TD*%
D11*
%TO.C,J1*%
X190734770Y-88000000D03*
D12*
X190734770Y-90540000D03*
X188194770Y-88000000D03*
X188194770Y-90540000D03*
X185654770Y-88000000D03*
X185654770Y-90540000D03*
X183114770Y-88000000D03*
X183114770Y-90540000D03*
X180574770Y-88000000D03*
X180574770Y-90540000D03*
X178034770Y-88000000D03*
X178034770Y-90540000D03*
X175494770Y-88000000D03*
X175494770Y-90540000D03*
X172954770Y-88000000D03*
X172954770Y-90540000D03*
X170414770Y-88000000D03*
X170414770Y-90540000D03*
X167874770Y-88000000D03*
X167874770Y-90540000D03*
X165334770Y-88000000D03*
X165334770Y-90540000D03*
X162794770Y-88000000D03*
X162794770Y-90540000D03*
X160254770Y-88000000D03*
X160254770Y-90540000D03*
%TD*%
D13*
%TO.C,JP2*%
X215800000Y-112300000D03*
D14*
X215800000Y-113570000D03*
%TD*%
D13*
%TO.C,JP1*%
X212700000Y-112300000D03*
D14*
X212700000Y-113570000D03*
%TD*%
D15*
%TO.C,J3*%
X230000000Y-119395000D03*
X230000000Y-94405000D03*
D16*
X227500000Y-102545000D03*
D17*
X227500000Y-104835000D03*
X227500000Y-107125000D03*
X227500000Y-109415000D03*
X227500000Y-111705000D03*
X230000000Y-101400000D03*
X230000000Y-103690000D03*
X230000000Y-105980000D03*
X230000000Y-108270000D03*
X230000000Y-110560000D03*
X232500000Y-102545000D03*
X232500000Y-104835000D03*
X232500000Y-107125000D03*
X232500000Y-109415000D03*
X232500000Y-111705000D03*
%TD*%
D18*
%TO.C,C23*%
X124000000Y-130000000D03*
X124000000Y-132950000D03*
%TD*%
D19*
%TO.C,C31*%
X223825000Y-128500000D03*
X227175000Y-128500000D03*
%TD*%
D20*
%TO.C,C1*%
X122050000Y-97250000D03*
X123950000Y-97250000D03*
%TD*%
D21*
%TO.C,C6*%
X131200000Y-108625000D03*
X129300000Y-108625000D03*
%TD*%
D22*
%TO.C,C27*%
X186200000Y-133550000D03*
X186200000Y-131650000D03*
%TD*%
D23*
%TO.C,R19*%
X187987500Y-131800000D03*
X189812500Y-131800000D03*
%TD*%
D22*
%TO.C,C16*%
X172800000Y-145450000D03*
X172800000Y-143550000D03*
%TD*%
D24*
%TO.C,R12*%
X176500000Y-143500000D03*
X174675000Y-143500000D03*
%TD*%
D22*
%TO.C,C9*%
X219400000Y-141100000D03*
X219400000Y-139200000D03*
%TD*%
%TO.C,C55*%
X102250000Y-132900000D03*
X102250000Y-131000000D03*
%TD*%
D20*
%TO.C,C51*%
X100550000Y-97500000D03*
X102450000Y-97500000D03*
%TD*%
D25*
%TO.C,R22*%
X222975000Y-132000000D03*
X224800000Y-132000000D03*
%TD*%
D26*
%TO.C,U8*%
X102300000Y-102060000D03*
X102300000Y-103328000D03*
X102300000Y-104598000D03*
X102300000Y-105868000D03*
X102300000Y-107138000D03*
X102300000Y-108408000D03*
X102300000Y-109678000D03*
X102300000Y-110948000D03*
X102300000Y-112218000D03*
X102300000Y-113488000D03*
X102300000Y-114758000D03*
X102300000Y-116028000D03*
X102300000Y-117298000D03*
X102300000Y-118568000D03*
X102300000Y-119838000D03*
X102300000Y-121108000D03*
X102300000Y-122378000D03*
X102300000Y-123648000D03*
X102300000Y-124918000D03*
X102300000Y-126188000D03*
X92330000Y-126188000D03*
X92330000Y-124918000D03*
X92330000Y-123648000D03*
X92330000Y-122378000D03*
X92330000Y-121108000D03*
X92330000Y-119838000D03*
X92330000Y-118568000D03*
X92330000Y-117298000D03*
X92330000Y-116028000D03*
X92330000Y-114758000D03*
X92330000Y-113488000D03*
X92330000Y-112218000D03*
X92330000Y-110948000D03*
X92330000Y-109678000D03*
X92330000Y-108408000D03*
X92330000Y-107138000D03*
X92330000Y-105868000D03*
X92330000Y-104598000D03*
X92330000Y-103328000D03*
X92330000Y-102058000D03*
%TD*%
%TO.C,U7*%
X124000000Y-102002000D03*
X124000000Y-103270000D03*
X124000000Y-104540000D03*
X124000000Y-105810000D03*
X124000000Y-107080000D03*
X124000000Y-108350000D03*
X124000000Y-109620000D03*
X124000000Y-110890000D03*
X124000000Y-112160000D03*
X124000000Y-113430000D03*
X124000000Y-114700000D03*
X124000000Y-115970000D03*
X124000000Y-117240000D03*
X124000000Y-118510000D03*
X124000000Y-119780000D03*
X124000000Y-121050000D03*
X124000000Y-122320000D03*
X124000000Y-123590000D03*
X124000000Y-124860000D03*
X124000000Y-126130000D03*
X114030000Y-126130000D03*
X114030000Y-124860000D03*
X114030000Y-123590000D03*
X114030000Y-122320000D03*
X114030000Y-121050000D03*
X114030000Y-119780000D03*
X114030000Y-118510000D03*
X114030000Y-117240000D03*
X114030000Y-115970000D03*
X114030000Y-114700000D03*
X114030000Y-113430000D03*
X114030000Y-112160000D03*
X114030000Y-110890000D03*
X114030000Y-109620000D03*
X114030000Y-108350000D03*
X114030000Y-107080000D03*
X114030000Y-105810000D03*
X114030000Y-104540000D03*
X114030000Y-103270000D03*
X114030000Y-102000000D03*
%TD*%
D27*
%TO.C,U9*%
X222960000Y-139280000D03*
D28*
X229260000Y-137000000D03*
D27*
X222960000Y-134720000D03*
%TD*%
D29*
%TO.C,C53*%
X106800000Y-105550000D03*
X106800000Y-107450000D03*
%TD*%
D30*
%TO.C,RN3*%
X85850000Y-111400000D03*
D31*
X85850000Y-110600000D03*
X85850000Y-109800000D03*
D30*
X85850000Y-109000000D03*
X87650000Y-109000000D03*
D31*
X87650000Y-109800000D03*
X87650000Y-110600000D03*
D30*
X87650000Y-111400000D03*
%TD*%
G36*
X216817121Y-148520002D02*
G01*
X216863614Y-148573658D01*
X216875000Y-148626000D01*
X216875000Y-156347810D01*
X216854998Y-156415931D01*
X216838095Y-156436905D01*
X215961905Y-157313095D01*
X215899593Y-157347121D01*
X215872810Y-157350000D01*
X136602190Y-157350000D01*
X136534069Y-157329998D01*
X136513095Y-157313095D01*
X135636905Y-156436905D01*
X135602879Y-156374593D01*
X135600000Y-156347810D01*
X135600000Y-148626000D01*
X135620002Y-148557879D01*
X135673658Y-148511386D01*
X135726000Y-148500000D01*
X216749000Y-148500000D01*
X216817121Y-148520002D01*
G37*
G36*
X130467121Y-148520002D02*
G01*
X130513614Y-148573658D01*
X130525000Y-148626000D01*
X130525000Y-156347810D01*
X130504998Y-156415931D01*
X130488095Y-156436905D01*
X129611905Y-157313095D01*
X129549593Y-157347121D01*
X129522810Y-157350000D01*
X83302170Y-157350000D01*
X83234049Y-157329998D01*
X83213075Y-157313095D01*
X82336905Y-156436925D01*
X82302879Y-156374613D01*
X82300000Y-156347830D01*
X82300000Y-148626000D01*
X82320002Y-148557879D01*
X82373658Y-148511386D01*
X82426000Y-148500000D01*
X130399000Y-148500000D01*
X130467121Y-148520002D01*
G37*
M02*
