M48
; DRILL file {KiCad 8.0.5-dirty} date 2024-11-25T07:18:36-0800
; FORMAT={-:-/ absolute / inch / decimal}
; #@! TF.CreationDate,2024-11-25T07:18:36-08:00
; #@! TF.GenerationSoftware,Kicad,Pcbnew,8.0.5-dirty
; #@! TF.FileFunction,Plated,1,4,PTH
FMAT,2
INCH
; #@! TA.AperFunction,Plated,PTH,ViaDrill
T1C0.0157
; #@! TA.AperFunction,Plated,PTH,ComponentDrill
T2C0.0256
; #@! TA.AperFunction,Plated,PTH,ComponentDrill
T3C0.0394
; #@! TA.AperFunction,Plated,PTH,ComponentDrill
T4C0.0445
; #@! TA.AperFunction,Plated,PTH,ComponentDrill
T5C0.1272
%
G90
G05
T1
X3.2854Y-4.4055
X3.2854Y-4.5531
X3.2854Y-4.7008
X3.2854Y-4.8484
X3.2854Y-4.9961
X3.2854Y-5.1437
X3.2854Y-5.2913
X3.2854Y-5.4488
X3.2854Y-5.5866
X3.2854Y-5.7244
X3.2866Y-3.9492
X3.2874Y-4.0945
X3.2874Y-4.2559
X3.2886Y-3.6382
X3.2886Y-3.7996
X3.3218Y-3.775
X3.3421Y-5.7858
X3.3604Y-3.7603
X3.3909Y-3.7296
X3.4026Y-5.0246
X3.4214Y-3.7614
X3.4518Y-3.7282
X3.4567Y-3.3947
X3.4764Y-3.9528
X3.4764Y-4.0866
X3.4823Y-3.7617
X3.4872Y-5.1722
X3.5945Y-4.7874
X3.6102Y-3.7441
X3.6417Y-3.3947
X3.6742Y-3.7874
X3.7589Y-4.436
X3.7589Y-4.4872
X3.7589Y-4.5866
X3.7589Y-4.6388
X3.7589Y-4.6874
X3.7589Y-4.7372
X3.7835Y-3.6575
X3.8189Y-4.7559
X3.8209Y-4.5394
X3.8819Y-3.3947
X3.9094Y-4.3248
X3.9488Y-3.8858
X3.9488Y-4.0551
X4.1547Y-4.7421
X4.1654Y-4.2559
X4.1654Y-4.3878
X4.1693Y-3.3957
X4.1693Y-3.6309
X4.189Y-4.3386
X4.2008Y-3.9764
X4.2077Y-4.7421
X4.2087Y-4.6132
X4.2087Y-4.6811
X4.2106Y-4.5374
X4.2224Y-5.7244
X4.2598Y-3.6614
X4.3031Y-3.9764
X4.4173Y-4.4055
X4.4626Y-4.1191
X4.4863Y-3.8375
X4.503Y-4.8858
X4.5118Y-3.9685
X4.5394Y-4.3376
X4.5472Y-4.6506
X4.5482Y-4.7116
X4.5611Y-4.8102
X4.564Y-4.435
X4.564Y-4.4882
X4.564Y-4.5865
X4.5669Y-5.4331
X4.6752Y-3.7008
X4.7274Y-3.8865
X4.7274Y-3.938
X4.7274Y-3.9865
X4.7274Y-4.0364
X4.7274Y-4.1368
X4.7312Y-4.6088
X4.7606Y-4.1864
X4.7717Y-4.7116
X4.7815Y-4.8366
X4.7917Y-4.1571
X4.811Y-4.6299
X4.8173Y-4.8047
X4.8228Y-4.1299
X4.8524Y-5.3445
X4.8701Y-4.6732
X4.8819Y-3.7008
X4.8888Y-4.7372
X4.9311Y-5.3445
X4.9497Y-4.7371
X4.9512Y-4.0705
X4.9744Y-5.0
X4.998Y-5.801
X5.0098Y-5.3445
X5.0394Y-5.8022
X5.0886Y-5.3445
X5.1083Y-3.7008
X5.1143Y-4.5312
X5.126Y-3.8386
X5.1267Y-4.8014
X5.1417Y-4.3898
X5.1435Y-4.2695
X5.1673Y-5.3445
X5.1876Y-4.7366
X5.1969Y-4.4872
X5.2176Y-4.2084
X5.2323Y-4.4124
X5.2323Y-4.7382
X5.2461Y-5.3445
X5.248Y-4.1779
X5.252Y-4.2756
X5.2616Y-5.0344
X5.2759Y-4.739
X5.278Y-4.1475
X5.3044Y-4.1132
X5.3081Y-3.8711
X5.3209Y-4.2186
X5.3346Y-5.3445
X5.3657Y-4.2524
X5.3661Y-4.7766
X5.3907Y-4.4291
X5.4092Y-4.2629
X5.4409Y-4.7776
X5.4715Y-3.8711
X5.4782Y-4.8522
X5.4813Y-4.4213
X5.4965Y-4.3024
X5.5157Y-4.9446
X5.5197Y-5.0039
X5.6024Y-3.8307
X5.6102Y-5.0689
X5.6224Y-3.6614
X5.6378Y-3.9075
X5.6506Y-3.6309
X5.6575Y-4.811
X5.6918Y-3.6202
X5.6978Y-5.6929
X5.7436Y-3.6191
X5.7849Y-3.6191
X5.8Y-5.5285
X5.8262Y-3.6191
X5.8676Y-3.6191
X5.9183Y-3.6191
X5.9291Y-3.9016
X5.9449Y-4.8465
X5.9508Y-5.4579
X5.9803Y-3.624
X5.9862Y-5.8031
X6.0524Y-4.9486
X6.0896Y-5.8031
X6.1299Y-4.9181
X6.188Y-5.8031
X6.2008Y-3.3957
X6.2421Y-5.2264
X6.2598Y-4.3071
X6.2614Y-4.8579
X6.2696Y-5.1367
X6.2894Y-5.8022
X6.2992Y-3.3957
X6.3425Y-3.6496
X6.3836Y-4.8033
X6.3841Y-4.93
X6.3844Y-4.8882
X6.3848Y-4.8447
X6.3868Y-5.8022
X6.3892Y-3.7644
X6.4016Y-3.9409
X6.4663Y-4.8195
X6.4726Y-4.8603
X6.477Y-4.9015
X6.4902Y-5.8022
X6.494Y-4.9391
X6.4984Y-4.0022
X6.5012Y-4.0701
X6.5093Y-3.9623
X6.5236Y-4.0354
X6.5443Y-3.5423
X6.5701Y-4.0991
X6.5846Y-5.5433
X6.5869Y-3.9754
X6.5896Y-5.8022
X6.5908Y-3.8785
X6.5924Y-4.7504
X6.5941Y-4.8127
X6.6121Y-4.12
X6.6191Y-4.8457
X6.6191Y-4.8888
X6.6205Y-4.781
X6.6216Y-3.9129
X6.6437Y-3.7224
X6.6575Y-3.8189
X6.6614Y-5.5433
X6.6693Y-4.5827
X6.681Y-4.0864
X6.6835Y-4.3244
X6.6841Y-5.6024
X6.6919Y-5.8031
X6.7717Y-5.1839
X6.7717Y-5.3543
X6.7717Y-5.7205
X6.7835Y-5.6181
X6.8016Y-4.3451
X6.8164Y-4.4409
X6.8181Y-5.0492
X6.8228Y-4.1368
X6.8276Y-4.3772
X6.8533Y-4.4104
X6.8563Y-4.4803
X6.8622Y-4.2732
X6.8641Y-5.0087
X6.8868Y-5.814
X6.8946Y-4.9808
X6.9055Y-4.1083
X6.9833Y-5.814
X7.0315Y-4.1634
X7.0364Y-4.4075
X7.063Y-3.9075
X7.063Y-4.0
X7.1142Y-5.5984
X7.1299Y-4.2752
X7.1476Y-4.4321
X7.1638Y-5.7092
X7.1781Y-5.4911
X7.2165Y-3.9075
X7.2165Y-4.0
X7.246Y-4.9489
X7.2505Y-5.7372
X7.2736Y-5.1839
X7.3041Y-4.5531
X7.3307Y-5.1654
X7.3402Y-4.9488
X7.3602Y-4.0866
X7.378Y-3.9075
X7.378Y-4.0
X7.4065Y-5.4557
X7.4065Y-5.6299
X7.437Y-5.6654
X7.4713Y-5.8121
X7.4764Y-5.1772
X7.4803Y-4.5531
X7.4961Y-5.6654
X7.5472Y-3.9075
X7.5472Y-4.0
X7.5472Y-4.1969
X7.5472Y-5.6654
X7.5618Y-5.247
X7.5738Y-4.3287
X7.5827Y-5.0089
X7.6118Y-5.3701
X7.628Y-5.4882
X7.6305Y-3.6668
X7.6339Y-5.0049
X7.6625Y-4.5031
X7.6693Y-4.1358
X7.6827Y-5.0846
X7.6969Y-5.8071
X7.6978Y-4.5246
X7.7087Y-3.8169
X7.7087Y-3.9075
X7.7087Y-4.0
X7.7087Y-4.1969
X7.7116Y-5.3701
X7.7126Y-4.4094
X7.7224Y-5.4882
X7.7254Y-4.998
X7.7281Y-4.4966
X7.7588Y-4.5253
X7.7805Y-4.2404
X7.7844Y-5.8071
X7.8012Y-4.4646
X7.8118Y-5.3701
X7.8126Y-4.998
X7.874Y-3.8169
X7.874Y-3.9075
X7.874Y-4.0
X7.874Y-4.1969
X7.876Y-4.1358
X7.9075Y-5.8067
X7.9118Y-5.3701
X7.9126Y-4.9972
X7.9449Y-4.4724
X8.0039Y-4.4449
X8.0108Y-5.8071
X8.0122Y-4.9972
X8.0236Y-5.4882
X8.0433Y-3.8169
X8.0433Y-3.9075
X8.0433Y-4.0
X8.0433Y-4.1969
X8.0531Y-3.6476
X8.0728Y-5.7224
X8.1024Y-3.6142
X8.126Y-5.4882
X8.1309Y-4.5305
X8.1378Y-5.7323
X8.139Y-5.7823
X8.1556Y-5.0207
X8.1693Y-3.3967
X8.1969Y-5.0207
X8.1985Y-4.9341
X8.1987Y-4.9775
X8.1988Y-4.8481
X8.1989Y-4.7617
X8.199Y-4.8915
X8.2009Y-4.8068
X8.2126Y-5.1764
X8.2165Y-3.5984
X8.2165Y-5.4882
X8.2185Y-3.8169
X8.2185Y-3.9075
X8.2185Y-4.0
X8.2244Y-5.7559
X8.2254Y-4.3691
X8.2598Y-3.6299
X8.2602Y-5.6622
X8.2676Y-5.7127
X8.2933Y-4.7067
X8.2963Y-5.6823
X8.3228Y-5.185
X8.3258Y-5.752
X8.378Y-3.3967
X8.378Y-5.185
X8.3819Y-4.3691
X8.4252Y-5.3622
X8.4616Y-5.1703
X8.4764Y-5.4764
X8.4941Y-3.5344
X8.5098Y-5.0896
X8.5118Y-5.7795
X8.5148Y-5.627
X8.5256Y-5.0514
X8.5276Y-5.3189
X8.5344Y-5.7008
X8.5472Y-4.5512
X8.5472Y-5.7795
X8.5492Y-4.3307
X8.5541Y-5.627
X8.5748Y-3.3967
X8.5768Y-5.3189
X8.5827Y-5.7795
X8.5925Y-4.1043
X8.5945Y-3.9331
X8.6181Y-5.7795
X8.626Y-5.3189
X8.6329Y-3.6299
X8.6506Y-5.1772
X8.6535Y-4.9764
X8.6535Y-5.7795
X8.6969Y-3.5984
X8.6969Y-5.3583
X8.7185Y-4.3268
X8.7372Y-5.0758
X8.7441Y-4.876
X8.7441Y-4.9262
X8.75Y-4.5276
X8.7756Y-3.3967
X8.813Y-5.4104
X8.8228Y-5.7047
X8.8258Y-3.5413
X8.8819Y-3.815
X8.9311Y-4.5512
X8.9331Y-3.8661
X8.9567Y-3.9567
X8.9577Y-5.6211
X8.9646Y-3.3967
X9.0Y-5.7047
X9.0256Y-4.5512
X9.0591Y-3.8661
X9.1594Y-3.3957
X9.185Y-3.8701
X9.185Y-4.5512
X9.2618Y-3.6161
X9.2618Y-3.8307
X9.2618Y-3.998
X9.2618Y-4.1752
X9.2618Y-4.3327
X9.2618Y-4.5
X9.2618Y-4.6772
X9.2618Y-4.8583
X9.2618Y-5.0256
X9.2618Y-5.2028
X9.2618Y-5.3701
X9.2618Y-5.5472
T2
X8.2913Y-4.4213
X8.2913Y-4.4713
X8.4724Y-4.4213
X8.4724Y-4.4713
T3
X6.6805Y-3.5354
X6.6805Y-3.6354
X6.7805Y-3.5354
X6.7805Y-3.6354
X6.8805Y-3.5354
X6.8805Y-3.6354
X6.9805Y-3.5354
X6.9805Y-3.6354
X7.0805Y-3.5354
X7.0805Y-3.6354
X7.1805Y-3.5354
X7.1805Y-3.6354
X7.2805Y-3.5354
X7.2805Y-3.6354
X7.3805Y-3.5354
X7.3805Y-3.6354
X7.4805Y-3.5354
X7.4805Y-3.6354
X7.5805Y-3.5354
X7.5805Y-3.6354
X7.6205Y-5.6654
X7.6805Y-3.5354
X7.6805Y-3.6354
X7.7205Y-5.6654
X7.7805Y-3.5354
X7.7805Y-3.6354
X7.8805Y-3.5354
X7.8805Y-3.6354
T4
X8.9567Y-4.0372
X8.9567Y-4.1274
X8.9567Y-4.2175
X8.9567Y-4.3077
X8.9567Y-4.3978
X9.0551Y-3.9921
X9.0551Y-4.0823
X9.0551Y-4.1724
X9.0551Y-4.2626
X9.0551Y-4.3528
X9.1535Y-4.0372
X9.1535Y-4.1274
X9.1535Y-4.2175
X9.1535Y-4.3077
X9.1535Y-4.3978
T5
X9.0551Y-3.7167
X9.0551Y-4.7006
M30
