%TF.GenerationSoftware,KiCad,Pcbnew,8.0.5-dirty*%
%TF.CreationDate,2024-12-24T10:24:36-08:00*%
%TF.ProjectId,nightshade,6e696768-7473-4686-9164-652e6b696361,rev?*%
%TF.SameCoordinates,Original*%
%TF.FileFunction,Soldermask,Top*%
%TF.FilePolarity,Negative*%
%FSLAX46Y46*%
G04 Gerber Fmt 4.6, Leading zero omitted, Abs format (unit mm)*
G04 Created by KiCad (PCBNEW 8.0.5-dirty) date 2024-12-24 10:24:36*
%MOMM*%
%LPD*%
G01*
G04 APERTURE LIST*
G04 Aperture macros list*
%AMRoundRect*
0 Rectangle with rounded corners*
0 $1 Rounding radius*
0 $2 $3 $4 $5 $6 $7 $8 $9 X,Y pos of 4 corners*
0 Add a 4 corners polygon primitive as box body*
4,1,4,$2,$3,$4,$5,$6,$7,$8,$9,$2,$3,0*
0 Add four circle primitives for the rounded corners*
1,1,$1+$1,$2,$3*
1,1,$1+$1,$4,$5*
1,1,$1+$1,$6,$7*
1,1,$1+$1,$8,$9*
0 Add four rect primitives between the rounded corners*
20,1,$1+$1,$2,$3,$4,$5,0*
20,1,$1+$1,$4,$5,$6,$7,0*
20,1,$1+$1,$6,$7,$8,$9,0*
20,1,$1+$1,$8,$9,$2,$3,0*%
G04 Aperture macros list end*
%ADD10RoundRect,0.250000X0.250000X0.475000X-0.250000X0.475000X-0.250000X-0.475000X0.250000X-0.475000X0*%
%ADD11RoundRect,0.250000X-0.159099X0.512652X-0.512652X0.159099X0.159099X-0.512652X0.512652X-0.159099X0*%
%ADD12RoundRect,0.250000X-0.250000X-0.475000X0.250000X-0.475000X0.250000X0.475000X-0.250000X0.475000X0*%
%ADD13RoundRect,0.250000X0.475000X-0.250000X0.475000X0.250000X-0.475000X0.250000X-0.475000X-0.250000X0*%
%ADD14RoundRect,0.250000X-0.650000X0.325000X-0.650000X-0.325000X0.650000X-0.325000X0.650000X0.325000X0*%
%ADD15RoundRect,0.250000X-0.475000X0.250000X-0.475000X-0.250000X0.475000X-0.250000X0.475000X0.250000X0*%
%ADD16R,1.000000X1.000000*%
%ADD17RoundRect,0.218750X0.218750X0.381250X-0.218750X0.381250X-0.218750X-0.381250X0.218750X-0.381250X0*%
%ADD18R,1.780000X7.620000*%
%ADD19R,1.700000X1.700000*%
%ADD20O,1.700000X1.700000*%
%ADD21RoundRect,0.249998X-0.262502X-0.450002X0.262502X-0.450002X0.262502X0.450002X-0.262502X0.450002X0*%
%ADD22RoundRect,0.249998X-0.450002X0.262502X-0.450002X-0.262502X0.450002X-0.262502X0.450002X0.262502X0*%
%ADD23RoundRect,0.249998X0.450002X-0.262502X0.450002X0.262502X-0.450002X0.262502X-0.450002X-0.262502X0*%
%ADD24RoundRect,0.250100X-0.449900X0.262400X-0.449900X-0.262400X0.449900X-0.262400X0.449900X0.262400X0*%
%ADD25RoundRect,0.150000X0.150000X-0.875000X0.150000X0.875000X-0.150000X0.875000X-0.150000X-0.875000X0*%
%ADD26R,4.500000X2.000000*%
%ADD27RoundRect,0.249998X0.262502X0.450002X-0.262502X0.450002X-0.262502X-0.450002X0.262502X-0.450002X0*%
%ADD28RoundRect,0.150000X-1.475000X-0.150000X1.475000X-0.150000X1.475000X0.150000X-1.475000X0.150000X0*%
%ADD29RoundRect,0.250000X0.325000X0.650000X-0.325000X0.650000X-0.325000X-0.650000X0.325000X-0.650000X0*%
%ADD30C,2.000000*%
%ADD31RoundRect,0.200000X-0.200000X-0.275000X0.200000X-0.275000X0.200000X0.275000X-0.200000X0.275000X0*%
%ADD32RoundRect,0.249998X-0.132583X0.503816X-0.503816X0.132583X0.132583X-0.503816X0.503816X-0.132583X0*%
%ADD33RoundRect,0.150000X-0.825000X-0.150000X0.825000X-0.150000X0.825000X0.150000X-0.825000X0.150000X0*%
%ADD34R,0.800000X0.500000*%
%ADD35R,0.800000X0.400000*%
%ADD36RoundRect,0.250000X0.262500X0.450000X-0.262500X0.450000X-0.262500X-0.450000X0.262500X-0.450000X0*%
%ADD37O,1.000000X1.000000*%
%ADD38RoundRect,0.200000X0.200000X0.275000X-0.200000X0.275000X-0.200000X-0.275000X0.200000X-0.275000X0*%
%ADD39RoundRect,0.100000X0.775000X-0.100000X0.775000X0.100000X-0.775000X0.100000X-0.775000X-0.100000X0*%
%ADD40RoundRect,0.100000X0.100000X-0.775000X0.100000X0.775000X-0.100000X0.775000X-0.100000X-0.775000X0*%
%ADD41RoundRect,0.150000X-0.150000X-0.587500X0.150000X-0.587500X0.150000X0.587500X-0.150000X0.587500X0*%
%ADD42RoundRect,0.150000X-0.587500X-0.150000X0.587500X-0.150000X0.587500X0.150000X-0.587500X0.150000X0*%
%ADD43C,4.450000*%
%ADD44RoundRect,0.102000X0.847500X-0.847500X0.847500X0.847500X-0.847500X0.847500X-0.847500X-0.847500X0*%
%ADD45C,1.899000*%
G04 APERTURE END LIST*
D10*
%TO.C,C7*%
X172275000Y-109250000D03*
X174175000Y-109250000D03*
%TD*%
D11*
%TO.C,C8*%
X163828249Y-98346751D03*
X165171751Y-97003249D03*
%TD*%
D12*
%TO.C,C9*%
X135000000Y-126000000D03*
X133100000Y-126000000D03*
%TD*%
D13*
%TO.C,C10*%
X172900000Y-113350000D03*
X172900000Y-115250000D03*
%TD*%
D14*
%TO.C,C25*%
X137250000Y-135375000D03*
X137250000Y-132425000D03*
%TD*%
D12*
%TO.C,C36*%
X200200000Y-116000000D03*
X198300000Y-116000000D03*
%TD*%
%TO.C,C37*%
X204200000Y-116000000D03*
X202300000Y-116000000D03*
%TD*%
%TO.C,C38*%
X125250000Y-132400000D03*
X123350000Y-132400000D03*
%TD*%
%TO.C,C39*%
X130570000Y-132400000D03*
X128670000Y-132400000D03*
%TD*%
%TO.C,C43*%
X200200000Y-112000000D03*
X198300000Y-112000000D03*
%TD*%
%TO.C,C44*%
X204200000Y-112000000D03*
X202300000Y-112000000D03*
%TD*%
%TO.C,C45*%
X125250000Y-130430000D03*
X123350000Y-130430000D03*
%TD*%
%TO.C,C46*%
X130570000Y-130430000D03*
X128670000Y-130430000D03*
%TD*%
%TO.C,C31*%
X228350000Y-140500000D03*
X230250000Y-140500000D03*
%TD*%
D10*
%TO.C,C12*%
X130850000Y-134600000D03*
X132750000Y-134600000D03*
%TD*%
D12*
%TO.C,C13*%
X125250000Y-134600000D03*
X123350000Y-134600000D03*
%TD*%
D14*
%TO.C,C22*%
X219300000Y-140525000D03*
X219300000Y-143475000D03*
%TD*%
D15*
%TO.C,C24*%
X215400000Y-140550000D03*
X215400000Y-142450000D03*
%TD*%
D13*
%TO.C,C26*%
X215500000Y-107450000D03*
X215500000Y-105550000D03*
%TD*%
%TO.C,C28*%
X215500000Y-103950000D03*
X215500000Y-102050000D03*
%TD*%
%TO.C,C29*%
X215500000Y-100450000D03*
X215500000Y-98550000D03*
%TD*%
%TO.C,C33*%
X221050000Y-107450000D03*
X221050000Y-105550000D03*
%TD*%
%TO.C,C34*%
X221050000Y-103950000D03*
X221050000Y-102050000D03*
%TD*%
%TO.C,C35*%
X221000000Y-100450000D03*
X221000000Y-98550000D03*
%TD*%
D10*
%TO.C,C2*%
X117250000Y-97700000D03*
X119150000Y-97700000D03*
%TD*%
%TO.C,C3*%
X114800000Y-130250000D03*
X116700000Y-130250000D03*
%TD*%
D15*
%TO.C,C5*%
X110100000Y-108400000D03*
X110100000Y-106500000D03*
%TD*%
D10*
%TO.C,C27*%
X186700000Y-134810000D03*
X184800000Y-134810000D03*
%TD*%
D16*
%TO.C,D1*%
X201000000Y-89250000D03*
X198500000Y-89250000D03*
%TD*%
D17*
%TO.C,FB1*%
X219305000Y-98500000D03*
X217180000Y-98500000D03*
%TD*%
%TO.C,FB2*%
X219312500Y-102050000D03*
X217187500Y-102050000D03*
%TD*%
%TO.C,FB3*%
X219362500Y-105500000D03*
X217237500Y-105500000D03*
%TD*%
D18*
%TO.C,J2*%
X214350000Y-152310000D03*
X211810000Y-152310000D03*
X209270000Y-152310000D03*
X206730000Y-152310000D03*
X204190000Y-152310000D03*
X201650000Y-152310000D03*
X199110000Y-152310000D03*
X196570000Y-152310000D03*
X194030000Y-152310000D03*
X191490000Y-152310000D03*
X188950000Y-152310000D03*
X186410000Y-152310000D03*
X183870000Y-152310000D03*
X181330000Y-152310000D03*
X178790000Y-152310000D03*
X176250000Y-152310000D03*
X173710000Y-152310000D03*
X171170000Y-152310000D03*
X168630000Y-152310000D03*
X166090000Y-152310000D03*
X163550000Y-152310000D03*
X161010000Y-152310000D03*
X158470000Y-152310000D03*
X155930000Y-152310000D03*
X153390000Y-152310000D03*
X150850000Y-152310000D03*
X148310000Y-152310000D03*
X145770000Y-152310000D03*
X143230000Y-152310000D03*
X140690000Y-152310000D03*
X138150000Y-152310000D03*
X127990000Y-152310000D03*
X125450000Y-152310000D03*
X122910000Y-152310000D03*
X120370000Y-152310000D03*
X117830000Y-152310000D03*
X115290000Y-152310000D03*
X112750000Y-152310000D03*
X110210000Y-152310000D03*
X107670000Y-152310000D03*
X105130000Y-152310000D03*
X102590000Y-152310000D03*
X100050000Y-152310000D03*
X97510000Y-152310000D03*
X94970000Y-152310000D03*
X92430000Y-152310000D03*
X89890000Y-152310000D03*
X87350000Y-152310000D03*
X84810000Y-152310000D03*
%TD*%
D19*
%TO.C,JP3*%
X196100000Y-143900000D03*
D20*
X193560000Y-143900000D03*
%TD*%
D21*
%TO.C,R27*%
X202162500Y-114000000D03*
X200337500Y-114000000D03*
%TD*%
D22*
%TO.C,R28*%
X126960000Y-132400000D03*
X126960000Y-130575000D03*
%TD*%
D23*
%TO.C,R15*%
X196000000Y-92412500D03*
X196000000Y-90587500D03*
%TD*%
D22*
%TO.C,R14*%
X194000000Y-90587500D03*
X194000000Y-92412500D03*
%TD*%
%TO.C,R29*%
X84500000Y-104500000D03*
D24*
X84500000Y-102675000D03*
%TD*%
D21*
%TO.C,R19*%
X184837500Y-136800000D03*
X186662500Y-136800000D03*
%TD*%
D25*
%TO.C,U6*%
X192285000Y-134950000D03*
X193555000Y-134950000D03*
X194825000Y-134950000D03*
X196095000Y-134950000D03*
X197365000Y-134950000D03*
X198635000Y-134950000D03*
X199905000Y-134950000D03*
X201175000Y-134950000D03*
X202445000Y-134950000D03*
X203715000Y-134950000D03*
X203715000Y-125650000D03*
X202445000Y-125650000D03*
X201175000Y-125650000D03*
X199905000Y-125650000D03*
X198635000Y-125650000D03*
X197365000Y-125650000D03*
X196095000Y-125650000D03*
X194825000Y-125650000D03*
X193555000Y-125650000D03*
X192285000Y-125650000D03*
%TD*%
D26*
%TO.C,Y1*%
X122650000Y-138250000D03*
X131150000Y-138250000D03*
%TD*%
D27*
%TO.C,R26*%
X196662500Y-112000000D03*
X194837500Y-112000000D03*
%TD*%
%TO.C,R23*%
X114837500Y-132250000D03*
X116662500Y-132250000D03*
%TD*%
D28*
%TO.C,U2*%
X124970000Y-101970000D03*
X124970000Y-103240000D03*
X124970000Y-104510000D03*
X124970000Y-105780000D03*
X124970000Y-107050000D03*
X124970000Y-108320000D03*
X124970000Y-109590000D03*
X124970000Y-110860000D03*
X124970000Y-112130000D03*
X124970000Y-113400000D03*
X124970000Y-114670000D03*
X124970000Y-115940000D03*
X124970000Y-117210000D03*
X124970000Y-118480000D03*
X124970000Y-119750000D03*
X124970000Y-121020000D03*
X124970000Y-122290000D03*
X124970000Y-123560000D03*
X124970000Y-124830000D03*
X124970000Y-126100000D03*
X115000000Y-126100000D03*
X115000000Y-124830000D03*
X115000000Y-123560000D03*
X115000000Y-122290000D03*
X115000000Y-121020000D03*
X115000000Y-119750000D03*
X115000000Y-118480000D03*
X115000000Y-117210000D03*
X115000000Y-115940000D03*
X115000000Y-114670000D03*
X115000000Y-113400000D03*
X115000000Y-112130000D03*
X115000000Y-110860000D03*
X115000000Y-109590000D03*
X115000000Y-108320000D03*
X115000000Y-107050000D03*
X115000000Y-105780000D03*
X115000000Y-104510000D03*
X115000000Y-103240000D03*
X115000000Y-101972000D03*
%TD*%
%TO.C,U3*%
X99000000Y-101970000D03*
X99000000Y-103240000D03*
X99000000Y-104510000D03*
X99000000Y-105780000D03*
X99000000Y-107050000D03*
X99000000Y-108320000D03*
X99000000Y-109590000D03*
X99000000Y-110860000D03*
X99000000Y-112130000D03*
X99000000Y-113400000D03*
X99000000Y-114670000D03*
X99000000Y-115940000D03*
X99000000Y-117210000D03*
X99000000Y-118480000D03*
X99000000Y-119750000D03*
X99000000Y-121020000D03*
X99000000Y-122290000D03*
X99000000Y-123560000D03*
X99000000Y-124830000D03*
X99000000Y-126100000D03*
X89030000Y-126100000D03*
X89030000Y-124830000D03*
X89030000Y-123560000D03*
X89030000Y-122290000D03*
X89030000Y-121020000D03*
X89030000Y-119750000D03*
X89030000Y-118480000D03*
X89030000Y-117210000D03*
X89030000Y-115940000D03*
X89030000Y-114670000D03*
X89030000Y-113400000D03*
X89030000Y-112130000D03*
X89030000Y-110860000D03*
X89030000Y-109590000D03*
X89030000Y-108320000D03*
X89030000Y-107050000D03*
X89030000Y-105780000D03*
X89030000Y-104510000D03*
X89030000Y-103240000D03*
X89030000Y-101972000D03*
%TD*%
D12*
%TO.C,C42*%
X190175000Y-123325000D03*
X192075000Y-123325000D03*
%TD*%
D29*
%TO.C,C30*%
X113825000Y-134500000D03*
X116775000Y-134500000D03*
%TD*%
D23*
%TO.C,R16*%
X213500000Y-107412500D03*
X213500000Y-105587500D03*
%TD*%
%TO.C,R17*%
X213500000Y-103912500D03*
X213500000Y-102087500D03*
%TD*%
%TO.C,R18*%
X213550000Y-100412500D03*
X213550000Y-98587500D03*
%TD*%
D30*
%TO.C,FID2*%
X233000000Y-142750000D03*
%TD*%
%TO.C,FID3*%
X88000000Y-83500000D03*
%TD*%
D31*
%TO.C,R11*%
X192225000Y-112000000D03*
X190575000Y-112000000D03*
%TD*%
D10*
%TO.C,C15*%
X183250000Y-140600000D03*
X181350000Y-140600000D03*
%TD*%
D15*
%TO.C,C16*%
X172000000Y-140000000D03*
X172000000Y-141900000D03*
%TD*%
D23*
%TO.C,R12*%
X172000000Y-145300000D03*
X172000000Y-143475000D03*
%TD*%
D27*
%TO.C,R13*%
X183212500Y-142600000D03*
X181387500Y-142600000D03*
%TD*%
D13*
%TO.C,C17*%
X174910000Y-146845000D03*
X174910000Y-144945000D03*
%TD*%
%TO.C,C18*%
X177350000Y-146800000D03*
X177350000Y-144900000D03*
%TD*%
D27*
%TO.C,R3*%
X133287500Y-118700000D03*
X135112500Y-118700000D03*
%TD*%
%TO.C,R4*%
X129812500Y-115475000D03*
X131637500Y-115475000D03*
%TD*%
D32*
%TO.C,R5*%
X106854765Y-111895235D03*
X108145235Y-110604765D03*
%TD*%
D23*
%TO.C,R6*%
X137700000Y-96175000D03*
X137700000Y-98000000D03*
%TD*%
D27*
%TO.C,R7*%
X133000000Y-108125000D03*
X134825000Y-108125000D03*
%TD*%
%TO.C,R8*%
X133287500Y-114200000D03*
X135112500Y-114200000D03*
%TD*%
D21*
%TO.C,R10*%
X216587500Y-85700000D03*
X218412500Y-85700000D03*
%TD*%
D33*
%TO.C,U4*%
X198364977Y-91195154D03*
X198364977Y-92465154D03*
X198364977Y-93735154D03*
X198364977Y-95005154D03*
X203314977Y-95005154D03*
X203314977Y-93735154D03*
X203314977Y-92465154D03*
X203314977Y-91195154D03*
%TD*%
D31*
%TO.C,R24*%
X211175000Y-115500000D03*
X212825000Y-115500000D03*
%TD*%
D10*
%TO.C,C56*%
X89131425Y-97750000D03*
X91031425Y-97750000D03*
%TD*%
D15*
%TO.C,C41*%
X218400000Y-112100000D03*
X218400000Y-114000000D03*
%TD*%
D34*
%TO.C,RN1*%
X218400000Y-92200000D03*
D35*
X218400000Y-91400000D03*
X218400000Y-90600000D03*
D34*
X218400000Y-89800000D03*
X216600000Y-89800000D03*
D35*
X216600000Y-90600000D03*
X216600000Y-91400000D03*
D34*
X216600000Y-92200000D03*
%TD*%
D12*
%TO.C,C32*%
X174150000Y-118250000D03*
X172250000Y-118250000D03*
%TD*%
D36*
%TO.C,R22*%
X223662500Y-140500000D03*
X221837500Y-140500000D03*
%TD*%
D34*
%TO.C,RN2*%
X223500000Y-92200000D03*
D35*
X223500000Y-91400000D03*
X223500000Y-90600000D03*
D34*
X223500000Y-89800000D03*
X221700000Y-89800000D03*
D35*
X221700000Y-90600000D03*
X221700000Y-91400000D03*
D34*
X221700000Y-92200000D03*
%TD*%
D10*
%TO.C,C54*%
X89050000Y-130250000D03*
X90950000Y-130250000D03*
%TD*%
D16*
%TO.C,JP2*%
X215800000Y-112300000D03*
D37*
X215800000Y-113570000D03*
%TD*%
D12*
%TO.C,C4*%
X137250000Y-101300000D03*
X139150000Y-101300000D03*
%TD*%
D38*
%TO.C,R25*%
X217525000Y-115500000D03*
X215875000Y-115500000D03*
%TD*%
D12*
%TO.C,C48*%
X169050000Y-100250000D03*
X170950000Y-100250000D03*
%TD*%
D39*
%TO.C,U1*%
X138000000Y-129300000D03*
X138000000Y-128650000D03*
X138000000Y-128000000D03*
X138000000Y-127350000D03*
X138000000Y-126700000D03*
X138000000Y-126050000D03*
X138000000Y-125400000D03*
X138000000Y-124750000D03*
X138000000Y-124100000D03*
X138000000Y-123450000D03*
X138000000Y-122800000D03*
X138000000Y-122150000D03*
X138000000Y-121500000D03*
X138000000Y-120850000D03*
X138000000Y-120200000D03*
X138000000Y-119550000D03*
X138000000Y-118900000D03*
X138000000Y-118250000D03*
X138000000Y-117600000D03*
X138000000Y-116950000D03*
X138000000Y-116300000D03*
X138000000Y-115650000D03*
X138000000Y-115000000D03*
X138000000Y-114350000D03*
X138000000Y-113700000D03*
X138000000Y-113050000D03*
X138000000Y-112400000D03*
X138000000Y-111750000D03*
X138000000Y-111100000D03*
X138000000Y-110450000D03*
X138000000Y-109800000D03*
X138000000Y-109150000D03*
X138000000Y-108500000D03*
X138000000Y-107850000D03*
X138000000Y-107200000D03*
X138000000Y-106550000D03*
X138000000Y-105900000D03*
X138000000Y-105250000D03*
X138000000Y-104600000D03*
X138000000Y-103950000D03*
D40*
X140450000Y-101500000D03*
X141100000Y-101500000D03*
X141750000Y-101500000D03*
X142400000Y-101500000D03*
X143050000Y-101500000D03*
X143700000Y-101500000D03*
X144350000Y-101500000D03*
X145000000Y-101500000D03*
X145650000Y-101500000D03*
X146300000Y-101500000D03*
X146950000Y-101500000D03*
X147600000Y-101500000D03*
X148250000Y-101500000D03*
X148900000Y-101500000D03*
X149550000Y-101500000D03*
X150200000Y-101500000D03*
X150850000Y-101500000D03*
X151500000Y-101500000D03*
X152150000Y-101500000D03*
X152800000Y-101500000D03*
X153450000Y-101500000D03*
X154100000Y-101500000D03*
X154750000Y-101500000D03*
X155400000Y-101500000D03*
X156050000Y-101500000D03*
X156700000Y-101500000D03*
X157350000Y-101500000D03*
X158000000Y-101500000D03*
X158650000Y-101500000D03*
X159300000Y-101500000D03*
X159950000Y-101500000D03*
X160600000Y-101500000D03*
X161250000Y-101500000D03*
X161900000Y-101500000D03*
X162550000Y-101500000D03*
X163200000Y-101500000D03*
X163850000Y-101500000D03*
X164500000Y-101500000D03*
X165150000Y-101500000D03*
X165800000Y-101500000D03*
D39*
X168250000Y-103950000D03*
X168250000Y-104600000D03*
X168250000Y-105250000D03*
X168250000Y-105900000D03*
X168250000Y-106550000D03*
X168250000Y-107200000D03*
X168250000Y-107850000D03*
X168250000Y-108500000D03*
X168250000Y-109150000D03*
X168250000Y-109800000D03*
X168250000Y-110450000D03*
X168250000Y-111100000D03*
X168250000Y-111750000D03*
X168250000Y-112400000D03*
X168250000Y-113050000D03*
X168250000Y-113700000D03*
X168250000Y-114350000D03*
X168250000Y-115000000D03*
X168250000Y-115650000D03*
X168250000Y-116300000D03*
X168250000Y-116950000D03*
X168250000Y-117600000D03*
X168250000Y-118250000D03*
X168250000Y-118900000D03*
X168250000Y-119550000D03*
X168250000Y-120200000D03*
X168250000Y-120850000D03*
X168250000Y-121500000D03*
X168250000Y-122150000D03*
X168250000Y-122800000D03*
X168250000Y-123450000D03*
X168250000Y-124100000D03*
X168250000Y-124750000D03*
X168250000Y-125400000D03*
X168250000Y-126050000D03*
X168250000Y-126700000D03*
X168250000Y-127350000D03*
X168250000Y-128000000D03*
X168250000Y-128650000D03*
X168250000Y-129300000D03*
D40*
X165800000Y-131750000D03*
X165150000Y-131750000D03*
X164500000Y-131750000D03*
X163850000Y-131750000D03*
X163200000Y-131750000D03*
X162550000Y-131750000D03*
X161900000Y-131750000D03*
X161250000Y-131750000D03*
X160600000Y-131750000D03*
X159950000Y-131750000D03*
X159300000Y-131750000D03*
X158650000Y-131750000D03*
X158000000Y-131750000D03*
X157350000Y-131750000D03*
X156700000Y-131750000D03*
X156050000Y-131750000D03*
X155400000Y-131750000D03*
X154750000Y-131750000D03*
X154100000Y-131750000D03*
X153450000Y-131750000D03*
X152800000Y-131750000D03*
X152150000Y-131750000D03*
X151500000Y-131750000D03*
X150850000Y-131750000D03*
X150200000Y-131750000D03*
X149550000Y-131750000D03*
X148900000Y-131750000D03*
X148250000Y-131750000D03*
X147600000Y-131750000D03*
X146950000Y-131750000D03*
X146300000Y-131750000D03*
X145650000Y-131750000D03*
X145000000Y-131750000D03*
X144350000Y-131750000D03*
X143700000Y-131750000D03*
X143050000Y-131750000D03*
X142400000Y-131750000D03*
X141750000Y-131750000D03*
X141100000Y-131750000D03*
X140450000Y-131750000D03*
%TD*%
D16*
%TO.C,JP1*%
X212700000Y-112300000D03*
D37*
X212700000Y-113570000D03*
%TD*%
D41*
%TO.C,U5*%
X215300000Y-119562500D03*
X214030000Y-119562500D03*
X212760000Y-119562500D03*
X211490000Y-119562500D03*
D42*
X209737500Y-121320000D03*
X209737500Y-122590000D03*
X209737500Y-123860000D03*
X209737500Y-125130000D03*
X209737500Y-126400000D03*
X209737500Y-127670000D03*
X209737500Y-128940000D03*
X209737500Y-130210000D03*
X209737500Y-131480000D03*
D41*
X211490000Y-133237500D03*
X212760000Y-133237500D03*
X214030000Y-133237500D03*
X215300000Y-133237500D03*
X216570000Y-133237500D03*
X217840000Y-133237500D03*
X219110000Y-133237500D03*
D42*
X220862500Y-131480000D03*
X220862500Y-130210000D03*
X220862500Y-128940000D03*
X220862500Y-127670000D03*
X220862500Y-126400000D03*
X220862500Y-125130000D03*
X220862500Y-123860000D03*
X220862500Y-122590000D03*
X220862500Y-121320000D03*
D41*
X219110000Y-119562500D03*
X217840000Y-119562500D03*
X216570000Y-119562500D03*
%TD*%
D15*
%TO.C,C52*%
X84500000Y-108200000D03*
X84500000Y-106300000D03*
%TD*%
D11*
%TO.C,C49*%
X154078249Y-137361751D03*
X155421751Y-136018249D03*
%TD*%
D10*
%TO.C,C47*%
X133250000Y-116400000D03*
X135150000Y-116400000D03*
%TD*%
D12*
%TO.C,C11*%
X220139084Y-85700000D03*
X222039084Y-85700000D03*
%TD*%
%TO.C,C14*%
X220150000Y-82900000D03*
X222050000Y-82900000D03*
%TD*%
D13*
%TO.C,C50*%
X149100000Y-97300000D03*
X149100000Y-99200000D03*
%TD*%
D43*
%TO.C,J3*%
X230000000Y-119395000D03*
X230000000Y-94405000D03*
D44*
X227500000Y-102545000D03*
D45*
X227500000Y-104835000D03*
X227500000Y-107125000D03*
X227500000Y-109415000D03*
X227500000Y-111705000D03*
X230000000Y-101400000D03*
X230000000Y-103690000D03*
X230000000Y-105980000D03*
X230000000Y-108270000D03*
X230000000Y-110560000D03*
X232500000Y-102545000D03*
X232500000Y-104835000D03*
X232500000Y-107125000D03*
X232500000Y-109415000D03*
X232500000Y-111705000D03*
%TD*%
D21*
%TO.C,R9*%
X218412500Y-82900000D03*
X216587500Y-82900000D03*
%TD*%
D19*
%TO.C,J1*%
X189750000Y-87000000D03*
D20*
X189750000Y-89540000D03*
X187210000Y-87000000D03*
X187210000Y-89540000D03*
X184670000Y-87000000D03*
X184670000Y-89540000D03*
X182130000Y-87000000D03*
X182130000Y-89540000D03*
X179590000Y-87000000D03*
X179590000Y-89540000D03*
X177050000Y-87000000D03*
X177050000Y-89540000D03*
X174510000Y-87000000D03*
X174510000Y-89540000D03*
X171970000Y-87000000D03*
X171970000Y-89540000D03*
X169430000Y-87000000D03*
X169430000Y-89540000D03*
X166890000Y-87000000D03*
X166890000Y-89540000D03*
X164350000Y-87000000D03*
X164350000Y-89540000D03*
X161810000Y-87000000D03*
X161810000Y-89540000D03*
X159270000Y-87000000D03*
X159270000Y-89540000D03*
%TD*%
D30*
%TO.C,FID1*%
X231250000Y-83500000D03*
%TD*%
G36*
X216817121Y-148520002D02*
G01*
X216863614Y-148573658D01*
X216875000Y-148626000D01*
X216875000Y-156347810D01*
X216854998Y-156415931D01*
X216838095Y-156436905D01*
X215961905Y-157313095D01*
X215899593Y-157347121D01*
X215872810Y-157350000D01*
X136602190Y-157350000D01*
X136534069Y-157329998D01*
X136513095Y-157313095D01*
X135636905Y-156436905D01*
X135602879Y-156374593D01*
X135600000Y-156347810D01*
X135600000Y-148626000D01*
X135620002Y-148557879D01*
X135673658Y-148511386D01*
X135726000Y-148500000D01*
X216749000Y-148500000D01*
X216817121Y-148520002D01*
G37*
G36*
X130467121Y-148520002D02*
G01*
X130513614Y-148573658D01*
X130525000Y-148626000D01*
X130525000Y-156347810D01*
X130504998Y-156415931D01*
X130488095Y-156436905D01*
X129611905Y-157313095D01*
X129549593Y-157347121D01*
X129522810Y-157350000D01*
X83302170Y-157350000D01*
X83234049Y-157329998D01*
X83213075Y-157313095D01*
X82336905Y-156436925D01*
X82302879Y-156374613D01*
X82300000Y-156347830D01*
X82300000Y-148626000D01*
X82320002Y-148557879D01*
X82373658Y-148511386D01*
X82426000Y-148500000D01*
X130399000Y-148500000D01*
X130467121Y-148520002D01*
G37*
M02*
