%TF.GenerationSoftware,KiCad,Pcbnew,8.0.5-dirty*%
%TF.CreationDate,2024-12-26T06:52:50-08:00*%
%TF.ProjectId,nightshade,6e696768-7473-4686-9164-652e6b696361,rev?*%
%TF.SameCoordinates,Original*%
%TF.FileFunction,Drillmap*%
%TF.FilePolarity,Positive*%
%FSLAX45Y45*%
G04 Gerber Fmt 4.5, Leading zero omitted, Abs format (unit mm)*
G04 Created by KiCad (PCBNEW 8.0.5-dirty) date 2024-12-26 06:52:50*
%MOMM*%
%LPD*%
G01*
G04 APERTURE LIST*
%ADD10C,0.050000*%
%ADD11C,0.200000*%
G04 APERTURE END LIST*
D10*
X23710000Y-8545000D02*
X23710000Y-14100000D01*
X23315000Y-14495000D01*
X21687500Y-14495000D01*
X21687500Y-15640000D01*
X21592500Y-15735000D01*
X13655000Y-15735000D01*
X13560000Y-15640000D01*
X13560000Y-14825000D01*
X13052500Y-14825000D01*
X13052500Y-15640000D01*
X12957500Y-15735000D01*
X8324998Y-15735000D01*
X8230000Y-15640002D01*
X8230000Y-13199962D01*
X8224013Y-8494479D01*
X8542360Y-8180000D01*
X23345000Y-8180000D01*
X23710000Y-8545000D01*
D11*
X8482290Y-16048984D02*
X8482290Y-15848984D01*
X8482290Y-15848984D02*
X8529909Y-15848984D01*
X8529909Y-15848984D02*
X8558481Y-15858508D01*
X8558481Y-15858508D02*
X8577528Y-15877555D01*
X8577528Y-15877555D02*
X8587052Y-15896603D01*
X8587052Y-15896603D02*
X8596576Y-15934698D01*
X8596576Y-15934698D02*
X8596576Y-15963269D01*
X8596576Y-15963269D02*
X8587052Y-16001365D01*
X8587052Y-16001365D02*
X8577528Y-16020412D01*
X8577528Y-16020412D02*
X8558481Y-16039460D01*
X8558481Y-16039460D02*
X8529909Y-16048984D01*
X8529909Y-16048984D02*
X8482290Y-16048984D01*
X8682290Y-16048984D02*
X8682290Y-15915650D01*
X8682290Y-15953746D02*
X8691814Y-15934698D01*
X8691814Y-15934698D02*
X8701338Y-15925174D01*
X8701338Y-15925174D02*
X8720385Y-15915650D01*
X8720385Y-15915650D02*
X8739433Y-15915650D01*
X8806100Y-16048984D02*
X8806100Y-15915650D01*
X8806100Y-15848984D02*
X8796576Y-15858508D01*
X8796576Y-15858508D02*
X8806100Y-15868031D01*
X8806100Y-15868031D02*
X8815624Y-15858508D01*
X8815624Y-15858508D02*
X8806100Y-15848984D01*
X8806100Y-15848984D02*
X8806100Y-15868031D01*
X8929909Y-16048984D02*
X8910862Y-16039460D01*
X8910862Y-16039460D02*
X8901338Y-16020412D01*
X8901338Y-16020412D02*
X8901338Y-15848984D01*
X9034671Y-16048984D02*
X9015624Y-16039460D01*
X9015624Y-16039460D02*
X9006100Y-16020412D01*
X9006100Y-16020412D02*
X9006100Y-15848984D01*
X9263243Y-16048984D02*
X9263243Y-15848984D01*
X9263243Y-15848984D02*
X9329909Y-15991841D01*
X9329909Y-15991841D02*
X9396576Y-15848984D01*
X9396576Y-15848984D02*
X9396576Y-16048984D01*
X9577528Y-16048984D02*
X9577528Y-15944222D01*
X9577528Y-15944222D02*
X9568005Y-15925174D01*
X9568005Y-15925174D02*
X9548957Y-15915650D01*
X9548957Y-15915650D02*
X9510862Y-15915650D01*
X9510862Y-15915650D02*
X9491814Y-15925174D01*
X9577528Y-16039460D02*
X9558481Y-16048984D01*
X9558481Y-16048984D02*
X9510862Y-16048984D01*
X9510862Y-16048984D02*
X9491814Y-16039460D01*
X9491814Y-16039460D02*
X9482290Y-16020412D01*
X9482290Y-16020412D02*
X9482290Y-16001365D01*
X9482290Y-16001365D02*
X9491814Y-15982317D01*
X9491814Y-15982317D02*
X9510862Y-15972793D01*
X9510862Y-15972793D02*
X9558481Y-15972793D01*
X9558481Y-15972793D02*
X9577528Y-15963269D01*
X9672766Y-15915650D02*
X9672766Y-16115650D01*
X9672766Y-15925174D02*
X9691814Y-15915650D01*
X9691814Y-15915650D02*
X9729909Y-15915650D01*
X9729909Y-15915650D02*
X9748957Y-15925174D01*
X9748957Y-15925174D02*
X9758481Y-15934698D01*
X9758481Y-15934698D02*
X9768005Y-15953746D01*
X9768005Y-15953746D02*
X9768005Y-16010888D01*
X9768005Y-16010888D02*
X9758481Y-16029936D01*
X9758481Y-16029936D02*
X9748957Y-16039460D01*
X9748957Y-16039460D02*
X9729909Y-16048984D01*
X9729909Y-16048984D02*
X9691814Y-16048984D01*
X9691814Y-16048984D02*
X9672766Y-16039460D01*
X9853719Y-16029936D02*
X9863243Y-16039460D01*
X9863243Y-16039460D02*
X9853719Y-16048984D01*
X9853719Y-16048984D02*
X9844195Y-16039460D01*
X9844195Y-16039460D02*
X9853719Y-16029936D01*
X9853719Y-16029936D02*
X9853719Y-16048984D01*
X9853719Y-15925174D02*
X9863243Y-15934698D01*
X9863243Y-15934698D02*
X9853719Y-15944222D01*
X9853719Y-15944222D02*
X9844195Y-15934698D01*
X9844195Y-15934698D02*
X9853719Y-15925174D01*
X9853719Y-15925174D02*
X9853719Y-15944222D01*
M02*
