M48
; DRILL file {KiCad 8.0.5-dirty} date 2024-12-13T11:37:28-0800
; FORMAT={-:-/ absolute / inch / decimal}
; #@! TF.CreationDate,2024-12-13T11:37:28-08:00
; #@! TF.GenerationSoftware,Kicad,Pcbnew,8.0.5-dirty
; #@! TF.FileFunction,Plated,1,4,PTH
FMAT,2
INCH
; #@! TA.AperFunction,Plated,PTH,ViaDrill
T1C0.0157
; #@! TA.AperFunction,Plated,PTH,ComponentDrill
T2C0.0256
; #@! TA.AperFunction,Plated,PTH,ComponentDrill
T3C0.0394
; #@! TA.AperFunction,Plated,PTH,ComponentDrill
T4C0.0445
; #@! TA.AperFunction,Plated,PTH,ComponentDrill
T5C0.1272
%
G90
G05
T1
X3.2776Y-5.2165
X3.2776Y-5.3642
X3.2776Y-5.526
X3.2776Y-5.6846
X3.2795Y-3.6339
X3.2795Y-3.7953
X3.2795Y-3.9291
X3.2795Y-4.2516
X3.2795Y-4.4134
X3.2795Y-4.563
X3.2795Y-4.6969
X3.2795Y-4.8587
X3.2795Y-5.0118
X3.3421Y-5.7858
X3.4961Y-3.937
X3.4964Y-3.9841
X3.4966Y-3.886
X3.5Y-4.0315
X3.5321Y-4.7718
X3.5335Y-4.0874
X3.5345Y-4.6505
X3.5346Y-4.6937
X3.5354Y-4.5874
X3.539Y-5.2307
X3.5433Y-4.4882
X3.622Y-5.0866
X3.6268Y-3.5527
X3.7008Y-4.437
X3.8701Y-4.1516
X3.8739Y-4.2136
X3.878Y-3.9026
X3.878Y-3.9685
X3.8804Y-4.2746
X3.8819Y-3.8425
X3.8821Y-4.3485
X3.8821Y-4.0906
X3.9038Y-3.9349
X3.905Y-3.9998
X3.9055Y-4.311
X3.9135Y-4.2441
X3.9173Y-4.1831
X3.9254Y-4.122
X3.9272Y-4.3898
X3.9272Y-4.439
X3.9272Y-4.5394
X3.9272Y-4.5866
X3.9272Y-4.6378
X3.9272Y-4.685
X3.9272Y-4.7362
X3.9272Y-4.7933
X3.9961Y-4.8425
X4.1516Y-3.689
X4.185Y-4.9449
X4.2844Y-5.7244
X4.3071Y-3.7756
X4.311Y-4.0157
X4.3622Y-4.437
X4.3661Y-4.5822
X4.3661Y-4.7043
X4.3661Y-4.7659
X4.3666Y-4.6433
X4.3996Y-4.8012
X4.4004Y-4.7354
X4.4016Y-4.5394
X4.4016Y-4.6738
X4.402Y-4.6061
X4.4705Y-4.1496
X4.5177Y-3.9665
X4.5591Y-4.9134
X4.6457Y-3.748
X4.6457Y-4.9803
X4.7146Y-4.8425
X4.7244Y-4.1764
X4.7244Y-4.2402
X4.7244Y-4.3012
X4.7244Y-4.4496
X4.7317Y-4.1081
X4.7323Y-3.748
X4.7343Y-3.9075
X4.7343Y-3.9744
X4.7343Y-4.0364
X4.7352Y-3.8445
X4.7352Y-4.5327
X4.7357Y-4.6374
X4.7446Y-4.6998
X4.7556Y-4.7608
X4.7599Y-4.5756
X4.8031Y-4.872
X4.8438Y-4.5118
X4.8661Y-4.3874
X4.8917Y-4.062
X4.8918Y-3.8691
X4.8918Y-3.9911
X4.8934Y-3.9301
X4.9016Y-4.3425
X4.9016Y-4.4179
X4.9055Y-4.2707
X4.9104Y-4.7913
X4.9105Y-4.1461
X4.9105Y-4.7303
X4.9114Y-5.3445
X4.9133Y-4.6693
X4.9142Y-4.2096
X4.9176Y-4.6083
X4.9547Y-3.748
X4.9902Y-5.3445
X4.9988Y-3.6946
X5.0244Y-5.8007
X5.0661Y-5.8022
X5.0689Y-5.3445
X5.1112Y-4.3879
X5.1278Y-4.0888
X5.1278Y-4.7892
X5.1398Y-3.748
X5.1476Y-5.3445
X5.16Y-4.7633
X5.1892Y-4.237
X5.2046Y-4.7618
X5.2232Y-4.2136
X5.2264Y-5.3445
X5.2303Y-4.427
X5.2479Y-4.7617
X5.2573Y-4.1902
X5.2616Y-5.0344
X5.2648Y-4.3266
X5.2835Y-5.8031
X5.2954Y-4.1733
X5.3036Y-4.8375
X5.3051Y-5.3445
X5.3228Y-4.4921
X5.3307Y-4.4163
X5.3504Y-3.8307
X5.3661Y-4.7766
X5.378Y-4.2638
X5.3937Y-5.3445
X5.4016Y-4.4488
X5.4247Y-4.2601
X5.466Y-4.2629
X5.4782Y-4.8522
X5.4783Y-4.4035
X5.4965Y-4.3024
X5.5157Y-4.9446
X5.5224Y-3.887
X5.5956Y-3.623
X5.6142Y-5.0354
X5.6369Y-3.6211
X5.6378Y-3.9075
X5.6782Y-3.6191
X5.6791Y-4.7736
X5.7047Y-5.685
X5.7213Y-3.6191
X5.7598Y-3.3425
X5.7627Y-3.62
X5.7717Y-5.5709
X5.8031Y-5.8031
X5.804Y-3.6191
X5.8453Y-3.6191
X5.8885Y-3.6191
X5.8937Y-5.8031
X5.9291Y-3.9016
X5.9429Y-3.6535
X5.9449Y-4.8465
X5.9685Y-3.3425
X5.9862Y-5.8031
X6.0524Y-4.9486
X6.0896Y-5.8031
X6.1299Y-4.9181
X6.1575Y-5.252
X6.188Y-5.8031
X6.2598Y-4.3071
X6.2614Y-4.8579
X6.2648Y-5.1368
X6.2894Y-5.8022
X6.3427Y-3.6936
X6.3543Y-3.9488
X6.3583Y-3.3169
X6.3836Y-4.8033
X6.3841Y-4.93
X6.3844Y-4.8882
X6.3848Y-4.8447
X6.3868Y-5.8022
X6.3892Y-3.7644
X6.3947Y-3.6841
X6.436Y-3.6499
X6.4404Y-3.5655
X6.4405Y-3.6087
X6.4417Y-3.5236
X6.4901Y-4.8878
X6.4902Y-4.8031
X6.4902Y-4.8445
X6.4902Y-5.8022
X6.4907Y-4.9291
X6.5217Y-3.5118
X6.5787Y-5.8031
X6.5846Y-5.5433
X6.5862Y-3.8766
X6.627Y-4.7431
X6.627Y-4.7844
X6.627Y-4.8258
X6.627Y-4.8671
X6.627Y-4.9085
X6.6555Y-3.7697
X6.6614Y-5.5433
X6.6693Y-4.5827
X6.6835Y-4.3244
X6.6841Y-5.6024
X6.6919Y-5.8031
X6.75Y-3.8425
X6.7717Y-5.1839
X6.7717Y-5.3543
X6.7717Y-5.7205
X6.7835Y-5.6181
X6.8013Y-4.4117
X6.8181Y-5.0197
X6.8259Y-4.4449
X6.8447Y-4.9746
X6.8563Y-4.4803
X6.8622Y-4.1181
X6.886Y-4.9721
X6.8868Y-5.814
X6.9685Y-4.2874
X6.9833Y-5.814
X7.0256Y-4.4449
X7.0364Y-3.6539
X7.063Y-3.9075
X7.063Y-3.9941
X7.0678Y-4.444
X7.1142Y-5.5984
X7.1638Y-5.7092
X7.1781Y-5.4911
X7.2165Y-3.9075
X7.2165Y-3.9941
X7.2343Y-4.3406
X7.2441Y-4.4449
X7.2505Y-5.7372
X7.2628Y-4.9616
X7.2736Y-5.1839
X7.3307Y-5.1654
X7.3571Y-5.4327
X7.3579Y-4.965
X7.378Y-3.9075
X7.378Y-3.9941
X7.4213Y-3.3169
X7.437Y-5.6654
X7.447Y-3.5364
X7.4508Y-3.5974
X7.4713Y-5.8121
X7.4764Y-5.1772
X7.4803Y-3.565
X7.4803Y-3.6289
X7.4961Y-5.6654
X7.5098Y-4.9252
X7.5472Y-3.8169
X7.5472Y-3.9075
X7.5472Y-3.9941
X7.5472Y-4.0866
X7.5472Y-5.6654
X7.5492Y-4.4892
X7.5618Y-4.9252
X7.5618Y-5.247
X7.5988Y-4.5084
X7.6083Y-4.3602
X7.6118Y-5.3701
X7.6142Y-5.8071
X7.628Y-5.4882
X7.6339Y-5.0049
X7.6618Y-4.5282
X7.6827Y-5.0846
X7.7027Y-4.5414
X7.7087Y-3.8169
X7.7087Y-3.9075
X7.7087Y-3.9941
X7.7116Y-5.3701
X7.7224Y-5.4882
X7.7254Y-4.998
X7.7657Y-4.3602
X7.7844Y-5.8071
X7.8118Y-5.3701
X7.8126Y-4.998
X7.874Y-3.8169
X7.874Y-3.9075
X7.874Y-3.9941
X7.8839Y-4.3996
X7.9075Y-5.8067
X7.9118Y-5.3701
X7.9232Y-4.1358
X7.9232Y-4.248
X7.9287Y-4.9973
X8.0108Y-5.8071
X8.0196Y-5.0001
X8.0236Y-5.4882
X8.0433Y-3.8169
X8.0433Y-3.9075
X8.0433Y-3.9941
X8.0433Y-4.1969
X8.1378Y-5.7323
X8.139Y-5.7743
X8.1556Y-5.0207
X8.1693Y-3.3967
X8.1969Y-5.0207
X8.1985Y-4.9341
X8.1987Y-4.9775
X8.1988Y-4.8481
X8.1989Y-4.7617
X8.199Y-4.8915
X8.2009Y-4.8068
X8.2138Y-5.7924
X8.2185Y-3.8169
X8.2185Y-3.9075
X8.2185Y-3.9941
X8.2215Y-5.1614
X8.2406Y-5.7204
X8.2625Y-5.6854
X8.2824Y-5.6491
X8.2933Y-4.7067
X8.3112Y-5.1632
X8.315Y-4.5118
X8.3258Y-5.7608
X8.3528Y-5.1632
X8.4252Y-5.3622
X8.4488Y-5.1299
X8.4744Y-4.6161
X8.4744Y-5.7598
X8.5098Y-5.0896
X8.5256Y-5.0514
X8.5276Y-5.3189
X8.5492Y-4.3307
X8.5531Y-5.5315
X8.5748Y-3.3967
X8.5768Y-5.3189
X8.5827Y-4.5276
X8.5925Y-4.1043
X8.5945Y-3.9331
X8.6102Y-4.9764
X8.622Y-4.9007
X8.622Y-3.6358
X8.626Y-5.3189
X8.626Y-4.8595
X8.6506Y-5.1772
X8.7Y-3.5978
X8.7047Y-4.313
X8.7106Y-5.6496
X8.7372Y-5.0758
X8.75Y-4.5276
X8.7756Y-3.3967
X8.8071Y-5.0758
X8.8258Y-3.5413
X8.8799Y-5.6496
X8.8898Y-4.0354
X8.9311Y-4.5512
X8.9567Y-3.9567
X8.9567Y-5.5315
X8.9646Y-3.3967
X9.0256Y-4.5512
X9.0571Y-5.6496
X9.1594Y-3.3957
X9.185Y-4.5512
X9.252Y-3.6161
X9.252Y-3.8307
X9.252Y-3.998
X9.252Y-4.1752
X9.252Y-4.3327
X9.252Y-4.5
X9.252Y-4.6772
X9.252Y-4.8583
X9.252Y-5.0256
X9.252Y-5.2028
X9.252Y-5.3701
X9.252Y-5.5472
T2
X8.374Y-4.4213
X8.374Y-4.4713
X8.4961Y-4.4213
X8.4961Y-4.4713
T3
X5.7587Y-3.1496
X5.7587Y-3.2496
X5.8587Y-3.1496
X5.8587Y-3.2496
X5.9587Y-3.1496
X5.9587Y-3.2496
X6.0587Y-3.1496
X6.0587Y-3.2496
X6.1587Y-3.1496
X6.1587Y-3.2496
X6.2587Y-3.1496
X6.2587Y-3.2496
X6.3587Y-3.1496
X6.3587Y-3.2496
X6.4587Y-3.1496
X6.4587Y-3.2496
X6.5587Y-3.1496
X6.5587Y-3.2496
X6.6587Y-3.1496
X6.6587Y-3.2496
X6.7587Y-3.1496
X6.7587Y-3.2496
X6.8587Y-3.1496
X6.8587Y-3.2496
X6.9587Y-3.1496
X6.9587Y-3.2496
X7.6205Y-5.6654
X7.7205Y-5.6654
T4
X8.9567Y-4.0372
X8.9567Y-4.1274
X8.9567Y-4.2175
X8.9567Y-4.3077
X8.9567Y-4.3978
X9.0551Y-3.9921
X9.0551Y-4.0823
X9.0551Y-4.1724
X9.0551Y-4.2626
X9.0551Y-4.3528
X9.1535Y-4.0372
X9.1535Y-4.1274
X9.1535Y-4.2175
X9.1535Y-4.3077
X9.1535Y-4.3978
T5
X9.0551Y-3.7167
X9.0551Y-4.7006
M30
