M48
; DRILL file {KiCad 8.0.5-dirty} date 2025-01-01T18:08:17-0800
; FORMAT={-:-/ absolute / inch / decimal}
; #@! TF.CreationDate,2025-01-01T18:08:17-08:00
; #@! TF.GenerationSoftware,Kicad,Pcbnew,8.0.5-dirty
; #@! TF.FileFunction,Plated,1,4,PTH
FMAT,2
INCH
; #@! TA.AperFunction,Plated,PTH,ViaDrill
T1C0.0157
; #@! TA.AperFunction,Plated,PTH,ComponentDrill
T2C0.0256
; #@! TA.AperFunction,Plated,PTH,ComponentDrill
T3C0.0394
; #@! TA.AperFunction,Plated,PTH,ComponentDrill
T4C0.0445
; #@! TA.AperFunction,Plated,PTH,ComponentDrill
T5C0.1272
%
G90
G05
T1
X3.2776Y-3.6846
X3.2776Y-5.1571
X3.2776Y-5.3047
X3.2776Y-5.4665
X3.2776Y-5.6252
X3.2795Y-3.4055
X3.2795Y-3.5035
X3.2795Y-3.852
X3.2795Y-4.0193
X3.2795Y-4.1764
X3.2795Y-4.4878
X3.2795Y-4.6374
X3.2795Y-4.7992
X3.2795Y-4.9524
X3.3421Y-5.7858
X3.3563Y-3.3268
X3.3858Y-4.7047
X3.4144Y-4.8788
X3.4144Y-4.9675
X3.4164Y-4.8277
X3.4242Y-4.0639
X3.4252Y-4.1142
X3.4253Y-4.612
X3.4272Y-3.25
X3.4273Y-4.1613
X3.4291Y-4.2087
X3.4449Y-4.7646
X3.4941Y-4.2608
X3.5091Y-3.7894
X3.5433Y-5.4331
X3.5807Y-3.248
X3.7205Y-4.068
X3.7205Y-4.1142
X3.7205Y-4.168
X3.7205Y-4.218
X3.7244Y-4.0236
X3.7378Y-3.248
X3.752Y-4.3287
X3.7558Y-4.3907
X3.7623Y-4.4518
X3.7639Y-4.5257
X3.7836Y-4.3602
X3.7861Y-4.2992
X3.7874Y-4.4882
X3.7902Y-4.4213
X3.8091Y-4.5669
X3.8091Y-4.6161
X3.8091Y-4.7165
X3.8091Y-4.7638
X3.8091Y-4.815
X3.8091Y-4.8622
X3.8091Y-4.9134
X3.8091Y-4.9705
X3.8189Y-4.2618
X3.8571Y-5.0246
X3.9189Y-3.25
X4.0256Y-5.122
X4.0335Y-3.7894
X4.0862Y-3.248
X4.1949Y-4.2579
X4.2429Y-5.8181
X4.2441Y-4.6142
X4.248Y-4.7594
X4.248Y-4.8814
X4.248Y-4.9431
X4.2485Y-4.8204
X4.2535Y-3.248
X4.2598Y-4.1929
X4.2815Y-4.9783
X4.2822Y-4.9126
X4.2835Y-4.7165
X4.2835Y-4.8509
X4.2839Y-4.7833
X4.3346Y-4.3327
X4.339Y-5.8209
X4.3996Y-4.1437
X4.4106Y-3.248
X4.431Y-5.0807
X4.4402Y-5.8209
X4.5276Y-3.9252
X4.5276Y-5.1673
X4.5394Y-5.8209
X4.5724Y-3.248
X4.5906Y-4.6268
X4.5965Y-5.0197
X4.6063Y-4.3535
X4.6063Y-4.4173
X4.6063Y-4.4783
X4.6135Y-4.2852
X4.6161Y-4.0846
X4.6161Y-4.1516
X4.6161Y-4.2136
X4.6167Y-4.8016
X4.617Y-4.7053
X4.6171Y-4.0217
X4.6171Y-4.8627
X4.6251Y-4.9256
X4.639Y-4.7403
X4.639Y-5.8209
X4.685Y-5.0492
X4.722Y-3.248
X4.7343Y-3.9252
X4.7409Y-5.8209
X4.748Y-4.5646
X4.7658Y-4.6713
X4.7736Y-4.2392
X4.7737Y-4.0463
X4.7737Y-4.1683
X4.7753Y-4.1073
X4.7835Y-4.5197
X4.7874Y-4.4478
X4.7923Y-4.3233
X4.7925Y-4.9561
X4.7959Y-4.8951
X4.7961Y-4.3868
X4.7975Y-4.589
X4.8031Y-4.76
X4.8031Y-4.8322
X4.8394Y-5.8209
X4.8717Y-3.248
X4.8819Y-3.9272
X4.9386Y-5.8209
X4.9892Y-4.5547
X4.9921Y-5.8228
X5.0036Y-4.9391
X5.0096Y-4.2659
X5.0217Y-3.9252
X5.0335Y-3.248
X5.0389Y-4.9606
X5.0522Y-5.816
X5.0721Y-4.4131
X5.0802Y-4.9606
X5.1042Y-4.3871
X5.1215Y-4.9606
X5.126Y-4.5433
X5.128Y-4.6042
X5.128Y-4.6693
X5.1406Y-4.3674
X5.1728Y-4.3414
X5.1949Y-3.248
X5.2047Y-4.939
X5.2323Y-4.0079
X5.2717Y-4.3888
X5.2872Y-4.6698
X5.2874Y-4.622
X5.3085Y-4.4085
X5.3448Y-4.4281
X5.3602Y-3.248
X5.3602Y-4.5807
X5.4043Y-4.0642
X5.4528Y-5.8071
X5.4882Y-4.6299
X5.4921Y-5.2717
X5.4921Y-4.4685
X5.5074Y-4.9504
X5.5197Y-4.0846
X5.5335Y-3.248
X5.5434Y-3.7977
X5.561Y-4.9508
X5.5783Y-3.8198
X5.6161Y-3.8395
X5.6287Y-5.7425
X5.6571Y-3.8501
X5.6967Y-3.8619
X5.7067Y-3.248
X5.7076Y-5.126
X5.7363Y-3.8737
X5.7382Y-5.6378
X5.776Y-3.8855
X5.7771Y-5.4864
X5.7854Y-5.4459
X5.7874Y-5.126
X5.7972Y-5.4063
X5.8031Y-5.8031
X5.8089Y-5.3667
X5.811Y-4.0787
X5.8159Y-3.896
X5.8207Y-5.3271
X5.8248Y-3.8307
X5.8268Y-5.0236
X5.8325Y-5.2875
X5.8443Y-5.2478
X5.8799Y-3.248
X5.8937Y-5.8031
X5.9135Y-5.1289
X5.9862Y-5.8031
X5.9941Y-5.7382
X6.0118Y-5.0953
X6.0394Y-5.4291
X6.0551Y-3.248
X6.0709Y-5.1024
X6.0896Y-5.8031
X6.0925Y-5.6693
X6.0984Y-5.376
X6.1417Y-4.4843
X6.1433Y-5.035
X6.188Y-5.8031
X6.1909Y-5.6004
X6.2169Y-3.248
X6.247Y-3.7413
X6.2478Y-3.6657
X6.2642Y-3.7037
X6.2655Y-4.9805
X6.2659Y-5.1072
X6.2663Y-5.0654
X6.2667Y-5.0218
X6.2894Y-3.9272
X6.2894Y-5.5413
X6.2894Y-5.8022
X6.3665Y-3.248
X6.372Y-5.065
X6.372Y-4.9803
X6.372Y-5.0217
X6.3726Y-5.1063
X6.3777Y-4.0475
X6.3868Y-5.8022
X6.3878Y-4.3602
X6.3878Y-5.5413
X6.437Y-4.8776
X6.442Y-4.9186
X6.4558Y-4.9576
X6.4567Y-4.7638
X6.4646Y-3.7975
X6.468Y-4.0538
X6.473Y-4.9969
X6.4931Y-5.033
X6.5161Y-3.248
X6.5266Y-4.348
X6.5315Y-5.3425
X6.5512Y-5.7008
X6.5571Y-4.3815
X6.5571Y-4.4232
X6.5613Y-5.0098
X6.562Y-3.9469
X6.5621Y-5.0538
X6.5654Y-4.5016
X6.5689Y-4.6555
X6.5728Y-4.1181
X6.628Y-4.0098
X6.639Y-5.7244
X6.6496Y-5.3583
X6.6716Y-4.2972
X6.678Y-3.248
X6.6795Y-4.3582
X6.6831Y-4.5889
X6.6919Y-5.8031
X6.6929Y-5.4724
X6.7012Y-4.6424
X6.7154Y-4.9636
X6.7426Y-4.5172
X6.7598Y-3.6142
X6.7677Y-4.3583
X6.7698Y-4.9231
X6.7717Y-3.9173
X6.8217Y-4.8888
X6.8394Y-3.248
X6.8602Y-4.5374
X6.8922Y-4.8648
X6.9331Y-5.315
X6.9488Y-5.7185
X6.9528Y-4.6073
X6.9577Y-4.4331
X6.9585Y-4.8425
X6.9915Y-4.5876
X7.0047Y-3.248
X7.0417Y-4.5414
X7.0669Y-3.9272
X7.0669Y-4.065
X7.0669Y-4.1929
X7.0669Y-4.3504
X7.0866Y-5.2559
X7.0955Y-5.5811
X7.178Y-3.248
X7.1781Y-5.4134
X7.1811Y-5.2559
X7.1933Y-5.6935
X7.2146Y-4.3504
X7.2165Y-3.9272
X7.2165Y-4.065
X7.2165Y-4.1929
X7.248Y-5.6722
X7.2814Y-5.7107
X7.2835Y-5.2559
X7.3512Y-3.248
X7.3524Y-4.5374
X7.3539Y-4.9886
X7.3563Y-5.7037
X7.372Y-5.3071
X7.3735Y-5.2544
X7.378Y-3.9272
X7.378Y-4.065
X7.378Y-4.1909
X7.3819Y-4.3504
X7.3917Y-5.1181
X7.4769Y-5.8076
X7.5244Y-3.248
X7.5472Y-3.9272
X7.5472Y-4.065
X7.5472Y-4.1929
X7.5492Y-4.3504
X7.5689Y-5.0079
X7.5827Y-5.3783
X7.5969Y-4.6467
X7.6203Y-5.0079
X7.6211Y-5.2677
X7.6401Y-4.6467
X7.6827Y-5.0846
X7.6832Y-4.6467
X7.6949Y-5.3868
X7.6961Y-3.248
X7.6969Y-4.498
X7.6969Y-5.6594
X7.7067Y-5.8071
X7.7087Y-3.9272
X7.7087Y-4.065
X7.7087Y-4.1929
X7.7087Y-4.311
X7.7205Y-5.2687
X7.7264Y-4.6467
X7.7264Y-5.0
X7.7352Y-5.7638
X7.7992Y-5.8071
X7.815Y-5.5512
X7.815Y-5.7087
X7.8169Y-5.2677
X7.8203Y-5.0
X7.8248Y-4.4291
X7.8248Y-4.6358
X7.8579Y-3.248
X7.874Y-3.9272
X7.874Y-4.065
X7.874Y-4.1929
X7.874Y-4.311
X7.912Y-5.2681
X7.9232Y-5.5315
X7.9232Y-5.6398
X7.9232Y-5.8067
X7.9429Y-4.5276
X7.9429Y-4.6358
X7.944Y-5.0054
X7.9764Y-5.2362
X8.0075Y-3.248
X8.0108Y-5.8071
X8.0291Y-4.9945
X8.0472Y-3.9272
X8.0472Y-4.065
X8.0472Y-4.1929
X8.0472Y-4.311
X8.061Y-4.5276
X8.061Y-4.6358
X8.0709Y-5.5315
X8.0866Y-5.6693
X8.1156Y-4.9947
X8.1176Y-5.0399
X8.1419Y-4.8778
X8.1496Y-5.5315
X8.1496Y-5.6398
X8.1571Y-3.248
X8.1791Y-4.5276
X8.1791Y-4.6358
X8.1811Y-4.8459
X8.189Y-5.2126
X8.2087Y-4.9252
X8.2087Y-4.9803
X8.2126Y-5.0276
X8.2185Y-4.1929
X8.2186Y-5.1597
X8.2205Y-3.9272
X8.2205Y-4.065
X8.2205Y-4.311
X8.2874Y-5.5748
X8.3101Y-4.8594
X8.3112Y-5.1632
X8.315Y-4.5118
X8.3169Y-4.6358
X8.3169Y-5.4232
X8.3169Y-5.5315
X8.3189Y-3.248
X8.3268Y-5.7165
X8.3465Y-3.3563
X8.3465Y-3.4843
X8.3465Y-4.7671
X8.3465Y-4.9902
X8.3528Y-5.1632
X8.3681Y-5.5512
X8.4252Y-4.9902
X8.4252Y-5.4232
X8.4252Y-5.5315
X8.435Y-4.5374
X8.4487Y-3.6898
X8.4488Y-3.6288
X8.4488Y-5.1299
X8.4637Y-4.8352
X8.4764Y-3.7205
X8.4766Y-3.6594
X8.4775Y-4.7963
X8.4803Y-3.248
X8.5Y-4.6339
X8.5Y-5.7913
X8.5285Y-5.3671
X8.5531Y-5.4232
X8.5531Y-5.5315
X8.5596Y-4.9764
X8.565Y-4.8602
X8.5669Y-4.3307
X8.5709Y-4.2047
X8.5748Y-4.0472
X8.5783Y-5.3204
X8.5827Y-4.5276
X8.5901Y-5.0069
X8.6092Y-4.8593
X8.622Y-5.2854
X8.6319Y-4.7638
X8.6457Y-3.248
X8.6457Y-3.7205
X8.6506Y-5.1772
X8.6811Y-3.689
X8.7106Y-5.6496
X8.7531Y-3.6237
X8.7598Y-4.9902
X8.7677Y-4.5276
X8.8209Y-3.248
X8.8307Y-3.622
X8.8583Y-3.75
X8.8799Y-5.6496
X8.8898Y-5.1969
X8.9311Y-4.5512
X8.9567Y-3.9567
X8.9862Y-3.248
X8.9862Y-5.3543
X8.9862Y-5.4331
X9.0256Y-4.5512
X9.0256Y-5.3937
X9.0571Y-5.6496
X9.065Y-5.3543
X9.065Y-5.4331
X9.1339Y-3.248
X9.185Y-4.5512
X9.2165Y-3.3268
X9.252Y-4.5
X9.252Y-4.6772
X9.252Y-4.8583
X9.252Y-5.0256
X9.252Y-5.2028
X9.252Y-5.3701
X9.252Y-5.5472
X9.2953Y-3.4055
T2
X8.374Y-4.4213
X8.374Y-4.4713
X8.4961Y-4.4213
X8.4961Y-4.4713
T3
X6.3092Y-3.4646
X6.3092Y-3.5646
X6.4092Y-3.4646
X6.4092Y-3.5646
X6.5092Y-3.4646
X6.5092Y-3.5646
X6.6092Y-3.4646
X6.6092Y-3.5646
X6.7092Y-3.4646
X6.7092Y-3.5646
X6.8092Y-3.4646
X6.8092Y-3.5646
X6.9092Y-3.4646
X6.9092Y-3.5646
X7.0092Y-3.4646
X7.0092Y-3.5646
X7.1092Y-3.4646
X7.1092Y-3.5646
X7.2092Y-3.4646
X7.2092Y-3.5646
X7.3092Y-3.4646
X7.3092Y-3.5646
X7.4092Y-3.4646
X7.4092Y-3.5646
X7.5092Y-3.4646
X7.5092Y-3.5646
X7.927Y-5.4626
X8.027Y-5.4626
T4
X8.9567Y-4.0372
X8.9567Y-4.1274
X8.9567Y-4.2175
X8.9567Y-4.3077
X8.9567Y-4.3978
X9.0551Y-3.9921
X9.0551Y-4.0823
X9.0551Y-4.1724
X9.0551Y-4.2626
X9.0551Y-4.3528
X9.1535Y-4.0372
X9.1535Y-4.1274
X9.1535Y-4.2175
X9.1535Y-4.3077
X9.1535Y-4.3978
T5
X9.0551Y-3.7167
X9.0551Y-4.7006
M30
