%TF.GenerationSoftware,KiCad,Pcbnew,8.0.5-dirty*%
%TF.CreationDate,2025-01-01T18:58:06-08:00*%
%TF.ProjectId,nightshade,6e696768-7473-4686-9164-652e6b696361,rev?*%
%TF.SameCoordinates,Original*%
%TF.FileFunction,Drillmap*%
%TF.FilePolarity,Positive*%
%FSLAX45Y45*%
G04 Gerber Fmt 4.5, Leading zero omitted, Abs format (unit mm)*
G04 Created by KiCad (PCBNEW 8.0.5-dirty) date 2025-01-01 18:58:06*
%MOMM*%
%LPD*%
G01*
G04 APERTURE LIST*
%ADD10C,0.050000*%
%ADD11C,0.200000*%
%ADD12C,0.100000*%
%ADD13C,0.113000*%
%ADD14C,0.323000*%
G04 APERTURE END LIST*
D10*
X23710000Y-8545000D02*
X23710000Y-14100000D01*
X23315000Y-14495000D01*
X21687500Y-14495000D01*
X21687500Y-15640000D01*
X21592500Y-15735000D01*
X13655000Y-15735000D01*
X13560000Y-15640000D01*
X13560000Y-14825000D01*
X13052500Y-14825000D01*
X13052500Y-15640000D01*
X12957500Y-15735000D01*
X8324998Y-15735000D01*
X8230000Y-15640002D01*
X8230000Y-13199962D01*
X8224013Y-8494479D01*
X8542360Y-8180000D01*
X23345000Y-8180000D01*
X23710000Y-8545000D01*
D11*
D12*
X8305000Y-9339000D02*
X8345000Y-9379000D01*
X8345000Y-9339000D02*
X8305000Y-9379000D01*
X8305000Y-13079000D02*
X8345000Y-13119000D01*
X8345000Y-13079000D02*
X8305000Y-13119000D01*
X8305000Y-13454000D02*
X8345000Y-13494000D01*
X8345000Y-13454000D02*
X8305000Y-13494000D01*
X8305000Y-13865000D02*
X8345000Y-13905000D01*
X8345000Y-13865000D02*
X8305000Y-13905000D01*
X8305000Y-14268000D02*
X8345000Y-14308000D01*
X8345000Y-14268000D02*
X8305000Y-14308000D01*
X8310000Y-8630000D02*
X8350000Y-8670000D01*
X8350000Y-8630000D02*
X8310000Y-8670000D01*
X8310000Y-8879000D02*
X8350000Y-8919000D01*
X8350000Y-8879000D02*
X8310000Y-8919000D01*
X8310000Y-9764000D02*
X8350000Y-9804000D01*
X8350000Y-9764000D02*
X8310000Y-9804000D01*
X8310000Y-10189000D02*
X8350000Y-10229000D01*
X8350000Y-10189000D02*
X8310000Y-10229000D01*
X8310000Y-10588000D02*
X8350000Y-10628000D01*
X8350000Y-10588000D02*
X8310000Y-10628000D01*
X8310000Y-11379000D02*
X8350000Y-11419000D01*
X8350000Y-11379000D02*
X8310000Y-11419000D01*
X8310000Y-11759000D02*
X8350000Y-11799000D01*
X8350000Y-11759000D02*
X8310000Y-11799000D01*
X8310000Y-12170000D02*
X8350000Y-12210000D01*
X8350000Y-12170000D02*
X8310000Y-12210000D01*
X8310000Y-12559000D02*
X8350000Y-12599000D01*
X8350000Y-12559000D02*
X8310000Y-12599000D01*
X8469000Y-14676000D02*
X8509000Y-14716000D01*
X8509000Y-14676000D02*
X8469000Y-14716000D01*
X8505000Y-8430000D02*
X8545000Y-8470000D01*
X8545000Y-8430000D02*
X8505000Y-8470000D01*
X8580000Y-11930000D02*
X8620000Y-11970000D01*
X8620000Y-11930000D02*
X8580000Y-11970000D01*
X8652500Y-12372134D02*
X8692500Y-12412134D01*
X8692500Y-12372134D02*
X8652500Y-12412134D01*
X8652652Y-12597347D02*
X8692652Y-12637347D01*
X8692652Y-12597347D02*
X8652652Y-12637347D01*
X8657699Y-12242301D02*
X8697699Y-12282301D01*
X8697699Y-12242301D02*
X8657699Y-12282301D01*
X8677500Y-10302344D02*
X8717500Y-10342344D01*
X8717500Y-10302344D02*
X8677500Y-10342344D01*
X8680000Y-10430000D02*
X8720000Y-10470000D01*
X8720000Y-10430000D02*
X8680000Y-10470000D01*
X8680200Y-11694528D02*
X8720200Y-11734528D01*
X8720200Y-11694528D02*
X8680200Y-11734528D01*
X8685000Y-8235000D02*
X8725000Y-8275000D01*
X8725000Y-8235000D02*
X8685000Y-8275000D01*
X8685343Y-10549657D02*
X8725343Y-10589657D01*
X8725343Y-10549657D02*
X8685343Y-10589657D01*
X8690000Y-10670000D02*
X8730000Y-10710000D01*
X8730000Y-10670000D02*
X8690000Y-10710000D01*
X8730000Y-12082000D02*
X8770000Y-12122000D01*
X8770000Y-12082000D02*
X8730000Y-12122000D01*
X8855000Y-10802500D02*
X8895000Y-10842500D01*
X8895000Y-10802500D02*
X8855000Y-10842500D01*
X8893143Y-9605000D02*
X8933143Y-9645000D01*
X8933143Y-9605000D02*
X8893143Y-9645000D01*
X8980000Y-13780000D02*
X9020000Y-13820000D01*
X9020000Y-13780000D02*
X8980000Y-13820000D01*
X9075000Y-8230000D02*
X9115000Y-8270000D01*
X9115000Y-8230000D02*
X9075000Y-8270000D01*
X9430000Y-10312800D02*
X9470000Y-10352800D01*
X9470000Y-10312800D02*
X9430000Y-10352800D01*
X9430000Y-10430000D02*
X9470000Y-10470000D01*
X9470000Y-10430000D02*
X9430000Y-10470000D01*
X9430000Y-10566800D02*
X9470000Y-10606800D01*
X9470000Y-10566800D02*
X9430000Y-10606800D01*
X9430000Y-10693800D02*
X9470000Y-10733800D01*
X9470000Y-10693800D02*
X9430000Y-10733800D01*
X9440000Y-10200000D02*
X9480000Y-10240000D01*
X9480000Y-10200000D02*
X9440000Y-10240000D01*
X9474000Y-8230000D02*
X9514000Y-8270000D01*
X9514000Y-8230000D02*
X9474000Y-8270000D01*
X9510000Y-10975000D02*
X9550000Y-11015000D01*
X9550000Y-10975000D02*
X9510000Y-11015000D01*
X9519626Y-11132500D02*
X9559626Y-11172500D01*
X9559626Y-11132500D02*
X9519626Y-11172500D01*
X9536330Y-11287500D02*
X9576330Y-11327500D01*
X9576330Y-11287500D02*
X9536330Y-11327500D01*
X9540432Y-11475249D02*
X9580432Y-11515249D01*
X9580432Y-11475249D02*
X9540432Y-11515249D01*
X9590469Y-11055000D02*
X9630469Y-11095000D01*
X9630469Y-11055000D02*
X9590469Y-11095000D01*
X9596702Y-10900000D02*
X9636702Y-10940000D01*
X9636702Y-10900000D02*
X9596702Y-10940000D01*
X9600000Y-11380000D02*
X9640000Y-11420000D01*
X9640000Y-11380000D02*
X9600000Y-11420000D01*
X9607173Y-11210000D02*
X9647173Y-11250000D01*
X9647173Y-11210000D02*
X9607173Y-11250000D01*
X9655000Y-11580000D02*
X9695000Y-11620000D01*
X9695000Y-11580000D02*
X9655000Y-11620000D01*
X9655000Y-11705000D02*
X9695000Y-11745000D01*
X9695000Y-11705000D02*
X9655000Y-11745000D01*
X9655000Y-11960000D02*
X9695000Y-12000000D01*
X9695000Y-11960000D02*
X9655000Y-12000000D01*
X9655000Y-12080000D02*
X9695000Y-12120000D01*
X9695000Y-12080000D02*
X9655000Y-12120000D01*
X9655000Y-12210000D02*
X9695000Y-12250000D01*
X9695000Y-12210000D02*
X9655000Y-12250000D01*
X9655000Y-12330000D02*
X9695000Y-12370000D01*
X9695000Y-12330000D02*
X9655000Y-12370000D01*
X9655000Y-12460000D02*
X9695000Y-12500000D01*
X9695000Y-12460000D02*
X9655000Y-12500000D01*
X9655000Y-12605000D02*
X9695000Y-12645000D01*
X9695000Y-12605000D02*
X9655000Y-12645000D01*
X9680000Y-10805000D02*
X9720000Y-10845000D01*
X9720000Y-10805000D02*
X9680000Y-10845000D01*
X9777102Y-12742500D02*
X9817102Y-12782500D01*
X9817102Y-12742500D02*
X9777102Y-12782500D01*
X9934000Y-8235000D02*
X9974000Y-8275000D01*
X9974000Y-8235000D02*
X9934000Y-8275000D01*
X10205000Y-12990000D02*
X10245000Y-13030000D01*
X10245000Y-12990000D02*
X10205000Y-13030000D01*
X10225000Y-9605000D02*
X10265000Y-9645000D01*
X10265000Y-9605000D02*
X10225000Y-9645000D01*
X10359000Y-8230000D02*
X10399000Y-8270000D01*
X10399000Y-8230000D02*
X10359000Y-8270000D01*
X10635000Y-10795000D02*
X10675000Y-10835000D01*
X10675000Y-10795000D02*
X10635000Y-10835000D01*
X10757000Y-14758000D02*
X10797000Y-14798000D01*
X10797000Y-14758000D02*
X10757000Y-14798000D01*
X10760000Y-11700000D02*
X10800000Y-11740000D01*
X10800000Y-11700000D02*
X10760000Y-11740000D01*
X10770000Y-12068863D02*
X10810000Y-12108863D01*
X10810000Y-12068863D02*
X10770000Y-12108863D01*
X10770000Y-12378863D02*
X10810000Y-12418863D01*
X10810000Y-12378863D02*
X10770000Y-12418863D01*
X10770000Y-12535383D02*
X10810000Y-12575383D01*
X10810000Y-12535383D02*
X10770000Y-12575383D01*
X10771164Y-12223863D02*
X10811164Y-12263863D01*
X10811164Y-12223863D02*
X10771164Y-12263863D01*
X10784000Y-8230000D02*
X10824000Y-8270000D01*
X10824000Y-8230000D02*
X10784000Y-8270000D01*
X10800000Y-10630000D02*
X10840000Y-10670000D01*
X10840000Y-10630000D02*
X10800000Y-10670000D01*
X10855000Y-12625000D02*
X10895000Y-12665000D01*
X10895000Y-12625000D02*
X10855000Y-12665000D01*
X10856898Y-12457883D02*
X10896898Y-12497883D01*
X10896898Y-12457883D02*
X10856898Y-12497883D01*
X10860000Y-11960000D02*
X10900000Y-12000000D01*
X10900000Y-11960000D02*
X10860000Y-12000000D01*
X10860000Y-12301363D02*
X10900000Y-12341363D01*
X10900000Y-12301363D02*
X10860000Y-12341363D01*
X10861116Y-12129500D02*
X10901116Y-12169500D01*
X10901116Y-12129500D02*
X10861116Y-12169500D01*
X10990000Y-10985000D02*
X11030000Y-11025000D01*
X11030000Y-10985000D02*
X10990000Y-11025000D01*
X11001000Y-14765000D02*
X11041000Y-14805000D01*
X11041000Y-14765000D02*
X11001000Y-14805000D01*
X11155000Y-10505000D02*
X11195000Y-10545000D01*
X11195000Y-10505000D02*
X11155000Y-10545000D01*
X11183000Y-8230000D02*
X11223000Y-8270000D01*
X11223000Y-8230000D02*
X11183000Y-8270000D01*
X11234801Y-12885000D02*
X11274801Y-12925000D01*
X11274801Y-12885000D02*
X11234801Y-12925000D01*
X11258000Y-14765000D02*
X11298000Y-14805000D01*
X11298000Y-14765000D02*
X11258000Y-14805000D01*
X11480000Y-9950000D02*
X11520000Y-9990000D01*
X11520000Y-9950000D02*
X11480000Y-9990000D01*
X11480000Y-13105000D02*
X11520000Y-13145000D01*
X11520000Y-13105000D02*
X11480000Y-13145000D01*
X11510000Y-14765000D02*
X11550000Y-14805000D01*
X11550000Y-14765000D02*
X11510000Y-14805000D01*
X11594000Y-8230000D02*
X11634000Y-8270000D01*
X11634000Y-8230000D02*
X11594000Y-8270000D01*
X11640000Y-11732000D02*
X11680000Y-11772000D01*
X11680000Y-11732000D02*
X11640000Y-11772000D01*
X11655000Y-12730000D02*
X11695000Y-12770000D01*
X11695000Y-12730000D02*
X11655000Y-12770000D01*
X11680000Y-11038000D02*
X11720000Y-11078000D01*
X11720000Y-11038000D02*
X11680000Y-11078000D01*
X11680000Y-11200000D02*
X11720000Y-11240000D01*
X11720000Y-11200000D02*
X11680000Y-11240000D01*
X11680000Y-11355000D02*
X11720000Y-11395000D01*
X11720000Y-11355000D02*
X11680000Y-11395000D01*
X11698405Y-10864500D02*
X11738405Y-10904500D01*
X11738405Y-10864500D02*
X11698405Y-10904500D01*
X11705000Y-10355000D02*
X11745000Y-10395000D01*
X11745000Y-10355000D02*
X11705000Y-10395000D01*
X11705000Y-10525000D02*
X11745000Y-10565000D01*
X11745000Y-10525000D02*
X11705000Y-10565000D01*
X11705000Y-10682500D02*
X11745000Y-10722500D01*
X11745000Y-10682500D02*
X11705000Y-10722500D01*
X11706354Y-12176173D02*
X11746354Y-12216173D01*
X11746354Y-12176173D02*
X11706354Y-12216173D01*
X11707127Y-11931568D02*
X11747127Y-11971568D01*
X11747127Y-11931568D02*
X11707127Y-11971568D01*
X11707487Y-10195000D02*
X11747487Y-10235000D01*
X11747487Y-10195000D02*
X11707487Y-10235000D01*
X11707500Y-12331173D02*
X11747500Y-12371173D01*
X11747500Y-12331173D02*
X11707500Y-12371173D01*
X11727763Y-12491000D02*
X11767763Y-12531000D01*
X11767763Y-12491000D02*
X11727763Y-12531000D01*
X11762969Y-12020487D02*
X11802969Y-12060487D01*
X11802969Y-12020487D02*
X11762969Y-12060487D01*
X11763000Y-14765000D02*
X11803000Y-14805000D01*
X11803000Y-14765000D02*
X11763000Y-14805000D01*
X11880000Y-12805000D02*
X11920000Y-12845000D01*
X11920000Y-12805000D02*
X11880000Y-12845000D01*
X11974000Y-8230000D02*
X12014000Y-8270000D01*
X12014000Y-8230000D02*
X11974000Y-8270000D01*
X12005000Y-9950000D02*
X12045000Y-9990000D01*
X12045000Y-9950000D02*
X12005000Y-9990000D01*
X12022000Y-14765000D02*
X12062000Y-14805000D01*
X12062000Y-14765000D02*
X12022000Y-14805000D01*
X12040000Y-11574000D02*
X12080000Y-11614000D01*
X12080000Y-11574000D02*
X12040000Y-11614000D01*
X12085199Y-11845199D02*
X12125199Y-11885199D01*
X12125199Y-11845199D02*
X12085199Y-11885199D01*
X12105000Y-10747500D02*
X12145000Y-10787500D01*
X12145000Y-10747500D02*
X12105000Y-10787500D01*
X12105199Y-10257500D02*
X12145199Y-10297500D01*
X12145199Y-10257500D02*
X12105199Y-10297500D01*
X12105199Y-10567500D02*
X12145199Y-10607500D01*
X12145199Y-10567500D02*
X12105199Y-10607500D01*
X12109159Y-10412500D02*
X12149159Y-10452500D01*
X12149159Y-10412500D02*
X12109159Y-10452500D01*
X12130000Y-11460000D02*
X12170000Y-11500000D01*
X12170000Y-11460000D02*
X12130000Y-11500000D01*
X12139938Y-11277500D02*
X12179938Y-11317500D01*
X12179938Y-11277500D02*
X12139938Y-11317500D01*
X12152553Y-10961108D02*
X12192553Y-11001108D01*
X12192553Y-10961108D02*
X12152553Y-11001108D01*
X12152997Y-12568500D02*
X12192997Y-12608500D01*
X12192997Y-12568500D02*
X12152997Y-12608500D01*
X12161595Y-12413500D02*
X12201595Y-12453500D01*
X12201595Y-12413500D02*
X12161595Y-12453500D01*
X12162164Y-11122500D02*
X12202164Y-11162500D01*
X12202164Y-11122500D02*
X12162164Y-11162500D01*
X12165725Y-11636060D02*
X12205725Y-11676060D01*
X12205725Y-11636060D02*
X12165725Y-11676060D01*
X12180000Y-12070487D02*
X12220000Y-12110487D01*
X12220000Y-12070487D02*
X12180000Y-12110487D01*
X12180000Y-12253673D02*
X12220000Y-12293673D01*
X12220000Y-12253673D02*
X12180000Y-12293673D01*
X12272000Y-14765000D02*
X12312000Y-14805000D01*
X12312000Y-14765000D02*
X12272000Y-14805000D01*
X12354000Y-8230000D02*
X12394000Y-8270000D01*
X12394000Y-8230000D02*
X12354000Y-8270000D01*
X12380000Y-9955000D02*
X12420000Y-9995000D01*
X12420000Y-9955000D02*
X12380000Y-9995000D01*
X12524000Y-14765000D02*
X12564000Y-14805000D01*
X12564000Y-14765000D02*
X12524000Y-14805000D01*
X12652500Y-11548850D02*
X12692500Y-11588850D01*
X12692500Y-11548850D02*
X12652500Y-11588850D01*
X12660000Y-14770000D02*
X12700000Y-14810000D01*
X12700000Y-14770000D02*
X12660000Y-14810000D01*
X12689089Y-12525329D02*
X12729089Y-12565329D01*
X12729089Y-12525329D02*
X12689089Y-12565329D01*
X12704500Y-10815442D02*
X12744500Y-10855442D01*
X12744500Y-10815442D02*
X12704500Y-10855442D01*
X12735000Y-9950000D02*
X12775000Y-9990000D01*
X12775000Y-9950000D02*
X12735000Y-9990000D01*
X12765000Y-8230000D02*
X12805000Y-8270000D01*
X12805000Y-8230000D02*
X12765000Y-8270000D01*
X12778733Y-12580000D02*
X12818733Y-12620000D01*
X12818733Y-12580000D02*
X12778733Y-12620000D01*
X12812699Y-14752699D02*
X12852699Y-14792699D01*
X12852699Y-14752699D02*
X12812699Y-14792699D01*
X12863232Y-11189312D02*
X12903232Y-11229312D01*
X12903232Y-11189312D02*
X12863232Y-11229312D01*
X12883733Y-12580000D02*
X12923733Y-12620000D01*
X12923733Y-12580000D02*
X12883733Y-12620000D01*
X12944790Y-11123181D02*
X12984790Y-11163181D01*
X12984790Y-11123181D02*
X12944790Y-11163181D01*
X12988734Y-12580000D02*
X13028734Y-12620000D01*
X13028734Y-12580000D02*
X12988734Y-12620000D01*
X13000000Y-11520000D02*
X13040000Y-11560000D01*
X13040000Y-11520000D02*
X13000000Y-11560000D01*
X13005000Y-11674556D02*
X13045000Y-11714556D01*
X13045000Y-11674556D02*
X13005000Y-11714556D01*
X13005000Y-11840000D02*
X13045000Y-11880000D01*
X13045000Y-11840000D02*
X13005000Y-11880000D01*
X13037121Y-11073181D02*
X13077121Y-11113181D01*
X13077121Y-11073181D02*
X13037121Y-11113181D01*
X13118810Y-11007210D02*
X13158810Y-11047210D01*
X13158810Y-11007210D02*
X13118810Y-11047210D01*
X13175000Y-8230000D02*
X13215000Y-8270000D01*
X13215000Y-8230000D02*
X13175000Y-8270000D01*
X13200000Y-12525000D02*
X13240000Y-12565000D01*
X13240000Y-12525000D02*
X13200000Y-12565000D01*
X13270000Y-10160000D02*
X13310000Y-10200000D01*
X13310000Y-10160000D02*
X13270000Y-10200000D01*
X13370000Y-11127500D02*
X13410000Y-11167500D01*
X13410000Y-11127500D02*
X13370000Y-11167500D01*
X13409469Y-11841247D02*
X13449469Y-11881247D01*
X13449469Y-11841247D02*
X13409469Y-11881247D01*
X13410000Y-11720000D02*
X13450000Y-11760000D01*
X13450000Y-11720000D02*
X13410000Y-11760000D01*
X13463550Y-11177500D02*
X13503550Y-11217500D01*
X13503550Y-11177500D02*
X13463550Y-11217500D01*
X13555881Y-11227500D02*
X13595881Y-11267500D01*
X13595881Y-11227500D02*
X13555881Y-11267500D01*
X13595000Y-8230000D02*
X13635000Y-8270000D01*
X13635000Y-8230000D02*
X13595000Y-8270000D01*
X13595000Y-11615000D02*
X13635000Y-11655000D01*
X13635000Y-11615000D02*
X13595000Y-11655000D01*
X13707000Y-10303000D02*
X13747000Y-10343000D01*
X13747000Y-10303000D02*
X13707000Y-10343000D01*
X13830000Y-14730000D02*
X13870000Y-14770000D01*
X13870000Y-14730000D02*
X13830000Y-14770000D01*
X13920000Y-11740000D02*
X13960000Y-11780000D01*
X13960000Y-11740000D02*
X13920000Y-11780000D01*
X13930000Y-13370000D02*
X13970000Y-13410000D01*
X13970000Y-13370000D02*
X13930000Y-13410000D01*
X13930002Y-11329981D02*
X13970002Y-11369981D01*
X13970002Y-11329981D02*
X13930002Y-11369981D01*
X13968890Y-12553890D02*
X14008890Y-12593890D01*
X14008890Y-12553890D02*
X13968890Y-12593890D01*
X14000000Y-10355000D02*
X14040000Y-10395000D01*
X14040000Y-10355000D02*
X14000000Y-10395000D01*
X14035000Y-8230000D02*
X14075000Y-8270000D01*
X14075000Y-8230000D02*
X14035000Y-8270000D01*
X14060202Y-9626091D02*
X14100202Y-9666091D01*
X14100202Y-9626091D02*
X14060202Y-9666091D01*
X14105000Y-12555000D02*
X14145000Y-12595000D01*
X14145000Y-12555000D02*
X14105000Y-12595000D01*
X14148889Y-9682301D02*
X14188889Y-9722301D01*
X14188889Y-9682301D02*
X14148889Y-9722301D01*
X14244870Y-9732301D02*
X14284870Y-9772301D01*
X14284870Y-9732301D02*
X14244870Y-9772301D01*
X14277000Y-14566000D02*
X14317000Y-14606000D01*
X14317000Y-14566000D02*
X14277000Y-14606000D01*
X14349037Y-9759371D02*
X14389037Y-9799371D01*
X14389037Y-9759371D02*
X14349037Y-9799371D01*
X14449680Y-9789303D02*
X14489680Y-9829303D01*
X14489680Y-9789303D02*
X14449680Y-9829303D01*
X14475000Y-8230000D02*
X14515000Y-8270000D01*
X14515000Y-8230000D02*
X14475000Y-8270000D01*
X14477219Y-13000000D02*
X14517219Y-13040000D01*
X14517219Y-13000000D02*
X14477219Y-13040000D01*
X14550323Y-9819236D02*
X14590323Y-9859236D01*
X14590323Y-9819236D02*
X14550323Y-9859236D01*
X14555000Y-14300000D02*
X14595000Y-14340000D01*
X14595000Y-14300000D02*
X14555000Y-14340000D01*
X14650967Y-9849169D02*
X14690967Y-9889169D01*
X14690967Y-9849169D02*
X14650967Y-9889169D01*
X14653795Y-13915581D02*
X14693795Y-13955581D01*
X14693795Y-13915581D02*
X14653795Y-13955581D01*
X14674834Y-13812710D02*
X14714834Y-13852710D01*
X14714834Y-13812710D02*
X14674834Y-13852710D01*
X14680000Y-13000000D02*
X14720000Y-13040000D01*
X14720000Y-13000000D02*
X14680000Y-13040000D01*
X14704766Y-13712067D02*
X14744766Y-13752067D01*
X14744766Y-13712067D02*
X14704766Y-13752067D01*
X14720000Y-14720000D02*
X14760000Y-14760000D01*
X14760000Y-14720000D02*
X14720000Y-14760000D01*
X14734699Y-13611423D02*
X14774699Y-13651423D01*
X14774699Y-13611423D02*
X14734699Y-13651423D01*
X14740000Y-10340000D02*
X14780000Y-10380000D01*
X14780000Y-10340000D02*
X14740000Y-10380000D01*
X14752500Y-9875927D02*
X14792500Y-9915927D01*
X14792500Y-9875927D02*
X14752500Y-9915927D01*
X14764631Y-13510780D02*
X14804631Y-13550780D01*
X14804631Y-13510780D02*
X14764631Y-13550780D01*
X14775000Y-9710000D02*
X14815000Y-9750000D01*
X14815000Y-9710000D02*
X14775000Y-9750000D01*
X14780000Y-12740000D02*
X14820000Y-12780000D01*
X14820000Y-12740000D02*
X14780000Y-12780000D01*
X14794564Y-13410137D02*
X14834564Y-13450137D01*
X14834564Y-13410137D02*
X14794564Y-13450137D01*
X14824500Y-13309490D02*
X14864500Y-13349490D01*
X14864500Y-13309490D02*
X14824500Y-13349490D01*
X14915000Y-8230000D02*
X14955000Y-8270000D01*
X14955000Y-8230000D02*
X14915000Y-8270000D01*
X14950000Y-14720000D02*
X14990000Y-14760000D01*
X14990000Y-14720000D02*
X14950000Y-14760000D01*
X15000287Y-13007500D02*
X15040287Y-13047500D01*
X15040287Y-13007500D02*
X15000287Y-13047500D01*
X15185000Y-14720000D02*
X15225000Y-14760000D01*
X15225000Y-14720000D02*
X15185000Y-14760000D01*
X15205000Y-14555000D02*
X15245000Y-14595000D01*
X15245000Y-14555000D02*
X15205000Y-14595000D01*
X15250000Y-12921950D02*
X15290000Y-12961950D01*
X15290000Y-12921950D02*
X15250000Y-12961950D01*
X15320000Y-13770000D02*
X15360000Y-13810000D01*
X15360000Y-13770000D02*
X15320000Y-13810000D01*
X15360000Y-8230000D02*
X15400000Y-8270000D01*
X15400000Y-8230000D02*
X15360000Y-8270000D01*
X15400000Y-12940000D02*
X15440000Y-12980000D01*
X15440000Y-12940000D02*
X15400000Y-12980000D01*
X15447500Y-14720000D02*
X15487500Y-14760000D01*
X15487500Y-14720000D02*
X15447500Y-14760000D01*
X15455000Y-14380000D02*
X15495000Y-14420000D01*
X15495000Y-14380000D02*
X15455000Y-14420000D01*
X15470000Y-13635000D02*
X15510000Y-13675000D01*
X15510000Y-13635000D02*
X15470000Y-13675000D01*
X15580000Y-11370000D02*
X15620000Y-11410000D01*
X15620000Y-11370000D02*
X15580000Y-11410000D01*
X15584000Y-12769000D02*
X15624000Y-12809000D01*
X15624000Y-12769000D02*
X15584000Y-12809000D01*
X15697500Y-14720000D02*
X15737500Y-14760000D01*
X15737500Y-14720000D02*
X15697500Y-14760000D01*
X15705000Y-14205000D02*
X15745000Y-14245000D01*
X15745000Y-14205000D02*
X15705000Y-14245000D01*
X15771000Y-8230000D02*
X15811000Y-8270000D01*
X15811000Y-8230000D02*
X15771000Y-8270000D01*
X15847500Y-9482858D02*
X15887500Y-9522858D01*
X15887500Y-9482858D02*
X15847500Y-9522858D01*
X15849412Y-9290921D02*
X15889412Y-9330921D01*
X15889412Y-9290921D02*
X15849412Y-9330921D01*
X15891047Y-9387314D02*
X15931047Y-9427314D01*
X15931047Y-9387314D02*
X15891047Y-9427314D01*
X15894430Y-12630503D02*
X15934430Y-12670503D01*
X15934430Y-12630503D02*
X15894430Y-12670503D01*
X15895500Y-12952200D02*
X15935500Y-12992200D01*
X15935500Y-12952200D02*
X15895500Y-12992200D01*
X15896486Y-12846074D02*
X15936486Y-12886074D01*
X15936486Y-12846074D02*
X15896486Y-12886074D01*
X15897500Y-12735458D02*
X15937500Y-12775458D01*
X15937500Y-12735458D02*
X15897500Y-12775458D01*
X15955000Y-9955000D02*
X15995000Y-9995000D01*
X15995000Y-9955000D02*
X15955000Y-9995000D01*
X15955000Y-14055000D02*
X15995000Y-14095000D01*
X15995000Y-14055000D02*
X15955000Y-14095000D01*
X15955000Y-14717500D02*
X15995000Y-14757500D01*
X15995000Y-14717500D02*
X15955000Y-14757500D01*
X16151000Y-8230000D02*
X16191000Y-8270000D01*
X16191000Y-8230000D02*
X16151000Y-8270000D01*
X16164964Y-12845011D02*
X16204964Y-12885011D01*
X16204964Y-12845011D02*
X16164964Y-12885011D01*
X16165000Y-12630000D02*
X16205000Y-12670000D01*
X16205000Y-12630000D02*
X16165000Y-12670000D01*
X16165000Y-12735000D02*
X16205000Y-12775000D01*
X16205000Y-12735000D02*
X16165000Y-12775000D01*
X16166500Y-12950000D02*
X16206500Y-12990000D01*
X16206500Y-12950000D02*
X16166500Y-12990000D01*
X16179326Y-10260759D02*
X16219326Y-10300759D01*
X16219326Y-10260759D02*
X16179326Y-10300759D01*
X16202500Y-14717500D02*
X16242500Y-14757500D01*
X16242500Y-14717500D02*
X16202500Y-14757500D01*
X16205000Y-11055000D02*
X16245000Y-11095000D01*
X16245000Y-11055000D02*
X16205000Y-11095000D01*
X16205000Y-14055000D02*
X16245000Y-14095000D01*
X16245000Y-14055000D02*
X16205000Y-14095000D01*
X16330000Y-12369088D02*
X16370000Y-12409088D01*
X16370000Y-12369088D02*
X16330000Y-12409088D01*
X16342630Y-12473326D02*
X16382630Y-12513326D01*
X16382630Y-12473326D02*
X16342630Y-12513326D01*
X16377623Y-12572324D02*
X16417623Y-12612324D01*
X16417623Y-12572324D02*
X16377623Y-12612324D01*
X16380000Y-12080000D02*
X16420000Y-12120000D01*
X16420000Y-12080000D02*
X16380000Y-12120000D01*
X16400000Y-9625772D02*
X16440000Y-9665772D01*
X16440000Y-9625772D02*
X16400000Y-9665772D01*
X16408829Y-10276629D02*
X16448829Y-10316629D01*
X16448829Y-10276629D02*
X16408829Y-10316629D01*
X16421500Y-12672001D02*
X16461500Y-12712001D01*
X16461500Y-12672001D02*
X16421500Y-12712001D01*
X16472500Y-12763784D02*
X16512500Y-12803784D01*
X16512500Y-12763784D02*
X16472500Y-12803784D01*
X16531000Y-8230000D02*
X16571000Y-8270000D01*
X16571000Y-8230000D02*
X16531000Y-8270000D01*
X16557500Y-11024000D02*
X16597500Y-11064000D01*
X16597500Y-11024000D02*
X16557500Y-11064000D01*
X16570000Y-13550000D02*
X16610000Y-13590000D01*
X16610000Y-13550000D02*
X16570000Y-13590000D01*
X16620000Y-14460000D02*
X16660000Y-14500000D01*
X16660000Y-14460000D02*
X16620000Y-14500000D01*
X16635000Y-11109000D02*
X16675000Y-11149000D01*
X16675000Y-11109000D02*
X16635000Y-11149000D01*
X16635000Y-11215000D02*
X16675000Y-11255000D01*
X16675000Y-11215000D02*
X16635000Y-11255000D01*
X16645578Y-12705000D02*
X16685578Y-12745000D01*
X16685578Y-12705000D02*
X16645578Y-12745000D01*
X16647500Y-10005000D02*
X16687500Y-10045000D01*
X16687500Y-10005000D02*
X16647500Y-10045000D01*
X16647707Y-12816730D02*
X16687707Y-12856730D01*
X16687707Y-12816730D02*
X16647707Y-12856730D01*
X16655999Y-11414001D02*
X16695999Y-11454001D01*
X16695999Y-11414001D02*
X16655999Y-11454001D01*
X16665000Y-11805000D02*
X16705000Y-11845000D01*
X16705000Y-11805000D02*
X16665000Y-11845000D01*
X16675000Y-10440000D02*
X16715000Y-10480000D01*
X16715000Y-10440000D02*
X16675000Y-10480000D01*
X16815000Y-10165000D02*
X16855000Y-10205000D01*
X16855000Y-10165000D02*
X16815000Y-10205000D01*
X16843000Y-14520000D02*
X16883000Y-14560000D01*
X16883000Y-14520000D02*
X16843000Y-14560000D01*
X16870000Y-13590000D02*
X16910000Y-13630000D01*
X16910000Y-13590000D02*
X16870000Y-13630000D01*
X16925987Y-10895000D02*
X16965987Y-10935000D01*
X16965987Y-10895000D02*
X16925987Y-10935000D01*
X16942000Y-8230000D02*
X16982000Y-8270000D01*
X16982000Y-8230000D02*
X16942000Y-8270000D01*
X16945888Y-11049878D02*
X16985888Y-11089878D01*
X16985888Y-11049878D02*
X16945888Y-11089878D01*
X16955176Y-11635752D02*
X16995176Y-11675752D01*
X16995176Y-11635752D02*
X16955176Y-11675752D01*
X16977500Y-14720000D02*
X17017500Y-14760000D01*
X17017500Y-14720000D02*
X16977500Y-14760000D01*
X16980000Y-13880000D02*
X17020000Y-13920000D01*
X17020000Y-13880000D02*
X16980000Y-13920000D01*
X17001085Y-11771671D02*
X17041085Y-11811671D01*
X17041085Y-11771671D02*
X17001085Y-11811671D01*
X17037102Y-12587500D02*
X17077102Y-12627500D01*
X17077102Y-12587500D02*
X17037102Y-12627500D01*
X17106250Y-11453750D02*
X17146250Y-11493750D01*
X17146250Y-11453750D02*
X17106250Y-11493750D01*
X17150000Y-9160000D02*
X17190000Y-9200000D01*
X17190000Y-9160000D02*
X17150000Y-9200000D01*
X17170000Y-11050000D02*
X17210000Y-11090000D01*
X17210000Y-11050000D02*
X17170000Y-11090000D01*
X17175199Y-12484801D02*
X17215199Y-12524801D01*
X17215199Y-12484801D02*
X17175199Y-12524801D01*
X17180000Y-9930000D02*
X17220000Y-9970000D01*
X17220000Y-9930000D02*
X17180000Y-9970000D01*
X17307102Y-12397500D02*
X17347102Y-12437500D01*
X17347102Y-12397500D02*
X17307102Y-12437500D01*
X17352000Y-8230000D02*
X17392000Y-8270000D01*
X17392000Y-8230000D02*
X17352000Y-8270000D01*
X17405000Y-11505000D02*
X17445000Y-11545000D01*
X17445000Y-11505000D02*
X17405000Y-11545000D01*
X17486102Y-12336500D02*
X17526102Y-12376500D01*
X17526102Y-12336500D02*
X17486102Y-12376500D01*
X17590000Y-13480000D02*
X17630000Y-13520000D01*
X17630000Y-13480000D02*
X17590000Y-13520000D01*
X17630000Y-14505000D02*
X17670000Y-14545000D01*
X17670000Y-14505000D02*
X17630000Y-14545000D01*
X17640000Y-11682500D02*
X17680000Y-11722500D01*
X17680000Y-11682500D02*
X17640000Y-11722500D01*
X17652500Y-11240000D02*
X17692500Y-11280000D01*
X17692500Y-11240000D02*
X17652500Y-11280000D01*
X17654602Y-12280000D02*
X17694602Y-12320000D01*
X17694602Y-12280000D02*
X17654602Y-12320000D01*
X17738315Y-11632500D02*
X17778315Y-11672500D01*
X17778315Y-11632500D02*
X17738315Y-11672500D01*
X17772000Y-8230000D02*
X17812000Y-8270000D01*
X17812000Y-8230000D02*
X17772000Y-8270000D01*
X17865900Y-11515214D02*
X17905900Y-11555214D01*
X17905900Y-11515214D02*
X17865900Y-11555214D01*
X17930000Y-9955000D02*
X17970000Y-9995000D01*
X17970000Y-9955000D02*
X17930000Y-9995000D01*
X17930000Y-10305000D02*
X17970000Y-10345000D01*
X17970000Y-10305000D02*
X17930000Y-10345000D01*
X17930000Y-10630000D02*
X17970000Y-10670000D01*
X17970000Y-10630000D02*
X17930000Y-10670000D01*
X17930000Y-11030000D02*
X17970000Y-11070000D01*
X17970000Y-11030000D02*
X17930000Y-11070000D01*
X17980000Y-13330000D02*
X18020000Y-13370000D01*
X18020000Y-13330000D02*
X17980000Y-13370000D01*
X18002475Y-14155867D02*
X18042475Y-14195867D01*
X18042475Y-14155867D02*
X18002475Y-14195867D01*
X18212000Y-8230000D02*
X18252000Y-8270000D01*
X18252000Y-8230000D02*
X18212000Y-8270000D01*
X18212500Y-13730000D02*
X18252500Y-13770000D01*
X18252500Y-13730000D02*
X18212500Y-13770000D01*
X18220000Y-13330000D02*
X18260000Y-13370000D01*
X18260000Y-13330000D02*
X18220000Y-13370000D01*
X18251051Y-14441449D02*
X18291051Y-14481449D01*
X18291051Y-14441449D02*
X18251051Y-14481449D01*
X18305000Y-11030000D02*
X18345000Y-11070000D01*
X18345000Y-11030000D02*
X18305000Y-11070000D01*
X18310000Y-9955000D02*
X18350000Y-9995000D01*
X18350000Y-9955000D02*
X18310000Y-9995000D01*
X18310000Y-10305000D02*
X18350000Y-10345000D01*
X18350000Y-10305000D02*
X18310000Y-10345000D01*
X18310000Y-10630000D02*
X18350000Y-10670000D01*
X18350000Y-10630000D02*
X18310000Y-10670000D01*
X18390000Y-14387500D02*
X18430000Y-14427500D01*
X18430000Y-14387500D02*
X18390000Y-14427500D01*
X18474844Y-14485156D02*
X18514844Y-14525156D01*
X18514844Y-14485156D02*
X18474844Y-14525156D01*
X18480000Y-13330000D02*
X18520000Y-13370000D01*
X18520000Y-13330000D02*
X18480000Y-13370000D01*
X18652000Y-8230000D02*
X18692000Y-8270000D01*
X18692000Y-8230000D02*
X18652000Y-8270000D01*
X18655000Y-11505000D02*
X18695000Y-11545000D01*
X18695000Y-11505000D02*
X18655000Y-11545000D01*
X18658850Y-12651150D02*
X18698850Y-12691150D01*
X18698850Y-12651150D02*
X18658850Y-12691150D01*
X18665000Y-14467500D02*
X18705000Y-14507500D01*
X18705000Y-14467500D02*
X18665000Y-14507500D01*
X18705000Y-13460000D02*
X18745000Y-13500000D01*
X18745000Y-13460000D02*
X18705000Y-13500000D01*
X18708699Y-13326301D02*
X18748699Y-13366301D01*
X18748699Y-13326301D02*
X18708699Y-13366301D01*
X18720000Y-9955000D02*
X18760000Y-9995000D01*
X18760000Y-9955000D02*
X18720000Y-9995000D01*
X18720000Y-10305000D02*
X18760000Y-10345000D01*
X18760000Y-10305000D02*
X18720000Y-10345000D01*
X18720000Y-10625000D02*
X18760000Y-10665000D01*
X18760000Y-10625000D02*
X18720000Y-10665000D01*
X18730000Y-11030000D02*
X18770000Y-11070000D01*
X18770000Y-11030000D02*
X18730000Y-11070000D01*
X18755000Y-12980000D02*
X18795000Y-13020000D01*
X18795000Y-12980000D02*
X18755000Y-13020000D01*
X18971199Y-14731301D02*
X19011199Y-14771301D01*
X19011199Y-14731301D02*
X18971199Y-14771301D01*
X19092000Y-8230000D02*
X19132000Y-8270000D01*
X19132000Y-8230000D02*
X19092000Y-8270000D01*
X19150000Y-9955000D02*
X19190000Y-9995000D01*
X19190000Y-9955000D02*
X19150000Y-9995000D01*
X19150000Y-10305000D02*
X19190000Y-10345000D01*
X19190000Y-10305000D02*
X19150000Y-10345000D01*
X19150000Y-10630000D02*
X19190000Y-10670000D01*
X19190000Y-10630000D02*
X19150000Y-10670000D01*
X19155000Y-11030000D02*
X19195000Y-11070000D01*
X19195000Y-11030000D02*
X19155000Y-11070000D01*
X19205000Y-12700000D02*
X19245000Y-12740000D01*
X19245000Y-12700000D02*
X19205000Y-12740000D01*
X19240129Y-13640760D02*
X19280129Y-13680760D01*
X19280129Y-13640760D02*
X19240129Y-13680760D01*
X19276195Y-11782500D02*
X19316195Y-11822500D01*
X19316195Y-11782500D02*
X19276195Y-11822500D01*
X19335500Y-12700000D02*
X19375500Y-12740000D01*
X19375500Y-12700000D02*
X19335500Y-12740000D01*
X19337500Y-13360000D02*
X19377500Y-13400000D01*
X19377500Y-13360000D02*
X19337500Y-13400000D01*
X19385797Y-11782500D02*
X19425797Y-11822500D01*
X19425797Y-11782500D02*
X19385797Y-11822500D01*
X19494000Y-12895000D02*
X19534000Y-12935000D01*
X19534000Y-12895000D02*
X19494000Y-12935000D01*
X19495399Y-11782500D02*
X19535399Y-11822500D01*
X19535399Y-11782500D02*
X19495399Y-11822500D01*
X19525000Y-13662500D02*
X19565000Y-13702500D01*
X19565000Y-13662500D02*
X19525000Y-13702500D01*
X19528000Y-8230000D02*
X19568000Y-8270000D01*
X19568000Y-8230000D02*
X19528000Y-8270000D01*
X19530000Y-11405000D02*
X19570000Y-11445000D01*
X19570000Y-11405000D02*
X19530000Y-11445000D01*
X19530000Y-14355000D02*
X19570000Y-14395000D01*
X19570000Y-14355000D02*
X19530000Y-14395000D01*
X19555000Y-14730000D02*
X19595000Y-14770000D01*
X19595000Y-14730000D02*
X19555000Y-14770000D01*
X19560000Y-9955000D02*
X19600000Y-9995000D01*
X19600000Y-9955000D02*
X19560000Y-9995000D01*
X19560000Y-10305000D02*
X19600000Y-10345000D01*
X19600000Y-10305000D02*
X19560000Y-10345000D01*
X19560000Y-10630000D02*
X19600000Y-10670000D01*
X19600000Y-10630000D02*
X19560000Y-10670000D01*
X19560000Y-10930000D02*
X19600000Y-10970000D01*
X19600000Y-10930000D02*
X19560000Y-10970000D01*
X19590000Y-13362500D02*
X19630000Y-13402500D01*
X19630000Y-13362500D02*
X19590000Y-13402500D01*
X19605000Y-11782500D02*
X19645000Y-11822500D01*
X19645000Y-11782500D02*
X19605000Y-11822500D01*
X19605000Y-12680000D02*
X19645000Y-12720000D01*
X19645000Y-12680000D02*
X19605000Y-12720000D01*
X19627500Y-14620000D02*
X19667500Y-14660000D01*
X19667500Y-14620000D02*
X19627500Y-14660000D01*
X19790000Y-14730000D02*
X19830000Y-14770000D01*
X19830000Y-14730000D02*
X19790000Y-14770000D01*
X19830000Y-14080000D02*
X19870000Y-14120000D01*
X19870000Y-14080000D02*
X19830000Y-14120000D01*
X19830000Y-14480000D02*
X19870000Y-14520000D01*
X19870000Y-14480000D02*
X19830000Y-14520000D01*
X19835000Y-13360000D02*
X19875000Y-13400000D01*
X19875000Y-13360000D02*
X19835000Y-13400000D01*
X19843500Y-12680000D02*
X19883500Y-12720000D01*
X19883500Y-12680000D02*
X19843500Y-12720000D01*
X19855000Y-11230000D02*
X19895000Y-11270000D01*
X19895000Y-11230000D02*
X19855000Y-11270000D01*
X19855000Y-11755000D02*
X19895000Y-11795000D01*
X19895000Y-11755000D02*
X19855000Y-11795000D01*
X19939000Y-8230000D02*
X19979000Y-8270000D01*
X19979000Y-8230000D02*
X19939000Y-8270000D01*
X19980000Y-9955000D02*
X20020000Y-9995000D01*
X20020000Y-9955000D02*
X19980000Y-9995000D01*
X19980000Y-10305000D02*
X20020000Y-10345000D01*
X20020000Y-10305000D02*
X19980000Y-10345000D01*
X19980000Y-10630000D02*
X20020000Y-10670000D01*
X20020000Y-10630000D02*
X19980000Y-10670000D01*
X19980000Y-10930000D02*
X20020000Y-10970000D01*
X20020000Y-10930000D02*
X19980000Y-10970000D01*
X20076449Y-13361051D02*
X20116449Y-13401051D01*
X20116449Y-13361051D02*
X20076449Y-13401051D01*
X20105000Y-14305000D02*
X20145000Y-14345000D01*
X20145000Y-14305000D02*
X20105000Y-14345000D01*
X20105000Y-14729000D02*
X20145000Y-14769000D01*
X20145000Y-14729000D02*
X20105000Y-14769000D01*
X20110000Y-14060000D02*
X20150000Y-14100000D01*
X20150000Y-14060000D02*
X20110000Y-14100000D01*
X20155000Y-11480000D02*
X20195000Y-11520000D01*
X20195000Y-11480000D02*
X20155000Y-11520000D01*
X20155000Y-11755000D02*
X20195000Y-11795000D01*
X20195000Y-11755000D02*
X20155000Y-11795000D01*
X20157678Y-12693747D02*
X20197678Y-12733747D01*
X20197678Y-12693747D02*
X20157678Y-12733747D01*
X20240000Y-13280000D02*
X20280000Y-13320000D01*
X20280000Y-13280000D02*
X20240000Y-13320000D01*
X20319000Y-8230000D02*
X20359000Y-8270000D01*
X20359000Y-8230000D02*
X20319000Y-8270000D01*
X20327500Y-14730000D02*
X20367500Y-14770000D01*
X20367500Y-14730000D02*
X20327500Y-14770000D01*
X20373918Y-12666082D02*
X20413918Y-12706082D01*
X20413918Y-12666082D02*
X20373918Y-12706082D01*
X20420000Y-9955000D02*
X20460000Y-9995000D01*
X20460000Y-9955000D02*
X20420000Y-9995000D01*
X20420000Y-10305000D02*
X20460000Y-10345000D01*
X20460000Y-10305000D02*
X20420000Y-10345000D01*
X20420000Y-10630000D02*
X20460000Y-10670000D01*
X20460000Y-10630000D02*
X20420000Y-10670000D01*
X20420000Y-10930000D02*
X20460000Y-10970000D01*
X20460000Y-10930000D02*
X20420000Y-10970000D01*
X20455000Y-11480000D02*
X20495000Y-11520000D01*
X20495000Y-11480000D02*
X20455000Y-11520000D01*
X20455000Y-11755000D02*
X20495000Y-11795000D01*
X20495000Y-11755000D02*
X20455000Y-11795000D01*
X20520000Y-14380000D02*
X20560000Y-14420000D01*
X20560000Y-14380000D02*
X20520000Y-14420000D01*
X20540000Y-14030000D02*
X20580000Y-14070000D01*
X20580000Y-14030000D02*
X20540000Y-14070000D01*
X20588813Y-12771375D02*
X20628813Y-12811375D01*
X20628813Y-12771375D02*
X20588813Y-12811375D01*
X20593520Y-12666480D02*
X20633520Y-12706480D01*
X20633520Y-12666480D02*
X20593520Y-12706480D01*
X20660511Y-12369489D02*
X20700511Y-12409489D01*
X20700511Y-12369489D02*
X20660511Y-12409489D01*
X20680000Y-14030000D02*
X20720000Y-14070000D01*
X20720000Y-14030000D02*
X20680000Y-14070000D01*
X20680000Y-14305000D02*
X20720000Y-14345000D01*
X20720000Y-14305000D02*
X20680000Y-14345000D01*
X20699000Y-8230000D02*
X20739000Y-8270000D01*
X20739000Y-8230000D02*
X20699000Y-8270000D01*
X20735703Y-12488273D02*
X20775703Y-12528273D01*
X20775703Y-12488273D02*
X20735703Y-12528273D01*
X20755000Y-11480000D02*
X20795000Y-11520000D01*
X20795000Y-11480000D02*
X20755000Y-11520000D01*
X20755000Y-11755000D02*
X20795000Y-11795000D01*
X20795000Y-11755000D02*
X20755000Y-11795000D01*
X20760000Y-12288500D02*
X20800000Y-12328500D01*
X20800000Y-12288500D02*
X20760000Y-12328500D01*
X20761050Y-12767394D02*
X20801050Y-12807394D01*
X20801050Y-12767394D02*
X20761050Y-12807394D01*
X20768465Y-12630774D02*
X20808465Y-12670774D01*
X20808465Y-12630774D02*
X20768465Y-12670774D01*
X20780000Y-13220000D02*
X20820000Y-13260000D01*
X20820000Y-13220000D02*
X20780000Y-13260000D01*
X20855000Y-10630000D02*
X20895000Y-10670000D01*
X20895000Y-10630000D02*
X20855000Y-10670000D01*
X20860000Y-9955000D02*
X20900000Y-9995000D01*
X20900000Y-9955000D02*
X20860000Y-9995000D01*
X20860000Y-10305000D02*
X20900000Y-10345000D01*
X20900000Y-10305000D02*
X20860000Y-10345000D01*
X20860000Y-10930000D02*
X20900000Y-10970000D01*
X20900000Y-10930000D02*
X20860000Y-10970000D01*
X20918891Y-13241384D02*
X20958891Y-13281384D01*
X20958891Y-13241384D02*
X20918891Y-13281384D01*
X21020000Y-11400000D02*
X21060000Y-11440000D01*
X21060000Y-11400000D02*
X21020000Y-11440000D01*
X21030000Y-14140000D02*
X21070000Y-14180000D01*
X21070000Y-14140000D02*
X21030000Y-14180000D01*
X21090409Y-13094609D02*
X21130409Y-13134609D01*
X21130409Y-13094609D02*
X21090409Y-13134609D01*
X21103227Y-12364972D02*
X21143227Y-12404972D01*
X21143227Y-12364972D02*
X21103227Y-12404972D01*
X21105000Y-13755000D02*
X21145000Y-13795000D01*
X21145000Y-13755000D02*
X21105000Y-13795000D01*
X21105000Y-14030000D02*
X21145000Y-14070000D01*
X21145000Y-14030000D02*
X21105000Y-14070000D01*
X21110000Y-8230000D02*
X21150000Y-8270000D01*
X21150000Y-8230000D02*
X21110000Y-8270000D01*
X21130000Y-14500000D02*
X21170000Y-14540000D01*
X21170000Y-14500000D02*
X21130000Y-14540000D01*
X21155000Y-12132000D02*
X21195000Y-12172000D01*
X21195000Y-12132000D02*
X21155000Y-12172000D01*
X21180000Y-8505000D02*
X21220000Y-8545000D01*
X21220000Y-8505000D02*
X21180000Y-8545000D01*
X21180000Y-8830000D02*
X21220000Y-8870000D01*
X21220000Y-8830000D02*
X21180000Y-8870000D01*
X21180000Y-12655000D02*
X21220000Y-12695000D01*
X21220000Y-12655000D02*
X21180000Y-12695000D01*
X21196227Y-13094640D02*
X21236227Y-13134640D01*
X21236227Y-13094640D02*
X21196227Y-13134640D01*
X21235000Y-14080000D02*
X21275000Y-14120000D01*
X21275000Y-14080000D02*
X21235000Y-14120000D01*
X21355000Y-11505000D02*
X21395000Y-11545000D01*
X21395000Y-11505000D02*
X21355000Y-11545000D01*
X21380000Y-12655000D02*
X21420000Y-12695000D01*
X21420000Y-12655000D02*
X21380000Y-12695000D01*
X21380000Y-13755000D02*
X21420000Y-13795000D01*
X21420000Y-13755000D02*
X21380000Y-13795000D01*
X21380000Y-14030000D02*
X21420000Y-14070000D01*
X21420000Y-14030000D02*
X21380000Y-14070000D01*
X21439620Y-9352079D02*
X21479620Y-9392079D01*
X21479620Y-9352079D02*
X21439620Y-9392079D01*
X21440000Y-9197079D02*
X21480000Y-9237079D01*
X21480000Y-9197079D02*
X21440000Y-9237079D01*
X21440000Y-13010000D02*
X21480000Y-13050000D01*
X21480000Y-13010000D02*
X21440000Y-13050000D01*
X21477709Y-12261459D02*
X21517709Y-12301459D01*
X21517709Y-12261459D02*
X21477709Y-12301459D01*
X21489133Y-12132000D02*
X21529133Y-12172000D01*
X21529133Y-12132000D02*
X21489133Y-12172000D01*
X21510000Y-9430000D02*
X21550000Y-9470000D01*
X21550000Y-9430000D02*
X21510000Y-9470000D01*
X21510653Y-9274753D02*
X21550653Y-9314753D01*
X21550653Y-9274753D02*
X21510653Y-9314753D01*
X21520000Y-8230000D02*
X21560000Y-8270000D01*
X21560000Y-8230000D02*
X21520000Y-8270000D01*
X21570000Y-14690000D02*
X21610000Y-14730000D01*
X21610000Y-14690000D02*
X21570000Y-14730000D01*
X21642500Y-13612500D02*
X21682500Y-13652500D01*
X21682500Y-13612500D02*
X21642500Y-13652500D01*
X21705000Y-13755000D02*
X21745000Y-13795000D01*
X21745000Y-13755000D02*
X21705000Y-13795000D01*
X21705000Y-14030000D02*
X21745000Y-14070000D01*
X21745000Y-14030000D02*
X21705000Y-14070000D01*
X21721270Y-12620000D02*
X21761270Y-12660000D01*
X21761270Y-12620000D02*
X21721270Y-12660000D01*
X21735156Y-12324844D02*
X21775156Y-12364844D01*
X21775156Y-12324844D02*
X21735156Y-12364844D01*
X21740000Y-10980000D02*
X21780000Y-11020000D01*
X21780000Y-10980000D02*
X21740000Y-11020000D01*
X21750000Y-10660000D02*
X21790000Y-10700000D01*
X21790000Y-10660000D02*
X21750000Y-10700000D01*
X21760000Y-10260000D02*
X21800000Y-10300000D01*
X21800000Y-10260000D02*
X21760000Y-10300000D01*
X21768906Y-13493906D02*
X21808906Y-13533906D01*
X21808906Y-13493906D02*
X21768906Y-13533906D01*
X21810000Y-12820000D02*
X21850000Y-12860000D01*
X21850000Y-12820000D02*
X21810000Y-12860000D01*
X21847418Y-12322582D02*
X21887418Y-12362582D01*
X21887418Y-12322582D02*
X21847418Y-12362582D01*
X21860414Y-13072361D02*
X21900414Y-13112361D01*
X21900414Y-13072361D02*
X21860414Y-13112361D01*
X21890000Y-13430000D02*
X21930000Y-13470000D01*
X21930000Y-13430000D02*
X21890000Y-13470000D01*
X21905000Y-11450000D02*
X21945000Y-11490000D01*
X21945000Y-11450000D02*
X21905000Y-11490000D01*
X21940000Y-8230000D02*
X21980000Y-8270000D01*
X21980000Y-8230000D02*
X21940000Y-8270000D01*
X21940000Y-9430000D02*
X21980000Y-9470000D01*
X21980000Y-9430000D02*
X21940000Y-9470000D01*
X22030000Y-9350000D02*
X22070000Y-9390000D01*
X22070000Y-9350000D02*
X22030000Y-9390000D01*
X22105000Y-14330000D02*
X22145000Y-14370000D01*
X22145000Y-14330000D02*
X22105000Y-14370000D01*
X22212823Y-9184139D02*
X22252823Y-9224139D01*
X22252823Y-9184139D02*
X22212823Y-9224139D01*
X22230000Y-12655000D02*
X22270000Y-12695000D01*
X22270000Y-12655000D02*
X22230000Y-12695000D01*
X22365000Y-11480000D02*
X22405000Y-11520000D01*
X22405000Y-11480000D02*
X22365000Y-11520000D01*
X22385000Y-8230000D02*
X22425000Y-8270000D01*
X22425000Y-8230000D02*
X22385000Y-8270000D01*
X22410000Y-9180000D02*
X22450000Y-9220000D01*
X22450000Y-9180000D02*
X22410000Y-9220000D01*
X22480000Y-9505000D02*
X22520000Y-9545000D01*
X22520000Y-9505000D02*
X22480000Y-9545000D01*
X22535000Y-14330000D02*
X22575000Y-14370000D01*
X22575000Y-14330000D02*
X22535000Y-14370000D01*
X22560000Y-13180000D02*
X22600000Y-13220000D01*
X22600000Y-13180000D02*
X22560000Y-13220000D01*
X22665000Y-11540000D02*
X22705000Y-11580000D01*
X22705000Y-11540000D02*
X22665000Y-11580000D01*
X22730000Y-10030000D02*
X22770000Y-10070000D01*
X22770000Y-10030000D02*
X22730000Y-10070000D01*
X22805000Y-8230000D02*
X22845000Y-8270000D01*
X22845000Y-8230000D02*
X22805000Y-8270000D01*
X22805000Y-13580000D02*
X22845000Y-13620000D01*
X22845000Y-13580000D02*
X22805000Y-13620000D01*
X22805000Y-13780000D02*
X22845000Y-13820000D01*
X22845000Y-13780000D02*
X22805000Y-13820000D01*
X22905000Y-11540000D02*
X22945000Y-11580000D01*
X22945000Y-11540000D02*
X22905000Y-11580000D01*
X22905000Y-13680000D02*
X22945000Y-13720000D01*
X22945000Y-13680000D02*
X22905000Y-13720000D01*
X22985000Y-14330000D02*
X23025000Y-14370000D01*
X23025000Y-14330000D02*
X22985000Y-14370000D01*
X23005000Y-13580000D02*
X23045000Y-13620000D01*
X23045000Y-13580000D02*
X23005000Y-13620000D01*
X23005000Y-13780000D02*
X23045000Y-13820000D01*
X23045000Y-13780000D02*
X23005000Y-13820000D01*
X23180000Y-8230000D02*
X23220000Y-8270000D01*
X23220000Y-8230000D02*
X23180000Y-8270000D01*
X23310000Y-11540000D02*
X23350000Y-11580000D01*
X23350000Y-11540000D02*
X23310000Y-11580000D01*
X23390000Y-8430000D02*
X23430000Y-8470000D01*
X23430000Y-8430000D02*
X23390000Y-8470000D01*
X23480000Y-11410000D02*
X23520000Y-11450000D01*
X23520000Y-11410000D02*
X23480000Y-11450000D01*
X23480000Y-11860000D02*
X23520000Y-11900000D01*
X23520000Y-11860000D02*
X23480000Y-11900000D01*
X23480000Y-12320000D02*
X23520000Y-12360000D01*
X23520000Y-12320000D02*
X23480000Y-12360000D01*
X23480000Y-12745000D02*
X23520000Y-12785000D01*
X23520000Y-12745000D02*
X23480000Y-12785000D01*
X23480000Y-13195000D02*
X23520000Y-13235000D01*
X23520000Y-13195000D02*
X23480000Y-13235000D01*
X23480000Y-13620000D02*
X23520000Y-13660000D01*
X23520000Y-13620000D02*
X23480000Y-13660000D01*
X23480000Y-14070000D02*
X23520000Y-14110000D01*
X23520000Y-14070000D02*
X23480000Y-14110000D01*
X23590000Y-8630000D02*
X23630000Y-8670000D01*
X23630000Y-8630000D02*
X23590000Y-8670000D01*
X21230500Y-11250000D02*
G75*
G02*
X21165500Y-11250000I-32500J0D01*
G01*
X21165500Y-11250000D02*
G75*
G02*
X21230500Y-11250000I32500J0D01*
G01*
X21357500Y-11250000D02*
G75*
G02*
X21292500Y-11250000I-32500J0D01*
G01*
X21292500Y-11250000D02*
G75*
G02*
X21357500Y-11250000I32500J0D01*
G01*
X21630500Y-11250000D02*
G75*
G02*
X21565500Y-11250000I-32500J0D01*
G01*
X21565500Y-11250000D02*
G75*
G02*
X21630500Y-11250000I32500J0D01*
G01*
X21757500Y-11250000D02*
G75*
G02*
X21692500Y-11250000I-32500J0D01*
G01*
X21692500Y-11250000D02*
G75*
G02*
X21757500Y-11250000I32500J0D01*
G01*
X16025477Y-8750000D02*
X16025477Y-8850000D01*
X15975477Y-8800000D02*
X16075477Y-8800000D01*
X16025477Y-9004000D02*
X16025477Y-9104000D01*
X15975477Y-9054000D02*
X16075477Y-9054000D01*
X16279477Y-8750000D02*
X16279477Y-8850000D01*
X16229477Y-8800000D02*
X16329477Y-8800000D01*
X16279477Y-9004000D02*
X16279477Y-9104000D01*
X16229477Y-9054000D02*
X16329477Y-9054000D01*
X16533477Y-8750000D02*
X16533477Y-8850000D01*
X16483477Y-8800000D02*
X16583477Y-8800000D01*
X16533477Y-9004000D02*
X16533477Y-9104000D01*
X16483477Y-9054000D02*
X16583477Y-9054000D01*
X16787477Y-8750000D02*
X16787477Y-8850000D01*
X16737477Y-8800000D02*
X16837477Y-8800000D01*
X16787477Y-9004000D02*
X16787477Y-9104000D01*
X16737477Y-9054000D02*
X16837477Y-9054000D01*
X17041477Y-8750000D02*
X17041477Y-8850000D01*
X16991477Y-8800000D02*
X17091477Y-8800000D01*
X17041477Y-9004000D02*
X17041477Y-9104000D01*
X16991477Y-9054000D02*
X17091477Y-9054000D01*
X17295477Y-8750000D02*
X17295477Y-8850000D01*
X17245477Y-8800000D02*
X17345477Y-8800000D01*
X17295477Y-9004000D02*
X17295477Y-9104000D01*
X17245477Y-9054000D02*
X17345477Y-9054000D01*
X17549477Y-8750000D02*
X17549477Y-8850000D01*
X17499477Y-8800000D02*
X17599477Y-8800000D01*
X17549477Y-9004000D02*
X17549477Y-9104000D01*
X17499477Y-9054000D02*
X17599477Y-9054000D01*
X17803477Y-8750000D02*
X17803477Y-8850000D01*
X17753477Y-8800000D02*
X17853477Y-8800000D01*
X17803477Y-9004000D02*
X17803477Y-9104000D01*
X17753477Y-9054000D02*
X17853477Y-9054000D01*
X18057477Y-8750000D02*
X18057477Y-8850000D01*
X18007477Y-8800000D02*
X18107477Y-8800000D01*
X18057477Y-9004000D02*
X18057477Y-9104000D01*
X18007477Y-9054000D02*
X18107477Y-9054000D01*
X18311477Y-8750000D02*
X18311477Y-8850000D01*
X18261477Y-8800000D02*
X18361477Y-8800000D01*
X18311477Y-9004000D02*
X18311477Y-9104000D01*
X18261477Y-9054000D02*
X18361477Y-9054000D01*
X18565477Y-8750000D02*
X18565477Y-8850000D01*
X18515477Y-8800000D02*
X18615477Y-8800000D01*
X18565477Y-9004000D02*
X18565477Y-9104000D01*
X18515477Y-9054000D02*
X18615477Y-9054000D01*
X18819477Y-8750000D02*
X18819477Y-8850000D01*
X18769477Y-8800000D02*
X18869477Y-8800000D01*
X18819477Y-9004000D02*
X18819477Y-9104000D01*
X18769477Y-9054000D02*
X18869477Y-9054000D01*
X19073477Y-8750000D02*
X19073477Y-8850000D01*
X19023477Y-8800000D02*
X19123477Y-8800000D01*
X19073477Y-9004000D02*
X19073477Y-9104000D01*
X19023477Y-9054000D02*
X19123477Y-9054000D01*
X20134671Y-13875000D02*
X20134671Y-13975000D01*
X20084671Y-13925000D02*
X20184671Y-13925000D01*
X20388671Y-13875000D02*
X20388671Y-13975000D01*
X20338671Y-13925000D02*
X20438671Y-13925000D01*
D13*
X22789952Y-10294452D02*
X22789952Y-10214548D01*
X22710048Y-10214548D01*
X22710048Y-10294452D01*
X22789952Y-10294452D01*
X22789952Y-10523452D02*
X22789952Y-10443548D01*
X22710048Y-10443548D01*
X22710048Y-10523452D01*
X22789952Y-10523452D01*
X22789952Y-10752452D02*
X22789952Y-10672548D01*
X22710048Y-10672548D01*
X22710048Y-10752452D01*
X22789952Y-10752452D01*
X22789952Y-10981452D02*
X22789952Y-10901548D01*
X22710048Y-10901548D01*
X22710048Y-10981452D01*
X22789952Y-10981452D01*
X22789952Y-11210452D02*
X22789952Y-11130548D01*
X22710048Y-11130548D01*
X22710048Y-11210452D01*
X22789952Y-11210452D01*
X23039952Y-10179952D02*
X23039952Y-10100048D01*
X22960048Y-10100048D01*
X22960048Y-10179952D01*
X23039952Y-10179952D01*
X23039952Y-10408952D02*
X23039952Y-10329048D01*
X22960048Y-10329048D01*
X22960048Y-10408952D01*
X23039952Y-10408952D01*
X23039952Y-10637952D02*
X23039952Y-10558048D01*
X22960048Y-10558048D01*
X22960048Y-10637952D01*
X23039952Y-10637952D01*
X23039952Y-10866952D02*
X23039952Y-10787048D01*
X22960048Y-10787048D01*
X22960048Y-10866952D01*
X23039952Y-10866952D01*
X23039952Y-11095952D02*
X23039952Y-11016048D01*
X22960048Y-11016048D01*
X22960048Y-11095952D01*
X23039952Y-11095952D01*
X23289952Y-10294452D02*
X23289952Y-10214548D01*
X23210048Y-10214548D01*
X23210048Y-10294452D01*
X23289952Y-10294452D01*
X23289952Y-10523452D02*
X23289952Y-10443548D01*
X23210048Y-10443548D01*
X23210048Y-10523452D01*
X23289952Y-10523452D01*
X23289952Y-10752452D02*
X23289952Y-10672548D01*
X23210048Y-10672548D01*
X23210048Y-10752452D01*
X23289952Y-10752452D01*
X23289952Y-10981452D02*
X23289952Y-10901548D01*
X23210048Y-10901548D01*
X23210048Y-10981452D01*
X23289952Y-10981452D01*
X23289952Y-11210452D02*
X23289952Y-11130548D01*
X23210048Y-11130548D01*
X23210048Y-11210452D01*
X23289952Y-11210452D01*
D14*
X23000000Y-9602000D02*
X23161500Y-9440500D01*
X23000000Y-9279000D01*
X22838500Y-9440500D01*
X23000000Y-9602000D01*
X23000000Y-12101000D02*
X23161500Y-11939500D01*
X23000000Y-11778000D01*
X22838500Y-11939500D01*
X23000000Y-12101000D01*
D11*
X8482290Y-16048984D02*
X8482290Y-15848984D01*
X8482290Y-15848984D02*
X8529909Y-15848984D01*
X8529909Y-15848984D02*
X8558481Y-15858508D01*
X8558481Y-15858508D02*
X8577528Y-15877555D01*
X8577528Y-15877555D02*
X8587052Y-15896603D01*
X8587052Y-15896603D02*
X8596576Y-15934698D01*
X8596576Y-15934698D02*
X8596576Y-15963269D01*
X8596576Y-15963269D02*
X8587052Y-16001365D01*
X8587052Y-16001365D02*
X8577528Y-16020412D01*
X8577528Y-16020412D02*
X8558481Y-16039460D01*
X8558481Y-16039460D02*
X8529909Y-16048984D01*
X8529909Y-16048984D02*
X8482290Y-16048984D01*
X8682290Y-16048984D02*
X8682290Y-15915650D01*
X8682290Y-15953746D02*
X8691814Y-15934698D01*
X8691814Y-15934698D02*
X8701338Y-15925174D01*
X8701338Y-15925174D02*
X8720385Y-15915650D01*
X8720385Y-15915650D02*
X8739433Y-15915650D01*
X8806100Y-16048984D02*
X8806100Y-15915650D01*
X8806100Y-15848984D02*
X8796576Y-15858508D01*
X8796576Y-15858508D02*
X8806100Y-15868031D01*
X8806100Y-15868031D02*
X8815624Y-15858508D01*
X8815624Y-15858508D02*
X8806100Y-15848984D01*
X8806100Y-15848984D02*
X8806100Y-15868031D01*
X8929909Y-16048984D02*
X8910862Y-16039460D01*
X8910862Y-16039460D02*
X8901338Y-16020412D01*
X8901338Y-16020412D02*
X8901338Y-15848984D01*
X9034671Y-16048984D02*
X9015624Y-16039460D01*
X9015624Y-16039460D02*
X9006100Y-16020412D01*
X9006100Y-16020412D02*
X9006100Y-15848984D01*
X9263243Y-16048984D02*
X9263243Y-15848984D01*
X9263243Y-15848984D02*
X9329909Y-15991841D01*
X9329909Y-15991841D02*
X9396576Y-15848984D01*
X9396576Y-15848984D02*
X9396576Y-16048984D01*
X9577528Y-16048984D02*
X9577528Y-15944222D01*
X9577528Y-15944222D02*
X9568005Y-15925174D01*
X9568005Y-15925174D02*
X9548957Y-15915650D01*
X9548957Y-15915650D02*
X9510862Y-15915650D01*
X9510862Y-15915650D02*
X9491814Y-15925174D01*
X9577528Y-16039460D02*
X9558481Y-16048984D01*
X9558481Y-16048984D02*
X9510862Y-16048984D01*
X9510862Y-16048984D02*
X9491814Y-16039460D01*
X9491814Y-16039460D02*
X9482290Y-16020412D01*
X9482290Y-16020412D02*
X9482290Y-16001365D01*
X9482290Y-16001365D02*
X9491814Y-15982317D01*
X9491814Y-15982317D02*
X9510862Y-15972793D01*
X9510862Y-15972793D02*
X9558481Y-15972793D01*
X9558481Y-15972793D02*
X9577528Y-15963269D01*
X9672766Y-15915650D02*
X9672766Y-16115650D01*
X9672766Y-15925174D02*
X9691814Y-15915650D01*
X9691814Y-15915650D02*
X9729909Y-15915650D01*
X9729909Y-15915650D02*
X9748957Y-15925174D01*
X9748957Y-15925174D02*
X9758481Y-15934698D01*
X9758481Y-15934698D02*
X9768005Y-15953746D01*
X9768005Y-15953746D02*
X9768005Y-16010888D01*
X9768005Y-16010888D02*
X9758481Y-16029936D01*
X9758481Y-16029936D02*
X9748957Y-16039460D01*
X9748957Y-16039460D02*
X9729909Y-16048984D01*
X9729909Y-16048984D02*
X9691814Y-16048984D01*
X9691814Y-16048984D02*
X9672766Y-16039460D01*
X9853719Y-16029936D02*
X9863243Y-16039460D01*
X9863243Y-16039460D02*
X9853719Y-16048984D01*
X9853719Y-16048984D02*
X9844195Y-16039460D01*
X9844195Y-16039460D02*
X9853719Y-16029936D01*
X9853719Y-16029936D02*
X9853719Y-16048984D01*
X9853719Y-15925174D02*
X9863243Y-15934698D01*
X9863243Y-15934698D02*
X9853719Y-15944222D01*
X9853719Y-15944222D02*
X9844195Y-15934698D01*
X9844195Y-15934698D02*
X9853719Y-15925174D01*
X9853719Y-15925174D02*
X9853719Y-15944222D01*
D12*
X8181513Y-16357500D02*
X8221513Y-16397500D01*
X8221513Y-16357500D02*
X8181513Y-16397500D01*
D11*
X8520385Y-16268984D02*
X8539433Y-16268984D01*
X8539433Y-16268984D02*
X8558481Y-16278508D01*
X8558481Y-16278508D02*
X8568005Y-16288031D01*
X8568005Y-16288031D02*
X8577528Y-16307079D01*
X8577528Y-16307079D02*
X8587052Y-16345174D01*
X8587052Y-16345174D02*
X8587052Y-16392793D01*
X8587052Y-16392793D02*
X8577528Y-16430888D01*
X8577528Y-16430888D02*
X8568005Y-16449936D01*
X8568005Y-16449936D02*
X8558481Y-16459460D01*
X8558481Y-16459460D02*
X8539433Y-16468984D01*
X8539433Y-16468984D02*
X8520385Y-16468984D01*
X8520385Y-16468984D02*
X8501338Y-16459460D01*
X8501338Y-16459460D02*
X8491814Y-16449936D01*
X8491814Y-16449936D02*
X8482290Y-16430888D01*
X8482290Y-16430888D02*
X8472766Y-16392793D01*
X8472766Y-16392793D02*
X8472766Y-16345174D01*
X8472766Y-16345174D02*
X8482290Y-16307079D01*
X8482290Y-16307079D02*
X8491814Y-16288031D01*
X8491814Y-16288031D02*
X8501338Y-16278508D01*
X8501338Y-16278508D02*
X8520385Y-16268984D01*
X8672766Y-16449936D02*
X8682290Y-16459460D01*
X8682290Y-16459460D02*
X8672766Y-16468984D01*
X8672766Y-16468984D02*
X8663243Y-16459460D01*
X8663243Y-16459460D02*
X8672766Y-16449936D01*
X8672766Y-16449936D02*
X8672766Y-16468984D01*
X8853719Y-16335650D02*
X8853719Y-16468984D01*
X8806100Y-16259460D02*
X8758481Y-16402317D01*
X8758481Y-16402317D02*
X8882290Y-16402317D01*
X8996576Y-16268984D02*
X9015624Y-16268984D01*
X9015624Y-16268984D02*
X9034671Y-16278508D01*
X9034671Y-16278508D02*
X9044195Y-16288031D01*
X9044195Y-16288031D02*
X9053719Y-16307079D01*
X9053719Y-16307079D02*
X9063243Y-16345174D01*
X9063243Y-16345174D02*
X9063243Y-16392793D01*
X9063243Y-16392793D02*
X9053719Y-16430888D01*
X9053719Y-16430888D02*
X9044195Y-16449936D01*
X9044195Y-16449936D02*
X9034671Y-16459460D01*
X9034671Y-16459460D02*
X9015624Y-16468984D01*
X9015624Y-16468984D02*
X8996576Y-16468984D01*
X8996576Y-16468984D02*
X8977528Y-16459460D01*
X8977528Y-16459460D02*
X8968005Y-16449936D01*
X8968005Y-16449936D02*
X8958481Y-16430888D01*
X8958481Y-16430888D02*
X8948957Y-16392793D01*
X8948957Y-16392793D02*
X8948957Y-16345174D01*
X8948957Y-16345174D02*
X8958481Y-16307079D01*
X8958481Y-16307079D02*
X8968005Y-16288031D01*
X8968005Y-16288031D02*
X8977528Y-16278508D01*
X8977528Y-16278508D02*
X8996576Y-16268984D01*
X9187052Y-16268984D02*
X9206100Y-16268984D01*
X9206100Y-16268984D02*
X9225147Y-16278508D01*
X9225147Y-16278508D02*
X9234671Y-16288031D01*
X9234671Y-16288031D02*
X9244195Y-16307079D01*
X9244195Y-16307079D02*
X9253719Y-16345174D01*
X9253719Y-16345174D02*
X9253719Y-16392793D01*
X9253719Y-16392793D02*
X9244195Y-16430888D01*
X9244195Y-16430888D02*
X9234671Y-16449936D01*
X9234671Y-16449936D02*
X9225147Y-16459460D01*
X9225147Y-16459460D02*
X9206100Y-16468984D01*
X9206100Y-16468984D02*
X9187052Y-16468984D01*
X9187052Y-16468984D02*
X9168005Y-16459460D01*
X9168005Y-16459460D02*
X9158481Y-16449936D01*
X9158481Y-16449936D02*
X9148957Y-16430888D01*
X9148957Y-16430888D02*
X9139433Y-16392793D01*
X9139433Y-16392793D02*
X9139433Y-16345174D01*
X9139433Y-16345174D02*
X9148957Y-16307079D01*
X9148957Y-16307079D02*
X9158481Y-16288031D01*
X9158481Y-16288031D02*
X9168005Y-16278508D01*
X9168005Y-16278508D02*
X9187052Y-16268984D01*
X9339433Y-16468984D02*
X9339433Y-16335650D01*
X9339433Y-16354698D02*
X9348957Y-16345174D01*
X9348957Y-16345174D02*
X9368005Y-16335650D01*
X9368005Y-16335650D02*
X9396576Y-16335650D01*
X9396576Y-16335650D02*
X9415624Y-16345174D01*
X9415624Y-16345174D02*
X9425147Y-16364222D01*
X9425147Y-16364222D02*
X9425147Y-16468984D01*
X9425147Y-16364222D02*
X9434671Y-16345174D01*
X9434671Y-16345174D02*
X9453719Y-16335650D01*
X9453719Y-16335650D02*
X9482290Y-16335650D01*
X9482290Y-16335650D02*
X9501338Y-16345174D01*
X9501338Y-16345174D02*
X9510862Y-16364222D01*
X9510862Y-16364222D02*
X9510862Y-16468984D01*
X9606100Y-16468984D02*
X9606100Y-16335650D01*
X9606100Y-16354698D02*
X9615624Y-16345174D01*
X9615624Y-16345174D02*
X9634671Y-16335650D01*
X9634671Y-16335650D02*
X9663243Y-16335650D01*
X9663243Y-16335650D02*
X9682290Y-16345174D01*
X9682290Y-16345174D02*
X9691814Y-16364222D01*
X9691814Y-16364222D02*
X9691814Y-16468984D01*
X9691814Y-16364222D02*
X9701338Y-16345174D01*
X9701338Y-16345174D02*
X9720386Y-16335650D01*
X9720386Y-16335650D02*
X9748957Y-16335650D01*
X9748957Y-16335650D02*
X9768005Y-16345174D01*
X9768005Y-16345174D02*
X9777528Y-16364222D01*
X9777528Y-16364222D02*
X9777528Y-16468984D01*
X10168005Y-16259460D02*
X9996576Y-16516603D01*
X10425148Y-16268984D02*
X10444195Y-16268984D01*
X10444195Y-16268984D02*
X10463243Y-16278508D01*
X10463243Y-16278508D02*
X10472767Y-16288031D01*
X10472767Y-16288031D02*
X10482290Y-16307079D01*
X10482290Y-16307079D02*
X10491814Y-16345174D01*
X10491814Y-16345174D02*
X10491814Y-16392793D01*
X10491814Y-16392793D02*
X10482290Y-16430888D01*
X10482290Y-16430888D02*
X10472767Y-16449936D01*
X10472767Y-16449936D02*
X10463243Y-16459460D01*
X10463243Y-16459460D02*
X10444195Y-16468984D01*
X10444195Y-16468984D02*
X10425148Y-16468984D01*
X10425148Y-16468984D02*
X10406100Y-16459460D01*
X10406100Y-16459460D02*
X10396576Y-16449936D01*
X10396576Y-16449936D02*
X10387052Y-16430888D01*
X10387052Y-16430888D02*
X10377529Y-16392793D01*
X10377529Y-16392793D02*
X10377529Y-16345174D01*
X10377529Y-16345174D02*
X10387052Y-16307079D01*
X10387052Y-16307079D02*
X10396576Y-16288031D01*
X10396576Y-16288031D02*
X10406100Y-16278508D01*
X10406100Y-16278508D02*
X10425148Y-16268984D01*
X10577529Y-16449936D02*
X10587052Y-16459460D01*
X10587052Y-16459460D02*
X10577529Y-16468984D01*
X10577529Y-16468984D02*
X10568005Y-16459460D01*
X10568005Y-16459460D02*
X10577529Y-16449936D01*
X10577529Y-16449936D02*
X10577529Y-16468984D01*
X10710862Y-16268984D02*
X10729910Y-16268984D01*
X10729910Y-16268984D02*
X10748957Y-16278508D01*
X10748957Y-16278508D02*
X10758481Y-16288031D01*
X10758481Y-16288031D02*
X10768005Y-16307079D01*
X10768005Y-16307079D02*
X10777529Y-16345174D01*
X10777529Y-16345174D02*
X10777529Y-16392793D01*
X10777529Y-16392793D02*
X10768005Y-16430888D01*
X10768005Y-16430888D02*
X10758481Y-16449936D01*
X10758481Y-16449936D02*
X10748957Y-16459460D01*
X10748957Y-16459460D02*
X10729910Y-16468984D01*
X10729910Y-16468984D02*
X10710862Y-16468984D01*
X10710862Y-16468984D02*
X10691814Y-16459460D01*
X10691814Y-16459460D02*
X10682290Y-16449936D01*
X10682290Y-16449936D02*
X10672767Y-16430888D01*
X10672767Y-16430888D02*
X10663243Y-16392793D01*
X10663243Y-16392793D02*
X10663243Y-16345174D01*
X10663243Y-16345174D02*
X10672767Y-16307079D01*
X10672767Y-16307079D02*
X10682290Y-16288031D01*
X10682290Y-16288031D02*
X10691814Y-16278508D01*
X10691814Y-16278508D02*
X10710862Y-16268984D01*
X10968005Y-16468984D02*
X10853719Y-16468984D01*
X10910862Y-16468984D02*
X10910862Y-16268984D01*
X10910862Y-16268984D02*
X10891814Y-16297555D01*
X10891814Y-16297555D02*
X10872767Y-16316603D01*
X10872767Y-16316603D02*
X10853719Y-16326127D01*
X11148957Y-16268984D02*
X11053719Y-16268984D01*
X11053719Y-16268984D02*
X11044195Y-16364222D01*
X11044195Y-16364222D02*
X11053719Y-16354698D01*
X11053719Y-16354698D02*
X11072767Y-16345174D01*
X11072767Y-16345174D02*
X11120386Y-16345174D01*
X11120386Y-16345174D02*
X11139433Y-16354698D01*
X11139433Y-16354698D02*
X11148957Y-16364222D01*
X11148957Y-16364222D02*
X11158481Y-16383269D01*
X11158481Y-16383269D02*
X11158481Y-16430888D01*
X11158481Y-16430888D02*
X11148957Y-16449936D01*
X11148957Y-16449936D02*
X11139433Y-16459460D01*
X11139433Y-16459460D02*
X11120386Y-16468984D01*
X11120386Y-16468984D02*
X11072767Y-16468984D01*
X11072767Y-16468984D02*
X11053719Y-16459460D01*
X11053719Y-16459460D02*
X11044195Y-16449936D01*
X11225148Y-16268984D02*
X11358481Y-16268984D01*
X11358481Y-16268984D02*
X11272767Y-16468984D01*
X11425148Y-16268984D02*
X11425148Y-16307079D01*
X11501338Y-16268984D02*
X11501338Y-16307079D01*
X11796576Y-16545174D02*
X11787052Y-16535650D01*
X11787052Y-16535650D02*
X11768005Y-16507079D01*
X11768005Y-16507079D02*
X11758481Y-16488031D01*
X11758481Y-16488031D02*
X11748957Y-16459460D01*
X11748957Y-16459460D02*
X11739433Y-16411841D01*
X11739433Y-16411841D02*
X11739433Y-16373746D01*
X11739433Y-16373746D02*
X11748957Y-16326127D01*
X11748957Y-16326127D02*
X11758481Y-16297555D01*
X11758481Y-16297555D02*
X11768005Y-16278508D01*
X11768005Y-16278508D02*
X11787052Y-16249936D01*
X11787052Y-16249936D02*
X11796576Y-16240412D01*
X11958481Y-16335650D02*
X11958481Y-16468984D01*
X11910862Y-16259460D02*
X11863243Y-16402317D01*
X11863243Y-16402317D02*
X11987052Y-16402317D01*
X12148957Y-16335650D02*
X12148957Y-16468984D01*
X12101338Y-16259460D02*
X12053719Y-16402317D01*
X12053719Y-16402317D02*
X12177529Y-16402317D01*
X12339433Y-16335650D02*
X12339433Y-16468984D01*
X12291814Y-16259460D02*
X12244195Y-16402317D01*
X12244195Y-16402317D02*
X12368005Y-16402317D01*
X12596576Y-16468984D02*
X12596576Y-16268984D01*
X12682291Y-16468984D02*
X12682291Y-16364222D01*
X12682291Y-16364222D02*
X12672767Y-16345174D01*
X12672767Y-16345174D02*
X12653719Y-16335650D01*
X12653719Y-16335650D02*
X12625148Y-16335650D01*
X12625148Y-16335650D02*
X12606100Y-16345174D01*
X12606100Y-16345174D02*
X12596576Y-16354698D01*
X12806100Y-16468984D02*
X12787052Y-16459460D01*
X12787052Y-16459460D02*
X12777529Y-16449936D01*
X12777529Y-16449936D02*
X12768005Y-16430888D01*
X12768005Y-16430888D02*
X12768005Y-16373746D01*
X12768005Y-16373746D02*
X12777529Y-16354698D01*
X12777529Y-16354698D02*
X12787052Y-16345174D01*
X12787052Y-16345174D02*
X12806100Y-16335650D01*
X12806100Y-16335650D02*
X12834672Y-16335650D01*
X12834672Y-16335650D02*
X12853719Y-16345174D01*
X12853719Y-16345174D02*
X12863243Y-16354698D01*
X12863243Y-16354698D02*
X12872767Y-16373746D01*
X12872767Y-16373746D02*
X12872767Y-16430888D01*
X12872767Y-16430888D02*
X12863243Y-16449936D01*
X12863243Y-16449936D02*
X12853719Y-16459460D01*
X12853719Y-16459460D02*
X12834672Y-16468984D01*
X12834672Y-16468984D02*
X12806100Y-16468984D01*
X12987052Y-16468984D02*
X12968005Y-16459460D01*
X12968005Y-16459460D02*
X12958481Y-16440412D01*
X12958481Y-16440412D02*
X12958481Y-16268984D01*
X13139433Y-16459460D02*
X13120386Y-16468984D01*
X13120386Y-16468984D02*
X13082291Y-16468984D01*
X13082291Y-16468984D02*
X13063243Y-16459460D01*
X13063243Y-16459460D02*
X13053719Y-16440412D01*
X13053719Y-16440412D02*
X13053719Y-16364222D01*
X13053719Y-16364222D02*
X13063243Y-16345174D01*
X13063243Y-16345174D02*
X13082291Y-16335650D01*
X13082291Y-16335650D02*
X13120386Y-16335650D01*
X13120386Y-16335650D02*
X13139433Y-16345174D01*
X13139433Y-16345174D02*
X13148957Y-16364222D01*
X13148957Y-16364222D02*
X13148957Y-16383269D01*
X13148957Y-16383269D02*
X13053719Y-16402317D01*
X13225148Y-16459460D02*
X13244195Y-16468984D01*
X13244195Y-16468984D02*
X13282291Y-16468984D01*
X13282291Y-16468984D02*
X13301338Y-16459460D01*
X13301338Y-16459460D02*
X13310862Y-16440412D01*
X13310862Y-16440412D02*
X13310862Y-16430888D01*
X13310862Y-16430888D02*
X13301338Y-16411841D01*
X13301338Y-16411841D02*
X13282291Y-16402317D01*
X13282291Y-16402317D02*
X13253719Y-16402317D01*
X13253719Y-16402317D02*
X13234672Y-16392793D01*
X13234672Y-16392793D02*
X13225148Y-16373746D01*
X13225148Y-16373746D02*
X13225148Y-16364222D01*
X13225148Y-16364222D02*
X13234672Y-16345174D01*
X13234672Y-16345174D02*
X13253719Y-16335650D01*
X13253719Y-16335650D02*
X13282291Y-16335650D01*
X13282291Y-16335650D02*
X13301338Y-16345174D01*
X13377529Y-16545174D02*
X13387053Y-16535650D01*
X13387053Y-16535650D02*
X13406100Y-16507079D01*
X13406100Y-16507079D02*
X13415624Y-16488031D01*
X13415624Y-16488031D02*
X13425148Y-16459460D01*
X13425148Y-16459460D02*
X13434672Y-16411841D01*
X13434672Y-16411841D02*
X13434672Y-16373746D01*
X13434672Y-16373746D02*
X13425148Y-16326127D01*
X13425148Y-16326127D02*
X13415624Y-16297555D01*
X13415624Y-16297555D02*
X13406100Y-16278508D01*
X13406100Y-16278508D02*
X13387053Y-16249936D01*
X13387053Y-16249936D02*
X13377529Y-16240412D01*
D12*
X8221513Y-16641500D02*
G75*
G02*
X8156513Y-16641500I-32500J0D01*
G01*
X8156513Y-16641500D02*
G75*
G02*
X8221513Y-16641500I32500J0D01*
G01*
D11*
X8520385Y-16532984D02*
X8539433Y-16532984D01*
X8539433Y-16532984D02*
X8558481Y-16542508D01*
X8558481Y-16542508D02*
X8568005Y-16552031D01*
X8568005Y-16552031D02*
X8577528Y-16571079D01*
X8577528Y-16571079D02*
X8587052Y-16609174D01*
X8587052Y-16609174D02*
X8587052Y-16656793D01*
X8587052Y-16656793D02*
X8577528Y-16694888D01*
X8577528Y-16694888D02*
X8568005Y-16713936D01*
X8568005Y-16713936D02*
X8558481Y-16723460D01*
X8558481Y-16723460D02*
X8539433Y-16732984D01*
X8539433Y-16732984D02*
X8520385Y-16732984D01*
X8520385Y-16732984D02*
X8501338Y-16723460D01*
X8501338Y-16723460D02*
X8491814Y-16713936D01*
X8491814Y-16713936D02*
X8482290Y-16694888D01*
X8482290Y-16694888D02*
X8472766Y-16656793D01*
X8472766Y-16656793D02*
X8472766Y-16609174D01*
X8472766Y-16609174D02*
X8482290Y-16571079D01*
X8482290Y-16571079D02*
X8491814Y-16552031D01*
X8491814Y-16552031D02*
X8501338Y-16542508D01*
X8501338Y-16542508D02*
X8520385Y-16532984D01*
X8672766Y-16713936D02*
X8682290Y-16723460D01*
X8682290Y-16723460D02*
X8672766Y-16732984D01*
X8672766Y-16732984D02*
X8663243Y-16723460D01*
X8663243Y-16723460D02*
X8672766Y-16713936D01*
X8672766Y-16713936D02*
X8672766Y-16732984D01*
X8853719Y-16532984D02*
X8815624Y-16532984D01*
X8815624Y-16532984D02*
X8796576Y-16542508D01*
X8796576Y-16542508D02*
X8787052Y-16552031D01*
X8787052Y-16552031D02*
X8768005Y-16580603D01*
X8768005Y-16580603D02*
X8758481Y-16618698D01*
X8758481Y-16618698D02*
X8758481Y-16694888D01*
X8758481Y-16694888D02*
X8768005Y-16713936D01*
X8768005Y-16713936D02*
X8777528Y-16723460D01*
X8777528Y-16723460D02*
X8796576Y-16732984D01*
X8796576Y-16732984D02*
X8834671Y-16732984D01*
X8834671Y-16732984D02*
X8853719Y-16723460D01*
X8853719Y-16723460D02*
X8863243Y-16713936D01*
X8863243Y-16713936D02*
X8872766Y-16694888D01*
X8872766Y-16694888D02*
X8872766Y-16647269D01*
X8872766Y-16647269D02*
X8863243Y-16628222D01*
X8863243Y-16628222D02*
X8853719Y-16618698D01*
X8853719Y-16618698D02*
X8834671Y-16609174D01*
X8834671Y-16609174D02*
X8796576Y-16609174D01*
X8796576Y-16609174D02*
X8777528Y-16618698D01*
X8777528Y-16618698D02*
X8768005Y-16628222D01*
X8768005Y-16628222D02*
X8758481Y-16647269D01*
X9053719Y-16532984D02*
X8958481Y-16532984D01*
X8958481Y-16532984D02*
X8948957Y-16628222D01*
X8948957Y-16628222D02*
X8958481Y-16618698D01*
X8958481Y-16618698D02*
X8977528Y-16609174D01*
X8977528Y-16609174D02*
X9025147Y-16609174D01*
X9025147Y-16609174D02*
X9044195Y-16618698D01*
X9044195Y-16618698D02*
X9053719Y-16628222D01*
X9053719Y-16628222D02*
X9063243Y-16647269D01*
X9063243Y-16647269D02*
X9063243Y-16694888D01*
X9063243Y-16694888D02*
X9053719Y-16713936D01*
X9053719Y-16713936D02*
X9044195Y-16723460D01*
X9044195Y-16723460D02*
X9025147Y-16732984D01*
X9025147Y-16732984D02*
X8977528Y-16732984D01*
X8977528Y-16732984D02*
X8958481Y-16723460D01*
X8958481Y-16723460D02*
X8948957Y-16713936D01*
X9187052Y-16532984D02*
X9206100Y-16532984D01*
X9206100Y-16532984D02*
X9225147Y-16542508D01*
X9225147Y-16542508D02*
X9234671Y-16552031D01*
X9234671Y-16552031D02*
X9244195Y-16571079D01*
X9244195Y-16571079D02*
X9253719Y-16609174D01*
X9253719Y-16609174D02*
X9253719Y-16656793D01*
X9253719Y-16656793D02*
X9244195Y-16694888D01*
X9244195Y-16694888D02*
X9234671Y-16713936D01*
X9234671Y-16713936D02*
X9225147Y-16723460D01*
X9225147Y-16723460D02*
X9206100Y-16732984D01*
X9206100Y-16732984D02*
X9187052Y-16732984D01*
X9187052Y-16732984D02*
X9168005Y-16723460D01*
X9168005Y-16723460D02*
X9158481Y-16713936D01*
X9158481Y-16713936D02*
X9148957Y-16694888D01*
X9148957Y-16694888D02*
X9139433Y-16656793D01*
X9139433Y-16656793D02*
X9139433Y-16609174D01*
X9139433Y-16609174D02*
X9148957Y-16571079D01*
X9148957Y-16571079D02*
X9158481Y-16552031D01*
X9158481Y-16552031D02*
X9168005Y-16542508D01*
X9168005Y-16542508D02*
X9187052Y-16532984D01*
X9339433Y-16732984D02*
X9339433Y-16599650D01*
X9339433Y-16618698D02*
X9348957Y-16609174D01*
X9348957Y-16609174D02*
X9368005Y-16599650D01*
X9368005Y-16599650D02*
X9396576Y-16599650D01*
X9396576Y-16599650D02*
X9415624Y-16609174D01*
X9415624Y-16609174D02*
X9425147Y-16628222D01*
X9425147Y-16628222D02*
X9425147Y-16732984D01*
X9425147Y-16628222D02*
X9434671Y-16609174D01*
X9434671Y-16609174D02*
X9453719Y-16599650D01*
X9453719Y-16599650D02*
X9482290Y-16599650D01*
X9482290Y-16599650D02*
X9501338Y-16609174D01*
X9501338Y-16609174D02*
X9510862Y-16628222D01*
X9510862Y-16628222D02*
X9510862Y-16732984D01*
X9606100Y-16732984D02*
X9606100Y-16599650D01*
X9606100Y-16618698D02*
X9615624Y-16609174D01*
X9615624Y-16609174D02*
X9634671Y-16599650D01*
X9634671Y-16599650D02*
X9663243Y-16599650D01*
X9663243Y-16599650D02*
X9682290Y-16609174D01*
X9682290Y-16609174D02*
X9691814Y-16628222D01*
X9691814Y-16628222D02*
X9691814Y-16732984D01*
X9691814Y-16628222D02*
X9701338Y-16609174D01*
X9701338Y-16609174D02*
X9720386Y-16599650D01*
X9720386Y-16599650D02*
X9748957Y-16599650D01*
X9748957Y-16599650D02*
X9768005Y-16609174D01*
X9768005Y-16609174D02*
X9777528Y-16628222D01*
X9777528Y-16628222D02*
X9777528Y-16732984D01*
X10168005Y-16523460D02*
X9996576Y-16780603D01*
X10425148Y-16532984D02*
X10444195Y-16532984D01*
X10444195Y-16532984D02*
X10463243Y-16542508D01*
X10463243Y-16542508D02*
X10472767Y-16552031D01*
X10472767Y-16552031D02*
X10482290Y-16571079D01*
X10482290Y-16571079D02*
X10491814Y-16609174D01*
X10491814Y-16609174D02*
X10491814Y-16656793D01*
X10491814Y-16656793D02*
X10482290Y-16694888D01*
X10482290Y-16694888D02*
X10472767Y-16713936D01*
X10472767Y-16713936D02*
X10463243Y-16723460D01*
X10463243Y-16723460D02*
X10444195Y-16732984D01*
X10444195Y-16732984D02*
X10425148Y-16732984D01*
X10425148Y-16732984D02*
X10406100Y-16723460D01*
X10406100Y-16723460D02*
X10396576Y-16713936D01*
X10396576Y-16713936D02*
X10387052Y-16694888D01*
X10387052Y-16694888D02*
X10377529Y-16656793D01*
X10377529Y-16656793D02*
X10377529Y-16609174D01*
X10377529Y-16609174D02*
X10387052Y-16571079D01*
X10387052Y-16571079D02*
X10396576Y-16552031D01*
X10396576Y-16552031D02*
X10406100Y-16542508D01*
X10406100Y-16542508D02*
X10425148Y-16532984D01*
X10577529Y-16713936D02*
X10587052Y-16723460D01*
X10587052Y-16723460D02*
X10577529Y-16732984D01*
X10577529Y-16732984D02*
X10568005Y-16723460D01*
X10568005Y-16723460D02*
X10577529Y-16713936D01*
X10577529Y-16713936D02*
X10577529Y-16732984D01*
X10710862Y-16532984D02*
X10729910Y-16532984D01*
X10729910Y-16532984D02*
X10748957Y-16542508D01*
X10748957Y-16542508D02*
X10758481Y-16552031D01*
X10758481Y-16552031D02*
X10768005Y-16571079D01*
X10768005Y-16571079D02*
X10777529Y-16609174D01*
X10777529Y-16609174D02*
X10777529Y-16656793D01*
X10777529Y-16656793D02*
X10768005Y-16694888D01*
X10768005Y-16694888D02*
X10758481Y-16713936D01*
X10758481Y-16713936D02*
X10748957Y-16723460D01*
X10748957Y-16723460D02*
X10729910Y-16732984D01*
X10729910Y-16732984D02*
X10710862Y-16732984D01*
X10710862Y-16732984D02*
X10691814Y-16723460D01*
X10691814Y-16723460D02*
X10682290Y-16713936D01*
X10682290Y-16713936D02*
X10672767Y-16694888D01*
X10672767Y-16694888D02*
X10663243Y-16656793D01*
X10663243Y-16656793D02*
X10663243Y-16609174D01*
X10663243Y-16609174D02*
X10672767Y-16571079D01*
X10672767Y-16571079D02*
X10682290Y-16552031D01*
X10682290Y-16552031D02*
X10691814Y-16542508D01*
X10691814Y-16542508D02*
X10710862Y-16532984D01*
X10853719Y-16552031D02*
X10863243Y-16542508D01*
X10863243Y-16542508D02*
X10882290Y-16532984D01*
X10882290Y-16532984D02*
X10929910Y-16532984D01*
X10929910Y-16532984D02*
X10948957Y-16542508D01*
X10948957Y-16542508D02*
X10958481Y-16552031D01*
X10958481Y-16552031D02*
X10968005Y-16571079D01*
X10968005Y-16571079D02*
X10968005Y-16590127D01*
X10968005Y-16590127D02*
X10958481Y-16618698D01*
X10958481Y-16618698D02*
X10844195Y-16732984D01*
X10844195Y-16732984D02*
X10968005Y-16732984D01*
X11148957Y-16532984D02*
X11053719Y-16532984D01*
X11053719Y-16532984D02*
X11044195Y-16628222D01*
X11044195Y-16628222D02*
X11053719Y-16618698D01*
X11053719Y-16618698D02*
X11072767Y-16609174D01*
X11072767Y-16609174D02*
X11120386Y-16609174D01*
X11120386Y-16609174D02*
X11139433Y-16618698D01*
X11139433Y-16618698D02*
X11148957Y-16628222D01*
X11148957Y-16628222D02*
X11158481Y-16647269D01*
X11158481Y-16647269D02*
X11158481Y-16694888D01*
X11158481Y-16694888D02*
X11148957Y-16713936D01*
X11148957Y-16713936D02*
X11139433Y-16723460D01*
X11139433Y-16723460D02*
X11120386Y-16732984D01*
X11120386Y-16732984D02*
X11072767Y-16732984D01*
X11072767Y-16732984D02*
X11053719Y-16723460D01*
X11053719Y-16723460D02*
X11044195Y-16713936D01*
X11329909Y-16532984D02*
X11291814Y-16532984D01*
X11291814Y-16532984D02*
X11272767Y-16542508D01*
X11272767Y-16542508D02*
X11263243Y-16552031D01*
X11263243Y-16552031D02*
X11244195Y-16580603D01*
X11244195Y-16580603D02*
X11234671Y-16618698D01*
X11234671Y-16618698D02*
X11234671Y-16694888D01*
X11234671Y-16694888D02*
X11244195Y-16713936D01*
X11244195Y-16713936D02*
X11253719Y-16723460D01*
X11253719Y-16723460D02*
X11272767Y-16732984D01*
X11272767Y-16732984D02*
X11310862Y-16732984D01*
X11310862Y-16732984D02*
X11329909Y-16723460D01*
X11329909Y-16723460D02*
X11339433Y-16713936D01*
X11339433Y-16713936D02*
X11348957Y-16694888D01*
X11348957Y-16694888D02*
X11348957Y-16647269D01*
X11348957Y-16647269D02*
X11339433Y-16628222D01*
X11339433Y-16628222D02*
X11329909Y-16618698D01*
X11329909Y-16618698D02*
X11310862Y-16609174D01*
X11310862Y-16609174D02*
X11272767Y-16609174D01*
X11272767Y-16609174D02*
X11253719Y-16618698D01*
X11253719Y-16618698D02*
X11244195Y-16628222D01*
X11244195Y-16628222D02*
X11234671Y-16647269D01*
X11425148Y-16532984D02*
X11425148Y-16571079D01*
X11501338Y-16532984D02*
X11501338Y-16571079D01*
X11796576Y-16809174D02*
X11787052Y-16799650D01*
X11787052Y-16799650D02*
X11768005Y-16771079D01*
X11768005Y-16771079D02*
X11758481Y-16752031D01*
X11758481Y-16752031D02*
X11748957Y-16723460D01*
X11748957Y-16723460D02*
X11739433Y-16675841D01*
X11739433Y-16675841D02*
X11739433Y-16637746D01*
X11739433Y-16637746D02*
X11748957Y-16590127D01*
X11748957Y-16590127D02*
X11758481Y-16561555D01*
X11758481Y-16561555D02*
X11768005Y-16542508D01*
X11768005Y-16542508D02*
X11787052Y-16513936D01*
X11787052Y-16513936D02*
X11796576Y-16504412D01*
X11958481Y-16599650D02*
X11958481Y-16732984D01*
X11910862Y-16523460D02*
X11863243Y-16666317D01*
X11863243Y-16666317D02*
X11987052Y-16666317D01*
X12215624Y-16732984D02*
X12215624Y-16532984D01*
X12301338Y-16732984D02*
X12301338Y-16628222D01*
X12301338Y-16628222D02*
X12291814Y-16609174D01*
X12291814Y-16609174D02*
X12272767Y-16599650D01*
X12272767Y-16599650D02*
X12244195Y-16599650D01*
X12244195Y-16599650D02*
X12225148Y-16609174D01*
X12225148Y-16609174D02*
X12215624Y-16618698D01*
X12425148Y-16732984D02*
X12406100Y-16723460D01*
X12406100Y-16723460D02*
X12396576Y-16713936D01*
X12396576Y-16713936D02*
X12387052Y-16694888D01*
X12387052Y-16694888D02*
X12387052Y-16637746D01*
X12387052Y-16637746D02*
X12396576Y-16618698D01*
X12396576Y-16618698D02*
X12406100Y-16609174D01*
X12406100Y-16609174D02*
X12425148Y-16599650D01*
X12425148Y-16599650D02*
X12453719Y-16599650D01*
X12453719Y-16599650D02*
X12472767Y-16609174D01*
X12472767Y-16609174D02*
X12482291Y-16618698D01*
X12482291Y-16618698D02*
X12491814Y-16637746D01*
X12491814Y-16637746D02*
X12491814Y-16694888D01*
X12491814Y-16694888D02*
X12482291Y-16713936D01*
X12482291Y-16713936D02*
X12472767Y-16723460D01*
X12472767Y-16723460D02*
X12453719Y-16732984D01*
X12453719Y-16732984D02*
X12425148Y-16732984D01*
X12606100Y-16732984D02*
X12587052Y-16723460D01*
X12587052Y-16723460D02*
X12577529Y-16704412D01*
X12577529Y-16704412D02*
X12577529Y-16532984D01*
X12758481Y-16723460D02*
X12739433Y-16732984D01*
X12739433Y-16732984D02*
X12701338Y-16732984D01*
X12701338Y-16732984D02*
X12682291Y-16723460D01*
X12682291Y-16723460D02*
X12672767Y-16704412D01*
X12672767Y-16704412D02*
X12672767Y-16628222D01*
X12672767Y-16628222D02*
X12682291Y-16609174D01*
X12682291Y-16609174D02*
X12701338Y-16599650D01*
X12701338Y-16599650D02*
X12739433Y-16599650D01*
X12739433Y-16599650D02*
X12758481Y-16609174D01*
X12758481Y-16609174D02*
X12768005Y-16628222D01*
X12768005Y-16628222D02*
X12768005Y-16647269D01*
X12768005Y-16647269D02*
X12672767Y-16666317D01*
X12844195Y-16723460D02*
X12863243Y-16732984D01*
X12863243Y-16732984D02*
X12901338Y-16732984D01*
X12901338Y-16732984D02*
X12920386Y-16723460D01*
X12920386Y-16723460D02*
X12929910Y-16704412D01*
X12929910Y-16704412D02*
X12929910Y-16694888D01*
X12929910Y-16694888D02*
X12920386Y-16675841D01*
X12920386Y-16675841D02*
X12901338Y-16666317D01*
X12901338Y-16666317D02*
X12872767Y-16666317D01*
X12872767Y-16666317D02*
X12853719Y-16656793D01*
X12853719Y-16656793D02*
X12844195Y-16637746D01*
X12844195Y-16637746D02*
X12844195Y-16628222D01*
X12844195Y-16628222D02*
X12853719Y-16609174D01*
X12853719Y-16609174D02*
X12872767Y-16599650D01*
X12872767Y-16599650D02*
X12901338Y-16599650D01*
X12901338Y-16599650D02*
X12920386Y-16609174D01*
X12996576Y-16809174D02*
X13006100Y-16799650D01*
X13006100Y-16799650D02*
X13025148Y-16771079D01*
X13025148Y-16771079D02*
X13034672Y-16752031D01*
X13034672Y-16752031D02*
X13044195Y-16723460D01*
X13044195Y-16723460D02*
X13053719Y-16675841D01*
X13053719Y-16675841D02*
X13053719Y-16637746D01*
X13053719Y-16637746D02*
X13044195Y-16590127D01*
X13044195Y-16590127D02*
X13034672Y-16561555D01*
X13034672Y-16561555D02*
X13025148Y-16542508D01*
X13025148Y-16542508D02*
X13006100Y-16513936D01*
X13006100Y-16513936D02*
X12996576Y-16504412D01*
D12*
X8171513Y-16855500D02*
X8171513Y-16955500D01*
X8121513Y-16905500D02*
X8221513Y-16905500D01*
D11*
X8587052Y-16996984D02*
X8472766Y-16996984D01*
X8529909Y-16996984D02*
X8529909Y-16796984D01*
X8529909Y-16796984D02*
X8510862Y-16825555D01*
X8510862Y-16825555D02*
X8491814Y-16844603D01*
X8491814Y-16844603D02*
X8472766Y-16854127D01*
X8672766Y-16977936D02*
X8682290Y-16987460D01*
X8682290Y-16987460D02*
X8672766Y-16996984D01*
X8672766Y-16996984D02*
X8663243Y-16987460D01*
X8663243Y-16987460D02*
X8672766Y-16977936D01*
X8672766Y-16977936D02*
X8672766Y-16996984D01*
X8806100Y-16796984D02*
X8825147Y-16796984D01*
X8825147Y-16796984D02*
X8844195Y-16806508D01*
X8844195Y-16806508D02*
X8853719Y-16816031D01*
X8853719Y-16816031D02*
X8863243Y-16835079D01*
X8863243Y-16835079D02*
X8872766Y-16873174D01*
X8872766Y-16873174D02*
X8872766Y-16920793D01*
X8872766Y-16920793D02*
X8863243Y-16958889D01*
X8863243Y-16958889D02*
X8853719Y-16977936D01*
X8853719Y-16977936D02*
X8844195Y-16987460D01*
X8844195Y-16987460D02*
X8825147Y-16996984D01*
X8825147Y-16996984D02*
X8806100Y-16996984D01*
X8806100Y-16996984D02*
X8787052Y-16987460D01*
X8787052Y-16987460D02*
X8777528Y-16977936D01*
X8777528Y-16977936D02*
X8768005Y-16958889D01*
X8768005Y-16958889D02*
X8758481Y-16920793D01*
X8758481Y-16920793D02*
X8758481Y-16873174D01*
X8758481Y-16873174D02*
X8768005Y-16835079D01*
X8768005Y-16835079D02*
X8777528Y-16816031D01*
X8777528Y-16816031D02*
X8787052Y-16806508D01*
X8787052Y-16806508D02*
X8806100Y-16796984D01*
X8996576Y-16796984D02*
X9015624Y-16796984D01*
X9015624Y-16796984D02*
X9034671Y-16806508D01*
X9034671Y-16806508D02*
X9044195Y-16816031D01*
X9044195Y-16816031D02*
X9053719Y-16835079D01*
X9053719Y-16835079D02*
X9063243Y-16873174D01*
X9063243Y-16873174D02*
X9063243Y-16920793D01*
X9063243Y-16920793D02*
X9053719Y-16958889D01*
X9053719Y-16958889D02*
X9044195Y-16977936D01*
X9044195Y-16977936D02*
X9034671Y-16987460D01*
X9034671Y-16987460D02*
X9015624Y-16996984D01*
X9015624Y-16996984D02*
X8996576Y-16996984D01*
X8996576Y-16996984D02*
X8977528Y-16987460D01*
X8977528Y-16987460D02*
X8968005Y-16977936D01*
X8968005Y-16977936D02*
X8958481Y-16958889D01*
X8958481Y-16958889D02*
X8948957Y-16920793D01*
X8948957Y-16920793D02*
X8948957Y-16873174D01*
X8948957Y-16873174D02*
X8958481Y-16835079D01*
X8958481Y-16835079D02*
X8968005Y-16816031D01*
X8968005Y-16816031D02*
X8977528Y-16806508D01*
X8977528Y-16806508D02*
X8996576Y-16796984D01*
X9187052Y-16796984D02*
X9206100Y-16796984D01*
X9206100Y-16796984D02*
X9225147Y-16806508D01*
X9225147Y-16806508D02*
X9234671Y-16816031D01*
X9234671Y-16816031D02*
X9244195Y-16835079D01*
X9244195Y-16835079D02*
X9253719Y-16873174D01*
X9253719Y-16873174D02*
X9253719Y-16920793D01*
X9253719Y-16920793D02*
X9244195Y-16958889D01*
X9244195Y-16958889D02*
X9234671Y-16977936D01*
X9234671Y-16977936D02*
X9225147Y-16987460D01*
X9225147Y-16987460D02*
X9206100Y-16996984D01*
X9206100Y-16996984D02*
X9187052Y-16996984D01*
X9187052Y-16996984D02*
X9168005Y-16987460D01*
X9168005Y-16987460D02*
X9158481Y-16977936D01*
X9158481Y-16977936D02*
X9148957Y-16958889D01*
X9148957Y-16958889D02*
X9139433Y-16920793D01*
X9139433Y-16920793D02*
X9139433Y-16873174D01*
X9139433Y-16873174D02*
X9148957Y-16835079D01*
X9148957Y-16835079D02*
X9158481Y-16816031D01*
X9158481Y-16816031D02*
X9168005Y-16806508D01*
X9168005Y-16806508D02*
X9187052Y-16796984D01*
X9339433Y-16996984D02*
X9339433Y-16863650D01*
X9339433Y-16882698D02*
X9348957Y-16873174D01*
X9348957Y-16873174D02*
X9368005Y-16863650D01*
X9368005Y-16863650D02*
X9396576Y-16863650D01*
X9396576Y-16863650D02*
X9415624Y-16873174D01*
X9415624Y-16873174D02*
X9425147Y-16892222D01*
X9425147Y-16892222D02*
X9425147Y-16996984D01*
X9425147Y-16892222D02*
X9434671Y-16873174D01*
X9434671Y-16873174D02*
X9453719Y-16863650D01*
X9453719Y-16863650D02*
X9482290Y-16863650D01*
X9482290Y-16863650D02*
X9501338Y-16873174D01*
X9501338Y-16873174D02*
X9510862Y-16892222D01*
X9510862Y-16892222D02*
X9510862Y-16996984D01*
X9606100Y-16996984D02*
X9606100Y-16863650D01*
X9606100Y-16882698D02*
X9615624Y-16873174D01*
X9615624Y-16873174D02*
X9634671Y-16863650D01*
X9634671Y-16863650D02*
X9663243Y-16863650D01*
X9663243Y-16863650D02*
X9682290Y-16873174D01*
X9682290Y-16873174D02*
X9691814Y-16892222D01*
X9691814Y-16892222D02*
X9691814Y-16996984D01*
X9691814Y-16892222D02*
X9701338Y-16873174D01*
X9701338Y-16873174D02*
X9720386Y-16863650D01*
X9720386Y-16863650D02*
X9748957Y-16863650D01*
X9748957Y-16863650D02*
X9768005Y-16873174D01*
X9768005Y-16873174D02*
X9777528Y-16892222D01*
X9777528Y-16892222D02*
X9777528Y-16996984D01*
X10168005Y-16787460D02*
X9996576Y-17044603D01*
X10425148Y-16796984D02*
X10444195Y-16796984D01*
X10444195Y-16796984D02*
X10463243Y-16806508D01*
X10463243Y-16806508D02*
X10472767Y-16816031D01*
X10472767Y-16816031D02*
X10482290Y-16835079D01*
X10482290Y-16835079D02*
X10491814Y-16873174D01*
X10491814Y-16873174D02*
X10491814Y-16920793D01*
X10491814Y-16920793D02*
X10482290Y-16958889D01*
X10482290Y-16958889D02*
X10472767Y-16977936D01*
X10472767Y-16977936D02*
X10463243Y-16987460D01*
X10463243Y-16987460D02*
X10444195Y-16996984D01*
X10444195Y-16996984D02*
X10425148Y-16996984D01*
X10425148Y-16996984D02*
X10406100Y-16987460D01*
X10406100Y-16987460D02*
X10396576Y-16977936D01*
X10396576Y-16977936D02*
X10387052Y-16958889D01*
X10387052Y-16958889D02*
X10377529Y-16920793D01*
X10377529Y-16920793D02*
X10377529Y-16873174D01*
X10377529Y-16873174D02*
X10387052Y-16835079D01*
X10387052Y-16835079D02*
X10396576Y-16816031D01*
X10396576Y-16816031D02*
X10406100Y-16806508D01*
X10406100Y-16806508D02*
X10425148Y-16796984D01*
X10577529Y-16977936D02*
X10587052Y-16987460D01*
X10587052Y-16987460D02*
X10577529Y-16996984D01*
X10577529Y-16996984D02*
X10568005Y-16987460D01*
X10568005Y-16987460D02*
X10577529Y-16977936D01*
X10577529Y-16977936D02*
X10577529Y-16996984D01*
X10710862Y-16796984D02*
X10729910Y-16796984D01*
X10729910Y-16796984D02*
X10748957Y-16806508D01*
X10748957Y-16806508D02*
X10758481Y-16816031D01*
X10758481Y-16816031D02*
X10768005Y-16835079D01*
X10768005Y-16835079D02*
X10777529Y-16873174D01*
X10777529Y-16873174D02*
X10777529Y-16920793D01*
X10777529Y-16920793D02*
X10768005Y-16958889D01*
X10768005Y-16958889D02*
X10758481Y-16977936D01*
X10758481Y-16977936D02*
X10748957Y-16987460D01*
X10748957Y-16987460D02*
X10729910Y-16996984D01*
X10729910Y-16996984D02*
X10710862Y-16996984D01*
X10710862Y-16996984D02*
X10691814Y-16987460D01*
X10691814Y-16987460D02*
X10682290Y-16977936D01*
X10682290Y-16977936D02*
X10672767Y-16958889D01*
X10672767Y-16958889D02*
X10663243Y-16920793D01*
X10663243Y-16920793D02*
X10663243Y-16873174D01*
X10663243Y-16873174D02*
X10672767Y-16835079D01*
X10672767Y-16835079D02*
X10682290Y-16816031D01*
X10682290Y-16816031D02*
X10691814Y-16806508D01*
X10691814Y-16806508D02*
X10710862Y-16796984D01*
X10844195Y-16796984D02*
X10968005Y-16796984D01*
X10968005Y-16796984D02*
X10901338Y-16873174D01*
X10901338Y-16873174D02*
X10929910Y-16873174D01*
X10929910Y-16873174D02*
X10948957Y-16882698D01*
X10948957Y-16882698D02*
X10958481Y-16892222D01*
X10958481Y-16892222D02*
X10968005Y-16911270D01*
X10968005Y-16911270D02*
X10968005Y-16958889D01*
X10968005Y-16958889D02*
X10958481Y-16977936D01*
X10958481Y-16977936D02*
X10948957Y-16987460D01*
X10948957Y-16987460D02*
X10929910Y-16996984D01*
X10929910Y-16996984D02*
X10872767Y-16996984D01*
X10872767Y-16996984D02*
X10853719Y-16987460D01*
X10853719Y-16987460D02*
X10844195Y-16977936D01*
X11063243Y-16996984D02*
X11101338Y-16996984D01*
X11101338Y-16996984D02*
X11120386Y-16987460D01*
X11120386Y-16987460D02*
X11129910Y-16977936D01*
X11129910Y-16977936D02*
X11148957Y-16949365D01*
X11148957Y-16949365D02*
X11158481Y-16911270D01*
X11158481Y-16911270D02*
X11158481Y-16835079D01*
X11158481Y-16835079D02*
X11148957Y-16816031D01*
X11148957Y-16816031D02*
X11139433Y-16806508D01*
X11139433Y-16806508D02*
X11120386Y-16796984D01*
X11120386Y-16796984D02*
X11082290Y-16796984D01*
X11082290Y-16796984D02*
X11063243Y-16806508D01*
X11063243Y-16806508D02*
X11053719Y-16816031D01*
X11053719Y-16816031D02*
X11044195Y-16835079D01*
X11044195Y-16835079D02*
X11044195Y-16882698D01*
X11044195Y-16882698D02*
X11053719Y-16901746D01*
X11053719Y-16901746D02*
X11063243Y-16911270D01*
X11063243Y-16911270D02*
X11082290Y-16920793D01*
X11082290Y-16920793D02*
X11120386Y-16920793D01*
X11120386Y-16920793D02*
X11139433Y-16911270D01*
X11139433Y-16911270D02*
X11148957Y-16901746D01*
X11148957Y-16901746D02*
X11158481Y-16882698D01*
X11329909Y-16863650D02*
X11329909Y-16996984D01*
X11282290Y-16787460D02*
X11234671Y-16930317D01*
X11234671Y-16930317D02*
X11358481Y-16930317D01*
X11425148Y-16796984D02*
X11425148Y-16835079D01*
X11501338Y-16796984D02*
X11501338Y-16835079D01*
X11796576Y-17073174D02*
X11787052Y-17063650D01*
X11787052Y-17063650D02*
X11768005Y-17035079D01*
X11768005Y-17035079D02*
X11758481Y-17016031D01*
X11758481Y-17016031D02*
X11748957Y-16987460D01*
X11748957Y-16987460D02*
X11739433Y-16939841D01*
X11739433Y-16939841D02*
X11739433Y-16901746D01*
X11739433Y-16901746D02*
X11748957Y-16854127D01*
X11748957Y-16854127D02*
X11758481Y-16825555D01*
X11758481Y-16825555D02*
X11768005Y-16806508D01*
X11768005Y-16806508D02*
X11787052Y-16777936D01*
X11787052Y-16777936D02*
X11796576Y-16768412D01*
X11863243Y-16816031D02*
X11872767Y-16806508D01*
X11872767Y-16806508D02*
X11891814Y-16796984D01*
X11891814Y-16796984D02*
X11939433Y-16796984D01*
X11939433Y-16796984D02*
X11958481Y-16806508D01*
X11958481Y-16806508D02*
X11968005Y-16816031D01*
X11968005Y-16816031D02*
X11977529Y-16835079D01*
X11977529Y-16835079D02*
X11977529Y-16854127D01*
X11977529Y-16854127D02*
X11968005Y-16882698D01*
X11968005Y-16882698D02*
X11853719Y-16996984D01*
X11853719Y-16996984D02*
X11977529Y-16996984D01*
X12091814Y-16882698D02*
X12072767Y-16873174D01*
X12072767Y-16873174D02*
X12063243Y-16863650D01*
X12063243Y-16863650D02*
X12053719Y-16844603D01*
X12053719Y-16844603D02*
X12053719Y-16835079D01*
X12053719Y-16835079D02*
X12063243Y-16816031D01*
X12063243Y-16816031D02*
X12072767Y-16806508D01*
X12072767Y-16806508D02*
X12091814Y-16796984D01*
X12091814Y-16796984D02*
X12129910Y-16796984D01*
X12129910Y-16796984D02*
X12148957Y-16806508D01*
X12148957Y-16806508D02*
X12158481Y-16816031D01*
X12158481Y-16816031D02*
X12168005Y-16835079D01*
X12168005Y-16835079D02*
X12168005Y-16844603D01*
X12168005Y-16844603D02*
X12158481Y-16863650D01*
X12158481Y-16863650D02*
X12148957Y-16873174D01*
X12148957Y-16873174D02*
X12129910Y-16882698D01*
X12129910Y-16882698D02*
X12091814Y-16882698D01*
X12091814Y-16882698D02*
X12072767Y-16892222D01*
X12072767Y-16892222D02*
X12063243Y-16901746D01*
X12063243Y-16901746D02*
X12053719Y-16920793D01*
X12053719Y-16920793D02*
X12053719Y-16958889D01*
X12053719Y-16958889D02*
X12063243Y-16977936D01*
X12063243Y-16977936D02*
X12072767Y-16987460D01*
X12072767Y-16987460D02*
X12091814Y-16996984D01*
X12091814Y-16996984D02*
X12129910Y-16996984D01*
X12129910Y-16996984D02*
X12148957Y-16987460D01*
X12148957Y-16987460D02*
X12158481Y-16977936D01*
X12158481Y-16977936D02*
X12168005Y-16958889D01*
X12168005Y-16958889D02*
X12168005Y-16920793D01*
X12168005Y-16920793D02*
X12158481Y-16901746D01*
X12158481Y-16901746D02*
X12148957Y-16892222D01*
X12148957Y-16892222D02*
X12129910Y-16882698D01*
X12406100Y-16996984D02*
X12406100Y-16796984D01*
X12491814Y-16996984D02*
X12491814Y-16892222D01*
X12491814Y-16892222D02*
X12482291Y-16873174D01*
X12482291Y-16873174D02*
X12463243Y-16863650D01*
X12463243Y-16863650D02*
X12434671Y-16863650D01*
X12434671Y-16863650D02*
X12415624Y-16873174D01*
X12415624Y-16873174D02*
X12406100Y-16882698D01*
X12615624Y-16996984D02*
X12596576Y-16987460D01*
X12596576Y-16987460D02*
X12587052Y-16977936D01*
X12587052Y-16977936D02*
X12577529Y-16958889D01*
X12577529Y-16958889D02*
X12577529Y-16901746D01*
X12577529Y-16901746D02*
X12587052Y-16882698D01*
X12587052Y-16882698D02*
X12596576Y-16873174D01*
X12596576Y-16873174D02*
X12615624Y-16863650D01*
X12615624Y-16863650D02*
X12644195Y-16863650D01*
X12644195Y-16863650D02*
X12663243Y-16873174D01*
X12663243Y-16873174D02*
X12672767Y-16882698D01*
X12672767Y-16882698D02*
X12682291Y-16901746D01*
X12682291Y-16901746D02*
X12682291Y-16958889D01*
X12682291Y-16958889D02*
X12672767Y-16977936D01*
X12672767Y-16977936D02*
X12663243Y-16987460D01*
X12663243Y-16987460D02*
X12644195Y-16996984D01*
X12644195Y-16996984D02*
X12615624Y-16996984D01*
X12796576Y-16996984D02*
X12777529Y-16987460D01*
X12777529Y-16987460D02*
X12768005Y-16968412D01*
X12768005Y-16968412D02*
X12768005Y-16796984D01*
X12948957Y-16987460D02*
X12929910Y-16996984D01*
X12929910Y-16996984D02*
X12891814Y-16996984D01*
X12891814Y-16996984D02*
X12872767Y-16987460D01*
X12872767Y-16987460D02*
X12863243Y-16968412D01*
X12863243Y-16968412D02*
X12863243Y-16892222D01*
X12863243Y-16892222D02*
X12872767Y-16873174D01*
X12872767Y-16873174D02*
X12891814Y-16863650D01*
X12891814Y-16863650D02*
X12929910Y-16863650D01*
X12929910Y-16863650D02*
X12948957Y-16873174D01*
X12948957Y-16873174D02*
X12958481Y-16892222D01*
X12958481Y-16892222D02*
X12958481Y-16911270D01*
X12958481Y-16911270D02*
X12863243Y-16930317D01*
X13034672Y-16987460D02*
X13053719Y-16996984D01*
X13053719Y-16996984D02*
X13091814Y-16996984D01*
X13091814Y-16996984D02*
X13110862Y-16987460D01*
X13110862Y-16987460D02*
X13120386Y-16968412D01*
X13120386Y-16968412D02*
X13120386Y-16958889D01*
X13120386Y-16958889D02*
X13110862Y-16939841D01*
X13110862Y-16939841D02*
X13091814Y-16930317D01*
X13091814Y-16930317D02*
X13063243Y-16930317D01*
X13063243Y-16930317D02*
X13044195Y-16920793D01*
X13044195Y-16920793D02*
X13034672Y-16901746D01*
X13034672Y-16901746D02*
X13034672Y-16892222D01*
X13034672Y-16892222D02*
X13044195Y-16873174D01*
X13044195Y-16873174D02*
X13063243Y-16863650D01*
X13063243Y-16863650D02*
X13091814Y-16863650D01*
X13091814Y-16863650D02*
X13110862Y-16873174D01*
X13187053Y-17073174D02*
X13196576Y-17063650D01*
X13196576Y-17063650D02*
X13215624Y-17035079D01*
X13215624Y-17035079D02*
X13225148Y-17016031D01*
X13225148Y-17016031D02*
X13234672Y-16987460D01*
X13234672Y-16987460D02*
X13244195Y-16939841D01*
X13244195Y-16939841D02*
X13244195Y-16901746D01*
X13244195Y-16901746D02*
X13234672Y-16854127D01*
X13234672Y-16854127D02*
X13225148Y-16825555D01*
X13225148Y-16825555D02*
X13215624Y-16806508D01*
X13215624Y-16806508D02*
X13196576Y-16777936D01*
X13196576Y-16777936D02*
X13187053Y-16768412D01*
D13*
X8204965Y-17209452D02*
X8204965Y-17129548D01*
X8125061Y-17129548D01*
X8125061Y-17209452D01*
X8204965Y-17209452D01*
D11*
X8587052Y-17260984D02*
X8472766Y-17260984D01*
X8529909Y-17260984D02*
X8529909Y-17060984D01*
X8529909Y-17060984D02*
X8510862Y-17089555D01*
X8510862Y-17089555D02*
X8491814Y-17108603D01*
X8491814Y-17108603D02*
X8472766Y-17118127D01*
X8672766Y-17241936D02*
X8682290Y-17251460D01*
X8682290Y-17251460D02*
X8672766Y-17260984D01*
X8672766Y-17260984D02*
X8663243Y-17251460D01*
X8663243Y-17251460D02*
X8672766Y-17241936D01*
X8672766Y-17241936D02*
X8672766Y-17260984D01*
X8872766Y-17260984D02*
X8758481Y-17260984D01*
X8815624Y-17260984D02*
X8815624Y-17060984D01*
X8815624Y-17060984D02*
X8796576Y-17089555D01*
X8796576Y-17089555D02*
X8777528Y-17108603D01*
X8777528Y-17108603D02*
X8758481Y-17118127D01*
X8939433Y-17060984D02*
X9063243Y-17060984D01*
X9063243Y-17060984D02*
X8996576Y-17137174D01*
X8996576Y-17137174D02*
X9025147Y-17137174D01*
X9025147Y-17137174D02*
X9044195Y-17146698D01*
X9044195Y-17146698D02*
X9053719Y-17156222D01*
X9053719Y-17156222D02*
X9063243Y-17175270D01*
X9063243Y-17175270D02*
X9063243Y-17222889D01*
X9063243Y-17222889D02*
X9053719Y-17241936D01*
X9053719Y-17241936D02*
X9044195Y-17251460D01*
X9044195Y-17251460D02*
X9025147Y-17260984D01*
X9025147Y-17260984D02*
X8968005Y-17260984D01*
X8968005Y-17260984D02*
X8948957Y-17251460D01*
X8948957Y-17251460D02*
X8939433Y-17241936D01*
X9187052Y-17060984D02*
X9206100Y-17060984D01*
X9206100Y-17060984D02*
X9225147Y-17070508D01*
X9225147Y-17070508D02*
X9234671Y-17080031D01*
X9234671Y-17080031D02*
X9244195Y-17099079D01*
X9244195Y-17099079D02*
X9253719Y-17137174D01*
X9253719Y-17137174D02*
X9253719Y-17184793D01*
X9253719Y-17184793D02*
X9244195Y-17222889D01*
X9244195Y-17222889D02*
X9234671Y-17241936D01*
X9234671Y-17241936D02*
X9225147Y-17251460D01*
X9225147Y-17251460D02*
X9206100Y-17260984D01*
X9206100Y-17260984D02*
X9187052Y-17260984D01*
X9187052Y-17260984D02*
X9168005Y-17251460D01*
X9168005Y-17251460D02*
X9158481Y-17241936D01*
X9158481Y-17241936D02*
X9148957Y-17222889D01*
X9148957Y-17222889D02*
X9139433Y-17184793D01*
X9139433Y-17184793D02*
X9139433Y-17137174D01*
X9139433Y-17137174D02*
X9148957Y-17099079D01*
X9148957Y-17099079D02*
X9158481Y-17080031D01*
X9158481Y-17080031D02*
X9168005Y-17070508D01*
X9168005Y-17070508D02*
X9187052Y-17060984D01*
X9339433Y-17260984D02*
X9339433Y-17127650D01*
X9339433Y-17146698D02*
X9348957Y-17137174D01*
X9348957Y-17137174D02*
X9368005Y-17127650D01*
X9368005Y-17127650D02*
X9396576Y-17127650D01*
X9396576Y-17127650D02*
X9415624Y-17137174D01*
X9415624Y-17137174D02*
X9425147Y-17156222D01*
X9425147Y-17156222D02*
X9425147Y-17260984D01*
X9425147Y-17156222D02*
X9434671Y-17137174D01*
X9434671Y-17137174D02*
X9453719Y-17127650D01*
X9453719Y-17127650D02*
X9482290Y-17127650D01*
X9482290Y-17127650D02*
X9501338Y-17137174D01*
X9501338Y-17137174D02*
X9510862Y-17156222D01*
X9510862Y-17156222D02*
X9510862Y-17260984D01*
X9606100Y-17260984D02*
X9606100Y-17127650D01*
X9606100Y-17146698D02*
X9615624Y-17137174D01*
X9615624Y-17137174D02*
X9634671Y-17127650D01*
X9634671Y-17127650D02*
X9663243Y-17127650D01*
X9663243Y-17127650D02*
X9682290Y-17137174D01*
X9682290Y-17137174D02*
X9691814Y-17156222D01*
X9691814Y-17156222D02*
X9691814Y-17260984D01*
X9691814Y-17156222D02*
X9701338Y-17137174D01*
X9701338Y-17137174D02*
X9720386Y-17127650D01*
X9720386Y-17127650D02*
X9748957Y-17127650D01*
X9748957Y-17127650D02*
X9768005Y-17137174D01*
X9768005Y-17137174D02*
X9777528Y-17156222D01*
X9777528Y-17156222D02*
X9777528Y-17260984D01*
X10168005Y-17051460D02*
X9996576Y-17308603D01*
X10425148Y-17060984D02*
X10444195Y-17060984D01*
X10444195Y-17060984D02*
X10463243Y-17070508D01*
X10463243Y-17070508D02*
X10472767Y-17080031D01*
X10472767Y-17080031D02*
X10482290Y-17099079D01*
X10482290Y-17099079D02*
X10491814Y-17137174D01*
X10491814Y-17137174D02*
X10491814Y-17184793D01*
X10491814Y-17184793D02*
X10482290Y-17222889D01*
X10482290Y-17222889D02*
X10472767Y-17241936D01*
X10472767Y-17241936D02*
X10463243Y-17251460D01*
X10463243Y-17251460D02*
X10444195Y-17260984D01*
X10444195Y-17260984D02*
X10425148Y-17260984D01*
X10425148Y-17260984D02*
X10406100Y-17251460D01*
X10406100Y-17251460D02*
X10396576Y-17241936D01*
X10396576Y-17241936D02*
X10387052Y-17222889D01*
X10387052Y-17222889D02*
X10377529Y-17184793D01*
X10377529Y-17184793D02*
X10377529Y-17137174D01*
X10377529Y-17137174D02*
X10387052Y-17099079D01*
X10387052Y-17099079D02*
X10396576Y-17080031D01*
X10396576Y-17080031D02*
X10406100Y-17070508D01*
X10406100Y-17070508D02*
X10425148Y-17060984D01*
X10577529Y-17241936D02*
X10587052Y-17251460D01*
X10587052Y-17251460D02*
X10577529Y-17260984D01*
X10577529Y-17260984D02*
X10568005Y-17251460D01*
X10568005Y-17251460D02*
X10577529Y-17241936D01*
X10577529Y-17241936D02*
X10577529Y-17260984D01*
X10710862Y-17060984D02*
X10729910Y-17060984D01*
X10729910Y-17060984D02*
X10748957Y-17070508D01*
X10748957Y-17070508D02*
X10758481Y-17080031D01*
X10758481Y-17080031D02*
X10768005Y-17099079D01*
X10768005Y-17099079D02*
X10777529Y-17137174D01*
X10777529Y-17137174D02*
X10777529Y-17184793D01*
X10777529Y-17184793D02*
X10768005Y-17222889D01*
X10768005Y-17222889D02*
X10758481Y-17241936D01*
X10758481Y-17241936D02*
X10748957Y-17251460D01*
X10748957Y-17251460D02*
X10729910Y-17260984D01*
X10729910Y-17260984D02*
X10710862Y-17260984D01*
X10710862Y-17260984D02*
X10691814Y-17251460D01*
X10691814Y-17251460D02*
X10682290Y-17241936D01*
X10682290Y-17241936D02*
X10672767Y-17222889D01*
X10672767Y-17222889D02*
X10663243Y-17184793D01*
X10663243Y-17184793D02*
X10663243Y-17137174D01*
X10663243Y-17137174D02*
X10672767Y-17099079D01*
X10672767Y-17099079D02*
X10682290Y-17080031D01*
X10682290Y-17080031D02*
X10691814Y-17070508D01*
X10691814Y-17070508D02*
X10710862Y-17060984D01*
X10948957Y-17127650D02*
X10948957Y-17260984D01*
X10901338Y-17051460D02*
X10853719Y-17194317D01*
X10853719Y-17194317D02*
X10977529Y-17194317D01*
X11139433Y-17127650D02*
X11139433Y-17260984D01*
X11091814Y-17051460D02*
X11044195Y-17194317D01*
X11044195Y-17194317D02*
X11168005Y-17194317D01*
X11339433Y-17060984D02*
X11244195Y-17060984D01*
X11244195Y-17060984D02*
X11234671Y-17156222D01*
X11234671Y-17156222D02*
X11244195Y-17146698D01*
X11244195Y-17146698D02*
X11263243Y-17137174D01*
X11263243Y-17137174D02*
X11310862Y-17137174D01*
X11310862Y-17137174D02*
X11329909Y-17146698D01*
X11329909Y-17146698D02*
X11339433Y-17156222D01*
X11339433Y-17156222D02*
X11348957Y-17175270D01*
X11348957Y-17175270D02*
X11348957Y-17222889D01*
X11348957Y-17222889D02*
X11339433Y-17241936D01*
X11339433Y-17241936D02*
X11329909Y-17251460D01*
X11329909Y-17251460D02*
X11310862Y-17260984D01*
X11310862Y-17260984D02*
X11263243Y-17260984D01*
X11263243Y-17260984D02*
X11244195Y-17251460D01*
X11244195Y-17251460D02*
X11234671Y-17241936D01*
X11425148Y-17060984D02*
X11425148Y-17099079D01*
X11501338Y-17060984D02*
X11501338Y-17099079D01*
X11796576Y-17337174D02*
X11787052Y-17327650D01*
X11787052Y-17327650D02*
X11768005Y-17299079D01*
X11768005Y-17299079D02*
X11758481Y-17280031D01*
X11758481Y-17280031D02*
X11748957Y-17251460D01*
X11748957Y-17251460D02*
X11739433Y-17203841D01*
X11739433Y-17203841D02*
X11739433Y-17165746D01*
X11739433Y-17165746D02*
X11748957Y-17118127D01*
X11748957Y-17118127D02*
X11758481Y-17089555D01*
X11758481Y-17089555D02*
X11768005Y-17070508D01*
X11768005Y-17070508D02*
X11787052Y-17041936D01*
X11787052Y-17041936D02*
X11796576Y-17032412D01*
X11977529Y-17260984D02*
X11863243Y-17260984D01*
X11920386Y-17260984D02*
X11920386Y-17060984D01*
X11920386Y-17060984D02*
X11901338Y-17089555D01*
X11901338Y-17089555D02*
X11882290Y-17108603D01*
X11882290Y-17108603D02*
X11863243Y-17118127D01*
X12158481Y-17060984D02*
X12063243Y-17060984D01*
X12063243Y-17060984D02*
X12053719Y-17156222D01*
X12053719Y-17156222D02*
X12063243Y-17146698D01*
X12063243Y-17146698D02*
X12082290Y-17137174D01*
X12082290Y-17137174D02*
X12129910Y-17137174D01*
X12129910Y-17137174D02*
X12148957Y-17146698D01*
X12148957Y-17146698D02*
X12158481Y-17156222D01*
X12158481Y-17156222D02*
X12168005Y-17175270D01*
X12168005Y-17175270D02*
X12168005Y-17222889D01*
X12168005Y-17222889D02*
X12158481Y-17241936D01*
X12158481Y-17241936D02*
X12148957Y-17251460D01*
X12148957Y-17251460D02*
X12129910Y-17260984D01*
X12129910Y-17260984D02*
X12082290Y-17260984D01*
X12082290Y-17260984D02*
X12063243Y-17251460D01*
X12063243Y-17251460D02*
X12053719Y-17241936D01*
X12406100Y-17260984D02*
X12406100Y-17060984D01*
X12491814Y-17260984D02*
X12491814Y-17156222D01*
X12491814Y-17156222D02*
X12482291Y-17137174D01*
X12482291Y-17137174D02*
X12463243Y-17127650D01*
X12463243Y-17127650D02*
X12434671Y-17127650D01*
X12434671Y-17127650D02*
X12415624Y-17137174D01*
X12415624Y-17137174D02*
X12406100Y-17146698D01*
X12615624Y-17260984D02*
X12596576Y-17251460D01*
X12596576Y-17251460D02*
X12587052Y-17241936D01*
X12587052Y-17241936D02*
X12577529Y-17222889D01*
X12577529Y-17222889D02*
X12577529Y-17165746D01*
X12577529Y-17165746D02*
X12587052Y-17146698D01*
X12587052Y-17146698D02*
X12596576Y-17137174D01*
X12596576Y-17137174D02*
X12615624Y-17127650D01*
X12615624Y-17127650D02*
X12644195Y-17127650D01*
X12644195Y-17127650D02*
X12663243Y-17137174D01*
X12663243Y-17137174D02*
X12672767Y-17146698D01*
X12672767Y-17146698D02*
X12682291Y-17165746D01*
X12682291Y-17165746D02*
X12682291Y-17222889D01*
X12682291Y-17222889D02*
X12672767Y-17241936D01*
X12672767Y-17241936D02*
X12663243Y-17251460D01*
X12663243Y-17251460D02*
X12644195Y-17260984D01*
X12644195Y-17260984D02*
X12615624Y-17260984D01*
X12796576Y-17260984D02*
X12777529Y-17251460D01*
X12777529Y-17251460D02*
X12768005Y-17232412D01*
X12768005Y-17232412D02*
X12768005Y-17060984D01*
X12948957Y-17251460D02*
X12929910Y-17260984D01*
X12929910Y-17260984D02*
X12891814Y-17260984D01*
X12891814Y-17260984D02*
X12872767Y-17251460D01*
X12872767Y-17251460D02*
X12863243Y-17232412D01*
X12863243Y-17232412D02*
X12863243Y-17156222D01*
X12863243Y-17156222D02*
X12872767Y-17137174D01*
X12872767Y-17137174D02*
X12891814Y-17127650D01*
X12891814Y-17127650D02*
X12929910Y-17127650D01*
X12929910Y-17127650D02*
X12948957Y-17137174D01*
X12948957Y-17137174D02*
X12958481Y-17156222D01*
X12958481Y-17156222D02*
X12958481Y-17175270D01*
X12958481Y-17175270D02*
X12863243Y-17194317D01*
X13034672Y-17251460D02*
X13053719Y-17260984D01*
X13053719Y-17260984D02*
X13091814Y-17260984D01*
X13091814Y-17260984D02*
X13110862Y-17251460D01*
X13110862Y-17251460D02*
X13120386Y-17232412D01*
X13120386Y-17232412D02*
X13120386Y-17222889D01*
X13120386Y-17222889D02*
X13110862Y-17203841D01*
X13110862Y-17203841D02*
X13091814Y-17194317D01*
X13091814Y-17194317D02*
X13063243Y-17194317D01*
X13063243Y-17194317D02*
X13044195Y-17184793D01*
X13044195Y-17184793D02*
X13034672Y-17165746D01*
X13034672Y-17165746D02*
X13034672Y-17156222D01*
X13034672Y-17156222D02*
X13044195Y-17137174D01*
X13044195Y-17137174D02*
X13063243Y-17127650D01*
X13063243Y-17127650D02*
X13091814Y-17127650D01*
X13091814Y-17127650D02*
X13110862Y-17137174D01*
X13187053Y-17337174D02*
X13196576Y-17327650D01*
X13196576Y-17327650D02*
X13215624Y-17299079D01*
X13215624Y-17299079D02*
X13225148Y-17280031D01*
X13225148Y-17280031D02*
X13234672Y-17251460D01*
X13234672Y-17251460D02*
X13244195Y-17203841D01*
X13244195Y-17203841D02*
X13244195Y-17165746D01*
X13244195Y-17165746D02*
X13234672Y-17118127D01*
X13234672Y-17118127D02*
X13225148Y-17089555D01*
X13225148Y-17089555D02*
X13215624Y-17070508D01*
X13215624Y-17070508D02*
X13196576Y-17041936D01*
X13196576Y-17041936D02*
X13187053Y-17032412D01*
X8121513Y-17533500D02*
X8221513Y-17433500D01*
X8121513Y-17333500D01*
X8021513Y-17433500D01*
X8121513Y-17533500D01*
X8463243Y-17324984D02*
X8587052Y-17324984D01*
X8587052Y-17324984D02*
X8520385Y-17401174D01*
X8520385Y-17401174D02*
X8548957Y-17401174D01*
X8548957Y-17401174D02*
X8568005Y-17410698D01*
X8568005Y-17410698D02*
X8577528Y-17420222D01*
X8577528Y-17420222D02*
X8587052Y-17439270D01*
X8587052Y-17439270D02*
X8587052Y-17486889D01*
X8587052Y-17486889D02*
X8577528Y-17505936D01*
X8577528Y-17505936D02*
X8568005Y-17515460D01*
X8568005Y-17515460D02*
X8548957Y-17524984D01*
X8548957Y-17524984D02*
X8491814Y-17524984D01*
X8491814Y-17524984D02*
X8472766Y-17515460D01*
X8472766Y-17515460D02*
X8463243Y-17505936D01*
X8672766Y-17505936D02*
X8682290Y-17515460D01*
X8682290Y-17515460D02*
X8672766Y-17524984D01*
X8672766Y-17524984D02*
X8663243Y-17515460D01*
X8663243Y-17515460D02*
X8672766Y-17505936D01*
X8672766Y-17505936D02*
X8672766Y-17524984D01*
X8758481Y-17344031D02*
X8768005Y-17334508D01*
X8768005Y-17334508D02*
X8787052Y-17324984D01*
X8787052Y-17324984D02*
X8834671Y-17324984D01*
X8834671Y-17324984D02*
X8853719Y-17334508D01*
X8853719Y-17334508D02*
X8863243Y-17344031D01*
X8863243Y-17344031D02*
X8872766Y-17363079D01*
X8872766Y-17363079D02*
X8872766Y-17382127D01*
X8872766Y-17382127D02*
X8863243Y-17410698D01*
X8863243Y-17410698D02*
X8748957Y-17524984D01*
X8748957Y-17524984D02*
X8872766Y-17524984D01*
X8939433Y-17324984D02*
X9063243Y-17324984D01*
X9063243Y-17324984D02*
X8996576Y-17401174D01*
X8996576Y-17401174D02*
X9025147Y-17401174D01*
X9025147Y-17401174D02*
X9044195Y-17410698D01*
X9044195Y-17410698D02*
X9053719Y-17420222D01*
X9053719Y-17420222D02*
X9063243Y-17439270D01*
X9063243Y-17439270D02*
X9063243Y-17486889D01*
X9063243Y-17486889D02*
X9053719Y-17505936D01*
X9053719Y-17505936D02*
X9044195Y-17515460D01*
X9044195Y-17515460D02*
X9025147Y-17524984D01*
X9025147Y-17524984D02*
X8968005Y-17524984D01*
X8968005Y-17524984D02*
X8948957Y-17515460D01*
X8948957Y-17515460D02*
X8939433Y-17505936D01*
X9187052Y-17324984D02*
X9206100Y-17324984D01*
X9206100Y-17324984D02*
X9225147Y-17334508D01*
X9225147Y-17334508D02*
X9234671Y-17344031D01*
X9234671Y-17344031D02*
X9244195Y-17363079D01*
X9244195Y-17363079D02*
X9253719Y-17401174D01*
X9253719Y-17401174D02*
X9253719Y-17448793D01*
X9253719Y-17448793D02*
X9244195Y-17486889D01*
X9244195Y-17486889D02*
X9234671Y-17505936D01*
X9234671Y-17505936D02*
X9225147Y-17515460D01*
X9225147Y-17515460D02*
X9206100Y-17524984D01*
X9206100Y-17524984D02*
X9187052Y-17524984D01*
X9187052Y-17524984D02*
X9168005Y-17515460D01*
X9168005Y-17515460D02*
X9158481Y-17505936D01*
X9158481Y-17505936D02*
X9148957Y-17486889D01*
X9148957Y-17486889D02*
X9139433Y-17448793D01*
X9139433Y-17448793D02*
X9139433Y-17401174D01*
X9139433Y-17401174D02*
X9148957Y-17363079D01*
X9148957Y-17363079D02*
X9158481Y-17344031D01*
X9158481Y-17344031D02*
X9168005Y-17334508D01*
X9168005Y-17334508D02*
X9187052Y-17324984D01*
X9339433Y-17524984D02*
X9339433Y-17391650D01*
X9339433Y-17410698D02*
X9348957Y-17401174D01*
X9348957Y-17401174D02*
X9368005Y-17391650D01*
X9368005Y-17391650D02*
X9396576Y-17391650D01*
X9396576Y-17391650D02*
X9415624Y-17401174D01*
X9415624Y-17401174D02*
X9425147Y-17420222D01*
X9425147Y-17420222D02*
X9425147Y-17524984D01*
X9425147Y-17420222D02*
X9434671Y-17401174D01*
X9434671Y-17401174D02*
X9453719Y-17391650D01*
X9453719Y-17391650D02*
X9482290Y-17391650D01*
X9482290Y-17391650D02*
X9501338Y-17401174D01*
X9501338Y-17401174D02*
X9510862Y-17420222D01*
X9510862Y-17420222D02*
X9510862Y-17524984D01*
X9606100Y-17524984D02*
X9606100Y-17391650D01*
X9606100Y-17410698D02*
X9615624Y-17401174D01*
X9615624Y-17401174D02*
X9634671Y-17391650D01*
X9634671Y-17391650D02*
X9663243Y-17391650D01*
X9663243Y-17391650D02*
X9682290Y-17401174D01*
X9682290Y-17401174D02*
X9691814Y-17420222D01*
X9691814Y-17420222D02*
X9691814Y-17524984D01*
X9691814Y-17420222D02*
X9701338Y-17401174D01*
X9701338Y-17401174D02*
X9720386Y-17391650D01*
X9720386Y-17391650D02*
X9748957Y-17391650D01*
X9748957Y-17391650D02*
X9768005Y-17401174D01*
X9768005Y-17401174D02*
X9777528Y-17420222D01*
X9777528Y-17420222D02*
X9777528Y-17524984D01*
X10168005Y-17315460D02*
X9996576Y-17572603D01*
X10425148Y-17324984D02*
X10444195Y-17324984D01*
X10444195Y-17324984D02*
X10463243Y-17334508D01*
X10463243Y-17334508D02*
X10472767Y-17344031D01*
X10472767Y-17344031D02*
X10482290Y-17363079D01*
X10482290Y-17363079D02*
X10491814Y-17401174D01*
X10491814Y-17401174D02*
X10491814Y-17448793D01*
X10491814Y-17448793D02*
X10482290Y-17486889D01*
X10482290Y-17486889D02*
X10472767Y-17505936D01*
X10472767Y-17505936D02*
X10463243Y-17515460D01*
X10463243Y-17515460D02*
X10444195Y-17524984D01*
X10444195Y-17524984D02*
X10425148Y-17524984D01*
X10425148Y-17524984D02*
X10406100Y-17515460D01*
X10406100Y-17515460D02*
X10396576Y-17505936D01*
X10396576Y-17505936D02*
X10387052Y-17486889D01*
X10387052Y-17486889D02*
X10377529Y-17448793D01*
X10377529Y-17448793D02*
X10377529Y-17401174D01*
X10377529Y-17401174D02*
X10387052Y-17363079D01*
X10387052Y-17363079D02*
X10396576Y-17344031D01*
X10396576Y-17344031D02*
X10406100Y-17334508D01*
X10406100Y-17334508D02*
X10425148Y-17324984D01*
X10577529Y-17505936D02*
X10587052Y-17515460D01*
X10587052Y-17515460D02*
X10577529Y-17524984D01*
X10577529Y-17524984D02*
X10568005Y-17515460D01*
X10568005Y-17515460D02*
X10577529Y-17505936D01*
X10577529Y-17505936D02*
X10577529Y-17524984D01*
X10777529Y-17524984D02*
X10663243Y-17524984D01*
X10720386Y-17524984D02*
X10720386Y-17324984D01*
X10720386Y-17324984D02*
X10701338Y-17353555D01*
X10701338Y-17353555D02*
X10682290Y-17372603D01*
X10682290Y-17372603D02*
X10663243Y-17382127D01*
X10853719Y-17344031D02*
X10863243Y-17334508D01*
X10863243Y-17334508D02*
X10882290Y-17324984D01*
X10882290Y-17324984D02*
X10929910Y-17324984D01*
X10929910Y-17324984D02*
X10948957Y-17334508D01*
X10948957Y-17334508D02*
X10958481Y-17344031D01*
X10958481Y-17344031D02*
X10968005Y-17363079D01*
X10968005Y-17363079D02*
X10968005Y-17382127D01*
X10968005Y-17382127D02*
X10958481Y-17410698D01*
X10958481Y-17410698D02*
X10844195Y-17524984D01*
X10844195Y-17524984D02*
X10968005Y-17524984D01*
X11034671Y-17324984D02*
X11168005Y-17324984D01*
X11168005Y-17324984D02*
X11082290Y-17524984D01*
X11234671Y-17344031D02*
X11244195Y-17334508D01*
X11244195Y-17334508D02*
X11263243Y-17324984D01*
X11263243Y-17324984D02*
X11310862Y-17324984D01*
X11310862Y-17324984D02*
X11329909Y-17334508D01*
X11329909Y-17334508D02*
X11339433Y-17344031D01*
X11339433Y-17344031D02*
X11348957Y-17363079D01*
X11348957Y-17363079D02*
X11348957Y-17382127D01*
X11348957Y-17382127D02*
X11339433Y-17410698D01*
X11339433Y-17410698D02*
X11225148Y-17524984D01*
X11225148Y-17524984D02*
X11348957Y-17524984D01*
X11425148Y-17324984D02*
X11425148Y-17363079D01*
X11501338Y-17324984D02*
X11501338Y-17363079D01*
X11796576Y-17601174D02*
X11787052Y-17591650D01*
X11787052Y-17591650D02*
X11768005Y-17563079D01*
X11768005Y-17563079D02*
X11758481Y-17544031D01*
X11758481Y-17544031D02*
X11748957Y-17515460D01*
X11748957Y-17515460D02*
X11739433Y-17467841D01*
X11739433Y-17467841D02*
X11739433Y-17429746D01*
X11739433Y-17429746D02*
X11748957Y-17382127D01*
X11748957Y-17382127D02*
X11758481Y-17353555D01*
X11758481Y-17353555D02*
X11768005Y-17334508D01*
X11768005Y-17334508D02*
X11787052Y-17305936D01*
X11787052Y-17305936D02*
X11796576Y-17296412D01*
X11863243Y-17344031D02*
X11872767Y-17334508D01*
X11872767Y-17334508D02*
X11891814Y-17324984D01*
X11891814Y-17324984D02*
X11939433Y-17324984D01*
X11939433Y-17324984D02*
X11958481Y-17334508D01*
X11958481Y-17334508D02*
X11968005Y-17344031D01*
X11968005Y-17344031D02*
X11977529Y-17363079D01*
X11977529Y-17363079D02*
X11977529Y-17382127D01*
X11977529Y-17382127D02*
X11968005Y-17410698D01*
X11968005Y-17410698D02*
X11853719Y-17524984D01*
X11853719Y-17524984D02*
X11977529Y-17524984D01*
X12215624Y-17524984D02*
X12215624Y-17324984D01*
X12301338Y-17524984D02*
X12301338Y-17420222D01*
X12301338Y-17420222D02*
X12291814Y-17401174D01*
X12291814Y-17401174D02*
X12272767Y-17391650D01*
X12272767Y-17391650D02*
X12244195Y-17391650D01*
X12244195Y-17391650D02*
X12225148Y-17401174D01*
X12225148Y-17401174D02*
X12215624Y-17410698D01*
X12425148Y-17524984D02*
X12406100Y-17515460D01*
X12406100Y-17515460D02*
X12396576Y-17505936D01*
X12396576Y-17505936D02*
X12387052Y-17486889D01*
X12387052Y-17486889D02*
X12387052Y-17429746D01*
X12387052Y-17429746D02*
X12396576Y-17410698D01*
X12396576Y-17410698D02*
X12406100Y-17401174D01*
X12406100Y-17401174D02*
X12425148Y-17391650D01*
X12425148Y-17391650D02*
X12453719Y-17391650D01*
X12453719Y-17391650D02*
X12472767Y-17401174D01*
X12472767Y-17401174D02*
X12482291Y-17410698D01*
X12482291Y-17410698D02*
X12491814Y-17429746D01*
X12491814Y-17429746D02*
X12491814Y-17486889D01*
X12491814Y-17486889D02*
X12482291Y-17505936D01*
X12482291Y-17505936D02*
X12472767Y-17515460D01*
X12472767Y-17515460D02*
X12453719Y-17524984D01*
X12453719Y-17524984D02*
X12425148Y-17524984D01*
X12606100Y-17524984D02*
X12587052Y-17515460D01*
X12587052Y-17515460D02*
X12577529Y-17496412D01*
X12577529Y-17496412D02*
X12577529Y-17324984D01*
X12758481Y-17515460D02*
X12739433Y-17524984D01*
X12739433Y-17524984D02*
X12701338Y-17524984D01*
X12701338Y-17524984D02*
X12682291Y-17515460D01*
X12682291Y-17515460D02*
X12672767Y-17496412D01*
X12672767Y-17496412D02*
X12672767Y-17420222D01*
X12672767Y-17420222D02*
X12682291Y-17401174D01*
X12682291Y-17401174D02*
X12701338Y-17391650D01*
X12701338Y-17391650D02*
X12739433Y-17391650D01*
X12739433Y-17391650D02*
X12758481Y-17401174D01*
X12758481Y-17401174D02*
X12768005Y-17420222D01*
X12768005Y-17420222D02*
X12768005Y-17439270D01*
X12768005Y-17439270D02*
X12672767Y-17458317D01*
X12844195Y-17515460D02*
X12863243Y-17524984D01*
X12863243Y-17524984D02*
X12901338Y-17524984D01*
X12901338Y-17524984D02*
X12920386Y-17515460D01*
X12920386Y-17515460D02*
X12929910Y-17496412D01*
X12929910Y-17496412D02*
X12929910Y-17486889D01*
X12929910Y-17486889D02*
X12920386Y-17467841D01*
X12920386Y-17467841D02*
X12901338Y-17458317D01*
X12901338Y-17458317D02*
X12872767Y-17458317D01*
X12872767Y-17458317D02*
X12853719Y-17448793D01*
X12853719Y-17448793D02*
X12844195Y-17429746D01*
X12844195Y-17429746D02*
X12844195Y-17420222D01*
X12844195Y-17420222D02*
X12853719Y-17401174D01*
X12853719Y-17401174D02*
X12872767Y-17391650D01*
X12872767Y-17391650D02*
X12901338Y-17391650D01*
X12901338Y-17391650D02*
X12920386Y-17401174D01*
X12996576Y-17601174D02*
X13006100Y-17591650D01*
X13006100Y-17591650D02*
X13025148Y-17563079D01*
X13025148Y-17563079D02*
X13034672Y-17544031D01*
X13034672Y-17544031D02*
X13044195Y-17515460D01*
X13044195Y-17515460D02*
X13053719Y-17467841D01*
X13053719Y-17467841D02*
X13053719Y-17429746D01*
X13053719Y-17429746D02*
X13044195Y-17382127D01*
X13044195Y-17382127D02*
X13034672Y-17353555D01*
X13034672Y-17353555D02*
X13025148Y-17334508D01*
X13025148Y-17334508D02*
X13006100Y-17305936D01*
X13006100Y-17305936D02*
X12996576Y-17296412D01*
M02*
