%TF.GenerationSoftware,KiCad,Pcbnew,8.0.5-dirty*%
%TF.CreationDate,2024-11-25T07:18:35-08:00*%
%TF.ProjectId,nightshade,6e696768-7473-4686-9164-652e6b696361,rev?*%
%TF.SameCoordinates,Original*%
%TF.FileFunction,Paste,Top*%
%TF.FilePolarity,Positive*%
%FSLAX46Y46*%
G04 Gerber Fmt 4.6, Leading zero omitted, Abs format (unit mm)*
G04 Created by KiCad (PCBNEW 8.0.5-dirty) date 2024-11-25 07:18:35*
%MOMM*%
%LPD*%
G01*
G04 APERTURE LIST*
G04 Aperture macros list*
%AMRoundRect*
0 Rectangle with rounded corners*
0 $1 Rounding radius*
0 $2 $3 $4 $5 $6 $7 $8 $9 X,Y pos of 4 corners*
0 Add a 4 corners polygon primitive as box body*
4,1,4,$2,$3,$4,$5,$6,$7,$8,$9,$2,$3,0*
0 Add four circle primitives for the rounded corners*
1,1,$1+$1,$2,$3*
1,1,$1+$1,$4,$5*
1,1,$1+$1,$6,$7*
1,1,$1+$1,$8,$9*
0 Add four rect primitives between the rounded corners*
20,1,$1+$1,$2,$3,$4,$5,0*
20,1,$1+$1,$4,$5,$6,$7,0*
20,1,$1+$1,$6,$7,$8,$9,0*
20,1,$1+$1,$8,$9,$2,$3,0*%
G04 Aperture macros list end*
%ADD10RoundRect,0.250000X0.250000X0.475000X-0.250000X0.475000X-0.250000X-0.475000X0.250000X-0.475000X0*%
%ADD11RoundRect,0.250000X-0.475000X0.250000X-0.475000X-0.250000X0.475000X-0.250000X0.475000X0.250000X0*%
%ADD12RoundRect,0.250000X-0.250000X-0.475000X0.250000X-0.475000X0.250000X0.475000X-0.250000X0.475000X0*%
%ADD13RoundRect,0.250000X-0.650000X0.325000X-0.650000X-0.325000X0.650000X-0.325000X0.650000X0.325000X0*%
%ADD14RoundRect,0.250000X0.325000X0.650000X-0.325000X0.650000X-0.325000X-0.650000X0.325000X-0.650000X0*%
%ADD15RoundRect,0.250000X0.475000X-0.250000X0.475000X0.250000X-0.475000X0.250000X-0.475000X-0.250000X0*%
%ADD16R,1.000000X1.000000*%
%ADD17RoundRect,0.218750X0.218750X0.381250X-0.218750X0.381250X-0.218750X-0.381250X0.218750X-0.381250X0*%
%ADD18RoundRect,0.249998X-0.450002X0.262502X-0.450002X-0.262502X0.450002X-0.262502X0.450002X0.262502X0*%
%ADD19RoundRect,0.249998X0.262502X0.450002X-0.262502X0.450002X-0.262502X-0.450002X0.262502X-0.450002X0*%
%ADD20RoundRect,0.250100X0.449900X-0.262400X0.449900X0.262400X-0.449900X0.262400X-0.449900X-0.262400X0*%
%ADD21RoundRect,0.249998X0.450002X-0.262502X0.450002X0.262502X-0.450002X0.262502X-0.450002X-0.262502X0*%
%ADD22RoundRect,0.249998X-0.262502X-0.450002X0.262502X-0.450002X0.262502X0.450002X-0.262502X0.450002X0*%
%ADD23RoundRect,0.150000X0.150000X-0.875000X0.150000X0.875000X-0.150000X0.875000X-0.150000X-0.875000X0*%
%ADD24R,4.500000X2.000000*%
%ADD25RoundRect,0.150000X-1.475000X-0.150000X1.475000X-0.150000X1.475000X0.150000X-1.475000X0.150000X0*%
%ADD26RoundRect,0.200000X-0.200000X-0.275000X0.200000X-0.275000X0.200000X0.275000X-0.200000X0.275000X0*%
%ADD27RoundRect,0.150000X0.150000X-0.825000X0.150000X0.825000X-0.150000X0.825000X-0.150000X-0.825000X0*%
%ADD28RoundRect,0.200000X-0.275000X0.200000X-0.275000X-0.200000X0.275000X-0.200000X0.275000X0.200000X0*%
%ADD29RoundRect,0.250000X-0.450000X0.262500X-0.450000X-0.262500X0.450000X-0.262500X0.450000X0.262500X0*%
%ADD30R,0.800000X0.500000*%
%ADD31R,0.800000X0.400000*%
%ADD32RoundRect,0.250000X0.262500X0.450000X-0.262500X0.450000X-0.262500X-0.450000X0.262500X-0.450000X0*%
%ADD33RoundRect,0.100000X0.100000X-0.775000X0.100000X0.775000X-0.100000X0.775000X-0.100000X-0.775000X0*%
%ADD34RoundRect,0.100000X0.775000X-0.100000X0.775000X0.100000X-0.775000X0.100000X-0.775000X-0.100000X0*%
%ADD35RoundRect,0.150000X-0.150000X-0.587500X0.150000X-0.587500X0.150000X0.587500X-0.150000X0.587500X0*%
%ADD36RoundRect,0.150000X-0.587500X-0.150000X0.587500X-0.150000X0.587500X0.150000X-0.587500X0.150000X0*%
%ADD37RoundRect,0.200000X0.200000X0.275000X-0.200000X0.275000X-0.200000X-0.275000X0.200000X-0.275000X0*%
G04 APERTURE END LIST*
D10*
%TO.C,C7*%
X176550000Y-104600000D03*
X174650000Y-104600000D03*
%TD*%
D11*
%TO.C,C8*%
X166200000Y-91175000D03*
X166200000Y-93075000D03*
%TD*%
D12*
%TO.C,C9*%
X136100000Y-121500000D03*
X138000000Y-121500000D03*
%TD*%
D10*
%TO.C,C10*%
X177030000Y-108630000D03*
X175130000Y-108630000D03*
%TD*%
D13*
%TO.C,C25*%
X140200000Y-127900000D03*
X140200000Y-130850000D03*
%TD*%
D14*
%TO.C,C23*%
X88575000Y-121600000D03*
X85625000Y-121600000D03*
%TD*%
D12*
%TO.C,C36*%
X181550000Y-113649500D03*
X183450000Y-113649500D03*
%TD*%
%TO.C,C37*%
X186850000Y-113649500D03*
X188750000Y-113649500D03*
%TD*%
%TO.C,C38*%
X126350000Y-127900000D03*
X128250000Y-127900000D03*
%TD*%
%TO.C,C39*%
X131670000Y-127900000D03*
X133570000Y-127900000D03*
%TD*%
%TO.C,C43*%
X181550000Y-111674500D03*
X183450000Y-111674500D03*
%TD*%
%TO.C,C44*%
X186850000Y-111674500D03*
X188750000Y-111674500D03*
%TD*%
%TO.C,C45*%
X126350000Y-125930000D03*
X128250000Y-125930000D03*
%TD*%
%TO.C,C46*%
X131670000Y-125930000D03*
X133570000Y-125930000D03*
%TD*%
%TO.C,C31*%
X228350000Y-142900000D03*
X230250000Y-142900000D03*
%TD*%
%TO.C,C12*%
X131675000Y-130100000D03*
X133575000Y-130100000D03*
%TD*%
%TO.C,C13*%
X126350000Y-130100000D03*
X128250000Y-130100000D03*
%TD*%
D13*
%TO.C,C22*%
X219300000Y-142825000D03*
X219300000Y-145775000D03*
%TD*%
D11*
%TO.C,C24*%
X215125000Y-142925000D03*
X215125000Y-144825000D03*
%TD*%
D15*
%TO.C,C26*%
X215550000Y-107750000D03*
X215550000Y-105850000D03*
%TD*%
%TO.C,C28*%
X215550000Y-103750000D03*
X215550000Y-101850000D03*
%TD*%
%TO.C,C29*%
X215540000Y-99750000D03*
X215540000Y-97850000D03*
%TD*%
%TO.C,C33*%
X221050000Y-107750000D03*
X221050000Y-105850000D03*
%TD*%
%TO.C,C34*%
X221050000Y-103750000D03*
X221050000Y-101850000D03*
%TD*%
%TO.C,C35*%
X221040000Y-99830000D03*
X221040000Y-97930000D03*
%TD*%
%TO.C,C2*%
X113350000Y-99975000D03*
X113350000Y-98075000D03*
%TD*%
D12*
%TO.C,C3*%
X111400000Y-124100000D03*
X113300000Y-124100000D03*
%TD*%
D10*
%TO.C,C1*%
X95300000Y-92800000D03*
X93400000Y-92800000D03*
%TD*%
D11*
%TO.C,C5*%
X113350000Y-101800000D03*
X113350000Y-103700000D03*
%TD*%
%TO.C,C6*%
X88300000Y-101900000D03*
X88300000Y-103800000D03*
%TD*%
D10*
%TO.C,C27*%
X188150000Y-139950000D03*
X186250000Y-139950000D03*
%TD*%
D16*
%TO.C,D1*%
X205000000Y-114900000D03*
X205000000Y-112400000D03*
%TD*%
D17*
%TO.C,FB1*%
X219345000Y-97955000D03*
X217220000Y-97955000D03*
%TD*%
%TO.C,FB2*%
X219360000Y-101860000D03*
X217235000Y-101860000D03*
%TD*%
%TO.C,FB3*%
X219362500Y-106000000D03*
X217237500Y-106000000D03*
%TD*%
D18*
%TO.C,R27*%
X185150000Y-111762000D03*
X185150000Y-113587000D03*
%TD*%
%TO.C,R28*%
X129960000Y-126075000D03*
X129960000Y-127900000D03*
%TD*%
D19*
%TO.C,R15*%
X201412500Y-119000000D03*
X199587500Y-119000000D03*
%TD*%
%TO.C,R14*%
X202412500Y-117100000D03*
X200587500Y-117100000D03*
%TD*%
D20*
%TO.C,R29*%
X97100000Y-92987500D03*
D21*
X97100000Y-91162500D03*
%TD*%
D22*
%TO.C,R19*%
X186287500Y-141900000D03*
X188112500Y-141900000D03*
%TD*%
D23*
%TO.C,U6*%
X192070000Y-134950000D03*
X193340000Y-134950000D03*
X194610000Y-134950000D03*
X195880000Y-134950000D03*
X197150000Y-134950000D03*
X198420000Y-134950000D03*
X199690000Y-134950000D03*
X200960000Y-134950000D03*
X202230000Y-134950000D03*
X203500000Y-134950000D03*
X203500000Y-125650000D03*
X202230000Y-125650000D03*
X200960000Y-125650000D03*
X199690000Y-125650000D03*
X198420000Y-125650000D03*
X197150000Y-125650000D03*
X195880000Y-125650000D03*
X194610000Y-125650000D03*
X193340000Y-125650000D03*
X192070000Y-125650000D03*
%TD*%
D24*
%TO.C,Y1*%
X133750000Y-133700000D03*
X125250000Y-133700000D03*
%TD*%
D22*
%TO.C,R26*%
X182325000Y-115649500D03*
X184150000Y-115649500D03*
%TD*%
D18*
%TO.C,R23*%
X116000000Y-134987500D03*
X116000000Y-136812500D03*
%TD*%
D25*
%TO.C,U2*%
X118000000Y-97472000D03*
X118000000Y-98740000D03*
X118000000Y-100010000D03*
X118000000Y-101280000D03*
X118000000Y-102550000D03*
X118000000Y-103820000D03*
X118000000Y-105090000D03*
X118000000Y-106360000D03*
X118000000Y-107630000D03*
X118000000Y-108900000D03*
X118000000Y-110170000D03*
X118000000Y-111440000D03*
X118000000Y-112710000D03*
X118000000Y-113980000D03*
X118000000Y-115250000D03*
X118000000Y-116520000D03*
X118000000Y-117790000D03*
X118000000Y-119060000D03*
X118000000Y-120330000D03*
X118000000Y-121600000D03*
X127970000Y-121600000D03*
X127970000Y-120330000D03*
X127970000Y-119060000D03*
X127970000Y-117790000D03*
X127970000Y-116520000D03*
X127970000Y-115250000D03*
X127970000Y-113980000D03*
X127970000Y-112710000D03*
X127970000Y-111440000D03*
X127970000Y-110170000D03*
X127970000Y-108900000D03*
X127970000Y-107630000D03*
X127970000Y-106360000D03*
X127970000Y-105090000D03*
X127970000Y-103820000D03*
X127970000Y-102550000D03*
X127970000Y-101280000D03*
X127970000Y-100010000D03*
X127970000Y-98740000D03*
X127970000Y-97470000D03*
%TD*%
%TO.C,U3*%
X93330000Y-97472000D03*
X93330000Y-98740000D03*
X93330000Y-100010000D03*
X93330000Y-101280000D03*
X93330000Y-102550000D03*
X93330000Y-103820000D03*
X93330000Y-105090000D03*
X93330000Y-106360000D03*
X93330000Y-107630000D03*
X93330000Y-108900000D03*
X93330000Y-110170000D03*
X93330000Y-111440000D03*
X93330000Y-112710000D03*
X93330000Y-113980000D03*
X93330000Y-115250000D03*
X93330000Y-116520000D03*
X93330000Y-117790000D03*
X93330000Y-119060000D03*
X93330000Y-120330000D03*
X93330000Y-121600000D03*
X103300000Y-121600000D03*
X103300000Y-120330000D03*
X103300000Y-119060000D03*
X103300000Y-117790000D03*
X103300000Y-116520000D03*
X103300000Y-115250000D03*
X103300000Y-113980000D03*
X103300000Y-112710000D03*
X103300000Y-111440000D03*
X103300000Y-110170000D03*
X103300000Y-108900000D03*
X103300000Y-107630000D03*
X103300000Y-106360000D03*
X103300000Y-105090000D03*
X103300000Y-103820000D03*
X103300000Y-102550000D03*
X103300000Y-101280000D03*
X103300000Y-100010000D03*
X103300000Y-98740000D03*
X103300000Y-97470000D03*
%TD*%
D10*
%TO.C,C40*%
X188750000Y-115649500D03*
X186850000Y-115649500D03*
%TD*%
D12*
%TO.C,C42*%
X190175000Y-123325000D03*
X192075000Y-123325000D03*
%TD*%
D13*
%TO.C,C30*%
X120100000Y-127025000D03*
X120100000Y-129975000D03*
%TD*%
D21*
%TO.C,R16*%
X213600000Y-107712500D03*
X213600000Y-105887500D03*
%TD*%
%TO.C,R17*%
X213550000Y-103725000D03*
X213550000Y-101900000D03*
%TD*%
%TO.C,R18*%
X213590000Y-99712500D03*
X213590000Y-97887500D03*
%TD*%
D26*
%TO.C,R11*%
X178657500Y-108620000D03*
X180307500Y-108620000D03*
%TD*%
D10*
%TO.C,C15*%
X183150000Y-140600000D03*
X181250000Y-140600000D03*
%TD*%
D11*
%TO.C,C16*%
X172000000Y-140000000D03*
X172000000Y-141900000D03*
%TD*%
D15*
%TO.C,C19*%
X191350000Y-111850000D03*
X191350000Y-109950000D03*
%TD*%
D10*
%TO.C,C20*%
X195050000Y-111975000D03*
X193150000Y-111975000D03*
%TD*%
%TO.C,C21*%
X195050000Y-110000000D03*
X193150000Y-110000000D03*
%TD*%
D21*
%TO.C,R12*%
X172000000Y-145300000D03*
X172000000Y-143475000D03*
%TD*%
%TO.C,R13*%
X182800000Y-145275000D03*
X182800000Y-143450000D03*
%TD*%
D15*
%TO.C,C17*%
X174910000Y-146845000D03*
X174910000Y-144945000D03*
%TD*%
%TO.C,C18*%
X177350000Y-146800000D03*
X177350000Y-144900000D03*
%TD*%
D19*
%TO.C,R3*%
X134712500Y-113800000D03*
X132887500Y-113800000D03*
%TD*%
%TO.C,R4*%
X134712500Y-111900000D03*
X132887500Y-111900000D03*
%TD*%
%TO.C,R5*%
X110112500Y-112700000D03*
X108287500Y-112700000D03*
%TD*%
%TO.C,R6*%
X137862500Y-93050000D03*
X136037500Y-93050000D03*
%TD*%
%TO.C,R7*%
X137825000Y-103625000D03*
X136000000Y-103625000D03*
%TD*%
%TO.C,R8*%
X134712500Y-110000000D03*
X132887500Y-110000000D03*
%TD*%
%TO.C,R9*%
X185612500Y-105050000D03*
X183787500Y-105050000D03*
%TD*%
%TO.C,R10*%
X185612500Y-107000000D03*
X183787500Y-107000000D03*
%TD*%
D27*
%TO.C,U4*%
X199295000Y-114875000D03*
X200565000Y-114875000D03*
X201835000Y-114875000D03*
X203105000Y-114875000D03*
X203105000Y-109925000D03*
X201835000Y-109925000D03*
X200565000Y-109925000D03*
X199295000Y-109925000D03*
%TD*%
D28*
%TO.C,R24*%
X208200000Y-111775000D03*
X208200000Y-113425000D03*
%TD*%
D29*
%TO.C,R1*%
X162800000Y-91212500D03*
X162800000Y-93037500D03*
%TD*%
D10*
%TO.C,C41*%
X221650000Y-113000000D03*
X219750000Y-113000000D03*
%TD*%
D30*
%TO.C,RN1*%
X218400000Y-92200000D03*
D31*
X218400000Y-91400000D03*
X218400000Y-90600000D03*
D30*
X218400000Y-89800000D03*
X216600000Y-89800000D03*
D31*
X216600000Y-90600000D03*
X216600000Y-91400000D03*
D30*
X216600000Y-92200000D03*
%TD*%
D12*
%TO.C,C32*%
X175575000Y-113650000D03*
X177475000Y-113650000D03*
%TD*%
D29*
%TO.C,R2*%
X159700000Y-91212500D03*
X159700000Y-93037500D03*
%TD*%
D32*
%TO.C,R22*%
X223312500Y-142900000D03*
X221487500Y-142900000D03*
%TD*%
D30*
%TO.C,RN2*%
X223500000Y-92200000D03*
D31*
X223500000Y-91400000D03*
X223500000Y-90600000D03*
D30*
X223500000Y-89800000D03*
X221700000Y-89800000D03*
D31*
X221700000Y-90600000D03*
X221700000Y-91400000D03*
D30*
X221700000Y-92200000D03*
%TD*%
D10*
%TO.C,C4*%
X137800000Y-98325000D03*
X135900000Y-98325000D03*
%TD*%
D28*
%TO.C,R25*%
X212900000Y-111775000D03*
X212900000Y-113425000D03*
%TD*%
D12*
%TO.C,C48*%
X171525000Y-96975000D03*
X173425000Y-96975000D03*
%TD*%
D26*
%TO.C,R21*%
X213550000Y-109700000D03*
X215200000Y-109700000D03*
%TD*%
D33*
%TO.C,U1*%
X143450000Y-127250000D03*
X144100000Y-127250000D03*
X144750000Y-127250000D03*
X145400000Y-127250000D03*
X146050000Y-127250000D03*
X146700000Y-127250000D03*
X147350000Y-127250000D03*
X148000000Y-127250000D03*
X148650000Y-127250000D03*
X149300000Y-127250000D03*
X149950000Y-127250000D03*
X150600000Y-127250000D03*
X151250000Y-127250000D03*
X151900000Y-127250000D03*
X152550000Y-127250000D03*
X153200000Y-127250000D03*
X153850000Y-127250000D03*
X154500000Y-127250000D03*
X155150000Y-127250000D03*
X155800000Y-127250000D03*
X156450000Y-127250000D03*
X157100000Y-127250000D03*
X157750000Y-127250000D03*
X158400000Y-127250000D03*
X159050000Y-127250000D03*
X159700000Y-127250000D03*
X160350000Y-127250000D03*
X161000000Y-127250000D03*
X161650000Y-127250000D03*
X162300000Y-127250000D03*
X162950000Y-127250000D03*
X163600000Y-127250000D03*
X164250000Y-127250000D03*
X164900000Y-127250000D03*
X165550000Y-127250000D03*
X166200000Y-127250000D03*
X166850000Y-127250000D03*
X167500000Y-127250000D03*
X168150000Y-127250000D03*
X168800000Y-127250000D03*
D34*
X171250000Y-124800000D03*
X171250000Y-124150000D03*
X171250000Y-123500000D03*
X171250000Y-122850000D03*
X171250000Y-122200000D03*
X171250000Y-121550000D03*
X171250000Y-120900000D03*
X171250000Y-120250000D03*
X171250000Y-119600000D03*
X171250000Y-118950000D03*
X171250000Y-118300000D03*
X171250000Y-117650000D03*
X171250000Y-117000000D03*
X171250000Y-116350000D03*
X171250000Y-115700000D03*
X171250000Y-115050000D03*
X171250000Y-114400000D03*
X171250000Y-113750000D03*
X171250000Y-113100000D03*
X171250000Y-112450000D03*
X171250000Y-111800000D03*
X171250000Y-111150000D03*
X171250000Y-110500000D03*
X171250000Y-109850000D03*
X171250000Y-109200000D03*
X171250000Y-108550000D03*
X171250000Y-107900000D03*
X171250000Y-107250000D03*
X171250000Y-106600000D03*
X171250000Y-105950000D03*
X171250000Y-105300000D03*
X171250000Y-104650000D03*
X171250000Y-104000000D03*
X171250000Y-103350000D03*
X171250000Y-102700000D03*
X171250000Y-102050000D03*
X171250000Y-101400000D03*
X171250000Y-100750000D03*
X171250000Y-100100000D03*
X171250000Y-99450000D03*
D33*
X168800000Y-97000000D03*
X168150000Y-97000000D03*
X167500000Y-97000000D03*
X166850000Y-97000000D03*
X166200000Y-97000000D03*
X165550000Y-97000000D03*
X164900000Y-97000000D03*
X164250000Y-97000000D03*
X163600000Y-97000000D03*
X162950000Y-97000000D03*
X162300000Y-97000000D03*
X161650000Y-97000000D03*
X161000000Y-97000000D03*
X160350000Y-97000000D03*
X159700000Y-97000000D03*
X159050000Y-97000000D03*
X158400000Y-97000000D03*
X157750000Y-97000000D03*
X157100000Y-97000000D03*
X156450000Y-97000000D03*
X155800000Y-97000000D03*
X155150000Y-97000000D03*
X154500000Y-97000000D03*
X153850000Y-97000000D03*
X153200000Y-97000000D03*
X152550000Y-97000000D03*
X151900000Y-97000000D03*
X151250000Y-97000000D03*
X150600000Y-97000000D03*
X149950000Y-97000000D03*
X149300000Y-97000000D03*
X148650000Y-97000000D03*
X148000000Y-97000000D03*
X147350000Y-97000000D03*
X146700000Y-97000000D03*
X146050000Y-97000000D03*
X145400000Y-97000000D03*
X144750000Y-97000000D03*
X144100000Y-97000000D03*
X143450000Y-97000000D03*
D34*
X141000000Y-99450000D03*
X141000000Y-100100000D03*
X141000000Y-100750000D03*
X141000000Y-101400000D03*
X141000000Y-102050000D03*
X141000000Y-102700000D03*
X141000000Y-103350000D03*
X141000000Y-104000000D03*
X141000000Y-104650000D03*
X141000000Y-105300000D03*
X141000000Y-105950000D03*
X141000000Y-106600000D03*
X141000000Y-107250000D03*
X141000000Y-107900000D03*
X141000000Y-108550000D03*
X141000000Y-109200000D03*
X141000000Y-109850000D03*
X141000000Y-110500000D03*
X141000000Y-111150000D03*
X141000000Y-111800000D03*
X141000000Y-112450000D03*
X141000000Y-113100000D03*
X141000000Y-113750000D03*
X141000000Y-114400000D03*
X141000000Y-115050000D03*
X141000000Y-115700000D03*
X141000000Y-116350000D03*
X141000000Y-117000000D03*
X141000000Y-117650000D03*
X141000000Y-118300000D03*
X141000000Y-118950000D03*
X141000000Y-119600000D03*
X141000000Y-120250000D03*
X141000000Y-120900000D03*
X141000000Y-121550000D03*
X141000000Y-122200000D03*
X141000000Y-122850000D03*
X141000000Y-123500000D03*
X141000000Y-124150000D03*
X141000000Y-124800000D03*
%TD*%
D35*
%TO.C,U5*%
X215300000Y-119562500D03*
X214030000Y-119562500D03*
X212760000Y-119562500D03*
X211490000Y-119562500D03*
D36*
X209737500Y-121320000D03*
X209737500Y-122590000D03*
X209737500Y-123860000D03*
X209737500Y-125130000D03*
X209737500Y-126400000D03*
X209737500Y-127670000D03*
X209737500Y-128940000D03*
X209737500Y-130210000D03*
X209737500Y-131480000D03*
D35*
X211490000Y-133237500D03*
X212760000Y-133237500D03*
X214030000Y-133237500D03*
X215300000Y-133237500D03*
X216570000Y-133237500D03*
X217840000Y-133237500D03*
X219110000Y-133237500D03*
D36*
X220862500Y-131480000D03*
X220862500Y-130210000D03*
X220862500Y-128940000D03*
X220862500Y-127670000D03*
X220862500Y-126400000D03*
X220862500Y-125130000D03*
X220862500Y-123860000D03*
X220862500Y-122590000D03*
X220862500Y-121320000D03*
D35*
X219110000Y-119562500D03*
X217840000Y-119562500D03*
X216570000Y-119562500D03*
%TD*%
D11*
%TO.C,C49*%
X158500000Y-130925000D03*
X158500000Y-132825000D03*
%TD*%
D10*
%TO.C,C47*%
X138150000Y-112500000D03*
X136250000Y-112500000D03*
%TD*%
D37*
%TO.C,R20*%
X212200000Y-109700000D03*
X210550000Y-109700000D03*
%TD*%
D30*
%TO.C,RN3*%
X109300000Y-104900000D03*
D31*
X109300000Y-104100000D03*
X109300000Y-103300000D03*
D30*
X109300000Y-102500000D03*
X107500000Y-102500000D03*
D31*
X107500000Y-103300000D03*
X107500000Y-104100000D03*
D30*
X107500000Y-104900000D03*
%TD*%
D11*
%TO.C,C11*%
X190500000Y-104650000D03*
X190500000Y-106550000D03*
%TD*%
%TO.C,C14*%
X188520000Y-107750000D03*
X188520000Y-109650000D03*
%TD*%
D15*
%TO.C,C50*%
X151950000Y-94875000D03*
X151950000Y-92975000D03*
%TD*%
M02*
