%TF.GenerationSoftware,KiCad,Pcbnew,8.0.5-dirty*%
%TF.CreationDate,2024-12-24T11:16:46-08:00*%
%TF.ProjectId,nightshade,6e696768-7473-4686-9164-652e6b696361,rev?*%
%TF.SameCoordinates,Original*%
%TF.FileFunction,Paste,Top*%
%TF.FilePolarity,Positive*%
%FSLAX46Y46*%
G04 Gerber Fmt 4.6, Leading zero omitted, Abs format (unit mm)*
G04 Created by KiCad (PCBNEW 8.0.5-dirty) date 2024-12-24 11:16:46*
%MOMM*%
%LPD*%
G01*
G04 APERTURE LIST*
G04 Aperture macros list*
%AMRoundRect*
0 Rectangle with rounded corners*
0 $1 Rounding radius*
0 $2 $3 $4 $5 $6 $7 $8 $9 X,Y pos of 4 corners*
0 Add a 4 corners polygon primitive as box body*
4,1,4,$2,$3,$4,$5,$6,$7,$8,$9,$2,$3,0*
0 Add four circle primitives for the rounded corners*
1,1,$1+$1,$2,$3*
1,1,$1+$1,$4,$5*
1,1,$1+$1,$6,$7*
1,1,$1+$1,$8,$9*
0 Add four rect primitives between the rounded corners*
20,1,$1+$1,$2,$3,$4,$5,0*
20,1,$1+$1,$4,$5,$6,$7,0*
20,1,$1+$1,$6,$7,$8,$9,0*
20,1,$1+$1,$8,$9,$2,$3,0*%
G04 Aperture macros list end*
%ADD10RoundRect,0.250000X0.250000X0.475000X-0.250000X0.475000X-0.250000X-0.475000X0.250000X-0.475000X0*%
%ADD11RoundRect,0.250000X-0.159099X0.512652X-0.512652X0.159099X0.159099X-0.512652X0.512652X-0.159099X0*%
%ADD12RoundRect,0.250000X-0.250000X-0.475000X0.250000X-0.475000X0.250000X0.475000X-0.250000X0.475000X0*%
%ADD13RoundRect,0.250000X0.475000X-0.250000X0.475000X0.250000X-0.475000X0.250000X-0.475000X-0.250000X0*%
%ADD14RoundRect,0.250000X-0.650000X0.325000X-0.650000X-0.325000X0.650000X-0.325000X0.650000X0.325000X0*%
%ADD15RoundRect,0.250000X-0.475000X0.250000X-0.475000X-0.250000X0.475000X-0.250000X0.475000X0.250000X0*%
%ADD16R,1.000000X1.000000*%
%ADD17RoundRect,0.218750X0.218750X0.381250X-0.218750X0.381250X-0.218750X-0.381250X0.218750X-0.381250X0*%
%ADD18RoundRect,0.249998X-0.262502X-0.450002X0.262502X-0.450002X0.262502X0.450002X-0.262502X0.450002X0*%
%ADD19RoundRect,0.249998X-0.450002X0.262502X-0.450002X-0.262502X0.450002X-0.262502X0.450002X0.262502X0*%
%ADD20RoundRect,0.249998X0.450002X-0.262502X0.450002X0.262502X-0.450002X0.262502X-0.450002X-0.262502X0*%
%ADD21RoundRect,0.250100X-0.449900X0.262400X-0.449900X-0.262400X0.449900X-0.262400X0.449900X0.262400X0*%
%ADD22RoundRect,0.150000X0.150000X-0.875000X0.150000X0.875000X-0.150000X0.875000X-0.150000X-0.875000X0*%
%ADD23R,4.500000X2.000000*%
%ADD24RoundRect,0.249998X0.262502X0.450002X-0.262502X0.450002X-0.262502X-0.450002X0.262502X-0.450002X0*%
%ADD25RoundRect,0.150000X-1.475000X-0.150000X1.475000X-0.150000X1.475000X0.150000X-1.475000X0.150000X0*%
%ADD26RoundRect,0.250000X0.325000X0.650000X-0.325000X0.650000X-0.325000X-0.650000X0.325000X-0.650000X0*%
%ADD27RoundRect,0.200000X-0.200000X-0.275000X0.200000X-0.275000X0.200000X0.275000X-0.200000X0.275000X0*%
%ADD28RoundRect,0.249998X-0.132583X0.503816X-0.503816X0.132583X0.132583X-0.503816X0.503816X-0.132583X0*%
%ADD29RoundRect,0.150000X-0.825000X-0.150000X0.825000X-0.150000X0.825000X0.150000X-0.825000X0.150000X0*%
%ADD30R,0.800000X0.500000*%
%ADD31R,0.800000X0.400000*%
%ADD32RoundRect,0.250000X0.262500X0.450000X-0.262500X0.450000X-0.262500X-0.450000X0.262500X-0.450000X0*%
%ADD33RoundRect,0.200000X0.200000X0.275000X-0.200000X0.275000X-0.200000X-0.275000X0.200000X-0.275000X0*%
%ADD34RoundRect,0.100000X0.100000X-0.775000X0.100000X0.775000X-0.100000X0.775000X-0.100000X-0.775000X0*%
%ADD35RoundRect,0.100000X0.775000X-0.100000X0.775000X0.100000X-0.775000X0.100000X-0.775000X-0.100000X0*%
%ADD36RoundRect,0.150000X-0.150000X-0.587500X0.150000X-0.587500X0.150000X0.587500X-0.150000X0.587500X0*%
%ADD37RoundRect,0.150000X-0.587500X-0.150000X0.587500X-0.150000X0.587500X0.150000X-0.587500X0.150000X0*%
G04 APERTURE END LIST*
D10*
%TO.C,C7*%
X174175000Y-109250000D03*
X172275000Y-109250000D03*
%TD*%
D11*
%TO.C,C8*%
X165171751Y-97003249D03*
X163828249Y-98346751D03*
%TD*%
D12*
%TO.C,C9*%
X133100000Y-126000000D03*
X135000000Y-126000000D03*
%TD*%
D13*
%TO.C,C10*%
X172900000Y-115250000D03*
X172900000Y-113350000D03*
%TD*%
D14*
%TO.C,C25*%
X137250000Y-132425000D03*
X137250000Y-135375000D03*
%TD*%
D12*
%TO.C,C36*%
X198300000Y-116000000D03*
X200200000Y-116000000D03*
%TD*%
%TO.C,C37*%
X202300000Y-116000000D03*
X204200000Y-116000000D03*
%TD*%
%TO.C,C38*%
X123350000Y-132400000D03*
X125250000Y-132400000D03*
%TD*%
%TO.C,C39*%
X128670000Y-132400000D03*
X130570000Y-132400000D03*
%TD*%
%TO.C,C43*%
X198300000Y-112000000D03*
X200200000Y-112000000D03*
%TD*%
%TO.C,C44*%
X202300000Y-112000000D03*
X204200000Y-112000000D03*
%TD*%
%TO.C,C45*%
X123350000Y-130430000D03*
X125250000Y-130430000D03*
%TD*%
%TO.C,C46*%
X128670000Y-130430000D03*
X130570000Y-130430000D03*
%TD*%
%TO.C,C31*%
X228350000Y-140500000D03*
X230250000Y-140500000D03*
%TD*%
D10*
%TO.C,C12*%
X132750000Y-134600000D03*
X130850000Y-134600000D03*
%TD*%
D12*
%TO.C,C13*%
X123350000Y-134600000D03*
X125250000Y-134600000D03*
%TD*%
D14*
%TO.C,C22*%
X219300000Y-140525000D03*
X219300000Y-143475000D03*
%TD*%
D15*
%TO.C,C24*%
X215400000Y-140550000D03*
X215400000Y-142450000D03*
%TD*%
D13*
%TO.C,C26*%
X215500000Y-107450000D03*
X215500000Y-105550000D03*
%TD*%
%TO.C,C28*%
X215500000Y-103950000D03*
X215500000Y-102050000D03*
%TD*%
%TO.C,C29*%
X215500000Y-100450000D03*
X215500000Y-98550000D03*
%TD*%
%TO.C,C33*%
X221050000Y-107450000D03*
X221050000Y-105550000D03*
%TD*%
%TO.C,C34*%
X221050000Y-103950000D03*
X221050000Y-102050000D03*
%TD*%
%TO.C,C35*%
X221000000Y-100450000D03*
X221000000Y-98550000D03*
%TD*%
D10*
%TO.C,C2*%
X119150000Y-97700000D03*
X117250000Y-97700000D03*
%TD*%
%TO.C,C3*%
X116700000Y-130250000D03*
X114800000Y-130250000D03*
%TD*%
D15*
%TO.C,C5*%
X110100000Y-106500000D03*
X110100000Y-108400000D03*
%TD*%
D10*
%TO.C,C27*%
X186700000Y-134810000D03*
X184800000Y-134810000D03*
%TD*%
D16*
%TO.C,D1*%
X201000000Y-89250000D03*
X198500000Y-89250000D03*
%TD*%
D17*
%TO.C,FB1*%
X219305000Y-98500000D03*
X217180000Y-98500000D03*
%TD*%
%TO.C,FB2*%
X219312500Y-102050000D03*
X217187500Y-102050000D03*
%TD*%
%TO.C,FB3*%
X219362500Y-105500000D03*
X217237500Y-105500000D03*
%TD*%
D18*
%TO.C,R27*%
X200337500Y-114000000D03*
X202162500Y-114000000D03*
%TD*%
D19*
%TO.C,R28*%
X126960000Y-130575000D03*
X126960000Y-132400000D03*
%TD*%
D20*
%TO.C,R15*%
X196000000Y-92412500D03*
X196000000Y-90587500D03*
%TD*%
D19*
%TO.C,R14*%
X194000000Y-90587500D03*
X194000000Y-92412500D03*
%TD*%
D21*
%TO.C,R29*%
X85000000Y-102675000D03*
D19*
X85000000Y-104500000D03*
%TD*%
D18*
%TO.C,R19*%
X184837500Y-136800000D03*
X186662500Y-136800000D03*
%TD*%
D22*
%TO.C,U6*%
X192285000Y-134950000D03*
X193555000Y-134950000D03*
X194825000Y-134950000D03*
X196095000Y-134950000D03*
X197365000Y-134950000D03*
X198635000Y-134950000D03*
X199905000Y-134950000D03*
X201175000Y-134950000D03*
X202445000Y-134950000D03*
X203715000Y-134950000D03*
X203715000Y-125650000D03*
X202445000Y-125650000D03*
X201175000Y-125650000D03*
X199905000Y-125650000D03*
X198635000Y-125650000D03*
X197365000Y-125650000D03*
X196095000Y-125650000D03*
X194825000Y-125650000D03*
X193555000Y-125650000D03*
X192285000Y-125650000D03*
%TD*%
D23*
%TO.C,Y1*%
X131150000Y-138250000D03*
X122650000Y-138250000D03*
%TD*%
D24*
%TO.C,R26*%
X196662500Y-112000000D03*
X194837500Y-112000000D03*
%TD*%
%TO.C,R23*%
X116662500Y-132250000D03*
X114837500Y-132250000D03*
%TD*%
D25*
%TO.C,U2*%
X115000000Y-101972000D03*
X115000000Y-103240000D03*
X115000000Y-104510000D03*
X115000000Y-105780000D03*
X115000000Y-107050000D03*
X115000000Y-108320000D03*
X115000000Y-109590000D03*
X115000000Y-110860000D03*
X115000000Y-112130000D03*
X115000000Y-113400000D03*
X115000000Y-114670000D03*
X115000000Y-115940000D03*
X115000000Y-117210000D03*
X115000000Y-118480000D03*
X115000000Y-119750000D03*
X115000000Y-121020000D03*
X115000000Y-122290000D03*
X115000000Y-123560000D03*
X115000000Y-124830000D03*
X115000000Y-126100000D03*
X124970000Y-126100000D03*
X124970000Y-124830000D03*
X124970000Y-123560000D03*
X124970000Y-122290000D03*
X124970000Y-121020000D03*
X124970000Y-119750000D03*
X124970000Y-118480000D03*
X124970000Y-117210000D03*
X124970000Y-115940000D03*
X124970000Y-114670000D03*
X124970000Y-113400000D03*
X124970000Y-112130000D03*
X124970000Y-110860000D03*
X124970000Y-109590000D03*
X124970000Y-108320000D03*
X124970000Y-107050000D03*
X124970000Y-105780000D03*
X124970000Y-104510000D03*
X124970000Y-103240000D03*
X124970000Y-101970000D03*
%TD*%
%TO.C,U3*%
X89450000Y-101972000D03*
X89450000Y-103240000D03*
X89450000Y-104510000D03*
X89450000Y-105780000D03*
X89450000Y-107050000D03*
X89450000Y-108320000D03*
X89450000Y-109590000D03*
X89450000Y-110860000D03*
X89450000Y-112130000D03*
X89450000Y-113400000D03*
X89450000Y-114670000D03*
X89450000Y-115940000D03*
X89450000Y-117210000D03*
X89450000Y-118480000D03*
X89450000Y-119750000D03*
X89450000Y-121020000D03*
X89450000Y-122290000D03*
X89450000Y-123560000D03*
X89450000Y-124830000D03*
X89450000Y-126100000D03*
X99420000Y-126100000D03*
X99420000Y-124830000D03*
X99420000Y-123560000D03*
X99420000Y-122290000D03*
X99420000Y-121020000D03*
X99420000Y-119750000D03*
X99420000Y-118480000D03*
X99420000Y-117210000D03*
X99420000Y-115940000D03*
X99420000Y-114670000D03*
X99420000Y-113400000D03*
X99420000Y-112130000D03*
X99420000Y-110860000D03*
X99420000Y-109590000D03*
X99420000Y-108320000D03*
X99420000Y-107050000D03*
X99420000Y-105780000D03*
X99420000Y-104510000D03*
X99420000Y-103240000D03*
X99420000Y-101970000D03*
%TD*%
D12*
%TO.C,C42*%
X190175000Y-123325000D03*
X192075000Y-123325000D03*
%TD*%
D26*
%TO.C,C30*%
X116775000Y-134500000D03*
X113825000Y-134500000D03*
%TD*%
D20*
%TO.C,R16*%
X213500000Y-107412500D03*
X213500000Y-105587500D03*
%TD*%
%TO.C,R17*%
X213500000Y-103912500D03*
X213500000Y-102087500D03*
%TD*%
%TO.C,R18*%
X213550000Y-100412500D03*
X213550000Y-98587500D03*
%TD*%
D27*
%TO.C,R11*%
X190575000Y-112000000D03*
X192225000Y-112000000D03*
%TD*%
D10*
%TO.C,C15*%
X183250000Y-140600000D03*
X181350000Y-140600000D03*
%TD*%
D15*
%TO.C,C16*%
X172000000Y-140000000D03*
X172000000Y-141900000D03*
%TD*%
D20*
%TO.C,R12*%
X172000000Y-145300000D03*
X172000000Y-143475000D03*
%TD*%
D24*
%TO.C,R13*%
X183212500Y-142600000D03*
X181387500Y-142600000D03*
%TD*%
D13*
%TO.C,C17*%
X174910000Y-146845000D03*
X174910000Y-144945000D03*
%TD*%
%TO.C,C18*%
X177350000Y-146800000D03*
X177350000Y-144900000D03*
%TD*%
D24*
%TO.C,R3*%
X135112500Y-118700000D03*
X133287500Y-118700000D03*
%TD*%
%TO.C,R4*%
X131637500Y-115475000D03*
X129812500Y-115475000D03*
%TD*%
D28*
%TO.C,R5*%
X108145235Y-110604765D03*
X106854765Y-111895235D03*
%TD*%
D20*
%TO.C,R6*%
X137700000Y-98000000D03*
X137700000Y-96175000D03*
%TD*%
D24*
%TO.C,R7*%
X134825000Y-108125000D03*
X133000000Y-108125000D03*
%TD*%
%TO.C,R8*%
X135112500Y-114200000D03*
X133287500Y-114200000D03*
%TD*%
D18*
%TO.C,R9*%
X216587500Y-82900000D03*
X218412500Y-82900000D03*
%TD*%
%TO.C,R10*%
X216587500Y-85700000D03*
X218412500Y-85700000D03*
%TD*%
D29*
%TO.C,U4*%
X198364977Y-91195154D03*
X198364977Y-92465154D03*
X198364977Y-93735154D03*
X198364977Y-95005154D03*
X203314977Y-95005154D03*
X203314977Y-93735154D03*
X203314977Y-92465154D03*
X203314977Y-91195154D03*
%TD*%
D27*
%TO.C,R24*%
X211175000Y-115500000D03*
X212825000Y-115500000D03*
%TD*%
D10*
%TO.C,C56*%
X91031425Y-97750000D03*
X89131425Y-97750000D03*
%TD*%
D15*
%TO.C,C41*%
X218400000Y-112100000D03*
X218400000Y-114000000D03*
%TD*%
D30*
%TO.C,RN1*%
X218400000Y-92200000D03*
D31*
X218400000Y-91400000D03*
X218400000Y-90600000D03*
D30*
X218400000Y-89800000D03*
X216600000Y-89800000D03*
D31*
X216600000Y-90600000D03*
X216600000Y-91400000D03*
D30*
X216600000Y-92200000D03*
%TD*%
D12*
%TO.C,C32*%
X172250000Y-118250000D03*
X174150000Y-118250000D03*
%TD*%
D32*
%TO.C,R22*%
X223662500Y-140500000D03*
X221837500Y-140500000D03*
%TD*%
D30*
%TO.C,RN2*%
X223500000Y-92200000D03*
D31*
X223500000Y-91400000D03*
X223500000Y-90600000D03*
D30*
X223500000Y-89800000D03*
X221700000Y-89800000D03*
D31*
X221700000Y-90600000D03*
X221700000Y-91400000D03*
D30*
X221700000Y-92200000D03*
%TD*%
D10*
%TO.C,C54*%
X90950000Y-130250000D03*
X89050000Y-130250000D03*
%TD*%
D12*
%TO.C,C4*%
X137250000Y-101300000D03*
X139150000Y-101300000D03*
%TD*%
D33*
%TO.C,R25*%
X217525000Y-115500000D03*
X215875000Y-115500000D03*
%TD*%
D12*
%TO.C,C48*%
X169050000Y-100250000D03*
X170950000Y-100250000D03*
%TD*%
D34*
%TO.C,U1*%
X140450000Y-131750000D03*
X141100000Y-131750000D03*
X141750000Y-131750000D03*
X142400000Y-131750000D03*
X143050000Y-131750000D03*
X143700000Y-131750000D03*
X144350000Y-131750000D03*
X145000000Y-131750000D03*
X145650000Y-131750000D03*
X146300000Y-131750000D03*
X146950000Y-131750000D03*
X147600000Y-131750000D03*
X148250000Y-131750000D03*
X148900000Y-131750000D03*
X149550000Y-131750000D03*
X150200000Y-131750000D03*
X150850000Y-131750000D03*
X151500000Y-131750000D03*
X152150000Y-131750000D03*
X152800000Y-131750000D03*
X153450000Y-131750000D03*
X154100000Y-131750000D03*
X154750000Y-131750000D03*
X155400000Y-131750000D03*
X156050000Y-131750000D03*
X156700000Y-131750000D03*
X157350000Y-131750000D03*
X158000000Y-131750000D03*
X158650000Y-131750000D03*
X159300000Y-131750000D03*
X159950000Y-131750000D03*
X160600000Y-131750000D03*
X161250000Y-131750000D03*
X161900000Y-131750000D03*
X162550000Y-131750000D03*
X163200000Y-131750000D03*
X163850000Y-131750000D03*
X164500000Y-131750000D03*
X165150000Y-131750000D03*
X165800000Y-131750000D03*
D35*
X168250000Y-129300000D03*
X168250000Y-128650000D03*
X168250000Y-128000000D03*
X168250000Y-127350000D03*
X168250000Y-126700000D03*
X168250000Y-126050000D03*
X168250000Y-125400000D03*
X168250000Y-124750000D03*
X168250000Y-124100000D03*
X168250000Y-123450000D03*
X168250000Y-122800000D03*
X168250000Y-122150000D03*
X168250000Y-121500000D03*
X168250000Y-120850000D03*
X168250000Y-120200000D03*
X168250000Y-119550000D03*
X168250000Y-118900000D03*
X168250000Y-118250000D03*
X168250000Y-117600000D03*
X168250000Y-116950000D03*
X168250000Y-116300000D03*
X168250000Y-115650000D03*
X168250000Y-115000000D03*
X168250000Y-114350000D03*
X168250000Y-113700000D03*
X168250000Y-113050000D03*
X168250000Y-112400000D03*
X168250000Y-111750000D03*
X168250000Y-111100000D03*
X168250000Y-110450000D03*
X168250000Y-109800000D03*
X168250000Y-109150000D03*
X168250000Y-108500000D03*
X168250000Y-107850000D03*
X168250000Y-107200000D03*
X168250000Y-106550000D03*
X168250000Y-105900000D03*
X168250000Y-105250000D03*
X168250000Y-104600000D03*
X168250000Y-103950000D03*
D34*
X165800000Y-101500000D03*
X165150000Y-101500000D03*
X164500000Y-101500000D03*
X163850000Y-101500000D03*
X163200000Y-101500000D03*
X162550000Y-101500000D03*
X161900000Y-101500000D03*
X161250000Y-101500000D03*
X160600000Y-101500000D03*
X159950000Y-101500000D03*
X159300000Y-101500000D03*
X158650000Y-101500000D03*
X158000000Y-101500000D03*
X157350000Y-101500000D03*
X156700000Y-101500000D03*
X156050000Y-101500000D03*
X155400000Y-101500000D03*
X154750000Y-101500000D03*
X154100000Y-101500000D03*
X153450000Y-101500000D03*
X152800000Y-101500000D03*
X152150000Y-101500000D03*
X151500000Y-101500000D03*
X150850000Y-101500000D03*
X150200000Y-101500000D03*
X149550000Y-101500000D03*
X148900000Y-101500000D03*
X148250000Y-101500000D03*
X147600000Y-101500000D03*
X146950000Y-101500000D03*
X146300000Y-101500000D03*
X145650000Y-101500000D03*
X145000000Y-101500000D03*
X144350000Y-101500000D03*
X143700000Y-101500000D03*
X143050000Y-101500000D03*
X142400000Y-101500000D03*
X141750000Y-101500000D03*
X141100000Y-101500000D03*
X140450000Y-101500000D03*
D35*
X138000000Y-103950000D03*
X138000000Y-104600000D03*
X138000000Y-105250000D03*
X138000000Y-105900000D03*
X138000000Y-106550000D03*
X138000000Y-107200000D03*
X138000000Y-107850000D03*
X138000000Y-108500000D03*
X138000000Y-109150000D03*
X138000000Y-109800000D03*
X138000000Y-110450000D03*
X138000000Y-111100000D03*
X138000000Y-111750000D03*
X138000000Y-112400000D03*
X138000000Y-113050000D03*
X138000000Y-113700000D03*
X138000000Y-114350000D03*
X138000000Y-115000000D03*
X138000000Y-115650000D03*
X138000000Y-116300000D03*
X138000000Y-116950000D03*
X138000000Y-117600000D03*
X138000000Y-118250000D03*
X138000000Y-118900000D03*
X138000000Y-119550000D03*
X138000000Y-120200000D03*
X138000000Y-120850000D03*
X138000000Y-121500000D03*
X138000000Y-122150000D03*
X138000000Y-122800000D03*
X138000000Y-123450000D03*
X138000000Y-124100000D03*
X138000000Y-124750000D03*
X138000000Y-125400000D03*
X138000000Y-126050000D03*
X138000000Y-126700000D03*
X138000000Y-127350000D03*
X138000000Y-128000000D03*
X138000000Y-128650000D03*
X138000000Y-129300000D03*
%TD*%
D36*
%TO.C,U5*%
X215300000Y-119562500D03*
X214030000Y-119562500D03*
X212760000Y-119562500D03*
X211490000Y-119562500D03*
D37*
X209737500Y-121320000D03*
X209737500Y-122590000D03*
X209737500Y-123860000D03*
X209737500Y-125130000D03*
X209737500Y-126400000D03*
X209737500Y-127670000D03*
X209737500Y-128940000D03*
X209737500Y-130210000D03*
X209737500Y-131480000D03*
D36*
X211490000Y-133237500D03*
X212760000Y-133237500D03*
X214030000Y-133237500D03*
X215300000Y-133237500D03*
X216570000Y-133237500D03*
X217840000Y-133237500D03*
X219110000Y-133237500D03*
D37*
X220862500Y-131480000D03*
X220862500Y-130210000D03*
X220862500Y-128940000D03*
X220862500Y-127670000D03*
X220862500Y-126400000D03*
X220862500Y-125130000D03*
X220862500Y-123860000D03*
X220862500Y-122590000D03*
X220862500Y-121320000D03*
D36*
X219110000Y-119562500D03*
X217840000Y-119562500D03*
X216570000Y-119562500D03*
%TD*%
D15*
%TO.C,C52*%
X85000000Y-106550000D03*
X85000000Y-108450000D03*
%TD*%
D11*
%TO.C,C49*%
X155421751Y-136018249D03*
X154078249Y-137361751D03*
%TD*%
D10*
%TO.C,C47*%
X135150000Y-116400000D03*
X133250000Y-116400000D03*
%TD*%
D12*
%TO.C,C11*%
X220139084Y-85700000D03*
X222039084Y-85700000D03*
%TD*%
%TO.C,C14*%
X220150000Y-82900000D03*
X222050000Y-82900000D03*
%TD*%
D13*
%TO.C,C50*%
X149100000Y-99200000D03*
X149100000Y-97300000D03*
%TD*%
M02*
