%TF.GenerationSoftware,KiCad,Pcbnew,8.0.5-dirty*%
%TF.CreationDate,2024-12-13T11:37:29-08:00*%
%TF.ProjectId,nightshade,6e696768-7473-4686-9164-652e6b696361,rev?*%
%TF.SameCoordinates,Original*%
%TF.FileFunction,Drillmap*%
%TF.FilePolarity,Positive*%
%FSLAX45Y45*%
G04 Gerber Fmt 4.5, Leading zero omitted, Abs format (unit mm)*
G04 Created by KiCad (PCBNEW 8.0.5-dirty) date 2024-12-13 11:37:29*
%MOMM*%
%LPD*%
G01*
G04 APERTURE LIST*
%ADD10C,0.050000*%
%ADD11C,0.200000*%
%ADD12C,0.100000*%
%ADD13C,0.113000*%
%ADD14C,0.323000*%
G04 APERTURE END LIST*
D10*
X23645000Y-8030000D02*
X23645000Y-14165000D01*
X23315000Y-14495000D01*
X21687500Y-14495000D01*
X21687500Y-15640000D01*
X21592500Y-15735000D01*
X13655000Y-15735000D01*
X13560000Y-15640000D01*
X13560000Y-14825000D01*
X13052500Y-14825000D01*
X13052500Y-15640000D01*
X12957500Y-15735000D01*
X8324998Y-15735000D01*
X8230000Y-15640002D01*
X8230000Y-13199962D01*
X8223376Y-7993893D01*
X8581622Y-7640000D01*
X23255000Y-7640000D01*
X23645000Y-8030000D01*
D11*
D12*
X8305000Y-13230000D02*
X8345000Y-13270000D01*
X8345000Y-13230000D02*
X8305000Y-13270000D01*
X8305000Y-13605000D02*
X8345000Y-13645000D01*
X8345000Y-13605000D02*
X8305000Y-13645000D01*
X8305000Y-14016000D02*
X8345000Y-14056000D01*
X8345000Y-14016000D02*
X8305000Y-14056000D01*
X8305000Y-14419000D02*
X8345000Y-14459000D01*
X8345000Y-14419000D02*
X8305000Y-14459000D01*
X8310000Y-9210000D02*
X8350000Y-9250000D01*
X8350000Y-9210000D02*
X8310000Y-9250000D01*
X8310000Y-9620000D02*
X8350000Y-9660000D01*
X8350000Y-9620000D02*
X8310000Y-9660000D01*
X8310000Y-9960000D02*
X8350000Y-10000000D01*
X8350000Y-9960000D02*
X8310000Y-10000000D01*
X8310000Y-10779000D02*
X8350000Y-10819000D01*
X8350000Y-10779000D02*
X8310000Y-10819000D01*
X8310000Y-11190000D02*
X8350000Y-11230000D01*
X8350000Y-11190000D02*
X8310000Y-11230000D01*
X8310000Y-11570000D02*
X8350000Y-11610000D01*
X8350000Y-11570000D02*
X8310000Y-11610000D01*
X8310000Y-11910000D02*
X8350000Y-11950000D01*
X8350000Y-11910000D02*
X8310000Y-11950000D01*
X8310000Y-12321000D02*
X8350000Y-12361000D01*
X8350000Y-12321000D02*
X8310000Y-12361000D01*
X8310000Y-12710000D02*
X8350000Y-12750000D01*
X8350000Y-12710000D02*
X8310000Y-12750000D01*
X8469000Y-14676000D02*
X8509000Y-14716000D01*
X8509000Y-14676000D02*
X8469000Y-14716000D01*
X8860000Y-9980000D02*
X8900000Y-10020000D01*
X8900000Y-9980000D02*
X8860000Y-10020000D01*
X8860801Y-10099657D02*
X8900801Y-10139657D01*
X8900801Y-10099657D02*
X8860801Y-10139657D01*
X8861311Y-9850407D02*
X8901311Y-9890407D01*
X8901311Y-9850407D02*
X8861311Y-9890407D01*
X8870000Y-10220000D02*
X8910000Y-10260000D01*
X8910000Y-10220000D02*
X8870000Y-10260000D01*
X8951443Y-12100447D02*
X8991443Y-12140447D01*
X8991443Y-12100447D02*
X8951443Y-12140447D01*
X8955000Y-10362000D02*
X8995000Y-10402000D01*
X8995000Y-10362000D02*
X8955000Y-10402000D01*
X8957699Y-11792301D02*
X8997699Y-11832301D01*
X8997699Y-11792301D02*
X8957699Y-11832301D01*
X8957898Y-11902102D02*
X8997898Y-11942102D01*
X8997898Y-11902102D02*
X8957898Y-11942102D01*
X8960000Y-11632000D02*
X9000000Y-11672000D01*
X9000000Y-11632000D02*
X8960000Y-11672000D01*
X8969000Y-13266000D02*
X9009000Y-13306000D01*
X9009000Y-13266000D02*
X8969000Y-13306000D01*
X8980000Y-11380000D02*
X9020000Y-11420000D01*
X9020000Y-11380000D02*
X8980000Y-11420000D01*
X9180000Y-12900000D02*
X9220000Y-12940000D01*
X9220000Y-12900000D02*
X9180000Y-12940000D01*
X9192120Y-9003977D02*
X9232120Y-9043977D01*
X9232120Y-9003977D02*
X9192120Y-9043977D01*
X9380000Y-11250000D02*
X9420000Y-11290000D01*
X9420000Y-11250000D02*
X9380000Y-11290000D01*
X9810000Y-10525000D02*
X9850000Y-10565000D01*
X9850000Y-10525000D02*
X9810000Y-10565000D01*
X9819626Y-10682500D02*
X9859626Y-10722500D01*
X9859626Y-10682500D02*
X9819626Y-10722500D01*
X9830000Y-9892500D02*
X9870000Y-9932500D01*
X9870000Y-9892500D02*
X9830000Y-9932500D01*
X9830000Y-10060000D02*
X9870000Y-10100000D01*
X9870000Y-10060000D02*
X9830000Y-10100000D01*
X9836330Y-10837500D02*
X9876330Y-10877500D01*
X9876330Y-10837500D02*
X9836330Y-10877500D01*
X9840000Y-9740000D02*
X9880000Y-9780000D01*
X9880000Y-9740000D02*
X9840000Y-9780000D01*
X9840432Y-11025249D02*
X9880432Y-11065249D01*
X9880432Y-11025249D02*
X9840432Y-11065249D01*
X9840500Y-10370000D02*
X9880500Y-10410000D01*
X9880500Y-10370000D02*
X9840500Y-10410000D01*
X9895549Y-9974526D02*
X9935549Y-10014526D01*
X9935549Y-9974526D02*
X9895549Y-10014526D01*
X9898669Y-10139433D02*
X9938669Y-10179433D01*
X9938669Y-10139433D02*
X9898669Y-10179433D01*
X9900000Y-10930000D02*
X9940000Y-10970000D01*
X9940000Y-10930000D02*
X9900000Y-10970000D01*
X9920399Y-10760000D02*
X9960399Y-10800000D01*
X9960399Y-10760000D02*
X9920399Y-10800000D01*
X9930000Y-10605000D02*
X9970000Y-10645000D01*
X9970000Y-10605000D02*
X9930000Y-10645000D01*
X9950399Y-10450000D02*
X9990399Y-10490000D01*
X9990399Y-10450000D02*
X9950399Y-10490000D01*
X9955000Y-11130000D02*
X9995000Y-11170000D01*
X9995000Y-11130000D02*
X9955000Y-11170000D01*
X9955000Y-11255000D02*
X9995000Y-11295000D01*
X9995000Y-11255000D02*
X9955000Y-11295000D01*
X9955000Y-11510000D02*
X9995000Y-11550000D01*
X9995000Y-11510000D02*
X9955000Y-11550000D01*
X9955000Y-11630000D02*
X9995000Y-11670000D01*
X9995000Y-11630000D02*
X9955000Y-11670000D01*
X9955000Y-11760000D02*
X9995000Y-11800000D01*
X9995000Y-11760000D02*
X9955000Y-11800000D01*
X9955000Y-11880000D02*
X9995000Y-11920000D01*
X9995000Y-11880000D02*
X9955000Y-11920000D01*
X9955000Y-12010000D02*
X9995000Y-12050000D01*
X9995000Y-12010000D02*
X9955000Y-12050000D01*
X9955000Y-12155000D02*
X9995000Y-12195000D01*
X9995000Y-12155000D02*
X9955000Y-12195000D01*
X10130000Y-12280000D02*
X10170000Y-12320000D01*
X10170000Y-12280000D02*
X10130000Y-12320000D01*
X10525000Y-9350000D02*
X10565000Y-9390000D01*
X10565000Y-9350000D02*
X10525000Y-9390000D01*
X10610000Y-12540000D02*
X10650000Y-12580000D01*
X10650000Y-12540000D02*
X10610000Y-12580000D01*
X10862500Y-14520000D02*
X10902500Y-14560000D01*
X10902500Y-14520000D02*
X10862500Y-14560000D01*
X10920000Y-9570000D02*
X10960000Y-9610000D01*
X10960000Y-9570000D02*
X10920000Y-9610000D01*
X10930000Y-10180000D02*
X10970000Y-10220000D01*
X10970000Y-10180000D02*
X10930000Y-10220000D01*
X11060000Y-11250000D02*
X11100000Y-11290000D01*
X11100000Y-11250000D02*
X11060000Y-11290000D01*
X11070000Y-11618863D02*
X11110000Y-11658863D01*
X11110000Y-11618863D02*
X11070000Y-11658863D01*
X11070000Y-11928863D02*
X11110000Y-11968863D01*
X11110000Y-11928863D02*
X11070000Y-11968863D01*
X11070000Y-12085383D02*
X11110000Y-12125383D01*
X11110000Y-12085383D02*
X11070000Y-12125383D01*
X11071164Y-11773863D02*
X11111164Y-11813863D01*
X11111164Y-11773863D02*
X11071164Y-11813863D01*
X11155000Y-12175000D02*
X11195000Y-12215000D01*
X11195000Y-12175000D02*
X11155000Y-12215000D01*
X11156898Y-12007883D02*
X11196898Y-12047883D01*
X11196898Y-12007883D02*
X11156898Y-12047883D01*
X11160000Y-11510000D02*
X11200000Y-11550000D01*
X11200000Y-11510000D02*
X11160000Y-11550000D01*
X11160000Y-11851363D02*
X11200000Y-11891363D01*
X11200000Y-11851363D02*
X11160000Y-11891363D01*
X11161116Y-11679500D02*
X11201116Y-11719500D01*
X11201116Y-11679500D02*
X11161116Y-11719500D01*
X11335000Y-10520000D02*
X11375000Y-10560000D01*
X11375000Y-10520000D02*
X11335000Y-10560000D01*
X11455000Y-10055000D02*
X11495000Y-10095000D01*
X11495000Y-10055000D02*
X11455000Y-10095000D01*
X11560000Y-12460000D02*
X11600000Y-12500000D01*
X11600000Y-12460000D02*
X11560000Y-12500000D01*
X11780000Y-9500000D02*
X11820000Y-9540000D01*
X11820000Y-9500000D02*
X11780000Y-9540000D01*
X11780000Y-12630000D02*
X11820000Y-12670000D01*
X11820000Y-12630000D02*
X11780000Y-12670000D01*
X11955000Y-12280000D02*
X11995000Y-12320000D01*
X11995000Y-12280000D02*
X11955000Y-12320000D01*
X11980000Y-10588000D02*
X12020000Y-10628000D01*
X12020000Y-10588000D02*
X11980000Y-10628000D01*
X11980000Y-10750000D02*
X12020000Y-10790000D01*
X12020000Y-10750000D02*
X11980000Y-10790000D01*
X11980000Y-10905000D02*
X12020000Y-10945000D01*
X12020000Y-10905000D02*
X11980000Y-10945000D01*
X11980000Y-11282000D02*
X12020000Y-11322000D01*
X12020000Y-11282000D02*
X11980000Y-11322000D01*
X11998405Y-10414500D02*
X12038405Y-10454500D01*
X12038405Y-10414500D02*
X11998405Y-10454500D01*
X12000000Y-9500000D02*
X12040000Y-9540000D01*
X12040000Y-9500000D02*
X12000000Y-9540000D01*
X12005000Y-9905000D02*
X12045000Y-9945000D01*
X12045000Y-9905000D02*
X12005000Y-9945000D01*
X12005000Y-10075000D02*
X12045000Y-10115000D01*
X12045000Y-10075000D02*
X12005000Y-10115000D01*
X12005000Y-10232500D02*
X12045000Y-10272500D01*
X12045000Y-10232500D02*
X12005000Y-10272500D01*
X12007487Y-9745000D02*
X12047487Y-9785000D01*
X12047487Y-9745000D02*
X12007487Y-9785000D01*
X12007500Y-11492987D02*
X12047500Y-11532987D01*
X12047500Y-11492987D02*
X12007500Y-11532987D01*
X12008601Y-11759000D02*
X12048601Y-11799000D01*
X12048601Y-11759000D02*
X12008601Y-11799000D01*
X12031263Y-11917500D02*
X12071263Y-11957500D01*
X12071263Y-11917500D02*
X12031263Y-11957500D01*
X12059263Y-12072500D02*
X12099263Y-12112500D01*
X12099263Y-12072500D02*
X12059263Y-12112500D01*
X12070207Y-11601994D02*
X12110207Y-11641994D01*
X12110207Y-11601994D02*
X12070207Y-11641994D01*
X12180000Y-12355000D02*
X12220000Y-12395000D01*
X12220000Y-12355000D02*
X12180000Y-12395000D01*
X12283324Y-11440000D02*
X12323324Y-11480000D01*
X12323324Y-11440000D02*
X12283324Y-11480000D01*
X12340000Y-11124000D02*
X12380000Y-11164000D01*
X12380000Y-11124000D02*
X12340000Y-11164000D01*
X12405000Y-10297500D02*
X12445000Y-10337500D01*
X12445000Y-10297500D02*
X12405000Y-10337500D01*
X12405199Y-9807500D02*
X12445199Y-9847500D01*
X12445199Y-9807500D02*
X12405199Y-9847500D01*
X12405199Y-10117500D02*
X12445199Y-10157500D01*
X12445199Y-10117500D02*
X12405199Y-10157500D01*
X12409159Y-9962500D02*
X12449159Y-10002500D01*
X12449159Y-9962500D02*
X12409159Y-10002500D01*
X12430000Y-11010000D02*
X12470000Y-11050000D01*
X12470000Y-11010000D02*
X12430000Y-11050000D01*
X12430000Y-11201500D02*
X12470000Y-11241500D01*
X12470000Y-11201500D02*
X12430000Y-11241500D01*
X12439938Y-10827500D02*
X12479938Y-10867500D01*
X12479938Y-10827500D02*
X12439938Y-10867500D01*
X12452500Y-12150000D02*
X12492500Y-12190000D01*
X12492500Y-12150000D02*
X12452500Y-12190000D01*
X12452553Y-10511108D02*
X12492553Y-10551108D01*
X12492553Y-10511108D02*
X12452553Y-10551108D01*
X12452657Y-11995000D02*
X12492657Y-12035000D01*
X12492657Y-11995000D02*
X12452657Y-12035000D01*
X12455000Y-13555000D02*
X12495000Y-13595000D01*
X12495000Y-13555000D02*
X12455000Y-13595000D01*
X12459781Y-11840000D02*
X12499781Y-11880000D01*
X12499781Y-11840000D02*
X12459781Y-11880000D01*
X12462164Y-10672500D02*
X12502164Y-10712500D01*
X12502164Y-10672500D02*
X12462164Y-10712500D01*
X12470741Y-11685000D02*
X12510741Y-11725000D01*
X12510741Y-11685000D02*
X12470741Y-11725000D01*
X12565000Y-9500000D02*
X12605000Y-9540000D01*
X12605000Y-9500000D02*
X12565000Y-9540000D01*
X12655000Y-13555000D02*
X12695000Y-13595000D01*
X12695000Y-13555000D02*
X12655000Y-13595000D01*
X12677000Y-9364200D02*
X12717000Y-9404200D01*
X12717000Y-9364200D02*
X12677000Y-9404200D01*
X12742070Y-14713727D02*
X12782070Y-14753727D01*
X12782070Y-14713727D02*
X12742070Y-14753727D01*
X12847901Y-14717498D02*
X12887901Y-14757498D01*
X12887901Y-14717498D02*
X12847901Y-14757498D01*
X12855000Y-13555000D02*
X12895000Y-13595000D01*
X12895000Y-13555000D02*
X12855000Y-13595000D01*
X12962500Y-11125199D02*
X13002500Y-11165199D01*
X13002500Y-11125199D02*
X12962500Y-11165199D01*
X13004500Y-10365442D02*
X13044500Y-10405442D01*
X13044500Y-10365442D02*
X13004500Y-10405442D01*
X13004500Y-12144612D02*
X13044500Y-12184612D01*
X13044500Y-12144612D02*
X13004500Y-12184612D01*
X13035000Y-9500000D02*
X13075000Y-9540000D01*
X13075000Y-9500000D02*
X13035000Y-9540000D01*
X13055000Y-13555000D02*
X13095000Y-13595000D01*
X13095000Y-13555000D02*
X13055000Y-13595000D01*
X13086336Y-12078825D02*
X13126336Y-12118825D01*
X13126336Y-12078825D02*
X13086336Y-12118825D01*
X13160493Y-10742051D02*
X13200493Y-10782051D01*
X13200493Y-10742051D02*
X13160493Y-10782051D01*
X13199753Y-12075010D02*
X13239753Y-12115010D01*
X13239753Y-12075010D02*
X13199753Y-12115010D01*
X13246973Y-10682500D02*
X13286973Y-10722500D01*
X13286973Y-10682500D02*
X13246973Y-10722500D01*
X13255000Y-13555000D02*
X13295000Y-13595000D01*
X13295000Y-13555000D02*
X13255000Y-13595000D01*
X13265000Y-11224556D02*
X13305000Y-11264556D01*
X13305000Y-11224556D02*
X13265000Y-11264556D01*
X13309682Y-12074682D02*
X13349682Y-12114682D01*
X13349682Y-12074682D02*
X13309682Y-12114682D01*
X13333611Y-10623181D02*
X13373611Y-10663181D01*
X13373611Y-10623181D02*
X13333611Y-10663181D01*
X13344500Y-12767500D02*
X13384500Y-12807500D01*
X13384500Y-12767500D02*
X13344500Y-12807500D01*
X13352500Y-10969551D02*
X13392500Y-11009551D01*
X13392500Y-10969551D02*
X13352500Y-11009551D01*
X13400000Y-14720000D02*
X13440000Y-14760000D01*
X13440000Y-14720000D02*
X13400000Y-14760000D01*
X13430320Y-10580078D02*
X13470320Y-10620078D01*
X13470320Y-10580078D02*
X13430320Y-10620078D01*
X13451179Y-12267346D02*
X13491179Y-12307346D01*
X13491179Y-12267346D02*
X13451179Y-12307346D01*
X13455000Y-13555000D02*
X13495000Y-13595000D01*
X13495000Y-13555000D02*
X13455000Y-13595000D01*
X13500000Y-11390000D02*
X13540000Y-11430000D01*
X13540000Y-11390000D02*
X13500000Y-11430000D01*
X13520000Y-11197500D02*
X13560000Y-11237500D01*
X13560000Y-11197500D02*
X13520000Y-11237500D01*
X13570000Y-9710000D02*
X13610000Y-9750000D01*
X13610000Y-9710000D02*
X13570000Y-9750000D01*
X13610000Y-12112500D02*
X13650000Y-12152500D01*
X13650000Y-12112500D02*
X13610000Y-12152500D01*
X13640000Y-10810000D02*
X13680000Y-10850000D01*
X13680000Y-10810000D02*
X13640000Y-10850000D01*
X13680000Y-13555000D02*
X13720000Y-13595000D01*
X13720000Y-13555000D02*
X13680000Y-13595000D01*
X13700000Y-11280000D02*
X13740000Y-11320000D01*
X13740000Y-11280000D02*
X13700000Y-11320000D01*
X13758832Y-10800770D02*
X13798832Y-10840770D01*
X13798832Y-10800770D02*
X13758832Y-10840770D01*
X13863604Y-10807691D02*
X13903604Y-10847691D01*
X13903604Y-10807691D02*
X13863604Y-10847691D01*
X13894681Y-12304681D02*
X13934681Y-12344681D01*
X13934681Y-12304681D02*
X13894681Y-12344681D01*
X13895000Y-11165000D02*
X13935000Y-11205000D01*
X13935000Y-11165000D02*
X13895000Y-11205000D01*
X13941104Y-10908041D02*
X13981104Y-10948041D01*
X13981104Y-10908041D02*
X13941104Y-10948041D01*
X13989997Y-12539220D02*
X14029997Y-12579220D01*
X14029997Y-12539220D02*
X13989997Y-12579220D01*
X14007000Y-9853000D02*
X14047000Y-9893000D01*
X14047000Y-9853000D02*
X14007000Y-9893000D01*
X14192699Y-9182301D02*
X14232699Y-9222301D01*
X14232699Y-9182301D02*
X14192699Y-9222301D01*
X14240000Y-12770000D02*
X14280000Y-12810000D01*
X14280000Y-12770000D02*
X14240000Y-12810000D01*
X14297693Y-9177693D02*
X14337693Y-9217693D01*
X14337693Y-9177693D02*
X14297693Y-9217693D01*
X14300000Y-9905000D02*
X14340000Y-9945000D01*
X14340000Y-9905000D02*
X14300000Y-9945000D01*
X14402564Y-9172500D02*
X14442564Y-9212500D01*
X14442564Y-9172500D02*
X14402564Y-9212500D01*
X14405000Y-12105000D02*
X14445000Y-12145000D01*
X14445000Y-12105000D02*
X14405000Y-12145000D01*
X14470000Y-14420000D02*
X14510000Y-14460000D01*
X14510000Y-14420000D02*
X14470000Y-14460000D01*
X14512166Y-9172500D02*
X14552166Y-9212500D01*
X14552166Y-9172500D02*
X14512166Y-9212500D01*
X14610000Y-8470000D02*
X14650000Y-8510000D01*
X14650000Y-8470000D02*
X14610000Y-8510000D01*
X14617140Y-9174844D02*
X14657140Y-9214844D01*
X14657140Y-9174844D02*
X14617140Y-9214844D01*
X14640000Y-14130000D02*
X14680000Y-14170000D01*
X14680000Y-14130000D02*
X14640000Y-14170000D01*
X14720000Y-14720000D02*
X14760000Y-14760000D01*
X14760000Y-14720000D02*
X14720000Y-14760000D01*
X14722114Y-9172500D02*
X14762114Y-9212500D01*
X14762114Y-9172500D02*
X14722114Y-9212500D01*
X14827114Y-9172500D02*
X14867114Y-9212500D01*
X14867114Y-9172500D02*
X14827114Y-9212500D01*
X14936716Y-9172500D02*
X14976716Y-9212500D01*
X14976716Y-9172500D02*
X14936716Y-9212500D01*
X14950000Y-14720000D02*
X14990000Y-14760000D01*
X14990000Y-14720000D02*
X14950000Y-14760000D01*
X15040000Y-9890000D02*
X15080000Y-9930000D01*
X15080000Y-9890000D02*
X15040000Y-9930000D01*
X15075000Y-9260000D02*
X15115000Y-9300000D01*
X15115000Y-9260000D02*
X15075000Y-9300000D01*
X15080000Y-12290000D02*
X15120000Y-12330000D01*
X15120000Y-12290000D02*
X15080000Y-12330000D01*
X15140000Y-8470000D02*
X15180000Y-8510000D01*
X15180000Y-8470000D02*
X15140000Y-8510000D01*
X15185000Y-14720000D02*
X15225000Y-14760000D01*
X15225000Y-14720000D02*
X15185000Y-14760000D01*
X15353000Y-12549450D02*
X15393000Y-12589450D01*
X15393000Y-12549450D02*
X15353000Y-12589450D01*
X15447500Y-14720000D02*
X15487500Y-14760000D01*
X15487500Y-14720000D02*
X15447500Y-14760000D01*
X15550000Y-12471950D02*
X15590000Y-12511950D01*
X15590000Y-12471950D02*
X15550000Y-12511950D01*
X15620000Y-13320000D02*
X15660000Y-13360000D01*
X15660000Y-13320000D02*
X15620000Y-13360000D01*
X15697500Y-14720000D02*
X15737500Y-14760000D01*
X15737500Y-14720000D02*
X15697500Y-14760000D01*
X15880000Y-10920000D02*
X15920000Y-10960000D01*
X15920000Y-10920000D02*
X15880000Y-10960000D01*
X15884000Y-12319000D02*
X15924000Y-12359000D01*
X15924000Y-12319000D02*
X15884000Y-12359000D01*
X15892500Y-13027500D02*
X15932500Y-13067500D01*
X15932500Y-13027500D02*
X15892500Y-13067500D01*
X15955000Y-14717500D02*
X15995000Y-14757500D01*
X15995000Y-14717500D02*
X15955000Y-14757500D01*
X16090500Y-9361643D02*
X16130500Y-9401643D01*
X16130500Y-9361643D02*
X16090500Y-9401643D01*
X16120000Y-10010000D02*
X16160000Y-10050000D01*
X16160000Y-10010000D02*
X16120000Y-10050000D01*
X16130000Y-8405000D02*
X16170000Y-8445000D01*
X16170000Y-8405000D02*
X16130000Y-8445000D01*
X16194430Y-12180503D02*
X16234430Y-12220503D01*
X16234430Y-12180503D02*
X16194430Y-12220503D01*
X16195500Y-12502200D02*
X16235500Y-12542200D01*
X16235500Y-12502200D02*
X16195500Y-12542200D01*
X16196486Y-12396074D02*
X16236486Y-12436074D01*
X16236486Y-12396074D02*
X16196486Y-12436074D01*
X16197500Y-12285458D02*
X16237500Y-12325458D01*
X16237500Y-12285458D02*
X16197500Y-12325458D01*
X16202500Y-14717500D02*
X16242500Y-14757500D01*
X16242500Y-14717500D02*
X16202500Y-14757500D01*
X16208500Y-9541500D02*
X16248500Y-9581500D01*
X16248500Y-9541500D02*
X16208500Y-9581500D01*
X16222500Y-9337500D02*
X16262500Y-9377500D01*
X16262500Y-9337500D02*
X16222500Y-9377500D01*
X16327500Y-9250707D02*
X16367500Y-9290707D01*
X16367500Y-9250707D02*
X16327500Y-9290707D01*
X16338683Y-9036317D02*
X16378683Y-9076317D01*
X16378683Y-9036317D02*
X16338683Y-9076317D01*
X16338882Y-9146118D02*
X16378882Y-9186118D01*
X16378882Y-9146118D02*
X16338882Y-9186118D01*
X16341967Y-8930000D02*
X16381967Y-8970000D01*
X16381967Y-8930000D02*
X16341967Y-8970000D01*
X16464964Y-12395011D02*
X16504964Y-12435011D01*
X16504964Y-12395011D02*
X16464964Y-12435011D01*
X16465000Y-12180000D02*
X16505000Y-12220000D01*
X16505000Y-12180000D02*
X16465000Y-12220000D01*
X16465000Y-12285000D02*
X16505000Y-12325000D01*
X16505000Y-12285000D02*
X16465000Y-12325000D01*
X16465000Y-14717500D02*
X16505000Y-14757500D01*
X16505000Y-14717500D02*
X16465000Y-14757500D01*
X16466500Y-12500000D02*
X16506500Y-12540000D01*
X16506500Y-12500000D02*
X16466500Y-12540000D01*
X16545000Y-8900000D02*
X16585000Y-8940000D01*
X16585000Y-8900000D02*
X16545000Y-8940000D01*
X16690000Y-14720000D02*
X16730000Y-14760000D01*
X16730000Y-14720000D02*
X16690000Y-14760000D01*
X16705000Y-14060000D02*
X16745000Y-14100000D01*
X16745000Y-14060000D02*
X16705000Y-14100000D01*
X16708829Y-9826629D02*
X16748829Y-9866629D01*
X16748829Y-9826629D02*
X16708829Y-9866629D01*
X16812500Y-12027499D02*
X16852500Y-12067499D01*
X16852500Y-12027499D02*
X16812500Y-12067499D01*
X16812500Y-12132499D02*
X16852500Y-12172499D01*
X16852500Y-12132499D02*
X16812500Y-12172499D01*
X16812500Y-12237499D02*
X16852500Y-12277499D01*
X16852500Y-12237499D02*
X16812500Y-12277499D01*
X16812500Y-12342500D02*
X16852500Y-12382500D01*
X16852500Y-12342500D02*
X16812500Y-12382500D01*
X16812500Y-12447500D02*
X16852500Y-12487500D01*
X16852500Y-12447500D02*
X16812500Y-12487500D01*
X16885000Y-9555000D02*
X16925000Y-9595000D01*
X16925000Y-9555000D02*
X16885000Y-9595000D01*
X16900000Y-14060000D02*
X16940000Y-14100000D01*
X16940000Y-14060000D02*
X16900000Y-14100000D01*
X16920000Y-11620000D02*
X16960000Y-11660000D01*
X16960000Y-11620000D02*
X16920000Y-11660000D01*
X16955999Y-10964001D02*
X16995999Y-11004001D01*
X16995999Y-10964001D02*
X16955999Y-11004001D01*
X16957500Y-14210000D02*
X16997500Y-14250000D01*
X16997500Y-14210000D02*
X16957500Y-14250000D01*
X16977500Y-14720000D02*
X17017500Y-14760000D01*
X17017500Y-14720000D02*
X16977500Y-14760000D01*
X17125000Y-9740000D02*
X17165000Y-9780000D01*
X17165000Y-9740000D02*
X17125000Y-9780000D01*
X17180000Y-13147000D02*
X17220000Y-13187000D01*
X17220000Y-13147000D02*
X17180000Y-13187000D01*
X17180000Y-13580000D02*
X17220000Y-13620000D01*
X17220000Y-13580000D02*
X17180000Y-13620000D01*
X17180000Y-14510000D02*
X17220000Y-14550000D01*
X17220000Y-14510000D02*
X17180000Y-14550000D01*
X17210000Y-14250000D02*
X17250000Y-14290000D01*
X17250000Y-14250000D02*
X17210000Y-14290000D01*
X17255176Y-11185752D02*
X17295176Y-11225752D01*
X17295176Y-11185752D02*
X17255176Y-11225752D01*
X17298000Y-12730000D02*
X17338000Y-12770000D01*
X17338000Y-12730000D02*
X17298000Y-12770000D01*
X17317846Y-11269999D02*
X17357846Y-11309999D01*
X17357846Y-11269999D02*
X17317846Y-11309999D01*
X17365511Y-12615511D02*
X17405511Y-12655511D01*
X17405511Y-12615511D02*
X17365511Y-12655511D01*
X17395000Y-11360000D02*
X17435000Y-11400000D01*
X17435000Y-11360000D02*
X17395000Y-11400000D01*
X17410000Y-10440000D02*
X17450000Y-10480000D01*
X17450000Y-10440000D02*
X17410000Y-10480000D01*
X17470322Y-12609213D02*
X17510322Y-12649213D01*
X17510322Y-12609213D02*
X17470322Y-12649213D01*
X17472500Y-14747500D02*
X17512500Y-14787500D01*
X17512500Y-14747500D02*
X17472500Y-14787500D01*
X17680000Y-10870000D02*
X17720000Y-10910000D01*
X17720000Y-10870000D02*
X17680000Y-10910000D01*
X17717500Y-14747500D02*
X17757500Y-14787500D01*
X17757500Y-14747500D02*
X17717500Y-14787500D01*
X17825000Y-11270000D02*
X17865000Y-11310000D01*
X17865000Y-11270000D02*
X17825000Y-11310000D01*
X17852500Y-9261000D02*
X17892500Y-9301000D01*
X17892500Y-9261000D02*
X17852500Y-9301000D01*
X17920000Y-9905000D02*
X17960000Y-9945000D01*
X17960000Y-9905000D02*
X17920000Y-9945000D01*
X17920000Y-10125000D02*
X17960000Y-10165000D01*
X17960000Y-10125000D02*
X17920000Y-10165000D01*
X17932301Y-11267699D02*
X17972301Y-11307699D01*
X17972301Y-11267699D02*
X17932301Y-11307699D01*
X18050000Y-14200000D02*
X18090000Y-14240000D01*
X18090000Y-14200000D02*
X18050000Y-14240000D01*
X18176051Y-14481449D02*
X18216051Y-14521449D01*
X18216051Y-14481449D02*
X18176051Y-14521449D01*
X18212500Y-13927500D02*
X18252500Y-13967500D01*
X18252500Y-13927500D02*
X18212500Y-13967500D01*
X18310000Y-9905000D02*
X18350000Y-9945000D01*
X18350000Y-9905000D02*
X18310000Y-9945000D01*
X18310000Y-10125000D02*
X18350000Y-10165000D01*
X18350000Y-10125000D02*
X18310000Y-10165000D01*
X18355000Y-11005000D02*
X18395000Y-11045000D01*
X18395000Y-11005000D02*
X18355000Y-11045000D01*
X18380000Y-11270000D02*
X18420000Y-11310000D01*
X18420000Y-11270000D02*
X18380000Y-11310000D01*
X18396250Y-14552500D02*
X18436250Y-14592500D01*
X18436250Y-14552500D02*
X18396250Y-14592500D01*
X18427549Y-12582451D02*
X18467549Y-12622451D01*
X18467549Y-12582451D02*
X18427549Y-12622451D01*
X18455000Y-13147000D02*
X18495000Y-13187000D01*
X18495000Y-13147000D02*
X18455000Y-13187000D01*
X18600000Y-13100000D02*
X18640000Y-13140000D01*
X18640000Y-13100000D02*
X18600000Y-13140000D01*
X18667000Y-13779000D02*
X18707000Y-13819000D01*
X18707000Y-13779000D02*
X18667000Y-13819000D01*
X18668949Y-12591051D02*
X18708949Y-12631051D01*
X18708949Y-12591051D02*
X18668949Y-12631051D01*
X18720000Y-9905000D02*
X18760000Y-9945000D01*
X18760000Y-9905000D02*
X18720000Y-9945000D01*
X18720000Y-10125000D02*
X18760000Y-10165000D01*
X18760000Y-10125000D02*
X18720000Y-10165000D01*
X18830000Y-8405000D02*
X18870000Y-8445000D01*
X18870000Y-8405000D02*
X18830000Y-8445000D01*
X18870000Y-14370000D02*
X18910000Y-14410000D01*
X18910000Y-14370000D02*
X18870000Y-14410000D01*
X18895327Y-8962500D02*
X18935327Y-9002500D01*
X18935327Y-8962500D02*
X18895327Y-9002500D01*
X18905000Y-9117500D02*
X18945000Y-9157500D01*
X18945000Y-9117500D02*
X18905000Y-9157500D01*
X18957199Y-14742801D02*
X18997199Y-14782801D01*
X18997199Y-14742801D02*
X18957199Y-14782801D01*
X18970000Y-13130000D02*
X19010000Y-13170000D01*
X19010000Y-13130000D02*
X18970000Y-13170000D01*
X18980000Y-9035000D02*
X19020000Y-9075000D01*
X19020000Y-9035000D02*
X18980000Y-9075000D01*
X18980000Y-9197500D02*
X19020000Y-9237500D01*
X19020000Y-9197500D02*
X18980000Y-9237500D01*
X19020000Y-14370000D02*
X19060000Y-14410000D01*
X19060000Y-14370000D02*
X19020000Y-14410000D01*
X19055000Y-12490000D02*
X19095000Y-12530000D01*
X19095000Y-12490000D02*
X19055000Y-12530000D01*
X19150000Y-9675000D02*
X19190000Y-9715000D01*
X19190000Y-9675000D02*
X19150000Y-9715000D01*
X19150000Y-9905000D02*
X19190000Y-9945000D01*
X19190000Y-9905000D02*
X19150000Y-9945000D01*
X19150000Y-10125000D02*
X19190000Y-10165000D01*
X19190000Y-10125000D02*
X19150000Y-10165000D01*
X19150000Y-10360000D02*
X19190000Y-10400000D01*
X19190000Y-10360000D02*
X19150000Y-10400000D01*
X19150000Y-14370000D02*
X19190000Y-14410000D01*
X19190000Y-14370000D02*
X19150000Y-14410000D01*
X19155000Y-11382500D02*
X19195000Y-11422500D01*
X19195000Y-11382500D02*
X19155000Y-11422500D01*
X19187000Y-12490000D02*
X19227000Y-12530000D01*
X19227000Y-12490000D02*
X19187000Y-12530000D01*
X19187000Y-13307500D02*
X19227000Y-13347500D01*
X19227000Y-13307500D02*
X19187000Y-13347500D01*
X19281051Y-11431449D02*
X19321051Y-11471449D01*
X19321051Y-11431449D02*
X19281051Y-11471449D01*
X19305000Y-11055000D02*
X19345000Y-11095000D01*
X19345000Y-11055000D02*
X19305000Y-11095000D01*
X19314000Y-13620000D02*
X19354000Y-13660000D01*
X19354000Y-13620000D02*
X19314000Y-13660000D01*
X19320000Y-14730000D02*
X19360000Y-14770000D01*
X19360000Y-14730000D02*
X19320000Y-14770000D01*
X19355000Y-13920000D02*
X19395000Y-13960000D01*
X19395000Y-13920000D02*
X19355000Y-13960000D01*
X19370000Y-12692500D02*
X19410000Y-12732500D01*
X19410000Y-12692500D02*
X19370000Y-12732500D01*
X19440852Y-11481648D02*
X19480852Y-11521648D01*
X19480852Y-11481648D02*
X19440852Y-11521648D01*
X19494000Y-12895000D02*
X19534000Y-12935000D01*
X19534000Y-12895000D02*
X19494000Y-12935000D01*
X19544957Y-11515043D02*
X19584957Y-11555043D01*
X19584957Y-11515043D02*
X19544957Y-11555043D01*
X19560000Y-9675000D02*
X19600000Y-9715000D01*
X19600000Y-9675000D02*
X19560000Y-9715000D01*
X19560000Y-9905000D02*
X19600000Y-9945000D01*
X19600000Y-9905000D02*
X19560000Y-9945000D01*
X19560000Y-10125000D02*
X19600000Y-10165000D01*
X19600000Y-10125000D02*
X19560000Y-10165000D01*
X19567500Y-13620000D02*
X19607500Y-13660000D01*
X19607500Y-13620000D02*
X19567500Y-13660000D01*
X19595000Y-13920000D02*
X19635000Y-13960000D01*
X19635000Y-13920000D02*
X19595000Y-13960000D01*
X19602500Y-12675000D02*
X19642500Y-12715000D01*
X19642500Y-12675000D02*
X19602500Y-12715000D01*
X19705000Y-11055000D02*
X19745000Y-11095000D01*
X19745000Y-11055000D02*
X19705000Y-11095000D01*
X19752500Y-14730000D02*
X19792500Y-14770000D01*
X19792500Y-14730000D02*
X19752500Y-14770000D01*
X19822000Y-13620000D02*
X19862000Y-13660000D01*
X19862000Y-13620000D02*
X19822000Y-13660000D01*
X19824000Y-12675000D02*
X19864000Y-12715000D01*
X19864000Y-12675000D02*
X19824000Y-12715000D01*
X19980000Y-9675000D02*
X20020000Y-9715000D01*
X20020000Y-9675000D02*
X19980000Y-9715000D01*
X19980000Y-9905000D02*
X20020000Y-9945000D01*
X20020000Y-9905000D02*
X19980000Y-9945000D01*
X19980000Y-10125000D02*
X20020000Y-10165000D01*
X20020000Y-10125000D02*
X19980000Y-10165000D01*
X20005000Y-11155000D02*
X20045000Y-11195000D01*
X20045000Y-11155000D02*
X20005000Y-11195000D01*
X20065000Y-14729000D02*
X20105000Y-14769000D01*
X20105000Y-14729000D02*
X20065000Y-14769000D01*
X20076000Y-13620000D02*
X20116000Y-13660000D01*
X20116000Y-13620000D02*
X20076000Y-13660000D01*
X20105000Y-10485000D02*
X20145000Y-10525000D01*
X20145000Y-10485000D02*
X20105000Y-10525000D01*
X20105000Y-10770000D02*
X20145000Y-10810000D01*
X20145000Y-10770000D02*
X20105000Y-10810000D01*
X20118916Y-12673066D02*
X20158916Y-12713066D01*
X20158916Y-12673066D02*
X20118916Y-12713066D01*
X20327500Y-14730000D02*
X20367500Y-14770000D01*
X20367500Y-14730000D02*
X20327500Y-14770000D01*
X20349844Y-12680156D02*
X20389844Y-12720156D01*
X20389844Y-12680156D02*
X20349844Y-12720156D01*
X20360000Y-13920000D02*
X20400000Y-13960000D01*
X20400000Y-13920000D02*
X20360000Y-13960000D01*
X20410000Y-9675000D02*
X20450000Y-9715000D01*
X20450000Y-9675000D02*
X20410000Y-9715000D01*
X20410000Y-9905000D02*
X20450000Y-9945000D01*
X20450000Y-9905000D02*
X20410000Y-9945000D01*
X20410000Y-10125000D02*
X20450000Y-10165000D01*
X20450000Y-10125000D02*
X20410000Y-10165000D01*
X20410000Y-10640000D02*
X20450000Y-10680000D01*
X20450000Y-10640000D02*
X20410000Y-10680000D01*
X20650000Y-14540000D02*
X20690000Y-14580000D01*
X20690000Y-14540000D02*
X20650000Y-14580000D01*
X20653000Y-14646602D02*
X20693000Y-14686602D01*
X20693000Y-14646602D02*
X20653000Y-14686602D01*
X20695156Y-12732500D02*
X20735156Y-12772500D01*
X20735156Y-12732500D02*
X20695156Y-12772500D01*
X20730000Y-8607500D02*
X20770000Y-8647500D01*
X20770000Y-8607500D02*
X20730000Y-8647500D01*
X20800156Y-12732500D02*
X20840156Y-12772500D01*
X20840156Y-12732500D02*
X20800156Y-12772500D01*
X20804098Y-12512637D02*
X20844098Y-12552637D01*
X20844098Y-12512637D02*
X20804098Y-12552637D01*
X20804669Y-12622810D02*
X20844669Y-12662810D01*
X20844669Y-12622810D02*
X20804669Y-12662810D01*
X20804853Y-12294189D02*
X20844853Y-12334189D01*
X20844853Y-12294189D02*
X20804853Y-12334189D01*
X20805220Y-12074780D02*
X20845220Y-12114780D01*
X20845220Y-12074780D02*
X20805220Y-12114780D01*
X20805531Y-12404469D02*
X20845531Y-12444469D01*
X20845531Y-12404469D02*
X20805531Y-12444469D01*
X20810160Y-12189323D02*
X20850160Y-12229323D01*
X20850160Y-12189323D02*
X20810160Y-12229323D01*
X20843111Y-14692713D02*
X20883111Y-14732713D01*
X20883111Y-14692713D02*
X20843111Y-14732713D01*
X20855000Y-9675000D02*
X20895000Y-9715000D01*
X20895000Y-9675000D02*
X20855000Y-9715000D01*
X20855000Y-9905000D02*
X20895000Y-9945000D01*
X20895000Y-9905000D02*
X20855000Y-9945000D01*
X20855000Y-10125000D02*
X20895000Y-10165000D01*
X20895000Y-10125000D02*
X20855000Y-10165000D01*
X20862500Y-13090000D02*
X20902500Y-13130000D01*
X20902500Y-13090000D02*
X20862500Y-13130000D01*
X20911016Y-14509801D02*
X20951016Y-14549801D01*
X20951016Y-14509801D02*
X20911016Y-14549801D01*
X20966765Y-14420823D02*
X21006765Y-14460823D01*
X21006765Y-14420823D02*
X20966765Y-14460823D01*
X21017190Y-14328723D02*
X21057190Y-14368723D01*
X21057190Y-14328723D02*
X21017190Y-14368723D01*
X21045000Y-11935000D02*
X21085000Y-11975000D01*
X21085000Y-11935000D02*
X21045000Y-11975000D01*
X21090409Y-13094609D02*
X21130409Y-13134609D01*
X21130409Y-13094609D02*
X21090409Y-13134609D01*
X21100000Y-11440000D02*
X21140000Y-11480000D01*
X21140000Y-11440000D02*
X21100000Y-11480000D01*
X21127550Y-14612450D02*
X21167550Y-14652450D01*
X21167550Y-14612450D02*
X21127550Y-14652450D01*
X21196227Y-13094640D02*
X21236227Y-13134640D01*
X21236227Y-13094640D02*
X21196227Y-13134640D01*
X21380000Y-13600000D02*
X21420000Y-13640000D01*
X21420000Y-13600000D02*
X21380000Y-13640000D01*
X21440000Y-13010000D02*
X21480000Y-13050000D01*
X21480000Y-13010000D02*
X21440000Y-13050000D01*
X21505000Y-11705000D02*
X21545000Y-11745000D01*
X21545000Y-11705000D02*
X21505000Y-11745000D01*
X21505000Y-14610000D02*
X21545000Y-14650000D01*
X21545000Y-14610000D02*
X21505000Y-14650000D01*
X21595000Y-12907500D02*
X21635000Y-12947500D01*
X21635000Y-12907500D02*
X21595000Y-12947500D01*
X21635147Y-12810478D02*
X21675147Y-12850478D01*
X21675147Y-12810478D02*
X21635147Y-12850478D01*
X21640000Y-13490000D02*
X21680000Y-13530000D01*
X21680000Y-13490000D02*
X21640000Y-13530000D01*
X21695000Y-10980000D02*
X21735000Y-11020000D01*
X21735000Y-10980000D02*
X21695000Y-11020000D01*
X21705000Y-14030000D02*
X21745000Y-14070000D01*
X21745000Y-14030000D02*
X21705000Y-14070000D01*
X21760000Y-8607500D02*
X21800000Y-8647500D01*
X21800000Y-8607500D02*
X21760000Y-8647500D01*
X21765000Y-13490000D02*
X21805000Y-13530000D01*
X21805000Y-13490000D02*
X21765000Y-13530000D01*
X21780000Y-11480000D02*
X21820000Y-11520000D01*
X21820000Y-11480000D02*
X21780000Y-11520000D01*
X21805000Y-10405000D02*
X21845000Y-10445000D01*
X21845000Y-10405000D02*
X21805000Y-10445000D01*
X21810000Y-9970000D02*
X21850000Y-10010000D01*
X21850000Y-9970000D02*
X21810000Y-10010000D01*
X21850000Y-12620000D02*
X21890000Y-12660000D01*
X21890000Y-12620000D02*
X21850000Y-12660000D01*
X21879801Y-12427699D02*
X21919801Y-12467699D01*
X21919801Y-12427699D02*
X21879801Y-12467699D01*
X21880000Y-9215000D02*
X21920000Y-9255000D01*
X21920000Y-9215000D02*
X21880000Y-9255000D01*
X21890000Y-13490000D02*
X21930000Y-13530000D01*
X21930000Y-13490000D02*
X21890000Y-13530000D01*
X21890063Y-12323202D02*
X21930063Y-12363202D01*
X21930063Y-12323202D02*
X21890063Y-12363202D01*
X21952500Y-13130000D02*
X21992500Y-13170000D01*
X21992500Y-13130000D02*
X21952500Y-13170000D01*
X22078124Y-9118352D02*
X22118124Y-9158352D01*
X22118124Y-9118352D02*
X22078124Y-9158352D01*
X22090000Y-10935000D02*
X22130000Y-10975000D01*
X22130000Y-10935000D02*
X22090000Y-10975000D01*
X22105000Y-14330000D02*
X22145000Y-14370000D01*
X22145000Y-14330000D02*
X22105000Y-14370000D01*
X22172500Y-12872500D02*
X22212500Y-12912500D01*
X22212500Y-12872500D02*
X22172500Y-12912500D01*
X22205000Y-11480000D02*
X22245000Y-11520000D01*
X22245000Y-11480000D02*
X22205000Y-11520000D01*
X22270000Y-8607500D02*
X22310000Y-8647500D01*
X22310000Y-8607500D02*
X22270000Y-8647500D01*
X22350000Y-12872500D02*
X22390000Y-12912500D01*
X22390000Y-12872500D02*
X22350000Y-12912500D01*
X22397500Y-8975000D02*
X22437500Y-9015000D01*
X22437500Y-8975000D02*
X22397500Y-9015000D01*
X22535000Y-14330000D02*
X22575000Y-14370000D01*
X22575000Y-14330000D02*
X22535000Y-14370000D01*
X22560000Y-10230000D02*
X22600000Y-10270000D01*
X22600000Y-10230000D02*
X22560000Y-10270000D01*
X22665000Y-11540000D02*
X22705000Y-11580000D01*
X22705000Y-11540000D02*
X22665000Y-11580000D01*
X22730000Y-10030000D02*
X22770000Y-10070000D01*
X22770000Y-10030000D02*
X22730000Y-10070000D01*
X22730000Y-14030000D02*
X22770000Y-14070000D01*
X22770000Y-14030000D02*
X22730000Y-14070000D01*
X22750000Y-8607500D02*
X22790000Y-8647500D01*
X22790000Y-8607500D02*
X22750000Y-8647500D01*
X22905000Y-11540000D02*
X22945000Y-11580000D01*
X22945000Y-11540000D02*
X22905000Y-11580000D01*
X22985000Y-14330000D02*
X23025000Y-14370000D01*
X23025000Y-14330000D02*
X22985000Y-14370000D01*
X23245000Y-8605000D02*
X23285000Y-8645000D01*
X23285000Y-8605000D02*
X23245000Y-8645000D01*
X23310000Y-11540000D02*
X23350000Y-11580000D01*
X23350000Y-11540000D02*
X23310000Y-11580000D01*
X23480000Y-9165000D02*
X23520000Y-9205000D01*
X23520000Y-9165000D02*
X23480000Y-9205000D01*
X23480000Y-9710000D02*
X23520000Y-9750000D01*
X23520000Y-9710000D02*
X23480000Y-9750000D01*
X23480000Y-10135000D02*
X23520000Y-10175000D01*
X23520000Y-10135000D02*
X23480000Y-10175000D01*
X23480000Y-10585000D02*
X23520000Y-10625000D01*
X23520000Y-10585000D02*
X23480000Y-10625000D01*
X23480000Y-10985000D02*
X23520000Y-11025000D01*
X23520000Y-10985000D02*
X23480000Y-11025000D01*
X23480000Y-11410000D02*
X23520000Y-11450000D01*
X23520000Y-11410000D02*
X23480000Y-11450000D01*
X23480000Y-11860000D02*
X23520000Y-11900000D01*
X23520000Y-11860000D02*
X23480000Y-11900000D01*
X23480000Y-12320000D02*
X23520000Y-12360000D01*
X23520000Y-12320000D02*
X23480000Y-12360000D01*
X23480000Y-12745000D02*
X23520000Y-12785000D01*
X23520000Y-12745000D02*
X23480000Y-12785000D01*
X23480000Y-13195000D02*
X23520000Y-13235000D01*
X23520000Y-13195000D02*
X23480000Y-13235000D01*
X23480000Y-13620000D02*
X23520000Y-13660000D01*
X23520000Y-13620000D02*
X23480000Y-13660000D01*
X23480000Y-14070000D02*
X23520000Y-14110000D01*
X23520000Y-14070000D02*
X23480000Y-14110000D01*
X21302500Y-11230000D02*
G75*
G02*
X21237500Y-11230000I-32500J0D01*
G01*
X21237500Y-11230000D02*
G75*
G02*
X21302500Y-11230000I32500J0D01*
G01*
X21302500Y-11357000D02*
G75*
G02*
X21237500Y-11357000I-32500J0D01*
G01*
X21237500Y-11357000D02*
G75*
G02*
X21302500Y-11357000I32500J0D01*
G01*
X21612500Y-11230000D02*
G75*
G02*
X21547500Y-11230000I-32500J0D01*
G01*
X21547500Y-11230000D02*
G75*
G02*
X21612500Y-11230000I32500J0D01*
G01*
X21612500Y-11357000D02*
G75*
G02*
X21547500Y-11357000I-32500J0D01*
G01*
X21547500Y-11357000D02*
G75*
G02*
X21612500Y-11357000I32500J0D01*
G01*
X14627000Y-7950000D02*
X14627000Y-8050000D01*
X14577000Y-8000000D02*
X14677000Y-8000000D01*
X14627000Y-8204000D02*
X14627000Y-8304000D01*
X14577000Y-8254000D02*
X14677000Y-8254000D01*
X14881000Y-7950000D02*
X14881000Y-8050000D01*
X14831000Y-8000000D02*
X14931000Y-8000000D01*
X14881000Y-8204000D02*
X14881000Y-8304000D01*
X14831000Y-8254000D02*
X14931000Y-8254000D01*
X15135000Y-7950000D02*
X15135000Y-8050000D01*
X15085000Y-8000000D02*
X15185000Y-8000000D01*
X15135000Y-8204000D02*
X15135000Y-8304000D01*
X15085000Y-8254000D02*
X15185000Y-8254000D01*
X15389000Y-7950000D02*
X15389000Y-8050000D01*
X15339000Y-8000000D02*
X15439000Y-8000000D01*
X15389000Y-8204000D02*
X15389000Y-8304000D01*
X15339000Y-8254000D02*
X15439000Y-8254000D01*
X15643000Y-7950000D02*
X15643000Y-8050000D01*
X15593000Y-8000000D02*
X15693000Y-8000000D01*
X15643000Y-8204000D02*
X15643000Y-8304000D01*
X15593000Y-8254000D02*
X15693000Y-8254000D01*
X15897000Y-7950000D02*
X15897000Y-8050000D01*
X15847000Y-8000000D02*
X15947000Y-8000000D01*
X15897000Y-8204000D02*
X15897000Y-8304000D01*
X15847000Y-8254000D02*
X15947000Y-8254000D01*
X16151000Y-7950000D02*
X16151000Y-8050000D01*
X16101000Y-8000000D02*
X16201000Y-8000000D01*
X16151000Y-8204000D02*
X16151000Y-8304000D01*
X16101000Y-8254000D02*
X16201000Y-8254000D01*
X16405000Y-7950000D02*
X16405000Y-8050000D01*
X16355000Y-8000000D02*
X16455000Y-8000000D01*
X16405000Y-8204000D02*
X16405000Y-8304000D01*
X16355000Y-8254000D02*
X16455000Y-8254000D01*
X16659000Y-7950000D02*
X16659000Y-8050000D01*
X16609000Y-8000000D02*
X16709000Y-8000000D01*
X16659000Y-8204000D02*
X16659000Y-8304000D01*
X16609000Y-8254000D02*
X16709000Y-8254000D01*
X16913000Y-7950000D02*
X16913000Y-8050000D01*
X16863000Y-8000000D02*
X16963000Y-8000000D01*
X16913000Y-8204000D02*
X16913000Y-8304000D01*
X16863000Y-8254000D02*
X16963000Y-8254000D01*
X17167000Y-7950000D02*
X17167000Y-8050000D01*
X17117000Y-8000000D02*
X17217000Y-8000000D01*
X17167000Y-8204000D02*
X17167000Y-8304000D01*
X17117000Y-8254000D02*
X17217000Y-8254000D01*
X17421000Y-7950000D02*
X17421000Y-8050000D01*
X17371000Y-8000000D02*
X17471000Y-8000000D01*
X17421000Y-8204000D02*
X17421000Y-8304000D01*
X17371000Y-8254000D02*
X17471000Y-8254000D01*
X17675000Y-7950000D02*
X17675000Y-8050000D01*
X17625000Y-8000000D02*
X17725000Y-8000000D01*
X17675000Y-8204000D02*
X17675000Y-8304000D01*
X17625000Y-8254000D02*
X17725000Y-8254000D01*
X19356000Y-14340000D02*
X19356000Y-14440000D01*
X19306000Y-14390000D02*
X19406000Y-14390000D01*
X19610000Y-14340000D02*
X19610000Y-14440000D01*
X19560000Y-14390000D02*
X19660000Y-14390000D01*
D13*
X22789952Y-10294452D02*
X22789952Y-10214548D01*
X22710048Y-10214548D01*
X22710048Y-10294452D01*
X22789952Y-10294452D01*
X22789952Y-10523452D02*
X22789952Y-10443548D01*
X22710048Y-10443548D01*
X22710048Y-10523452D01*
X22789952Y-10523452D01*
X22789952Y-10752452D02*
X22789952Y-10672548D01*
X22710048Y-10672548D01*
X22710048Y-10752452D01*
X22789952Y-10752452D01*
X22789952Y-10981452D02*
X22789952Y-10901548D01*
X22710048Y-10901548D01*
X22710048Y-10981452D01*
X22789952Y-10981452D01*
X22789952Y-11210452D02*
X22789952Y-11130548D01*
X22710048Y-11130548D01*
X22710048Y-11210452D01*
X22789952Y-11210452D01*
X23039952Y-10179952D02*
X23039952Y-10100048D01*
X22960048Y-10100048D01*
X22960048Y-10179952D01*
X23039952Y-10179952D01*
X23039952Y-10408952D02*
X23039952Y-10329048D01*
X22960048Y-10329048D01*
X22960048Y-10408952D01*
X23039952Y-10408952D01*
X23039952Y-10637952D02*
X23039952Y-10558048D01*
X22960048Y-10558048D01*
X22960048Y-10637952D01*
X23039952Y-10637952D01*
X23039952Y-10866952D02*
X23039952Y-10787048D01*
X22960048Y-10787048D01*
X22960048Y-10866952D01*
X23039952Y-10866952D01*
X23039952Y-11095952D02*
X23039952Y-11016048D01*
X22960048Y-11016048D01*
X22960048Y-11095952D01*
X23039952Y-11095952D01*
X23289952Y-10294452D02*
X23289952Y-10214548D01*
X23210048Y-10214548D01*
X23210048Y-10294452D01*
X23289952Y-10294452D01*
X23289952Y-10523452D02*
X23289952Y-10443548D01*
X23210048Y-10443548D01*
X23210048Y-10523452D01*
X23289952Y-10523452D01*
X23289952Y-10752452D02*
X23289952Y-10672548D01*
X23210048Y-10672548D01*
X23210048Y-10752452D01*
X23289952Y-10752452D01*
X23289952Y-10981452D02*
X23289952Y-10901548D01*
X23210048Y-10901548D01*
X23210048Y-10981452D01*
X23289952Y-10981452D01*
X23289952Y-11210452D02*
X23289952Y-11130548D01*
X23210048Y-11130548D01*
X23210048Y-11210452D01*
X23289952Y-11210452D01*
D14*
X23000000Y-9602000D02*
X23161500Y-9440500D01*
X23000000Y-9279000D01*
X22838500Y-9440500D01*
X23000000Y-9602000D01*
X23000000Y-12101000D02*
X23161500Y-11939500D01*
X23000000Y-11778000D01*
X22838500Y-11939500D01*
X23000000Y-12101000D01*
D11*
X8481653Y-16048984D02*
X8481653Y-15848984D01*
X8481653Y-15848984D02*
X8529272Y-15848984D01*
X8529272Y-15848984D02*
X8557844Y-15858508D01*
X8557844Y-15858508D02*
X8576891Y-15877555D01*
X8576891Y-15877555D02*
X8586415Y-15896603D01*
X8586415Y-15896603D02*
X8595939Y-15934698D01*
X8595939Y-15934698D02*
X8595939Y-15963269D01*
X8595939Y-15963269D02*
X8586415Y-16001365D01*
X8586415Y-16001365D02*
X8576891Y-16020412D01*
X8576891Y-16020412D02*
X8557844Y-16039460D01*
X8557844Y-16039460D02*
X8529272Y-16048984D01*
X8529272Y-16048984D02*
X8481653Y-16048984D01*
X8681653Y-16048984D02*
X8681653Y-15915650D01*
X8681653Y-15953746D02*
X8691177Y-15934698D01*
X8691177Y-15934698D02*
X8700701Y-15925174D01*
X8700701Y-15925174D02*
X8719749Y-15915650D01*
X8719749Y-15915650D02*
X8738796Y-15915650D01*
X8805463Y-16048984D02*
X8805463Y-15915650D01*
X8805463Y-15848984D02*
X8795939Y-15858508D01*
X8795939Y-15858508D02*
X8805463Y-15868031D01*
X8805463Y-15868031D02*
X8814987Y-15858508D01*
X8814987Y-15858508D02*
X8805463Y-15848984D01*
X8805463Y-15848984D02*
X8805463Y-15868031D01*
X8929272Y-16048984D02*
X8910225Y-16039460D01*
X8910225Y-16039460D02*
X8900701Y-16020412D01*
X8900701Y-16020412D02*
X8900701Y-15848984D01*
X9034034Y-16048984D02*
X9014987Y-16039460D01*
X9014987Y-16039460D02*
X9005463Y-16020412D01*
X9005463Y-16020412D02*
X9005463Y-15848984D01*
X9262606Y-16048984D02*
X9262606Y-15848984D01*
X9262606Y-15848984D02*
X9329272Y-15991841D01*
X9329272Y-15991841D02*
X9395939Y-15848984D01*
X9395939Y-15848984D02*
X9395939Y-16048984D01*
X9576891Y-16048984D02*
X9576891Y-15944222D01*
X9576891Y-15944222D02*
X9567368Y-15925174D01*
X9567368Y-15925174D02*
X9548320Y-15915650D01*
X9548320Y-15915650D02*
X9510225Y-15915650D01*
X9510225Y-15915650D02*
X9491177Y-15925174D01*
X9576891Y-16039460D02*
X9557844Y-16048984D01*
X9557844Y-16048984D02*
X9510225Y-16048984D01*
X9510225Y-16048984D02*
X9491177Y-16039460D01*
X9491177Y-16039460D02*
X9481653Y-16020412D01*
X9481653Y-16020412D02*
X9481653Y-16001365D01*
X9481653Y-16001365D02*
X9491177Y-15982317D01*
X9491177Y-15982317D02*
X9510225Y-15972793D01*
X9510225Y-15972793D02*
X9557844Y-15972793D01*
X9557844Y-15972793D02*
X9576891Y-15963269D01*
X9672130Y-15915650D02*
X9672130Y-16115650D01*
X9672130Y-15925174D02*
X9691177Y-15915650D01*
X9691177Y-15915650D02*
X9729272Y-15915650D01*
X9729272Y-15915650D02*
X9748320Y-15925174D01*
X9748320Y-15925174D02*
X9757844Y-15934698D01*
X9757844Y-15934698D02*
X9767368Y-15953746D01*
X9767368Y-15953746D02*
X9767368Y-16010888D01*
X9767368Y-16010888D02*
X9757844Y-16029936D01*
X9757844Y-16029936D02*
X9748320Y-16039460D01*
X9748320Y-16039460D02*
X9729272Y-16048984D01*
X9729272Y-16048984D02*
X9691177Y-16048984D01*
X9691177Y-16048984D02*
X9672130Y-16039460D01*
X9853082Y-16029936D02*
X9862606Y-16039460D01*
X9862606Y-16039460D02*
X9853082Y-16048984D01*
X9853082Y-16048984D02*
X9843558Y-16039460D01*
X9843558Y-16039460D02*
X9853082Y-16029936D01*
X9853082Y-16029936D02*
X9853082Y-16048984D01*
X9853082Y-15925174D02*
X9862606Y-15934698D01*
X9862606Y-15934698D02*
X9853082Y-15944222D01*
X9853082Y-15944222D02*
X9843558Y-15934698D01*
X9843558Y-15934698D02*
X9853082Y-15925174D01*
X9853082Y-15925174D02*
X9853082Y-15944222D01*
D12*
X8180876Y-16357500D02*
X8220876Y-16397500D01*
X8220876Y-16357500D02*
X8180876Y-16397500D01*
D11*
X8519749Y-16268984D02*
X8538796Y-16268984D01*
X8538796Y-16268984D02*
X8557844Y-16278508D01*
X8557844Y-16278508D02*
X8567368Y-16288031D01*
X8567368Y-16288031D02*
X8576891Y-16307079D01*
X8576891Y-16307079D02*
X8586415Y-16345174D01*
X8586415Y-16345174D02*
X8586415Y-16392793D01*
X8586415Y-16392793D02*
X8576891Y-16430888D01*
X8576891Y-16430888D02*
X8567368Y-16449936D01*
X8567368Y-16449936D02*
X8557844Y-16459460D01*
X8557844Y-16459460D02*
X8538796Y-16468984D01*
X8538796Y-16468984D02*
X8519749Y-16468984D01*
X8519749Y-16468984D02*
X8500701Y-16459460D01*
X8500701Y-16459460D02*
X8491177Y-16449936D01*
X8491177Y-16449936D02*
X8481653Y-16430888D01*
X8481653Y-16430888D02*
X8472130Y-16392793D01*
X8472130Y-16392793D02*
X8472130Y-16345174D01*
X8472130Y-16345174D02*
X8481653Y-16307079D01*
X8481653Y-16307079D02*
X8491177Y-16288031D01*
X8491177Y-16288031D02*
X8500701Y-16278508D01*
X8500701Y-16278508D02*
X8519749Y-16268984D01*
X8672130Y-16449936D02*
X8681653Y-16459460D01*
X8681653Y-16459460D02*
X8672130Y-16468984D01*
X8672130Y-16468984D02*
X8662606Y-16459460D01*
X8662606Y-16459460D02*
X8672130Y-16449936D01*
X8672130Y-16449936D02*
X8672130Y-16468984D01*
X8853082Y-16335650D02*
X8853082Y-16468984D01*
X8805463Y-16259460D02*
X8757844Y-16402317D01*
X8757844Y-16402317D02*
X8881653Y-16402317D01*
X8995939Y-16268984D02*
X9014987Y-16268984D01*
X9014987Y-16268984D02*
X9034034Y-16278508D01*
X9034034Y-16278508D02*
X9043558Y-16288031D01*
X9043558Y-16288031D02*
X9053082Y-16307079D01*
X9053082Y-16307079D02*
X9062606Y-16345174D01*
X9062606Y-16345174D02*
X9062606Y-16392793D01*
X9062606Y-16392793D02*
X9053082Y-16430888D01*
X9053082Y-16430888D02*
X9043558Y-16449936D01*
X9043558Y-16449936D02*
X9034034Y-16459460D01*
X9034034Y-16459460D02*
X9014987Y-16468984D01*
X9014987Y-16468984D02*
X8995939Y-16468984D01*
X8995939Y-16468984D02*
X8976891Y-16459460D01*
X8976891Y-16459460D02*
X8967368Y-16449936D01*
X8967368Y-16449936D02*
X8957844Y-16430888D01*
X8957844Y-16430888D02*
X8948320Y-16392793D01*
X8948320Y-16392793D02*
X8948320Y-16345174D01*
X8948320Y-16345174D02*
X8957844Y-16307079D01*
X8957844Y-16307079D02*
X8967368Y-16288031D01*
X8967368Y-16288031D02*
X8976891Y-16278508D01*
X8976891Y-16278508D02*
X8995939Y-16268984D01*
X9186415Y-16268984D02*
X9205463Y-16268984D01*
X9205463Y-16268984D02*
X9224511Y-16278508D01*
X9224511Y-16278508D02*
X9234034Y-16288031D01*
X9234034Y-16288031D02*
X9243558Y-16307079D01*
X9243558Y-16307079D02*
X9253082Y-16345174D01*
X9253082Y-16345174D02*
X9253082Y-16392793D01*
X9253082Y-16392793D02*
X9243558Y-16430888D01*
X9243558Y-16430888D02*
X9234034Y-16449936D01*
X9234034Y-16449936D02*
X9224511Y-16459460D01*
X9224511Y-16459460D02*
X9205463Y-16468984D01*
X9205463Y-16468984D02*
X9186415Y-16468984D01*
X9186415Y-16468984D02*
X9167368Y-16459460D01*
X9167368Y-16459460D02*
X9157844Y-16449936D01*
X9157844Y-16449936D02*
X9148320Y-16430888D01*
X9148320Y-16430888D02*
X9138796Y-16392793D01*
X9138796Y-16392793D02*
X9138796Y-16345174D01*
X9138796Y-16345174D02*
X9148320Y-16307079D01*
X9148320Y-16307079D02*
X9157844Y-16288031D01*
X9157844Y-16288031D02*
X9167368Y-16278508D01*
X9167368Y-16278508D02*
X9186415Y-16268984D01*
X9338796Y-16468984D02*
X9338796Y-16335650D01*
X9338796Y-16354698D02*
X9348320Y-16345174D01*
X9348320Y-16345174D02*
X9367368Y-16335650D01*
X9367368Y-16335650D02*
X9395939Y-16335650D01*
X9395939Y-16335650D02*
X9414987Y-16345174D01*
X9414987Y-16345174D02*
X9424511Y-16364222D01*
X9424511Y-16364222D02*
X9424511Y-16468984D01*
X9424511Y-16364222D02*
X9434034Y-16345174D01*
X9434034Y-16345174D02*
X9453082Y-16335650D01*
X9453082Y-16335650D02*
X9481653Y-16335650D01*
X9481653Y-16335650D02*
X9500701Y-16345174D01*
X9500701Y-16345174D02*
X9510225Y-16364222D01*
X9510225Y-16364222D02*
X9510225Y-16468984D01*
X9605463Y-16468984D02*
X9605463Y-16335650D01*
X9605463Y-16354698D02*
X9614987Y-16345174D01*
X9614987Y-16345174D02*
X9634034Y-16335650D01*
X9634034Y-16335650D02*
X9662606Y-16335650D01*
X9662606Y-16335650D02*
X9681653Y-16345174D01*
X9681653Y-16345174D02*
X9691177Y-16364222D01*
X9691177Y-16364222D02*
X9691177Y-16468984D01*
X9691177Y-16364222D02*
X9700701Y-16345174D01*
X9700701Y-16345174D02*
X9719749Y-16335650D01*
X9719749Y-16335650D02*
X9748320Y-16335650D01*
X9748320Y-16335650D02*
X9767368Y-16345174D01*
X9767368Y-16345174D02*
X9776892Y-16364222D01*
X9776892Y-16364222D02*
X9776892Y-16468984D01*
X10167368Y-16259460D02*
X9995939Y-16516603D01*
X10424511Y-16268984D02*
X10443558Y-16268984D01*
X10443558Y-16268984D02*
X10462606Y-16278508D01*
X10462606Y-16278508D02*
X10472130Y-16288031D01*
X10472130Y-16288031D02*
X10481654Y-16307079D01*
X10481654Y-16307079D02*
X10491177Y-16345174D01*
X10491177Y-16345174D02*
X10491177Y-16392793D01*
X10491177Y-16392793D02*
X10481654Y-16430888D01*
X10481654Y-16430888D02*
X10472130Y-16449936D01*
X10472130Y-16449936D02*
X10462606Y-16459460D01*
X10462606Y-16459460D02*
X10443558Y-16468984D01*
X10443558Y-16468984D02*
X10424511Y-16468984D01*
X10424511Y-16468984D02*
X10405463Y-16459460D01*
X10405463Y-16459460D02*
X10395939Y-16449936D01*
X10395939Y-16449936D02*
X10386415Y-16430888D01*
X10386415Y-16430888D02*
X10376892Y-16392793D01*
X10376892Y-16392793D02*
X10376892Y-16345174D01*
X10376892Y-16345174D02*
X10386415Y-16307079D01*
X10386415Y-16307079D02*
X10395939Y-16288031D01*
X10395939Y-16288031D02*
X10405463Y-16278508D01*
X10405463Y-16278508D02*
X10424511Y-16268984D01*
X10576892Y-16449936D02*
X10586415Y-16459460D01*
X10586415Y-16459460D02*
X10576892Y-16468984D01*
X10576892Y-16468984D02*
X10567368Y-16459460D01*
X10567368Y-16459460D02*
X10576892Y-16449936D01*
X10576892Y-16449936D02*
X10576892Y-16468984D01*
X10710225Y-16268984D02*
X10729273Y-16268984D01*
X10729273Y-16268984D02*
X10748320Y-16278508D01*
X10748320Y-16278508D02*
X10757844Y-16288031D01*
X10757844Y-16288031D02*
X10767368Y-16307079D01*
X10767368Y-16307079D02*
X10776892Y-16345174D01*
X10776892Y-16345174D02*
X10776892Y-16392793D01*
X10776892Y-16392793D02*
X10767368Y-16430888D01*
X10767368Y-16430888D02*
X10757844Y-16449936D01*
X10757844Y-16449936D02*
X10748320Y-16459460D01*
X10748320Y-16459460D02*
X10729273Y-16468984D01*
X10729273Y-16468984D02*
X10710225Y-16468984D01*
X10710225Y-16468984D02*
X10691177Y-16459460D01*
X10691177Y-16459460D02*
X10681654Y-16449936D01*
X10681654Y-16449936D02*
X10672130Y-16430888D01*
X10672130Y-16430888D02*
X10662606Y-16392793D01*
X10662606Y-16392793D02*
X10662606Y-16345174D01*
X10662606Y-16345174D02*
X10672130Y-16307079D01*
X10672130Y-16307079D02*
X10681654Y-16288031D01*
X10681654Y-16288031D02*
X10691177Y-16278508D01*
X10691177Y-16278508D02*
X10710225Y-16268984D01*
X10967368Y-16468984D02*
X10853082Y-16468984D01*
X10910225Y-16468984D02*
X10910225Y-16268984D01*
X10910225Y-16268984D02*
X10891177Y-16297555D01*
X10891177Y-16297555D02*
X10872130Y-16316603D01*
X10872130Y-16316603D02*
X10853082Y-16326127D01*
X11148320Y-16268984D02*
X11053082Y-16268984D01*
X11053082Y-16268984D02*
X11043558Y-16364222D01*
X11043558Y-16364222D02*
X11053082Y-16354698D01*
X11053082Y-16354698D02*
X11072130Y-16345174D01*
X11072130Y-16345174D02*
X11119749Y-16345174D01*
X11119749Y-16345174D02*
X11138796Y-16354698D01*
X11138796Y-16354698D02*
X11148320Y-16364222D01*
X11148320Y-16364222D02*
X11157844Y-16383269D01*
X11157844Y-16383269D02*
X11157844Y-16430888D01*
X11157844Y-16430888D02*
X11148320Y-16449936D01*
X11148320Y-16449936D02*
X11138796Y-16459460D01*
X11138796Y-16459460D02*
X11119749Y-16468984D01*
X11119749Y-16468984D02*
X11072130Y-16468984D01*
X11072130Y-16468984D02*
X11053082Y-16459460D01*
X11053082Y-16459460D02*
X11043558Y-16449936D01*
X11224511Y-16268984D02*
X11357844Y-16268984D01*
X11357844Y-16268984D02*
X11272130Y-16468984D01*
X11424511Y-16268984D02*
X11424511Y-16307079D01*
X11500701Y-16268984D02*
X11500701Y-16307079D01*
X11795939Y-16545174D02*
X11786415Y-16535650D01*
X11786415Y-16535650D02*
X11767368Y-16507079D01*
X11767368Y-16507079D02*
X11757844Y-16488031D01*
X11757844Y-16488031D02*
X11748320Y-16459460D01*
X11748320Y-16459460D02*
X11738796Y-16411841D01*
X11738796Y-16411841D02*
X11738796Y-16373746D01*
X11738796Y-16373746D02*
X11748320Y-16326127D01*
X11748320Y-16326127D02*
X11757844Y-16297555D01*
X11757844Y-16297555D02*
X11767368Y-16278508D01*
X11767368Y-16278508D02*
X11786415Y-16249936D01*
X11786415Y-16249936D02*
X11795939Y-16240412D01*
X11853082Y-16268984D02*
X11976892Y-16268984D01*
X11976892Y-16268984D02*
X11910225Y-16345174D01*
X11910225Y-16345174D02*
X11938796Y-16345174D01*
X11938796Y-16345174D02*
X11957844Y-16354698D01*
X11957844Y-16354698D02*
X11967368Y-16364222D01*
X11967368Y-16364222D02*
X11976892Y-16383269D01*
X11976892Y-16383269D02*
X11976892Y-16430888D01*
X11976892Y-16430888D02*
X11967368Y-16449936D01*
X11967368Y-16449936D02*
X11957844Y-16459460D01*
X11957844Y-16459460D02*
X11938796Y-16468984D01*
X11938796Y-16468984D02*
X11881654Y-16468984D01*
X11881654Y-16468984D02*
X11862606Y-16459460D01*
X11862606Y-16459460D02*
X11853082Y-16449936D01*
X12148320Y-16268984D02*
X12110225Y-16268984D01*
X12110225Y-16268984D02*
X12091177Y-16278508D01*
X12091177Y-16278508D02*
X12081654Y-16288031D01*
X12081654Y-16288031D02*
X12062606Y-16316603D01*
X12062606Y-16316603D02*
X12053082Y-16354698D01*
X12053082Y-16354698D02*
X12053082Y-16430888D01*
X12053082Y-16430888D02*
X12062606Y-16449936D01*
X12062606Y-16449936D02*
X12072130Y-16459460D01*
X12072130Y-16459460D02*
X12091177Y-16468984D01*
X12091177Y-16468984D02*
X12129273Y-16468984D01*
X12129273Y-16468984D02*
X12148320Y-16459460D01*
X12148320Y-16459460D02*
X12157844Y-16449936D01*
X12157844Y-16449936D02*
X12167368Y-16430888D01*
X12167368Y-16430888D02*
X12167368Y-16383269D01*
X12167368Y-16383269D02*
X12157844Y-16364222D01*
X12157844Y-16364222D02*
X12148320Y-16354698D01*
X12148320Y-16354698D02*
X12129273Y-16345174D01*
X12129273Y-16345174D02*
X12091177Y-16345174D01*
X12091177Y-16345174D02*
X12072130Y-16354698D01*
X12072130Y-16354698D02*
X12062606Y-16364222D01*
X12062606Y-16364222D02*
X12053082Y-16383269D01*
X12262606Y-16468984D02*
X12300701Y-16468984D01*
X12300701Y-16468984D02*
X12319749Y-16459460D01*
X12319749Y-16459460D02*
X12329273Y-16449936D01*
X12329273Y-16449936D02*
X12348320Y-16421365D01*
X12348320Y-16421365D02*
X12357844Y-16383269D01*
X12357844Y-16383269D02*
X12357844Y-16307079D01*
X12357844Y-16307079D02*
X12348320Y-16288031D01*
X12348320Y-16288031D02*
X12338796Y-16278508D01*
X12338796Y-16278508D02*
X12319749Y-16268984D01*
X12319749Y-16268984D02*
X12281654Y-16268984D01*
X12281654Y-16268984D02*
X12262606Y-16278508D01*
X12262606Y-16278508D02*
X12253082Y-16288031D01*
X12253082Y-16288031D02*
X12243558Y-16307079D01*
X12243558Y-16307079D02*
X12243558Y-16354698D01*
X12243558Y-16354698D02*
X12253082Y-16373746D01*
X12253082Y-16373746D02*
X12262606Y-16383269D01*
X12262606Y-16383269D02*
X12281654Y-16392793D01*
X12281654Y-16392793D02*
X12319749Y-16392793D01*
X12319749Y-16392793D02*
X12338796Y-16383269D01*
X12338796Y-16383269D02*
X12348320Y-16373746D01*
X12348320Y-16373746D02*
X12357844Y-16354698D01*
X12595939Y-16468984D02*
X12595939Y-16268984D01*
X12681654Y-16468984D02*
X12681654Y-16364222D01*
X12681654Y-16364222D02*
X12672130Y-16345174D01*
X12672130Y-16345174D02*
X12653082Y-16335650D01*
X12653082Y-16335650D02*
X12624511Y-16335650D01*
X12624511Y-16335650D02*
X12605463Y-16345174D01*
X12605463Y-16345174D02*
X12595939Y-16354698D01*
X12805463Y-16468984D02*
X12786416Y-16459460D01*
X12786416Y-16459460D02*
X12776892Y-16449936D01*
X12776892Y-16449936D02*
X12767368Y-16430888D01*
X12767368Y-16430888D02*
X12767368Y-16373746D01*
X12767368Y-16373746D02*
X12776892Y-16354698D01*
X12776892Y-16354698D02*
X12786416Y-16345174D01*
X12786416Y-16345174D02*
X12805463Y-16335650D01*
X12805463Y-16335650D02*
X12834035Y-16335650D01*
X12834035Y-16335650D02*
X12853082Y-16345174D01*
X12853082Y-16345174D02*
X12862606Y-16354698D01*
X12862606Y-16354698D02*
X12872130Y-16373746D01*
X12872130Y-16373746D02*
X12872130Y-16430888D01*
X12872130Y-16430888D02*
X12862606Y-16449936D01*
X12862606Y-16449936D02*
X12853082Y-16459460D01*
X12853082Y-16459460D02*
X12834035Y-16468984D01*
X12834035Y-16468984D02*
X12805463Y-16468984D01*
X12986416Y-16468984D02*
X12967368Y-16459460D01*
X12967368Y-16459460D02*
X12957844Y-16440412D01*
X12957844Y-16440412D02*
X12957844Y-16268984D01*
X13138797Y-16459460D02*
X13119749Y-16468984D01*
X13119749Y-16468984D02*
X13081654Y-16468984D01*
X13081654Y-16468984D02*
X13062606Y-16459460D01*
X13062606Y-16459460D02*
X13053082Y-16440412D01*
X13053082Y-16440412D02*
X13053082Y-16364222D01*
X13053082Y-16364222D02*
X13062606Y-16345174D01*
X13062606Y-16345174D02*
X13081654Y-16335650D01*
X13081654Y-16335650D02*
X13119749Y-16335650D01*
X13119749Y-16335650D02*
X13138797Y-16345174D01*
X13138797Y-16345174D02*
X13148320Y-16364222D01*
X13148320Y-16364222D02*
X13148320Y-16383269D01*
X13148320Y-16383269D02*
X13053082Y-16402317D01*
X13224511Y-16459460D02*
X13243558Y-16468984D01*
X13243558Y-16468984D02*
X13281654Y-16468984D01*
X13281654Y-16468984D02*
X13300701Y-16459460D01*
X13300701Y-16459460D02*
X13310225Y-16440412D01*
X13310225Y-16440412D02*
X13310225Y-16430888D01*
X13310225Y-16430888D02*
X13300701Y-16411841D01*
X13300701Y-16411841D02*
X13281654Y-16402317D01*
X13281654Y-16402317D02*
X13253082Y-16402317D01*
X13253082Y-16402317D02*
X13234035Y-16392793D01*
X13234035Y-16392793D02*
X13224511Y-16373746D01*
X13224511Y-16373746D02*
X13224511Y-16364222D01*
X13224511Y-16364222D02*
X13234035Y-16345174D01*
X13234035Y-16345174D02*
X13253082Y-16335650D01*
X13253082Y-16335650D02*
X13281654Y-16335650D01*
X13281654Y-16335650D02*
X13300701Y-16345174D01*
X13376892Y-16545174D02*
X13386416Y-16535650D01*
X13386416Y-16535650D02*
X13405463Y-16507079D01*
X13405463Y-16507079D02*
X13414987Y-16488031D01*
X13414987Y-16488031D02*
X13424511Y-16459460D01*
X13424511Y-16459460D02*
X13434035Y-16411841D01*
X13434035Y-16411841D02*
X13434035Y-16373746D01*
X13434035Y-16373746D02*
X13424511Y-16326127D01*
X13424511Y-16326127D02*
X13414987Y-16297555D01*
X13414987Y-16297555D02*
X13405463Y-16278508D01*
X13405463Y-16278508D02*
X13386416Y-16249936D01*
X13386416Y-16249936D02*
X13376892Y-16240412D01*
D12*
X8220876Y-16641500D02*
G75*
G02*
X8155876Y-16641500I-32500J0D01*
G01*
X8155876Y-16641500D02*
G75*
G02*
X8220876Y-16641500I32500J0D01*
G01*
D11*
X8519749Y-16532984D02*
X8538796Y-16532984D01*
X8538796Y-16532984D02*
X8557844Y-16542508D01*
X8557844Y-16542508D02*
X8567368Y-16552031D01*
X8567368Y-16552031D02*
X8576891Y-16571079D01*
X8576891Y-16571079D02*
X8586415Y-16609174D01*
X8586415Y-16609174D02*
X8586415Y-16656793D01*
X8586415Y-16656793D02*
X8576891Y-16694888D01*
X8576891Y-16694888D02*
X8567368Y-16713936D01*
X8567368Y-16713936D02*
X8557844Y-16723460D01*
X8557844Y-16723460D02*
X8538796Y-16732984D01*
X8538796Y-16732984D02*
X8519749Y-16732984D01*
X8519749Y-16732984D02*
X8500701Y-16723460D01*
X8500701Y-16723460D02*
X8491177Y-16713936D01*
X8491177Y-16713936D02*
X8481653Y-16694888D01*
X8481653Y-16694888D02*
X8472130Y-16656793D01*
X8472130Y-16656793D02*
X8472130Y-16609174D01*
X8472130Y-16609174D02*
X8481653Y-16571079D01*
X8481653Y-16571079D02*
X8491177Y-16552031D01*
X8491177Y-16552031D02*
X8500701Y-16542508D01*
X8500701Y-16542508D02*
X8519749Y-16532984D01*
X8672130Y-16713936D02*
X8681653Y-16723460D01*
X8681653Y-16723460D02*
X8672130Y-16732984D01*
X8672130Y-16732984D02*
X8662606Y-16723460D01*
X8662606Y-16723460D02*
X8672130Y-16713936D01*
X8672130Y-16713936D02*
X8672130Y-16732984D01*
X8853082Y-16532984D02*
X8814987Y-16532984D01*
X8814987Y-16532984D02*
X8795939Y-16542508D01*
X8795939Y-16542508D02*
X8786415Y-16552031D01*
X8786415Y-16552031D02*
X8767368Y-16580603D01*
X8767368Y-16580603D02*
X8757844Y-16618698D01*
X8757844Y-16618698D02*
X8757844Y-16694888D01*
X8757844Y-16694888D02*
X8767368Y-16713936D01*
X8767368Y-16713936D02*
X8776891Y-16723460D01*
X8776891Y-16723460D02*
X8795939Y-16732984D01*
X8795939Y-16732984D02*
X8834034Y-16732984D01*
X8834034Y-16732984D02*
X8853082Y-16723460D01*
X8853082Y-16723460D02*
X8862606Y-16713936D01*
X8862606Y-16713936D02*
X8872130Y-16694888D01*
X8872130Y-16694888D02*
X8872130Y-16647269D01*
X8872130Y-16647269D02*
X8862606Y-16628222D01*
X8862606Y-16628222D02*
X8853082Y-16618698D01*
X8853082Y-16618698D02*
X8834034Y-16609174D01*
X8834034Y-16609174D02*
X8795939Y-16609174D01*
X8795939Y-16609174D02*
X8776891Y-16618698D01*
X8776891Y-16618698D02*
X8767368Y-16628222D01*
X8767368Y-16628222D02*
X8757844Y-16647269D01*
X9053082Y-16532984D02*
X8957844Y-16532984D01*
X8957844Y-16532984D02*
X8948320Y-16628222D01*
X8948320Y-16628222D02*
X8957844Y-16618698D01*
X8957844Y-16618698D02*
X8976891Y-16609174D01*
X8976891Y-16609174D02*
X9024511Y-16609174D01*
X9024511Y-16609174D02*
X9043558Y-16618698D01*
X9043558Y-16618698D02*
X9053082Y-16628222D01*
X9053082Y-16628222D02*
X9062606Y-16647269D01*
X9062606Y-16647269D02*
X9062606Y-16694888D01*
X9062606Y-16694888D02*
X9053082Y-16713936D01*
X9053082Y-16713936D02*
X9043558Y-16723460D01*
X9043558Y-16723460D02*
X9024511Y-16732984D01*
X9024511Y-16732984D02*
X8976891Y-16732984D01*
X8976891Y-16732984D02*
X8957844Y-16723460D01*
X8957844Y-16723460D02*
X8948320Y-16713936D01*
X9186415Y-16532984D02*
X9205463Y-16532984D01*
X9205463Y-16532984D02*
X9224511Y-16542508D01*
X9224511Y-16542508D02*
X9234034Y-16552031D01*
X9234034Y-16552031D02*
X9243558Y-16571079D01*
X9243558Y-16571079D02*
X9253082Y-16609174D01*
X9253082Y-16609174D02*
X9253082Y-16656793D01*
X9253082Y-16656793D02*
X9243558Y-16694888D01*
X9243558Y-16694888D02*
X9234034Y-16713936D01*
X9234034Y-16713936D02*
X9224511Y-16723460D01*
X9224511Y-16723460D02*
X9205463Y-16732984D01*
X9205463Y-16732984D02*
X9186415Y-16732984D01*
X9186415Y-16732984D02*
X9167368Y-16723460D01*
X9167368Y-16723460D02*
X9157844Y-16713936D01*
X9157844Y-16713936D02*
X9148320Y-16694888D01*
X9148320Y-16694888D02*
X9138796Y-16656793D01*
X9138796Y-16656793D02*
X9138796Y-16609174D01*
X9138796Y-16609174D02*
X9148320Y-16571079D01*
X9148320Y-16571079D02*
X9157844Y-16552031D01*
X9157844Y-16552031D02*
X9167368Y-16542508D01*
X9167368Y-16542508D02*
X9186415Y-16532984D01*
X9338796Y-16732984D02*
X9338796Y-16599650D01*
X9338796Y-16618698D02*
X9348320Y-16609174D01*
X9348320Y-16609174D02*
X9367368Y-16599650D01*
X9367368Y-16599650D02*
X9395939Y-16599650D01*
X9395939Y-16599650D02*
X9414987Y-16609174D01*
X9414987Y-16609174D02*
X9424511Y-16628222D01*
X9424511Y-16628222D02*
X9424511Y-16732984D01*
X9424511Y-16628222D02*
X9434034Y-16609174D01*
X9434034Y-16609174D02*
X9453082Y-16599650D01*
X9453082Y-16599650D02*
X9481653Y-16599650D01*
X9481653Y-16599650D02*
X9500701Y-16609174D01*
X9500701Y-16609174D02*
X9510225Y-16628222D01*
X9510225Y-16628222D02*
X9510225Y-16732984D01*
X9605463Y-16732984D02*
X9605463Y-16599650D01*
X9605463Y-16618698D02*
X9614987Y-16609174D01*
X9614987Y-16609174D02*
X9634034Y-16599650D01*
X9634034Y-16599650D02*
X9662606Y-16599650D01*
X9662606Y-16599650D02*
X9681653Y-16609174D01*
X9681653Y-16609174D02*
X9691177Y-16628222D01*
X9691177Y-16628222D02*
X9691177Y-16732984D01*
X9691177Y-16628222D02*
X9700701Y-16609174D01*
X9700701Y-16609174D02*
X9719749Y-16599650D01*
X9719749Y-16599650D02*
X9748320Y-16599650D01*
X9748320Y-16599650D02*
X9767368Y-16609174D01*
X9767368Y-16609174D02*
X9776892Y-16628222D01*
X9776892Y-16628222D02*
X9776892Y-16732984D01*
X10167368Y-16523460D02*
X9995939Y-16780603D01*
X10424511Y-16532984D02*
X10443558Y-16532984D01*
X10443558Y-16532984D02*
X10462606Y-16542508D01*
X10462606Y-16542508D02*
X10472130Y-16552031D01*
X10472130Y-16552031D02*
X10481654Y-16571079D01*
X10481654Y-16571079D02*
X10491177Y-16609174D01*
X10491177Y-16609174D02*
X10491177Y-16656793D01*
X10491177Y-16656793D02*
X10481654Y-16694888D01*
X10481654Y-16694888D02*
X10472130Y-16713936D01*
X10472130Y-16713936D02*
X10462606Y-16723460D01*
X10462606Y-16723460D02*
X10443558Y-16732984D01*
X10443558Y-16732984D02*
X10424511Y-16732984D01*
X10424511Y-16732984D02*
X10405463Y-16723460D01*
X10405463Y-16723460D02*
X10395939Y-16713936D01*
X10395939Y-16713936D02*
X10386415Y-16694888D01*
X10386415Y-16694888D02*
X10376892Y-16656793D01*
X10376892Y-16656793D02*
X10376892Y-16609174D01*
X10376892Y-16609174D02*
X10386415Y-16571079D01*
X10386415Y-16571079D02*
X10395939Y-16552031D01*
X10395939Y-16552031D02*
X10405463Y-16542508D01*
X10405463Y-16542508D02*
X10424511Y-16532984D01*
X10576892Y-16713936D02*
X10586415Y-16723460D01*
X10586415Y-16723460D02*
X10576892Y-16732984D01*
X10576892Y-16732984D02*
X10567368Y-16723460D01*
X10567368Y-16723460D02*
X10576892Y-16713936D01*
X10576892Y-16713936D02*
X10576892Y-16732984D01*
X10710225Y-16532984D02*
X10729273Y-16532984D01*
X10729273Y-16532984D02*
X10748320Y-16542508D01*
X10748320Y-16542508D02*
X10757844Y-16552031D01*
X10757844Y-16552031D02*
X10767368Y-16571079D01*
X10767368Y-16571079D02*
X10776892Y-16609174D01*
X10776892Y-16609174D02*
X10776892Y-16656793D01*
X10776892Y-16656793D02*
X10767368Y-16694888D01*
X10767368Y-16694888D02*
X10757844Y-16713936D01*
X10757844Y-16713936D02*
X10748320Y-16723460D01*
X10748320Y-16723460D02*
X10729273Y-16732984D01*
X10729273Y-16732984D02*
X10710225Y-16732984D01*
X10710225Y-16732984D02*
X10691177Y-16723460D01*
X10691177Y-16723460D02*
X10681654Y-16713936D01*
X10681654Y-16713936D02*
X10672130Y-16694888D01*
X10672130Y-16694888D02*
X10662606Y-16656793D01*
X10662606Y-16656793D02*
X10662606Y-16609174D01*
X10662606Y-16609174D02*
X10672130Y-16571079D01*
X10672130Y-16571079D02*
X10681654Y-16552031D01*
X10681654Y-16552031D02*
X10691177Y-16542508D01*
X10691177Y-16542508D02*
X10710225Y-16532984D01*
X10853082Y-16552031D02*
X10862606Y-16542508D01*
X10862606Y-16542508D02*
X10881654Y-16532984D01*
X10881654Y-16532984D02*
X10929273Y-16532984D01*
X10929273Y-16532984D02*
X10948320Y-16542508D01*
X10948320Y-16542508D02*
X10957844Y-16552031D01*
X10957844Y-16552031D02*
X10967368Y-16571079D01*
X10967368Y-16571079D02*
X10967368Y-16590127D01*
X10967368Y-16590127D02*
X10957844Y-16618698D01*
X10957844Y-16618698D02*
X10843558Y-16732984D01*
X10843558Y-16732984D02*
X10967368Y-16732984D01*
X11148320Y-16532984D02*
X11053082Y-16532984D01*
X11053082Y-16532984D02*
X11043558Y-16628222D01*
X11043558Y-16628222D02*
X11053082Y-16618698D01*
X11053082Y-16618698D02*
X11072130Y-16609174D01*
X11072130Y-16609174D02*
X11119749Y-16609174D01*
X11119749Y-16609174D02*
X11138796Y-16618698D01*
X11138796Y-16618698D02*
X11148320Y-16628222D01*
X11148320Y-16628222D02*
X11157844Y-16647269D01*
X11157844Y-16647269D02*
X11157844Y-16694888D01*
X11157844Y-16694888D02*
X11148320Y-16713936D01*
X11148320Y-16713936D02*
X11138796Y-16723460D01*
X11138796Y-16723460D02*
X11119749Y-16732984D01*
X11119749Y-16732984D02*
X11072130Y-16732984D01*
X11072130Y-16732984D02*
X11053082Y-16723460D01*
X11053082Y-16723460D02*
X11043558Y-16713936D01*
X11329273Y-16532984D02*
X11291177Y-16532984D01*
X11291177Y-16532984D02*
X11272130Y-16542508D01*
X11272130Y-16542508D02*
X11262606Y-16552031D01*
X11262606Y-16552031D02*
X11243558Y-16580603D01*
X11243558Y-16580603D02*
X11234034Y-16618698D01*
X11234034Y-16618698D02*
X11234034Y-16694888D01*
X11234034Y-16694888D02*
X11243558Y-16713936D01*
X11243558Y-16713936D02*
X11253082Y-16723460D01*
X11253082Y-16723460D02*
X11272130Y-16732984D01*
X11272130Y-16732984D02*
X11310225Y-16732984D01*
X11310225Y-16732984D02*
X11329273Y-16723460D01*
X11329273Y-16723460D02*
X11338796Y-16713936D01*
X11338796Y-16713936D02*
X11348320Y-16694888D01*
X11348320Y-16694888D02*
X11348320Y-16647269D01*
X11348320Y-16647269D02*
X11338796Y-16628222D01*
X11338796Y-16628222D02*
X11329273Y-16618698D01*
X11329273Y-16618698D02*
X11310225Y-16609174D01*
X11310225Y-16609174D02*
X11272130Y-16609174D01*
X11272130Y-16609174D02*
X11253082Y-16618698D01*
X11253082Y-16618698D02*
X11243558Y-16628222D01*
X11243558Y-16628222D02*
X11234034Y-16647269D01*
X11424511Y-16532984D02*
X11424511Y-16571079D01*
X11500701Y-16532984D02*
X11500701Y-16571079D01*
X11795939Y-16809174D02*
X11786415Y-16799650D01*
X11786415Y-16799650D02*
X11767368Y-16771079D01*
X11767368Y-16771079D02*
X11757844Y-16752031D01*
X11757844Y-16752031D02*
X11748320Y-16723460D01*
X11748320Y-16723460D02*
X11738796Y-16675841D01*
X11738796Y-16675841D02*
X11738796Y-16637746D01*
X11738796Y-16637746D02*
X11748320Y-16590127D01*
X11748320Y-16590127D02*
X11757844Y-16561555D01*
X11757844Y-16561555D02*
X11767368Y-16542508D01*
X11767368Y-16542508D02*
X11786415Y-16513936D01*
X11786415Y-16513936D02*
X11795939Y-16504412D01*
X11957844Y-16599650D02*
X11957844Y-16732984D01*
X11910225Y-16523460D02*
X11862606Y-16666317D01*
X11862606Y-16666317D02*
X11986415Y-16666317D01*
X12214987Y-16732984D02*
X12214987Y-16532984D01*
X12300701Y-16732984D02*
X12300701Y-16628222D01*
X12300701Y-16628222D02*
X12291177Y-16609174D01*
X12291177Y-16609174D02*
X12272130Y-16599650D01*
X12272130Y-16599650D02*
X12243558Y-16599650D01*
X12243558Y-16599650D02*
X12224511Y-16609174D01*
X12224511Y-16609174D02*
X12214987Y-16618698D01*
X12424511Y-16732984D02*
X12405463Y-16723460D01*
X12405463Y-16723460D02*
X12395939Y-16713936D01*
X12395939Y-16713936D02*
X12386416Y-16694888D01*
X12386416Y-16694888D02*
X12386416Y-16637746D01*
X12386416Y-16637746D02*
X12395939Y-16618698D01*
X12395939Y-16618698D02*
X12405463Y-16609174D01*
X12405463Y-16609174D02*
X12424511Y-16599650D01*
X12424511Y-16599650D02*
X12453082Y-16599650D01*
X12453082Y-16599650D02*
X12472130Y-16609174D01*
X12472130Y-16609174D02*
X12481654Y-16618698D01*
X12481654Y-16618698D02*
X12491177Y-16637746D01*
X12491177Y-16637746D02*
X12491177Y-16694888D01*
X12491177Y-16694888D02*
X12481654Y-16713936D01*
X12481654Y-16713936D02*
X12472130Y-16723460D01*
X12472130Y-16723460D02*
X12453082Y-16732984D01*
X12453082Y-16732984D02*
X12424511Y-16732984D01*
X12605463Y-16732984D02*
X12586416Y-16723460D01*
X12586416Y-16723460D02*
X12576892Y-16704412D01*
X12576892Y-16704412D02*
X12576892Y-16532984D01*
X12757844Y-16723460D02*
X12738797Y-16732984D01*
X12738797Y-16732984D02*
X12700701Y-16732984D01*
X12700701Y-16732984D02*
X12681654Y-16723460D01*
X12681654Y-16723460D02*
X12672130Y-16704412D01*
X12672130Y-16704412D02*
X12672130Y-16628222D01*
X12672130Y-16628222D02*
X12681654Y-16609174D01*
X12681654Y-16609174D02*
X12700701Y-16599650D01*
X12700701Y-16599650D02*
X12738797Y-16599650D01*
X12738797Y-16599650D02*
X12757844Y-16609174D01*
X12757844Y-16609174D02*
X12767368Y-16628222D01*
X12767368Y-16628222D02*
X12767368Y-16647269D01*
X12767368Y-16647269D02*
X12672130Y-16666317D01*
X12843558Y-16723460D02*
X12862606Y-16732984D01*
X12862606Y-16732984D02*
X12900701Y-16732984D01*
X12900701Y-16732984D02*
X12919749Y-16723460D01*
X12919749Y-16723460D02*
X12929273Y-16704412D01*
X12929273Y-16704412D02*
X12929273Y-16694888D01*
X12929273Y-16694888D02*
X12919749Y-16675841D01*
X12919749Y-16675841D02*
X12900701Y-16666317D01*
X12900701Y-16666317D02*
X12872130Y-16666317D01*
X12872130Y-16666317D02*
X12853082Y-16656793D01*
X12853082Y-16656793D02*
X12843558Y-16637746D01*
X12843558Y-16637746D02*
X12843558Y-16628222D01*
X12843558Y-16628222D02*
X12853082Y-16609174D01*
X12853082Y-16609174D02*
X12872130Y-16599650D01*
X12872130Y-16599650D02*
X12900701Y-16599650D01*
X12900701Y-16599650D02*
X12919749Y-16609174D01*
X12995939Y-16809174D02*
X13005463Y-16799650D01*
X13005463Y-16799650D02*
X13024511Y-16771079D01*
X13024511Y-16771079D02*
X13034035Y-16752031D01*
X13034035Y-16752031D02*
X13043558Y-16723460D01*
X13043558Y-16723460D02*
X13053082Y-16675841D01*
X13053082Y-16675841D02*
X13053082Y-16637746D01*
X13053082Y-16637746D02*
X13043558Y-16590127D01*
X13043558Y-16590127D02*
X13034035Y-16561555D01*
X13034035Y-16561555D02*
X13024511Y-16542508D01*
X13024511Y-16542508D02*
X13005463Y-16513936D01*
X13005463Y-16513936D02*
X12995939Y-16504412D01*
D12*
X8170876Y-16855500D02*
X8170876Y-16955500D01*
X8120876Y-16905500D02*
X8220876Y-16905500D01*
D11*
X8586415Y-16996984D02*
X8472130Y-16996984D01*
X8529272Y-16996984D02*
X8529272Y-16796984D01*
X8529272Y-16796984D02*
X8510225Y-16825555D01*
X8510225Y-16825555D02*
X8491177Y-16844603D01*
X8491177Y-16844603D02*
X8472130Y-16854127D01*
X8672130Y-16977936D02*
X8681653Y-16987460D01*
X8681653Y-16987460D02*
X8672130Y-16996984D01*
X8672130Y-16996984D02*
X8662606Y-16987460D01*
X8662606Y-16987460D02*
X8672130Y-16977936D01*
X8672130Y-16977936D02*
X8672130Y-16996984D01*
X8805463Y-16796984D02*
X8824511Y-16796984D01*
X8824511Y-16796984D02*
X8843558Y-16806508D01*
X8843558Y-16806508D02*
X8853082Y-16816031D01*
X8853082Y-16816031D02*
X8862606Y-16835079D01*
X8862606Y-16835079D02*
X8872130Y-16873174D01*
X8872130Y-16873174D02*
X8872130Y-16920793D01*
X8872130Y-16920793D02*
X8862606Y-16958889D01*
X8862606Y-16958889D02*
X8853082Y-16977936D01*
X8853082Y-16977936D02*
X8843558Y-16987460D01*
X8843558Y-16987460D02*
X8824511Y-16996984D01*
X8824511Y-16996984D02*
X8805463Y-16996984D01*
X8805463Y-16996984D02*
X8786415Y-16987460D01*
X8786415Y-16987460D02*
X8776891Y-16977936D01*
X8776891Y-16977936D02*
X8767368Y-16958889D01*
X8767368Y-16958889D02*
X8757844Y-16920793D01*
X8757844Y-16920793D02*
X8757844Y-16873174D01*
X8757844Y-16873174D02*
X8767368Y-16835079D01*
X8767368Y-16835079D02*
X8776891Y-16816031D01*
X8776891Y-16816031D02*
X8786415Y-16806508D01*
X8786415Y-16806508D02*
X8805463Y-16796984D01*
X8995939Y-16796984D02*
X9014987Y-16796984D01*
X9014987Y-16796984D02*
X9034034Y-16806508D01*
X9034034Y-16806508D02*
X9043558Y-16816031D01*
X9043558Y-16816031D02*
X9053082Y-16835079D01*
X9053082Y-16835079D02*
X9062606Y-16873174D01*
X9062606Y-16873174D02*
X9062606Y-16920793D01*
X9062606Y-16920793D02*
X9053082Y-16958889D01*
X9053082Y-16958889D02*
X9043558Y-16977936D01*
X9043558Y-16977936D02*
X9034034Y-16987460D01*
X9034034Y-16987460D02*
X9014987Y-16996984D01*
X9014987Y-16996984D02*
X8995939Y-16996984D01*
X8995939Y-16996984D02*
X8976891Y-16987460D01*
X8976891Y-16987460D02*
X8967368Y-16977936D01*
X8967368Y-16977936D02*
X8957844Y-16958889D01*
X8957844Y-16958889D02*
X8948320Y-16920793D01*
X8948320Y-16920793D02*
X8948320Y-16873174D01*
X8948320Y-16873174D02*
X8957844Y-16835079D01*
X8957844Y-16835079D02*
X8967368Y-16816031D01*
X8967368Y-16816031D02*
X8976891Y-16806508D01*
X8976891Y-16806508D02*
X8995939Y-16796984D01*
X9186415Y-16796984D02*
X9205463Y-16796984D01*
X9205463Y-16796984D02*
X9224511Y-16806508D01*
X9224511Y-16806508D02*
X9234034Y-16816031D01*
X9234034Y-16816031D02*
X9243558Y-16835079D01*
X9243558Y-16835079D02*
X9253082Y-16873174D01*
X9253082Y-16873174D02*
X9253082Y-16920793D01*
X9253082Y-16920793D02*
X9243558Y-16958889D01*
X9243558Y-16958889D02*
X9234034Y-16977936D01*
X9234034Y-16977936D02*
X9224511Y-16987460D01*
X9224511Y-16987460D02*
X9205463Y-16996984D01*
X9205463Y-16996984D02*
X9186415Y-16996984D01*
X9186415Y-16996984D02*
X9167368Y-16987460D01*
X9167368Y-16987460D02*
X9157844Y-16977936D01*
X9157844Y-16977936D02*
X9148320Y-16958889D01*
X9148320Y-16958889D02*
X9138796Y-16920793D01*
X9138796Y-16920793D02*
X9138796Y-16873174D01*
X9138796Y-16873174D02*
X9148320Y-16835079D01*
X9148320Y-16835079D02*
X9157844Y-16816031D01*
X9157844Y-16816031D02*
X9167368Y-16806508D01*
X9167368Y-16806508D02*
X9186415Y-16796984D01*
X9338796Y-16996984D02*
X9338796Y-16863650D01*
X9338796Y-16882698D02*
X9348320Y-16873174D01*
X9348320Y-16873174D02*
X9367368Y-16863650D01*
X9367368Y-16863650D02*
X9395939Y-16863650D01*
X9395939Y-16863650D02*
X9414987Y-16873174D01*
X9414987Y-16873174D02*
X9424511Y-16892222D01*
X9424511Y-16892222D02*
X9424511Y-16996984D01*
X9424511Y-16892222D02*
X9434034Y-16873174D01*
X9434034Y-16873174D02*
X9453082Y-16863650D01*
X9453082Y-16863650D02*
X9481653Y-16863650D01*
X9481653Y-16863650D02*
X9500701Y-16873174D01*
X9500701Y-16873174D02*
X9510225Y-16892222D01*
X9510225Y-16892222D02*
X9510225Y-16996984D01*
X9605463Y-16996984D02*
X9605463Y-16863650D01*
X9605463Y-16882698D02*
X9614987Y-16873174D01*
X9614987Y-16873174D02*
X9634034Y-16863650D01*
X9634034Y-16863650D02*
X9662606Y-16863650D01*
X9662606Y-16863650D02*
X9681653Y-16873174D01*
X9681653Y-16873174D02*
X9691177Y-16892222D01*
X9691177Y-16892222D02*
X9691177Y-16996984D01*
X9691177Y-16892222D02*
X9700701Y-16873174D01*
X9700701Y-16873174D02*
X9719749Y-16863650D01*
X9719749Y-16863650D02*
X9748320Y-16863650D01*
X9748320Y-16863650D02*
X9767368Y-16873174D01*
X9767368Y-16873174D02*
X9776892Y-16892222D01*
X9776892Y-16892222D02*
X9776892Y-16996984D01*
X10167368Y-16787460D02*
X9995939Y-17044603D01*
X10424511Y-16796984D02*
X10443558Y-16796984D01*
X10443558Y-16796984D02*
X10462606Y-16806508D01*
X10462606Y-16806508D02*
X10472130Y-16816031D01*
X10472130Y-16816031D02*
X10481654Y-16835079D01*
X10481654Y-16835079D02*
X10491177Y-16873174D01*
X10491177Y-16873174D02*
X10491177Y-16920793D01*
X10491177Y-16920793D02*
X10481654Y-16958889D01*
X10481654Y-16958889D02*
X10472130Y-16977936D01*
X10472130Y-16977936D02*
X10462606Y-16987460D01*
X10462606Y-16987460D02*
X10443558Y-16996984D01*
X10443558Y-16996984D02*
X10424511Y-16996984D01*
X10424511Y-16996984D02*
X10405463Y-16987460D01*
X10405463Y-16987460D02*
X10395939Y-16977936D01*
X10395939Y-16977936D02*
X10386415Y-16958889D01*
X10386415Y-16958889D02*
X10376892Y-16920793D01*
X10376892Y-16920793D02*
X10376892Y-16873174D01*
X10376892Y-16873174D02*
X10386415Y-16835079D01*
X10386415Y-16835079D02*
X10395939Y-16816031D01*
X10395939Y-16816031D02*
X10405463Y-16806508D01*
X10405463Y-16806508D02*
X10424511Y-16796984D01*
X10576892Y-16977936D02*
X10586415Y-16987460D01*
X10586415Y-16987460D02*
X10576892Y-16996984D01*
X10576892Y-16996984D02*
X10567368Y-16987460D01*
X10567368Y-16987460D02*
X10576892Y-16977936D01*
X10576892Y-16977936D02*
X10576892Y-16996984D01*
X10710225Y-16796984D02*
X10729273Y-16796984D01*
X10729273Y-16796984D02*
X10748320Y-16806508D01*
X10748320Y-16806508D02*
X10757844Y-16816031D01*
X10757844Y-16816031D02*
X10767368Y-16835079D01*
X10767368Y-16835079D02*
X10776892Y-16873174D01*
X10776892Y-16873174D02*
X10776892Y-16920793D01*
X10776892Y-16920793D02*
X10767368Y-16958889D01*
X10767368Y-16958889D02*
X10757844Y-16977936D01*
X10757844Y-16977936D02*
X10748320Y-16987460D01*
X10748320Y-16987460D02*
X10729273Y-16996984D01*
X10729273Y-16996984D02*
X10710225Y-16996984D01*
X10710225Y-16996984D02*
X10691177Y-16987460D01*
X10691177Y-16987460D02*
X10681654Y-16977936D01*
X10681654Y-16977936D02*
X10672130Y-16958889D01*
X10672130Y-16958889D02*
X10662606Y-16920793D01*
X10662606Y-16920793D02*
X10662606Y-16873174D01*
X10662606Y-16873174D02*
X10672130Y-16835079D01*
X10672130Y-16835079D02*
X10681654Y-16816031D01*
X10681654Y-16816031D02*
X10691177Y-16806508D01*
X10691177Y-16806508D02*
X10710225Y-16796984D01*
X10843558Y-16796984D02*
X10967368Y-16796984D01*
X10967368Y-16796984D02*
X10900701Y-16873174D01*
X10900701Y-16873174D02*
X10929273Y-16873174D01*
X10929273Y-16873174D02*
X10948320Y-16882698D01*
X10948320Y-16882698D02*
X10957844Y-16892222D01*
X10957844Y-16892222D02*
X10967368Y-16911270D01*
X10967368Y-16911270D02*
X10967368Y-16958889D01*
X10967368Y-16958889D02*
X10957844Y-16977936D01*
X10957844Y-16977936D02*
X10948320Y-16987460D01*
X10948320Y-16987460D02*
X10929273Y-16996984D01*
X10929273Y-16996984D02*
X10872130Y-16996984D01*
X10872130Y-16996984D02*
X10853082Y-16987460D01*
X10853082Y-16987460D02*
X10843558Y-16977936D01*
X11062606Y-16996984D02*
X11100701Y-16996984D01*
X11100701Y-16996984D02*
X11119749Y-16987460D01*
X11119749Y-16987460D02*
X11129273Y-16977936D01*
X11129273Y-16977936D02*
X11148320Y-16949365D01*
X11148320Y-16949365D02*
X11157844Y-16911270D01*
X11157844Y-16911270D02*
X11157844Y-16835079D01*
X11157844Y-16835079D02*
X11148320Y-16816031D01*
X11148320Y-16816031D02*
X11138796Y-16806508D01*
X11138796Y-16806508D02*
X11119749Y-16796984D01*
X11119749Y-16796984D02*
X11081654Y-16796984D01*
X11081654Y-16796984D02*
X11062606Y-16806508D01*
X11062606Y-16806508D02*
X11053082Y-16816031D01*
X11053082Y-16816031D02*
X11043558Y-16835079D01*
X11043558Y-16835079D02*
X11043558Y-16882698D01*
X11043558Y-16882698D02*
X11053082Y-16901746D01*
X11053082Y-16901746D02*
X11062606Y-16911270D01*
X11062606Y-16911270D02*
X11081654Y-16920793D01*
X11081654Y-16920793D02*
X11119749Y-16920793D01*
X11119749Y-16920793D02*
X11138796Y-16911270D01*
X11138796Y-16911270D02*
X11148320Y-16901746D01*
X11148320Y-16901746D02*
X11157844Y-16882698D01*
X11329273Y-16863650D02*
X11329273Y-16996984D01*
X11281653Y-16787460D02*
X11234034Y-16930317D01*
X11234034Y-16930317D02*
X11357844Y-16930317D01*
X11424511Y-16796984D02*
X11424511Y-16835079D01*
X11500701Y-16796984D02*
X11500701Y-16835079D01*
X11795939Y-17073174D02*
X11786415Y-17063650D01*
X11786415Y-17063650D02*
X11767368Y-17035079D01*
X11767368Y-17035079D02*
X11757844Y-17016031D01*
X11757844Y-17016031D02*
X11748320Y-16987460D01*
X11748320Y-16987460D02*
X11738796Y-16939841D01*
X11738796Y-16939841D02*
X11738796Y-16901746D01*
X11738796Y-16901746D02*
X11748320Y-16854127D01*
X11748320Y-16854127D02*
X11757844Y-16825555D01*
X11757844Y-16825555D02*
X11767368Y-16806508D01*
X11767368Y-16806508D02*
X11786415Y-16777936D01*
X11786415Y-16777936D02*
X11795939Y-16768412D01*
X11862606Y-16816031D02*
X11872130Y-16806508D01*
X11872130Y-16806508D02*
X11891177Y-16796984D01*
X11891177Y-16796984D02*
X11938796Y-16796984D01*
X11938796Y-16796984D02*
X11957844Y-16806508D01*
X11957844Y-16806508D02*
X11967368Y-16816031D01*
X11967368Y-16816031D02*
X11976892Y-16835079D01*
X11976892Y-16835079D02*
X11976892Y-16854127D01*
X11976892Y-16854127D02*
X11967368Y-16882698D01*
X11967368Y-16882698D02*
X11853082Y-16996984D01*
X11853082Y-16996984D02*
X11976892Y-16996984D01*
X12091177Y-16882698D02*
X12072130Y-16873174D01*
X12072130Y-16873174D02*
X12062606Y-16863650D01*
X12062606Y-16863650D02*
X12053082Y-16844603D01*
X12053082Y-16844603D02*
X12053082Y-16835079D01*
X12053082Y-16835079D02*
X12062606Y-16816031D01*
X12062606Y-16816031D02*
X12072130Y-16806508D01*
X12072130Y-16806508D02*
X12091177Y-16796984D01*
X12091177Y-16796984D02*
X12129273Y-16796984D01*
X12129273Y-16796984D02*
X12148320Y-16806508D01*
X12148320Y-16806508D02*
X12157844Y-16816031D01*
X12157844Y-16816031D02*
X12167368Y-16835079D01*
X12167368Y-16835079D02*
X12167368Y-16844603D01*
X12167368Y-16844603D02*
X12157844Y-16863650D01*
X12157844Y-16863650D02*
X12148320Y-16873174D01*
X12148320Y-16873174D02*
X12129273Y-16882698D01*
X12129273Y-16882698D02*
X12091177Y-16882698D01*
X12091177Y-16882698D02*
X12072130Y-16892222D01*
X12072130Y-16892222D02*
X12062606Y-16901746D01*
X12062606Y-16901746D02*
X12053082Y-16920793D01*
X12053082Y-16920793D02*
X12053082Y-16958889D01*
X12053082Y-16958889D02*
X12062606Y-16977936D01*
X12062606Y-16977936D02*
X12072130Y-16987460D01*
X12072130Y-16987460D02*
X12091177Y-16996984D01*
X12091177Y-16996984D02*
X12129273Y-16996984D01*
X12129273Y-16996984D02*
X12148320Y-16987460D01*
X12148320Y-16987460D02*
X12157844Y-16977936D01*
X12157844Y-16977936D02*
X12167368Y-16958889D01*
X12167368Y-16958889D02*
X12167368Y-16920793D01*
X12167368Y-16920793D02*
X12157844Y-16901746D01*
X12157844Y-16901746D02*
X12148320Y-16892222D01*
X12148320Y-16892222D02*
X12129273Y-16882698D01*
X12405463Y-16996984D02*
X12405463Y-16796984D01*
X12491177Y-16996984D02*
X12491177Y-16892222D01*
X12491177Y-16892222D02*
X12481654Y-16873174D01*
X12481654Y-16873174D02*
X12462606Y-16863650D01*
X12462606Y-16863650D02*
X12434035Y-16863650D01*
X12434035Y-16863650D02*
X12414987Y-16873174D01*
X12414987Y-16873174D02*
X12405463Y-16882698D01*
X12614987Y-16996984D02*
X12595939Y-16987460D01*
X12595939Y-16987460D02*
X12586416Y-16977936D01*
X12586416Y-16977936D02*
X12576892Y-16958889D01*
X12576892Y-16958889D02*
X12576892Y-16901746D01*
X12576892Y-16901746D02*
X12586416Y-16882698D01*
X12586416Y-16882698D02*
X12595939Y-16873174D01*
X12595939Y-16873174D02*
X12614987Y-16863650D01*
X12614987Y-16863650D02*
X12643558Y-16863650D01*
X12643558Y-16863650D02*
X12662606Y-16873174D01*
X12662606Y-16873174D02*
X12672130Y-16882698D01*
X12672130Y-16882698D02*
X12681654Y-16901746D01*
X12681654Y-16901746D02*
X12681654Y-16958889D01*
X12681654Y-16958889D02*
X12672130Y-16977936D01*
X12672130Y-16977936D02*
X12662606Y-16987460D01*
X12662606Y-16987460D02*
X12643558Y-16996984D01*
X12643558Y-16996984D02*
X12614987Y-16996984D01*
X12795939Y-16996984D02*
X12776892Y-16987460D01*
X12776892Y-16987460D02*
X12767368Y-16968412D01*
X12767368Y-16968412D02*
X12767368Y-16796984D01*
X12948320Y-16987460D02*
X12929273Y-16996984D01*
X12929273Y-16996984D02*
X12891177Y-16996984D01*
X12891177Y-16996984D02*
X12872130Y-16987460D01*
X12872130Y-16987460D02*
X12862606Y-16968412D01*
X12862606Y-16968412D02*
X12862606Y-16892222D01*
X12862606Y-16892222D02*
X12872130Y-16873174D01*
X12872130Y-16873174D02*
X12891177Y-16863650D01*
X12891177Y-16863650D02*
X12929273Y-16863650D01*
X12929273Y-16863650D02*
X12948320Y-16873174D01*
X12948320Y-16873174D02*
X12957844Y-16892222D01*
X12957844Y-16892222D02*
X12957844Y-16911270D01*
X12957844Y-16911270D02*
X12862606Y-16930317D01*
X13034035Y-16987460D02*
X13053082Y-16996984D01*
X13053082Y-16996984D02*
X13091177Y-16996984D01*
X13091177Y-16996984D02*
X13110225Y-16987460D01*
X13110225Y-16987460D02*
X13119749Y-16968412D01*
X13119749Y-16968412D02*
X13119749Y-16958889D01*
X13119749Y-16958889D02*
X13110225Y-16939841D01*
X13110225Y-16939841D02*
X13091177Y-16930317D01*
X13091177Y-16930317D02*
X13062606Y-16930317D01*
X13062606Y-16930317D02*
X13043558Y-16920793D01*
X13043558Y-16920793D02*
X13034035Y-16901746D01*
X13034035Y-16901746D02*
X13034035Y-16892222D01*
X13034035Y-16892222D02*
X13043558Y-16873174D01*
X13043558Y-16873174D02*
X13062606Y-16863650D01*
X13062606Y-16863650D02*
X13091177Y-16863650D01*
X13091177Y-16863650D02*
X13110225Y-16873174D01*
X13186416Y-17073174D02*
X13195939Y-17063650D01*
X13195939Y-17063650D02*
X13214987Y-17035079D01*
X13214987Y-17035079D02*
X13224511Y-17016031D01*
X13224511Y-17016031D02*
X13234035Y-16987460D01*
X13234035Y-16987460D02*
X13243558Y-16939841D01*
X13243558Y-16939841D02*
X13243558Y-16901746D01*
X13243558Y-16901746D02*
X13234035Y-16854127D01*
X13234035Y-16854127D02*
X13224511Y-16825555D01*
X13224511Y-16825555D02*
X13214987Y-16806508D01*
X13214987Y-16806508D02*
X13195939Y-16777936D01*
X13195939Y-16777936D02*
X13186416Y-16768412D01*
D13*
X8204328Y-17209452D02*
X8204328Y-17129548D01*
X8124425Y-17129548D01*
X8124425Y-17209452D01*
X8204328Y-17209452D01*
D11*
X8586415Y-17260984D02*
X8472130Y-17260984D01*
X8529272Y-17260984D02*
X8529272Y-17060984D01*
X8529272Y-17060984D02*
X8510225Y-17089555D01*
X8510225Y-17089555D02*
X8491177Y-17108603D01*
X8491177Y-17108603D02*
X8472130Y-17118127D01*
X8672130Y-17241936D02*
X8681653Y-17251460D01*
X8681653Y-17251460D02*
X8672130Y-17260984D01*
X8672130Y-17260984D02*
X8662606Y-17251460D01*
X8662606Y-17251460D02*
X8672130Y-17241936D01*
X8672130Y-17241936D02*
X8672130Y-17260984D01*
X8872130Y-17260984D02*
X8757844Y-17260984D01*
X8814987Y-17260984D02*
X8814987Y-17060984D01*
X8814987Y-17060984D02*
X8795939Y-17089555D01*
X8795939Y-17089555D02*
X8776891Y-17108603D01*
X8776891Y-17108603D02*
X8757844Y-17118127D01*
X8938796Y-17060984D02*
X9062606Y-17060984D01*
X9062606Y-17060984D02*
X8995939Y-17137174D01*
X8995939Y-17137174D02*
X9024511Y-17137174D01*
X9024511Y-17137174D02*
X9043558Y-17146698D01*
X9043558Y-17146698D02*
X9053082Y-17156222D01*
X9053082Y-17156222D02*
X9062606Y-17175270D01*
X9062606Y-17175270D02*
X9062606Y-17222889D01*
X9062606Y-17222889D02*
X9053082Y-17241936D01*
X9053082Y-17241936D02*
X9043558Y-17251460D01*
X9043558Y-17251460D02*
X9024511Y-17260984D01*
X9024511Y-17260984D02*
X8967368Y-17260984D01*
X8967368Y-17260984D02*
X8948320Y-17251460D01*
X8948320Y-17251460D02*
X8938796Y-17241936D01*
X9186415Y-17060984D02*
X9205463Y-17060984D01*
X9205463Y-17060984D02*
X9224511Y-17070508D01*
X9224511Y-17070508D02*
X9234034Y-17080031D01*
X9234034Y-17080031D02*
X9243558Y-17099079D01*
X9243558Y-17099079D02*
X9253082Y-17137174D01*
X9253082Y-17137174D02*
X9253082Y-17184793D01*
X9253082Y-17184793D02*
X9243558Y-17222889D01*
X9243558Y-17222889D02*
X9234034Y-17241936D01*
X9234034Y-17241936D02*
X9224511Y-17251460D01*
X9224511Y-17251460D02*
X9205463Y-17260984D01*
X9205463Y-17260984D02*
X9186415Y-17260984D01*
X9186415Y-17260984D02*
X9167368Y-17251460D01*
X9167368Y-17251460D02*
X9157844Y-17241936D01*
X9157844Y-17241936D02*
X9148320Y-17222889D01*
X9148320Y-17222889D02*
X9138796Y-17184793D01*
X9138796Y-17184793D02*
X9138796Y-17137174D01*
X9138796Y-17137174D02*
X9148320Y-17099079D01*
X9148320Y-17099079D02*
X9157844Y-17080031D01*
X9157844Y-17080031D02*
X9167368Y-17070508D01*
X9167368Y-17070508D02*
X9186415Y-17060984D01*
X9338796Y-17260984D02*
X9338796Y-17127650D01*
X9338796Y-17146698D02*
X9348320Y-17137174D01*
X9348320Y-17137174D02*
X9367368Y-17127650D01*
X9367368Y-17127650D02*
X9395939Y-17127650D01*
X9395939Y-17127650D02*
X9414987Y-17137174D01*
X9414987Y-17137174D02*
X9424511Y-17156222D01*
X9424511Y-17156222D02*
X9424511Y-17260984D01*
X9424511Y-17156222D02*
X9434034Y-17137174D01*
X9434034Y-17137174D02*
X9453082Y-17127650D01*
X9453082Y-17127650D02*
X9481653Y-17127650D01*
X9481653Y-17127650D02*
X9500701Y-17137174D01*
X9500701Y-17137174D02*
X9510225Y-17156222D01*
X9510225Y-17156222D02*
X9510225Y-17260984D01*
X9605463Y-17260984D02*
X9605463Y-17127650D01*
X9605463Y-17146698D02*
X9614987Y-17137174D01*
X9614987Y-17137174D02*
X9634034Y-17127650D01*
X9634034Y-17127650D02*
X9662606Y-17127650D01*
X9662606Y-17127650D02*
X9681653Y-17137174D01*
X9681653Y-17137174D02*
X9691177Y-17156222D01*
X9691177Y-17156222D02*
X9691177Y-17260984D01*
X9691177Y-17156222D02*
X9700701Y-17137174D01*
X9700701Y-17137174D02*
X9719749Y-17127650D01*
X9719749Y-17127650D02*
X9748320Y-17127650D01*
X9748320Y-17127650D02*
X9767368Y-17137174D01*
X9767368Y-17137174D02*
X9776892Y-17156222D01*
X9776892Y-17156222D02*
X9776892Y-17260984D01*
X10167368Y-17051460D02*
X9995939Y-17308603D01*
X10424511Y-17060984D02*
X10443558Y-17060984D01*
X10443558Y-17060984D02*
X10462606Y-17070508D01*
X10462606Y-17070508D02*
X10472130Y-17080031D01*
X10472130Y-17080031D02*
X10481654Y-17099079D01*
X10481654Y-17099079D02*
X10491177Y-17137174D01*
X10491177Y-17137174D02*
X10491177Y-17184793D01*
X10491177Y-17184793D02*
X10481654Y-17222889D01*
X10481654Y-17222889D02*
X10472130Y-17241936D01*
X10472130Y-17241936D02*
X10462606Y-17251460D01*
X10462606Y-17251460D02*
X10443558Y-17260984D01*
X10443558Y-17260984D02*
X10424511Y-17260984D01*
X10424511Y-17260984D02*
X10405463Y-17251460D01*
X10405463Y-17251460D02*
X10395939Y-17241936D01*
X10395939Y-17241936D02*
X10386415Y-17222889D01*
X10386415Y-17222889D02*
X10376892Y-17184793D01*
X10376892Y-17184793D02*
X10376892Y-17137174D01*
X10376892Y-17137174D02*
X10386415Y-17099079D01*
X10386415Y-17099079D02*
X10395939Y-17080031D01*
X10395939Y-17080031D02*
X10405463Y-17070508D01*
X10405463Y-17070508D02*
X10424511Y-17060984D01*
X10576892Y-17241936D02*
X10586415Y-17251460D01*
X10586415Y-17251460D02*
X10576892Y-17260984D01*
X10576892Y-17260984D02*
X10567368Y-17251460D01*
X10567368Y-17251460D02*
X10576892Y-17241936D01*
X10576892Y-17241936D02*
X10576892Y-17260984D01*
X10710225Y-17060984D02*
X10729273Y-17060984D01*
X10729273Y-17060984D02*
X10748320Y-17070508D01*
X10748320Y-17070508D02*
X10757844Y-17080031D01*
X10757844Y-17080031D02*
X10767368Y-17099079D01*
X10767368Y-17099079D02*
X10776892Y-17137174D01*
X10776892Y-17137174D02*
X10776892Y-17184793D01*
X10776892Y-17184793D02*
X10767368Y-17222889D01*
X10767368Y-17222889D02*
X10757844Y-17241936D01*
X10757844Y-17241936D02*
X10748320Y-17251460D01*
X10748320Y-17251460D02*
X10729273Y-17260984D01*
X10729273Y-17260984D02*
X10710225Y-17260984D01*
X10710225Y-17260984D02*
X10691177Y-17251460D01*
X10691177Y-17251460D02*
X10681654Y-17241936D01*
X10681654Y-17241936D02*
X10672130Y-17222889D01*
X10672130Y-17222889D02*
X10662606Y-17184793D01*
X10662606Y-17184793D02*
X10662606Y-17137174D01*
X10662606Y-17137174D02*
X10672130Y-17099079D01*
X10672130Y-17099079D02*
X10681654Y-17080031D01*
X10681654Y-17080031D02*
X10691177Y-17070508D01*
X10691177Y-17070508D02*
X10710225Y-17060984D01*
X10948320Y-17127650D02*
X10948320Y-17260984D01*
X10900701Y-17051460D02*
X10853082Y-17194317D01*
X10853082Y-17194317D02*
X10976892Y-17194317D01*
X11138796Y-17127650D02*
X11138796Y-17260984D01*
X11091177Y-17051460D02*
X11043558Y-17194317D01*
X11043558Y-17194317D02*
X11167368Y-17194317D01*
X11338796Y-17060984D02*
X11243558Y-17060984D01*
X11243558Y-17060984D02*
X11234034Y-17156222D01*
X11234034Y-17156222D02*
X11243558Y-17146698D01*
X11243558Y-17146698D02*
X11262606Y-17137174D01*
X11262606Y-17137174D02*
X11310225Y-17137174D01*
X11310225Y-17137174D02*
X11329273Y-17146698D01*
X11329273Y-17146698D02*
X11338796Y-17156222D01*
X11338796Y-17156222D02*
X11348320Y-17175270D01*
X11348320Y-17175270D02*
X11348320Y-17222889D01*
X11348320Y-17222889D02*
X11338796Y-17241936D01*
X11338796Y-17241936D02*
X11329273Y-17251460D01*
X11329273Y-17251460D02*
X11310225Y-17260984D01*
X11310225Y-17260984D02*
X11262606Y-17260984D01*
X11262606Y-17260984D02*
X11243558Y-17251460D01*
X11243558Y-17251460D02*
X11234034Y-17241936D01*
X11424511Y-17060984D02*
X11424511Y-17099079D01*
X11500701Y-17060984D02*
X11500701Y-17099079D01*
X11795939Y-17337174D02*
X11786415Y-17327650D01*
X11786415Y-17327650D02*
X11767368Y-17299079D01*
X11767368Y-17299079D02*
X11757844Y-17280031D01*
X11757844Y-17280031D02*
X11748320Y-17251460D01*
X11748320Y-17251460D02*
X11738796Y-17203841D01*
X11738796Y-17203841D02*
X11738796Y-17165746D01*
X11738796Y-17165746D02*
X11748320Y-17118127D01*
X11748320Y-17118127D02*
X11757844Y-17089555D01*
X11757844Y-17089555D02*
X11767368Y-17070508D01*
X11767368Y-17070508D02*
X11786415Y-17041936D01*
X11786415Y-17041936D02*
X11795939Y-17032412D01*
X11976892Y-17260984D02*
X11862606Y-17260984D01*
X11919749Y-17260984D02*
X11919749Y-17060984D01*
X11919749Y-17060984D02*
X11900701Y-17089555D01*
X11900701Y-17089555D02*
X11881654Y-17108603D01*
X11881654Y-17108603D02*
X11862606Y-17118127D01*
X12157844Y-17060984D02*
X12062606Y-17060984D01*
X12062606Y-17060984D02*
X12053082Y-17156222D01*
X12053082Y-17156222D02*
X12062606Y-17146698D01*
X12062606Y-17146698D02*
X12081654Y-17137174D01*
X12081654Y-17137174D02*
X12129273Y-17137174D01*
X12129273Y-17137174D02*
X12148320Y-17146698D01*
X12148320Y-17146698D02*
X12157844Y-17156222D01*
X12157844Y-17156222D02*
X12167368Y-17175270D01*
X12167368Y-17175270D02*
X12167368Y-17222889D01*
X12167368Y-17222889D02*
X12157844Y-17241936D01*
X12157844Y-17241936D02*
X12148320Y-17251460D01*
X12148320Y-17251460D02*
X12129273Y-17260984D01*
X12129273Y-17260984D02*
X12081654Y-17260984D01*
X12081654Y-17260984D02*
X12062606Y-17251460D01*
X12062606Y-17251460D02*
X12053082Y-17241936D01*
X12405463Y-17260984D02*
X12405463Y-17060984D01*
X12491177Y-17260984D02*
X12491177Y-17156222D01*
X12491177Y-17156222D02*
X12481654Y-17137174D01*
X12481654Y-17137174D02*
X12462606Y-17127650D01*
X12462606Y-17127650D02*
X12434035Y-17127650D01*
X12434035Y-17127650D02*
X12414987Y-17137174D01*
X12414987Y-17137174D02*
X12405463Y-17146698D01*
X12614987Y-17260984D02*
X12595939Y-17251460D01*
X12595939Y-17251460D02*
X12586416Y-17241936D01*
X12586416Y-17241936D02*
X12576892Y-17222889D01*
X12576892Y-17222889D02*
X12576892Y-17165746D01*
X12576892Y-17165746D02*
X12586416Y-17146698D01*
X12586416Y-17146698D02*
X12595939Y-17137174D01*
X12595939Y-17137174D02*
X12614987Y-17127650D01*
X12614987Y-17127650D02*
X12643558Y-17127650D01*
X12643558Y-17127650D02*
X12662606Y-17137174D01*
X12662606Y-17137174D02*
X12672130Y-17146698D01*
X12672130Y-17146698D02*
X12681654Y-17165746D01*
X12681654Y-17165746D02*
X12681654Y-17222889D01*
X12681654Y-17222889D02*
X12672130Y-17241936D01*
X12672130Y-17241936D02*
X12662606Y-17251460D01*
X12662606Y-17251460D02*
X12643558Y-17260984D01*
X12643558Y-17260984D02*
X12614987Y-17260984D01*
X12795939Y-17260984D02*
X12776892Y-17251460D01*
X12776892Y-17251460D02*
X12767368Y-17232412D01*
X12767368Y-17232412D02*
X12767368Y-17060984D01*
X12948320Y-17251460D02*
X12929273Y-17260984D01*
X12929273Y-17260984D02*
X12891177Y-17260984D01*
X12891177Y-17260984D02*
X12872130Y-17251460D01*
X12872130Y-17251460D02*
X12862606Y-17232412D01*
X12862606Y-17232412D02*
X12862606Y-17156222D01*
X12862606Y-17156222D02*
X12872130Y-17137174D01*
X12872130Y-17137174D02*
X12891177Y-17127650D01*
X12891177Y-17127650D02*
X12929273Y-17127650D01*
X12929273Y-17127650D02*
X12948320Y-17137174D01*
X12948320Y-17137174D02*
X12957844Y-17156222D01*
X12957844Y-17156222D02*
X12957844Y-17175270D01*
X12957844Y-17175270D02*
X12862606Y-17194317D01*
X13034035Y-17251460D02*
X13053082Y-17260984D01*
X13053082Y-17260984D02*
X13091177Y-17260984D01*
X13091177Y-17260984D02*
X13110225Y-17251460D01*
X13110225Y-17251460D02*
X13119749Y-17232412D01*
X13119749Y-17232412D02*
X13119749Y-17222889D01*
X13119749Y-17222889D02*
X13110225Y-17203841D01*
X13110225Y-17203841D02*
X13091177Y-17194317D01*
X13091177Y-17194317D02*
X13062606Y-17194317D01*
X13062606Y-17194317D02*
X13043558Y-17184793D01*
X13043558Y-17184793D02*
X13034035Y-17165746D01*
X13034035Y-17165746D02*
X13034035Y-17156222D01*
X13034035Y-17156222D02*
X13043558Y-17137174D01*
X13043558Y-17137174D02*
X13062606Y-17127650D01*
X13062606Y-17127650D02*
X13091177Y-17127650D01*
X13091177Y-17127650D02*
X13110225Y-17137174D01*
X13186416Y-17337174D02*
X13195939Y-17327650D01*
X13195939Y-17327650D02*
X13214987Y-17299079D01*
X13214987Y-17299079D02*
X13224511Y-17280031D01*
X13224511Y-17280031D02*
X13234035Y-17251460D01*
X13234035Y-17251460D02*
X13243558Y-17203841D01*
X13243558Y-17203841D02*
X13243558Y-17165746D01*
X13243558Y-17165746D02*
X13234035Y-17118127D01*
X13234035Y-17118127D02*
X13224511Y-17089555D01*
X13224511Y-17089555D02*
X13214987Y-17070508D01*
X13214987Y-17070508D02*
X13195939Y-17041936D01*
X13195939Y-17041936D02*
X13186416Y-17032412D01*
X8120876Y-17533500D02*
X8220876Y-17433500D01*
X8120876Y-17333500D01*
X8020876Y-17433500D01*
X8120876Y-17533500D01*
X8462606Y-17324984D02*
X8586415Y-17324984D01*
X8586415Y-17324984D02*
X8519749Y-17401174D01*
X8519749Y-17401174D02*
X8548320Y-17401174D01*
X8548320Y-17401174D02*
X8567368Y-17410698D01*
X8567368Y-17410698D02*
X8576891Y-17420222D01*
X8576891Y-17420222D02*
X8586415Y-17439270D01*
X8586415Y-17439270D02*
X8586415Y-17486889D01*
X8586415Y-17486889D02*
X8576891Y-17505936D01*
X8576891Y-17505936D02*
X8567368Y-17515460D01*
X8567368Y-17515460D02*
X8548320Y-17524984D01*
X8548320Y-17524984D02*
X8491177Y-17524984D01*
X8491177Y-17524984D02*
X8472130Y-17515460D01*
X8472130Y-17515460D02*
X8462606Y-17505936D01*
X8672130Y-17505936D02*
X8681653Y-17515460D01*
X8681653Y-17515460D02*
X8672130Y-17524984D01*
X8672130Y-17524984D02*
X8662606Y-17515460D01*
X8662606Y-17515460D02*
X8672130Y-17505936D01*
X8672130Y-17505936D02*
X8672130Y-17524984D01*
X8757844Y-17344031D02*
X8767368Y-17334508D01*
X8767368Y-17334508D02*
X8786415Y-17324984D01*
X8786415Y-17324984D02*
X8834034Y-17324984D01*
X8834034Y-17324984D02*
X8853082Y-17334508D01*
X8853082Y-17334508D02*
X8862606Y-17344031D01*
X8862606Y-17344031D02*
X8872130Y-17363079D01*
X8872130Y-17363079D02*
X8872130Y-17382127D01*
X8872130Y-17382127D02*
X8862606Y-17410698D01*
X8862606Y-17410698D02*
X8748320Y-17524984D01*
X8748320Y-17524984D02*
X8872130Y-17524984D01*
X8938796Y-17324984D02*
X9062606Y-17324984D01*
X9062606Y-17324984D02*
X8995939Y-17401174D01*
X8995939Y-17401174D02*
X9024511Y-17401174D01*
X9024511Y-17401174D02*
X9043558Y-17410698D01*
X9043558Y-17410698D02*
X9053082Y-17420222D01*
X9053082Y-17420222D02*
X9062606Y-17439270D01*
X9062606Y-17439270D02*
X9062606Y-17486889D01*
X9062606Y-17486889D02*
X9053082Y-17505936D01*
X9053082Y-17505936D02*
X9043558Y-17515460D01*
X9043558Y-17515460D02*
X9024511Y-17524984D01*
X9024511Y-17524984D02*
X8967368Y-17524984D01*
X8967368Y-17524984D02*
X8948320Y-17515460D01*
X8948320Y-17515460D02*
X8938796Y-17505936D01*
X9186415Y-17324984D02*
X9205463Y-17324984D01*
X9205463Y-17324984D02*
X9224511Y-17334508D01*
X9224511Y-17334508D02*
X9234034Y-17344031D01*
X9234034Y-17344031D02*
X9243558Y-17363079D01*
X9243558Y-17363079D02*
X9253082Y-17401174D01*
X9253082Y-17401174D02*
X9253082Y-17448793D01*
X9253082Y-17448793D02*
X9243558Y-17486889D01*
X9243558Y-17486889D02*
X9234034Y-17505936D01*
X9234034Y-17505936D02*
X9224511Y-17515460D01*
X9224511Y-17515460D02*
X9205463Y-17524984D01*
X9205463Y-17524984D02*
X9186415Y-17524984D01*
X9186415Y-17524984D02*
X9167368Y-17515460D01*
X9167368Y-17515460D02*
X9157844Y-17505936D01*
X9157844Y-17505936D02*
X9148320Y-17486889D01*
X9148320Y-17486889D02*
X9138796Y-17448793D01*
X9138796Y-17448793D02*
X9138796Y-17401174D01*
X9138796Y-17401174D02*
X9148320Y-17363079D01*
X9148320Y-17363079D02*
X9157844Y-17344031D01*
X9157844Y-17344031D02*
X9167368Y-17334508D01*
X9167368Y-17334508D02*
X9186415Y-17324984D01*
X9338796Y-17524984D02*
X9338796Y-17391650D01*
X9338796Y-17410698D02*
X9348320Y-17401174D01*
X9348320Y-17401174D02*
X9367368Y-17391650D01*
X9367368Y-17391650D02*
X9395939Y-17391650D01*
X9395939Y-17391650D02*
X9414987Y-17401174D01*
X9414987Y-17401174D02*
X9424511Y-17420222D01*
X9424511Y-17420222D02*
X9424511Y-17524984D01*
X9424511Y-17420222D02*
X9434034Y-17401174D01*
X9434034Y-17401174D02*
X9453082Y-17391650D01*
X9453082Y-17391650D02*
X9481653Y-17391650D01*
X9481653Y-17391650D02*
X9500701Y-17401174D01*
X9500701Y-17401174D02*
X9510225Y-17420222D01*
X9510225Y-17420222D02*
X9510225Y-17524984D01*
X9605463Y-17524984D02*
X9605463Y-17391650D01*
X9605463Y-17410698D02*
X9614987Y-17401174D01*
X9614987Y-17401174D02*
X9634034Y-17391650D01*
X9634034Y-17391650D02*
X9662606Y-17391650D01*
X9662606Y-17391650D02*
X9681653Y-17401174D01*
X9681653Y-17401174D02*
X9691177Y-17420222D01*
X9691177Y-17420222D02*
X9691177Y-17524984D01*
X9691177Y-17420222D02*
X9700701Y-17401174D01*
X9700701Y-17401174D02*
X9719749Y-17391650D01*
X9719749Y-17391650D02*
X9748320Y-17391650D01*
X9748320Y-17391650D02*
X9767368Y-17401174D01*
X9767368Y-17401174D02*
X9776892Y-17420222D01*
X9776892Y-17420222D02*
X9776892Y-17524984D01*
X10167368Y-17315460D02*
X9995939Y-17572603D01*
X10424511Y-17324984D02*
X10443558Y-17324984D01*
X10443558Y-17324984D02*
X10462606Y-17334508D01*
X10462606Y-17334508D02*
X10472130Y-17344031D01*
X10472130Y-17344031D02*
X10481654Y-17363079D01*
X10481654Y-17363079D02*
X10491177Y-17401174D01*
X10491177Y-17401174D02*
X10491177Y-17448793D01*
X10491177Y-17448793D02*
X10481654Y-17486889D01*
X10481654Y-17486889D02*
X10472130Y-17505936D01*
X10472130Y-17505936D02*
X10462606Y-17515460D01*
X10462606Y-17515460D02*
X10443558Y-17524984D01*
X10443558Y-17524984D02*
X10424511Y-17524984D01*
X10424511Y-17524984D02*
X10405463Y-17515460D01*
X10405463Y-17515460D02*
X10395939Y-17505936D01*
X10395939Y-17505936D02*
X10386415Y-17486889D01*
X10386415Y-17486889D02*
X10376892Y-17448793D01*
X10376892Y-17448793D02*
X10376892Y-17401174D01*
X10376892Y-17401174D02*
X10386415Y-17363079D01*
X10386415Y-17363079D02*
X10395939Y-17344031D01*
X10395939Y-17344031D02*
X10405463Y-17334508D01*
X10405463Y-17334508D02*
X10424511Y-17324984D01*
X10576892Y-17505936D02*
X10586415Y-17515460D01*
X10586415Y-17515460D02*
X10576892Y-17524984D01*
X10576892Y-17524984D02*
X10567368Y-17515460D01*
X10567368Y-17515460D02*
X10576892Y-17505936D01*
X10576892Y-17505936D02*
X10576892Y-17524984D01*
X10776892Y-17524984D02*
X10662606Y-17524984D01*
X10719749Y-17524984D02*
X10719749Y-17324984D01*
X10719749Y-17324984D02*
X10700701Y-17353555D01*
X10700701Y-17353555D02*
X10681654Y-17372603D01*
X10681654Y-17372603D02*
X10662606Y-17382127D01*
X10853082Y-17344031D02*
X10862606Y-17334508D01*
X10862606Y-17334508D02*
X10881654Y-17324984D01*
X10881654Y-17324984D02*
X10929273Y-17324984D01*
X10929273Y-17324984D02*
X10948320Y-17334508D01*
X10948320Y-17334508D02*
X10957844Y-17344031D01*
X10957844Y-17344031D02*
X10967368Y-17363079D01*
X10967368Y-17363079D02*
X10967368Y-17382127D01*
X10967368Y-17382127D02*
X10957844Y-17410698D01*
X10957844Y-17410698D02*
X10843558Y-17524984D01*
X10843558Y-17524984D02*
X10967368Y-17524984D01*
X11034035Y-17324984D02*
X11167368Y-17324984D01*
X11167368Y-17324984D02*
X11081654Y-17524984D01*
X11234034Y-17344031D02*
X11243558Y-17334508D01*
X11243558Y-17334508D02*
X11262606Y-17324984D01*
X11262606Y-17324984D02*
X11310225Y-17324984D01*
X11310225Y-17324984D02*
X11329273Y-17334508D01*
X11329273Y-17334508D02*
X11338796Y-17344031D01*
X11338796Y-17344031D02*
X11348320Y-17363079D01*
X11348320Y-17363079D02*
X11348320Y-17382127D01*
X11348320Y-17382127D02*
X11338796Y-17410698D01*
X11338796Y-17410698D02*
X11224511Y-17524984D01*
X11224511Y-17524984D02*
X11348320Y-17524984D01*
X11424511Y-17324984D02*
X11424511Y-17363079D01*
X11500701Y-17324984D02*
X11500701Y-17363079D01*
X11795939Y-17601174D02*
X11786415Y-17591650D01*
X11786415Y-17591650D02*
X11767368Y-17563079D01*
X11767368Y-17563079D02*
X11757844Y-17544031D01*
X11757844Y-17544031D02*
X11748320Y-17515460D01*
X11748320Y-17515460D02*
X11738796Y-17467841D01*
X11738796Y-17467841D02*
X11738796Y-17429746D01*
X11738796Y-17429746D02*
X11748320Y-17382127D01*
X11748320Y-17382127D02*
X11757844Y-17353555D01*
X11757844Y-17353555D02*
X11767368Y-17334508D01*
X11767368Y-17334508D02*
X11786415Y-17305936D01*
X11786415Y-17305936D02*
X11795939Y-17296412D01*
X11862606Y-17344031D02*
X11872130Y-17334508D01*
X11872130Y-17334508D02*
X11891177Y-17324984D01*
X11891177Y-17324984D02*
X11938796Y-17324984D01*
X11938796Y-17324984D02*
X11957844Y-17334508D01*
X11957844Y-17334508D02*
X11967368Y-17344031D01*
X11967368Y-17344031D02*
X11976892Y-17363079D01*
X11976892Y-17363079D02*
X11976892Y-17382127D01*
X11976892Y-17382127D02*
X11967368Y-17410698D01*
X11967368Y-17410698D02*
X11853082Y-17524984D01*
X11853082Y-17524984D02*
X11976892Y-17524984D01*
X12214987Y-17524984D02*
X12214987Y-17324984D01*
X12300701Y-17524984D02*
X12300701Y-17420222D01*
X12300701Y-17420222D02*
X12291177Y-17401174D01*
X12291177Y-17401174D02*
X12272130Y-17391650D01*
X12272130Y-17391650D02*
X12243558Y-17391650D01*
X12243558Y-17391650D02*
X12224511Y-17401174D01*
X12224511Y-17401174D02*
X12214987Y-17410698D01*
X12424511Y-17524984D02*
X12405463Y-17515460D01*
X12405463Y-17515460D02*
X12395939Y-17505936D01*
X12395939Y-17505936D02*
X12386416Y-17486889D01*
X12386416Y-17486889D02*
X12386416Y-17429746D01*
X12386416Y-17429746D02*
X12395939Y-17410698D01*
X12395939Y-17410698D02*
X12405463Y-17401174D01*
X12405463Y-17401174D02*
X12424511Y-17391650D01*
X12424511Y-17391650D02*
X12453082Y-17391650D01*
X12453082Y-17391650D02*
X12472130Y-17401174D01*
X12472130Y-17401174D02*
X12481654Y-17410698D01*
X12481654Y-17410698D02*
X12491177Y-17429746D01*
X12491177Y-17429746D02*
X12491177Y-17486889D01*
X12491177Y-17486889D02*
X12481654Y-17505936D01*
X12481654Y-17505936D02*
X12472130Y-17515460D01*
X12472130Y-17515460D02*
X12453082Y-17524984D01*
X12453082Y-17524984D02*
X12424511Y-17524984D01*
X12605463Y-17524984D02*
X12586416Y-17515460D01*
X12586416Y-17515460D02*
X12576892Y-17496412D01*
X12576892Y-17496412D02*
X12576892Y-17324984D01*
X12757844Y-17515460D02*
X12738797Y-17524984D01*
X12738797Y-17524984D02*
X12700701Y-17524984D01*
X12700701Y-17524984D02*
X12681654Y-17515460D01*
X12681654Y-17515460D02*
X12672130Y-17496412D01*
X12672130Y-17496412D02*
X12672130Y-17420222D01*
X12672130Y-17420222D02*
X12681654Y-17401174D01*
X12681654Y-17401174D02*
X12700701Y-17391650D01*
X12700701Y-17391650D02*
X12738797Y-17391650D01*
X12738797Y-17391650D02*
X12757844Y-17401174D01*
X12757844Y-17401174D02*
X12767368Y-17420222D01*
X12767368Y-17420222D02*
X12767368Y-17439270D01*
X12767368Y-17439270D02*
X12672130Y-17458317D01*
X12843558Y-17515460D02*
X12862606Y-17524984D01*
X12862606Y-17524984D02*
X12900701Y-17524984D01*
X12900701Y-17524984D02*
X12919749Y-17515460D01*
X12919749Y-17515460D02*
X12929273Y-17496412D01*
X12929273Y-17496412D02*
X12929273Y-17486889D01*
X12929273Y-17486889D02*
X12919749Y-17467841D01*
X12919749Y-17467841D02*
X12900701Y-17458317D01*
X12900701Y-17458317D02*
X12872130Y-17458317D01*
X12872130Y-17458317D02*
X12853082Y-17448793D01*
X12853082Y-17448793D02*
X12843558Y-17429746D01*
X12843558Y-17429746D02*
X12843558Y-17420222D01*
X12843558Y-17420222D02*
X12853082Y-17401174D01*
X12853082Y-17401174D02*
X12872130Y-17391650D01*
X12872130Y-17391650D02*
X12900701Y-17391650D01*
X12900701Y-17391650D02*
X12919749Y-17401174D01*
X12995939Y-17601174D02*
X13005463Y-17591650D01*
X13005463Y-17591650D02*
X13024511Y-17563079D01*
X13024511Y-17563079D02*
X13034035Y-17544031D01*
X13034035Y-17544031D02*
X13043558Y-17515460D01*
X13043558Y-17515460D02*
X13053082Y-17467841D01*
X13053082Y-17467841D02*
X13053082Y-17429746D01*
X13053082Y-17429746D02*
X13043558Y-17382127D01*
X13043558Y-17382127D02*
X13034035Y-17353555D01*
X13034035Y-17353555D02*
X13024511Y-17334508D01*
X13024511Y-17334508D02*
X13005463Y-17305936D01*
X13005463Y-17305936D02*
X12995939Y-17296412D01*
M02*
