%TF.GenerationSoftware,KiCad,Pcbnew,8.0.5-dirty*%
%TF.CreationDate,2024-12-13T11:37:29-08:00*%
%TF.ProjectId,nightshade,6e696768-7473-4686-9164-652e6b696361,rev?*%
%TF.SameCoordinates,Original*%
%TF.FileFunction,Drillmap*%
%TF.FilePolarity,Positive*%
%FSLAX45Y45*%
G04 Gerber Fmt 4.5, Leading zero omitted, Abs format (unit mm)*
G04 Created by KiCad (PCBNEW 8.0.5-dirty) date 2024-12-13 11:37:29*
%MOMM*%
%LPD*%
G01*
G04 APERTURE LIST*
%ADD10C,0.050000*%
%ADD11C,0.200000*%
G04 APERTURE END LIST*
D10*
X23645000Y-8030000D02*
X23645000Y-14165000D01*
X23315000Y-14495000D01*
X21687500Y-14495000D01*
X21687500Y-15640000D01*
X21592500Y-15735000D01*
X13655000Y-15735000D01*
X13560000Y-15640000D01*
X13560000Y-14825000D01*
X13052500Y-14825000D01*
X13052500Y-15640000D01*
X12957500Y-15735000D01*
X8324998Y-15735000D01*
X8230000Y-15640002D01*
X8230000Y-13199962D01*
X8223376Y-7993893D01*
X8581622Y-7640000D01*
X23255000Y-7640000D01*
X23645000Y-8030000D01*
D11*
X8481653Y-16048984D02*
X8481653Y-15848984D01*
X8481653Y-15848984D02*
X8529272Y-15848984D01*
X8529272Y-15848984D02*
X8557844Y-15858508D01*
X8557844Y-15858508D02*
X8576891Y-15877555D01*
X8576891Y-15877555D02*
X8586415Y-15896603D01*
X8586415Y-15896603D02*
X8595939Y-15934698D01*
X8595939Y-15934698D02*
X8595939Y-15963269D01*
X8595939Y-15963269D02*
X8586415Y-16001365D01*
X8586415Y-16001365D02*
X8576891Y-16020412D01*
X8576891Y-16020412D02*
X8557844Y-16039460D01*
X8557844Y-16039460D02*
X8529272Y-16048984D01*
X8529272Y-16048984D02*
X8481653Y-16048984D01*
X8681653Y-16048984D02*
X8681653Y-15915650D01*
X8681653Y-15953746D02*
X8691177Y-15934698D01*
X8691177Y-15934698D02*
X8700701Y-15925174D01*
X8700701Y-15925174D02*
X8719749Y-15915650D01*
X8719749Y-15915650D02*
X8738796Y-15915650D01*
X8805463Y-16048984D02*
X8805463Y-15915650D01*
X8805463Y-15848984D02*
X8795939Y-15858508D01*
X8795939Y-15858508D02*
X8805463Y-15868031D01*
X8805463Y-15868031D02*
X8814987Y-15858508D01*
X8814987Y-15858508D02*
X8805463Y-15848984D01*
X8805463Y-15848984D02*
X8805463Y-15868031D01*
X8929272Y-16048984D02*
X8910225Y-16039460D01*
X8910225Y-16039460D02*
X8900701Y-16020412D01*
X8900701Y-16020412D02*
X8900701Y-15848984D01*
X9034034Y-16048984D02*
X9014987Y-16039460D01*
X9014987Y-16039460D02*
X9005463Y-16020412D01*
X9005463Y-16020412D02*
X9005463Y-15848984D01*
X9262606Y-16048984D02*
X9262606Y-15848984D01*
X9262606Y-15848984D02*
X9329272Y-15991841D01*
X9329272Y-15991841D02*
X9395939Y-15848984D01*
X9395939Y-15848984D02*
X9395939Y-16048984D01*
X9576891Y-16048984D02*
X9576891Y-15944222D01*
X9576891Y-15944222D02*
X9567368Y-15925174D01*
X9567368Y-15925174D02*
X9548320Y-15915650D01*
X9548320Y-15915650D02*
X9510225Y-15915650D01*
X9510225Y-15915650D02*
X9491177Y-15925174D01*
X9576891Y-16039460D02*
X9557844Y-16048984D01*
X9557844Y-16048984D02*
X9510225Y-16048984D01*
X9510225Y-16048984D02*
X9491177Y-16039460D01*
X9491177Y-16039460D02*
X9481653Y-16020412D01*
X9481653Y-16020412D02*
X9481653Y-16001365D01*
X9481653Y-16001365D02*
X9491177Y-15982317D01*
X9491177Y-15982317D02*
X9510225Y-15972793D01*
X9510225Y-15972793D02*
X9557844Y-15972793D01*
X9557844Y-15972793D02*
X9576891Y-15963269D01*
X9672130Y-15915650D02*
X9672130Y-16115650D01*
X9672130Y-15925174D02*
X9691177Y-15915650D01*
X9691177Y-15915650D02*
X9729272Y-15915650D01*
X9729272Y-15915650D02*
X9748320Y-15925174D01*
X9748320Y-15925174D02*
X9757844Y-15934698D01*
X9757844Y-15934698D02*
X9767368Y-15953746D01*
X9767368Y-15953746D02*
X9767368Y-16010888D01*
X9767368Y-16010888D02*
X9757844Y-16029936D01*
X9757844Y-16029936D02*
X9748320Y-16039460D01*
X9748320Y-16039460D02*
X9729272Y-16048984D01*
X9729272Y-16048984D02*
X9691177Y-16048984D01*
X9691177Y-16048984D02*
X9672130Y-16039460D01*
X9853082Y-16029936D02*
X9862606Y-16039460D01*
X9862606Y-16039460D02*
X9853082Y-16048984D01*
X9853082Y-16048984D02*
X9843558Y-16039460D01*
X9843558Y-16039460D02*
X9853082Y-16029936D01*
X9853082Y-16029936D02*
X9853082Y-16048984D01*
X9853082Y-15925174D02*
X9862606Y-15934698D01*
X9862606Y-15934698D02*
X9853082Y-15944222D01*
X9853082Y-15944222D02*
X9843558Y-15934698D01*
X9843558Y-15934698D02*
X9853082Y-15925174D01*
X9853082Y-15925174D02*
X9853082Y-15944222D01*
M02*
