%TF.GenerationSoftware,KiCad,Pcbnew,8.0.5-dirty*%
%TF.CreationDate,2024-12-24T10:24:37-08:00*%
%TF.ProjectId,nightshade,6e696768-7473-4686-9164-652e6b696361,rev?*%
%TF.SameCoordinates,Original*%
%TF.FileFunction,Drillmap*%
%TF.FilePolarity,Positive*%
%FSLAX45Y45*%
G04 Gerber Fmt 4.5, Leading zero omitted, Abs format (unit mm)*
G04 Created by KiCad (PCBNEW 8.0.5-dirty) date 2024-12-24 10:24:37*
%MOMM*%
%LPD*%
G01*
G04 APERTURE LIST*
%ADD10C,0.050000*%
%ADD11C,0.200000*%
%ADD12C,0.100000*%
%ADD13C,0.113000*%
%ADD14C,0.323000*%
G04 APERTURE END LIST*
D10*
X23710000Y-8445000D02*
X23710000Y-14100000D01*
X23315000Y-14495000D01*
X21687500Y-14495000D01*
X21687500Y-15640000D01*
X21592500Y-15735000D01*
X13655000Y-15735000D01*
X13560000Y-15640000D01*
X13560000Y-14825000D01*
X13052500Y-14825000D01*
X13052500Y-15640000D01*
X12957500Y-15735000D01*
X8324998Y-15735000D01*
X8230000Y-15640002D01*
X8230000Y-13199962D01*
X8223888Y-8395818D01*
X8558774Y-8065000D01*
X23330000Y-8065000D01*
X23710000Y-8445000D01*
D11*
D12*
X8305000Y-9339000D02*
X8345000Y-9379000D01*
X8345000Y-9339000D02*
X8305000Y-9379000D01*
X8305000Y-13079000D02*
X8345000Y-13119000D01*
X8345000Y-13079000D02*
X8305000Y-13119000D01*
X8305000Y-13454000D02*
X8345000Y-13494000D01*
X8345000Y-13454000D02*
X8305000Y-13494000D01*
X8305000Y-13865000D02*
X8345000Y-13905000D01*
X8345000Y-13865000D02*
X8305000Y-13905000D01*
X8305000Y-14268000D02*
X8345000Y-14308000D01*
X8345000Y-14268000D02*
X8305000Y-14308000D01*
X8310000Y-8560000D02*
X8350000Y-8600000D01*
X8350000Y-8560000D02*
X8310000Y-8600000D01*
X8310000Y-8879000D02*
X8350000Y-8919000D01*
X8350000Y-8879000D02*
X8310000Y-8919000D01*
X8310000Y-9764000D02*
X8350000Y-9804000D01*
X8350000Y-9764000D02*
X8310000Y-9804000D01*
X8310000Y-10189000D02*
X8350000Y-10229000D01*
X8350000Y-10189000D02*
X8310000Y-10229000D01*
X8310000Y-10588000D02*
X8350000Y-10628000D01*
X8350000Y-10588000D02*
X8310000Y-10628000D01*
X8310000Y-11379000D02*
X8350000Y-11419000D01*
X8350000Y-11379000D02*
X8310000Y-11419000D01*
X8310000Y-11759000D02*
X8350000Y-11799000D01*
X8350000Y-11759000D02*
X8310000Y-11799000D01*
X8310000Y-12170000D02*
X8350000Y-12210000D01*
X8350000Y-12170000D02*
X8310000Y-12210000D01*
X8310000Y-12559000D02*
X8350000Y-12599000D01*
X8350000Y-12559000D02*
X8310000Y-12599000D01*
X8315000Y-10800000D02*
X8355000Y-10840000D01*
X8355000Y-10800000D02*
X8315000Y-10840000D01*
X8460000Y-11830000D02*
X8500000Y-11870000D01*
X8500000Y-11830000D02*
X8460000Y-11870000D01*
X8469000Y-14676000D02*
X8509000Y-14716000D01*
X8509000Y-14676000D02*
X8469000Y-14716000D01*
X8500000Y-8335000D02*
X8540000Y-8375000D01*
X8540000Y-8335000D02*
X8500000Y-8375000D01*
X8560000Y-10430000D02*
X8600000Y-10470000D01*
X8600000Y-10430000D02*
X8560000Y-10470000D01*
X8560801Y-10549657D02*
X8600801Y-10589657D01*
X8600801Y-10549657D02*
X8560801Y-10589657D01*
X8561311Y-10300407D02*
X8601311Y-10340407D01*
X8601311Y-10300407D02*
X8561311Y-10340407D01*
X8570000Y-10670000D02*
X8610000Y-10710000D01*
X8610000Y-10670000D02*
X8570000Y-10710000D01*
X8652500Y-12372134D02*
X8692500Y-12412134D01*
X8692500Y-12372134D02*
X8652500Y-12412134D01*
X8652652Y-12597347D02*
X8692652Y-12637347D01*
X8692652Y-12597347D02*
X8652652Y-12637347D01*
X8657699Y-12242301D02*
X8697699Y-12282301D01*
X8697699Y-12242301D02*
X8657699Y-12282301D01*
X8660000Y-12082000D02*
X8700000Y-12122000D01*
X8700000Y-12082000D02*
X8660000Y-12122000D01*
X8680000Y-8115000D02*
X8720000Y-8155000D01*
X8720000Y-8115000D02*
X8680000Y-8155000D01*
X8680200Y-11694528D02*
X8720200Y-11734528D01*
X8720200Y-11694528D02*
X8680200Y-11734528D01*
X8880000Y-13350000D02*
X8920000Y-13390000D01*
X8920000Y-13350000D02*
X8880000Y-13390000D01*
X8892120Y-9453977D02*
X8932120Y-9493977D01*
X8932120Y-9453977D02*
X8892120Y-9493977D01*
X8969000Y-13983000D02*
X9009000Y-14023000D01*
X9009000Y-13983000D02*
X8969000Y-14023000D01*
X9070000Y-8110000D02*
X9110000Y-8150000D01*
X9110000Y-8110000D02*
X9070000Y-8150000D01*
X9130000Y-10830000D02*
X9170000Y-10870000D01*
X9170000Y-10830000D02*
X9130000Y-10870000D01*
X9430000Y-10190000D02*
X9470000Y-10230000D01*
X9470000Y-10190000D02*
X9430000Y-10230000D01*
X9430000Y-10312800D02*
X9470000Y-10352800D01*
X9470000Y-10312800D02*
X9430000Y-10352800D01*
X9430000Y-10430000D02*
X9470000Y-10470000D01*
X9470000Y-10430000D02*
X9430000Y-10470000D01*
X9430000Y-10566800D02*
X9470000Y-10606800D01*
X9470000Y-10566800D02*
X9430000Y-10606800D01*
X9430000Y-10693800D02*
X9470000Y-10733800D01*
X9470000Y-10693800D02*
X9430000Y-10733800D01*
X9469000Y-8110000D02*
X9509000Y-8150000D01*
X9509000Y-8110000D02*
X9469000Y-8150000D01*
X9510000Y-10975000D02*
X9550000Y-11015000D01*
X9550000Y-10975000D02*
X9510000Y-11015000D01*
X9519626Y-11132500D02*
X9559626Y-11172500D01*
X9559626Y-11132500D02*
X9519626Y-11172500D01*
X9536330Y-11287500D02*
X9576330Y-11327500D01*
X9576330Y-11287500D02*
X9536330Y-11327500D01*
X9540432Y-11475249D02*
X9580432Y-11515249D01*
X9580432Y-11475249D02*
X9540432Y-11515249D01*
X9590469Y-11055000D02*
X9630469Y-11095000D01*
X9630469Y-11055000D02*
X9590469Y-11095000D01*
X9596702Y-10900000D02*
X9636702Y-10940000D01*
X9636702Y-10900000D02*
X9596702Y-10940000D01*
X9600000Y-11380000D02*
X9640000Y-11420000D01*
X9640000Y-11380000D02*
X9600000Y-11420000D01*
X9607173Y-11210000D02*
X9647173Y-11250000D01*
X9647173Y-11210000D02*
X9607173Y-11250000D01*
X9655000Y-11580000D02*
X9695000Y-11620000D01*
X9695000Y-11580000D02*
X9655000Y-11620000D01*
X9655000Y-11705000D02*
X9695000Y-11745000D01*
X9695000Y-11705000D02*
X9655000Y-11745000D01*
X9655000Y-11960000D02*
X9695000Y-12000000D01*
X9695000Y-11960000D02*
X9655000Y-12000000D01*
X9655000Y-12080000D02*
X9695000Y-12120000D01*
X9695000Y-12080000D02*
X9655000Y-12120000D01*
X9655000Y-12210000D02*
X9695000Y-12250000D01*
X9695000Y-12210000D02*
X9655000Y-12250000D01*
X9655000Y-12330000D02*
X9695000Y-12370000D01*
X9695000Y-12330000D02*
X9655000Y-12370000D01*
X9655000Y-12460000D02*
X9695000Y-12500000D01*
X9695000Y-12460000D02*
X9655000Y-12500000D01*
X9655000Y-12605000D02*
X9695000Y-12645000D01*
X9695000Y-12605000D02*
X9655000Y-12645000D01*
X9777102Y-12742500D02*
X9817102Y-12782500D01*
X9817102Y-12742500D02*
X9777102Y-12782500D01*
X9929000Y-8115000D02*
X9969000Y-8155000D01*
X9969000Y-8115000D02*
X9929000Y-8155000D01*
X10205000Y-9760000D02*
X10245000Y-9800000D01*
X10245000Y-9760000D02*
X10205000Y-9800000D01*
X10310000Y-12990000D02*
X10350000Y-13030000D01*
X10350000Y-12990000D02*
X10310000Y-13030000D01*
X10354000Y-8110000D02*
X10394000Y-8150000D01*
X10394000Y-8110000D02*
X10354000Y-8150000D01*
X10390000Y-10820000D02*
X10430000Y-10860000D01*
X10430000Y-10820000D02*
X10390000Y-10860000D01*
X10620000Y-10635000D02*
X10660000Y-10675000D01*
X10660000Y-10635000D02*
X10620000Y-10675000D01*
X10757000Y-14758000D02*
X10797000Y-14798000D01*
X10797000Y-14758000D02*
X10757000Y-14798000D01*
X10760000Y-11700000D02*
X10800000Y-11740000D01*
X10800000Y-11700000D02*
X10760000Y-11740000D01*
X10770000Y-12068863D02*
X10810000Y-12108863D01*
X10810000Y-12068863D02*
X10770000Y-12108863D01*
X10770000Y-12378863D02*
X10810000Y-12418863D01*
X10810000Y-12378863D02*
X10770000Y-12418863D01*
X10770000Y-12535383D02*
X10810000Y-12575383D01*
X10810000Y-12535383D02*
X10770000Y-12575383D01*
X10771164Y-12223863D02*
X10811164Y-12263863D01*
X10811164Y-12223863D02*
X10771164Y-12263863D01*
X10779000Y-8110000D02*
X10819000Y-8150000D01*
X10819000Y-8110000D02*
X10779000Y-8150000D01*
X10855000Y-12625000D02*
X10895000Y-12665000D01*
X10895000Y-12625000D02*
X10855000Y-12665000D01*
X10856898Y-12457883D02*
X10896898Y-12497883D01*
X10896898Y-12457883D02*
X10856898Y-12497883D01*
X10860000Y-11960000D02*
X10900000Y-12000000D01*
X10900000Y-11960000D02*
X10860000Y-12000000D01*
X10860000Y-12301363D02*
X10900000Y-12341363D01*
X10900000Y-12301363D02*
X10860000Y-12341363D01*
X10861116Y-12129500D02*
X10901116Y-12169500D01*
X10901116Y-12129500D02*
X10861116Y-12169500D01*
X10990000Y-10985000D02*
X11030000Y-11025000D01*
X11030000Y-10985000D02*
X10990000Y-11025000D01*
X11001000Y-14765000D02*
X11041000Y-14805000D01*
X11041000Y-14765000D02*
X11001000Y-14805000D01*
X11155000Y-10505000D02*
X11195000Y-10545000D01*
X11195000Y-10505000D02*
X11155000Y-10545000D01*
X11178000Y-8110000D02*
X11218000Y-8150000D01*
X11218000Y-8110000D02*
X11178000Y-8150000D01*
X11258000Y-14765000D02*
X11298000Y-14805000D01*
X11298000Y-14765000D02*
X11258000Y-14805000D01*
X11260000Y-12910000D02*
X11300000Y-12950000D01*
X11300000Y-12910000D02*
X11260000Y-12950000D01*
X11480000Y-9950000D02*
X11520000Y-9990000D01*
X11520000Y-9950000D02*
X11480000Y-9990000D01*
X11480000Y-13080000D02*
X11520000Y-13120000D01*
X11520000Y-13080000D02*
X11480000Y-13120000D01*
X11510000Y-14765000D02*
X11550000Y-14805000D01*
X11550000Y-14765000D02*
X11510000Y-14805000D01*
X11589000Y-8110000D02*
X11629000Y-8150000D01*
X11629000Y-8110000D02*
X11589000Y-8150000D01*
X11655000Y-12730000D02*
X11695000Y-12770000D01*
X11695000Y-12730000D02*
X11655000Y-12770000D01*
X11680000Y-11038000D02*
X11720000Y-11078000D01*
X11720000Y-11038000D02*
X11680000Y-11078000D01*
X11680000Y-11200000D02*
X11720000Y-11240000D01*
X11720000Y-11200000D02*
X11680000Y-11240000D01*
X11680000Y-11355000D02*
X11720000Y-11395000D01*
X11720000Y-11355000D02*
X11680000Y-11395000D01*
X11680000Y-11732000D02*
X11720000Y-11772000D01*
X11720000Y-11732000D02*
X11680000Y-11772000D01*
X11698405Y-10864500D02*
X11738405Y-10904500D01*
X11738405Y-10864500D02*
X11698405Y-10904500D01*
X11700000Y-9950000D02*
X11740000Y-9990000D01*
X11740000Y-9950000D02*
X11700000Y-9990000D01*
X11705000Y-10355000D02*
X11745000Y-10395000D01*
X11745000Y-10355000D02*
X11705000Y-10395000D01*
X11705000Y-10525000D02*
X11745000Y-10565000D01*
X11745000Y-10525000D02*
X11705000Y-10565000D01*
X11705000Y-10682500D02*
X11745000Y-10722500D01*
X11745000Y-10682500D02*
X11705000Y-10722500D01*
X11707487Y-10195000D02*
X11747487Y-10235000D01*
X11747487Y-10195000D02*
X11707487Y-10235000D01*
X11707500Y-11942987D02*
X11747500Y-11982987D01*
X11747500Y-11942987D02*
X11707500Y-11982987D01*
X11708601Y-12209000D02*
X11748601Y-12249000D01*
X11748601Y-12209000D02*
X11708601Y-12249000D01*
X11731263Y-12367500D02*
X11771263Y-12407500D01*
X11771263Y-12367500D02*
X11731263Y-12407500D01*
X11759263Y-12522500D02*
X11799263Y-12562500D01*
X11799263Y-12522500D02*
X11759263Y-12562500D01*
X11763000Y-14765000D02*
X11803000Y-14805000D01*
X11803000Y-14765000D02*
X11763000Y-14805000D01*
X11770207Y-12051994D02*
X11810207Y-12091994D01*
X11810207Y-12051994D02*
X11770207Y-12091994D01*
X11880000Y-12805000D02*
X11920000Y-12845000D01*
X11920000Y-12805000D02*
X11880000Y-12845000D01*
X11969000Y-8110000D02*
X12009000Y-8150000D01*
X12009000Y-8110000D02*
X11969000Y-8150000D01*
X11983324Y-11890000D02*
X12023324Y-11930000D01*
X12023324Y-11890000D02*
X11983324Y-11930000D01*
X12022000Y-14765000D02*
X12062000Y-14805000D01*
X12062000Y-14765000D02*
X12022000Y-14805000D01*
X12040000Y-11574000D02*
X12080000Y-11614000D01*
X12080000Y-11574000D02*
X12040000Y-11614000D01*
X12105000Y-10747500D02*
X12145000Y-10787500D01*
X12145000Y-10747500D02*
X12105000Y-10787500D01*
X12105199Y-10257500D02*
X12145199Y-10297500D01*
X12145199Y-10257500D02*
X12105199Y-10297500D01*
X12105199Y-10567500D02*
X12145199Y-10607500D01*
X12145199Y-10567500D02*
X12105199Y-10607500D01*
X12109159Y-10412500D02*
X12149159Y-10452500D01*
X12149159Y-10412500D02*
X12109159Y-10452500D01*
X12130000Y-11460000D02*
X12170000Y-11500000D01*
X12170000Y-11460000D02*
X12130000Y-11500000D01*
X12130000Y-11651500D02*
X12170000Y-11691500D01*
X12170000Y-11651500D02*
X12130000Y-11691500D01*
X12139938Y-11277500D02*
X12179938Y-11317500D01*
X12179938Y-11277500D02*
X12139938Y-11317500D01*
X12152500Y-12600000D02*
X12192500Y-12640000D01*
X12192500Y-12600000D02*
X12152500Y-12640000D01*
X12152553Y-10961108D02*
X12192553Y-11001108D01*
X12192553Y-10961108D02*
X12152553Y-11001108D01*
X12152657Y-12445000D02*
X12192657Y-12485000D01*
X12192657Y-12445000D02*
X12152657Y-12485000D01*
X12159781Y-12290000D02*
X12199781Y-12330000D01*
X12199781Y-12290000D02*
X12159781Y-12330000D01*
X12162164Y-11122500D02*
X12202164Y-11162500D01*
X12202164Y-11122500D02*
X12162164Y-11162500D01*
X12170741Y-12135000D02*
X12210741Y-12175000D01*
X12210741Y-12135000D02*
X12170741Y-12175000D01*
X12265000Y-9950000D02*
X12305000Y-9990000D01*
X12305000Y-9950000D02*
X12265000Y-9990000D01*
X12272000Y-14765000D02*
X12312000Y-14805000D01*
X12312000Y-14765000D02*
X12272000Y-14805000D01*
X12349000Y-8110000D02*
X12389000Y-8150000D01*
X12389000Y-8110000D02*
X12349000Y-8150000D01*
X12377000Y-9814200D02*
X12417000Y-9854200D01*
X12417000Y-9814200D02*
X12377000Y-9854200D01*
X12524000Y-14765000D02*
X12564000Y-14805000D01*
X12564000Y-14765000D02*
X12524000Y-14805000D01*
X12640000Y-11575199D02*
X12680000Y-11615199D01*
X12680000Y-11575199D02*
X12640000Y-11615199D01*
X12704500Y-10815442D02*
X12744500Y-10855442D01*
X12744500Y-10815442D02*
X12704500Y-10855442D01*
X12704500Y-12594612D02*
X12744500Y-12634612D01*
X12744500Y-12594612D02*
X12704500Y-12634612D01*
X12735000Y-9950000D02*
X12775000Y-9990000D01*
X12775000Y-9950000D02*
X12735000Y-9990000D01*
X12742070Y-14713727D02*
X12782070Y-14753727D01*
X12782070Y-14713727D02*
X12742070Y-14753727D01*
X12760000Y-8110000D02*
X12800000Y-8150000D01*
X12800000Y-8110000D02*
X12760000Y-8150000D01*
X12786336Y-12528825D02*
X12826336Y-12568825D01*
X12826336Y-12528825D02*
X12786336Y-12568825D01*
X12847901Y-14717498D02*
X12887901Y-14757498D01*
X12887901Y-14717498D02*
X12847901Y-14757498D01*
X12860493Y-11192051D02*
X12900493Y-11232051D01*
X12900493Y-11192051D02*
X12860493Y-11232051D01*
X12899753Y-12525010D02*
X12939753Y-12565010D01*
X12939753Y-12525010D02*
X12899753Y-12565010D01*
X12937373Y-11115171D02*
X12977373Y-11155171D01*
X12977373Y-11115171D02*
X12937373Y-11155171D01*
X12965000Y-11674556D02*
X13005000Y-11714556D01*
X13005000Y-11674556D02*
X12965000Y-11714556D01*
X13009682Y-12524682D02*
X13049682Y-12564682D01*
X13049682Y-12524682D02*
X13009682Y-12564682D01*
X13033611Y-11073181D02*
X13073611Y-11113181D01*
X13073611Y-11073181D02*
X13033611Y-11113181D01*
X13044500Y-13217500D02*
X13084500Y-13257500D01*
X13084500Y-13217500D02*
X13044500Y-13257500D01*
X13052500Y-11419551D02*
X13092500Y-11459551D01*
X13092500Y-11419551D02*
X13052500Y-11459551D01*
X13120000Y-11010000D02*
X13160000Y-11050000D01*
X13160000Y-11010000D02*
X13120000Y-11050000D01*
X13151179Y-12717346D02*
X13191179Y-12757346D01*
X13191179Y-12717346D02*
X13151179Y-12757346D01*
X13170000Y-8110000D02*
X13210000Y-8150000D01*
X13210000Y-8110000D02*
X13170000Y-8150000D01*
X13200000Y-11840000D02*
X13240000Y-11880000D01*
X13240000Y-11840000D02*
X13200000Y-11880000D01*
X13220000Y-11647500D02*
X13260000Y-11687500D01*
X13260000Y-11647500D02*
X13220000Y-11687500D01*
X13270000Y-10160000D02*
X13310000Y-10200000D01*
X13310000Y-10160000D02*
X13270000Y-10200000D01*
X13310000Y-12562500D02*
X13350000Y-12602500D01*
X13350000Y-12562500D02*
X13310000Y-12602500D01*
X13400000Y-11730000D02*
X13440000Y-11770000D01*
X13440000Y-11730000D02*
X13400000Y-11770000D01*
X13400602Y-11163395D02*
X13440602Y-11203395D01*
X13440602Y-11163395D02*
X13400602Y-11203395D01*
X13458832Y-11250770D02*
X13498832Y-11290770D01*
X13498832Y-11250770D02*
X13458832Y-11290770D01*
X13563604Y-11257691D02*
X13603604Y-11297691D01*
X13603604Y-11257691D02*
X13563604Y-11297691D01*
X13590000Y-8110000D02*
X13630000Y-8150000D01*
X13630000Y-8110000D02*
X13590000Y-8150000D01*
X13594681Y-12754681D02*
X13634681Y-12794681D01*
X13634681Y-12754681D02*
X13594681Y-12794681D01*
X13595000Y-11615000D02*
X13635000Y-11655000D01*
X13635000Y-11615000D02*
X13595000Y-11655000D01*
X13641104Y-11358041D02*
X13681104Y-11398041D01*
X13681104Y-11358041D02*
X13641104Y-11398041D01*
X13689997Y-12989220D02*
X13729997Y-13029220D01*
X13729997Y-12989220D02*
X13689997Y-13029220D01*
X13707000Y-10303000D02*
X13747000Y-10343000D01*
X13747000Y-10303000D02*
X13707000Y-10343000D01*
X13940000Y-13220000D02*
X13980000Y-13260000D01*
X13980000Y-13220000D02*
X13940000Y-13260000D01*
X14000000Y-10355000D02*
X14040000Y-10395000D01*
X14040000Y-10355000D02*
X14000000Y-10395000D01*
X14030000Y-8110000D02*
X14070000Y-8150000D01*
X14070000Y-8110000D02*
X14030000Y-8150000D01*
X14060202Y-9626091D02*
X14100202Y-9666091D01*
X14100202Y-9626091D02*
X14060202Y-9666091D01*
X14105000Y-12555000D02*
X14145000Y-12595000D01*
X14145000Y-12555000D02*
X14105000Y-12595000D01*
X14148889Y-9682301D02*
X14188889Y-9722301D01*
X14188889Y-9682301D02*
X14148889Y-9722301D01*
X14244870Y-9732301D02*
X14284870Y-9772301D01*
X14284870Y-9732301D02*
X14244870Y-9772301D01*
X14277000Y-14566000D02*
X14317000Y-14606000D01*
X14317000Y-14566000D02*
X14277000Y-14606000D01*
X14349037Y-9759371D02*
X14389037Y-9799371D01*
X14389037Y-9759371D02*
X14349037Y-9799371D01*
X14449680Y-9789303D02*
X14489680Y-9829303D01*
X14489680Y-9789303D02*
X14449680Y-9829303D01*
X14470000Y-8110000D02*
X14510000Y-8150000D01*
X14510000Y-8110000D02*
X14470000Y-8150000D01*
X14550323Y-9819236D02*
X14590323Y-9859236D01*
X14590323Y-9819236D02*
X14550323Y-9859236D01*
X14555000Y-14300000D02*
X14595000Y-14340000D01*
X14595000Y-14300000D02*
X14555000Y-14340000D01*
X14588479Y-13934946D02*
X14628479Y-13974946D01*
X14628479Y-13934946D02*
X14588479Y-13974946D01*
X14614608Y-13833249D02*
X14654608Y-13873249D01*
X14654608Y-13833249D02*
X14614608Y-13873249D01*
X14650967Y-9849169D02*
X14690967Y-9889169D01*
X14690967Y-9849169D02*
X14650967Y-9889169D01*
X14656559Y-13726764D02*
X14696559Y-13766764D01*
X14696559Y-13726764D02*
X14656559Y-13766764D01*
X14681634Y-13624802D02*
X14721634Y-13664802D01*
X14721634Y-13624802D02*
X14681634Y-13664802D01*
X14720000Y-14720000D02*
X14760000Y-14760000D01*
X14760000Y-14720000D02*
X14720000Y-14760000D01*
X14720650Y-13522143D02*
X14760650Y-13562143D01*
X14760650Y-13522143D02*
X14720650Y-13562143D01*
X14740000Y-10340000D02*
X14780000Y-10380000D01*
X14780000Y-10340000D02*
X14740000Y-10380000D01*
X14752500Y-9875927D02*
X14792500Y-9915927D01*
X14792500Y-9875927D02*
X14752500Y-9915927D01*
X14775000Y-9710000D02*
X14815000Y-9750000D01*
X14815000Y-9710000D02*
X14775000Y-9750000D01*
X14780000Y-12740000D02*
X14820000Y-12780000D01*
X14820000Y-12740000D02*
X14780000Y-12780000D01*
X14803606Y-13401095D02*
X14843606Y-13441095D01*
X14843606Y-13401095D02*
X14803606Y-13441095D01*
X14833538Y-13300452D02*
X14873538Y-13340452D01*
X14873538Y-13300452D02*
X14833538Y-13340452D01*
X14910000Y-8110000D02*
X14950000Y-8150000D01*
X14950000Y-8110000D02*
X14910000Y-8150000D01*
X14950000Y-14720000D02*
X14990000Y-14760000D01*
X14990000Y-14720000D02*
X14950000Y-14760000D01*
X15053000Y-12999450D02*
X15093000Y-13039450D01*
X15093000Y-12999450D02*
X15053000Y-13039450D01*
X15185000Y-14720000D02*
X15225000Y-14760000D01*
X15225000Y-14720000D02*
X15185000Y-14760000D01*
X15250000Y-12921950D02*
X15290000Y-12961950D01*
X15290000Y-12921950D02*
X15250000Y-12961950D01*
X15320000Y-13770000D02*
X15360000Y-13810000D01*
X15360000Y-13770000D02*
X15320000Y-13810000D01*
X15355000Y-8110000D02*
X15395000Y-8150000D01*
X15395000Y-8110000D02*
X15355000Y-8150000D01*
X15447500Y-14720000D02*
X15487500Y-14760000D01*
X15487500Y-14720000D02*
X15447500Y-14760000D01*
X15470000Y-13635000D02*
X15510000Y-13675000D01*
X15510000Y-13635000D02*
X15470000Y-13675000D01*
X15580000Y-11370000D02*
X15620000Y-11410000D01*
X15620000Y-11370000D02*
X15580000Y-11410000D01*
X15584000Y-12769000D02*
X15624000Y-12809000D01*
X15624000Y-12769000D02*
X15584000Y-12809000D01*
X15697500Y-14720000D02*
X15737500Y-14760000D01*
X15737500Y-14720000D02*
X15697500Y-14760000D01*
X15707500Y-9438656D02*
X15747500Y-9478656D01*
X15747500Y-9438656D02*
X15707500Y-9478656D01*
X15707879Y-9547879D02*
X15747879Y-9587879D01*
X15747879Y-9547879D02*
X15707879Y-9587879D01*
X15709990Y-9655369D02*
X15749990Y-9695369D01*
X15749990Y-9655369D02*
X15709990Y-9695369D01*
X15766000Y-8110000D02*
X15806000Y-8150000D01*
X15806000Y-8110000D02*
X15766000Y-8150000D01*
X15820000Y-10460000D02*
X15860000Y-10500000D01*
X15860000Y-10460000D02*
X15820000Y-10500000D01*
X15894430Y-12630503D02*
X15934430Y-12670503D01*
X15934430Y-12630503D02*
X15894430Y-12670503D01*
X15895500Y-12952200D02*
X15935500Y-12992200D01*
X15935500Y-12952200D02*
X15895500Y-12992200D01*
X15896486Y-12846074D02*
X15936486Y-12886074D01*
X15936486Y-12846074D02*
X15896486Y-12886074D01*
X15897500Y-12735458D02*
X15937500Y-12775458D01*
X15937500Y-12735458D02*
X15897500Y-12775458D01*
X15955000Y-14717500D02*
X15995000Y-14757500D01*
X15995000Y-14717500D02*
X15955000Y-14757500D01*
X16095000Y-10335000D02*
X16135000Y-10375000D01*
X16135000Y-10335000D02*
X16095000Y-10375000D01*
X16146000Y-8110000D02*
X16186000Y-8150000D01*
X16186000Y-8110000D02*
X16146000Y-8150000D01*
X16164964Y-12845011D02*
X16204964Y-12885011D01*
X16204964Y-12845011D02*
X16164964Y-12885011D01*
X16165000Y-12630000D02*
X16205000Y-12670000D01*
X16205000Y-12630000D02*
X16165000Y-12670000D01*
X16165000Y-12735000D02*
X16205000Y-12775000D01*
X16205000Y-12735000D02*
X16165000Y-12775000D01*
X16166500Y-12950000D02*
X16206500Y-12990000D01*
X16206500Y-12950000D02*
X16166500Y-12990000D01*
X16202500Y-14717500D02*
X16242500Y-14757500D01*
X16242500Y-14717500D02*
X16202500Y-14757500D01*
X16408829Y-10276629D02*
X16448829Y-10316629D01*
X16448829Y-10276629D02*
X16408829Y-10316629D01*
X16465000Y-14717500D02*
X16505000Y-14757500D01*
X16505000Y-14717500D02*
X16465000Y-14757500D01*
X16512500Y-12477499D02*
X16552500Y-12517499D01*
X16552500Y-12477499D02*
X16512500Y-12517499D01*
X16512500Y-12582499D02*
X16552500Y-12622499D01*
X16552500Y-12582499D02*
X16512500Y-12622499D01*
X16512500Y-12687499D02*
X16552500Y-12727499D01*
X16552500Y-12687499D02*
X16512500Y-12727499D01*
X16512500Y-12792500D02*
X16552500Y-12832500D01*
X16552500Y-12792500D02*
X16512500Y-12832500D01*
X16512500Y-12897500D02*
X16552500Y-12937500D01*
X16552500Y-12897500D02*
X16512500Y-12937500D01*
X16526000Y-8110000D02*
X16566000Y-8150000D01*
X16566000Y-8110000D02*
X16526000Y-8150000D01*
X16570000Y-9615000D02*
X16610000Y-9655000D01*
X16610000Y-9615000D02*
X16570000Y-9655000D01*
X16620000Y-10005000D02*
X16660000Y-10045000D01*
X16660000Y-10005000D02*
X16620000Y-10045000D01*
X16620000Y-12070000D02*
X16660000Y-12110000D01*
X16660000Y-12070000D02*
X16620000Y-12110000D01*
X16655999Y-11414001D02*
X16695999Y-11454001D01*
X16695999Y-11414001D02*
X16655999Y-11454001D01*
X16665000Y-11805000D02*
X16705000Y-11845000D01*
X16705000Y-11805000D02*
X16665000Y-11845000D01*
X16675000Y-10440000D02*
X16715000Y-10480000D01*
X16715000Y-10440000D02*
X16675000Y-10480000D01*
X16690000Y-14720000D02*
X16730000Y-14760000D01*
X16730000Y-14720000D02*
X16690000Y-14760000D01*
X16725793Y-9860000D02*
X16765793Y-9900000D01*
X16765793Y-9860000D02*
X16725793Y-9900000D01*
X16825000Y-10190000D02*
X16865000Y-10230000D01*
X16865000Y-10190000D02*
X16825000Y-10230000D01*
X16860000Y-14250000D02*
X16900000Y-14290000D01*
X16900000Y-14250000D02*
X16860000Y-14290000D01*
X16880000Y-13597000D02*
X16920000Y-13637000D01*
X16920000Y-13597000D02*
X16880000Y-13637000D01*
X16937000Y-8110000D02*
X16977000Y-8150000D01*
X16977000Y-8110000D02*
X16937000Y-8150000D01*
X16955176Y-11635752D02*
X16995176Y-11675752D01*
X16995176Y-11635752D02*
X16955176Y-11675752D01*
X16977500Y-14720000D02*
X17017500Y-14760000D01*
X17017500Y-14720000D02*
X16977500Y-14760000D01*
X16998000Y-13180000D02*
X17038000Y-13220000D01*
X17038000Y-13180000D02*
X16998000Y-13220000D01*
X17000000Y-11080000D02*
X17040000Y-11120000D01*
X17040000Y-11080000D02*
X17000000Y-11120000D01*
X17001085Y-11771671D02*
X17041085Y-11811671D01*
X17041085Y-11771671D02*
X17001085Y-11811671D01*
X17030000Y-13980000D02*
X17070000Y-14020000D01*
X17070000Y-13980000D02*
X17030000Y-14020000D01*
X17065511Y-13065511D02*
X17105511Y-13105511D01*
X17105511Y-13065511D02*
X17065511Y-13105511D01*
X17078262Y-11150000D02*
X17118262Y-11190000D01*
X17118262Y-11150000D02*
X17078262Y-11190000D01*
X17110000Y-10880000D02*
X17150000Y-10920000D01*
X17150000Y-10880000D02*
X17110000Y-10920000D01*
X17170322Y-13059213D02*
X17210322Y-13099213D01*
X17210322Y-13059213D02*
X17170322Y-13099213D01*
X17175000Y-14250000D02*
X17215000Y-14290000D01*
X17215000Y-14250000D02*
X17175000Y-14290000D01*
X17180000Y-14510000D02*
X17220000Y-14550000D01*
X17220000Y-14510000D02*
X17180000Y-14550000D01*
X17193915Y-11305000D02*
X17233915Y-11345000D01*
X17233915Y-11305000D02*
X17193915Y-11345000D01*
X17347000Y-8110000D02*
X17387000Y-8150000D01*
X17387000Y-8110000D02*
X17347000Y-8150000D01*
X17472500Y-14747500D02*
X17512500Y-14787500D01*
X17512500Y-14747500D02*
X17472500Y-14787500D01*
X17660000Y-11670000D02*
X17700000Y-11710000D01*
X17700000Y-11670000D02*
X17660000Y-11710000D01*
X17717500Y-14747500D02*
X17757500Y-14787500D01*
X17757500Y-14747500D02*
X17717500Y-14787500D01*
X17767000Y-8110000D02*
X17807000Y-8150000D01*
X17807000Y-8110000D02*
X17767000Y-8150000D01*
X17980000Y-14200000D02*
X18020000Y-14240000D01*
X18020000Y-14200000D02*
X17980000Y-14240000D01*
X18205000Y-11365000D02*
X18245000Y-11405000D01*
X18245000Y-11365000D02*
X18205000Y-11405000D01*
X18207000Y-8110000D02*
X18247000Y-8150000D01*
X18247000Y-8110000D02*
X18207000Y-8150000D01*
X18212500Y-13927500D02*
X18252500Y-13967500D01*
X18252500Y-13927500D02*
X18212500Y-13967500D01*
X18300000Y-14420000D02*
X18340000Y-14460000D01*
X18340000Y-14420000D02*
X18300000Y-14460000D01*
X18396250Y-14552500D02*
X18436250Y-14592500D01*
X18436250Y-14552500D02*
X18396250Y-14592500D01*
X18465000Y-13775000D02*
X18505000Y-13815000D01*
X18505000Y-13775000D02*
X18465000Y-13815000D01*
X18480000Y-11405000D02*
X18520000Y-11445000D01*
X18520000Y-11405000D02*
X18480000Y-11445000D01*
X18600000Y-13100000D02*
X18640000Y-13140000D01*
X18640000Y-13100000D02*
X18600000Y-13140000D01*
X18647000Y-8110000D02*
X18687000Y-8150000D01*
X18687000Y-8110000D02*
X18647000Y-8150000D01*
X18680000Y-11405000D02*
X18720000Y-11445000D01*
X18720000Y-11405000D02*
X18680000Y-11445000D01*
X18690000Y-13775000D02*
X18730000Y-13815000D01*
X18730000Y-13775000D02*
X18690000Y-13815000D01*
X18720000Y-10030000D02*
X18760000Y-10070000D01*
X18760000Y-10030000D02*
X18720000Y-10070000D01*
X18720000Y-10430000D02*
X18760000Y-10470000D01*
X18760000Y-10430000D02*
X18720000Y-10470000D01*
X18870000Y-14370000D02*
X18910000Y-14410000D01*
X18910000Y-14370000D02*
X18870000Y-14410000D01*
X18880000Y-11405000D02*
X18920000Y-11445000D01*
X18920000Y-11405000D02*
X18880000Y-11445000D01*
X18880000Y-13130000D02*
X18920000Y-13170000D01*
X18920000Y-13130000D02*
X18880000Y-13170000D01*
X18957199Y-14742801D02*
X18997199Y-14782801D01*
X18997199Y-14742801D02*
X18957199Y-14782801D01*
X18994801Y-11612500D02*
X19034801Y-11652500D01*
X19034801Y-11612500D02*
X18994801Y-11652500D01*
X19020000Y-14370000D02*
X19060000Y-14410000D01*
X19060000Y-14370000D02*
X19020000Y-14410000D01*
X19080000Y-11405000D02*
X19120000Y-11445000D01*
X19120000Y-11405000D02*
X19080000Y-11445000D01*
X19087000Y-8110000D02*
X19127000Y-8150000D01*
X19127000Y-8110000D02*
X19087000Y-8150000D01*
X19094864Y-11660291D02*
X19134864Y-11700291D01*
X19134864Y-11660291D02*
X19094864Y-11700291D01*
X19100000Y-12635000D02*
X19140000Y-12675000D01*
X19140000Y-12635000D02*
X19100000Y-12675000D01*
X19150000Y-9655000D02*
X19190000Y-9695000D01*
X19190000Y-9655000D02*
X19150000Y-9695000D01*
X19150000Y-10030000D02*
X19190000Y-10070000D01*
X19190000Y-10030000D02*
X19150000Y-10070000D01*
X19150000Y-10430000D02*
X19190000Y-10470000D01*
X19190000Y-10430000D02*
X19150000Y-10470000D01*
X19150000Y-14370000D02*
X19190000Y-14410000D01*
X19190000Y-14370000D02*
X19150000Y-14410000D01*
X19155000Y-13130000D02*
X19195000Y-13170000D01*
X19195000Y-13130000D02*
X19155000Y-13170000D01*
X19187000Y-13307500D02*
X19227000Y-13347500D01*
X19227000Y-13307500D02*
X19187000Y-13347500D01*
X19191761Y-11700739D02*
X19231761Y-11740739D01*
X19231761Y-11700739D02*
X19191761Y-11740739D01*
X19202500Y-11080000D02*
X19242500Y-11120000D01*
X19242500Y-11080000D02*
X19202500Y-11120000D01*
X19215000Y-12750000D02*
X19255000Y-12790000D01*
X19255000Y-12750000D02*
X19215000Y-12790000D01*
X19280000Y-11405000D02*
X19320000Y-11445000D01*
X19320000Y-11405000D02*
X19280000Y-11445000D01*
X19314000Y-13620000D02*
X19354000Y-13660000D01*
X19354000Y-13620000D02*
X19314000Y-13660000D01*
X19320000Y-14730000D02*
X19360000Y-14770000D01*
X19360000Y-14730000D02*
X19320000Y-14770000D01*
X19330000Y-12830000D02*
X19370000Y-12870000D01*
X19370000Y-12830000D02*
X19330000Y-12870000D01*
X19355000Y-13920000D02*
X19395000Y-13960000D01*
X19395000Y-13920000D02*
X19355000Y-13960000D01*
X19480000Y-11405000D02*
X19520000Y-11445000D01*
X19520000Y-11405000D02*
X19480000Y-11445000D01*
X19494000Y-12895000D02*
X19534000Y-12935000D01*
X19534000Y-12895000D02*
X19494000Y-12935000D01*
X19523000Y-8110000D02*
X19563000Y-8150000D01*
X19563000Y-8110000D02*
X19523000Y-8150000D01*
X19560000Y-9655000D02*
X19600000Y-9695000D01*
X19600000Y-9655000D02*
X19560000Y-9695000D01*
X19560000Y-10030000D02*
X19600000Y-10070000D01*
X19600000Y-10030000D02*
X19560000Y-10070000D01*
X19560000Y-10430000D02*
X19600000Y-10470000D01*
X19600000Y-10430000D02*
X19560000Y-10470000D01*
X19567500Y-13620000D02*
X19607500Y-13660000D01*
X19607500Y-13620000D02*
X19567500Y-13660000D01*
X19595000Y-13920000D02*
X19635000Y-13960000D01*
X19635000Y-13920000D02*
X19595000Y-13960000D01*
X19602500Y-12675000D02*
X19642500Y-12715000D01*
X19642500Y-12675000D02*
X19602500Y-12715000D01*
X19640000Y-11000000D02*
X19680000Y-11040000D01*
X19680000Y-11000000D02*
X19640000Y-11040000D01*
X19680000Y-11405000D02*
X19720000Y-11445000D01*
X19720000Y-11405000D02*
X19680000Y-11445000D01*
X19752500Y-14730000D02*
X19792500Y-14770000D01*
X19792500Y-14730000D02*
X19752500Y-14770000D01*
X19822000Y-13620000D02*
X19862000Y-13660000D01*
X19862000Y-13620000D02*
X19822000Y-13660000D01*
X19847500Y-12675000D02*
X19887500Y-12715000D01*
X19887500Y-12675000D02*
X19847500Y-12715000D01*
X19934000Y-8110000D02*
X19974000Y-8150000D01*
X19974000Y-8110000D02*
X19934000Y-8150000D01*
X19980000Y-9655000D02*
X20020000Y-9695000D01*
X20020000Y-9655000D02*
X19980000Y-9695000D01*
X19980000Y-10030000D02*
X20020000Y-10070000D01*
X20020000Y-10030000D02*
X19980000Y-10070000D01*
X19980000Y-10430000D02*
X20020000Y-10470000D01*
X20020000Y-10430000D02*
X19980000Y-10470000D01*
X19980000Y-10940000D02*
X20020000Y-10980000D01*
X20020000Y-10940000D02*
X19980000Y-10980000D01*
X20005000Y-11280000D02*
X20045000Y-11320000D01*
X20045000Y-11280000D02*
X20005000Y-11320000D01*
X20065000Y-14729000D02*
X20105000Y-14769000D01*
X20105000Y-14729000D02*
X20065000Y-14769000D01*
X20076000Y-13620000D02*
X20116000Y-13660000D01*
X20116000Y-13620000D02*
X20076000Y-13660000D01*
X20118916Y-12673066D02*
X20158916Y-12713066D01*
X20158916Y-12673066D02*
X20118916Y-12713066D01*
X20314000Y-8110000D02*
X20354000Y-8150000D01*
X20354000Y-8110000D02*
X20314000Y-8150000D01*
X20327500Y-14730000D02*
X20367500Y-14770000D01*
X20367500Y-14730000D02*
X20327500Y-14770000D01*
X20330000Y-12680000D02*
X20370000Y-12720000D01*
X20370000Y-12680000D02*
X20330000Y-12720000D01*
X20360000Y-13920000D02*
X20400000Y-13960000D01*
X20400000Y-13920000D02*
X20360000Y-13960000D01*
X20420000Y-9655000D02*
X20460000Y-9695000D01*
X20460000Y-9655000D02*
X20420000Y-9695000D01*
X20420000Y-10030000D02*
X20460000Y-10070000D01*
X20460000Y-10030000D02*
X20420000Y-10070000D01*
X20420000Y-10430000D02*
X20460000Y-10470000D01*
X20460000Y-10430000D02*
X20420000Y-10470000D01*
X20420000Y-10940000D02*
X20460000Y-10980000D01*
X20460000Y-10940000D02*
X20420000Y-10980000D01*
X20480000Y-8957500D02*
X20520000Y-8997500D01*
X20520000Y-8957500D02*
X20480000Y-8997500D01*
X20480000Y-9120000D02*
X20520000Y-9160000D01*
X20520000Y-9120000D02*
X20480000Y-9160000D01*
X20555000Y-9040000D02*
X20595000Y-9080000D01*
X20595000Y-9040000D02*
X20555000Y-9080000D01*
X20555000Y-9200000D02*
X20595000Y-9240000D01*
X20595000Y-9200000D02*
X20555000Y-9240000D01*
X20650000Y-14540000D02*
X20690000Y-14580000D01*
X20690000Y-14540000D02*
X20650000Y-14580000D01*
X20653000Y-14646602D02*
X20693000Y-14686602D01*
X20693000Y-14646602D02*
X20653000Y-14686602D01*
X20694000Y-8110000D02*
X20734000Y-8150000D01*
X20734000Y-8110000D02*
X20694000Y-8150000D01*
X20695156Y-12732500D02*
X20735156Y-12772500D01*
X20735156Y-12732500D02*
X20695156Y-12772500D01*
X20800156Y-12732500D02*
X20840156Y-12772500D01*
X20840156Y-12732500D02*
X20800156Y-12772500D01*
X20804098Y-12512637D02*
X20844098Y-12552637D01*
X20844098Y-12512637D02*
X20804098Y-12552637D01*
X20804669Y-12622810D02*
X20844669Y-12662810D01*
X20844669Y-12622810D02*
X20804669Y-12662810D01*
X20804853Y-12294189D02*
X20844853Y-12334189D01*
X20844853Y-12294189D02*
X20804853Y-12334189D01*
X20805531Y-12404469D02*
X20845531Y-12444469D01*
X20845531Y-12404469D02*
X20805531Y-12444469D01*
X20810160Y-12189323D02*
X20850160Y-12229323D01*
X20850160Y-12189323D02*
X20810160Y-12229323D01*
X20843111Y-14692713D02*
X20883111Y-14732713D01*
X20883111Y-14692713D02*
X20843111Y-14732713D01*
X20860000Y-9655000D02*
X20900000Y-9695000D01*
X20900000Y-9655000D02*
X20860000Y-9695000D01*
X20860000Y-10030000D02*
X20900000Y-10070000D01*
X20900000Y-10030000D02*
X20860000Y-10070000D01*
X20860000Y-10430000D02*
X20900000Y-10470000D01*
X20900000Y-10430000D02*
X20860000Y-10470000D01*
X20860000Y-10940000D02*
X20900000Y-10980000D01*
X20900000Y-10940000D02*
X20860000Y-10980000D01*
X20880000Y-13105000D02*
X20920000Y-13145000D01*
X20920000Y-13105000D02*
X20880000Y-13145000D01*
X20911016Y-14509801D02*
X20951016Y-14549801D01*
X20951016Y-14509801D02*
X20911016Y-14549801D01*
X20966765Y-14344956D02*
X21006765Y-14384956D01*
X21006765Y-14344956D02*
X20966765Y-14384956D01*
X21017190Y-14180000D02*
X21057190Y-14220000D01*
X21057190Y-14180000D02*
X21017190Y-14220000D01*
X21090409Y-13094609D02*
X21130409Y-13134609D01*
X21130409Y-13094609D02*
X21090409Y-13134609D01*
X21098043Y-12238915D02*
X21138043Y-12278915D01*
X21138043Y-12238915D02*
X21098043Y-12278915D01*
X21100000Y-11440000D02*
X21140000Y-11480000D01*
X21140000Y-11440000D02*
X21100000Y-11480000D01*
X21105000Y-8110000D02*
X21145000Y-8150000D01*
X21145000Y-8110000D02*
X21105000Y-8150000D01*
X21127550Y-14612450D02*
X21167550Y-14652450D01*
X21167550Y-14612450D02*
X21127550Y-14652450D01*
X21196227Y-13094640D02*
X21236227Y-13134640D01*
X21236227Y-13094640D02*
X21196227Y-13134640D01*
X21202965Y-12234886D02*
X21242965Y-12274886D01*
X21242965Y-12234886D02*
X21202965Y-12274886D01*
X21380000Y-13600000D02*
X21420000Y-13640000D01*
X21420000Y-13600000D02*
X21380000Y-13640000D01*
X21440000Y-13010000D02*
X21480000Y-13050000D01*
X21480000Y-13010000D02*
X21440000Y-13050000D01*
X21505000Y-11705000D02*
X21545000Y-11745000D01*
X21545000Y-11705000D02*
X21505000Y-11745000D01*
X21505000Y-14610000D02*
X21545000Y-14650000D01*
X21545000Y-14610000D02*
X21505000Y-14650000D01*
X21515000Y-8110000D02*
X21555000Y-8150000D01*
X21555000Y-8110000D02*
X21515000Y-8150000D01*
X21595000Y-12907500D02*
X21635000Y-12947500D01*
X21635000Y-12907500D02*
X21595000Y-12947500D01*
X21635147Y-12810478D02*
X21675147Y-12850478D01*
X21675147Y-12810478D02*
X21635147Y-12850478D01*
X21640000Y-13490000D02*
X21680000Y-13530000D01*
X21680000Y-13490000D02*
X21640000Y-13530000D01*
X21705000Y-14030000D02*
X21745000Y-14070000D01*
X21745000Y-14030000D02*
X21705000Y-14070000D01*
X21740000Y-10980000D02*
X21780000Y-11020000D01*
X21780000Y-10980000D02*
X21740000Y-11020000D01*
X21765000Y-13490000D02*
X21805000Y-13530000D01*
X21805000Y-13490000D02*
X21765000Y-13530000D01*
X21780000Y-11480000D02*
X21820000Y-11520000D01*
X21820000Y-11480000D02*
X21780000Y-11520000D01*
X21805000Y-10030000D02*
X21845000Y-10070000D01*
X21845000Y-10030000D02*
X21805000Y-10070000D01*
X21805000Y-10355000D02*
X21845000Y-10395000D01*
X21845000Y-10355000D02*
X21805000Y-10395000D01*
X21850000Y-12620000D02*
X21890000Y-12660000D01*
X21890000Y-12620000D02*
X21850000Y-12660000D01*
X21879801Y-12427699D02*
X21919801Y-12467699D01*
X21919801Y-12427699D02*
X21879801Y-12467699D01*
X21880000Y-9215000D02*
X21920000Y-9255000D01*
X21920000Y-9215000D02*
X21880000Y-9255000D01*
X21890000Y-13490000D02*
X21930000Y-13530000D01*
X21930000Y-13490000D02*
X21890000Y-13530000D01*
X21890063Y-12323202D02*
X21930063Y-12363202D01*
X21930063Y-12323202D02*
X21890063Y-12363202D01*
X21905000Y-8270000D02*
X21945000Y-8310000D01*
X21945000Y-8270000D02*
X21905000Y-8310000D01*
X21905000Y-8540000D02*
X21945000Y-8580000D01*
X21945000Y-8540000D02*
X21905000Y-8580000D01*
X21935000Y-8110000D02*
X21975000Y-8150000D01*
X21975000Y-8110000D02*
X21935000Y-8150000D01*
X21952500Y-13130000D02*
X21992500Y-13170000D01*
X21992500Y-13130000D02*
X21952500Y-13170000D01*
X22078124Y-9118352D02*
X22118124Y-9158352D01*
X22118124Y-9118352D02*
X22078124Y-9158352D01*
X22105000Y-14330000D02*
X22145000Y-14370000D01*
X22145000Y-14330000D02*
X22105000Y-14370000D01*
X22172500Y-12872500D02*
X22212500Y-12912500D01*
X22212500Y-12872500D02*
X22172500Y-12912500D01*
X22250000Y-11480000D02*
X22290000Y-11520000D01*
X22290000Y-11480000D02*
X22250000Y-11520000D01*
X22350000Y-12872500D02*
X22390000Y-12912500D01*
X22390000Y-12872500D02*
X22350000Y-12912500D01*
X22380000Y-8110000D02*
X22420000Y-8150000D01*
X22420000Y-8110000D02*
X22380000Y-8150000D01*
X22397500Y-9270000D02*
X22437500Y-9310000D01*
X22437500Y-9270000D02*
X22397500Y-9310000D01*
X22535000Y-14330000D02*
X22575000Y-14370000D01*
X22575000Y-14330000D02*
X22535000Y-14370000D01*
X22665000Y-11540000D02*
X22705000Y-11580000D01*
X22705000Y-11540000D02*
X22665000Y-11580000D01*
X22730000Y-10030000D02*
X22770000Y-10070000D01*
X22770000Y-10030000D02*
X22730000Y-10070000D01*
X22730000Y-14030000D02*
X22770000Y-14070000D01*
X22770000Y-14030000D02*
X22730000Y-14070000D01*
X22800000Y-8110000D02*
X22840000Y-8150000D01*
X22840000Y-8110000D02*
X22800000Y-8150000D01*
X22905000Y-11540000D02*
X22945000Y-11580000D01*
X22945000Y-11540000D02*
X22905000Y-11580000D01*
X22985000Y-14330000D02*
X23025000Y-14370000D01*
X23025000Y-14330000D02*
X22985000Y-14370000D01*
X23180000Y-8110000D02*
X23220000Y-8150000D01*
X23220000Y-8110000D02*
X23180000Y-8150000D01*
X23310000Y-11540000D02*
X23350000Y-11580000D01*
X23350000Y-11540000D02*
X23310000Y-11580000D01*
X23390000Y-8310000D02*
X23430000Y-8350000D01*
X23430000Y-8310000D02*
X23390000Y-8350000D01*
X23480000Y-11410000D02*
X23520000Y-11450000D01*
X23520000Y-11410000D02*
X23480000Y-11450000D01*
X23480000Y-11860000D02*
X23520000Y-11900000D01*
X23520000Y-11860000D02*
X23480000Y-11900000D01*
X23480000Y-12320000D02*
X23520000Y-12360000D01*
X23520000Y-12320000D02*
X23480000Y-12360000D01*
X23480000Y-12745000D02*
X23520000Y-12785000D01*
X23520000Y-12745000D02*
X23480000Y-12785000D01*
X23480000Y-13195000D02*
X23520000Y-13235000D01*
X23520000Y-13195000D02*
X23480000Y-13235000D01*
X23480000Y-13620000D02*
X23520000Y-13660000D01*
X23520000Y-13620000D02*
X23480000Y-13660000D01*
X23480000Y-14070000D02*
X23520000Y-14110000D01*
X23520000Y-14070000D02*
X23480000Y-14110000D01*
X23590000Y-8510000D02*
X23630000Y-8550000D01*
X23630000Y-8510000D02*
X23590000Y-8550000D01*
X21302500Y-11230000D02*
G75*
G02*
X21237500Y-11230000I-32500J0D01*
G01*
X21237500Y-11230000D02*
G75*
G02*
X21302500Y-11230000I32500J0D01*
G01*
X21302500Y-11357000D02*
G75*
G02*
X21237500Y-11357000I-32500J0D01*
G01*
X21237500Y-11357000D02*
G75*
G02*
X21302500Y-11357000I32500J0D01*
G01*
X21612500Y-11230000D02*
G75*
G02*
X21547500Y-11230000I-32500J0D01*
G01*
X21547500Y-11230000D02*
G75*
G02*
X21612500Y-11230000I32500J0D01*
G01*
X21612500Y-11357000D02*
G75*
G02*
X21547500Y-11357000I-32500J0D01*
G01*
X21547500Y-11357000D02*
G75*
G02*
X21612500Y-11357000I32500J0D01*
G01*
X15927000Y-8650000D02*
X15927000Y-8750000D01*
X15877000Y-8700000D02*
X15977000Y-8700000D01*
X15927000Y-8904000D02*
X15927000Y-9004000D01*
X15877000Y-8954000D02*
X15977000Y-8954000D01*
X16181000Y-8650000D02*
X16181000Y-8750000D01*
X16131000Y-8700000D02*
X16231000Y-8700000D01*
X16181000Y-8904000D02*
X16181000Y-9004000D01*
X16131000Y-8954000D02*
X16231000Y-8954000D01*
X16435000Y-8650000D02*
X16435000Y-8750000D01*
X16385000Y-8700000D02*
X16485000Y-8700000D01*
X16435000Y-8904000D02*
X16435000Y-9004000D01*
X16385000Y-8954000D02*
X16485000Y-8954000D01*
X16689000Y-8650000D02*
X16689000Y-8750000D01*
X16639000Y-8700000D02*
X16739000Y-8700000D01*
X16689000Y-8904000D02*
X16689000Y-9004000D01*
X16639000Y-8954000D02*
X16739000Y-8954000D01*
X16943000Y-8650000D02*
X16943000Y-8750000D01*
X16893000Y-8700000D02*
X16993000Y-8700000D01*
X16943000Y-8904000D02*
X16943000Y-9004000D01*
X16893000Y-8954000D02*
X16993000Y-8954000D01*
X17197000Y-8650000D02*
X17197000Y-8750000D01*
X17147000Y-8700000D02*
X17247000Y-8700000D01*
X17197000Y-8904000D02*
X17197000Y-9004000D01*
X17147000Y-8954000D02*
X17247000Y-8954000D01*
X17451000Y-8650000D02*
X17451000Y-8750000D01*
X17401000Y-8700000D02*
X17501000Y-8700000D01*
X17451000Y-8904000D02*
X17451000Y-9004000D01*
X17401000Y-8954000D02*
X17501000Y-8954000D01*
X17705000Y-8650000D02*
X17705000Y-8750000D01*
X17655000Y-8700000D02*
X17755000Y-8700000D01*
X17705000Y-8904000D02*
X17705000Y-9004000D01*
X17655000Y-8954000D02*
X17755000Y-8954000D01*
X17959000Y-8650000D02*
X17959000Y-8750000D01*
X17909000Y-8700000D02*
X18009000Y-8700000D01*
X17959000Y-8904000D02*
X17959000Y-9004000D01*
X17909000Y-8954000D02*
X18009000Y-8954000D01*
X18213000Y-8650000D02*
X18213000Y-8750000D01*
X18163000Y-8700000D02*
X18263000Y-8700000D01*
X18213000Y-8904000D02*
X18213000Y-9004000D01*
X18163000Y-8954000D02*
X18263000Y-8954000D01*
X18467000Y-8650000D02*
X18467000Y-8750000D01*
X18417000Y-8700000D02*
X18517000Y-8700000D01*
X18467000Y-8904000D02*
X18467000Y-9004000D01*
X18417000Y-8954000D02*
X18517000Y-8954000D01*
X18721000Y-8650000D02*
X18721000Y-8750000D01*
X18671000Y-8700000D02*
X18771000Y-8700000D01*
X18721000Y-8904000D02*
X18721000Y-9004000D01*
X18671000Y-8954000D02*
X18771000Y-8954000D01*
X18975000Y-8650000D02*
X18975000Y-8750000D01*
X18925000Y-8700000D02*
X19025000Y-8700000D01*
X18975000Y-8904000D02*
X18975000Y-9004000D01*
X18925000Y-8954000D02*
X19025000Y-8954000D01*
X19356000Y-14340000D02*
X19356000Y-14440000D01*
X19306000Y-14390000D02*
X19406000Y-14390000D01*
X19610000Y-14340000D02*
X19610000Y-14440000D01*
X19560000Y-14390000D02*
X19660000Y-14390000D01*
D13*
X22789952Y-10294452D02*
X22789952Y-10214548D01*
X22710048Y-10214548D01*
X22710048Y-10294452D01*
X22789952Y-10294452D01*
X22789952Y-10523452D02*
X22789952Y-10443548D01*
X22710048Y-10443548D01*
X22710048Y-10523452D01*
X22789952Y-10523452D01*
X22789952Y-10752452D02*
X22789952Y-10672548D01*
X22710048Y-10672548D01*
X22710048Y-10752452D01*
X22789952Y-10752452D01*
X22789952Y-10981452D02*
X22789952Y-10901548D01*
X22710048Y-10901548D01*
X22710048Y-10981452D01*
X22789952Y-10981452D01*
X22789952Y-11210452D02*
X22789952Y-11130548D01*
X22710048Y-11130548D01*
X22710048Y-11210452D01*
X22789952Y-11210452D01*
X23039952Y-10179952D02*
X23039952Y-10100048D01*
X22960048Y-10100048D01*
X22960048Y-10179952D01*
X23039952Y-10179952D01*
X23039952Y-10408952D02*
X23039952Y-10329048D01*
X22960048Y-10329048D01*
X22960048Y-10408952D01*
X23039952Y-10408952D01*
X23039952Y-10637952D02*
X23039952Y-10558048D01*
X22960048Y-10558048D01*
X22960048Y-10637952D01*
X23039952Y-10637952D01*
X23039952Y-10866952D02*
X23039952Y-10787048D01*
X22960048Y-10787048D01*
X22960048Y-10866952D01*
X23039952Y-10866952D01*
X23039952Y-11095952D02*
X23039952Y-11016048D01*
X22960048Y-11016048D01*
X22960048Y-11095952D01*
X23039952Y-11095952D01*
X23289952Y-10294452D02*
X23289952Y-10214548D01*
X23210048Y-10214548D01*
X23210048Y-10294452D01*
X23289952Y-10294452D01*
X23289952Y-10523452D02*
X23289952Y-10443548D01*
X23210048Y-10443548D01*
X23210048Y-10523452D01*
X23289952Y-10523452D01*
X23289952Y-10752452D02*
X23289952Y-10672548D01*
X23210048Y-10672548D01*
X23210048Y-10752452D01*
X23289952Y-10752452D01*
X23289952Y-10981452D02*
X23289952Y-10901548D01*
X23210048Y-10901548D01*
X23210048Y-10981452D01*
X23289952Y-10981452D01*
X23289952Y-11210452D02*
X23289952Y-11130548D01*
X23210048Y-11130548D01*
X23210048Y-11210452D01*
X23289952Y-11210452D01*
D14*
X23000000Y-9602000D02*
X23161500Y-9440500D01*
X23000000Y-9279000D01*
X22838500Y-9440500D01*
X23000000Y-9602000D01*
X23000000Y-12101000D02*
X23161500Y-11939500D01*
X23000000Y-11778000D01*
X22838500Y-11939500D01*
X23000000Y-12101000D01*
D11*
X8482165Y-16048984D02*
X8482165Y-15848984D01*
X8482165Y-15848984D02*
X8529784Y-15848984D01*
X8529784Y-15848984D02*
X8558355Y-15858508D01*
X8558355Y-15858508D02*
X8577403Y-15877555D01*
X8577403Y-15877555D02*
X8586927Y-15896603D01*
X8586927Y-15896603D02*
X8596450Y-15934698D01*
X8596450Y-15934698D02*
X8596450Y-15963269D01*
X8596450Y-15963269D02*
X8586927Y-16001365D01*
X8586927Y-16001365D02*
X8577403Y-16020412D01*
X8577403Y-16020412D02*
X8558355Y-16039460D01*
X8558355Y-16039460D02*
X8529784Y-16048984D01*
X8529784Y-16048984D02*
X8482165Y-16048984D01*
X8682165Y-16048984D02*
X8682165Y-15915650D01*
X8682165Y-15953746D02*
X8691689Y-15934698D01*
X8691689Y-15934698D02*
X8701212Y-15925174D01*
X8701212Y-15925174D02*
X8720260Y-15915650D01*
X8720260Y-15915650D02*
X8739308Y-15915650D01*
X8805974Y-16048984D02*
X8805974Y-15915650D01*
X8805974Y-15848984D02*
X8796450Y-15858508D01*
X8796450Y-15858508D02*
X8805974Y-15868031D01*
X8805974Y-15868031D02*
X8815498Y-15858508D01*
X8815498Y-15858508D02*
X8805974Y-15848984D01*
X8805974Y-15848984D02*
X8805974Y-15868031D01*
X8929784Y-16048984D02*
X8910736Y-16039460D01*
X8910736Y-16039460D02*
X8901212Y-16020412D01*
X8901212Y-16020412D02*
X8901212Y-15848984D01*
X9034546Y-16048984D02*
X9015498Y-16039460D01*
X9015498Y-16039460D02*
X9005974Y-16020412D01*
X9005974Y-16020412D02*
X9005974Y-15848984D01*
X9263117Y-16048984D02*
X9263117Y-15848984D01*
X9263117Y-15848984D02*
X9329784Y-15991841D01*
X9329784Y-15991841D02*
X9396450Y-15848984D01*
X9396450Y-15848984D02*
X9396450Y-16048984D01*
X9577403Y-16048984D02*
X9577403Y-15944222D01*
X9577403Y-15944222D02*
X9567879Y-15925174D01*
X9567879Y-15925174D02*
X9548831Y-15915650D01*
X9548831Y-15915650D02*
X9510736Y-15915650D01*
X9510736Y-15915650D02*
X9491689Y-15925174D01*
X9577403Y-16039460D02*
X9558355Y-16048984D01*
X9558355Y-16048984D02*
X9510736Y-16048984D01*
X9510736Y-16048984D02*
X9491689Y-16039460D01*
X9491689Y-16039460D02*
X9482165Y-16020412D01*
X9482165Y-16020412D02*
X9482165Y-16001365D01*
X9482165Y-16001365D02*
X9491689Y-15982317D01*
X9491689Y-15982317D02*
X9510736Y-15972793D01*
X9510736Y-15972793D02*
X9558355Y-15972793D01*
X9558355Y-15972793D02*
X9577403Y-15963269D01*
X9672641Y-15915650D02*
X9672641Y-16115650D01*
X9672641Y-15925174D02*
X9691689Y-15915650D01*
X9691689Y-15915650D02*
X9729784Y-15915650D01*
X9729784Y-15915650D02*
X9748831Y-15925174D01*
X9748831Y-15925174D02*
X9758355Y-15934698D01*
X9758355Y-15934698D02*
X9767879Y-15953746D01*
X9767879Y-15953746D02*
X9767879Y-16010888D01*
X9767879Y-16010888D02*
X9758355Y-16029936D01*
X9758355Y-16029936D02*
X9748831Y-16039460D01*
X9748831Y-16039460D02*
X9729784Y-16048984D01*
X9729784Y-16048984D02*
X9691689Y-16048984D01*
X9691689Y-16048984D02*
X9672641Y-16039460D01*
X9853593Y-16029936D02*
X9863117Y-16039460D01*
X9863117Y-16039460D02*
X9853593Y-16048984D01*
X9853593Y-16048984D02*
X9844070Y-16039460D01*
X9844070Y-16039460D02*
X9853593Y-16029936D01*
X9853593Y-16029936D02*
X9853593Y-16048984D01*
X9853593Y-15925174D02*
X9863117Y-15934698D01*
X9863117Y-15934698D02*
X9853593Y-15944222D01*
X9853593Y-15944222D02*
X9844070Y-15934698D01*
X9844070Y-15934698D02*
X9853593Y-15925174D01*
X9853593Y-15925174D02*
X9853593Y-15944222D01*
D12*
X8181388Y-16357500D02*
X8221388Y-16397500D01*
X8221388Y-16357500D02*
X8181388Y-16397500D01*
D11*
X8520260Y-16268984D02*
X8539308Y-16268984D01*
X8539308Y-16268984D02*
X8558355Y-16278508D01*
X8558355Y-16278508D02*
X8567879Y-16288031D01*
X8567879Y-16288031D02*
X8577403Y-16307079D01*
X8577403Y-16307079D02*
X8586927Y-16345174D01*
X8586927Y-16345174D02*
X8586927Y-16392793D01*
X8586927Y-16392793D02*
X8577403Y-16430888D01*
X8577403Y-16430888D02*
X8567879Y-16449936D01*
X8567879Y-16449936D02*
X8558355Y-16459460D01*
X8558355Y-16459460D02*
X8539308Y-16468984D01*
X8539308Y-16468984D02*
X8520260Y-16468984D01*
X8520260Y-16468984D02*
X8501212Y-16459460D01*
X8501212Y-16459460D02*
X8491689Y-16449936D01*
X8491689Y-16449936D02*
X8482165Y-16430888D01*
X8482165Y-16430888D02*
X8472641Y-16392793D01*
X8472641Y-16392793D02*
X8472641Y-16345174D01*
X8472641Y-16345174D02*
X8482165Y-16307079D01*
X8482165Y-16307079D02*
X8491689Y-16288031D01*
X8491689Y-16288031D02*
X8501212Y-16278508D01*
X8501212Y-16278508D02*
X8520260Y-16268984D01*
X8672641Y-16449936D02*
X8682165Y-16459460D01*
X8682165Y-16459460D02*
X8672641Y-16468984D01*
X8672641Y-16468984D02*
X8663117Y-16459460D01*
X8663117Y-16459460D02*
X8672641Y-16449936D01*
X8672641Y-16449936D02*
X8672641Y-16468984D01*
X8853593Y-16335650D02*
X8853593Y-16468984D01*
X8805974Y-16259460D02*
X8758355Y-16402317D01*
X8758355Y-16402317D02*
X8882165Y-16402317D01*
X8996450Y-16268984D02*
X9015498Y-16268984D01*
X9015498Y-16268984D02*
X9034546Y-16278508D01*
X9034546Y-16278508D02*
X9044070Y-16288031D01*
X9044070Y-16288031D02*
X9053593Y-16307079D01*
X9053593Y-16307079D02*
X9063117Y-16345174D01*
X9063117Y-16345174D02*
X9063117Y-16392793D01*
X9063117Y-16392793D02*
X9053593Y-16430888D01*
X9053593Y-16430888D02*
X9044070Y-16449936D01*
X9044070Y-16449936D02*
X9034546Y-16459460D01*
X9034546Y-16459460D02*
X9015498Y-16468984D01*
X9015498Y-16468984D02*
X8996450Y-16468984D01*
X8996450Y-16468984D02*
X8977403Y-16459460D01*
X8977403Y-16459460D02*
X8967879Y-16449936D01*
X8967879Y-16449936D02*
X8958355Y-16430888D01*
X8958355Y-16430888D02*
X8948831Y-16392793D01*
X8948831Y-16392793D02*
X8948831Y-16345174D01*
X8948831Y-16345174D02*
X8958355Y-16307079D01*
X8958355Y-16307079D02*
X8967879Y-16288031D01*
X8967879Y-16288031D02*
X8977403Y-16278508D01*
X8977403Y-16278508D02*
X8996450Y-16268984D01*
X9186927Y-16268984D02*
X9205974Y-16268984D01*
X9205974Y-16268984D02*
X9225022Y-16278508D01*
X9225022Y-16278508D02*
X9234546Y-16288031D01*
X9234546Y-16288031D02*
X9244070Y-16307079D01*
X9244070Y-16307079D02*
X9253593Y-16345174D01*
X9253593Y-16345174D02*
X9253593Y-16392793D01*
X9253593Y-16392793D02*
X9244070Y-16430888D01*
X9244070Y-16430888D02*
X9234546Y-16449936D01*
X9234546Y-16449936D02*
X9225022Y-16459460D01*
X9225022Y-16459460D02*
X9205974Y-16468984D01*
X9205974Y-16468984D02*
X9186927Y-16468984D01*
X9186927Y-16468984D02*
X9167879Y-16459460D01*
X9167879Y-16459460D02*
X9158355Y-16449936D01*
X9158355Y-16449936D02*
X9148831Y-16430888D01*
X9148831Y-16430888D02*
X9139308Y-16392793D01*
X9139308Y-16392793D02*
X9139308Y-16345174D01*
X9139308Y-16345174D02*
X9148831Y-16307079D01*
X9148831Y-16307079D02*
X9158355Y-16288031D01*
X9158355Y-16288031D02*
X9167879Y-16278508D01*
X9167879Y-16278508D02*
X9186927Y-16268984D01*
X9339308Y-16468984D02*
X9339308Y-16335650D01*
X9339308Y-16354698D02*
X9348831Y-16345174D01*
X9348831Y-16345174D02*
X9367879Y-16335650D01*
X9367879Y-16335650D02*
X9396451Y-16335650D01*
X9396451Y-16335650D02*
X9415498Y-16345174D01*
X9415498Y-16345174D02*
X9425022Y-16364222D01*
X9425022Y-16364222D02*
X9425022Y-16468984D01*
X9425022Y-16364222D02*
X9434546Y-16345174D01*
X9434546Y-16345174D02*
X9453593Y-16335650D01*
X9453593Y-16335650D02*
X9482165Y-16335650D01*
X9482165Y-16335650D02*
X9501212Y-16345174D01*
X9501212Y-16345174D02*
X9510736Y-16364222D01*
X9510736Y-16364222D02*
X9510736Y-16468984D01*
X9605974Y-16468984D02*
X9605974Y-16335650D01*
X9605974Y-16354698D02*
X9615498Y-16345174D01*
X9615498Y-16345174D02*
X9634546Y-16335650D01*
X9634546Y-16335650D02*
X9663117Y-16335650D01*
X9663117Y-16335650D02*
X9682165Y-16345174D01*
X9682165Y-16345174D02*
X9691689Y-16364222D01*
X9691689Y-16364222D02*
X9691689Y-16468984D01*
X9691689Y-16364222D02*
X9701212Y-16345174D01*
X9701212Y-16345174D02*
X9720260Y-16335650D01*
X9720260Y-16335650D02*
X9748831Y-16335650D01*
X9748831Y-16335650D02*
X9767879Y-16345174D01*
X9767879Y-16345174D02*
X9777403Y-16364222D01*
X9777403Y-16364222D02*
X9777403Y-16468984D01*
X10167879Y-16259460D02*
X9996451Y-16516603D01*
X10425022Y-16268984D02*
X10444070Y-16268984D01*
X10444070Y-16268984D02*
X10463117Y-16278508D01*
X10463117Y-16278508D02*
X10472641Y-16288031D01*
X10472641Y-16288031D02*
X10482165Y-16307079D01*
X10482165Y-16307079D02*
X10491689Y-16345174D01*
X10491689Y-16345174D02*
X10491689Y-16392793D01*
X10491689Y-16392793D02*
X10482165Y-16430888D01*
X10482165Y-16430888D02*
X10472641Y-16449936D01*
X10472641Y-16449936D02*
X10463117Y-16459460D01*
X10463117Y-16459460D02*
X10444070Y-16468984D01*
X10444070Y-16468984D02*
X10425022Y-16468984D01*
X10425022Y-16468984D02*
X10405974Y-16459460D01*
X10405974Y-16459460D02*
X10396451Y-16449936D01*
X10396451Y-16449936D02*
X10386927Y-16430888D01*
X10386927Y-16430888D02*
X10377403Y-16392793D01*
X10377403Y-16392793D02*
X10377403Y-16345174D01*
X10377403Y-16345174D02*
X10386927Y-16307079D01*
X10386927Y-16307079D02*
X10396451Y-16288031D01*
X10396451Y-16288031D02*
X10405974Y-16278508D01*
X10405974Y-16278508D02*
X10425022Y-16268984D01*
X10577403Y-16449936D02*
X10586927Y-16459460D01*
X10586927Y-16459460D02*
X10577403Y-16468984D01*
X10577403Y-16468984D02*
X10567879Y-16459460D01*
X10567879Y-16459460D02*
X10577403Y-16449936D01*
X10577403Y-16449936D02*
X10577403Y-16468984D01*
X10710736Y-16268984D02*
X10729784Y-16268984D01*
X10729784Y-16268984D02*
X10748832Y-16278508D01*
X10748832Y-16278508D02*
X10758355Y-16288031D01*
X10758355Y-16288031D02*
X10767879Y-16307079D01*
X10767879Y-16307079D02*
X10777403Y-16345174D01*
X10777403Y-16345174D02*
X10777403Y-16392793D01*
X10777403Y-16392793D02*
X10767879Y-16430888D01*
X10767879Y-16430888D02*
X10758355Y-16449936D01*
X10758355Y-16449936D02*
X10748832Y-16459460D01*
X10748832Y-16459460D02*
X10729784Y-16468984D01*
X10729784Y-16468984D02*
X10710736Y-16468984D01*
X10710736Y-16468984D02*
X10691689Y-16459460D01*
X10691689Y-16459460D02*
X10682165Y-16449936D01*
X10682165Y-16449936D02*
X10672641Y-16430888D01*
X10672641Y-16430888D02*
X10663117Y-16392793D01*
X10663117Y-16392793D02*
X10663117Y-16345174D01*
X10663117Y-16345174D02*
X10672641Y-16307079D01*
X10672641Y-16307079D02*
X10682165Y-16288031D01*
X10682165Y-16288031D02*
X10691689Y-16278508D01*
X10691689Y-16278508D02*
X10710736Y-16268984D01*
X10967879Y-16468984D02*
X10853594Y-16468984D01*
X10910736Y-16468984D02*
X10910736Y-16268984D01*
X10910736Y-16268984D02*
X10891689Y-16297555D01*
X10891689Y-16297555D02*
X10872641Y-16316603D01*
X10872641Y-16316603D02*
X10853594Y-16326127D01*
X11148832Y-16268984D02*
X11053594Y-16268984D01*
X11053594Y-16268984D02*
X11044070Y-16364222D01*
X11044070Y-16364222D02*
X11053594Y-16354698D01*
X11053594Y-16354698D02*
X11072641Y-16345174D01*
X11072641Y-16345174D02*
X11120260Y-16345174D01*
X11120260Y-16345174D02*
X11139308Y-16354698D01*
X11139308Y-16354698D02*
X11148832Y-16364222D01*
X11148832Y-16364222D02*
X11158355Y-16383269D01*
X11158355Y-16383269D02*
X11158355Y-16430888D01*
X11158355Y-16430888D02*
X11148832Y-16449936D01*
X11148832Y-16449936D02*
X11139308Y-16459460D01*
X11139308Y-16459460D02*
X11120260Y-16468984D01*
X11120260Y-16468984D02*
X11072641Y-16468984D01*
X11072641Y-16468984D02*
X11053594Y-16459460D01*
X11053594Y-16459460D02*
X11044070Y-16449936D01*
X11225022Y-16268984D02*
X11358355Y-16268984D01*
X11358355Y-16268984D02*
X11272641Y-16468984D01*
X11425022Y-16268984D02*
X11425022Y-16307079D01*
X11501213Y-16268984D02*
X11501213Y-16307079D01*
X11796451Y-16545174D02*
X11786927Y-16535650D01*
X11786927Y-16535650D02*
X11767879Y-16507079D01*
X11767879Y-16507079D02*
X11758355Y-16488031D01*
X11758355Y-16488031D02*
X11748832Y-16459460D01*
X11748832Y-16459460D02*
X11739308Y-16411841D01*
X11739308Y-16411841D02*
X11739308Y-16373746D01*
X11739308Y-16373746D02*
X11748832Y-16326127D01*
X11748832Y-16326127D02*
X11758355Y-16297555D01*
X11758355Y-16297555D02*
X11767879Y-16278508D01*
X11767879Y-16278508D02*
X11786927Y-16249936D01*
X11786927Y-16249936D02*
X11796451Y-16240412D01*
X11853594Y-16268984D02*
X11977403Y-16268984D01*
X11977403Y-16268984D02*
X11910736Y-16345174D01*
X11910736Y-16345174D02*
X11939308Y-16345174D01*
X11939308Y-16345174D02*
X11958355Y-16354698D01*
X11958355Y-16354698D02*
X11967879Y-16364222D01*
X11967879Y-16364222D02*
X11977403Y-16383269D01*
X11977403Y-16383269D02*
X11977403Y-16430888D01*
X11977403Y-16430888D02*
X11967879Y-16449936D01*
X11967879Y-16449936D02*
X11958355Y-16459460D01*
X11958355Y-16459460D02*
X11939308Y-16468984D01*
X11939308Y-16468984D02*
X11882165Y-16468984D01*
X11882165Y-16468984D02*
X11863117Y-16459460D01*
X11863117Y-16459460D02*
X11853594Y-16449936D01*
X12072641Y-16468984D02*
X12110736Y-16468984D01*
X12110736Y-16468984D02*
X12129784Y-16459460D01*
X12129784Y-16459460D02*
X12139308Y-16449936D01*
X12139308Y-16449936D02*
X12158355Y-16421365D01*
X12158355Y-16421365D02*
X12167879Y-16383269D01*
X12167879Y-16383269D02*
X12167879Y-16307079D01*
X12167879Y-16307079D02*
X12158355Y-16288031D01*
X12158355Y-16288031D02*
X12148832Y-16278508D01*
X12148832Y-16278508D02*
X12129784Y-16268984D01*
X12129784Y-16268984D02*
X12091689Y-16268984D01*
X12091689Y-16268984D02*
X12072641Y-16278508D01*
X12072641Y-16278508D02*
X12063117Y-16288031D01*
X12063117Y-16288031D02*
X12053594Y-16307079D01*
X12053594Y-16307079D02*
X12053594Y-16354698D01*
X12053594Y-16354698D02*
X12063117Y-16373746D01*
X12063117Y-16373746D02*
X12072641Y-16383269D01*
X12072641Y-16383269D02*
X12091689Y-16392793D01*
X12091689Y-16392793D02*
X12129784Y-16392793D01*
X12129784Y-16392793D02*
X12148832Y-16383269D01*
X12148832Y-16383269D02*
X12158355Y-16373746D01*
X12158355Y-16373746D02*
X12167879Y-16354698D01*
X12234546Y-16268984D02*
X12367879Y-16268984D01*
X12367879Y-16268984D02*
X12282165Y-16468984D01*
X12596451Y-16468984D02*
X12596451Y-16268984D01*
X12682165Y-16468984D02*
X12682165Y-16364222D01*
X12682165Y-16364222D02*
X12672641Y-16345174D01*
X12672641Y-16345174D02*
X12653594Y-16335650D01*
X12653594Y-16335650D02*
X12625022Y-16335650D01*
X12625022Y-16335650D02*
X12605975Y-16345174D01*
X12605975Y-16345174D02*
X12596451Y-16354698D01*
X12805975Y-16468984D02*
X12786927Y-16459460D01*
X12786927Y-16459460D02*
X12777403Y-16449936D01*
X12777403Y-16449936D02*
X12767879Y-16430888D01*
X12767879Y-16430888D02*
X12767879Y-16373746D01*
X12767879Y-16373746D02*
X12777403Y-16354698D01*
X12777403Y-16354698D02*
X12786927Y-16345174D01*
X12786927Y-16345174D02*
X12805975Y-16335650D01*
X12805975Y-16335650D02*
X12834546Y-16335650D01*
X12834546Y-16335650D02*
X12853594Y-16345174D01*
X12853594Y-16345174D02*
X12863117Y-16354698D01*
X12863117Y-16354698D02*
X12872641Y-16373746D01*
X12872641Y-16373746D02*
X12872641Y-16430888D01*
X12872641Y-16430888D02*
X12863117Y-16449936D01*
X12863117Y-16449936D02*
X12853594Y-16459460D01*
X12853594Y-16459460D02*
X12834546Y-16468984D01*
X12834546Y-16468984D02*
X12805975Y-16468984D01*
X12986927Y-16468984D02*
X12967879Y-16459460D01*
X12967879Y-16459460D02*
X12958356Y-16440412D01*
X12958356Y-16440412D02*
X12958356Y-16268984D01*
X13139308Y-16459460D02*
X13120260Y-16468984D01*
X13120260Y-16468984D02*
X13082165Y-16468984D01*
X13082165Y-16468984D02*
X13063117Y-16459460D01*
X13063117Y-16459460D02*
X13053594Y-16440412D01*
X13053594Y-16440412D02*
X13053594Y-16364222D01*
X13053594Y-16364222D02*
X13063117Y-16345174D01*
X13063117Y-16345174D02*
X13082165Y-16335650D01*
X13082165Y-16335650D02*
X13120260Y-16335650D01*
X13120260Y-16335650D02*
X13139308Y-16345174D01*
X13139308Y-16345174D02*
X13148832Y-16364222D01*
X13148832Y-16364222D02*
X13148832Y-16383269D01*
X13148832Y-16383269D02*
X13053594Y-16402317D01*
X13225022Y-16459460D02*
X13244070Y-16468984D01*
X13244070Y-16468984D02*
X13282165Y-16468984D01*
X13282165Y-16468984D02*
X13301213Y-16459460D01*
X13301213Y-16459460D02*
X13310737Y-16440412D01*
X13310737Y-16440412D02*
X13310737Y-16430888D01*
X13310737Y-16430888D02*
X13301213Y-16411841D01*
X13301213Y-16411841D02*
X13282165Y-16402317D01*
X13282165Y-16402317D02*
X13253594Y-16402317D01*
X13253594Y-16402317D02*
X13234546Y-16392793D01*
X13234546Y-16392793D02*
X13225022Y-16373746D01*
X13225022Y-16373746D02*
X13225022Y-16364222D01*
X13225022Y-16364222D02*
X13234546Y-16345174D01*
X13234546Y-16345174D02*
X13253594Y-16335650D01*
X13253594Y-16335650D02*
X13282165Y-16335650D01*
X13282165Y-16335650D02*
X13301213Y-16345174D01*
X13377403Y-16545174D02*
X13386927Y-16535650D01*
X13386927Y-16535650D02*
X13405975Y-16507079D01*
X13405975Y-16507079D02*
X13415498Y-16488031D01*
X13415498Y-16488031D02*
X13425022Y-16459460D01*
X13425022Y-16459460D02*
X13434546Y-16411841D01*
X13434546Y-16411841D02*
X13434546Y-16373746D01*
X13434546Y-16373746D02*
X13425022Y-16326127D01*
X13425022Y-16326127D02*
X13415498Y-16297555D01*
X13415498Y-16297555D02*
X13405975Y-16278508D01*
X13405975Y-16278508D02*
X13386927Y-16249936D01*
X13386927Y-16249936D02*
X13377403Y-16240412D01*
D12*
X8221388Y-16641500D02*
G75*
G02*
X8156388Y-16641500I-32500J0D01*
G01*
X8156388Y-16641500D02*
G75*
G02*
X8221388Y-16641500I32500J0D01*
G01*
D11*
X8520260Y-16532984D02*
X8539308Y-16532984D01*
X8539308Y-16532984D02*
X8558355Y-16542508D01*
X8558355Y-16542508D02*
X8567879Y-16552031D01*
X8567879Y-16552031D02*
X8577403Y-16571079D01*
X8577403Y-16571079D02*
X8586927Y-16609174D01*
X8586927Y-16609174D02*
X8586927Y-16656793D01*
X8586927Y-16656793D02*
X8577403Y-16694888D01*
X8577403Y-16694888D02*
X8567879Y-16713936D01*
X8567879Y-16713936D02*
X8558355Y-16723460D01*
X8558355Y-16723460D02*
X8539308Y-16732984D01*
X8539308Y-16732984D02*
X8520260Y-16732984D01*
X8520260Y-16732984D02*
X8501212Y-16723460D01*
X8501212Y-16723460D02*
X8491689Y-16713936D01*
X8491689Y-16713936D02*
X8482165Y-16694888D01*
X8482165Y-16694888D02*
X8472641Y-16656793D01*
X8472641Y-16656793D02*
X8472641Y-16609174D01*
X8472641Y-16609174D02*
X8482165Y-16571079D01*
X8482165Y-16571079D02*
X8491689Y-16552031D01*
X8491689Y-16552031D02*
X8501212Y-16542508D01*
X8501212Y-16542508D02*
X8520260Y-16532984D01*
X8672641Y-16713936D02*
X8682165Y-16723460D01*
X8682165Y-16723460D02*
X8672641Y-16732984D01*
X8672641Y-16732984D02*
X8663117Y-16723460D01*
X8663117Y-16723460D02*
X8672641Y-16713936D01*
X8672641Y-16713936D02*
X8672641Y-16732984D01*
X8853593Y-16532984D02*
X8815498Y-16532984D01*
X8815498Y-16532984D02*
X8796450Y-16542508D01*
X8796450Y-16542508D02*
X8786927Y-16552031D01*
X8786927Y-16552031D02*
X8767879Y-16580603D01*
X8767879Y-16580603D02*
X8758355Y-16618698D01*
X8758355Y-16618698D02*
X8758355Y-16694888D01*
X8758355Y-16694888D02*
X8767879Y-16713936D01*
X8767879Y-16713936D02*
X8777403Y-16723460D01*
X8777403Y-16723460D02*
X8796450Y-16732984D01*
X8796450Y-16732984D02*
X8834546Y-16732984D01*
X8834546Y-16732984D02*
X8853593Y-16723460D01*
X8853593Y-16723460D02*
X8863117Y-16713936D01*
X8863117Y-16713936D02*
X8872641Y-16694888D01*
X8872641Y-16694888D02*
X8872641Y-16647269D01*
X8872641Y-16647269D02*
X8863117Y-16628222D01*
X8863117Y-16628222D02*
X8853593Y-16618698D01*
X8853593Y-16618698D02*
X8834546Y-16609174D01*
X8834546Y-16609174D02*
X8796450Y-16609174D01*
X8796450Y-16609174D02*
X8777403Y-16618698D01*
X8777403Y-16618698D02*
X8767879Y-16628222D01*
X8767879Y-16628222D02*
X8758355Y-16647269D01*
X9053593Y-16532984D02*
X8958355Y-16532984D01*
X8958355Y-16532984D02*
X8948831Y-16628222D01*
X8948831Y-16628222D02*
X8958355Y-16618698D01*
X8958355Y-16618698D02*
X8977403Y-16609174D01*
X8977403Y-16609174D02*
X9025022Y-16609174D01*
X9025022Y-16609174D02*
X9044070Y-16618698D01*
X9044070Y-16618698D02*
X9053593Y-16628222D01*
X9053593Y-16628222D02*
X9063117Y-16647269D01*
X9063117Y-16647269D02*
X9063117Y-16694888D01*
X9063117Y-16694888D02*
X9053593Y-16713936D01*
X9053593Y-16713936D02*
X9044070Y-16723460D01*
X9044070Y-16723460D02*
X9025022Y-16732984D01*
X9025022Y-16732984D02*
X8977403Y-16732984D01*
X8977403Y-16732984D02*
X8958355Y-16723460D01*
X8958355Y-16723460D02*
X8948831Y-16713936D01*
X9186927Y-16532984D02*
X9205974Y-16532984D01*
X9205974Y-16532984D02*
X9225022Y-16542508D01*
X9225022Y-16542508D02*
X9234546Y-16552031D01*
X9234546Y-16552031D02*
X9244070Y-16571079D01*
X9244070Y-16571079D02*
X9253593Y-16609174D01*
X9253593Y-16609174D02*
X9253593Y-16656793D01*
X9253593Y-16656793D02*
X9244070Y-16694888D01*
X9244070Y-16694888D02*
X9234546Y-16713936D01*
X9234546Y-16713936D02*
X9225022Y-16723460D01*
X9225022Y-16723460D02*
X9205974Y-16732984D01*
X9205974Y-16732984D02*
X9186927Y-16732984D01*
X9186927Y-16732984D02*
X9167879Y-16723460D01*
X9167879Y-16723460D02*
X9158355Y-16713936D01*
X9158355Y-16713936D02*
X9148831Y-16694888D01*
X9148831Y-16694888D02*
X9139308Y-16656793D01*
X9139308Y-16656793D02*
X9139308Y-16609174D01*
X9139308Y-16609174D02*
X9148831Y-16571079D01*
X9148831Y-16571079D02*
X9158355Y-16552031D01*
X9158355Y-16552031D02*
X9167879Y-16542508D01*
X9167879Y-16542508D02*
X9186927Y-16532984D01*
X9339308Y-16732984D02*
X9339308Y-16599650D01*
X9339308Y-16618698D02*
X9348831Y-16609174D01*
X9348831Y-16609174D02*
X9367879Y-16599650D01*
X9367879Y-16599650D02*
X9396451Y-16599650D01*
X9396451Y-16599650D02*
X9415498Y-16609174D01*
X9415498Y-16609174D02*
X9425022Y-16628222D01*
X9425022Y-16628222D02*
X9425022Y-16732984D01*
X9425022Y-16628222D02*
X9434546Y-16609174D01*
X9434546Y-16609174D02*
X9453593Y-16599650D01*
X9453593Y-16599650D02*
X9482165Y-16599650D01*
X9482165Y-16599650D02*
X9501212Y-16609174D01*
X9501212Y-16609174D02*
X9510736Y-16628222D01*
X9510736Y-16628222D02*
X9510736Y-16732984D01*
X9605974Y-16732984D02*
X9605974Y-16599650D01*
X9605974Y-16618698D02*
X9615498Y-16609174D01*
X9615498Y-16609174D02*
X9634546Y-16599650D01*
X9634546Y-16599650D02*
X9663117Y-16599650D01*
X9663117Y-16599650D02*
X9682165Y-16609174D01*
X9682165Y-16609174D02*
X9691689Y-16628222D01*
X9691689Y-16628222D02*
X9691689Y-16732984D01*
X9691689Y-16628222D02*
X9701212Y-16609174D01*
X9701212Y-16609174D02*
X9720260Y-16599650D01*
X9720260Y-16599650D02*
X9748831Y-16599650D01*
X9748831Y-16599650D02*
X9767879Y-16609174D01*
X9767879Y-16609174D02*
X9777403Y-16628222D01*
X9777403Y-16628222D02*
X9777403Y-16732984D01*
X10167879Y-16523460D02*
X9996451Y-16780603D01*
X10425022Y-16532984D02*
X10444070Y-16532984D01*
X10444070Y-16532984D02*
X10463117Y-16542508D01*
X10463117Y-16542508D02*
X10472641Y-16552031D01*
X10472641Y-16552031D02*
X10482165Y-16571079D01*
X10482165Y-16571079D02*
X10491689Y-16609174D01*
X10491689Y-16609174D02*
X10491689Y-16656793D01*
X10491689Y-16656793D02*
X10482165Y-16694888D01*
X10482165Y-16694888D02*
X10472641Y-16713936D01*
X10472641Y-16713936D02*
X10463117Y-16723460D01*
X10463117Y-16723460D02*
X10444070Y-16732984D01*
X10444070Y-16732984D02*
X10425022Y-16732984D01*
X10425022Y-16732984D02*
X10405974Y-16723460D01*
X10405974Y-16723460D02*
X10396451Y-16713936D01*
X10396451Y-16713936D02*
X10386927Y-16694888D01*
X10386927Y-16694888D02*
X10377403Y-16656793D01*
X10377403Y-16656793D02*
X10377403Y-16609174D01*
X10377403Y-16609174D02*
X10386927Y-16571079D01*
X10386927Y-16571079D02*
X10396451Y-16552031D01*
X10396451Y-16552031D02*
X10405974Y-16542508D01*
X10405974Y-16542508D02*
X10425022Y-16532984D01*
X10577403Y-16713936D02*
X10586927Y-16723460D01*
X10586927Y-16723460D02*
X10577403Y-16732984D01*
X10577403Y-16732984D02*
X10567879Y-16723460D01*
X10567879Y-16723460D02*
X10577403Y-16713936D01*
X10577403Y-16713936D02*
X10577403Y-16732984D01*
X10710736Y-16532984D02*
X10729784Y-16532984D01*
X10729784Y-16532984D02*
X10748832Y-16542508D01*
X10748832Y-16542508D02*
X10758355Y-16552031D01*
X10758355Y-16552031D02*
X10767879Y-16571079D01*
X10767879Y-16571079D02*
X10777403Y-16609174D01*
X10777403Y-16609174D02*
X10777403Y-16656793D01*
X10777403Y-16656793D02*
X10767879Y-16694888D01*
X10767879Y-16694888D02*
X10758355Y-16713936D01*
X10758355Y-16713936D02*
X10748832Y-16723460D01*
X10748832Y-16723460D02*
X10729784Y-16732984D01*
X10729784Y-16732984D02*
X10710736Y-16732984D01*
X10710736Y-16732984D02*
X10691689Y-16723460D01*
X10691689Y-16723460D02*
X10682165Y-16713936D01*
X10682165Y-16713936D02*
X10672641Y-16694888D01*
X10672641Y-16694888D02*
X10663117Y-16656793D01*
X10663117Y-16656793D02*
X10663117Y-16609174D01*
X10663117Y-16609174D02*
X10672641Y-16571079D01*
X10672641Y-16571079D02*
X10682165Y-16552031D01*
X10682165Y-16552031D02*
X10691689Y-16542508D01*
X10691689Y-16542508D02*
X10710736Y-16532984D01*
X10853594Y-16552031D02*
X10863117Y-16542508D01*
X10863117Y-16542508D02*
X10882165Y-16532984D01*
X10882165Y-16532984D02*
X10929784Y-16532984D01*
X10929784Y-16532984D02*
X10948832Y-16542508D01*
X10948832Y-16542508D02*
X10958355Y-16552031D01*
X10958355Y-16552031D02*
X10967879Y-16571079D01*
X10967879Y-16571079D02*
X10967879Y-16590127D01*
X10967879Y-16590127D02*
X10958355Y-16618698D01*
X10958355Y-16618698D02*
X10844070Y-16732984D01*
X10844070Y-16732984D02*
X10967879Y-16732984D01*
X11148832Y-16532984D02*
X11053594Y-16532984D01*
X11053594Y-16532984D02*
X11044070Y-16628222D01*
X11044070Y-16628222D02*
X11053594Y-16618698D01*
X11053594Y-16618698D02*
X11072641Y-16609174D01*
X11072641Y-16609174D02*
X11120260Y-16609174D01*
X11120260Y-16609174D02*
X11139308Y-16618698D01*
X11139308Y-16618698D02*
X11148832Y-16628222D01*
X11148832Y-16628222D02*
X11158355Y-16647269D01*
X11158355Y-16647269D02*
X11158355Y-16694888D01*
X11158355Y-16694888D02*
X11148832Y-16713936D01*
X11148832Y-16713936D02*
X11139308Y-16723460D01*
X11139308Y-16723460D02*
X11120260Y-16732984D01*
X11120260Y-16732984D02*
X11072641Y-16732984D01*
X11072641Y-16732984D02*
X11053594Y-16723460D01*
X11053594Y-16723460D02*
X11044070Y-16713936D01*
X11329784Y-16532984D02*
X11291689Y-16532984D01*
X11291689Y-16532984D02*
X11272641Y-16542508D01*
X11272641Y-16542508D02*
X11263117Y-16552031D01*
X11263117Y-16552031D02*
X11244070Y-16580603D01*
X11244070Y-16580603D02*
X11234546Y-16618698D01*
X11234546Y-16618698D02*
X11234546Y-16694888D01*
X11234546Y-16694888D02*
X11244070Y-16713936D01*
X11244070Y-16713936D02*
X11253593Y-16723460D01*
X11253593Y-16723460D02*
X11272641Y-16732984D01*
X11272641Y-16732984D02*
X11310736Y-16732984D01*
X11310736Y-16732984D02*
X11329784Y-16723460D01*
X11329784Y-16723460D02*
X11339308Y-16713936D01*
X11339308Y-16713936D02*
X11348832Y-16694888D01*
X11348832Y-16694888D02*
X11348832Y-16647269D01*
X11348832Y-16647269D02*
X11339308Y-16628222D01*
X11339308Y-16628222D02*
X11329784Y-16618698D01*
X11329784Y-16618698D02*
X11310736Y-16609174D01*
X11310736Y-16609174D02*
X11272641Y-16609174D01*
X11272641Y-16609174D02*
X11253593Y-16618698D01*
X11253593Y-16618698D02*
X11244070Y-16628222D01*
X11244070Y-16628222D02*
X11234546Y-16647269D01*
X11425022Y-16532984D02*
X11425022Y-16571079D01*
X11501213Y-16532984D02*
X11501213Y-16571079D01*
X11796451Y-16809174D02*
X11786927Y-16799650D01*
X11786927Y-16799650D02*
X11767879Y-16771079D01*
X11767879Y-16771079D02*
X11758355Y-16752031D01*
X11758355Y-16752031D02*
X11748832Y-16723460D01*
X11748832Y-16723460D02*
X11739308Y-16675841D01*
X11739308Y-16675841D02*
X11739308Y-16637746D01*
X11739308Y-16637746D02*
X11748832Y-16590127D01*
X11748832Y-16590127D02*
X11758355Y-16561555D01*
X11758355Y-16561555D02*
X11767879Y-16542508D01*
X11767879Y-16542508D02*
X11786927Y-16513936D01*
X11786927Y-16513936D02*
X11796451Y-16504412D01*
X11958355Y-16599650D02*
X11958355Y-16732984D01*
X11910736Y-16523460D02*
X11863117Y-16666317D01*
X11863117Y-16666317D02*
X11986927Y-16666317D01*
X12215498Y-16732984D02*
X12215498Y-16532984D01*
X12301213Y-16732984D02*
X12301213Y-16628222D01*
X12301213Y-16628222D02*
X12291689Y-16609174D01*
X12291689Y-16609174D02*
X12272641Y-16599650D01*
X12272641Y-16599650D02*
X12244070Y-16599650D01*
X12244070Y-16599650D02*
X12225022Y-16609174D01*
X12225022Y-16609174D02*
X12215498Y-16618698D01*
X12425022Y-16732984D02*
X12405975Y-16723460D01*
X12405975Y-16723460D02*
X12396451Y-16713936D01*
X12396451Y-16713936D02*
X12386927Y-16694888D01*
X12386927Y-16694888D02*
X12386927Y-16637746D01*
X12386927Y-16637746D02*
X12396451Y-16618698D01*
X12396451Y-16618698D02*
X12405975Y-16609174D01*
X12405975Y-16609174D02*
X12425022Y-16599650D01*
X12425022Y-16599650D02*
X12453594Y-16599650D01*
X12453594Y-16599650D02*
X12472641Y-16609174D01*
X12472641Y-16609174D02*
X12482165Y-16618698D01*
X12482165Y-16618698D02*
X12491689Y-16637746D01*
X12491689Y-16637746D02*
X12491689Y-16694888D01*
X12491689Y-16694888D02*
X12482165Y-16713936D01*
X12482165Y-16713936D02*
X12472641Y-16723460D01*
X12472641Y-16723460D02*
X12453594Y-16732984D01*
X12453594Y-16732984D02*
X12425022Y-16732984D01*
X12605975Y-16732984D02*
X12586927Y-16723460D01*
X12586927Y-16723460D02*
X12577403Y-16704412D01*
X12577403Y-16704412D02*
X12577403Y-16532984D01*
X12758356Y-16723460D02*
X12739308Y-16732984D01*
X12739308Y-16732984D02*
X12701213Y-16732984D01*
X12701213Y-16732984D02*
X12682165Y-16723460D01*
X12682165Y-16723460D02*
X12672641Y-16704412D01*
X12672641Y-16704412D02*
X12672641Y-16628222D01*
X12672641Y-16628222D02*
X12682165Y-16609174D01*
X12682165Y-16609174D02*
X12701213Y-16599650D01*
X12701213Y-16599650D02*
X12739308Y-16599650D01*
X12739308Y-16599650D02*
X12758356Y-16609174D01*
X12758356Y-16609174D02*
X12767879Y-16628222D01*
X12767879Y-16628222D02*
X12767879Y-16647269D01*
X12767879Y-16647269D02*
X12672641Y-16666317D01*
X12844070Y-16723460D02*
X12863117Y-16732984D01*
X12863117Y-16732984D02*
X12901213Y-16732984D01*
X12901213Y-16732984D02*
X12920260Y-16723460D01*
X12920260Y-16723460D02*
X12929784Y-16704412D01*
X12929784Y-16704412D02*
X12929784Y-16694888D01*
X12929784Y-16694888D02*
X12920260Y-16675841D01*
X12920260Y-16675841D02*
X12901213Y-16666317D01*
X12901213Y-16666317D02*
X12872641Y-16666317D01*
X12872641Y-16666317D02*
X12853594Y-16656793D01*
X12853594Y-16656793D02*
X12844070Y-16637746D01*
X12844070Y-16637746D02*
X12844070Y-16628222D01*
X12844070Y-16628222D02*
X12853594Y-16609174D01*
X12853594Y-16609174D02*
X12872641Y-16599650D01*
X12872641Y-16599650D02*
X12901213Y-16599650D01*
X12901213Y-16599650D02*
X12920260Y-16609174D01*
X12996451Y-16809174D02*
X13005975Y-16799650D01*
X13005975Y-16799650D02*
X13025022Y-16771079D01*
X13025022Y-16771079D02*
X13034546Y-16752031D01*
X13034546Y-16752031D02*
X13044070Y-16723460D01*
X13044070Y-16723460D02*
X13053594Y-16675841D01*
X13053594Y-16675841D02*
X13053594Y-16637746D01*
X13053594Y-16637746D02*
X13044070Y-16590127D01*
X13044070Y-16590127D02*
X13034546Y-16561555D01*
X13034546Y-16561555D02*
X13025022Y-16542508D01*
X13025022Y-16542508D02*
X13005975Y-16513936D01*
X13005975Y-16513936D02*
X12996451Y-16504412D01*
D12*
X8171388Y-16855500D02*
X8171388Y-16955500D01*
X8121388Y-16905500D02*
X8221388Y-16905500D01*
D11*
X8586927Y-16996984D02*
X8472641Y-16996984D01*
X8529784Y-16996984D02*
X8529784Y-16796984D01*
X8529784Y-16796984D02*
X8510736Y-16825555D01*
X8510736Y-16825555D02*
X8491689Y-16844603D01*
X8491689Y-16844603D02*
X8472641Y-16854127D01*
X8672641Y-16977936D02*
X8682165Y-16987460D01*
X8682165Y-16987460D02*
X8672641Y-16996984D01*
X8672641Y-16996984D02*
X8663117Y-16987460D01*
X8663117Y-16987460D02*
X8672641Y-16977936D01*
X8672641Y-16977936D02*
X8672641Y-16996984D01*
X8805974Y-16796984D02*
X8825022Y-16796984D01*
X8825022Y-16796984D02*
X8844070Y-16806508D01*
X8844070Y-16806508D02*
X8853593Y-16816031D01*
X8853593Y-16816031D02*
X8863117Y-16835079D01*
X8863117Y-16835079D02*
X8872641Y-16873174D01*
X8872641Y-16873174D02*
X8872641Y-16920793D01*
X8872641Y-16920793D02*
X8863117Y-16958889D01*
X8863117Y-16958889D02*
X8853593Y-16977936D01*
X8853593Y-16977936D02*
X8844070Y-16987460D01*
X8844070Y-16987460D02*
X8825022Y-16996984D01*
X8825022Y-16996984D02*
X8805974Y-16996984D01*
X8805974Y-16996984D02*
X8786927Y-16987460D01*
X8786927Y-16987460D02*
X8777403Y-16977936D01*
X8777403Y-16977936D02*
X8767879Y-16958889D01*
X8767879Y-16958889D02*
X8758355Y-16920793D01*
X8758355Y-16920793D02*
X8758355Y-16873174D01*
X8758355Y-16873174D02*
X8767879Y-16835079D01*
X8767879Y-16835079D02*
X8777403Y-16816031D01*
X8777403Y-16816031D02*
X8786927Y-16806508D01*
X8786927Y-16806508D02*
X8805974Y-16796984D01*
X8996450Y-16796984D02*
X9015498Y-16796984D01*
X9015498Y-16796984D02*
X9034546Y-16806508D01*
X9034546Y-16806508D02*
X9044070Y-16816031D01*
X9044070Y-16816031D02*
X9053593Y-16835079D01*
X9053593Y-16835079D02*
X9063117Y-16873174D01*
X9063117Y-16873174D02*
X9063117Y-16920793D01*
X9063117Y-16920793D02*
X9053593Y-16958889D01*
X9053593Y-16958889D02*
X9044070Y-16977936D01*
X9044070Y-16977936D02*
X9034546Y-16987460D01*
X9034546Y-16987460D02*
X9015498Y-16996984D01*
X9015498Y-16996984D02*
X8996450Y-16996984D01*
X8996450Y-16996984D02*
X8977403Y-16987460D01*
X8977403Y-16987460D02*
X8967879Y-16977936D01*
X8967879Y-16977936D02*
X8958355Y-16958889D01*
X8958355Y-16958889D02*
X8948831Y-16920793D01*
X8948831Y-16920793D02*
X8948831Y-16873174D01*
X8948831Y-16873174D02*
X8958355Y-16835079D01*
X8958355Y-16835079D02*
X8967879Y-16816031D01*
X8967879Y-16816031D02*
X8977403Y-16806508D01*
X8977403Y-16806508D02*
X8996450Y-16796984D01*
X9186927Y-16796984D02*
X9205974Y-16796984D01*
X9205974Y-16796984D02*
X9225022Y-16806508D01*
X9225022Y-16806508D02*
X9234546Y-16816031D01*
X9234546Y-16816031D02*
X9244070Y-16835079D01*
X9244070Y-16835079D02*
X9253593Y-16873174D01*
X9253593Y-16873174D02*
X9253593Y-16920793D01*
X9253593Y-16920793D02*
X9244070Y-16958889D01*
X9244070Y-16958889D02*
X9234546Y-16977936D01*
X9234546Y-16977936D02*
X9225022Y-16987460D01*
X9225022Y-16987460D02*
X9205974Y-16996984D01*
X9205974Y-16996984D02*
X9186927Y-16996984D01*
X9186927Y-16996984D02*
X9167879Y-16987460D01*
X9167879Y-16987460D02*
X9158355Y-16977936D01*
X9158355Y-16977936D02*
X9148831Y-16958889D01*
X9148831Y-16958889D02*
X9139308Y-16920793D01*
X9139308Y-16920793D02*
X9139308Y-16873174D01*
X9139308Y-16873174D02*
X9148831Y-16835079D01*
X9148831Y-16835079D02*
X9158355Y-16816031D01*
X9158355Y-16816031D02*
X9167879Y-16806508D01*
X9167879Y-16806508D02*
X9186927Y-16796984D01*
X9339308Y-16996984D02*
X9339308Y-16863650D01*
X9339308Y-16882698D02*
X9348831Y-16873174D01*
X9348831Y-16873174D02*
X9367879Y-16863650D01*
X9367879Y-16863650D02*
X9396451Y-16863650D01*
X9396451Y-16863650D02*
X9415498Y-16873174D01*
X9415498Y-16873174D02*
X9425022Y-16892222D01*
X9425022Y-16892222D02*
X9425022Y-16996984D01*
X9425022Y-16892222D02*
X9434546Y-16873174D01*
X9434546Y-16873174D02*
X9453593Y-16863650D01*
X9453593Y-16863650D02*
X9482165Y-16863650D01*
X9482165Y-16863650D02*
X9501212Y-16873174D01*
X9501212Y-16873174D02*
X9510736Y-16892222D01*
X9510736Y-16892222D02*
X9510736Y-16996984D01*
X9605974Y-16996984D02*
X9605974Y-16863650D01*
X9605974Y-16882698D02*
X9615498Y-16873174D01*
X9615498Y-16873174D02*
X9634546Y-16863650D01*
X9634546Y-16863650D02*
X9663117Y-16863650D01*
X9663117Y-16863650D02*
X9682165Y-16873174D01*
X9682165Y-16873174D02*
X9691689Y-16892222D01*
X9691689Y-16892222D02*
X9691689Y-16996984D01*
X9691689Y-16892222D02*
X9701212Y-16873174D01*
X9701212Y-16873174D02*
X9720260Y-16863650D01*
X9720260Y-16863650D02*
X9748831Y-16863650D01*
X9748831Y-16863650D02*
X9767879Y-16873174D01*
X9767879Y-16873174D02*
X9777403Y-16892222D01*
X9777403Y-16892222D02*
X9777403Y-16996984D01*
X10167879Y-16787460D02*
X9996451Y-17044603D01*
X10425022Y-16796984D02*
X10444070Y-16796984D01*
X10444070Y-16796984D02*
X10463117Y-16806508D01*
X10463117Y-16806508D02*
X10472641Y-16816031D01*
X10472641Y-16816031D02*
X10482165Y-16835079D01*
X10482165Y-16835079D02*
X10491689Y-16873174D01*
X10491689Y-16873174D02*
X10491689Y-16920793D01*
X10491689Y-16920793D02*
X10482165Y-16958889D01*
X10482165Y-16958889D02*
X10472641Y-16977936D01*
X10472641Y-16977936D02*
X10463117Y-16987460D01*
X10463117Y-16987460D02*
X10444070Y-16996984D01*
X10444070Y-16996984D02*
X10425022Y-16996984D01*
X10425022Y-16996984D02*
X10405974Y-16987460D01*
X10405974Y-16987460D02*
X10396451Y-16977936D01*
X10396451Y-16977936D02*
X10386927Y-16958889D01*
X10386927Y-16958889D02*
X10377403Y-16920793D01*
X10377403Y-16920793D02*
X10377403Y-16873174D01*
X10377403Y-16873174D02*
X10386927Y-16835079D01*
X10386927Y-16835079D02*
X10396451Y-16816031D01*
X10396451Y-16816031D02*
X10405974Y-16806508D01*
X10405974Y-16806508D02*
X10425022Y-16796984D01*
X10577403Y-16977936D02*
X10586927Y-16987460D01*
X10586927Y-16987460D02*
X10577403Y-16996984D01*
X10577403Y-16996984D02*
X10567879Y-16987460D01*
X10567879Y-16987460D02*
X10577403Y-16977936D01*
X10577403Y-16977936D02*
X10577403Y-16996984D01*
X10710736Y-16796984D02*
X10729784Y-16796984D01*
X10729784Y-16796984D02*
X10748832Y-16806508D01*
X10748832Y-16806508D02*
X10758355Y-16816031D01*
X10758355Y-16816031D02*
X10767879Y-16835079D01*
X10767879Y-16835079D02*
X10777403Y-16873174D01*
X10777403Y-16873174D02*
X10777403Y-16920793D01*
X10777403Y-16920793D02*
X10767879Y-16958889D01*
X10767879Y-16958889D02*
X10758355Y-16977936D01*
X10758355Y-16977936D02*
X10748832Y-16987460D01*
X10748832Y-16987460D02*
X10729784Y-16996984D01*
X10729784Y-16996984D02*
X10710736Y-16996984D01*
X10710736Y-16996984D02*
X10691689Y-16987460D01*
X10691689Y-16987460D02*
X10682165Y-16977936D01*
X10682165Y-16977936D02*
X10672641Y-16958889D01*
X10672641Y-16958889D02*
X10663117Y-16920793D01*
X10663117Y-16920793D02*
X10663117Y-16873174D01*
X10663117Y-16873174D02*
X10672641Y-16835079D01*
X10672641Y-16835079D02*
X10682165Y-16816031D01*
X10682165Y-16816031D02*
X10691689Y-16806508D01*
X10691689Y-16806508D02*
X10710736Y-16796984D01*
X10844070Y-16796984D02*
X10967879Y-16796984D01*
X10967879Y-16796984D02*
X10901213Y-16873174D01*
X10901213Y-16873174D02*
X10929784Y-16873174D01*
X10929784Y-16873174D02*
X10948832Y-16882698D01*
X10948832Y-16882698D02*
X10958355Y-16892222D01*
X10958355Y-16892222D02*
X10967879Y-16911270D01*
X10967879Y-16911270D02*
X10967879Y-16958889D01*
X10967879Y-16958889D02*
X10958355Y-16977936D01*
X10958355Y-16977936D02*
X10948832Y-16987460D01*
X10948832Y-16987460D02*
X10929784Y-16996984D01*
X10929784Y-16996984D02*
X10872641Y-16996984D01*
X10872641Y-16996984D02*
X10853594Y-16987460D01*
X10853594Y-16987460D02*
X10844070Y-16977936D01*
X11063117Y-16996984D02*
X11101213Y-16996984D01*
X11101213Y-16996984D02*
X11120260Y-16987460D01*
X11120260Y-16987460D02*
X11129784Y-16977936D01*
X11129784Y-16977936D02*
X11148832Y-16949365D01*
X11148832Y-16949365D02*
X11158355Y-16911270D01*
X11158355Y-16911270D02*
X11158355Y-16835079D01*
X11158355Y-16835079D02*
X11148832Y-16816031D01*
X11148832Y-16816031D02*
X11139308Y-16806508D01*
X11139308Y-16806508D02*
X11120260Y-16796984D01*
X11120260Y-16796984D02*
X11082165Y-16796984D01*
X11082165Y-16796984D02*
X11063117Y-16806508D01*
X11063117Y-16806508D02*
X11053594Y-16816031D01*
X11053594Y-16816031D02*
X11044070Y-16835079D01*
X11044070Y-16835079D02*
X11044070Y-16882698D01*
X11044070Y-16882698D02*
X11053594Y-16901746D01*
X11053594Y-16901746D02*
X11063117Y-16911270D01*
X11063117Y-16911270D02*
X11082165Y-16920793D01*
X11082165Y-16920793D02*
X11120260Y-16920793D01*
X11120260Y-16920793D02*
X11139308Y-16911270D01*
X11139308Y-16911270D02*
X11148832Y-16901746D01*
X11148832Y-16901746D02*
X11158355Y-16882698D01*
X11329784Y-16863650D02*
X11329784Y-16996984D01*
X11282165Y-16787460D02*
X11234546Y-16930317D01*
X11234546Y-16930317D02*
X11358355Y-16930317D01*
X11425022Y-16796984D02*
X11425022Y-16835079D01*
X11501213Y-16796984D02*
X11501213Y-16835079D01*
X11796451Y-17073174D02*
X11786927Y-17063650D01*
X11786927Y-17063650D02*
X11767879Y-17035079D01*
X11767879Y-17035079D02*
X11758355Y-17016031D01*
X11758355Y-17016031D02*
X11748832Y-16987460D01*
X11748832Y-16987460D02*
X11739308Y-16939841D01*
X11739308Y-16939841D02*
X11739308Y-16901746D01*
X11739308Y-16901746D02*
X11748832Y-16854127D01*
X11748832Y-16854127D02*
X11758355Y-16825555D01*
X11758355Y-16825555D02*
X11767879Y-16806508D01*
X11767879Y-16806508D02*
X11786927Y-16777936D01*
X11786927Y-16777936D02*
X11796451Y-16768412D01*
X11863117Y-16816031D02*
X11872641Y-16806508D01*
X11872641Y-16806508D02*
X11891689Y-16796984D01*
X11891689Y-16796984D02*
X11939308Y-16796984D01*
X11939308Y-16796984D02*
X11958355Y-16806508D01*
X11958355Y-16806508D02*
X11967879Y-16816031D01*
X11967879Y-16816031D02*
X11977403Y-16835079D01*
X11977403Y-16835079D02*
X11977403Y-16854127D01*
X11977403Y-16854127D02*
X11967879Y-16882698D01*
X11967879Y-16882698D02*
X11853594Y-16996984D01*
X11853594Y-16996984D02*
X11977403Y-16996984D01*
X12091689Y-16882698D02*
X12072641Y-16873174D01*
X12072641Y-16873174D02*
X12063117Y-16863650D01*
X12063117Y-16863650D02*
X12053594Y-16844603D01*
X12053594Y-16844603D02*
X12053594Y-16835079D01*
X12053594Y-16835079D02*
X12063117Y-16816031D01*
X12063117Y-16816031D02*
X12072641Y-16806508D01*
X12072641Y-16806508D02*
X12091689Y-16796984D01*
X12091689Y-16796984D02*
X12129784Y-16796984D01*
X12129784Y-16796984D02*
X12148832Y-16806508D01*
X12148832Y-16806508D02*
X12158355Y-16816031D01*
X12158355Y-16816031D02*
X12167879Y-16835079D01*
X12167879Y-16835079D02*
X12167879Y-16844603D01*
X12167879Y-16844603D02*
X12158355Y-16863650D01*
X12158355Y-16863650D02*
X12148832Y-16873174D01*
X12148832Y-16873174D02*
X12129784Y-16882698D01*
X12129784Y-16882698D02*
X12091689Y-16882698D01*
X12091689Y-16882698D02*
X12072641Y-16892222D01*
X12072641Y-16892222D02*
X12063117Y-16901746D01*
X12063117Y-16901746D02*
X12053594Y-16920793D01*
X12053594Y-16920793D02*
X12053594Y-16958889D01*
X12053594Y-16958889D02*
X12063117Y-16977936D01*
X12063117Y-16977936D02*
X12072641Y-16987460D01*
X12072641Y-16987460D02*
X12091689Y-16996984D01*
X12091689Y-16996984D02*
X12129784Y-16996984D01*
X12129784Y-16996984D02*
X12148832Y-16987460D01*
X12148832Y-16987460D02*
X12158355Y-16977936D01*
X12158355Y-16977936D02*
X12167879Y-16958889D01*
X12167879Y-16958889D02*
X12167879Y-16920793D01*
X12167879Y-16920793D02*
X12158355Y-16901746D01*
X12158355Y-16901746D02*
X12148832Y-16892222D01*
X12148832Y-16892222D02*
X12129784Y-16882698D01*
X12405975Y-16996984D02*
X12405975Y-16796984D01*
X12491689Y-16996984D02*
X12491689Y-16892222D01*
X12491689Y-16892222D02*
X12482165Y-16873174D01*
X12482165Y-16873174D02*
X12463117Y-16863650D01*
X12463117Y-16863650D02*
X12434546Y-16863650D01*
X12434546Y-16863650D02*
X12415498Y-16873174D01*
X12415498Y-16873174D02*
X12405975Y-16882698D01*
X12615498Y-16996984D02*
X12596451Y-16987460D01*
X12596451Y-16987460D02*
X12586927Y-16977936D01*
X12586927Y-16977936D02*
X12577403Y-16958889D01*
X12577403Y-16958889D02*
X12577403Y-16901746D01*
X12577403Y-16901746D02*
X12586927Y-16882698D01*
X12586927Y-16882698D02*
X12596451Y-16873174D01*
X12596451Y-16873174D02*
X12615498Y-16863650D01*
X12615498Y-16863650D02*
X12644070Y-16863650D01*
X12644070Y-16863650D02*
X12663117Y-16873174D01*
X12663117Y-16873174D02*
X12672641Y-16882698D01*
X12672641Y-16882698D02*
X12682165Y-16901746D01*
X12682165Y-16901746D02*
X12682165Y-16958889D01*
X12682165Y-16958889D02*
X12672641Y-16977936D01*
X12672641Y-16977936D02*
X12663117Y-16987460D01*
X12663117Y-16987460D02*
X12644070Y-16996984D01*
X12644070Y-16996984D02*
X12615498Y-16996984D01*
X12796451Y-16996984D02*
X12777403Y-16987460D01*
X12777403Y-16987460D02*
X12767879Y-16968412D01*
X12767879Y-16968412D02*
X12767879Y-16796984D01*
X12948832Y-16987460D02*
X12929784Y-16996984D01*
X12929784Y-16996984D02*
X12891689Y-16996984D01*
X12891689Y-16996984D02*
X12872641Y-16987460D01*
X12872641Y-16987460D02*
X12863117Y-16968412D01*
X12863117Y-16968412D02*
X12863117Y-16892222D01*
X12863117Y-16892222D02*
X12872641Y-16873174D01*
X12872641Y-16873174D02*
X12891689Y-16863650D01*
X12891689Y-16863650D02*
X12929784Y-16863650D01*
X12929784Y-16863650D02*
X12948832Y-16873174D01*
X12948832Y-16873174D02*
X12958356Y-16892222D01*
X12958356Y-16892222D02*
X12958356Y-16911270D01*
X12958356Y-16911270D02*
X12863117Y-16930317D01*
X13034546Y-16987460D02*
X13053594Y-16996984D01*
X13053594Y-16996984D02*
X13091689Y-16996984D01*
X13091689Y-16996984D02*
X13110737Y-16987460D01*
X13110737Y-16987460D02*
X13120260Y-16968412D01*
X13120260Y-16968412D02*
X13120260Y-16958889D01*
X13120260Y-16958889D02*
X13110737Y-16939841D01*
X13110737Y-16939841D02*
X13091689Y-16930317D01*
X13091689Y-16930317D02*
X13063117Y-16930317D01*
X13063117Y-16930317D02*
X13044070Y-16920793D01*
X13044070Y-16920793D02*
X13034546Y-16901746D01*
X13034546Y-16901746D02*
X13034546Y-16892222D01*
X13034546Y-16892222D02*
X13044070Y-16873174D01*
X13044070Y-16873174D02*
X13063117Y-16863650D01*
X13063117Y-16863650D02*
X13091689Y-16863650D01*
X13091689Y-16863650D02*
X13110737Y-16873174D01*
X13186927Y-17073174D02*
X13196451Y-17063650D01*
X13196451Y-17063650D02*
X13215498Y-17035079D01*
X13215498Y-17035079D02*
X13225022Y-17016031D01*
X13225022Y-17016031D02*
X13234546Y-16987460D01*
X13234546Y-16987460D02*
X13244070Y-16939841D01*
X13244070Y-16939841D02*
X13244070Y-16901746D01*
X13244070Y-16901746D02*
X13234546Y-16854127D01*
X13234546Y-16854127D02*
X13225022Y-16825555D01*
X13225022Y-16825555D02*
X13215498Y-16806508D01*
X13215498Y-16806508D02*
X13196451Y-16777936D01*
X13196451Y-16777936D02*
X13186927Y-16768412D01*
D13*
X8204840Y-17209452D02*
X8204840Y-17129548D01*
X8124936Y-17129548D01*
X8124936Y-17209452D01*
X8204840Y-17209452D01*
D11*
X8586927Y-17260984D02*
X8472641Y-17260984D01*
X8529784Y-17260984D02*
X8529784Y-17060984D01*
X8529784Y-17060984D02*
X8510736Y-17089555D01*
X8510736Y-17089555D02*
X8491689Y-17108603D01*
X8491689Y-17108603D02*
X8472641Y-17118127D01*
X8672641Y-17241936D02*
X8682165Y-17251460D01*
X8682165Y-17251460D02*
X8672641Y-17260984D01*
X8672641Y-17260984D02*
X8663117Y-17251460D01*
X8663117Y-17251460D02*
X8672641Y-17241936D01*
X8672641Y-17241936D02*
X8672641Y-17260984D01*
X8872641Y-17260984D02*
X8758355Y-17260984D01*
X8815498Y-17260984D02*
X8815498Y-17060984D01*
X8815498Y-17060984D02*
X8796450Y-17089555D01*
X8796450Y-17089555D02*
X8777403Y-17108603D01*
X8777403Y-17108603D02*
X8758355Y-17118127D01*
X8939308Y-17060984D02*
X9063117Y-17060984D01*
X9063117Y-17060984D02*
X8996450Y-17137174D01*
X8996450Y-17137174D02*
X9025022Y-17137174D01*
X9025022Y-17137174D02*
X9044070Y-17146698D01*
X9044070Y-17146698D02*
X9053593Y-17156222D01*
X9053593Y-17156222D02*
X9063117Y-17175270D01*
X9063117Y-17175270D02*
X9063117Y-17222889D01*
X9063117Y-17222889D02*
X9053593Y-17241936D01*
X9053593Y-17241936D02*
X9044070Y-17251460D01*
X9044070Y-17251460D02*
X9025022Y-17260984D01*
X9025022Y-17260984D02*
X8967879Y-17260984D01*
X8967879Y-17260984D02*
X8948831Y-17251460D01*
X8948831Y-17251460D02*
X8939308Y-17241936D01*
X9186927Y-17060984D02*
X9205974Y-17060984D01*
X9205974Y-17060984D02*
X9225022Y-17070508D01*
X9225022Y-17070508D02*
X9234546Y-17080031D01*
X9234546Y-17080031D02*
X9244070Y-17099079D01*
X9244070Y-17099079D02*
X9253593Y-17137174D01*
X9253593Y-17137174D02*
X9253593Y-17184793D01*
X9253593Y-17184793D02*
X9244070Y-17222889D01*
X9244070Y-17222889D02*
X9234546Y-17241936D01*
X9234546Y-17241936D02*
X9225022Y-17251460D01*
X9225022Y-17251460D02*
X9205974Y-17260984D01*
X9205974Y-17260984D02*
X9186927Y-17260984D01*
X9186927Y-17260984D02*
X9167879Y-17251460D01*
X9167879Y-17251460D02*
X9158355Y-17241936D01*
X9158355Y-17241936D02*
X9148831Y-17222889D01*
X9148831Y-17222889D02*
X9139308Y-17184793D01*
X9139308Y-17184793D02*
X9139308Y-17137174D01*
X9139308Y-17137174D02*
X9148831Y-17099079D01*
X9148831Y-17099079D02*
X9158355Y-17080031D01*
X9158355Y-17080031D02*
X9167879Y-17070508D01*
X9167879Y-17070508D02*
X9186927Y-17060984D01*
X9339308Y-17260984D02*
X9339308Y-17127650D01*
X9339308Y-17146698D02*
X9348831Y-17137174D01*
X9348831Y-17137174D02*
X9367879Y-17127650D01*
X9367879Y-17127650D02*
X9396451Y-17127650D01*
X9396451Y-17127650D02*
X9415498Y-17137174D01*
X9415498Y-17137174D02*
X9425022Y-17156222D01*
X9425022Y-17156222D02*
X9425022Y-17260984D01*
X9425022Y-17156222D02*
X9434546Y-17137174D01*
X9434546Y-17137174D02*
X9453593Y-17127650D01*
X9453593Y-17127650D02*
X9482165Y-17127650D01*
X9482165Y-17127650D02*
X9501212Y-17137174D01*
X9501212Y-17137174D02*
X9510736Y-17156222D01*
X9510736Y-17156222D02*
X9510736Y-17260984D01*
X9605974Y-17260984D02*
X9605974Y-17127650D01*
X9605974Y-17146698D02*
X9615498Y-17137174D01*
X9615498Y-17137174D02*
X9634546Y-17127650D01*
X9634546Y-17127650D02*
X9663117Y-17127650D01*
X9663117Y-17127650D02*
X9682165Y-17137174D01*
X9682165Y-17137174D02*
X9691689Y-17156222D01*
X9691689Y-17156222D02*
X9691689Y-17260984D01*
X9691689Y-17156222D02*
X9701212Y-17137174D01*
X9701212Y-17137174D02*
X9720260Y-17127650D01*
X9720260Y-17127650D02*
X9748831Y-17127650D01*
X9748831Y-17127650D02*
X9767879Y-17137174D01*
X9767879Y-17137174D02*
X9777403Y-17156222D01*
X9777403Y-17156222D02*
X9777403Y-17260984D01*
X10167879Y-17051460D02*
X9996451Y-17308603D01*
X10425022Y-17060984D02*
X10444070Y-17060984D01*
X10444070Y-17060984D02*
X10463117Y-17070508D01*
X10463117Y-17070508D02*
X10472641Y-17080031D01*
X10472641Y-17080031D02*
X10482165Y-17099079D01*
X10482165Y-17099079D02*
X10491689Y-17137174D01*
X10491689Y-17137174D02*
X10491689Y-17184793D01*
X10491689Y-17184793D02*
X10482165Y-17222889D01*
X10482165Y-17222889D02*
X10472641Y-17241936D01*
X10472641Y-17241936D02*
X10463117Y-17251460D01*
X10463117Y-17251460D02*
X10444070Y-17260984D01*
X10444070Y-17260984D02*
X10425022Y-17260984D01*
X10425022Y-17260984D02*
X10405974Y-17251460D01*
X10405974Y-17251460D02*
X10396451Y-17241936D01*
X10396451Y-17241936D02*
X10386927Y-17222889D01*
X10386927Y-17222889D02*
X10377403Y-17184793D01*
X10377403Y-17184793D02*
X10377403Y-17137174D01*
X10377403Y-17137174D02*
X10386927Y-17099079D01*
X10386927Y-17099079D02*
X10396451Y-17080031D01*
X10396451Y-17080031D02*
X10405974Y-17070508D01*
X10405974Y-17070508D02*
X10425022Y-17060984D01*
X10577403Y-17241936D02*
X10586927Y-17251460D01*
X10586927Y-17251460D02*
X10577403Y-17260984D01*
X10577403Y-17260984D02*
X10567879Y-17251460D01*
X10567879Y-17251460D02*
X10577403Y-17241936D01*
X10577403Y-17241936D02*
X10577403Y-17260984D01*
X10710736Y-17060984D02*
X10729784Y-17060984D01*
X10729784Y-17060984D02*
X10748832Y-17070508D01*
X10748832Y-17070508D02*
X10758355Y-17080031D01*
X10758355Y-17080031D02*
X10767879Y-17099079D01*
X10767879Y-17099079D02*
X10777403Y-17137174D01*
X10777403Y-17137174D02*
X10777403Y-17184793D01*
X10777403Y-17184793D02*
X10767879Y-17222889D01*
X10767879Y-17222889D02*
X10758355Y-17241936D01*
X10758355Y-17241936D02*
X10748832Y-17251460D01*
X10748832Y-17251460D02*
X10729784Y-17260984D01*
X10729784Y-17260984D02*
X10710736Y-17260984D01*
X10710736Y-17260984D02*
X10691689Y-17251460D01*
X10691689Y-17251460D02*
X10682165Y-17241936D01*
X10682165Y-17241936D02*
X10672641Y-17222889D01*
X10672641Y-17222889D02*
X10663117Y-17184793D01*
X10663117Y-17184793D02*
X10663117Y-17137174D01*
X10663117Y-17137174D02*
X10672641Y-17099079D01*
X10672641Y-17099079D02*
X10682165Y-17080031D01*
X10682165Y-17080031D02*
X10691689Y-17070508D01*
X10691689Y-17070508D02*
X10710736Y-17060984D01*
X10948832Y-17127650D02*
X10948832Y-17260984D01*
X10901213Y-17051460D02*
X10853594Y-17194317D01*
X10853594Y-17194317D02*
X10977403Y-17194317D01*
X11139308Y-17127650D02*
X11139308Y-17260984D01*
X11091689Y-17051460D02*
X11044070Y-17194317D01*
X11044070Y-17194317D02*
X11167879Y-17194317D01*
X11339308Y-17060984D02*
X11244070Y-17060984D01*
X11244070Y-17060984D02*
X11234546Y-17156222D01*
X11234546Y-17156222D02*
X11244070Y-17146698D01*
X11244070Y-17146698D02*
X11263117Y-17137174D01*
X11263117Y-17137174D02*
X11310736Y-17137174D01*
X11310736Y-17137174D02*
X11329784Y-17146698D01*
X11329784Y-17146698D02*
X11339308Y-17156222D01*
X11339308Y-17156222D02*
X11348832Y-17175270D01*
X11348832Y-17175270D02*
X11348832Y-17222889D01*
X11348832Y-17222889D02*
X11339308Y-17241936D01*
X11339308Y-17241936D02*
X11329784Y-17251460D01*
X11329784Y-17251460D02*
X11310736Y-17260984D01*
X11310736Y-17260984D02*
X11263117Y-17260984D01*
X11263117Y-17260984D02*
X11244070Y-17251460D01*
X11244070Y-17251460D02*
X11234546Y-17241936D01*
X11425022Y-17060984D02*
X11425022Y-17099079D01*
X11501213Y-17060984D02*
X11501213Y-17099079D01*
X11796451Y-17337174D02*
X11786927Y-17327650D01*
X11786927Y-17327650D02*
X11767879Y-17299079D01*
X11767879Y-17299079D02*
X11758355Y-17280031D01*
X11758355Y-17280031D02*
X11748832Y-17251460D01*
X11748832Y-17251460D02*
X11739308Y-17203841D01*
X11739308Y-17203841D02*
X11739308Y-17165746D01*
X11739308Y-17165746D02*
X11748832Y-17118127D01*
X11748832Y-17118127D02*
X11758355Y-17089555D01*
X11758355Y-17089555D02*
X11767879Y-17070508D01*
X11767879Y-17070508D02*
X11786927Y-17041936D01*
X11786927Y-17041936D02*
X11796451Y-17032412D01*
X11977403Y-17260984D02*
X11863117Y-17260984D01*
X11920260Y-17260984D02*
X11920260Y-17060984D01*
X11920260Y-17060984D02*
X11901213Y-17089555D01*
X11901213Y-17089555D02*
X11882165Y-17108603D01*
X11882165Y-17108603D02*
X11863117Y-17118127D01*
X12158355Y-17060984D02*
X12063117Y-17060984D01*
X12063117Y-17060984D02*
X12053594Y-17156222D01*
X12053594Y-17156222D02*
X12063117Y-17146698D01*
X12063117Y-17146698D02*
X12082165Y-17137174D01*
X12082165Y-17137174D02*
X12129784Y-17137174D01*
X12129784Y-17137174D02*
X12148832Y-17146698D01*
X12148832Y-17146698D02*
X12158355Y-17156222D01*
X12158355Y-17156222D02*
X12167879Y-17175270D01*
X12167879Y-17175270D02*
X12167879Y-17222889D01*
X12167879Y-17222889D02*
X12158355Y-17241936D01*
X12158355Y-17241936D02*
X12148832Y-17251460D01*
X12148832Y-17251460D02*
X12129784Y-17260984D01*
X12129784Y-17260984D02*
X12082165Y-17260984D01*
X12082165Y-17260984D02*
X12063117Y-17251460D01*
X12063117Y-17251460D02*
X12053594Y-17241936D01*
X12405975Y-17260984D02*
X12405975Y-17060984D01*
X12491689Y-17260984D02*
X12491689Y-17156222D01*
X12491689Y-17156222D02*
X12482165Y-17137174D01*
X12482165Y-17137174D02*
X12463117Y-17127650D01*
X12463117Y-17127650D02*
X12434546Y-17127650D01*
X12434546Y-17127650D02*
X12415498Y-17137174D01*
X12415498Y-17137174D02*
X12405975Y-17146698D01*
X12615498Y-17260984D02*
X12596451Y-17251460D01*
X12596451Y-17251460D02*
X12586927Y-17241936D01*
X12586927Y-17241936D02*
X12577403Y-17222889D01*
X12577403Y-17222889D02*
X12577403Y-17165746D01*
X12577403Y-17165746D02*
X12586927Y-17146698D01*
X12586927Y-17146698D02*
X12596451Y-17137174D01*
X12596451Y-17137174D02*
X12615498Y-17127650D01*
X12615498Y-17127650D02*
X12644070Y-17127650D01*
X12644070Y-17127650D02*
X12663117Y-17137174D01*
X12663117Y-17137174D02*
X12672641Y-17146698D01*
X12672641Y-17146698D02*
X12682165Y-17165746D01*
X12682165Y-17165746D02*
X12682165Y-17222889D01*
X12682165Y-17222889D02*
X12672641Y-17241936D01*
X12672641Y-17241936D02*
X12663117Y-17251460D01*
X12663117Y-17251460D02*
X12644070Y-17260984D01*
X12644070Y-17260984D02*
X12615498Y-17260984D01*
X12796451Y-17260984D02*
X12777403Y-17251460D01*
X12777403Y-17251460D02*
X12767879Y-17232412D01*
X12767879Y-17232412D02*
X12767879Y-17060984D01*
X12948832Y-17251460D02*
X12929784Y-17260984D01*
X12929784Y-17260984D02*
X12891689Y-17260984D01*
X12891689Y-17260984D02*
X12872641Y-17251460D01*
X12872641Y-17251460D02*
X12863117Y-17232412D01*
X12863117Y-17232412D02*
X12863117Y-17156222D01*
X12863117Y-17156222D02*
X12872641Y-17137174D01*
X12872641Y-17137174D02*
X12891689Y-17127650D01*
X12891689Y-17127650D02*
X12929784Y-17127650D01*
X12929784Y-17127650D02*
X12948832Y-17137174D01*
X12948832Y-17137174D02*
X12958356Y-17156222D01*
X12958356Y-17156222D02*
X12958356Y-17175270D01*
X12958356Y-17175270D02*
X12863117Y-17194317D01*
X13034546Y-17251460D02*
X13053594Y-17260984D01*
X13053594Y-17260984D02*
X13091689Y-17260984D01*
X13091689Y-17260984D02*
X13110737Y-17251460D01*
X13110737Y-17251460D02*
X13120260Y-17232412D01*
X13120260Y-17232412D02*
X13120260Y-17222889D01*
X13120260Y-17222889D02*
X13110737Y-17203841D01*
X13110737Y-17203841D02*
X13091689Y-17194317D01*
X13091689Y-17194317D02*
X13063117Y-17194317D01*
X13063117Y-17194317D02*
X13044070Y-17184793D01*
X13044070Y-17184793D02*
X13034546Y-17165746D01*
X13034546Y-17165746D02*
X13034546Y-17156222D01*
X13034546Y-17156222D02*
X13044070Y-17137174D01*
X13044070Y-17137174D02*
X13063117Y-17127650D01*
X13063117Y-17127650D02*
X13091689Y-17127650D01*
X13091689Y-17127650D02*
X13110737Y-17137174D01*
X13186927Y-17337174D02*
X13196451Y-17327650D01*
X13196451Y-17327650D02*
X13215498Y-17299079D01*
X13215498Y-17299079D02*
X13225022Y-17280031D01*
X13225022Y-17280031D02*
X13234546Y-17251460D01*
X13234546Y-17251460D02*
X13244070Y-17203841D01*
X13244070Y-17203841D02*
X13244070Y-17165746D01*
X13244070Y-17165746D02*
X13234546Y-17118127D01*
X13234546Y-17118127D02*
X13225022Y-17089555D01*
X13225022Y-17089555D02*
X13215498Y-17070508D01*
X13215498Y-17070508D02*
X13196451Y-17041936D01*
X13196451Y-17041936D02*
X13186927Y-17032412D01*
X8121388Y-17533500D02*
X8221388Y-17433500D01*
X8121388Y-17333500D01*
X8021388Y-17433500D01*
X8121388Y-17533500D01*
X8463117Y-17324984D02*
X8586927Y-17324984D01*
X8586927Y-17324984D02*
X8520260Y-17401174D01*
X8520260Y-17401174D02*
X8548831Y-17401174D01*
X8548831Y-17401174D02*
X8567879Y-17410698D01*
X8567879Y-17410698D02*
X8577403Y-17420222D01*
X8577403Y-17420222D02*
X8586927Y-17439270D01*
X8586927Y-17439270D02*
X8586927Y-17486889D01*
X8586927Y-17486889D02*
X8577403Y-17505936D01*
X8577403Y-17505936D02*
X8567879Y-17515460D01*
X8567879Y-17515460D02*
X8548831Y-17524984D01*
X8548831Y-17524984D02*
X8491689Y-17524984D01*
X8491689Y-17524984D02*
X8472641Y-17515460D01*
X8472641Y-17515460D02*
X8463117Y-17505936D01*
X8672641Y-17505936D02*
X8682165Y-17515460D01*
X8682165Y-17515460D02*
X8672641Y-17524984D01*
X8672641Y-17524984D02*
X8663117Y-17515460D01*
X8663117Y-17515460D02*
X8672641Y-17505936D01*
X8672641Y-17505936D02*
X8672641Y-17524984D01*
X8758355Y-17344031D02*
X8767879Y-17334508D01*
X8767879Y-17334508D02*
X8786927Y-17324984D01*
X8786927Y-17324984D02*
X8834546Y-17324984D01*
X8834546Y-17324984D02*
X8853593Y-17334508D01*
X8853593Y-17334508D02*
X8863117Y-17344031D01*
X8863117Y-17344031D02*
X8872641Y-17363079D01*
X8872641Y-17363079D02*
X8872641Y-17382127D01*
X8872641Y-17382127D02*
X8863117Y-17410698D01*
X8863117Y-17410698D02*
X8748831Y-17524984D01*
X8748831Y-17524984D02*
X8872641Y-17524984D01*
X8939308Y-17324984D02*
X9063117Y-17324984D01*
X9063117Y-17324984D02*
X8996450Y-17401174D01*
X8996450Y-17401174D02*
X9025022Y-17401174D01*
X9025022Y-17401174D02*
X9044070Y-17410698D01*
X9044070Y-17410698D02*
X9053593Y-17420222D01*
X9053593Y-17420222D02*
X9063117Y-17439270D01*
X9063117Y-17439270D02*
X9063117Y-17486889D01*
X9063117Y-17486889D02*
X9053593Y-17505936D01*
X9053593Y-17505936D02*
X9044070Y-17515460D01*
X9044070Y-17515460D02*
X9025022Y-17524984D01*
X9025022Y-17524984D02*
X8967879Y-17524984D01*
X8967879Y-17524984D02*
X8948831Y-17515460D01*
X8948831Y-17515460D02*
X8939308Y-17505936D01*
X9186927Y-17324984D02*
X9205974Y-17324984D01*
X9205974Y-17324984D02*
X9225022Y-17334508D01*
X9225022Y-17334508D02*
X9234546Y-17344031D01*
X9234546Y-17344031D02*
X9244070Y-17363079D01*
X9244070Y-17363079D02*
X9253593Y-17401174D01*
X9253593Y-17401174D02*
X9253593Y-17448793D01*
X9253593Y-17448793D02*
X9244070Y-17486889D01*
X9244070Y-17486889D02*
X9234546Y-17505936D01*
X9234546Y-17505936D02*
X9225022Y-17515460D01*
X9225022Y-17515460D02*
X9205974Y-17524984D01*
X9205974Y-17524984D02*
X9186927Y-17524984D01*
X9186927Y-17524984D02*
X9167879Y-17515460D01*
X9167879Y-17515460D02*
X9158355Y-17505936D01*
X9158355Y-17505936D02*
X9148831Y-17486889D01*
X9148831Y-17486889D02*
X9139308Y-17448793D01*
X9139308Y-17448793D02*
X9139308Y-17401174D01*
X9139308Y-17401174D02*
X9148831Y-17363079D01*
X9148831Y-17363079D02*
X9158355Y-17344031D01*
X9158355Y-17344031D02*
X9167879Y-17334508D01*
X9167879Y-17334508D02*
X9186927Y-17324984D01*
X9339308Y-17524984D02*
X9339308Y-17391650D01*
X9339308Y-17410698D02*
X9348831Y-17401174D01*
X9348831Y-17401174D02*
X9367879Y-17391650D01*
X9367879Y-17391650D02*
X9396451Y-17391650D01*
X9396451Y-17391650D02*
X9415498Y-17401174D01*
X9415498Y-17401174D02*
X9425022Y-17420222D01*
X9425022Y-17420222D02*
X9425022Y-17524984D01*
X9425022Y-17420222D02*
X9434546Y-17401174D01*
X9434546Y-17401174D02*
X9453593Y-17391650D01*
X9453593Y-17391650D02*
X9482165Y-17391650D01*
X9482165Y-17391650D02*
X9501212Y-17401174D01*
X9501212Y-17401174D02*
X9510736Y-17420222D01*
X9510736Y-17420222D02*
X9510736Y-17524984D01*
X9605974Y-17524984D02*
X9605974Y-17391650D01*
X9605974Y-17410698D02*
X9615498Y-17401174D01*
X9615498Y-17401174D02*
X9634546Y-17391650D01*
X9634546Y-17391650D02*
X9663117Y-17391650D01*
X9663117Y-17391650D02*
X9682165Y-17401174D01*
X9682165Y-17401174D02*
X9691689Y-17420222D01*
X9691689Y-17420222D02*
X9691689Y-17524984D01*
X9691689Y-17420222D02*
X9701212Y-17401174D01*
X9701212Y-17401174D02*
X9720260Y-17391650D01*
X9720260Y-17391650D02*
X9748831Y-17391650D01*
X9748831Y-17391650D02*
X9767879Y-17401174D01*
X9767879Y-17401174D02*
X9777403Y-17420222D01*
X9777403Y-17420222D02*
X9777403Y-17524984D01*
X10167879Y-17315460D02*
X9996451Y-17572603D01*
X10425022Y-17324984D02*
X10444070Y-17324984D01*
X10444070Y-17324984D02*
X10463117Y-17334508D01*
X10463117Y-17334508D02*
X10472641Y-17344031D01*
X10472641Y-17344031D02*
X10482165Y-17363079D01*
X10482165Y-17363079D02*
X10491689Y-17401174D01*
X10491689Y-17401174D02*
X10491689Y-17448793D01*
X10491689Y-17448793D02*
X10482165Y-17486889D01*
X10482165Y-17486889D02*
X10472641Y-17505936D01*
X10472641Y-17505936D02*
X10463117Y-17515460D01*
X10463117Y-17515460D02*
X10444070Y-17524984D01*
X10444070Y-17524984D02*
X10425022Y-17524984D01*
X10425022Y-17524984D02*
X10405974Y-17515460D01*
X10405974Y-17515460D02*
X10396451Y-17505936D01*
X10396451Y-17505936D02*
X10386927Y-17486889D01*
X10386927Y-17486889D02*
X10377403Y-17448793D01*
X10377403Y-17448793D02*
X10377403Y-17401174D01*
X10377403Y-17401174D02*
X10386927Y-17363079D01*
X10386927Y-17363079D02*
X10396451Y-17344031D01*
X10396451Y-17344031D02*
X10405974Y-17334508D01*
X10405974Y-17334508D02*
X10425022Y-17324984D01*
X10577403Y-17505936D02*
X10586927Y-17515460D01*
X10586927Y-17515460D02*
X10577403Y-17524984D01*
X10577403Y-17524984D02*
X10567879Y-17515460D01*
X10567879Y-17515460D02*
X10577403Y-17505936D01*
X10577403Y-17505936D02*
X10577403Y-17524984D01*
X10777403Y-17524984D02*
X10663117Y-17524984D01*
X10720260Y-17524984D02*
X10720260Y-17324984D01*
X10720260Y-17324984D02*
X10701213Y-17353555D01*
X10701213Y-17353555D02*
X10682165Y-17372603D01*
X10682165Y-17372603D02*
X10663117Y-17382127D01*
X10853594Y-17344031D02*
X10863117Y-17334508D01*
X10863117Y-17334508D02*
X10882165Y-17324984D01*
X10882165Y-17324984D02*
X10929784Y-17324984D01*
X10929784Y-17324984D02*
X10948832Y-17334508D01*
X10948832Y-17334508D02*
X10958355Y-17344031D01*
X10958355Y-17344031D02*
X10967879Y-17363079D01*
X10967879Y-17363079D02*
X10967879Y-17382127D01*
X10967879Y-17382127D02*
X10958355Y-17410698D01*
X10958355Y-17410698D02*
X10844070Y-17524984D01*
X10844070Y-17524984D02*
X10967879Y-17524984D01*
X11034546Y-17324984D02*
X11167879Y-17324984D01*
X11167879Y-17324984D02*
X11082165Y-17524984D01*
X11234546Y-17344031D02*
X11244070Y-17334508D01*
X11244070Y-17334508D02*
X11263117Y-17324984D01*
X11263117Y-17324984D02*
X11310736Y-17324984D01*
X11310736Y-17324984D02*
X11329784Y-17334508D01*
X11329784Y-17334508D02*
X11339308Y-17344031D01*
X11339308Y-17344031D02*
X11348832Y-17363079D01*
X11348832Y-17363079D02*
X11348832Y-17382127D01*
X11348832Y-17382127D02*
X11339308Y-17410698D01*
X11339308Y-17410698D02*
X11225022Y-17524984D01*
X11225022Y-17524984D02*
X11348832Y-17524984D01*
X11425022Y-17324984D02*
X11425022Y-17363079D01*
X11501213Y-17324984D02*
X11501213Y-17363079D01*
X11796451Y-17601174D02*
X11786927Y-17591650D01*
X11786927Y-17591650D02*
X11767879Y-17563079D01*
X11767879Y-17563079D02*
X11758355Y-17544031D01*
X11758355Y-17544031D02*
X11748832Y-17515460D01*
X11748832Y-17515460D02*
X11739308Y-17467841D01*
X11739308Y-17467841D02*
X11739308Y-17429746D01*
X11739308Y-17429746D02*
X11748832Y-17382127D01*
X11748832Y-17382127D02*
X11758355Y-17353555D01*
X11758355Y-17353555D02*
X11767879Y-17334508D01*
X11767879Y-17334508D02*
X11786927Y-17305936D01*
X11786927Y-17305936D02*
X11796451Y-17296412D01*
X11863117Y-17344031D02*
X11872641Y-17334508D01*
X11872641Y-17334508D02*
X11891689Y-17324984D01*
X11891689Y-17324984D02*
X11939308Y-17324984D01*
X11939308Y-17324984D02*
X11958355Y-17334508D01*
X11958355Y-17334508D02*
X11967879Y-17344031D01*
X11967879Y-17344031D02*
X11977403Y-17363079D01*
X11977403Y-17363079D02*
X11977403Y-17382127D01*
X11977403Y-17382127D02*
X11967879Y-17410698D01*
X11967879Y-17410698D02*
X11853594Y-17524984D01*
X11853594Y-17524984D02*
X11977403Y-17524984D01*
X12215498Y-17524984D02*
X12215498Y-17324984D01*
X12301213Y-17524984D02*
X12301213Y-17420222D01*
X12301213Y-17420222D02*
X12291689Y-17401174D01*
X12291689Y-17401174D02*
X12272641Y-17391650D01*
X12272641Y-17391650D02*
X12244070Y-17391650D01*
X12244070Y-17391650D02*
X12225022Y-17401174D01*
X12225022Y-17401174D02*
X12215498Y-17410698D01*
X12425022Y-17524984D02*
X12405975Y-17515460D01*
X12405975Y-17515460D02*
X12396451Y-17505936D01*
X12396451Y-17505936D02*
X12386927Y-17486889D01*
X12386927Y-17486889D02*
X12386927Y-17429746D01*
X12386927Y-17429746D02*
X12396451Y-17410698D01*
X12396451Y-17410698D02*
X12405975Y-17401174D01*
X12405975Y-17401174D02*
X12425022Y-17391650D01*
X12425022Y-17391650D02*
X12453594Y-17391650D01*
X12453594Y-17391650D02*
X12472641Y-17401174D01*
X12472641Y-17401174D02*
X12482165Y-17410698D01*
X12482165Y-17410698D02*
X12491689Y-17429746D01*
X12491689Y-17429746D02*
X12491689Y-17486889D01*
X12491689Y-17486889D02*
X12482165Y-17505936D01*
X12482165Y-17505936D02*
X12472641Y-17515460D01*
X12472641Y-17515460D02*
X12453594Y-17524984D01*
X12453594Y-17524984D02*
X12425022Y-17524984D01*
X12605975Y-17524984D02*
X12586927Y-17515460D01*
X12586927Y-17515460D02*
X12577403Y-17496412D01*
X12577403Y-17496412D02*
X12577403Y-17324984D01*
X12758356Y-17515460D02*
X12739308Y-17524984D01*
X12739308Y-17524984D02*
X12701213Y-17524984D01*
X12701213Y-17524984D02*
X12682165Y-17515460D01*
X12682165Y-17515460D02*
X12672641Y-17496412D01*
X12672641Y-17496412D02*
X12672641Y-17420222D01*
X12672641Y-17420222D02*
X12682165Y-17401174D01*
X12682165Y-17401174D02*
X12701213Y-17391650D01*
X12701213Y-17391650D02*
X12739308Y-17391650D01*
X12739308Y-17391650D02*
X12758356Y-17401174D01*
X12758356Y-17401174D02*
X12767879Y-17420222D01*
X12767879Y-17420222D02*
X12767879Y-17439270D01*
X12767879Y-17439270D02*
X12672641Y-17458317D01*
X12844070Y-17515460D02*
X12863117Y-17524984D01*
X12863117Y-17524984D02*
X12901213Y-17524984D01*
X12901213Y-17524984D02*
X12920260Y-17515460D01*
X12920260Y-17515460D02*
X12929784Y-17496412D01*
X12929784Y-17496412D02*
X12929784Y-17486889D01*
X12929784Y-17486889D02*
X12920260Y-17467841D01*
X12920260Y-17467841D02*
X12901213Y-17458317D01*
X12901213Y-17458317D02*
X12872641Y-17458317D01*
X12872641Y-17458317D02*
X12853594Y-17448793D01*
X12853594Y-17448793D02*
X12844070Y-17429746D01*
X12844070Y-17429746D02*
X12844070Y-17420222D01*
X12844070Y-17420222D02*
X12853594Y-17401174D01*
X12853594Y-17401174D02*
X12872641Y-17391650D01*
X12872641Y-17391650D02*
X12901213Y-17391650D01*
X12901213Y-17391650D02*
X12920260Y-17401174D01*
X12996451Y-17601174D02*
X13005975Y-17591650D01*
X13005975Y-17591650D02*
X13025022Y-17563079D01*
X13025022Y-17563079D02*
X13034546Y-17544031D01*
X13034546Y-17544031D02*
X13044070Y-17515460D01*
X13044070Y-17515460D02*
X13053594Y-17467841D01*
X13053594Y-17467841D02*
X13053594Y-17429746D01*
X13053594Y-17429746D02*
X13044070Y-17382127D01*
X13044070Y-17382127D02*
X13034546Y-17353555D01*
X13034546Y-17353555D02*
X13025022Y-17334508D01*
X13025022Y-17334508D02*
X13005975Y-17305936D01*
X13005975Y-17305936D02*
X12996451Y-17296412D01*
M02*
