%TF.GenerationSoftware,KiCad,Pcbnew,8.0.5-dirty*%
%TF.CreationDate,2024-11-25T07:18:36-08:00*%
%TF.ProjectId,nightshade,6e696768-7473-4686-9164-652e6b696361,rev?*%
%TF.SameCoordinates,Original*%
%TF.FileFunction,Drillmap*%
%TF.FilePolarity,Positive*%
%FSLAX45Y45*%
G04 Gerber Fmt 4.5, Leading zero omitted, Abs format (unit mm)*
G04 Created by KiCad (PCBNEW 8.0.5-dirty) date 2024-11-25 07:18:36*
%MOMM*%
%LPD*%
G01*
G04 APERTURE LIST*
%ADD10C,0.050000*%
%ADD11C,0.200000*%
G04 APERTURE END LIST*
D10*
X12957500Y-15735000D02*
X13052500Y-15640000D01*
X13655000Y-15735000D02*
X13560000Y-15640000D01*
X21687500Y-15640000D02*
X21592500Y-15735000D01*
X8325000Y-15735000D02*
X8230000Y-15640000D01*
X23565000Y-8550000D02*
X8680000Y-8550000D01*
X12957500Y-15735000D02*
X8325000Y-15735000D01*
X13560000Y-14850000D02*
X13560000Y-15640000D01*
X13052500Y-15640000D02*
X13052500Y-14850000D01*
X8230000Y-15640000D02*
X8232500Y-8997500D01*
X13655000Y-15735000D02*
X21592500Y-15735000D01*
X21687500Y-15640000D02*
X21687500Y-14820000D01*
X13052500Y-14850000D02*
X13560000Y-14850000D01*
X8680000Y-8550000D02*
X8232500Y-8997500D01*
X23640000Y-14820000D02*
X23695000Y-14765000D01*
X23565000Y-8550000D02*
X23695000Y-8680000D01*
X23695000Y-8680000D02*
X23695000Y-14765000D01*
X21687500Y-14820000D02*
X23640000Y-14820000D01*
D11*
X8488277Y-16048984D02*
X8488277Y-15848984D01*
X8488277Y-15848984D02*
X8535896Y-15848984D01*
X8535896Y-15848984D02*
X8564467Y-15858508D01*
X8564467Y-15858508D02*
X8583515Y-15877555D01*
X8583515Y-15877555D02*
X8593039Y-15896603D01*
X8593039Y-15896603D02*
X8602563Y-15934698D01*
X8602563Y-15934698D02*
X8602563Y-15963269D01*
X8602563Y-15963269D02*
X8593039Y-16001365D01*
X8593039Y-16001365D02*
X8583515Y-16020412D01*
X8583515Y-16020412D02*
X8564467Y-16039460D01*
X8564467Y-16039460D02*
X8535896Y-16048984D01*
X8535896Y-16048984D02*
X8488277Y-16048984D01*
X8688277Y-16048984D02*
X8688277Y-15915650D01*
X8688277Y-15953746D02*
X8697801Y-15934698D01*
X8697801Y-15934698D02*
X8707324Y-15925174D01*
X8707324Y-15925174D02*
X8726372Y-15915650D01*
X8726372Y-15915650D02*
X8745420Y-15915650D01*
X8812086Y-16048984D02*
X8812086Y-15915650D01*
X8812086Y-15848984D02*
X8802563Y-15858508D01*
X8802563Y-15858508D02*
X8812086Y-15868031D01*
X8812086Y-15868031D02*
X8821610Y-15858508D01*
X8821610Y-15858508D02*
X8812086Y-15848984D01*
X8812086Y-15848984D02*
X8812086Y-15868031D01*
X8935896Y-16048984D02*
X8916848Y-16039460D01*
X8916848Y-16039460D02*
X8907324Y-16020412D01*
X8907324Y-16020412D02*
X8907324Y-15848984D01*
X9040658Y-16048984D02*
X9021610Y-16039460D01*
X9021610Y-16039460D02*
X9012086Y-16020412D01*
X9012086Y-16020412D02*
X9012086Y-15848984D01*
X9269229Y-16048984D02*
X9269229Y-15848984D01*
X9269229Y-15848984D02*
X9335896Y-15991841D01*
X9335896Y-15991841D02*
X9402563Y-15848984D01*
X9402563Y-15848984D02*
X9402563Y-16048984D01*
X9583515Y-16048984D02*
X9583515Y-15944222D01*
X9583515Y-15944222D02*
X9573991Y-15925174D01*
X9573991Y-15925174D02*
X9554944Y-15915650D01*
X9554944Y-15915650D02*
X9516848Y-15915650D01*
X9516848Y-15915650D02*
X9497801Y-15925174D01*
X9583515Y-16039460D02*
X9564467Y-16048984D01*
X9564467Y-16048984D02*
X9516848Y-16048984D01*
X9516848Y-16048984D02*
X9497801Y-16039460D01*
X9497801Y-16039460D02*
X9488277Y-16020412D01*
X9488277Y-16020412D02*
X9488277Y-16001365D01*
X9488277Y-16001365D02*
X9497801Y-15982317D01*
X9497801Y-15982317D02*
X9516848Y-15972793D01*
X9516848Y-15972793D02*
X9564467Y-15972793D01*
X9564467Y-15972793D02*
X9583515Y-15963269D01*
X9678753Y-15915650D02*
X9678753Y-16115650D01*
X9678753Y-15925174D02*
X9697801Y-15915650D01*
X9697801Y-15915650D02*
X9735896Y-15915650D01*
X9735896Y-15915650D02*
X9754944Y-15925174D01*
X9754944Y-15925174D02*
X9764467Y-15934698D01*
X9764467Y-15934698D02*
X9773991Y-15953746D01*
X9773991Y-15953746D02*
X9773991Y-16010888D01*
X9773991Y-16010888D02*
X9764467Y-16029936D01*
X9764467Y-16029936D02*
X9754944Y-16039460D01*
X9754944Y-16039460D02*
X9735896Y-16048984D01*
X9735896Y-16048984D02*
X9697801Y-16048984D01*
X9697801Y-16048984D02*
X9678753Y-16039460D01*
X9859705Y-16029936D02*
X9869229Y-16039460D01*
X9869229Y-16039460D02*
X9859705Y-16048984D01*
X9859705Y-16048984D02*
X9850182Y-16039460D01*
X9850182Y-16039460D02*
X9859705Y-16029936D01*
X9859705Y-16029936D02*
X9859705Y-16048984D01*
X9859705Y-15925174D02*
X9869229Y-15934698D01*
X9869229Y-15934698D02*
X9859705Y-15944222D01*
X9859705Y-15944222D02*
X9850182Y-15934698D01*
X9850182Y-15934698D02*
X9859705Y-15925174D01*
X9859705Y-15925174D02*
X9859705Y-15944222D01*
M02*
