%TF.GenerationSoftware,KiCad,Pcbnew,8.0.5-dirty*%
%TF.CreationDate,2025-01-02T08:28:44-08:00*%
%TF.ProjectId,nightshade,6e696768-7473-4686-9164-652e6b696361,rev?*%
%TF.SameCoordinates,Original*%
%TF.FileFunction,Paste,Top*%
%TF.FilePolarity,Positive*%
%FSLAX46Y46*%
G04 Gerber Fmt 4.6, Leading zero omitted, Abs format (unit mm)*
G04 Created by KiCad (PCBNEW 8.0.5-dirty) date 2025-01-02 08:28:44*
%MOMM*%
%LPD*%
G01*
G04 APERTURE LIST*
G04 Aperture macros list*
%AMRoundRect*
0 Rectangle with rounded corners*
0 $1 Rounding radius*
0 $2 $3 $4 $5 $6 $7 $8 $9 X,Y pos of 4 corners*
0 Add a 4 corners polygon primitive as box body*
4,1,4,$2,$3,$4,$5,$6,$7,$8,$9,$2,$3,0*
0 Add four circle primitives for the rounded corners*
1,1,$1+$1,$2,$3*
1,1,$1+$1,$4,$5*
1,1,$1+$1,$6,$7*
1,1,$1+$1,$8,$9*
0 Add four rect primitives between the rounded corners*
20,1,$1+$1,$2,$3,$4,$5,0*
20,1,$1+$1,$4,$5,$6,$7,0*
20,1,$1+$1,$6,$7,$8,$9,0*
20,1,$1+$1,$8,$9,$2,$3,0*%
G04 Aperture macros list end*
%ADD10RoundRect,0.250000X0.650000X-0.325000X0.650000X0.325000X-0.650000X0.325000X-0.650000X-0.325000X0*%
%ADD11RoundRect,0.250000X-0.325000X-0.650000X0.325000X-0.650000X0.325000X0.650000X-0.325000X0.650000X0*%
%ADD12RoundRect,0.250000X0.475000X-0.250000X0.475000X0.250000X-0.475000X0.250000X-0.475000X-0.250000X0*%
%ADD13RoundRect,0.250000X-0.475000X0.250000X-0.475000X-0.250000X0.475000X-0.250000X0.475000X0.250000X0*%
%ADD14RoundRect,0.250000X-0.250000X-0.475000X0.250000X-0.475000X0.250000X0.475000X-0.250000X0.475000X0*%
%ADD15RoundRect,0.250000X0.250000X0.475000X-0.250000X0.475000X-0.250000X-0.475000X0.250000X-0.475000X0*%
%ADD16R,1.000000X1.000000*%
%ADD17RoundRect,0.218750X0.218750X0.381250X-0.218750X0.381250X-0.218750X-0.381250X0.218750X-0.381250X0*%
%ADD18RoundRect,0.249998X-0.262502X-0.450002X0.262502X-0.450002X0.262502X0.450002X-0.262502X0.450002X0*%
%ADD19RoundRect,0.249998X0.262502X0.450002X-0.262502X0.450002X-0.262502X-0.450002X0.262502X-0.450002X0*%
%ADD20RoundRect,0.249998X-0.450002X0.262502X-0.450002X-0.262502X0.450002X-0.262502X0.450002X0.262502X0*%
%ADD21RoundRect,0.250100X0.449900X-0.262400X0.449900X0.262400X-0.449900X0.262400X-0.449900X-0.262400X0*%
%ADD22RoundRect,0.249998X0.450002X-0.262502X0.450002X0.262502X-0.450002X0.262502X-0.450002X-0.262502X0*%
%ADD23RoundRect,0.150000X0.150000X-0.875000X0.150000X0.875000X-0.150000X0.875000X-0.150000X-0.875000X0*%
%ADD24RoundRect,0.150000X-1.475000X-0.150000X1.475000X-0.150000X1.475000X0.150000X-1.475000X0.150000X0*%
%ADD25RoundRect,0.250000X-0.650000X0.325000X-0.650000X-0.325000X0.650000X-0.325000X0.650000X0.325000X0*%
%ADD26RoundRect,0.200000X-0.200000X-0.275000X0.200000X-0.275000X0.200000X0.275000X-0.200000X0.275000X0*%
%ADD27RoundRect,0.218750X-0.218750X-0.381250X0.218750X-0.381250X0.218750X0.381250X-0.218750X0.381250X0*%
%ADD28RoundRect,0.150000X-0.825000X-0.150000X0.825000X-0.150000X0.825000X0.150000X-0.825000X0.150000X0*%
%ADD29R,3.500000X2.400000*%
%ADD30R,0.800000X0.500000*%
%ADD31R,0.800000X0.400000*%
%ADD32RoundRect,0.200000X0.200000X0.275000X-0.200000X0.275000X-0.200000X-0.275000X0.200000X-0.275000X0*%
%ADD33RoundRect,0.100000X0.100000X-0.775000X0.100000X0.775000X-0.100000X0.775000X-0.100000X-0.775000X0*%
%ADD34RoundRect,0.100000X0.775000X-0.100000X0.775000X0.100000X-0.775000X0.100000X-0.775000X-0.100000X0*%
%ADD35R,0.700000X1.925000*%
%ADD36R,1.925000X0.700000*%
%ADD37RoundRect,0.250000X-0.159099X0.512652X-0.512652X0.159099X0.159099X-0.512652X0.512652X-0.159099X0*%
%ADD38RoundRect,0.250000X-0.550000X1.075000X-0.550000X-1.075000X0.550000X-1.075000X0.550000X1.075000X0*%
%ADD39RoundRect,0.250000X-0.450000X0.262500X-0.450000X-0.262500X0.450000X-0.262500X0.450000X0.262500X0*%
%ADD40RoundRect,0.250000X0.350000X-0.850000X0.350000X0.850000X-0.350000X0.850000X-0.350000X-0.850000X0*%
%ADD41RoundRect,0.250000X1.125000X-1.275000X1.125000X1.275000X-1.125000X1.275000X-1.125000X-1.275000X0*%
G04 APERTURE END LIST*
D10*
%TO.C,C7*%
X170900000Y-111275000D03*
X170900000Y-108325000D03*
%TD*%
D11*
%TO.C,C8*%
X160564869Y-98507718D03*
X163514871Y-98507718D03*
%TD*%
D12*
%TO.C,C10*%
X172900000Y-115250000D03*
X172900000Y-113350000D03*
%TD*%
D10*
%TO.C,C25*%
X137600000Y-134875000D03*
X137600000Y-131925000D03*
%TD*%
D12*
%TO.C,C37*%
X185250000Y-116200000D03*
X185250000Y-114300000D03*
%TD*%
%TO.C,C39*%
X125150000Y-132200000D03*
X125150000Y-130300000D03*
%TD*%
D13*
%TO.C,C44*%
X179750000Y-114300000D03*
X179750000Y-116200000D03*
%TD*%
%TO.C,C46*%
X130500000Y-130250000D03*
X130500000Y-132150000D03*
%TD*%
D11*
%TO.C,C22*%
X211525000Y-144000000D03*
X214475000Y-144000000D03*
%TD*%
D14*
%TO.C,C24*%
X211450000Y-146200000D03*
X213350000Y-146200000D03*
%TD*%
D12*
%TO.C,C26*%
X214250000Y-110150000D03*
X214250000Y-108250000D03*
%TD*%
%TO.C,C28*%
X214250000Y-106750000D03*
X214250000Y-104850000D03*
%TD*%
%TO.C,C29*%
X214250000Y-103350000D03*
X214250000Y-101450000D03*
%TD*%
%TO.C,C33*%
X221000000Y-110150000D03*
X221000000Y-108250000D03*
%TD*%
%TO.C,C34*%
X221000000Y-106750000D03*
X221000000Y-104850000D03*
%TD*%
%TO.C,C35*%
X221000000Y-103350000D03*
X221000000Y-101450000D03*
%TD*%
D15*
%TO.C,C2*%
X119350000Y-97700000D03*
X117450000Y-97700000D03*
%TD*%
D13*
%TO.C,C5*%
X110100000Y-106500000D03*
X110100000Y-108400000D03*
%TD*%
D16*
%TO.C,D1*%
X195500000Y-90250000D03*
X195500000Y-92750000D03*
%TD*%
D17*
%TO.C,FB1*%
X218662500Y-101400000D03*
X216537500Y-101400000D03*
%TD*%
%TO.C,FB2*%
X218662500Y-105400000D03*
X216537500Y-105400000D03*
%TD*%
%TO.C,FB3*%
X218762500Y-108300000D03*
X216637500Y-108300000D03*
%TD*%
D18*
%TO.C,R27*%
X181587500Y-114500000D03*
X183412500Y-114500000D03*
%TD*%
D19*
%TO.C,R28*%
X128750000Y-130400000D03*
X126925000Y-130400000D03*
%TD*%
D20*
%TO.C,R15*%
X197500000Y-90837500D03*
X197500000Y-92662500D03*
%TD*%
%TO.C,R14*%
X193500000Y-90087500D03*
X193500000Y-91912500D03*
%TD*%
D21*
%TO.C,R29*%
X85550000Y-106325000D03*
D22*
X85550000Y-104500000D03*
%TD*%
D23*
%TO.C,U6*%
X192285000Y-134950000D03*
X193555000Y-134950000D03*
X194825000Y-134950000D03*
X196095000Y-134950000D03*
X197365000Y-134950000D03*
X198635000Y-134950000D03*
X199905000Y-134950000D03*
X201175000Y-134950000D03*
X202445000Y-134950000D03*
X203715000Y-134950000D03*
X203715000Y-125650000D03*
X202445000Y-125650000D03*
X201175000Y-125650000D03*
X199905000Y-125650000D03*
X198635000Y-125650000D03*
X197365000Y-125650000D03*
X196095000Y-125650000D03*
X194825000Y-125650000D03*
X193555000Y-125650000D03*
X192285000Y-125650000D03*
%TD*%
D24*
%TO.C,U2*%
X115000000Y-101972000D03*
X115000000Y-103240000D03*
X115000000Y-104510000D03*
X115000000Y-105780000D03*
X115000000Y-107050000D03*
X115000000Y-108320000D03*
X115000000Y-109590000D03*
X115000000Y-110860000D03*
X115000000Y-112130000D03*
X115000000Y-113400000D03*
X115000000Y-114670000D03*
X115000000Y-115940000D03*
X115000000Y-117210000D03*
X115000000Y-118480000D03*
X115000000Y-119750000D03*
X115000000Y-121020000D03*
X115000000Y-122290000D03*
X115000000Y-123560000D03*
X115000000Y-124830000D03*
X115000000Y-126100000D03*
X124970000Y-126100000D03*
X124970000Y-124830000D03*
X124970000Y-123560000D03*
X124970000Y-122290000D03*
X124970000Y-121020000D03*
X124970000Y-119750000D03*
X124970000Y-118480000D03*
X124970000Y-117210000D03*
X124970000Y-115940000D03*
X124970000Y-114670000D03*
X124970000Y-113400000D03*
X124970000Y-112130000D03*
X124970000Y-110860000D03*
X124970000Y-109590000D03*
X124970000Y-108320000D03*
X124970000Y-107050000D03*
X124970000Y-105780000D03*
X124970000Y-104510000D03*
X124970000Y-103240000D03*
X124970000Y-101970000D03*
%TD*%
%TO.C,U3*%
X90100000Y-101972000D03*
X90100000Y-103240000D03*
X90100000Y-104510000D03*
X90100000Y-105780000D03*
X90100000Y-107050000D03*
X90100000Y-108320000D03*
X90100000Y-109590000D03*
X90100000Y-110860000D03*
X90100000Y-112130000D03*
X90100000Y-113400000D03*
X90100000Y-114670000D03*
X90100000Y-115940000D03*
X90100000Y-117210000D03*
X90100000Y-118480000D03*
X90100000Y-119750000D03*
X90100000Y-121020000D03*
X90100000Y-122290000D03*
X90100000Y-123560000D03*
X90100000Y-124830000D03*
X90100000Y-126100000D03*
X100070000Y-126100000D03*
X100070000Y-124830000D03*
X100070000Y-123560000D03*
X100070000Y-122290000D03*
X100070000Y-121020000D03*
X100070000Y-119750000D03*
X100070000Y-118480000D03*
X100070000Y-117210000D03*
X100070000Y-115940000D03*
X100070000Y-114670000D03*
X100070000Y-113400000D03*
X100070000Y-112130000D03*
X100070000Y-110860000D03*
X100070000Y-109590000D03*
X100070000Y-108320000D03*
X100070000Y-107050000D03*
X100070000Y-105780000D03*
X100070000Y-104510000D03*
X100070000Y-103240000D03*
X100070000Y-101970000D03*
%TD*%
D15*
%TO.C,C42*%
X192250000Y-123325000D03*
X190350000Y-123325000D03*
%TD*%
D25*
%TO.C,C30*%
X134000000Y-125700000D03*
X134000000Y-128650000D03*
%TD*%
D22*
%TO.C,R16*%
X176750000Y-110075000D03*
X176750000Y-108250000D03*
%TD*%
%TO.C,R17*%
X176750000Y-106700000D03*
X176750000Y-104875000D03*
%TD*%
%TO.C,R18*%
X176750000Y-103325000D03*
X176750000Y-101500000D03*
%TD*%
D26*
%TO.C,R11*%
X175075000Y-111800000D03*
X176725000Y-111800000D03*
%TD*%
D15*
%TO.C,C15*%
X183200000Y-139000000D03*
X181300000Y-139000000D03*
%TD*%
D19*
%TO.C,R13*%
X183162500Y-141000000D03*
X181337500Y-141000000D03*
%TD*%
D15*
%TO.C,C17*%
X175000000Y-145250000D03*
X173100000Y-145250000D03*
%TD*%
%TO.C,C18*%
X175000000Y-142500000D03*
X173100000Y-142500000D03*
%TD*%
D19*
%TO.C,R3*%
X132912500Y-118643011D03*
X131087500Y-118643011D03*
%TD*%
%TO.C,R4*%
X132912500Y-116725000D03*
X131087500Y-116725000D03*
%TD*%
D20*
%TO.C,R5*%
X105800000Y-109987500D03*
X105800000Y-111812500D03*
%TD*%
D22*
%TO.C,R6*%
X137700000Y-98000000D03*
X137700000Y-96175000D03*
%TD*%
D19*
%TO.C,R7*%
X134825000Y-108125000D03*
X133000000Y-108125000D03*
%TD*%
%TO.C,R8*%
X132900000Y-114825000D03*
X131075000Y-114825000D03*
%TD*%
D18*
%TO.C,R9*%
X209087500Y-85250000D03*
X210912500Y-85250000D03*
%TD*%
%TO.C,R10*%
X209087500Y-88500000D03*
X210912500Y-88500000D03*
%TD*%
D26*
%TO.C,R24*%
X210425000Y-114600000D03*
X212075000Y-114600000D03*
%TD*%
D27*
%TO.C,FB5*%
X114937500Y-132500000D03*
X117062500Y-132500000D03*
%TD*%
D15*
%TO.C,C13*%
X129650000Y-136200000D03*
X127750000Y-136200000D03*
%TD*%
%TO.C,C56*%
X91031425Y-97500000D03*
X89131425Y-97500000D03*
%TD*%
D28*
%TO.C,U4*%
X200025000Y-90790000D03*
X200025000Y-92060000D03*
X200025000Y-93330000D03*
X200025000Y-94600000D03*
X204975000Y-94600000D03*
X204975000Y-93330000D03*
X204975000Y-92060000D03*
X204975000Y-90790000D03*
%TD*%
D15*
%TO.C,C41*%
X222150000Y-114200000D03*
X220250000Y-114200000D03*
%TD*%
D29*
%TO.C,Y1*%
X131900000Y-139450000D03*
X126700000Y-139450000D03*
%TD*%
D14*
%TO.C,C12*%
X131250000Y-136200000D03*
X133150000Y-136200000D03*
%TD*%
D30*
%TO.C,RN1*%
X218400000Y-94450000D03*
D31*
X218400000Y-93650000D03*
X218400000Y-92850000D03*
D30*
X218400000Y-92050000D03*
X216600000Y-92050000D03*
D31*
X216600000Y-92850000D03*
X216600000Y-93650000D03*
D30*
X216600000Y-94450000D03*
%TD*%
D14*
%TO.C,C32*%
X172250000Y-118250000D03*
X174150000Y-118250000D03*
%TD*%
D15*
%TO.C,C3*%
X116900000Y-130000000D03*
X115000000Y-130000000D03*
%TD*%
D30*
%TO.C,RN2*%
X223500000Y-94450000D03*
D31*
X223500000Y-93650000D03*
X223500000Y-92850000D03*
D30*
X223500000Y-92050000D03*
X221700000Y-92050000D03*
D31*
X221700000Y-92850000D03*
X221700000Y-93650000D03*
D30*
X221700000Y-94450000D03*
%TD*%
D15*
%TO.C,C54*%
X91700000Y-129900000D03*
X89800000Y-129900000D03*
%TD*%
D17*
%TO.C,FB4*%
X176750000Y-113400000D03*
X174625000Y-113400000D03*
%TD*%
D14*
%TO.C,C4*%
X137250000Y-101300000D03*
X139150000Y-101300000D03*
%TD*%
D32*
%TO.C,R25*%
X217625000Y-114600000D03*
X215975000Y-114600000D03*
%TD*%
D13*
%TO.C,C48*%
X169550000Y-100650000D03*
X169550000Y-102550000D03*
%TD*%
D33*
%TO.C,U1*%
X140450000Y-131750000D03*
X141100000Y-131750000D03*
X141750000Y-131750000D03*
X142400000Y-131750000D03*
X143050000Y-131750000D03*
X143700000Y-131750000D03*
X144350000Y-131750000D03*
X145000000Y-131750000D03*
X145650000Y-131750000D03*
X146300000Y-131750000D03*
X146950000Y-131750000D03*
X147600000Y-131750000D03*
X148250000Y-131750000D03*
X148900000Y-131750000D03*
X149550000Y-131750000D03*
X150200000Y-131750000D03*
X150850000Y-131750000D03*
X151500000Y-131750000D03*
X152150000Y-131750000D03*
X152800000Y-131750000D03*
X153450000Y-131750000D03*
X154100000Y-131750000D03*
X154750000Y-131750000D03*
X155400000Y-131750000D03*
X156050000Y-131750000D03*
X156700000Y-131750000D03*
X157350000Y-131750000D03*
X158000000Y-131750000D03*
X158650000Y-131750000D03*
X159300000Y-131750000D03*
X159950000Y-131750000D03*
X160600000Y-131750000D03*
X161250000Y-131750000D03*
X161900000Y-131750000D03*
X162550000Y-131750000D03*
X163200000Y-131750000D03*
X163850000Y-131750000D03*
X164500000Y-131750000D03*
X165150000Y-131750000D03*
X165800000Y-131750000D03*
D34*
X168250000Y-129300000D03*
X168250000Y-128650000D03*
X168250000Y-128000000D03*
X168250000Y-127350000D03*
X168250000Y-126700000D03*
X168250000Y-126050000D03*
X168250000Y-125400000D03*
X168250000Y-124750000D03*
X168250000Y-124100000D03*
X168250000Y-123450000D03*
X168250000Y-122800000D03*
X168250000Y-122150000D03*
X168250000Y-121500000D03*
X168250000Y-120850000D03*
X168250000Y-120200000D03*
X168250000Y-119550000D03*
X168250000Y-118900000D03*
X168250000Y-118250000D03*
X168250000Y-117600000D03*
X168250000Y-116950000D03*
X168250000Y-116300000D03*
X168250000Y-115650000D03*
X168250000Y-115000000D03*
X168250000Y-114350000D03*
X168250000Y-113700000D03*
X168250000Y-113050000D03*
X168250000Y-112400000D03*
X168250000Y-111750000D03*
X168250000Y-111100000D03*
X168250000Y-110450000D03*
X168250000Y-109800000D03*
X168250000Y-109150000D03*
X168250000Y-108500000D03*
X168250000Y-107850000D03*
X168250000Y-107200000D03*
X168250000Y-106550000D03*
X168250000Y-105900000D03*
X168250000Y-105250000D03*
X168250000Y-104600000D03*
X168250000Y-103950000D03*
D33*
X165800000Y-101500000D03*
X165150000Y-101500000D03*
X164500000Y-101500000D03*
X163850000Y-101500000D03*
X163200000Y-101500000D03*
X162550000Y-101500000D03*
X161900000Y-101500000D03*
X161250000Y-101500000D03*
X160600000Y-101500000D03*
X159950000Y-101500000D03*
X159300000Y-101500000D03*
X158650000Y-101500000D03*
X158000000Y-101500000D03*
X157350000Y-101500000D03*
X156700000Y-101500000D03*
X156050000Y-101500000D03*
X155400000Y-101500000D03*
X154750000Y-101500000D03*
X154100000Y-101500000D03*
X153450000Y-101500000D03*
X152800000Y-101500000D03*
X152150000Y-101500000D03*
X151500000Y-101500000D03*
X150850000Y-101500000D03*
X150200000Y-101500000D03*
X149550000Y-101500000D03*
X148900000Y-101500000D03*
X148250000Y-101500000D03*
X147600000Y-101500000D03*
X146950000Y-101500000D03*
X146300000Y-101500000D03*
X145650000Y-101500000D03*
X145000000Y-101500000D03*
X144350000Y-101500000D03*
X143700000Y-101500000D03*
X143050000Y-101500000D03*
X142400000Y-101500000D03*
X141750000Y-101500000D03*
X141100000Y-101500000D03*
X140450000Y-101500000D03*
D34*
X138000000Y-103950000D03*
X138000000Y-104600000D03*
X138000000Y-105250000D03*
X138000000Y-105900000D03*
X138000000Y-106550000D03*
X138000000Y-107200000D03*
X138000000Y-107850000D03*
X138000000Y-108500000D03*
X138000000Y-109150000D03*
X138000000Y-109800000D03*
X138000000Y-110450000D03*
X138000000Y-111100000D03*
X138000000Y-111750000D03*
X138000000Y-112400000D03*
X138000000Y-113050000D03*
X138000000Y-113700000D03*
X138000000Y-114350000D03*
X138000000Y-115000000D03*
X138000000Y-115650000D03*
X138000000Y-116300000D03*
X138000000Y-116950000D03*
X138000000Y-117600000D03*
X138000000Y-118250000D03*
X138000000Y-118900000D03*
X138000000Y-119550000D03*
X138000000Y-120200000D03*
X138000000Y-120850000D03*
X138000000Y-121500000D03*
X138000000Y-122150000D03*
X138000000Y-122800000D03*
X138000000Y-123450000D03*
X138000000Y-124100000D03*
X138000000Y-124750000D03*
X138000000Y-125400000D03*
X138000000Y-126050000D03*
X138000000Y-126700000D03*
X138000000Y-127350000D03*
X138000000Y-128000000D03*
X138000000Y-128650000D03*
X138000000Y-129300000D03*
%TD*%
D35*
%TO.C,U5*%
X213765000Y-119607500D03*
X212495000Y-119607500D03*
X211225000Y-119607500D03*
X209955000Y-119607500D03*
D36*
X209077500Y-121755000D03*
X209077500Y-123025000D03*
X209077500Y-124295000D03*
X209077500Y-125565000D03*
X209077500Y-126835000D03*
X209077500Y-128105000D03*
X209077500Y-129375000D03*
X209077500Y-130645000D03*
D35*
X209955000Y-132792500D03*
X211225000Y-132792500D03*
X212495000Y-132792500D03*
X213765000Y-132792500D03*
X215035000Y-132792500D03*
X216305000Y-132792500D03*
X217575000Y-132792500D03*
X218845000Y-132792500D03*
D36*
X219722500Y-130645000D03*
X219722500Y-129375000D03*
X219722500Y-128105000D03*
X219722500Y-126835000D03*
X219722500Y-125565000D03*
X219722500Y-124295000D03*
X219722500Y-123025000D03*
X219722500Y-121755000D03*
D35*
X218845000Y-119607500D03*
X217575000Y-119607500D03*
X216305000Y-119607500D03*
X215035000Y-119607500D03*
%TD*%
D12*
%TO.C,C52*%
X85500000Y-110400000D03*
X85500000Y-108500000D03*
%TD*%
D37*
%TO.C,C49*%
X155421751Y-136018249D03*
X154078249Y-137361751D03*
%TD*%
D13*
%TO.C,C47*%
X135669695Y-116450000D03*
X135669695Y-118350000D03*
%TD*%
D14*
%TO.C,C11*%
X213050000Y-88500000D03*
X214950000Y-88500000D03*
%TD*%
%TO.C,C14*%
X213050000Y-85250000D03*
X214950000Y-85250000D03*
%TD*%
D12*
%TO.C,C50*%
X149100000Y-99200000D03*
X149100000Y-97300000D03*
%TD*%
D38*
%TO.C,C31*%
X231500000Y-137150000D03*
X231500000Y-140500000D03*
%TD*%
D12*
%TO.C,C9*%
X225000000Y-141175000D03*
X225000000Y-139275000D03*
%TD*%
D39*
%TO.C,R22*%
X235000000Y-136500000D03*
X235000000Y-138325000D03*
%TD*%
D40*
%TO.C,U9*%
X226945000Y-133875000D03*
D41*
X230750000Y-129250000D03*
X227700000Y-129250000D03*
X230750000Y-125900000D03*
X227700000Y-125900000D03*
D40*
X231505000Y-133875000D03*
%TD*%
M02*
