M48
; DRILL file {KiCad 8.0.5-dirty} date 2024-12-25T16:58:26-0800
; FORMAT={-:-/ absolute / inch / decimal}
; #@! TF.CreationDate,2024-12-25T16:58:26-08:00
; #@! TF.GenerationSoftware,Kicad,Pcbnew,8.0.5-dirty
; #@! TF.FileFunction,Plated,1,4,PTH
FMAT,2
INCH
; #@! TA.AperFunction,Plated,PTH,ViaDrill
T1C0.0157
; #@! TA.AperFunction,Plated,PTH,ComponentDrill
T2C0.0256
; #@! TA.AperFunction,Plated,PTH,ComponentDrill
T3C0.0394
; #@! TA.AperFunction,Plated,PTH,ComponentDrill
T4C0.0445
; #@! TA.AperFunction,Plated,PTH,ComponentDrill
T5C0.1272
%
G90
G05
T1
X3.2776Y-3.6846
X3.2776Y-5.1571
X3.2776Y-5.3047
X3.2776Y-5.4665
X3.2776Y-5.6252
X3.2795Y-3.4055
X3.2795Y-3.5035
X3.2795Y-3.852
X3.2795Y-4.0193
X3.2795Y-4.1764
X3.2795Y-4.4878
X3.2795Y-4.6374
X3.2795Y-4.7992
X3.2795Y-4.9524
X3.3421Y-5.7858
X3.3563Y-3.3268
X3.3858Y-4.7047
X3.4144Y-4.8788
X3.4144Y-4.9675
X3.4164Y-4.8277
X3.4242Y-4.0639
X3.4252Y-4.1142
X3.4253Y-4.612
X3.4272Y-3.25
X3.4273Y-4.1613
X3.4291Y-4.2087
X3.4449Y-4.7646
X3.4941Y-4.2608
X3.5091Y-3.7894
X3.5433Y-5.4331
X3.5807Y-3.248
X3.7205Y-4.068
X3.7205Y-4.1142
X3.7205Y-4.168
X3.7205Y-4.218
X3.7244Y-4.0236
X3.7378Y-3.248
X3.752Y-4.3287
X3.7558Y-4.3907
X3.7623Y-4.4518
X3.7639Y-4.5257
X3.7836Y-4.3602
X3.7861Y-4.2992
X3.7874Y-4.4882
X3.7902Y-4.4213
X3.8091Y-4.5669
X3.8091Y-4.6161
X3.8091Y-4.7165
X3.8091Y-4.7638
X3.8091Y-4.815
X3.8091Y-4.8622
X3.8091Y-4.9134
X3.8091Y-4.9705
X3.8189Y-4.2618
X3.8571Y-5.0246
X3.9189Y-3.25
X4.0256Y-5.122
X4.0335Y-3.7894
X4.0862Y-3.248
X4.1949Y-4.2579
X4.2429Y-5.8181
X4.2441Y-4.6142
X4.248Y-4.7594
X4.248Y-4.8814
X4.248Y-4.9431
X4.2485Y-4.8204
X4.2535Y-3.248
X4.2598Y-4.1929
X4.2815Y-4.9783
X4.2822Y-4.9126
X4.2835Y-4.7165
X4.2835Y-4.8509
X4.2839Y-4.7833
X4.3346Y-4.3327
X4.339Y-5.8209
X4.3996Y-4.1437
X4.4106Y-3.248
X4.431Y-5.0807
X4.4402Y-5.8209
X4.5276Y-3.9252
X4.5276Y-5.1673
X4.5394Y-5.8209
X4.5724Y-3.248
X4.5906Y-4.6268
X4.5965Y-5.0197
X4.6063Y-4.3535
X4.6063Y-4.4173
X4.6063Y-4.4783
X4.6135Y-4.2852
X4.6161Y-4.0846
X4.6161Y-4.1516
X4.6161Y-4.2136
X4.6167Y-4.8016
X4.617Y-4.7053
X4.6171Y-4.0217
X4.6171Y-4.8627
X4.6251Y-4.9256
X4.639Y-4.7403
X4.639Y-5.8209
X4.685Y-5.0492
X4.722Y-3.248
X4.7343Y-3.9252
X4.7409Y-5.8209
X4.748Y-4.5646
X4.7658Y-4.6713
X4.7736Y-4.2392
X4.7737Y-4.0463
X4.7737Y-4.1683
X4.7753Y-4.1073
X4.7835Y-4.5197
X4.7874Y-4.4478
X4.7923Y-4.3233
X4.7925Y-4.9561
X4.7959Y-4.8951
X4.7961Y-4.3868
X4.7975Y-4.589
X4.8031Y-4.76
X4.8031Y-4.8322
X4.8394Y-5.8209
X4.8717Y-3.248
X4.8819Y-3.9272
X4.9386Y-5.8209
X4.9892Y-4.5547
X4.9921Y-5.8228
X5.0036Y-4.9391
X5.0096Y-4.2659
X5.0217Y-3.9252
X5.0335Y-3.248
X5.0435Y-4.9606
X5.0522Y-5.816
X5.0711Y-4.4142
X5.0848Y-4.9606
X5.1024Y-4.3871
X5.1122Y-4.6042
X5.1261Y-4.9606
X5.1406Y-4.3674
X5.1467Y-4.5038
X5.1728Y-4.3414
X5.1949Y-3.248
X5.2047Y-4.6693
X5.2047Y-4.939
X5.2126Y-4.5935
X5.2323Y-4.0079
X5.2835Y-4.626
X5.2837Y-4.4029
X5.3066Y-4.4373
X5.3479Y-4.44
X5.3602Y-3.248
X5.3602Y-4.5807
X5.3784Y-4.4795
X5.4043Y-4.0642
X5.4961Y-5.2126
X5.5074Y-4.9504
X5.5197Y-4.0846
X5.5335Y-3.248
X5.5434Y-3.7977
X5.561Y-4.9508
X5.5783Y-3.8198
X5.6161Y-3.8395
X5.6287Y-5.7425
X5.6571Y-3.8501
X5.6967Y-3.8619
X5.7067Y-3.248
X5.7363Y-3.8737
X5.7382Y-5.6378
X5.776Y-3.8855
X5.7771Y-5.4864
X5.7854Y-5.4459
X5.7972Y-5.4063
X5.8031Y-5.8031
X5.8089Y-5.3667
X5.811Y-4.0787
X5.8159Y-3.896
X5.8207Y-5.3271
X5.8248Y-3.8307
X5.8268Y-5.0236
X5.8325Y-5.2875
X5.8443Y-5.2478
X5.8799Y-3.248
X5.8937Y-5.8031
X5.9343Y-5.1258
X5.9862Y-5.8031
X6.0118Y-5.0953
X6.0394Y-5.4291
X6.0551Y-3.248
X6.0896Y-5.8031
X6.0984Y-5.376
X6.1417Y-4.4843
X6.1433Y-5.035
X6.188Y-5.8031
X6.2169Y-3.248
X6.2362Y-4.126
X6.2655Y-4.9805
X6.2659Y-5.1072
X6.2663Y-5.0654
X6.2667Y-5.0218
X6.2756Y-3.6586
X6.2756Y-3.6999
X6.2756Y-3.7413
X6.2894Y-5.8022
X6.3445Y-4.0768
X6.3665Y-3.248
X6.372Y-5.065
X6.372Y-4.9803
X6.372Y-5.0217
X6.3726Y-5.1063
X6.3868Y-5.8022
X6.468Y-4.0538
X6.4902Y-5.8022
X6.5089Y-4.9203
X6.5089Y-4.9616
X6.5089Y-5.003
X6.5089Y-5.0443
X6.5089Y-5.0856
X6.5161Y-3.248
X6.5296Y-3.8265
X6.5512Y-3.9469
X6.5512Y-4.7598
X6.5654Y-4.5016
X6.5689Y-4.6555
X6.5728Y-4.1181
X6.5787Y-5.8031
X6.5928Y-3.9055
X6.6319Y-4.0197
X6.6457Y-5.6181
X6.6535Y-5.361
X6.678Y-3.248
X6.6831Y-4.5889
X6.6919Y-5.8031
X6.7Y-5.1969
X6.7008Y-4.3701
X6.7012Y-4.6424
X6.7126Y-5.5118
X6.7266Y-5.1518
X6.7316Y-4.3976
X6.7441Y-4.2913
X6.7598Y-3.6142
X6.7678Y-5.1493
X6.7697Y-5.6181
X6.7717Y-5.7205
X6.8394Y-3.248
X6.8868Y-5.814
X6.9577Y-4.4232
X6.9606Y-4.6024
X6.9833Y-5.814
X6.998Y-4.5827
X7.0047Y-3.248
X7.0866Y-5.5984
X7.0886Y-5.814
X7.178Y-3.248
X7.1781Y-5.4911
X7.2092Y-5.7372
X7.2165Y-3.874
X7.2165Y-4.0079
X7.2165Y-4.126
X7.2505Y-5.7372
X7.2776Y-5.4311
X7.3307Y-5.189
X7.3512Y-3.248
X7.3661Y-5.4311
X7.378Y-3.874
X7.378Y-4.0079
X7.378Y-4.126
X7.437Y-5.6654
X7.4405Y-4.5822
X7.4567Y-5.189
X7.4713Y-5.8121
X7.4861Y-4.5797
X7.4961Y-5.6654
X7.5244Y-3.248
X7.5255Y-4.5985
X7.5472Y-3.874
X7.5472Y-4.0079
X7.5472Y-4.126
X7.5472Y-5.6654
X7.5492Y-5.189
X7.5618Y-5.247
X7.5637Y-4.6145
X7.5703Y-4.9813
X7.6118Y-5.3701
X7.6142Y-5.8071
X7.6203Y-5.0079
X7.628Y-5.4882
X7.6827Y-5.0846
X7.6961Y-3.248
X7.7087Y-3.874
X7.7087Y-4.0079
X7.7087Y-4.126
X7.7116Y-5.3701
X7.7224Y-5.4882
X7.7613Y-5.034
X7.7844Y-5.8071
X7.8118Y-5.3701
X7.8482Y-5.0337
X7.8579Y-3.248
X7.874Y-3.874
X7.874Y-4.0079
X7.874Y-4.126
X7.874Y-4.2913
X7.9075Y-5.8067
X7.9118Y-5.3701
X7.9459Y-5.0294
X8.0075Y-3.248
X8.0108Y-5.8071
X8.0236Y-5.4882
X8.0256Y-5.0138
X8.0472Y-3.874
X8.0472Y-4.0079
X8.0472Y-4.126
X8.0472Y-4.2913
X8.1378Y-5.7323
X8.139Y-5.7743
X8.1556Y-5.0207
X8.1571Y-3.248
X8.1969Y-5.0207
X8.1985Y-4.9341
X8.1987Y-4.9775
X8.1988Y-4.8481
X8.199Y-4.8915
X8.2009Y-4.8068
X8.2138Y-5.7924
X8.2205Y-3.874
X8.2205Y-4.0079
X8.2205Y-4.126
X8.2205Y-4.2913
X8.2283Y-5.1673
X8.2406Y-5.7204
X8.2625Y-5.6555
X8.2824Y-5.5906
X8.3112Y-5.1632
X8.3142Y-4.8263
X8.315Y-4.5118
X8.315Y-5.6378
X8.3189Y-3.248
X8.3258Y-5.7608
X8.3465Y-3.3563
X8.3465Y-3.4843
X8.3528Y-5.1632
X8.3555Y-4.8248
X8.4055Y-5.5512
X8.4252Y-5.3622
X8.4487Y-3.6898
X8.4488Y-3.6288
X8.4488Y-5.1299
X8.4744Y-5.7598
X8.4764Y-3.7205
X8.4766Y-3.6594
X8.4803Y-3.248
X8.4961Y-4.6496
X8.5098Y-5.0896
X8.5256Y-5.0514
X8.5276Y-5.3189
X8.5669Y-4.3307
X8.5768Y-5.3189
X8.5827Y-4.5276
X8.5925Y-4.0157
X8.5925Y-4.1535
X8.6102Y-4.9764
X8.622Y-4.9007
X8.626Y-5.3189
X8.626Y-4.8595
X8.6457Y-3.248
X8.6457Y-3.7205
X8.6506Y-5.1772
X8.6811Y-3.689
X8.7106Y-5.6496
X8.7372Y-5.0758
X8.7677Y-4.5276
X8.8071Y-5.0758
X8.8209Y-3.248
X8.8307Y-3.622
X8.8799Y-5.6496
X8.9311Y-4.5512
X8.9567Y-3.9567
X8.9567Y-5.5315
X8.9862Y-3.248
X9.0256Y-4.5512
X9.0571Y-5.6496
X9.1339Y-3.248
X9.185Y-4.5512
X9.2165Y-3.3268
X9.252Y-4.5
X9.252Y-4.6772
X9.252Y-4.8583
X9.252Y-5.0256
X9.252Y-5.2028
X9.252Y-5.3701
X9.252Y-5.5472
X9.2953Y-3.4055
T2
X8.374Y-4.4213
X8.374Y-4.4713
X8.4961Y-4.4213
X8.4961Y-4.4713
T3
X6.3092Y-3.4646
X6.3092Y-3.5646
X6.4092Y-3.4646
X6.4092Y-3.5646
X6.5092Y-3.4646
X6.5092Y-3.5646
X6.6092Y-3.4646
X6.6092Y-3.5646
X6.7092Y-3.4646
X6.7092Y-3.5646
X6.8092Y-3.4646
X6.8092Y-3.5646
X6.9092Y-3.4646
X6.9092Y-3.5646
X7.0092Y-3.4646
X7.0092Y-3.5646
X7.1092Y-3.4646
X7.1092Y-3.5646
X7.2092Y-3.4646
X7.2092Y-3.5646
X7.3092Y-3.4646
X7.3092Y-3.5646
X7.4092Y-3.4646
X7.4092Y-3.5646
X7.5092Y-3.4646
X7.5092Y-3.5646
X7.6205Y-5.6654
X7.7205Y-5.6654
T4
X8.9567Y-4.0372
X8.9567Y-4.1274
X8.9567Y-4.2175
X8.9567Y-4.3077
X8.9567Y-4.3978
X9.0551Y-3.9921
X9.0551Y-4.0823
X9.0551Y-4.1724
X9.0551Y-4.2626
X9.0551Y-4.3528
X9.1535Y-4.0372
X9.1535Y-4.1274
X9.1535Y-4.2175
X9.1535Y-4.3077
X9.1535Y-4.3978
T5
X9.0551Y-3.7167
X9.0551Y-4.7006
M30
