%TF.GenerationSoftware,KiCad,Pcbnew,8.0.5-dirty*%
%TF.CreationDate,2024-11-25T07:18:36-08:00*%
%TF.ProjectId,nightshade,6e696768-7473-4686-9164-652e6b696361,rev?*%
%TF.SameCoordinates,Original*%
%TF.FileFunction,Drillmap*%
%TF.FilePolarity,Positive*%
%FSLAX45Y45*%
G04 Gerber Fmt 4.5, Leading zero omitted, Abs format (unit mm)*
G04 Created by KiCad (PCBNEW 8.0.5-dirty) date 2024-11-25 07:18:36*
%MOMM*%
%LPD*%
G01*
G04 APERTURE LIST*
%ADD10C,0.050000*%
%ADD11C,0.200000*%
%ADD12C,0.100000*%
%ADD13C,0.113000*%
%ADD14C,0.323000*%
G04 APERTURE END LIST*
D10*
X12957500Y-15735000D02*
X13052500Y-15640000D01*
X13655000Y-15735000D02*
X13560000Y-15640000D01*
X21687500Y-15640000D02*
X21592500Y-15735000D01*
X8325000Y-15735000D02*
X8230000Y-15640000D01*
X23565000Y-8550000D02*
X8680000Y-8550000D01*
X12957500Y-15735000D02*
X8325000Y-15735000D01*
X13560000Y-14850000D02*
X13560000Y-15640000D01*
X13052500Y-15640000D02*
X13052500Y-14850000D01*
X8230000Y-15640000D02*
X8232500Y-8997500D01*
X13655000Y-15735000D02*
X21592500Y-15735000D01*
X21687500Y-15640000D02*
X21687500Y-14820000D01*
X13052500Y-14850000D02*
X13560000Y-14850000D01*
X8680000Y-8550000D02*
X8232500Y-8997500D01*
X23640000Y-14820000D02*
X23695000Y-14765000D01*
X23565000Y-8550000D02*
X23695000Y-8680000D01*
X23695000Y-8680000D02*
X23695000Y-14765000D01*
X21687500Y-14820000D02*
X23640000Y-14820000D01*
D11*
D12*
X8325000Y-11170000D02*
X8365000Y-11210000D01*
X8365000Y-11170000D02*
X8325000Y-11210000D01*
X8325000Y-11545000D02*
X8365000Y-11585000D01*
X8365000Y-11545000D02*
X8325000Y-11585000D01*
X8325000Y-11920000D02*
X8365000Y-11960000D01*
X8365000Y-11920000D02*
X8325000Y-11960000D01*
X8325000Y-12295000D02*
X8365000Y-12335000D01*
X8365000Y-12295000D02*
X8325000Y-12335000D01*
X8325000Y-12670000D02*
X8365000Y-12710000D01*
X8365000Y-12670000D02*
X8325000Y-12710000D01*
X8325000Y-13045000D02*
X8365000Y-13085000D01*
X8365000Y-13045000D02*
X8325000Y-13085000D01*
X8325000Y-13420000D02*
X8365000Y-13460000D01*
X8365000Y-13420000D02*
X8325000Y-13460000D01*
X8325000Y-13820000D02*
X8365000Y-13860000D01*
X8365000Y-13820000D02*
X8325000Y-13860000D01*
X8325000Y-14170000D02*
X8365000Y-14210000D01*
X8365000Y-14170000D02*
X8325000Y-14210000D01*
X8325000Y-14520000D02*
X8365000Y-14560000D01*
X8365000Y-14520000D02*
X8325000Y-14560000D01*
X8328000Y-10011000D02*
X8368000Y-10051000D01*
X8368000Y-10011000D02*
X8328000Y-10051000D01*
X8330000Y-10380000D02*
X8370000Y-10420000D01*
X8370000Y-10380000D02*
X8330000Y-10420000D01*
X8330000Y-10790000D02*
X8370000Y-10830000D01*
X8370000Y-10790000D02*
X8330000Y-10830000D01*
X8333000Y-9221000D02*
X8373000Y-9261000D01*
X8373000Y-9221000D02*
X8333000Y-9261000D01*
X8333000Y-9631000D02*
X8373000Y-9671000D01*
X8373000Y-9631000D02*
X8333000Y-9671000D01*
X8417285Y-9568466D02*
X8457285Y-9608466D01*
X8457285Y-9568466D02*
X8417285Y-9608466D01*
X8469000Y-14676000D02*
X8509000Y-14716000D01*
X8509000Y-14676000D02*
X8469000Y-14716000D01*
X8515341Y-9531055D02*
X8555341Y-9571055D01*
X8555341Y-9531055D02*
X8515341Y-9571055D01*
X8592791Y-9453169D02*
X8632791Y-9493169D01*
X8632791Y-9453169D02*
X8592791Y-9493169D01*
X8622500Y-12742500D02*
X8662500Y-12782500D01*
X8662500Y-12742500D02*
X8622500Y-12782500D01*
X8670241Y-9533899D02*
X8710241Y-9573899D01*
X8710241Y-9533899D02*
X8670241Y-9573899D01*
X8747691Y-9449576D02*
X8787691Y-9489576D01*
X8787691Y-9449576D02*
X8747691Y-9489576D01*
X8760000Y-8602500D02*
X8800000Y-8642500D01*
X8800000Y-8602500D02*
X8760000Y-8642500D01*
X8810000Y-10020000D02*
X8850000Y-10060000D01*
X8850000Y-10020000D02*
X8810000Y-10060000D01*
X8810000Y-10360000D02*
X8850000Y-10400000D01*
X8850000Y-10360000D02*
X8810000Y-10400000D01*
X8825141Y-9534621D02*
X8865141Y-9574621D01*
X8865141Y-9534621D02*
X8825141Y-9574621D01*
X8837500Y-13117500D02*
X8877500Y-13157500D01*
X8877500Y-13117500D02*
X8837500Y-13157500D01*
X9110000Y-12140000D02*
X9150000Y-12180000D01*
X9150000Y-12140000D02*
X9110000Y-12180000D01*
X9150000Y-9490000D02*
X9190000Y-9530000D01*
X9190000Y-9490000D02*
X9150000Y-9530000D01*
X9230000Y-8602500D02*
X9270000Y-8642500D01*
X9270000Y-8602500D02*
X9230000Y-8642500D01*
X9312500Y-9600000D02*
X9352500Y-9640000D01*
X9352500Y-9600000D02*
X9312500Y-9640000D01*
X9527500Y-11247500D02*
X9567500Y-11287500D01*
X9567500Y-11247500D02*
X9527500Y-11287500D01*
X9527500Y-11377500D02*
X9567500Y-11417500D01*
X9567500Y-11377500D02*
X9527500Y-11417500D01*
X9527500Y-11630000D02*
X9567500Y-11670000D01*
X9567500Y-11630000D02*
X9527500Y-11670000D01*
X9527500Y-11762500D02*
X9567500Y-11802500D01*
X9567500Y-11762500D02*
X9527500Y-11802500D01*
X9527500Y-11886000D02*
X9567500Y-11926000D01*
X9567500Y-11886000D02*
X9527500Y-11926000D01*
X9527500Y-12012500D02*
X9567500Y-12052500D01*
X9567500Y-12012500D02*
X9527500Y-12052500D01*
X9590000Y-9270000D02*
X9630000Y-9310000D01*
X9630000Y-9270000D02*
X9590000Y-9310000D01*
X9680000Y-12060000D02*
X9720000Y-12100000D01*
X9720000Y-12060000D02*
X9680000Y-12100000D01*
X9685000Y-11510000D02*
X9725000Y-11550000D01*
X9725000Y-11510000D02*
X9685000Y-11550000D01*
X9840000Y-8602500D02*
X9880000Y-8642500D01*
X9880000Y-8602500D02*
X9840000Y-8642500D01*
X9910000Y-10965000D02*
X9950000Y-11005000D01*
X9950000Y-10965000D02*
X9910000Y-11005000D01*
X10010000Y-9850000D02*
X10050000Y-9890000D01*
X10050000Y-9850000D02*
X10010000Y-9890000D01*
X10010000Y-10280000D02*
X10050000Y-10320000D01*
X10050000Y-10280000D02*
X10010000Y-10320000D01*
X10533000Y-12024950D02*
X10573000Y-12064950D01*
X10573000Y-12024950D02*
X10533000Y-12064950D01*
X10560000Y-10790000D02*
X10600000Y-10830000D01*
X10600000Y-10790000D02*
X10560000Y-10830000D01*
X10560000Y-11125000D02*
X10600000Y-11165000D01*
X10600000Y-11125000D02*
X10560000Y-11165000D01*
X10570000Y-8605000D02*
X10610000Y-8645000D01*
X10610000Y-8605000D02*
X10570000Y-8645000D01*
X10570000Y-9202550D02*
X10610000Y-9242550D01*
X10610000Y-9202550D02*
X10570000Y-9242550D01*
X10620000Y-11000000D02*
X10660000Y-11040000D01*
X10660000Y-11000000D02*
X10620000Y-11040000D01*
X10650000Y-10080000D02*
X10690000Y-10120000D01*
X10690000Y-10080000D02*
X10650000Y-10120000D01*
X10667525Y-12024950D02*
X10707525Y-12064950D01*
X10707525Y-12024950D02*
X10667525Y-12064950D01*
X10670000Y-11697450D02*
X10710000Y-11737450D01*
X10710000Y-11697450D02*
X10670000Y-11737450D01*
X10670000Y-11870050D02*
X10710000Y-11910050D01*
X10710000Y-11870050D02*
X10670000Y-11910050D01*
X10675000Y-11505000D02*
X10715000Y-11545000D01*
X10715000Y-11505000D02*
X10675000Y-11545000D01*
X10705000Y-14520000D02*
X10745000Y-14560000D01*
X10745000Y-14520000D02*
X10705000Y-14560000D01*
X10800000Y-9280000D02*
X10840000Y-9320000D01*
X10840000Y-9280000D02*
X10800000Y-9320000D01*
X10910000Y-10080000D02*
X10950000Y-10120000D01*
X10950000Y-10080000D02*
X10910000Y-10120000D01*
X11200000Y-11170000D02*
X11240000Y-11210000D01*
X11240000Y-11170000D02*
X11200000Y-11210000D01*
X11315000Y-10442500D02*
X11355000Y-10482500D01*
X11355000Y-10442500D02*
X11315000Y-10482500D01*
X11375300Y-9727200D02*
X11415300Y-9767200D01*
X11415300Y-9727200D02*
X11375300Y-9767200D01*
X11417500Y-12390000D02*
X11457500Y-12430000D01*
X11457500Y-12390000D02*
X11417500Y-12430000D01*
X11440000Y-10060000D02*
X11480000Y-10100000D01*
X11480000Y-10060000D02*
X11440000Y-10100000D01*
X11510000Y-10997500D02*
X11550000Y-11037500D01*
X11550000Y-10997500D02*
X11510000Y-11037500D01*
X11530000Y-11792547D02*
X11570000Y-11832547D01*
X11570000Y-11792547D02*
X11530000Y-11832547D01*
X11532500Y-11947500D02*
X11572500Y-11987500D01*
X11572500Y-11947500D02*
X11532500Y-11987500D01*
X11565119Y-12198033D02*
X11605119Y-12238033D01*
X11605119Y-12198033D02*
X11565119Y-12238033D01*
X11572500Y-11245000D02*
X11612500Y-11285000D01*
X11612500Y-11245000D02*
X11572500Y-11285000D01*
X11572500Y-11380000D02*
X11612500Y-11420000D01*
X11612500Y-11380000D02*
X11572500Y-11420000D01*
X11572500Y-11629800D02*
X11612500Y-11669800D01*
X11612500Y-11629800D02*
X11572500Y-11669800D01*
X11580000Y-13780000D02*
X11620000Y-13820000D01*
X11620000Y-13780000D02*
X11580000Y-13820000D01*
X11855000Y-9380000D02*
X11895000Y-9420000D01*
X11895000Y-9380000D02*
X11855000Y-9420000D01*
X11987500Y-9851800D02*
X12027500Y-9891800D01*
X12027500Y-9851800D02*
X11987500Y-9891800D01*
X11987500Y-9982500D02*
X12027500Y-10022500D01*
X12027500Y-9982500D02*
X11987500Y-10022500D01*
X11987500Y-10105800D02*
X12027500Y-10145800D01*
X12027500Y-10105800D02*
X11987500Y-10145800D01*
X11987500Y-10232500D02*
X12027500Y-10272500D01*
X12027500Y-10232500D02*
X11987500Y-10272500D01*
X11987500Y-10487500D02*
X12027500Y-10527500D01*
X12027500Y-10487500D02*
X11987500Y-10527500D01*
X11997283Y-11686434D02*
X12037283Y-11726434D01*
X12037283Y-11686434D02*
X11997283Y-11726434D01*
X12071860Y-10613539D02*
X12111860Y-10653539D01*
X12111860Y-10613539D02*
X12071860Y-10653539D01*
X12100000Y-11947500D02*
X12140000Y-11987500D01*
X12140000Y-11947500D02*
X12100000Y-11987500D01*
X12125000Y-12265000D02*
X12165000Y-12305000D01*
X12165000Y-12265000D02*
X12125000Y-12305000D01*
X12150821Y-10538962D02*
X12190821Y-10578962D01*
X12190821Y-10538962D02*
X12150821Y-10578962D01*
X12200000Y-11740000D02*
X12240000Y-11780000D01*
X12240000Y-11740000D02*
X12200000Y-11780000D01*
X12216000Y-12184000D02*
X12256000Y-12224000D01*
X12256000Y-12184000D02*
X12216000Y-12224000D01*
X12230000Y-10470000D02*
X12270000Y-10510000D01*
X12270000Y-10470000D02*
X12230000Y-10510000D01*
X12305000Y-13555000D02*
X12345000Y-13595000D01*
X12345000Y-13555000D02*
X12305000Y-13595000D01*
X12350000Y-11850000D02*
X12390000Y-11890000D01*
X12390000Y-11850000D02*
X12350000Y-11890000D01*
X12380000Y-9380000D02*
X12420000Y-9420000D01*
X12420000Y-9380000D02*
X12380000Y-9420000D01*
X12397500Y-12012500D02*
X12437500Y-12052500D01*
X12437500Y-12012500D02*
X12397500Y-12052500D01*
X12505000Y-13555000D02*
X12545000Y-13595000D01*
X12545000Y-13555000D02*
X12505000Y-13595000D01*
X12552326Y-12012277D02*
X12592326Y-12052277D01*
X12592326Y-12012277D02*
X12552326Y-12052277D01*
X12556000Y-10319000D02*
X12596000Y-10359000D01*
X12596000Y-10319000D02*
X12556000Y-10359000D01*
X12615000Y-12680000D02*
X12655000Y-12720000D01*
X12655000Y-12680000D02*
X12615000Y-12720000D01*
X12675045Y-14714414D02*
X12715045Y-14754414D01*
X12715045Y-14714414D02*
X12675045Y-14754414D01*
X12705000Y-13555000D02*
X12745000Y-13595000D01*
X12745000Y-13555000D02*
X12705000Y-13595000D01*
X12780000Y-14717498D02*
X12820000Y-14757498D01*
X12820000Y-14717498D02*
X12780000Y-14757498D01*
X12905000Y-13555000D02*
X12945000Y-13595000D01*
X12945000Y-13555000D02*
X12905000Y-13595000D01*
X12955000Y-9380000D02*
X12995000Y-9420000D01*
X12995000Y-9380000D02*
X12955000Y-9420000D01*
X12970211Y-11489123D02*
X13010211Y-11529123D01*
X13010211Y-11489123D02*
X12970211Y-11529123D01*
X13000000Y-9730000D02*
X13040000Y-9770000D01*
X13040000Y-9730000D02*
X13000000Y-9770000D01*
X13001941Y-12175573D02*
X13041941Y-12215573D01*
X13041941Y-12175573D02*
X13001941Y-12215573D01*
X13040000Y-11130000D02*
X13080000Y-11170000D01*
X13080000Y-11130000D02*
X13040000Y-11170000D01*
X13044445Y-10824445D02*
X13084445Y-10864445D01*
X13084445Y-10824445D02*
X13044445Y-10864445D01*
X13105000Y-13555000D02*
X13145000Y-13595000D01*
X13145000Y-13555000D02*
X13105000Y-13595000D01*
X13156400Y-12011001D02*
X13196400Y-12051001D01*
X13196400Y-12011001D02*
X13156400Y-12051001D01*
X13180000Y-11377500D02*
X13220000Y-11417500D01*
X13220000Y-11377500D02*
X13180000Y-11417500D01*
X13232782Y-10669434D02*
X13272782Y-10709434D01*
X13272782Y-10669434D02*
X13232782Y-10709434D01*
X13270000Y-11187500D02*
X13310000Y-11227500D01*
X13310000Y-11187500D02*
X13270000Y-11227500D01*
X13270000Y-12015000D02*
X13310000Y-12055000D01*
X13310000Y-12015000D02*
X13270000Y-12055000D01*
X13305000Y-13555000D02*
X13345000Y-13595000D01*
X13345000Y-13555000D02*
X13305000Y-13595000D01*
X13309900Y-10591984D02*
X13349900Y-10631984D01*
X13349900Y-10591984D02*
X13309900Y-10631984D01*
X13320000Y-10840000D02*
X13360000Y-10880000D01*
X13360000Y-10840000D02*
X13320000Y-10880000D01*
X13344500Y-12767500D02*
X13384500Y-12807500D01*
X13384500Y-12767500D02*
X13344500Y-12807500D01*
X13380899Y-12017000D02*
X13420899Y-12057000D01*
X13420899Y-12017000D02*
X13380899Y-12057000D01*
X13386035Y-10514534D02*
X13426035Y-10554534D01*
X13426035Y-10514534D02*
X13386035Y-10554534D01*
X13453265Y-10427433D02*
X13493265Y-10467433D01*
X13493265Y-10427433D02*
X13453265Y-10467433D01*
X13462500Y-9812500D02*
X13502500Y-9852500D01*
X13502500Y-9812500D02*
X13462500Y-9852500D01*
X13495206Y-10695206D02*
X13535206Y-10735206D01*
X13535206Y-10695206D02*
X13495206Y-10735206D01*
X13530000Y-13555000D02*
X13570000Y-13595000D01*
X13570000Y-13555000D02*
X13530000Y-13595000D01*
X13608839Y-10781036D02*
X13648839Y-10821036D01*
X13648839Y-10781036D02*
X13608839Y-10821036D01*
X13610000Y-12112500D02*
X13650000Y-12152500D01*
X13650000Y-12112500D02*
X13610000Y-12152500D01*
X13672500Y-11230000D02*
X13712500Y-11270000D01*
X13712500Y-11230000D02*
X13672500Y-11270000D01*
X13719344Y-10807691D02*
X13759344Y-10847691D01*
X13759344Y-10807691D02*
X13719344Y-10847691D01*
X13800002Y-12115000D02*
X13840002Y-12155000D01*
X13840002Y-12115000D02*
X13800002Y-12155000D01*
X13877500Y-9812500D02*
X13917500Y-9852500D01*
X13917500Y-9812500D02*
X13877500Y-9852500D01*
X13894681Y-12304681D02*
X13934681Y-12344681D01*
X13934681Y-12304681D02*
X13894681Y-12344681D01*
X13902500Y-11209998D02*
X13942500Y-11249998D01*
X13942500Y-11209998D02*
X13902500Y-11249998D01*
X13941104Y-10908041D02*
X13981104Y-10948041D01*
X13981104Y-10908041D02*
X13941104Y-10948041D01*
X13989997Y-12539220D02*
X14029997Y-12579220D01*
X14029997Y-12539220D02*
X13989997Y-12579220D01*
X14000000Y-12690000D02*
X14040000Y-12730000D01*
X14040000Y-12690000D02*
X14000000Y-12730000D01*
X14210000Y-9710000D02*
X14250000Y-9750000D01*
X14250000Y-9710000D02*
X14210000Y-9750000D01*
X14230000Y-12855000D02*
X14270000Y-12895000D01*
X14270000Y-12855000D02*
X14230000Y-12895000D01*
X14260970Y-9280000D02*
X14300970Y-9320000D01*
X14300970Y-9280000D02*
X14260970Y-9320000D01*
X14300000Y-9905000D02*
X14340000Y-9945000D01*
X14340000Y-9905000D02*
X14300000Y-9945000D01*
X14332541Y-9202550D02*
X14372541Y-9242550D01*
X14372541Y-9202550D02*
X14332541Y-9242550D01*
X14350000Y-12200000D02*
X14390000Y-12240000D01*
X14390000Y-12200000D02*
X14350000Y-12240000D01*
X14437167Y-9175333D02*
X14477167Y-9215333D01*
X14477167Y-9175333D02*
X14437167Y-9215333D01*
X14452500Y-14440000D02*
X14492500Y-14480000D01*
X14492500Y-14440000D02*
X14452500Y-14480000D01*
X14568657Y-9172500D02*
X14608657Y-9212500D01*
X14608657Y-9172500D02*
X14568657Y-9212500D01*
X14673657Y-9172500D02*
X14713657Y-9212500D01*
X14713657Y-9172500D02*
X14673657Y-9212500D01*
X14711880Y-14022500D02*
X14751880Y-14062500D01*
X14751880Y-14022500D02*
X14711880Y-14062500D01*
X14778658Y-9172500D02*
X14818658Y-9212500D01*
X14818658Y-9172500D02*
X14778658Y-9212500D01*
X14883658Y-9172500D02*
X14923658Y-9212500D01*
X14923658Y-9172500D02*
X14883658Y-9212500D01*
X15012500Y-9172500D02*
X15052500Y-9212500D01*
X15052500Y-9172500D02*
X15012500Y-9212500D01*
X15040000Y-9890000D02*
X15080000Y-9930000D01*
X15080000Y-9890000D02*
X15040000Y-9930000D01*
X15080000Y-12290000D02*
X15120000Y-12330000D01*
X15120000Y-12290000D02*
X15080000Y-12330000D01*
X15095000Y-13843000D02*
X15135000Y-13883000D01*
X15135000Y-13843000D02*
X15095000Y-13883000D01*
X15170000Y-9185000D02*
X15210000Y-9225000D01*
X15210000Y-9185000D02*
X15170000Y-9225000D01*
X15185000Y-14720000D02*
X15225000Y-14760000D01*
X15225000Y-14720000D02*
X15185000Y-14760000D01*
X15353000Y-12549450D02*
X15393000Y-12589450D01*
X15393000Y-12549450D02*
X15353000Y-12589450D01*
X15447500Y-14720000D02*
X15487500Y-14760000D01*
X15487500Y-14720000D02*
X15447500Y-14760000D01*
X15550000Y-12471950D02*
X15590000Y-12511950D01*
X15590000Y-12471950D02*
X15550000Y-12511950D01*
X15697500Y-14720000D02*
X15737500Y-14760000D01*
X15737500Y-14720000D02*
X15697500Y-14760000D01*
X15730000Y-8605000D02*
X15770000Y-8645000D01*
X15770000Y-8605000D02*
X15730000Y-8645000D01*
X15835000Y-13255000D02*
X15875000Y-13295000D01*
X15875000Y-13255000D02*
X15835000Y-13295000D01*
X15880000Y-10920000D02*
X15920000Y-10960000D01*
X15920000Y-10920000D02*
X15880000Y-10960000D01*
X15884000Y-12319000D02*
X15924000Y-12359000D01*
X15924000Y-12319000D02*
X15884000Y-12359000D01*
X15904750Y-13027250D02*
X15944750Y-13067250D01*
X15944750Y-13027250D02*
X15904750Y-13067250D01*
X15955000Y-14717500D02*
X15995000Y-14757500D01*
X15995000Y-14717500D02*
X15955000Y-14757500D01*
X15980000Y-8605000D02*
X16020000Y-8645000D01*
X16020000Y-8605000D02*
X15980000Y-8645000D01*
X16090000Y-9250000D02*
X16130000Y-9290000D01*
X16130000Y-9250000D02*
X16090000Y-9290000D01*
X16194430Y-12180503D02*
X16234430Y-12220503D01*
X16234430Y-12180503D02*
X16194430Y-12220503D01*
X16195500Y-12502200D02*
X16235500Y-12542200D01*
X16235500Y-12502200D02*
X16195500Y-12542200D01*
X16196486Y-12396074D02*
X16236486Y-12436074D01*
X16236486Y-12396074D02*
X16196486Y-12436074D01*
X16197500Y-12285458D02*
X16237500Y-12325458D01*
X16237500Y-12285458D02*
X16197500Y-12325458D01*
X16202500Y-14717500D02*
X16242500Y-14757500D01*
X16242500Y-14717500D02*
X16202500Y-14757500D01*
X16208500Y-9541500D02*
X16248500Y-9581500D01*
X16248500Y-9541500D02*
X16208500Y-9581500D01*
X16240000Y-9990000D02*
X16280000Y-10030000D01*
X16280000Y-9990000D02*
X16240000Y-10030000D01*
X16404501Y-12221480D02*
X16444501Y-12261480D01*
X16444501Y-12221480D02*
X16404501Y-12261480D01*
X16420320Y-12325282D02*
X16460320Y-12365282D01*
X16460320Y-12325282D02*
X16420320Y-12365282D01*
X16431500Y-12429685D02*
X16471500Y-12469685D01*
X16471500Y-12429685D02*
X16431500Y-12469685D01*
X16465000Y-14717500D02*
X16505000Y-14757500D01*
X16505000Y-14717500D02*
X16465000Y-14757500D01*
X16474699Y-12525387D02*
X16514699Y-12565387D01*
X16514699Y-12525387D02*
X16474699Y-12565387D01*
X16485936Y-10145510D02*
X16525936Y-10185510D01*
X16525936Y-10145510D02*
X16485936Y-10185510D01*
X16493078Y-10318173D02*
X16533078Y-10358173D01*
X16533078Y-10318173D02*
X16493078Y-10358173D01*
X16513745Y-10044311D02*
X16553745Y-10084311D01*
X16553745Y-10044311D02*
X16513745Y-10084311D01*
X16550000Y-10230000D02*
X16590000Y-10270000D01*
X16590000Y-10230000D02*
X16550000Y-10270000D01*
X16602500Y-8977500D02*
X16642500Y-9017500D01*
X16642500Y-8977500D02*
X16602500Y-9017500D01*
X16668089Y-10391726D02*
X16708089Y-10431726D01*
X16708089Y-10391726D02*
X16668089Y-10431726D01*
X16705000Y-14060000D02*
X16745000Y-14100000D01*
X16745000Y-14060000D02*
X16705000Y-14100000D01*
X16710767Y-10077500D02*
X16750767Y-10117500D01*
X16750767Y-10077500D02*
X16710767Y-10117500D01*
X16717500Y-14717500D02*
X16757500Y-14757500D01*
X16757500Y-14717500D02*
X16717500Y-14757500D01*
X16720636Y-9831500D02*
X16760636Y-9871500D01*
X16760636Y-9831500D02*
X16720636Y-9871500D01*
X16724628Y-12046121D02*
X16764628Y-12086121D01*
X16764628Y-12046121D02*
X16724628Y-12086121D01*
X16728983Y-12204349D02*
X16768983Y-12244349D01*
X16768983Y-12204349D02*
X16728983Y-12244349D01*
X16774765Y-10444766D02*
X16814766Y-10484766D01*
X16814766Y-10444766D02*
X16774765Y-10484766D01*
X16792500Y-12287958D02*
X16832500Y-12327958D01*
X16832500Y-12287958D02*
X16792500Y-12327958D01*
X16792500Y-12397560D02*
X16832500Y-12437560D01*
X16832500Y-12397560D02*
X16792500Y-12437560D01*
X16796125Y-12123621D02*
X16836125Y-12163621D01*
X16836125Y-12123621D02*
X16796125Y-12163621D01*
X16798813Y-9918813D02*
X16838813Y-9958813D01*
X16838813Y-9918813D02*
X16798813Y-9958813D01*
X16855000Y-9435000D02*
X16895000Y-9475000D01*
X16895000Y-9435000D02*
X16855000Y-9475000D01*
X16890000Y-9680000D02*
X16930000Y-9720000D01*
X16930000Y-9680000D02*
X16890000Y-9720000D01*
X16900000Y-14060000D02*
X16940000Y-14100000D01*
X16940000Y-14060000D02*
X16900000Y-14100000D01*
X16920000Y-11620000D02*
X16960000Y-11660000D01*
X16960000Y-11620000D02*
X16920000Y-11660000D01*
X16949715Y-10359550D02*
X16989715Y-10399550D01*
X16989715Y-10359550D02*
X16949715Y-10399550D01*
X16955999Y-10964001D02*
X16995999Y-11004001D01*
X16995999Y-10964001D02*
X16955999Y-11004001D01*
X16957500Y-14210000D02*
X16997500Y-14250000D01*
X16997500Y-14210000D02*
X16957500Y-14250000D01*
X16977500Y-14720000D02*
X17017500Y-14760000D01*
X17017500Y-14720000D02*
X16977500Y-14760000D01*
X17180000Y-13147000D02*
X17220000Y-13187000D01*
X17220000Y-13147000D02*
X17180000Y-13187000D01*
X17180000Y-13580000D02*
X17220000Y-13620000D01*
X17220000Y-13580000D02*
X17180000Y-13620000D01*
X17180000Y-14510000D02*
X17220000Y-14550000D01*
X17220000Y-14510000D02*
X17180000Y-14550000D01*
X17210000Y-14250000D02*
X17250000Y-14290000D01*
X17250000Y-14250000D02*
X17210000Y-14290000D01*
X17256000Y-11016550D02*
X17296000Y-11056550D01*
X17296000Y-11016550D02*
X17256000Y-11056550D01*
X17293648Y-11259950D02*
X17333648Y-11299950D01*
X17333648Y-11259950D02*
X17293648Y-11299950D01*
X17298000Y-12805000D02*
X17338000Y-12845000D01*
X17338000Y-12805000D02*
X17298000Y-12845000D01*
X17310000Y-10487500D02*
X17350000Y-10527500D01*
X17350000Y-10487500D02*
X17310000Y-10527500D01*
X17322195Y-11097992D02*
X17362195Y-11137992D01*
X17362195Y-11097992D02*
X17322195Y-11137992D01*
X17387500Y-11182500D02*
X17427500Y-11222500D01*
X17427500Y-11182500D02*
X17387500Y-11222500D01*
X17395000Y-11360000D02*
X17435000Y-11400000D01*
X17435000Y-11360000D02*
X17395000Y-11400000D01*
X17410000Y-10834000D02*
X17450000Y-10874000D01*
X17450000Y-10834000D02*
X17410000Y-10874000D01*
X17414788Y-12702187D02*
X17454788Y-12742187D01*
X17454788Y-12702187D02*
X17414788Y-12742187D01*
X17472500Y-14747500D02*
X17512500Y-14787500D01*
X17512500Y-14747500D02*
X17472500Y-14787500D01*
X17492288Y-12631179D02*
X17532288Y-12671179D01*
X17532288Y-12631179D02*
X17492288Y-12671179D01*
X17520000Y-10415000D02*
X17560000Y-10455000D01*
X17560000Y-10415000D02*
X17520000Y-10455000D01*
X17717500Y-14747500D02*
X17757500Y-14787500D01*
X17757500Y-14747500D02*
X17717500Y-14787500D01*
X17840000Y-10555000D02*
X17880000Y-10595000D01*
X17880000Y-10555000D02*
X17840000Y-10595000D01*
X17852500Y-11175000D02*
X17892500Y-11215000D01*
X17892500Y-11175000D02*
X17852500Y-11215000D01*
X17920000Y-9905000D02*
X17960000Y-9945000D01*
X17960000Y-9905000D02*
X17920000Y-9945000D01*
X17920000Y-10140000D02*
X17960000Y-10180000D01*
X17960000Y-10140000D02*
X17920000Y-10180000D01*
X18050000Y-14200000D02*
X18090000Y-14240000D01*
X18090000Y-14200000D02*
X18050000Y-14240000D01*
X18090000Y-10839000D02*
X18130000Y-10879000D01*
X18130000Y-10839000D02*
X18090000Y-10879000D01*
X18135000Y-11237500D02*
X18175000Y-11277500D01*
X18175000Y-11237500D02*
X18135000Y-11277500D01*
X18176051Y-14481449D02*
X18216051Y-14521449D01*
X18216051Y-14481449D02*
X18176051Y-14521449D01*
X18212500Y-13927500D02*
X18252500Y-13967500D01*
X18252500Y-13927500D02*
X18212500Y-13967500D01*
X18310000Y-9905000D02*
X18350000Y-9945000D01*
X18350000Y-9905000D02*
X18310000Y-9945000D01*
X18310000Y-10140000D02*
X18350000Y-10180000D01*
X18350000Y-10140000D02*
X18310000Y-10180000D01*
X18384801Y-12550199D02*
X18424801Y-12590199D01*
X18424801Y-12550199D02*
X18384801Y-12590199D01*
X18396250Y-14552500D02*
X18436250Y-14592500D01*
X18436250Y-14552500D02*
X18396250Y-14592500D01*
X18455000Y-13147000D02*
X18495000Y-13187000D01*
X18495000Y-13147000D02*
X18455000Y-13187000D01*
X18532500Y-11544950D02*
X18572500Y-11584950D01*
X18572500Y-11544950D02*
X18532500Y-11584950D01*
X18600000Y-13100000D02*
X18640000Y-13140000D01*
X18640000Y-13100000D02*
X18600000Y-13140000D01*
X18624000Y-12550000D02*
X18664000Y-12590000D01*
X18664000Y-12550000D02*
X18624000Y-12590000D01*
X18675000Y-10360000D02*
X18715000Y-10400000D01*
X18715000Y-10360000D02*
X18675000Y-10400000D01*
X18720000Y-9905000D02*
X18760000Y-9945000D01*
X18760000Y-9905000D02*
X18720000Y-9945000D01*
X18720000Y-10140000D02*
X18760000Y-10180000D01*
X18760000Y-10140000D02*
X18720000Y-10180000D01*
X18792500Y-13837500D02*
X18832500Y-13877500D01*
X18832500Y-13837500D02*
X18792500Y-13877500D01*
X18792500Y-14280000D02*
X18832500Y-14320000D01*
X18832500Y-14280000D02*
X18792500Y-14320000D01*
X18870000Y-14370000D02*
X18910000Y-14410000D01*
X18910000Y-14370000D02*
X18870000Y-14410000D01*
X18957199Y-14742801D02*
X18997199Y-14782801D01*
X18997199Y-14742801D02*
X18957199Y-14782801D01*
X18970000Y-13130000D02*
X19010000Y-13170000D01*
X19010000Y-13130000D02*
X18970000Y-13170000D01*
X18980000Y-11544950D02*
X19020000Y-11584950D01*
X19020000Y-11544950D02*
X18980000Y-11584950D01*
X19020000Y-14370000D02*
X19060000Y-14410000D01*
X19060000Y-14370000D02*
X19020000Y-14410000D01*
X19150000Y-9905000D02*
X19190000Y-9945000D01*
X19190000Y-9905000D02*
X19150000Y-9945000D01*
X19150000Y-10140000D02*
X19190000Y-10180000D01*
X19190000Y-10140000D02*
X19150000Y-10180000D01*
X19150000Y-10640000D02*
X19190000Y-10680000D01*
X19190000Y-10640000D02*
X19150000Y-10680000D01*
X19150000Y-14370000D02*
X19190000Y-14410000D01*
X19190000Y-14370000D02*
X19150000Y-14410000D01*
X19187000Y-13307500D02*
X19227000Y-13347500D01*
X19227000Y-13307500D02*
X19187000Y-13347500D01*
X19217500Y-10975000D02*
X19257500Y-11015000D01*
X19257500Y-10975000D02*
X19217500Y-11015000D01*
X19240000Y-12702500D02*
X19280000Y-12742500D01*
X19280000Y-12702500D02*
X19240000Y-12742500D01*
X19314000Y-13620000D02*
X19354000Y-13660000D01*
X19354000Y-13620000D02*
X19314000Y-13660000D01*
X19355000Y-13920000D02*
X19395000Y-13960000D01*
X19395000Y-13920000D02*
X19355000Y-13960000D01*
X19361500Y-9293725D02*
X19401500Y-9333725D01*
X19401500Y-9293725D02*
X19361500Y-9333725D01*
X19370000Y-12692500D02*
X19410000Y-12732500D01*
X19410000Y-12692500D02*
X19370000Y-12732500D01*
X19442707Y-11417795D02*
X19482707Y-11457795D01*
X19482707Y-11417795D02*
X19442707Y-11457795D01*
X19460000Y-10485000D02*
X19500000Y-10525000D01*
X19500000Y-10485000D02*
X19460000Y-10525000D01*
X19494000Y-12895000D02*
X19534000Y-12935000D01*
X19534000Y-12895000D02*
X19494000Y-12935000D01*
X19530000Y-14730000D02*
X19570000Y-14770000D01*
X19570000Y-14730000D02*
X19530000Y-14770000D01*
X19532331Y-11472500D02*
X19572331Y-11512500D01*
X19572331Y-11472500D02*
X19532331Y-11512500D01*
X19560000Y-9675000D02*
X19600000Y-9715000D01*
X19600000Y-9675000D02*
X19560000Y-9715000D01*
X19560000Y-9905000D02*
X19600000Y-9945000D01*
X19600000Y-9905000D02*
X19560000Y-9945000D01*
X19560000Y-10140000D02*
X19600000Y-10180000D01*
X19600000Y-10140000D02*
X19560000Y-10180000D01*
X19560000Y-10640000D02*
X19600000Y-10680000D01*
X19600000Y-10640000D02*
X19560000Y-10680000D01*
X19567500Y-13620000D02*
X19607500Y-13660000D01*
X19607500Y-13620000D02*
X19567500Y-13660000D01*
X19570000Y-11180000D02*
X19610000Y-11220000D01*
X19610000Y-11180000D02*
X19570000Y-11220000D01*
X19595000Y-13920000D02*
X19635000Y-13960000D01*
X19635000Y-13920000D02*
X19595000Y-13960000D01*
X19602500Y-12675000D02*
X19642500Y-12715000D01*
X19642500Y-12675000D02*
X19602500Y-12715000D01*
X19609465Y-11401258D02*
X19649465Y-11441258D01*
X19649465Y-11401258D02*
X19609465Y-11441258D01*
X19687331Y-11474322D02*
X19727331Y-11514322D01*
X19727331Y-11474322D02*
X19687331Y-11514322D01*
X19742500Y-10750500D02*
X19782500Y-10790500D01*
X19782500Y-10750500D02*
X19742500Y-10790500D01*
X19752500Y-14730000D02*
X19792500Y-14770000D01*
X19792500Y-14730000D02*
X19752500Y-14770000D01*
X19795000Y-11320000D02*
X19835000Y-11360000D01*
X19835000Y-11320000D02*
X19795000Y-11360000D01*
X19822000Y-13620000D02*
X19862000Y-13660000D01*
X19862000Y-13620000D02*
X19822000Y-13660000D01*
X19824000Y-12675000D02*
X19864000Y-12715000D01*
X19864000Y-12675000D02*
X19824000Y-12715000D01*
X19980000Y-9675000D02*
X20020000Y-9715000D01*
X20020000Y-9675000D02*
X19980000Y-9715000D01*
X19980000Y-9905000D02*
X20020000Y-9945000D01*
X20020000Y-9905000D02*
X19980000Y-9945000D01*
X19980000Y-10140000D02*
X20020000Y-10180000D01*
X20020000Y-10140000D02*
X19980000Y-10180000D01*
X19980000Y-10640000D02*
X20020000Y-10680000D01*
X20020000Y-10640000D02*
X19980000Y-10680000D01*
X19985000Y-10485000D02*
X20025000Y-10525000D01*
X20025000Y-10485000D02*
X19985000Y-10525000D01*
X20065000Y-14729000D02*
X20105000Y-14769000D01*
X20105000Y-14729000D02*
X20065000Y-14769000D01*
X20076000Y-13620000D02*
X20116000Y-13660000D01*
X20116000Y-13620000D02*
X20076000Y-13660000D01*
X20078000Y-12673000D02*
X20118000Y-12713000D01*
X20118000Y-12673000D02*
X20078000Y-12713000D01*
X20160000Y-11340000D02*
X20200000Y-11380000D01*
X20200000Y-11340000D02*
X20160000Y-11380000D01*
X20310000Y-11270000D02*
X20350000Y-11310000D01*
X20350000Y-11270000D02*
X20310000Y-11310000D01*
X20327500Y-14730000D02*
X20367500Y-14770000D01*
X20367500Y-14730000D02*
X20327500Y-14770000D01*
X20331000Y-12673000D02*
X20371000Y-12713000D01*
X20371000Y-12673000D02*
X20331000Y-12713000D01*
X20360000Y-13920000D02*
X20400000Y-13960000D01*
X20400000Y-13920000D02*
X20360000Y-13960000D01*
X20410000Y-9675000D02*
X20450000Y-9715000D01*
X20450000Y-9675000D02*
X20410000Y-9715000D01*
X20410000Y-9905000D02*
X20450000Y-9945000D01*
X20450000Y-9905000D02*
X20410000Y-9945000D01*
X20410000Y-10140000D02*
X20450000Y-10180000D01*
X20450000Y-10140000D02*
X20410000Y-10180000D01*
X20410000Y-10640000D02*
X20450000Y-10680000D01*
X20450000Y-10640000D02*
X20410000Y-10680000D01*
X20434879Y-9244879D02*
X20474879Y-9284879D01*
X20474879Y-9244879D02*
X20434879Y-9284879D01*
X20485000Y-14515000D02*
X20525000Y-14555000D01*
X20525000Y-14515000D02*
X20485000Y-14555000D01*
X20560000Y-9160000D02*
X20600000Y-9200000D01*
X20600000Y-9160000D02*
X20560000Y-9200000D01*
X20620000Y-13920000D02*
X20660000Y-13960000D01*
X20660000Y-13920000D02*
X20620000Y-13960000D01*
X20632500Y-11487500D02*
X20672500Y-11527500D01*
X20672500Y-11487500D02*
X20632500Y-11527500D01*
X20650000Y-14540000D02*
X20690000Y-14580000D01*
X20690000Y-14540000D02*
X20650000Y-14580000D01*
X20653000Y-14667000D02*
X20693000Y-14707000D01*
X20693000Y-14667000D02*
X20653000Y-14707000D01*
X20695156Y-12732500D02*
X20735156Y-12772500D01*
X20735156Y-12732500D02*
X20695156Y-12772500D01*
X20730000Y-8607500D02*
X20770000Y-8647500D01*
X20770000Y-8607500D02*
X20730000Y-8647500D01*
X20800156Y-12732500D02*
X20840156Y-12772500D01*
X20840156Y-12732500D02*
X20800156Y-12772500D01*
X20804098Y-12512637D02*
X20844098Y-12552637D01*
X20844098Y-12512637D02*
X20804098Y-12552637D01*
X20804669Y-12622810D02*
X20844669Y-12662810D01*
X20844669Y-12622810D02*
X20804669Y-12662810D01*
X20804853Y-12294189D02*
X20844853Y-12334189D01*
X20844853Y-12294189D02*
X20804853Y-12334189D01*
X20805220Y-12074780D02*
X20845220Y-12114780D01*
X20845220Y-12074780D02*
X20805220Y-12114780D01*
X20805531Y-12404469D02*
X20845531Y-12444469D01*
X20845531Y-12404469D02*
X20805531Y-12444469D01*
X20810160Y-12189323D02*
X20850160Y-12229323D01*
X20850160Y-12189323D02*
X20810160Y-12229323D01*
X20840000Y-13128000D02*
X20880000Y-13168000D01*
X20880000Y-13128000D02*
X20840000Y-13168000D01*
X20850000Y-9120000D02*
X20890000Y-9160000D01*
X20890000Y-9120000D02*
X20850000Y-9160000D01*
X20850000Y-13920000D02*
X20890000Y-13960000D01*
X20890000Y-13920000D02*
X20850000Y-13960000D01*
X20855000Y-9675000D02*
X20895000Y-9715000D01*
X20895000Y-9675000D02*
X20855000Y-9715000D01*
X20855000Y-9905000D02*
X20895000Y-9945000D01*
X20895000Y-9905000D02*
X20855000Y-9945000D01*
X20855000Y-10140000D02*
X20895000Y-10180000D01*
X20895000Y-10140000D02*
X20855000Y-10180000D01*
X20870000Y-14600000D02*
X20910000Y-14640000D01*
X20910000Y-14600000D02*
X20870000Y-14640000D01*
X20872500Y-11077500D02*
X20912500Y-11117500D01*
X20912500Y-11077500D02*
X20872500Y-11117500D01*
X20960000Y-9200000D02*
X21000000Y-9240000D01*
X21000000Y-9200000D02*
X20960000Y-9240000D01*
X20961016Y-14361953D02*
X21001016Y-14401953D01*
X21001016Y-14361953D02*
X20961016Y-14401953D01*
X20979766Y-14490234D02*
X21019766Y-14530234D01*
X21019766Y-14490234D02*
X20979766Y-14530234D01*
X21045000Y-11935000D02*
X21085000Y-11975000D01*
X21085000Y-11935000D02*
X21045000Y-11975000D01*
X21052719Y-14413096D02*
X21092719Y-14453096D01*
X21092719Y-14413096D02*
X21052719Y-14453096D01*
X21120000Y-13150000D02*
X21160000Y-13190000D01*
X21160000Y-13150000D02*
X21120000Y-13190000D01*
X21127550Y-14590000D02*
X21167550Y-14630000D01*
X21167550Y-14590000D02*
X21127550Y-14630000D01*
X21260000Y-8607500D02*
X21300000Y-8647500D01*
X21300000Y-8607500D02*
X21260000Y-8647500D01*
X21260000Y-13150000D02*
X21300000Y-13190000D01*
X21300000Y-13150000D02*
X21260000Y-13190000D01*
X21270000Y-11077500D02*
X21310000Y-11117500D01*
X21310000Y-11077500D02*
X21270000Y-11117500D01*
X21380000Y-13600000D02*
X21420000Y-13640000D01*
X21420000Y-13600000D02*
X21380000Y-13640000D01*
X21472500Y-13112500D02*
X21512500Y-13152500D01*
X21512500Y-13112500D02*
X21472500Y-13152500D01*
X21510000Y-13890000D02*
X21550000Y-13930000D01*
X21550000Y-13890000D02*
X21510000Y-13930000D01*
X21555000Y-8957500D02*
X21595000Y-8997500D01*
X21595000Y-8957500D02*
X21555000Y-8997500D01*
X21595000Y-12907500D02*
X21635000Y-12947500D01*
X21635000Y-12907500D02*
X21595000Y-12947500D01*
X21600000Y-14660000D02*
X21640000Y-14700000D01*
X21640000Y-14660000D02*
X21600000Y-14700000D01*
X21607500Y-14272500D02*
X21647500Y-14312500D01*
X21647500Y-14272500D02*
X21607500Y-14312500D01*
X21635147Y-12810478D02*
X21675147Y-12850478D01*
X21675147Y-12810478D02*
X21635147Y-12850478D01*
X21640000Y-13490000D02*
X21680000Y-13530000D01*
X21680000Y-13490000D02*
X21640000Y-13530000D01*
X21657500Y-14460000D02*
X21697500Y-14500000D01*
X21697500Y-14460000D02*
X21657500Y-14500000D01*
X21690000Y-11540000D02*
X21730000Y-11580000D01*
X21730000Y-11540000D02*
X21690000Y-11580000D01*
X21690000Y-14660000D02*
X21730000Y-14700000D01*
X21730000Y-14660000D02*
X21690000Y-14700000D01*
X21695000Y-10980000D02*
X21735000Y-11020000D01*
X21735000Y-10980000D02*
X21695000Y-11020000D01*
X21707500Y-14272500D02*
X21747500Y-14312500D01*
X21747500Y-14272500D02*
X21707500Y-14312500D01*
X21760000Y-8607500D02*
X21800000Y-8647500D01*
X21800000Y-8607500D02*
X21760000Y-8647500D01*
X21765000Y-13490000D02*
X21805000Y-13530000D01*
X21805000Y-13490000D02*
X21765000Y-13530000D01*
X21780000Y-14660000D02*
X21820000Y-14700000D01*
X21820000Y-14660000D02*
X21780000Y-14700000D01*
X21805000Y-10405000D02*
X21845000Y-10445000D01*
X21845000Y-10405000D02*
X21805000Y-10445000D01*
X21810000Y-9970000D02*
X21850000Y-10010000D01*
X21850000Y-9970000D02*
X21810000Y-10010000D01*
X21870000Y-14660000D02*
X21910000Y-14700000D01*
X21910000Y-14660000D02*
X21870000Y-14700000D01*
X21890000Y-13490000D02*
X21930000Y-13530000D01*
X21930000Y-13490000D02*
X21890000Y-13530000D01*
X21907500Y-9200000D02*
X21947500Y-9240000D01*
X21947500Y-9200000D02*
X21907500Y-9240000D01*
X21952500Y-13130000D02*
X21992500Y-13170000D01*
X21992500Y-13130000D02*
X21952500Y-13170000D01*
X21960000Y-12620000D02*
X22000000Y-12660000D01*
X22000000Y-12620000D02*
X21960000Y-12660000D01*
X21960000Y-14660000D02*
X22000000Y-14700000D01*
X22000000Y-14660000D02*
X21960000Y-14700000D01*
X22070000Y-9120000D02*
X22110000Y-9160000D01*
X22110000Y-9120000D02*
X22070000Y-9160000D01*
X22070000Y-13590000D02*
X22110000Y-13630000D01*
X22110000Y-13590000D02*
X22070000Y-13630000D01*
X22125000Y-10970000D02*
X22165000Y-11010000D01*
X22165000Y-10970000D02*
X22125000Y-11010000D01*
X22172500Y-12872500D02*
X22212500Y-12912500D01*
X22212500Y-12872500D02*
X22172500Y-12912500D01*
X22190000Y-12365000D02*
X22230000Y-12405000D01*
X22230000Y-12365000D02*
X22190000Y-12405000D01*
X22190000Y-12492500D02*
X22230000Y-12532500D01*
X22230000Y-12492500D02*
X22190000Y-12532500D01*
X22205000Y-11480000D02*
X22245000Y-11520000D01*
X22245000Y-11480000D02*
X22205000Y-11520000D01*
X22270000Y-8607500D02*
X22310000Y-8647500D01*
X22310000Y-8607500D02*
X22270000Y-8647500D01*
X22365000Y-13722500D02*
X22405000Y-13762500D01*
X22405000Y-13722500D02*
X22365000Y-13762500D01*
X22390000Y-14470000D02*
X22430000Y-14510000D01*
X22430000Y-14470000D02*
X22390000Y-14510000D01*
X22397500Y-8975000D02*
X22437500Y-9015000D01*
X22437500Y-8975000D02*
X22397500Y-9015000D01*
X22540000Y-9670000D02*
X22580000Y-9710000D01*
X22580000Y-9670000D02*
X22540000Y-9710000D01*
X22665000Y-11540000D02*
X22705000Y-11580000D01*
X22705000Y-11540000D02*
X22665000Y-11580000D01*
X22670000Y-9800000D02*
X22710000Y-9840000D01*
X22710000Y-9800000D02*
X22670000Y-9840000D01*
X22730000Y-10030000D02*
X22770000Y-10070000D01*
X22770000Y-10030000D02*
X22730000Y-10070000D01*
X22732500Y-14257500D02*
X22772500Y-14297500D01*
X22772500Y-14257500D02*
X22732500Y-14297500D01*
X22750000Y-8607500D02*
X22790000Y-8647500D01*
X22790000Y-8607500D02*
X22750000Y-8647500D01*
X22840000Y-14470000D02*
X22880000Y-14510000D01*
X22880000Y-14470000D02*
X22840000Y-14510000D01*
X22905000Y-11540000D02*
X22945000Y-11580000D01*
X22945000Y-11540000D02*
X22905000Y-11580000D01*
X22990000Y-9800000D02*
X23030000Y-9840000D01*
X23030000Y-9800000D02*
X22990000Y-9840000D01*
X23245000Y-8605000D02*
X23285000Y-8645000D01*
X23285000Y-8605000D02*
X23245000Y-8645000D01*
X23310000Y-9810000D02*
X23350000Y-9850000D01*
X23350000Y-9810000D02*
X23310000Y-9850000D01*
X23310000Y-11540000D02*
X23350000Y-11580000D01*
X23350000Y-11540000D02*
X23310000Y-11580000D01*
X23505000Y-9165000D02*
X23545000Y-9205000D01*
X23545000Y-9165000D02*
X23505000Y-9205000D01*
X23505000Y-9710000D02*
X23545000Y-9750000D01*
X23545000Y-9710000D02*
X23505000Y-9750000D01*
X23505000Y-10135000D02*
X23545000Y-10175000D01*
X23545000Y-10135000D02*
X23505000Y-10175000D01*
X23505000Y-10585000D02*
X23545000Y-10625000D01*
X23545000Y-10585000D02*
X23505000Y-10625000D01*
X23505000Y-10985000D02*
X23545000Y-11025000D01*
X23545000Y-10985000D02*
X23505000Y-11025000D01*
X23505000Y-11410000D02*
X23545000Y-11450000D01*
X23545000Y-11410000D02*
X23505000Y-11450000D01*
X23505000Y-11860000D02*
X23545000Y-11900000D01*
X23545000Y-11860000D02*
X23505000Y-11900000D01*
X23505000Y-12320000D02*
X23545000Y-12360000D01*
X23545000Y-12320000D02*
X23505000Y-12360000D01*
X23505000Y-12745000D02*
X23545000Y-12785000D01*
X23545000Y-12745000D02*
X23505000Y-12785000D01*
X23505000Y-13195000D02*
X23545000Y-13235000D01*
X23545000Y-13195000D02*
X23505000Y-13235000D01*
X23505000Y-13620000D02*
X23545000Y-13660000D01*
X23545000Y-13620000D02*
X23505000Y-13660000D01*
X23505000Y-14070000D02*
X23545000Y-14110000D01*
X23545000Y-14070000D02*
X23505000Y-14110000D01*
X21092500Y-11230000D02*
G75*
G02*
X21027500Y-11230000I-32500J0D01*
G01*
X21027500Y-11230000D02*
G75*
G02*
X21092500Y-11230000I32500J0D01*
G01*
X21092500Y-11357000D02*
G75*
G02*
X21027500Y-11357000I-32500J0D01*
G01*
X21027500Y-11357000D02*
G75*
G02*
X21092500Y-11357000I32500J0D01*
G01*
X21552500Y-11230000D02*
G75*
G02*
X21487500Y-11230000I-32500J0D01*
G01*
X21487500Y-11230000D02*
G75*
G02*
X21552500Y-11230000I32500J0D01*
G01*
X21552500Y-11357000D02*
G75*
G02*
X21487500Y-11357000I-32500J0D01*
G01*
X21487500Y-11357000D02*
G75*
G02*
X21552500Y-11357000I32500J0D01*
G01*
X16968500Y-8930000D02*
X16968500Y-9030000D01*
X16918500Y-8980000D02*
X17018500Y-8980000D01*
X16968500Y-9184000D02*
X16968500Y-9284000D01*
X16918500Y-9234000D02*
X17018500Y-9234000D01*
X17222500Y-8930000D02*
X17222500Y-9030000D01*
X17172500Y-8980000D02*
X17272500Y-8980000D01*
X17222500Y-9184000D02*
X17222500Y-9284000D01*
X17172500Y-9234000D02*
X17272500Y-9234000D01*
X17476500Y-8930000D02*
X17476500Y-9030000D01*
X17426500Y-8980000D02*
X17526500Y-8980000D01*
X17476500Y-9184000D02*
X17476500Y-9284000D01*
X17426500Y-9234000D02*
X17526500Y-9234000D01*
X17730500Y-8930000D02*
X17730500Y-9030000D01*
X17680500Y-8980000D02*
X17780500Y-8980000D01*
X17730500Y-9184000D02*
X17730500Y-9284000D01*
X17680500Y-9234000D02*
X17780500Y-9234000D01*
X17984500Y-8930000D02*
X17984500Y-9030000D01*
X17934500Y-8980000D02*
X18034500Y-8980000D01*
X17984500Y-9184000D02*
X17984500Y-9284000D01*
X17934500Y-9234000D02*
X18034500Y-9234000D01*
X18238500Y-8930000D02*
X18238500Y-9030000D01*
X18188500Y-8980000D02*
X18288500Y-8980000D01*
X18238500Y-9184000D02*
X18238500Y-9284000D01*
X18188500Y-9234000D02*
X18288500Y-9234000D01*
X18492500Y-8930000D02*
X18492500Y-9030000D01*
X18442500Y-8980000D02*
X18542500Y-8980000D01*
X18492500Y-9184000D02*
X18492500Y-9284000D01*
X18442500Y-9234000D02*
X18542500Y-9234000D01*
X18746500Y-8930000D02*
X18746500Y-9030000D01*
X18696500Y-8980000D02*
X18796500Y-8980000D01*
X18746500Y-9184000D02*
X18746500Y-9284000D01*
X18696500Y-9234000D02*
X18796500Y-9234000D01*
X19000500Y-8930000D02*
X19000500Y-9030000D01*
X18950500Y-8980000D02*
X19050500Y-8980000D01*
X19000500Y-9184000D02*
X19000500Y-9284000D01*
X18950500Y-9234000D02*
X19050500Y-9234000D01*
X19254500Y-8930000D02*
X19254500Y-9030000D01*
X19204500Y-8980000D02*
X19304500Y-8980000D01*
X19254500Y-9184000D02*
X19254500Y-9284000D01*
X19204500Y-9234000D02*
X19304500Y-9234000D01*
X19356000Y-14340000D02*
X19356000Y-14440000D01*
X19306000Y-14390000D02*
X19406000Y-14390000D01*
X19508500Y-8930000D02*
X19508500Y-9030000D01*
X19458500Y-8980000D02*
X19558500Y-8980000D01*
X19508500Y-9184000D02*
X19508500Y-9284000D01*
X19458500Y-9234000D02*
X19558500Y-9234000D01*
X19610000Y-14340000D02*
X19610000Y-14440000D01*
X19560000Y-14390000D02*
X19660000Y-14390000D01*
X19762500Y-8930000D02*
X19762500Y-9030000D01*
X19712500Y-8980000D02*
X19812500Y-8980000D01*
X19762500Y-9184000D02*
X19762500Y-9284000D01*
X19712500Y-9234000D02*
X19812500Y-9234000D01*
X20016500Y-8930000D02*
X20016500Y-9030000D01*
X19966500Y-8980000D02*
X20066500Y-8980000D01*
X20016500Y-9184000D02*
X20016500Y-9284000D01*
X19966500Y-9234000D02*
X20066500Y-9234000D01*
D13*
X22789952Y-10294452D02*
X22789952Y-10214548D01*
X22710048Y-10214548D01*
X22710048Y-10294452D01*
X22789952Y-10294452D01*
X22789952Y-10523452D02*
X22789952Y-10443548D01*
X22710048Y-10443548D01*
X22710048Y-10523452D01*
X22789952Y-10523452D01*
X22789952Y-10752452D02*
X22789952Y-10672548D01*
X22710048Y-10672548D01*
X22710048Y-10752452D01*
X22789952Y-10752452D01*
X22789952Y-10981452D02*
X22789952Y-10901548D01*
X22710048Y-10901548D01*
X22710048Y-10981452D01*
X22789952Y-10981452D01*
X22789952Y-11210452D02*
X22789952Y-11130548D01*
X22710048Y-11130548D01*
X22710048Y-11210452D01*
X22789952Y-11210452D01*
X23039952Y-10179952D02*
X23039952Y-10100048D01*
X22960048Y-10100048D01*
X22960048Y-10179952D01*
X23039952Y-10179952D01*
X23039952Y-10408952D02*
X23039952Y-10329048D01*
X22960048Y-10329048D01*
X22960048Y-10408952D01*
X23039952Y-10408952D01*
X23039952Y-10637952D02*
X23039952Y-10558048D01*
X22960048Y-10558048D01*
X22960048Y-10637952D01*
X23039952Y-10637952D01*
X23039952Y-10866952D02*
X23039952Y-10787048D01*
X22960048Y-10787048D01*
X22960048Y-10866952D01*
X23039952Y-10866952D01*
X23039952Y-11095952D02*
X23039952Y-11016048D01*
X22960048Y-11016048D01*
X22960048Y-11095952D01*
X23039952Y-11095952D01*
X23289952Y-10294452D02*
X23289952Y-10214548D01*
X23210048Y-10214548D01*
X23210048Y-10294452D01*
X23289952Y-10294452D01*
X23289952Y-10523452D02*
X23289952Y-10443548D01*
X23210048Y-10443548D01*
X23210048Y-10523452D01*
X23289952Y-10523452D01*
X23289952Y-10752452D02*
X23289952Y-10672548D01*
X23210048Y-10672548D01*
X23210048Y-10752452D01*
X23289952Y-10752452D01*
X23289952Y-10981452D02*
X23289952Y-10901548D01*
X23210048Y-10901548D01*
X23210048Y-10981452D01*
X23289952Y-10981452D01*
X23289952Y-11210452D02*
X23289952Y-11130548D01*
X23210048Y-11130548D01*
X23210048Y-11210452D01*
X23289952Y-11210452D01*
D14*
X23000000Y-9602000D02*
X23161500Y-9440500D01*
X23000000Y-9279000D01*
X22838500Y-9440500D01*
X23000000Y-9602000D01*
X23000000Y-12101000D02*
X23161500Y-11939500D01*
X23000000Y-11778000D01*
X22838500Y-11939500D01*
X23000000Y-12101000D01*
D11*
X8488277Y-16048984D02*
X8488277Y-15848984D01*
X8488277Y-15848984D02*
X8535896Y-15848984D01*
X8535896Y-15848984D02*
X8564467Y-15858508D01*
X8564467Y-15858508D02*
X8583515Y-15877555D01*
X8583515Y-15877555D02*
X8593039Y-15896603D01*
X8593039Y-15896603D02*
X8602563Y-15934698D01*
X8602563Y-15934698D02*
X8602563Y-15963269D01*
X8602563Y-15963269D02*
X8593039Y-16001365D01*
X8593039Y-16001365D02*
X8583515Y-16020412D01*
X8583515Y-16020412D02*
X8564467Y-16039460D01*
X8564467Y-16039460D02*
X8535896Y-16048984D01*
X8535896Y-16048984D02*
X8488277Y-16048984D01*
X8688277Y-16048984D02*
X8688277Y-15915650D01*
X8688277Y-15953746D02*
X8697801Y-15934698D01*
X8697801Y-15934698D02*
X8707324Y-15925174D01*
X8707324Y-15925174D02*
X8726372Y-15915650D01*
X8726372Y-15915650D02*
X8745420Y-15915650D01*
X8812086Y-16048984D02*
X8812086Y-15915650D01*
X8812086Y-15848984D02*
X8802563Y-15858508D01*
X8802563Y-15858508D02*
X8812086Y-15868031D01*
X8812086Y-15868031D02*
X8821610Y-15858508D01*
X8821610Y-15858508D02*
X8812086Y-15848984D01*
X8812086Y-15848984D02*
X8812086Y-15868031D01*
X8935896Y-16048984D02*
X8916848Y-16039460D01*
X8916848Y-16039460D02*
X8907324Y-16020412D01*
X8907324Y-16020412D02*
X8907324Y-15848984D01*
X9040658Y-16048984D02*
X9021610Y-16039460D01*
X9021610Y-16039460D02*
X9012086Y-16020412D01*
X9012086Y-16020412D02*
X9012086Y-15848984D01*
X9269229Y-16048984D02*
X9269229Y-15848984D01*
X9269229Y-15848984D02*
X9335896Y-15991841D01*
X9335896Y-15991841D02*
X9402563Y-15848984D01*
X9402563Y-15848984D02*
X9402563Y-16048984D01*
X9583515Y-16048984D02*
X9583515Y-15944222D01*
X9583515Y-15944222D02*
X9573991Y-15925174D01*
X9573991Y-15925174D02*
X9554944Y-15915650D01*
X9554944Y-15915650D02*
X9516848Y-15915650D01*
X9516848Y-15915650D02*
X9497801Y-15925174D01*
X9583515Y-16039460D02*
X9564467Y-16048984D01*
X9564467Y-16048984D02*
X9516848Y-16048984D01*
X9516848Y-16048984D02*
X9497801Y-16039460D01*
X9497801Y-16039460D02*
X9488277Y-16020412D01*
X9488277Y-16020412D02*
X9488277Y-16001365D01*
X9488277Y-16001365D02*
X9497801Y-15982317D01*
X9497801Y-15982317D02*
X9516848Y-15972793D01*
X9516848Y-15972793D02*
X9564467Y-15972793D01*
X9564467Y-15972793D02*
X9583515Y-15963269D01*
X9678753Y-15915650D02*
X9678753Y-16115650D01*
X9678753Y-15925174D02*
X9697801Y-15915650D01*
X9697801Y-15915650D02*
X9735896Y-15915650D01*
X9735896Y-15915650D02*
X9754944Y-15925174D01*
X9754944Y-15925174D02*
X9764467Y-15934698D01*
X9764467Y-15934698D02*
X9773991Y-15953746D01*
X9773991Y-15953746D02*
X9773991Y-16010888D01*
X9773991Y-16010888D02*
X9764467Y-16029936D01*
X9764467Y-16029936D02*
X9754944Y-16039460D01*
X9754944Y-16039460D02*
X9735896Y-16048984D01*
X9735896Y-16048984D02*
X9697801Y-16048984D01*
X9697801Y-16048984D02*
X9678753Y-16039460D01*
X9859705Y-16029936D02*
X9869229Y-16039460D01*
X9869229Y-16039460D02*
X9859705Y-16048984D01*
X9859705Y-16048984D02*
X9850182Y-16039460D01*
X9850182Y-16039460D02*
X9859705Y-16029936D01*
X9859705Y-16029936D02*
X9859705Y-16048984D01*
X9859705Y-15925174D02*
X9869229Y-15934698D01*
X9869229Y-15934698D02*
X9859705Y-15944222D01*
X9859705Y-15944222D02*
X9850182Y-15934698D01*
X9850182Y-15934698D02*
X9859705Y-15925174D01*
X9859705Y-15925174D02*
X9859705Y-15944222D01*
D12*
X8187500Y-16357500D02*
X8227500Y-16397500D01*
X8227500Y-16357500D02*
X8187500Y-16397500D01*
D11*
X8526372Y-16268984D02*
X8545420Y-16268984D01*
X8545420Y-16268984D02*
X8564467Y-16278508D01*
X8564467Y-16278508D02*
X8573991Y-16288031D01*
X8573991Y-16288031D02*
X8583515Y-16307079D01*
X8583515Y-16307079D02*
X8593039Y-16345174D01*
X8593039Y-16345174D02*
X8593039Y-16392793D01*
X8593039Y-16392793D02*
X8583515Y-16430888D01*
X8583515Y-16430888D02*
X8573991Y-16449936D01*
X8573991Y-16449936D02*
X8564467Y-16459460D01*
X8564467Y-16459460D02*
X8545420Y-16468984D01*
X8545420Y-16468984D02*
X8526372Y-16468984D01*
X8526372Y-16468984D02*
X8507324Y-16459460D01*
X8507324Y-16459460D02*
X8497801Y-16449936D01*
X8497801Y-16449936D02*
X8488277Y-16430888D01*
X8488277Y-16430888D02*
X8478753Y-16392793D01*
X8478753Y-16392793D02*
X8478753Y-16345174D01*
X8478753Y-16345174D02*
X8488277Y-16307079D01*
X8488277Y-16307079D02*
X8497801Y-16288031D01*
X8497801Y-16288031D02*
X8507324Y-16278508D01*
X8507324Y-16278508D02*
X8526372Y-16268984D01*
X8678753Y-16449936D02*
X8688277Y-16459460D01*
X8688277Y-16459460D02*
X8678753Y-16468984D01*
X8678753Y-16468984D02*
X8669229Y-16459460D01*
X8669229Y-16459460D02*
X8678753Y-16449936D01*
X8678753Y-16449936D02*
X8678753Y-16468984D01*
X8859705Y-16335650D02*
X8859705Y-16468984D01*
X8812086Y-16259460D02*
X8764467Y-16402317D01*
X8764467Y-16402317D02*
X8888277Y-16402317D01*
X9002563Y-16268984D02*
X9021610Y-16268984D01*
X9021610Y-16268984D02*
X9040658Y-16278508D01*
X9040658Y-16278508D02*
X9050182Y-16288031D01*
X9050182Y-16288031D02*
X9059705Y-16307079D01*
X9059705Y-16307079D02*
X9069229Y-16345174D01*
X9069229Y-16345174D02*
X9069229Y-16392793D01*
X9069229Y-16392793D02*
X9059705Y-16430888D01*
X9059705Y-16430888D02*
X9050182Y-16449936D01*
X9050182Y-16449936D02*
X9040658Y-16459460D01*
X9040658Y-16459460D02*
X9021610Y-16468984D01*
X9021610Y-16468984D02*
X9002563Y-16468984D01*
X9002563Y-16468984D02*
X8983515Y-16459460D01*
X8983515Y-16459460D02*
X8973991Y-16449936D01*
X8973991Y-16449936D02*
X8964467Y-16430888D01*
X8964467Y-16430888D02*
X8954944Y-16392793D01*
X8954944Y-16392793D02*
X8954944Y-16345174D01*
X8954944Y-16345174D02*
X8964467Y-16307079D01*
X8964467Y-16307079D02*
X8973991Y-16288031D01*
X8973991Y-16288031D02*
X8983515Y-16278508D01*
X8983515Y-16278508D02*
X9002563Y-16268984D01*
X9193039Y-16268984D02*
X9212086Y-16268984D01*
X9212086Y-16268984D02*
X9231134Y-16278508D01*
X9231134Y-16278508D02*
X9240658Y-16288031D01*
X9240658Y-16288031D02*
X9250182Y-16307079D01*
X9250182Y-16307079D02*
X9259705Y-16345174D01*
X9259705Y-16345174D02*
X9259705Y-16392793D01*
X9259705Y-16392793D02*
X9250182Y-16430888D01*
X9250182Y-16430888D02*
X9240658Y-16449936D01*
X9240658Y-16449936D02*
X9231134Y-16459460D01*
X9231134Y-16459460D02*
X9212086Y-16468984D01*
X9212086Y-16468984D02*
X9193039Y-16468984D01*
X9193039Y-16468984D02*
X9173991Y-16459460D01*
X9173991Y-16459460D02*
X9164467Y-16449936D01*
X9164467Y-16449936D02*
X9154944Y-16430888D01*
X9154944Y-16430888D02*
X9145420Y-16392793D01*
X9145420Y-16392793D02*
X9145420Y-16345174D01*
X9145420Y-16345174D02*
X9154944Y-16307079D01*
X9154944Y-16307079D02*
X9164467Y-16288031D01*
X9164467Y-16288031D02*
X9173991Y-16278508D01*
X9173991Y-16278508D02*
X9193039Y-16268984D01*
X9345420Y-16468984D02*
X9345420Y-16335650D01*
X9345420Y-16354698D02*
X9354944Y-16345174D01*
X9354944Y-16345174D02*
X9373991Y-16335650D01*
X9373991Y-16335650D02*
X9402563Y-16335650D01*
X9402563Y-16335650D02*
X9421610Y-16345174D01*
X9421610Y-16345174D02*
X9431134Y-16364222D01*
X9431134Y-16364222D02*
X9431134Y-16468984D01*
X9431134Y-16364222D02*
X9440658Y-16345174D01*
X9440658Y-16345174D02*
X9459705Y-16335650D01*
X9459705Y-16335650D02*
X9488277Y-16335650D01*
X9488277Y-16335650D02*
X9507325Y-16345174D01*
X9507325Y-16345174D02*
X9516848Y-16364222D01*
X9516848Y-16364222D02*
X9516848Y-16468984D01*
X9612086Y-16468984D02*
X9612086Y-16335650D01*
X9612086Y-16354698D02*
X9621610Y-16345174D01*
X9621610Y-16345174D02*
X9640658Y-16335650D01*
X9640658Y-16335650D02*
X9669229Y-16335650D01*
X9669229Y-16335650D02*
X9688277Y-16345174D01*
X9688277Y-16345174D02*
X9697801Y-16364222D01*
X9697801Y-16364222D02*
X9697801Y-16468984D01*
X9697801Y-16364222D02*
X9707325Y-16345174D01*
X9707325Y-16345174D02*
X9726372Y-16335650D01*
X9726372Y-16335650D02*
X9754944Y-16335650D01*
X9754944Y-16335650D02*
X9773991Y-16345174D01*
X9773991Y-16345174D02*
X9783515Y-16364222D01*
X9783515Y-16364222D02*
X9783515Y-16468984D01*
X10173991Y-16259460D02*
X10002563Y-16516603D01*
X10431134Y-16268984D02*
X10450182Y-16268984D01*
X10450182Y-16268984D02*
X10469229Y-16278508D01*
X10469229Y-16278508D02*
X10478753Y-16288031D01*
X10478753Y-16288031D02*
X10488277Y-16307079D01*
X10488277Y-16307079D02*
X10497801Y-16345174D01*
X10497801Y-16345174D02*
X10497801Y-16392793D01*
X10497801Y-16392793D02*
X10488277Y-16430888D01*
X10488277Y-16430888D02*
X10478753Y-16449936D01*
X10478753Y-16449936D02*
X10469229Y-16459460D01*
X10469229Y-16459460D02*
X10450182Y-16468984D01*
X10450182Y-16468984D02*
X10431134Y-16468984D01*
X10431134Y-16468984D02*
X10412087Y-16459460D01*
X10412087Y-16459460D02*
X10402563Y-16449936D01*
X10402563Y-16449936D02*
X10393039Y-16430888D01*
X10393039Y-16430888D02*
X10383515Y-16392793D01*
X10383515Y-16392793D02*
X10383515Y-16345174D01*
X10383515Y-16345174D02*
X10393039Y-16307079D01*
X10393039Y-16307079D02*
X10402563Y-16288031D01*
X10402563Y-16288031D02*
X10412087Y-16278508D01*
X10412087Y-16278508D02*
X10431134Y-16268984D01*
X10583515Y-16449936D02*
X10593039Y-16459460D01*
X10593039Y-16459460D02*
X10583515Y-16468984D01*
X10583515Y-16468984D02*
X10573991Y-16459460D01*
X10573991Y-16459460D02*
X10583515Y-16449936D01*
X10583515Y-16449936D02*
X10583515Y-16468984D01*
X10716848Y-16268984D02*
X10735896Y-16268984D01*
X10735896Y-16268984D02*
X10754944Y-16278508D01*
X10754944Y-16278508D02*
X10764468Y-16288031D01*
X10764468Y-16288031D02*
X10773991Y-16307079D01*
X10773991Y-16307079D02*
X10783515Y-16345174D01*
X10783515Y-16345174D02*
X10783515Y-16392793D01*
X10783515Y-16392793D02*
X10773991Y-16430888D01*
X10773991Y-16430888D02*
X10764468Y-16449936D01*
X10764468Y-16449936D02*
X10754944Y-16459460D01*
X10754944Y-16459460D02*
X10735896Y-16468984D01*
X10735896Y-16468984D02*
X10716848Y-16468984D01*
X10716848Y-16468984D02*
X10697801Y-16459460D01*
X10697801Y-16459460D02*
X10688277Y-16449936D01*
X10688277Y-16449936D02*
X10678753Y-16430888D01*
X10678753Y-16430888D02*
X10669229Y-16392793D01*
X10669229Y-16392793D02*
X10669229Y-16345174D01*
X10669229Y-16345174D02*
X10678753Y-16307079D01*
X10678753Y-16307079D02*
X10688277Y-16288031D01*
X10688277Y-16288031D02*
X10697801Y-16278508D01*
X10697801Y-16278508D02*
X10716848Y-16268984D01*
X10973991Y-16468984D02*
X10859706Y-16468984D01*
X10916848Y-16468984D02*
X10916848Y-16268984D01*
X10916848Y-16268984D02*
X10897801Y-16297555D01*
X10897801Y-16297555D02*
X10878753Y-16316603D01*
X10878753Y-16316603D02*
X10859706Y-16326127D01*
X11154944Y-16268984D02*
X11059706Y-16268984D01*
X11059706Y-16268984D02*
X11050182Y-16364222D01*
X11050182Y-16364222D02*
X11059706Y-16354698D01*
X11059706Y-16354698D02*
X11078753Y-16345174D01*
X11078753Y-16345174D02*
X11126372Y-16345174D01*
X11126372Y-16345174D02*
X11145420Y-16354698D01*
X11145420Y-16354698D02*
X11154944Y-16364222D01*
X11154944Y-16364222D02*
X11164468Y-16383269D01*
X11164468Y-16383269D02*
X11164468Y-16430888D01*
X11164468Y-16430888D02*
X11154944Y-16449936D01*
X11154944Y-16449936D02*
X11145420Y-16459460D01*
X11145420Y-16459460D02*
X11126372Y-16468984D01*
X11126372Y-16468984D02*
X11078753Y-16468984D01*
X11078753Y-16468984D02*
X11059706Y-16459460D01*
X11059706Y-16459460D02*
X11050182Y-16449936D01*
X11231134Y-16268984D02*
X11364467Y-16268984D01*
X11364467Y-16268984D02*
X11278753Y-16468984D01*
X11431134Y-16268984D02*
X11431134Y-16307079D01*
X11507325Y-16268984D02*
X11507325Y-16307079D01*
X11802563Y-16545174D02*
X11793039Y-16535650D01*
X11793039Y-16535650D02*
X11773991Y-16507079D01*
X11773991Y-16507079D02*
X11764468Y-16488031D01*
X11764468Y-16488031D02*
X11754944Y-16459460D01*
X11754944Y-16459460D02*
X11745420Y-16411841D01*
X11745420Y-16411841D02*
X11745420Y-16373746D01*
X11745420Y-16373746D02*
X11754944Y-16326127D01*
X11754944Y-16326127D02*
X11764468Y-16297555D01*
X11764468Y-16297555D02*
X11773991Y-16278508D01*
X11773991Y-16278508D02*
X11793039Y-16249936D01*
X11793039Y-16249936D02*
X11802563Y-16240412D01*
X11859706Y-16268984D02*
X11983515Y-16268984D01*
X11983515Y-16268984D02*
X11916848Y-16345174D01*
X11916848Y-16345174D02*
X11945420Y-16345174D01*
X11945420Y-16345174D02*
X11964468Y-16354698D01*
X11964468Y-16354698D02*
X11973991Y-16364222D01*
X11973991Y-16364222D02*
X11983515Y-16383269D01*
X11983515Y-16383269D02*
X11983515Y-16430888D01*
X11983515Y-16430888D02*
X11973991Y-16449936D01*
X11973991Y-16449936D02*
X11964468Y-16459460D01*
X11964468Y-16459460D02*
X11945420Y-16468984D01*
X11945420Y-16468984D02*
X11888277Y-16468984D01*
X11888277Y-16468984D02*
X11869229Y-16459460D01*
X11869229Y-16459460D02*
X11859706Y-16449936D01*
X12097801Y-16354698D02*
X12078753Y-16345174D01*
X12078753Y-16345174D02*
X12069229Y-16335650D01*
X12069229Y-16335650D02*
X12059706Y-16316603D01*
X12059706Y-16316603D02*
X12059706Y-16307079D01*
X12059706Y-16307079D02*
X12069229Y-16288031D01*
X12069229Y-16288031D02*
X12078753Y-16278508D01*
X12078753Y-16278508D02*
X12097801Y-16268984D01*
X12097801Y-16268984D02*
X12135896Y-16268984D01*
X12135896Y-16268984D02*
X12154944Y-16278508D01*
X12154944Y-16278508D02*
X12164468Y-16288031D01*
X12164468Y-16288031D02*
X12173991Y-16307079D01*
X12173991Y-16307079D02*
X12173991Y-16316603D01*
X12173991Y-16316603D02*
X12164468Y-16335650D01*
X12164468Y-16335650D02*
X12154944Y-16345174D01*
X12154944Y-16345174D02*
X12135896Y-16354698D01*
X12135896Y-16354698D02*
X12097801Y-16354698D01*
X12097801Y-16354698D02*
X12078753Y-16364222D01*
X12078753Y-16364222D02*
X12069229Y-16373746D01*
X12069229Y-16373746D02*
X12059706Y-16392793D01*
X12059706Y-16392793D02*
X12059706Y-16430888D01*
X12059706Y-16430888D02*
X12069229Y-16449936D01*
X12069229Y-16449936D02*
X12078753Y-16459460D01*
X12078753Y-16459460D02*
X12097801Y-16468984D01*
X12097801Y-16468984D02*
X12135896Y-16468984D01*
X12135896Y-16468984D02*
X12154944Y-16459460D01*
X12154944Y-16459460D02*
X12164468Y-16449936D01*
X12164468Y-16449936D02*
X12173991Y-16430888D01*
X12173991Y-16430888D02*
X12173991Y-16392793D01*
X12173991Y-16392793D02*
X12164468Y-16373746D01*
X12164468Y-16373746D02*
X12154944Y-16364222D01*
X12154944Y-16364222D02*
X12135896Y-16354698D01*
X12345420Y-16335650D02*
X12345420Y-16468984D01*
X12297801Y-16259460D02*
X12250182Y-16402317D01*
X12250182Y-16402317D02*
X12373991Y-16402317D01*
X12602563Y-16468984D02*
X12602563Y-16268984D01*
X12688277Y-16468984D02*
X12688277Y-16364222D01*
X12688277Y-16364222D02*
X12678753Y-16345174D01*
X12678753Y-16345174D02*
X12659706Y-16335650D01*
X12659706Y-16335650D02*
X12631134Y-16335650D01*
X12631134Y-16335650D02*
X12612087Y-16345174D01*
X12612087Y-16345174D02*
X12602563Y-16354698D01*
X12812087Y-16468984D02*
X12793039Y-16459460D01*
X12793039Y-16459460D02*
X12783515Y-16449936D01*
X12783515Y-16449936D02*
X12773991Y-16430888D01*
X12773991Y-16430888D02*
X12773991Y-16373746D01*
X12773991Y-16373746D02*
X12783515Y-16354698D01*
X12783515Y-16354698D02*
X12793039Y-16345174D01*
X12793039Y-16345174D02*
X12812087Y-16335650D01*
X12812087Y-16335650D02*
X12840658Y-16335650D01*
X12840658Y-16335650D02*
X12859706Y-16345174D01*
X12859706Y-16345174D02*
X12869230Y-16354698D01*
X12869230Y-16354698D02*
X12878753Y-16373746D01*
X12878753Y-16373746D02*
X12878753Y-16430888D01*
X12878753Y-16430888D02*
X12869230Y-16449936D01*
X12869230Y-16449936D02*
X12859706Y-16459460D01*
X12859706Y-16459460D02*
X12840658Y-16468984D01*
X12840658Y-16468984D02*
X12812087Y-16468984D01*
X12993039Y-16468984D02*
X12973991Y-16459460D01*
X12973991Y-16459460D02*
X12964468Y-16440412D01*
X12964468Y-16440412D02*
X12964468Y-16268984D01*
X13145420Y-16459460D02*
X13126372Y-16468984D01*
X13126372Y-16468984D02*
X13088277Y-16468984D01*
X13088277Y-16468984D02*
X13069230Y-16459460D01*
X13069230Y-16459460D02*
X13059706Y-16440412D01*
X13059706Y-16440412D02*
X13059706Y-16364222D01*
X13059706Y-16364222D02*
X13069230Y-16345174D01*
X13069230Y-16345174D02*
X13088277Y-16335650D01*
X13088277Y-16335650D02*
X13126372Y-16335650D01*
X13126372Y-16335650D02*
X13145420Y-16345174D01*
X13145420Y-16345174D02*
X13154944Y-16364222D01*
X13154944Y-16364222D02*
X13154944Y-16383269D01*
X13154944Y-16383269D02*
X13059706Y-16402317D01*
X13231134Y-16459460D02*
X13250182Y-16468984D01*
X13250182Y-16468984D02*
X13288277Y-16468984D01*
X13288277Y-16468984D02*
X13307325Y-16459460D01*
X13307325Y-16459460D02*
X13316849Y-16440412D01*
X13316849Y-16440412D02*
X13316849Y-16430888D01*
X13316849Y-16430888D02*
X13307325Y-16411841D01*
X13307325Y-16411841D02*
X13288277Y-16402317D01*
X13288277Y-16402317D02*
X13259706Y-16402317D01*
X13259706Y-16402317D02*
X13240658Y-16392793D01*
X13240658Y-16392793D02*
X13231134Y-16373746D01*
X13231134Y-16373746D02*
X13231134Y-16364222D01*
X13231134Y-16364222D02*
X13240658Y-16345174D01*
X13240658Y-16345174D02*
X13259706Y-16335650D01*
X13259706Y-16335650D02*
X13288277Y-16335650D01*
X13288277Y-16335650D02*
X13307325Y-16345174D01*
X13383515Y-16545174D02*
X13393039Y-16535650D01*
X13393039Y-16535650D02*
X13412087Y-16507079D01*
X13412087Y-16507079D02*
X13421611Y-16488031D01*
X13421611Y-16488031D02*
X13431134Y-16459460D01*
X13431134Y-16459460D02*
X13440658Y-16411841D01*
X13440658Y-16411841D02*
X13440658Y-16373746D01*
X13440658Y-16373746D02*
X13431134Y-16326127D01*
X13431134Y-16326127D02*
X13421611Y-16297555D01*
X13421611Y-16297555D02*
X13412087Y-16278508D01*
X13412087Y-16278508D02*
X13393039Y-16249936D01*
X13393039Y-16249936D02*
X13383515Y-16240412D01*
D12*
X8227500Y-16641500D02*
G75*
G02*
X8162500Y-16641500I-32500J0D01*
G01*
X8162500Y-16641500D02*
G75*
G02*
X8227500Y-16641500I32500J0D01*
G01*
D11*
X8526372Y-16532984D02*
X8545420Y-16532984D01*
X8545420Y-16532984D02*
X8564467Y-16542508D01*
X8564467Y-16542508D02*
X8573991Y-16552031D01*
X8573991Y-16552031D02*
X8583515Y-16571079D01*
X8583515Y-16571079D02*
X8593039Y-16609174D01*
X8593039Y-16609174D02*
X8593039Y-16656793D01*
X8593039Y-16656793D02*
X8583515Y-16694888D01*
X8583515Y-16694888D02*
X8573991Y-16713936D01*
X8573991Y-16713936D02*
X8564467Y-16723460D01*
X8564467Y-16723460D02*
X8545420Y-16732984D01*
X8545420Y-16732984D02*
X8526372Y-16732984D01*
X8526372Y-16732984D02*
X8507324Y-16723460D01*
X8507324Y-16723460D02*
X8497801Y-16713936D01*
X8497801Y-16713936D02*
X8488277Y-16694888D01*
X8488277Y-16694888D02*
X8478753Y-16656793D01*
X8478753Y-16656793D02*
X8478753Y-16609174D01*
X8478753Y-16609174D02*
X8488277Y-16571079D01*
X8488277Y-16571079D02*
X8497801Y-16552031D01*
X8497801Y-16552031D02*
X8507324Y-16542508D01*
X8507324Y-16542508D02*
X8526372Y-16532984D01*
X8678753Y-16713936D02*
X8688277Y-16723460D01*
X8688277Y-16723460D02*
X8678753Y-16732984D01*
X8678753Y-16732984D02*
X8669229Y-16723460D01*
X8669229Y-16723460D02*
X8678753Y-16713936D01*
X8678753Y-16713936D02*
X8678753Y-16732984D01*
X8859705Y-16532984D02*
X8821610Y-16532984D01*
X8821610Y-16532984D02*
X8802563Y-16542508D01*
X8802563Y-16542508D02*
X8793039Y-16552031D01*
X8793039Y-16552031D02*
X8773991Y-16580603D01*
X8773991Y-16580603D02*
X8764467Y-16618698D01*
X8764467Y-16618698D02*
X8764467Y-16694888D01*
X8764467Y-16694888D02*
X8773991Y-16713936D01*
X8773991Y-16713936D02*
X8783515Y-16723460D01*
X8783515Y-16723460D02*
X8802563Y-16732984D01*
X8802563Y-16732984D02*
X8840658Y-16732984D01*
X8840658Y-16732984D02*
X8859705Y-16723460D01*
X8859705Y-16723460D02*
X8869229Y-16713936D01*
X8869229Y-16713936D02*
X8878753Y-16694888D01*
X8878753Y-16694888D02*
X8878753Y-16647269D01*
X8878753Y-16647269D02*
X8869229Y-16628222D01*
X8869229Y-16628222D02*
X8859705Y-16618698D01*
X8859705Y-16618698D02*
X8840658Y-16609174D01*
X8840658Y-16609174D02*
X8802563Y-16609174D01*
X8802563Y-16609174D02*
X8783515Y-16618698D01*
X8783515Y-16618698D02*
X8773991Y-16628222D01*
X8773991Y-16628222D02*
X8764467Y-16647269D01*
X9059705Y-16532984D02*
X8964467Y-16532984D01*
X8964467Y-16532984D02*
X8954944Y-16628222D01*
X8954944Y-16628222D02*
X8964467Y-16618698D01*
X8964467Y-16618698D02*
X8983515Y-16609174D01*
X8983515Y-16609174D02*
X9031134Y-16609174D01*
X9031134Y-16609174D02*
X9050182Y-16618698D01*
X9050182Y-16618698D02*
X9059705Y-16628222D01*
X9059705Y-16628222D02*
X9069229Y-16647269D01*
X9069229Y-16647269D02*
X9069229Y-16694888D01*
X9069229Y-16694888D02*
X9059705Y-16713936D01*
X9059705Y-16713936D02*
X9050182Y-16723460D01*
X9050182Y-16723460D02*
X9031134Y-16732984D01*
X9031134Y-16732984D02*
X8983515Y-16732984D01*
X8983515Y-16732984D02*
X8964467Y-16723460D01*
X8964467Y-16723460D02*
X8954944Y-16713936D01*
X9193039Y-16532984D02*
X9212086Y-16532984D01*
X9212086Y-16532984D02*
X9231134Y-16542508D01*
X9231134Y-16542508D02*
X9240658Y-16552031D01*
X9240658Y-16552031D02*
X9250182Y-16571079D01*
X9250182Y-16571079D02*
X9259705Y-16609174D01*
X9259705Y-16609174D02*
X9259705Y-16656793D01*
X9259705Y-16656793D02*
X9250182Y-16694888D01*
X9250182Y-16694888D02*
X9240658Y-16713936D01*
X9240658Y-16713936D02*
X9231134Y-16723460D01*
X9231134Y-16723460D02*
X9212086Y-16732984D01*
X9212086Y-16732984D02*
X9193039Y-16732984D01*
X9193039Y-16732984D02*
X9173991Y-16723460D01*
X9173991Y-16723460D02*
X9164467Y-16713936D01*
X9164467Y-16713936D02*
X9154944Y-16694888D01*
X9154944Y-16694888D02*
X9145420Y-16656793D01*
X9145420Y-16656793D02*
X9145420Y-16609174D01*
X9145420Y-16609174D02*
X9154944Y-16571079D01*
X9154944Y-16571079D02*
X9164467Y-16552031D01*
X9164467Y-16552031D02*
X9173991Y-16542508D01*
X9173991Y-16542508D02*
X9193039Y-16532984D01*
X9345420Y-16732984D02*
X9345420Y-16599650D01*
X9345420Y-16618698D02*
X9354944Y-16609174D01*
X9354944Y-16609174D02*
X9373991Y-16599650D01*
X9373991Y-16599650D02*
X9402563Y-16599650D01*
X9402563Y-16599650D02*
X9421610Y-16609174D01*
X9421610Y-16609174D02*
X9431134Y-16628222D01*
X9431134Y-16628222D02*
X9431134Y-16732984D01*
X9431134Y-16628222D02*
X9440658Y-16609174D01*
X9440658Y-16609174D02*
X9459705Y-16599650D01*
X9459705Y-16599650D02*
X9488277Y-16599650D01*
X9488277Y-16599650D02*
X9507325Y-16609174D01*
X9507325Y-16609174D02*
X9516848Y-16628222D01*
X9516848Y-16628222D02*
X9516848Y-16732984D01*
X9612086Y-16732984D02*
X9612086Y-16599650D01*
X9612086Y-16618698D02*
X9621610Y-16609174D01*
X9621610Y-16609174D02*
X9640658Y-16599650D01*
X9640658Y-16599650D02*
X9669229Y-16599650D01*
X9669229Y-16599650D02*
X9688277Y-16609174D01*
X9688277Y-16609174D02*
X9697801Y-16628222D01*
X9697801Y-16628222D02*
X9697801Y-16732984D01*
X9697801Y-16628222D02*
X9707325Y-16609174D01*
X9707325Y-16609174D02*
X9726372Y-16599650D01*
X9726372Y-16599650D02*
X9754944Y-16599650D01*
X9754944Y-16599650D02*
X9773991Y-16609174D01*
X9773991Y-16609174D02*
X9783515Y-16628222D01*
X9783515Y-16628222D02*
X9783515Y-16732984D01*
X10173991Y-16523460D02*
X10002563Y-16780603D01*
X10431134Y-16532984D02*
X10450182Y-16532984D01*
X10450182Y-16532984D02*
X10469229Y-16542508D01*
X10469229Y-16542508D02*
X10478753Y-16552031D01*
X10478753Y-16552031D02*
X10488277Y-16571079D01*
X10488277Y-16571079D02*
X10497801Y-16609174D01*
X10497801Y-16609174D02*
X10497801Y-16656793D01*
X10497801Y-16656793D02*
X10488277Y-16694888D01*
X10488277Y-16694888D02*
X10478753Y-16713936D01*
X10478753Y-16713936D02*
X10469229Y-16723460D01*
X10469229Y-16723460D02*
X10450182Y-16732984D01*
X10450182Y-16732984D02*
X10431134Y-16732984D01*
X10431134Y-16732984D02*
X10412087Y-16723460D01*
X10412087Y-16723460D02*
X10402563Y-16713936D01*
X10402563Y-16713936D02*
X10393039Y-16694888D01*
X10393039Y-16694888D02*
X10383515Y-16656793D01*
X10383515Y-16656793D02*
X10383515Y-16609174D01*
X10383515Y-16609174D02*
X10393039Y-16571079D01*
X10393039Y-16571079D02*
X10402563Y-16552031D01*
X10402563Y-16552031D02*
X10412087Y-16542508D01*
X10412087Y-16542508D02*
X10431134Y-16532984D01*
X10583515Y-16713936D02*
X10593039Y-16723460D01*
X10593039Y-16723460D02*
X10583515Y-16732984D01*
X10583515Y-16732984D02*
X10573991Y-16723460D01*
X10573991Y-16723460D02*
X10583515Y-16713936D01*
X10583515Y-16713936D02*
X10583515Y-16732984D01*
X10716848Y-16532984D02*
X10735896Y-16532984D01*
X10735896Y-16532984D02*
X10754944Y-16542508D01*
X10754944Y-16542508D02*
X10764468Y-16552031D01*
X10764468Y-16552031D02*
X10773991Y-16571079D01*
X10773991Y-16571079D02*
X10783515Y-16609174D01*
X10783515Y-16609174D02*
X10783515Y-16656793D01*
X10783515Y-16656793D02*
X10773991Y-16694888D01*
X10773991Y-16694888D02*
X10764468Y-16713936D01*
X10764468Y-16713936D02*
X10754944Y-16723460D01*
X10754944Y-16723460D02*
X10735896Y-16732984D01*
X10735896Y-16732984D02*
X10716848Y-16732984D01*
X10716848Y-16732984D02*
X10697801Y-16723460D01*
X10697801Y-16723460D02*
X10688277Y-16713936D01*
X10688277Y-16713936D02*
X10678753Y-16694888D01*
X10678753Y-16694888D02*
X10669229Y-16656793D01*
X10669229Y-16656793D02*
X10669229Y-16609174D01*
X10669229Y-16609174D02*
X10678753Y-16571079D01*
X10678753Y-16571079D02*
X10688277Y-16552031D01*
X10688277Y-16552031D02*
X10697801Y-16542508D01*
X10697801Y-16542508D02*
X10716848Y-16532984D01*
X10859706Y-16552031D02*
X10869229Y-16542508D01*
X10869229Y-16542508D02*
X10888277Y-16532984D01*
X10888277Y-16532984D02*
X10935896Y-16532984D01*
X10935896Y-16532984D02*
X10954944Y-16542508D01*
X10954944Y-16542508D02*
X10964468Y-16552031D01*
X10964468Y-16552031D02*
X10973991Y-16571079D01*
X10973991Y-16571079D02*
X10973991Y-16590127D01*
X10973991Y-16590127D02*
X10964468Y-16618698D01*
X10964468Y-16618698D02*
X10850182Y-16732984D01*
X10850182Y-16732984D02*
X10973991Y-16732984D01*
X11154944Y-16532984D02*
X11059706Y-16532984D01*
X11059706Y-16532984D02*
X11050182Y-16628222D01*
X11050182Y-16628222D02*
X11059706Y-16618698D01*
X11059706Y-16618698D02*
X11078753Y-16609174D01*
X11078753Y-16609174D02*
X11126372Y-16609174D01*
X11126372Y-16609174D02*
X11145420Y-16618698D01*
X11145420Y-16618698D02*
X11154944Y-16628222D01*
X11154944Y-16628222D02*
X11164468Y-16647269D01*
X11164468Y-16647269D02*
X11164468Y-16694888D01*
X11164468Y-16694888D02*
X11154944Y-16713936D01*
X11154944Y-16713936D02*
X11145420Y-16723460D01*
X11145420Y-16723460D02*
X11126372Y-16732984D01*
X11126372Y-16732984D02*
X11078753Y-16732984D01*
X11078753Y-16732984D02*
X11059706Y-16723460D01*
X11059706Y-16723460D02*
X11050182Y-16713936D01*
X11335896Y-16532984D02*
X11297801Y-16532984D01*
X11297801Y-16532984D02*
X11278753Y-16542508D01*
X11278753Y-16542508D02*
X11269229Y-16552031D01*
X11269229Y-16552031D02*
X11250182Y-16580603D01*
X11250182Y-16580603D02*
X11240658Y-16618698D01*
X11240658Y-16618698D02*
X11240658Y-16694888D01*
X11240658Y-16694888D02*
X11250182Y-16713936D01*
X11250182Y-16713936D02*
X11259706Y-16723460D01*
X11259706Y-16723460D02*
X11278753Y-16732984D01*
X11278753Y-16732984D02*
X11316848Y-16732984D01*
X11316848Y-16732984D02*
X11335896Y-16723460D01*
X11335896Y-16723460D02*
X11345420Y-16713936D01*
X11345420Y-16713936D02*
X11354944Y-16694888D01*
X11354944Y-16694888D02*
X11354944Y-16647269D01*
X11354944Y-16647269D02*
X11345420Y-16628222D01*
X11345420Y-16628222D02*
X11335896Y-16618698D01*
X11335896Y-16618698D02*
X11316848Y-16609174D01*
X11316848Y-16609174D02*
X11278753Y-16609174D01*
X11278753Y-16609174D02*
X11259706Y-16618698D01*
X11259706Y-16618698D02*
X11250182Y-16628222D01*
X11250182Y-16628222D02*
X11240658Y-16647269D01*
X11431134Y-16532984D02*
X11431134Y-16571079D01*
X11507325Y-16532984D02*
X11507325Y-16571079D01*
X11802563Y-16809174D02*
X11793039Y-16799650D01*
X11793039Y-16799650D02*
X11773991Y-16771079D01*
X11773991Y-16771079D02*
X11764468Y-16752031D01*
X11764468Y-16752031D02*
X11754944Y-16723460D01*
X11754944Y-16723460D02*
X11745420Y-16675841D01*
X11745420Y-16675841D02*
X11745420Y-16637746D01*
X11745420Y-16637746D02*
X11754944Y-16590127D01*
X11754944Y-16590127D02*
X11764468Y-16561555D01*
X11764468Y-16561555D02*
X11773991Y-16542508D01*
X11773991Y-16542508D02*
X11793039Y-16513936D01*
X11793039Y-16513936D02*
X11802563Y-16504412D01*
X11964468Y-16599650D02*
X11964468Y-16732984D01*
X11916848Y-16523460D02*
X11869229Y-16666317D01*
X11869229Y-16666317D02*
X11993039Y-16666317D01*
X12221610Y-16732984D02*
X12221610Y-16532984D01*
X12307325Y-16732984D02*
X12307325Y-16628222D01*
X12307325Y-16628222D02*
X12297801Y-16609174D01*
X12297801Y-16609174D02*
X12278753Y-16599650D01*
X12278753Y-16599650D02*
X12250182Y-16599650D01*
X12250182Y-16599650D02*
X12231134Y-16609174D01*
X12231134Y-16609174D02*
X12221610Y-16618698D01*
X12431134Y-16732984D02*
X12412087Y-16723460D01*
X12412087Y-16723460D02*
X12402563Y-16713936D01*
X12402563Y-16713936D02*
X12393039Y-16694888D01*
X12393039Y-16694888D02*
X12393039Y-16637746D01*
X12393039Y-16637746D02*
X12402563Y-16618698D01*
X12402563Y-16618698D02*
X12412087Y-16609174D01*
X12412087Y-16609174D02*
X12431134Y-16599650D01*
X12431134Y-16599650D02*
X12459706Y-16599650D01*
X12459706Y-16599650D02*
X12478753Y-16609174D01*
X12478753Y-16609174D02*
X12488277Y-16618698D01*
X12488277Y-16618698D02*
X12497801Y-16637746D01*
X12497801Y-16637746D02*
X12497801Y-16694888D01*
X12497801Y-16694888D02*
X12488277Y-16713936D01*
X12488277Y-16713936D02*
X12478753Y-16723460D01*
X12478753Y-16723460D02*
X12459706Y-16732984D01*
X12459706Y-16732984D02*
X12431134Y-16732984D01*
X12612087Y-16732984D02*
X12593039Y-16723460D01*
X12593039Y-16723460D02*
X12583515Y-16704412D01*
X12583515Y-16704412D02*
X12583515Y-16532984D01*
X12764468Y-16723460D02*
X12745420Y-16732984D01*
X12745420Y-16732984D02*
X12707325Y-16732984D01*
X12707325Y-16732984D02*
X12688277Y-16723460D01*
X12688277Y-16723460D02*
X12678753Y-16704412D01*
X12678753Y-16704412D02*
X12678753Y-16628222D01*
X12678753Y-16628222D02*
X12688277Y-16609174D01*
X12688277Y-16609174D02*
X12707325Y-16599650D01*
X12707325Y-16599650D02*
X12745420Y-16599650D01*
X12745420Y-16599650D02*
X12764468Y-16609174D01*
X12764468Y-16609174D02*
X12773991Y-16628222D01*
X12773991Y-16628222D02*
X12773991Y-16647269D01*
X12773991Y-16647269D02*
X12678753Y-16666317D01*
X12850182Y-16723460D02*
X12869230Y-16732984D01*
X12869230Y-16732984D02*
X12907325Y-16732984D01*
X12907325Y-16732984D02*
X12926372Y-16723460D01*
X12926372Y-16723460D02*
X12935896Y-16704412D01*
X12935896Y-16704412D02*
X12935896Y-16694888D01*
X12935896Y-16694888D02*
X12926372Y-16675841D01*
X12926372Y-16675841D02*
X12907325Y-16666317D01*
X12907325Y-16666317D02*
X12878753Y-16666317D01*
X12878753Y-16666317D02*
X12859706Y-16656793D01*
X12859706Y-16656793D02*
X12850182Y-16637746D01*
X12850182Y-16637746D02*
X12850182Y-16628222D01*
X12850182Y-16628222D02*
X12859706Y-16609174D01*
X12859706Y-16609174D02*
X12878753Y-16599650D01*
X12878753Y-16599650D02*
X12907325Y-16599650D01*
X12907325Y-16599650D02*
X12926372Y-16609174D01*
X13002563Y-16809174D02*
X13012087Y-16799650D01*
X13012087Y-16799650D02*
X13031134Y-16771079D01*
X13031134Y-16771079D02*
X13040658Y-16752031D01*
X13040658Y-16752031D02*
X13050182Y-16723460D01*
X13050182Y-16723460D02*
X13059706Y-16675841D01*
X13059706Y-16675841D02*
X13059706Y-16637746D01*
X13059706Y-16637746D02*
X13050182Y-16590127D01*
X13050182Y-16590127D02*
X13040658Y-16561555D01*
X13040658Y-16561555D02*
X13031134Y-16542508D01*
X13031134Y-16542508D02*
X13012087Y-16513936D01*
X13012087Y-16513936D02*
X13002563Y-16504412D01*
D12*
X8177500Y-16855500D02*
X8177500Y-16955500D01*
X8127500Y-16905500D02*
X8227500Y-16905500D01*
D11*
X8593039Y-16996984D02*
X8478753Y-16996984D01*
X8535896Y-16996984D02*
X8535896Y-16796984D01*
X8535896Y-16796984D02*
X8516848Y-16825555D01*
X8516848Y-16825555D02*
X8497801Y-16844603D01*
X8497801Y-16844603D02*
X8478753Y-16854127D01*
X8678753Y-16977936D02*
X8688277Y-16987460D01*
X8688277Y-16987460D02*
X8678753Y-16996984D01*
X8678753Y-16996984D02*
X8669229Y-16987460D01*
X8669229Y-16987460D02*
X8678753Y-16977936D01*
X8678753Y-16977936D02*
X8678753Y-16996984D01*
X8812086Y-16796984D02*
X8831134Y-16796984D01*
X8831134Y-16796984D02*
X8850182Y-16806508D01*
X8850182Y-16806508D02*
X8859705Y-16816031D01*
X8859705Y-16816031D02*
X8869229Y-16835079D01*
X8869229Y-16835079D02*
X8878753Y-16873174D01*
X8878753Y-16873174D02*
X8878753Y-16920793D01*
X8878753Y-16920793D02*
X8869229Y-16958889D01*
X8869229Y-16958889D02*
X8859705Y-16977936D01*
X8859705Y-16977936D02*
X8850182Y-16987460D01*
X8850182Y-16987460D02*
X8831134Y-16996984D01*
X8831134Y-16996984D02*
X8812086Y-16996984D01*
X8812086Y-16996984D02*
X8793039Y-16987460D01*
X8793039Y-16987460D02*
X8783515Y-16977936D01*
X8783515Y-16977936D02*
X8773991Y-16958889D01*
X8773991Y-16958889D02*
X8764467Y-16920793D01*
X8764467Y-16920793D02*
X8764467Y-16873174D01*
X8764467Y-16873174D02*
X8773991Y-16835079D01*
X8773991Y-16835079D02*
X8783515Y-16816031D01*
X8783515Y-16816031D02*
X8793039Y-16806508D01*
X8793039Y-16806508D02*
X8812086Y-16796984D01*
X9002563Y-16796984D02*
X9021610Y-16796984D01*
X9021610Y-16796984D02*
X9040658Y-16806508D01*
X9040658Y-16806508D02*
X9050182Y-16816031D01*
X9050182Y-16816031D02*
X9059705Y-16835079D01*
X9059705Y-16835079D02*
X9069229Y-16873174D01*
X9069229Y-16873174D02*
X9069229Y-16920793D01*
X9069229Y-16920793D02*
X9059705Y-16958889D01*
X9059705Y-16958889D02*
X9050182Y-16977936D01*
X9050182Y-16977936D02*
X9040658Y-16987460D01*
X9040658Y-16987460D02*
X9021610Y-16996984D01*
X9021610Y-16996984D02*
X9002563Y-16996984D01*
X9002563Y-16996984D02*
X8983515Y-16987460D01*
X8983515Y-16987460D02*
X8973991Y-16977936D01*
X8973991Y-16977936D02*
X8964467Y-16958889D01*
X8964467Y-16958889D02*
X8954944Y-16920793D01*
X8954944Y-16920793D02*
X8954944Y-16873174D01*
X8954944Y-16873174D02*
X8964467Y-16835079D01*
X8964467Y-16835079D02*
X8973991Y-16816031D01*
X8973991Y-16816031D02*
X8983515Y-16806508D01*
X8983515Y-16806508D02*
X9002563Y-16796984D01*
X9193039Y-16796984D02*
X9212086Y-16796984D01*
X9212086Y-16796984D02*
X9231134Y-16806508D01*
X9231134Y-16806508D02*
X9240658Y-16816031D01*
X9240658Y-16816031D02*
X9250182Y-16835079D01*
X9250182Y-16835079D02*
X9259705Y-16873174D01*
X9259705Y-16873174D02*
X9259705Y-16920793D01*
X9259705Y-16920793D02*
X9250182Y-16958889D01*
X9250182Y-16958889D02*
X9240658Y-16977936D01*
X9240658Y-16977936D02*
X9231134Y-16987460D01*
X9231134Y-16987460D02*
X9212086Y-16996984D01*
X9212086Y-16996984D02*
X9193039Y-16996984D01*
X9193039Y-16996984D02*
X9173991Y-16987460D01*
X9173991Y-16987460D02*
X9164467Y-16977936D01*
X9164467Y-16977936D02*
X9154944Y-16958889D01*
X9154944Y-16958889D02*
X9145420Y-16920793D01*
X9145420Y-16920793D02*
X9145420Y-16873174D01*
X9145420Y-16873174D02*
X9154944Y-16835079D01*
X9154944Y-16835079D02*
X9164467Y-16816031D01*
X9164467Y-16816031D02*
X9173991Y-16806508D01*
X9173991Y-16806508D02*
X9193039Y-16796984D01*
X9345420Y-16996984D02*
X9345420Y-16863650D01*
X9345420Y-16882698D02*
X9354944Y-16873174D01*
X9354944Y-16873174D02*
X9373991Y-16863650D01*
X9373991Y-16863650D02*
X9402563Y-16863650D01*
X9402563Y-16863650D02*
X9421610Y-16873174D01*
X9421610Y-16873174D02*
X9431134Y-16892222D01*
X9431134Y-16892222D02*
X9431134Y-16996984D01*
X9431134Y-16892222D02*
X9440658Y-16873174D01*
X9440658Y-16873174D02*
X9459705Y-16863650D01*
X9459705Y-16863650D02*
X9488277Y-16863650D01*
X9488277Y-16863650D02*
X9507325Y-16873174D01*
X9507325Y-16873174D02*
X9516848Y-16892222D01*
X9516848Y-16892222D02*
X9516848Y-16996984D01*
X9612086Y-16996984D02*
X9612086Y-16863650D01*
X9612086Y-16882698D02*
X9621610Y-16873174D01*
X9621610Y-16873174D02*
X9640658Y-16863650D01*
X9640658Y-16863650D02*
X9669229Y-16863650D01*
X9669229Y-16863650D02*
X9688277Y-16873174D01*
X9688277Y-16873174D02*
X9697801Y-16892222D01*
X9697801Y-16892222D02*
X9697801Y-16996984D01*
X9697801Y-16892222D02*
X9707325Y-16873174D01*
X9707325Y-16873174D02*
X9726372Y-16863650D01*
X9726372Y-16863650D02*
X9754944Y-16863650D01*
X9754944Y-16863650D02*
X9773991Y-16873174D01*
X9773991Y-16873174D02*
X9783515Y-16892222D01*
X9783515Y-16892222D02*
X9783515Y-16996984D01*
X10173991Y-16787460D02*
X10002563Y-17044603D01*
X10431134Y-16796984D02*
X10450182Y-16796984D01*
X10450182Y-16796984D02*
X10469229Y-16806508D01*
X10469229Y-16806508D02*
X10478753Y-16816031D01*
X10478753Y-16816031D02*
X10488277Y-16835079D01*
X10488277Y-16835079D02*
X10497801Y-16873174D01*
X10497801Y-16873174D02*
X10497801Y-16920793D01*
X10497801Y-16920793D02*
X10488277Y-16958889D01*
X10488277Y-16958889D02*
X10478753Y-16977936D01*
X10478753Y-16977936D02*
X10469229Y-16987460D01*
X10469229Y-16987460D02*
X10450182Y-16996984D01*
X10450182Y-16996984D02*
X10431134Y-16996984D01*
X10431134Y-16996984D02*
X10412087Y-16987460D01*
X10412087Y-16987460D02*
X10402563Y-16977936D01*
X10402563Y-16977936D02*
X10393039Y-16958889D01*
X10393039Y-16958889D02*
X10383515Y-16920793D01*
X10383515Y-16920793D02*
X10383515Y-16873174D01*
X10383515Y-16873174D02*
X10393039Y-16835079D01*
X10393039Y-16835079D02*
X10402563Y-16816031D01*
X10402563Y-16816031D02*
X10412087Y-16806508D01*
X10412087Y-16806508D02*
X10431134Y-16796984D01*
X10583515Y-16977936D02*
X10593039Y-16987460D01*
X10593039Y-16987460D02*
X10583515Y-16996984D01*
X10583515Y-16996984D02*
X10573991Y-16987460D01*
X10573991Y-16987460D02*
X10583515Y-16977936D01*
X10583515Y-16977936D02*
X10583515Y-16996984D01*
X10716848Y-16796984D02*
X10735896Y-16796984D01*
X10735896Y-16796984D02*
X10754944Y-16806508D01*
X10754944Y-16806508D02*
X10764468Y-16816031D01*
X10764468Y-16816031D02*
X10773991Y-16835079D01*
X10773991Y-16835079D02*
X10783515Y-16873174D01*
X10783515Y-16873174D02*
X10783515Y-16920793D01*
X10783515Y-16920793D02*
X10773991Y-16958889D01*
X10773991Y-16958889D02*
X10764468Y-16977936D01*
X10764468Y-16977936D02*
X10754944Y-16987460D01*
X10754944Y-16987460D02*
X10735896Y-16996984D01*
X10735896Y-16996984D02*
X10716848Y-16996984D01*
X10716848Y-16996984D02*
X10697801Y-16987460D01*
X10697801Y-16987460D02*
X10688277Y-16977936D01*
X10688277Y-16977936D02*
X10678753Y-16958889D01*
X10678753Y-16958889D02*
X10669229Y-16920793D01*
X10669229Y-16920793D02*
X10669229Y-16873174D01*
X10669229Y-16873174D02*
X10678753Y-16835079D01*
X10678753Y-16835079D02*
X10688277Y-16816031D01*
X10688277Y-16816031D02*
X10697801Y-16806508D01*
X10697801Y-16806508D02*
X10716848Y-16796984D01*
X10850182Y-16796984D02*
X10973991Y-16796984D01*
X10973991Y-16796984D02*
X10907325Y-16873174D01*
X10907325Y-16873174D02*
X10935896Y-16873174D01*
X10935896Y-16873174D02*
X10954944Y-16882698D01*
X10954944Y-16882698D02*
X10964468Y-16892222D01*
X10964468Y-16892222D02*
X10973991Y-16911270D01*
X10973991Y-16911270D02*
X10973991Y-16958889D01*
X10973991Y-16958889D02*
X10964468Y-16977936D01*
X10964468Y-16977936D02*
X10954944Y-16987460D01*
X10954944Y-16987460D02*
X10935896Y-16996984D01*
X10935896Y-16996984D02*
X10878753Y-16996984D01*
X10878753Y-16996984D02*
X10859706Y-16987460D01*
X10859706Y-16987460D02*
X10850182Y-16977936D01*
X11069229Y-16996984D02*
X11107325Y-16996984D01*
X11107325Y-16996984D02*
X11126372Y-16987460D01*
X11126372Y-16987460D02*
X11135896Y-16977936D01*
X11135896Y-16977936D02*
X11154944Y-16949365D01*
X11154944Y-16949365D02*
X11164468Y-16911270D01*
X11164468Y-16911270D02*
X11164468Y-16835079D01*
X11164468Y-16835079D02*
X11154944Y-16816031D01*
X11154944Y-16816031D02*
X11145420Y-16806508D01*
X11145420Y-16806508D02*
X11126372Y-16796984D01*
X11126372Y-16796984D02*
X11088277Y-16796984D01*
X11088277Y-16796984D02*
X11069229Y-16806508D01*
X11069229Y-16806508D02*
X11059706Y-16816031D01*
X11059706Y-16816031D02*
X11050182Y-16835079D01*
X11050182Y-16835079D02*
X11050182Y-16882698D01*
X11050182Y-16882698D02*
X11059706Y-16901746D01*
X11059706Y-16901746D02*
X11069229Y-16911270D01*
X11069229Y-16911270D02*
X11088277Y-16920793D01*
X11088277Y-16920793D02*
X11126372Y-16920793D01*
X11126372Y-16920793D02*
X11145420Y-16911270D01*
X11145420Y-16911270D02*
X11154944Y-16901746D01*
X11154944Y-16901746D02*
X11164468Y-16882698D01*
X11335896Y-16863650D02*
X11335896Y-16996984D01*
X11288277Y-16787460D02*
X11240658Y-16930317D01*
X11240658Y-16930317D02*
X11364467Y-16930317D01*
X11431134Y-16796984D02*
X11431134Y-16835079D01*
X11507325Y-16796984D02*
X11507325Y-16835079D01*
X11802563Y-17073174D02*
X11793039Y-17063650D01*
X11793039Y-17063650D02*
X11773991Y-17035079D01*
X11773991Y-17035079D02*
X11764468Y-17016031D01*
X11764468Y-17016031D02*
X11754944Y-16987460D01*
X11754944Y-16987460D02*
X11745420Y-16939841D01*
X11745420Y-16939841D02*
X11745420Y-16901746D01*
X11745420Y-16901746D02*
X11754944Y-16854127D01*
X11754944Y-16854127D02*
X11764468Y-16825555D01*
X11764468Y-16825555D02*
X11773991Y-16806508D01*
X11773991Y-16806508D02*
X11793039Y-16777936D01*
X11793039Y-16777936D02*
X11802563Y-16768412D01*
X11869229Y-16816031D02*
X11878753Y-16806508D01*
X11878753Y-16806508D02*
X11897801Y-16796984D01*
X11897801Y-16796984D02*
X11945420Y-16796984D01*
X11945420Y-16796984D02*
X11964468Y-16806508D01*
X11964468Y-16806508D02*
X11973991Y-16816031D01*
X11973991Y-16816031D02*
X11983515Y-16835079D01*
X11983515Y-16835079D02*
X11983515Y-16854127D01*
X11983515Y-16854127D02*
X11973991Y-16882698D01*
X11973991Y-16882698D02*
X11859706Y-16996984D01*
X11859706Y-16996984D02*
X11983515Y-16996984D01*
X12097801Y-16882698D02*
X12078753Y-16873174D01*
X12078753Y-16873174D02*
X12069229Y-16863650D01*
X12069229Y-16863650D02*
X12059706Y-16844603D01*
X12059706Y-16844603D02*
X12059706Y-16835079D01*
X12059706Y-16835079D02*
X12069229Y-16816031D01*
X12069229Y-16816031D02*
X12078753Y-16806508D01*
X12078753Y-16806508D02*
X12097801Y-16796984D01*
X12097801Y-16796984D02*
X12135896Y-16796984D01*
X12135896Y-16796984D02*
X12154944Y-16806508D01*
X12154944Y-16806508D02*
X12164468Y-16816031D01*
X12164468Y-16816031D02*
X12173991Y-16835079D01*
X12173991Y-16835079D02*
X12173991Y-16844603D01*
X12173991Y-16844603D02*
X12164468Y-16863650D01*
X12164468Y-16863650D02*
X12154944Y-16873174D01*
X12154944Y-16873174D02*
X12135896Y-16882698D01*
X12135896Y-16882698D02*
X12097801Y-16882698D01*
X12097801Y-16882698D02*
X12078753Y-16892222D01*
X12078753Y-16892222D02*
X12069229Y-16901746D01*
X12069229Y-16901746D02*
X12059706Y-16920793D01*
X12059706Y-16920793D02*
X12059706Y-16958889D01*
X12059706Y-16958889D02*
X12069229Y-16977936D01*
X12069229Y-16977936D02*
X12078753Y-16987460D01*
X12078753Y-16987460D02*
X12097801Y-16996984D01*
X12097801Y-16996984D02*
X12135896Y-16996984D01*
X12135896Y-16996984D02*
X12154944Y-16987460D01*
X12154944Y-16987460D02*
X12164468Y-16977936D01*
X12164468Y-16977936D02*
X12173991Y-16958889D01*
X12173991Y-16958889D02*
X12173991Y-16920793D01*
X12173991Y-16920793D02*
X12164468Y-16901746D01*
X12164468Y-16901746D02*
X12154944Y-16892222D01*
X12154944Y-16892222D02*
X12135896Y-16882698D01*
X12412087Y-16996984D02*
X12412087Y-16796984D01*
X12497801Y-16996984D02*
X12497801Y-16892222D01*
X12497801Y-16892222D02*
X12488277Y-16873174D01*
X12488277Y-16873174D02*
X12469230Y-16863650D01*
X12469230Y-16863650D02*
X12440658Y-16863650D01*
X12440658Y-16863650D02*
X12421610Y-16873174D01*
X12421610Y-16873174D02*
X12412087Y-16882698D01*
X12621610Y-16996984D02*
X12602563Y-16987460D01*
X12602563Y-16987460D02*
X12593039Y-16977936D01*
X12593039Y-16977936D02*
X12583515Y-16958889D01*
X12583515Y-16958889D02*
X12583515Y-16901746D01*
X12583515Y-16901746D02*
X12593039Y-16882698D01*
X12593039Y-16882698D02*
X12602563Y-16873174D01*
X12602563Y-16873174D02*
X12621610Y-16863650D01*
X12621610Y-16863650D02*
X12650182Y-16863650D01*
X12650182Y-16863650D02*
X12669230Y-16873174D01*
X12669230Y-16873174D02*
X12678753Y-16882698D01*
X12678753Y-16882698D02*
X12688277Y-16901746D01*
X12688277Y-16901746D02*
X12688277Y-16958889D01*
X12688277Y-16958889D02*
X12678753Y-16977936D01*
X12678753Y-16977936D02*
X12669230Y-16987460D01*
X12669230Y-16987460D02*
X12650182Y-16996984D01*
X12650182Y-16996984D02*
X12621610Y-16996984D01*
X12802563Y-16996984D02*
X12783515Y-16987460D01*
X12783515Y-16987460D02*
X12773991Y-16968412D01*
X12773991Y-16968412D02*
X12773991Y-16796984D01*
X12954944Y-16987460D02*
X12935896Y-16996984D01*
X12935896Y-16996984D02*
X12897801Y-16996984D01*
X12897801Y-16996984D02*
X12878753Y-16987460D01*
X12878753Y-16987460D02*
X12869230Y-16968412D01*
X12869230Y-16968412D02*
X12869230Y-16892222D01*
X12869230Y-16892222D02*
X12878753Y-16873174D01*
X12878753Y-16873174D02*
X12897801Y-16863650D01*
X12897801Y-16863650D02*
X12935896Y-16863650D01*
X12935896Y-16863650D02*
X12954944Y-16873174D01*
X12954944Y-16873174D02*
X12964468Y-16892222D01*
X12964468Y-16892222D02*
X12964468Y-16911270D01*
X12964468Y-16911270D02*
X12869230Y-16930317D01*
X13040658Y-16987460D02*
X13059706Y-16996984D01*
X13059706Y-16996984D02*
X13097801Y-16996984D01*
X13097801Y-16996984D02*
X13116849Y-16987460D01*
X13116849Y-16987460D02*
X13126372Y-16968412D01*
X13126372Y-16968412D02*
X13126372Y-16958889D01*
X13126372Y-16958889D02*
X13116849Y-16939841D01*
X13116849Y-16939841D02*
X13097801Y-16930317D01*
X13097801Y-16930317D02*
X13069230Y-16930317D01*
X13069230Y-16930317D02*
X13050182Y-16920793D01*
X13050182Y-16920793D02*
X13040658Y-16901746D01*
X13040658Y-16901746D02*
X13040658Y-16892222D01*
X13040658Y-16892222D02*
X13050182Y-16873174D01*
X13050182Y-16873174D02*
X13069230Y-16863650D01*
X13069230Y-16863650D02*
X13097801Y-16863650D01*
X13097801Y-16863650D02*
X13116849Y-16873174D01*
X13193039Y-17073174D02*
X13202563Y-17063650D01*
X13202563Y-17063650D02*
X13221611Y-17035079D01*
X13221611Y-17035079D02*
X13231134Y-17016031D01*
X13231134Y-17016031D02*
X13240658Y-16987460D01*
X13240658Y-16987460D02*
X13250182Y-16939841D01*
X13250182Y-16939841D02*
X13250182Y-16901746D01*
X13250182Y-16901746D02*
X13240658Y-16854127D01*
X13240658Y-16854127D02*
X13231134Y-16825555D01*
X13231134Y-16825555D02*
X13221611Y-16806508D01*
X13221611Y-16806508D02*
X13202563Y-16777936D01*
X13202563Y-16777936D02*
X13193039Y-16768412D01*
D13*
X8210952Y-17209452D02*
X8210952Y-17129548D01*
X8131048Y-17129548D01*
X8131048Y-17209452D01*
X8210952Y-17209452D01*
D11*
X8593039Y-17260984D02*
X8478753Y-17260984D01*
X8535896Y-17260984D02*
X8535896Y-17060984D01*
X8535896Y-17060984D02*
X8516848Y-17089555D01*
X8516848Y-17089555D02*
X8497801Y-17108603D01*
X8497801Y-17108603D02*
X8478753Y-17118127D01*
X8678753Y-17241936D02*
X8688277Y-17251460D01*
X8688277Y-17251460D02*
X8678753Y-17260984D01*
X8678753Y-17260984D02*
X8669229Y-17251460D01*
X8669229Y-17251460D02*
X8678753Y-17241936D01*
X8678753Y-17241936D02*
X8678753Y-17260984D01*
X8878753Y-17260984D02*
X8764467Y-17260984D01*
X8821610Y-17260984D02*
X8821610Y-17060984D01*
X8821610Y-17060984D02*
X8802563Y-17089555D01*
X8802563Y-17089555D02*
X8783515Y-17108603D01*
X8783515Y-17108603D02*
X8764467Y-17118127D01*
X8945420Y-17060984D02*
X9069229Y-17060984D01*
X9069229Y-17060984D02*
X9002563Y-17137174D01*
X9002563Y-17137174D02*
X9031134Y-17137174D01*
X9031134Y-17137174D02*
X9050182Y-17146698D01*
X9050182Y-17146698D02*
X9059705Y-17156222D01*
X9059705Y-17156222D02*
X9069229Y-17175270D01*
X9069229Y-17175270D02*
X9069229Y-17222889D01*
X9069229Y-17222889D02*
X9059705Y-17241936D01*
X9059705Y-17241936D02*
X9050182Y-17251460D01*
X9050182Y-17251460D02*
X9031134Y-17260984D01*
X9031134Y-17260984D02*
X8973991Y-17260984D01*
X8973991Y-17260984D02*
X8954944Y-17251460D01*
X8954944Y-17251460D02*
X8945420Y-17241936D01*
X9193039Y-17060984D02*
X9212086Y-17060984D01*
X9212086Y-17060984D02*
X9231134Y-17070508D01*
X9231134Y-17070508D02*
X9240658Y-17080031D01*
X9240658Y-17080031D02*
X9250182Y-17099079D01*
X9250182Y-17099079D02*
X9259705Y-17137174D01*
X9259705Y-17137174D02*
X9259705Y-17184793D01*
X9259705Y-17184793D02*
X9250182Y-17222889D01*
X9250182Y-17222889D02*
X9240658Y-17241936D01*
X9240658Y-17241936D02*
X9231134Y-17251460D01*
X9231134Y-17251460D02*
X9212086Y-17260984D01*
X9212086Y-17260984D02*
X9193039Y-17260984D01*
X9193039Y-17260984D02*
X9173991Y-17251460D01*
X9173991Y-17251460D02*
X9164467Y-17241936D01*
X9164467Y-17241936D02*
X9154944Y-17222889D01*
X9154944Y-17222889D02*
X9145420Y-17184793D01*
X9145420Y-17184793D02*
X9145420Y-17137174D01*
X9145420Y-17137174D02*
X9154944Y-17099079D01*
X9154944Y-17099079D02*
X9164467Y-17080031D01*
X9164467Y-17080031D02*
X9173991Y-17070508D01*
X9173991Y-17070508D02*
X9193039Y-17060984D01*
X9345420Y-17260984D02*
X9345420Y-17127650D01*
X9345420Y-17146698D02*
X9354944Y-17137174D01*
X9354944Y-17137174D02*
X9373991Y-17127650D01*
X9373991Y-17127650D02*
X9402563Y-17127650D01*
X9402563Y-17127650D02*
X9421610Y-17137174D01*
X9421610Y-17137174D02*
X9431134Y-17156222D01*
X9431134Y-17156222D02*
X9431134Y-17260984D01*
X9431134Y-17156222D02*
X9440658Y-17137174D01*
X9440658Y-17137174D02*
X9459705Y-17127650D01*
X9459705Y-17127650D02*
X9488277Y-17127650D01*
X9488277Y-17127650D02*
X9507325Y-17137174D01*
X9507325Y-17137174D02*
X9516848Y-17156222D01*
X9516848Y-17156222D02*
X9516848Y-17260984D01*
X9612086Y-17260984D02*
X9612086Y-17127650D01*
X9612086Y-17146698D02*
X9621610Y-17137174D01*
X9621610Y-17137174D02*
X9640658Y-17127650D01*
X9640658Y-17127650D02*
X9669229Y-17127650D01*
X9669229Y-17127650D02*
X9688277Y-17137174D01*
X9688277Y-17137174D02*
X9697801Y-17156222D01*
X9697801Y-17156222D02*
X9697801Y-17260984D01*
X9697801Y-17156222D02*
X9707325Y-17137174D01*
X9707325Y-17137174D02*
X9726372Y-17127650D01*
X9726372Y-17127650D02*
X9754944Y-17127650D01*
X9754944Y-17127650D02*
X9773991Y-17137174D01*
X9773991Y-17137174D02*
X9783515Y-17156222D01*
X9783515Y-17156222D02*
X9783515Y-17260984D01*
X10173991Y-17051460D02*
X10002563Y-17308603D01*
X10431134Y-17060984D02*
X10450182Y-17060984D01*
X10450182Y-17060984D02*
X10469229Y-17070508D01*
X10469229Y-17070508D02*
X10478753Y-17080031D01*
X10478753Y-17080031D02*
X10488277Y-17099079D01*
X10488277Y-17099079D02*
X10497801Y-17137174D01*
X10497801Y-17137174D02*
X10497801Y-17184793D01*
X10497801Y-17184793D02*
X10488277Y-17222889D01*
X10488277Y-17222889D02*
X10478753Y-17241936D01*
X10478753Y-17241936D02*
X10469229Y-17251460D01*
X10469229Y-17251460D02*
X10450182Y-17260984D01*
X10450182Y-17260984D02*
X10431134Y-17260984D01*
X10431134Y-17260984D02*
X10412087Y-17251460D01*
X10412087Y-17251460D02*
X10402563Y-17241936D01*
X10402563Y-17241936D02*
X10393039Y-17222889D01*
X10393039Y-17222889D02*
X10383515Y-17184793D01*
X10383515Y-17184793D02*
X10383515Y-17137174D01*
X10383515Y-17137174D02*
X10393039Y-17099079D01*
X10393039Y-17099079D02*
X10402563Y-17080031D01*
X10402563Y-17080031D02*
X10412087Y-17070508D01*
X10412087Y-17070508D02*
X10431134Y-17060984D01*
X10583515Y-17241936D02*
X10593039Y-17251460D01*
X10593039Y-17251460D02*
X10583515Y-17260984D01*
X10583515Y-17260984D02*
X10573991Y-17251460D01*
X10573991Y-17251460D02*
X10583515Y-17241936D01*
X10583515Y-17241936D02*
X10583515Y-17260984D01*
X10716848Y-17060984D02*
X10735896Y-17060984D01*
X10735896Y-17060984D02*
X10754944Y-17070508D01*
X10754944Y-17070508D02*
X10764468Y-17080031D01*
X10764468Y-17080031D02*
X10773991Y-17099079D01*
X10773991Y-17099079D02*
X10783515Y-17137174D01*
X10783515Y-17137174D02*
X10783515Y-17184793D01*
X10783515Y-17184793D02*
X10773991Y-17222889D01*
X10773991Y-17222889D02*
X10764468Y-17241936D01*
X10764468Y-17241936D02*
X10754944Y-17251460D01*
X10754944Y-17251460D02*
X10735896Y-17260984D01*
X10735896Y-17260984D02*
X10716848Y-17260984D01*
X10716848Y-17260984D02*
X10697801Y-17251460D01*
X10697801Y-17251460D02*
X10688277Y-17241936D01*
X10688277Y-17241936D02*
X10678753Y-17222889D01*
X10678753Y-17222889D02*
X10669229Y-17184793D01*
X10669229Y-17184793D02*
X10669229Y-17137174D01*
X10669229Y-17137174D02*
X10678753Y-17099079D01*
X10678753Y-17099079D02*
X10688277Y-17080031D01*
X10688277Y-17080031D02*
X10697801Y-17070508D01*
X10697801Y-17070508D02*
X10716848Y-17060984D01*
X10954944Y-17127650D02*
X10954944Y-17260984D01*
X10907325Y-17051460D02*
X10859706Y-17194317D01*
X10859706Y-17194317D02*
X10983515Y-17194317D01*
X11145420Y-17127650D02*
X11145420Y-17260984D01*
X11097801Y-17051460D02*
X11050182Y-17194317D01*
X11050182Y-17194317D02*
X11173991Y-17194317D01*
X11345420Y-17060984D02*
X11250182Y-17060984D01*
X11250182Y-17060984D02*
X11240658Y-17156222D01*
X11240658Y-17156222D02*
X11250182Y-17146698D01*
X11250182Y-17146698D02*
X11269229Y-17137174D01*
X11269229Y-17137174D02*
X11316848Y-17137174D01*
X11316848Y-17137174D02*
X11335896Y-17146698D01*
X11335896Y-17146698D02*
X11345420Y-17156222D01*
X11345420Y-17156222D02*
X11354944Y-17175270D01*
X11354944Y-17175270D02*
X11354944Y-17222889D01*
X11354944Y-17222889D02*
X11345420Y-17241936D01*
X11345420Y-17241936D02*
X11335896Y-17251460D01*
X11335896Y-17251460D02*
X11316848Y-17260984D01*
X11316848Y-17260984D02*
X11269229Y-17260984D01*
X11269229Y-17260984D02*
X11250182Y-17251460D01*
X11250182Y-17251460D02*
X11240658Y-17241936D01*
X11431134Y-17060984D02*
X11431134Y-17099079D01*
X11507325Y-17060984D02*
X11507325Y-17099079D01*
X11802563Y-17337174D02*
X11793039Y-17327650D01*
X11793039Y-17327650D02*
X11773991Y-17299079D01*
X11773991Y-17299079D02*
X11764468Y-17280031D01*
X11764468Y-17280031D02*
X11754944Y-17251460D01*
X11754944Y-17251460D02*
X11745420Y-17203841D01*
X11745420Y-17203841D02*
X11745420Y-17165746D01*
X11745420Y-17165746D02*
X11754944Y-17118127D01*
X11754944Y-17118127D02*
X11764468Y-17089555D01*
X11764468Y-17089555D02*
X11773991Y-17070508D01*
X11773991Y-17070508D02*
X11793039Y-17041936D01*
X11793039Y-17041936D02*
X11802563Y-17032412D01*
X11983515Y-17260984D02*
X11869229Y-17260984D01*
X11926372Y-17260984D02*
X11926372Y-17060984D01*
X11926372Y-17060984D02*
X11907325Y-17089555D01*
X11907325Y-17089555D02*
X11888277Y-17108603D01*
X11888277Y-17108603D02*
X11869229Y-17118127D01*
X12164468Y-17060984D02*
X12069229Y-17060984D01*
X12069229Y-17060984D02*
X12059706Y-17156222D01*
X12059706Y-17156222D02*
X12069229Y-17146698D01*
X12069229Y-17146698D02*
X12088277Y-17137174D01*
X12088277Y-17137174D02*
X12135896Y-17137174D01*
X12135896Y-17137174D02*
X12154944Y-17146698D01*
X12154944Y-17146698D02*
X12164468Y-17156222D01*
X12164468Y-17156222D02*
X12173991Y-17175270D01*
X12173991Y-17175270D02*
X12173991Y-17222889D01*
X12173991Y-17222889D02*
X12164468Y-17241936D01*
X12164468Y-17241936D02*
X12154944Y-17251460D01*
X12154944Y-17251460D02*
X12135896Y-17260984D01*
X12135896Y-17260984D02*
X12088277Y-17260984D01*
X12088277Y-17260984D02*
X12069229Y-17251460D01*
X12069229Y-17251460D02*
X12059706Y-17241936D01*
X12412087Y-17260984D02*
X12412087Y-17060984D01*
X12497801Y-17260984D02*
X12497801Y-17156222D01*
X12497801Y-17156222D02*
X12488277Y-17137174D01*
X12488277Y-17137174D02*
X12469230Y-17127650D01*
X12469230Y-17127650D02*
X12440658Y-17127650D01*
X12440658Y-17127650D02*
X12421610Y-17137174D01*
X12421610Y-17137174D02*
X12412087Y-17146698D01*
X12621610Y-17260984D02*
X12602563Y-17251460D01*
X12602563Y-17251460D02*
X12593039Y-17241936D01*
X12593039Y-17241936D02*
X12583515Y-17222889D01*
X12583515Y-17222889D02*
X12583515Y-17165746D01*
X12583515Y-17165746D02*
X12593039Y-17146698D01*
X12593039Y-17146698D02*
X12602563Y-17137174D01*
X12602563Y-17137174D02*
X12621610Y-17127650D01*
X12621610Y-17127650D02*
X12650182Y-17127650D01*
X12650182Y-17127650D02*
X12669230Y-17137174D01*
X12669230Y-17137174D02*
X12678753Y-17146698D01*
X12678753Y-17146698D02*
X12688277Y-17165746D01*
X12688277Y-17165746D02*
X12688277Y-17222889D01*
X12688277Y-17222889D02*
X12678753Y-17241936D01*
X12678753Y-17241936D02*
X12669230Y-17251460D01*
X12669230Y-17251460D02*
X12650182Y-17260984D01*
X12650182Y-17260984D02*
X12621610Y-17260984D01*
X12802563Y-17260984D02*
X12783515Y-17251460D01*
X12783515Y-17251460D02*
X12773991Y-17232412D01*
X12773991Y-17232412D02*
X12773991Y-17060984D01*
X12954944Y-17251460D02*
X12935896Y-17260984D01*
X12935896Y-17260984D02*
X12897801Y-17260984D01*
X12897801Y-17260984D02*
X12878753Y-17251460D01*
X12878753Y-17251460D02*
X12869230Y-17232412D01*
X12869230Y-17232412D02*
X12869230Y-17156222D01*
X12869230Y-17156222D02*
X12878753Y-17137174D01*
X12878753Y-17137174D02*
X12897801Y-17127650D01*
X12897801Y-17127650D02*
X12935896Y-17127650D01*
X12935896Y-17127650D02*
X12954944Y-17137174D01*
X12954944Y-17137174D02*
X12964468Y-17156222D01*
X12964468Y-17156222D02*
X12964468Y-17175270D01*
X12964468Y-17175270D02*
X12869230Y-17194317D01*
X13040658Y-17251460D02*
X13059706Y-17260984D01*
X13059706Y-17260984D02*
X13097801Y-17260984D01*
X13097801Y-17260984D02*
X13116849Y-17251460D01*
X13116849Y-17251460D02*
X13126372Y-17232412D01*
X13126372Y-17232412D02*
X13126372Y-17222889D01*
X13126372Y-17222889D02*
X13116849Y-17203841D01*
X13116849Y-17203841D02*
X13097801Y-17194317D01*
X13097801Y-17194317D02*
X13069230Y-17194317D01*
X13069230Y-17194317D02*
X13050182Y-17184793D01*
X13050182Y-17184793D02*
X13040658Y-17165746D01*
X13040658Y-17165746D02*
X13040658Y-17156222D01*
X13040658Y-17156222D02*
X13050182Y-17137174D01*
X13050182Y-17137174D02*
X13069230Y-17127650D01*
X13069230Y-17127650D02*
X13097801Y-17127650D01*
X13097801Y-17127650D02*
X13116849Y-17137174D01*
X13193039Y-17337174D02*
X13202563Y-17327650D01*
X13202563Y-17327650D02*
X13221611Y-17299079D01*
X13221611Y-17299079D02*
X13231134Y-17280031D01*
X13231134Y-17280031D02*
X13240658Y-17251460D01*
X13240658Y-17251460D02*
X13250182Y-17203841D01*
X13250182Y-17203841D02*
X13250182Y-17165746D01*
X13250182Y-17165746D02*
X13240658Y-17118127D01*
X13240658Y-17118127D02*
X13231134Y-17089555D01*
X13231134Y-17089555D02*
X13221611Y-17070508D01*
X13221611Y-17070508D02*
X13202563Y-17041936D01*
X13202563Y-17041936D02*
X13193039Y-17032412D01*
X8127500Y-17533500D02*
X8227500Y-17433500D01*
X8127500Y-17333500D01*
X8027500Y-17433500D01*
X8127500Y-17533500D01*
X8469229Y-17324984D02*
X8593039Y-17324984D01*
X8593039Y-17324984D02*
X8526372Y-17401174D01*
X8526372Y-17401174D02*
X8554944Y-17401174D01*
X8554944Y-17401174D02*
X8573991Y-17410698D01*
X8573991Y-17410698D02*
X8583515Y-17420222D01*
X8583515Y-17420222D02*
X8593039Y-17439270D01*
X8593039Y-17439270D02*
X8593039Y-17486889D01*
X8593039Y-17486889D02*
X8583515Y-17505936D01*
X8583515Y-17505936D02*
X8573991Y-17515460D01*
X8573991Y-17515460D02*
X8554944Y-17524984D01*
X8554944Y-17524984D02*
X8497801Y-17524984D01*
X8497801Y-17524984D02*
X8478753Y-17515460D01*
X8478753Y-17515460D02*
X8469229Y-17505936D01*
X8678753Y-17505936D02*
X8688277Y-17515460D01*
X8688277Y-17515460D02*
X8678753Y-17524984D01*
X8678753Y-17524984D02*
X8669229Y-17515460D01*
X8669229Y-17515460D02*
X8678753Y-17505936D01*
X8678753Y-17505936D02*
X8678753Y-17524984D01*
X8764467Y-17344031D02*
X8773991Y-17334508D01*
X8773991Y-17334508D02*
X8793039Y-17324984D01*
X8793039Y-17324984D02*
X8840658Y-17324984D01*
X8840658Y-17324984D02*
X8859705Y-17334508D01*
X8859705Y-17334508D02*
X8869229Y-17344031D01*
X8869229Y-17344031D02*
X8878753Y-17363079D01*
X8878753Y-17363079D02*
X8878753Y-17382127D01*
X8878753Y-17382127D02*
X8869229Y-17410698D01*
X8869229Y-17410698D02*
X8754944Y-17524984D01*
X8754944Y-17524984D02*
X8878753Y-17524984D01*
X8945420Y-17324984D02*
X9069229Y-17324984D01*
X9069229Y-17324984D02*
X9002563Y-17401174D01*
X9002563Y-17401174D02*
X9031134Y-17401174D01*
X9031134Y-17401174D02*
X9050182Y-17410698D01*
X9050182Y-17410698D02*
X9059705Y-17420222D01*
X9059705Y-17420222D02*
X9069229Y-17439270D01*
X9069229Y-17439270D02*
X9069229Y-17486889D01*
X9069229Y-17486889D02*
X9059705Y-17505936D01*
X9059705Y-17505936D02*
X9050182Y-17515460D01*
X9050182Y-17515460D02*
X9031134Y-17524984D01*
X9031134Y-17524984D02*
X8973991Y-17524984D01*
X8973991Y-17524984D02*
X8954944Y-17515460D01*
X8954944Y-17515460D02*
X8945420Y-17505936D01*
X9193039Y-17324984D02*
X9212086Y-17324984D01*
X9212086Y-17324984D02*
X9231134Y-17334508D01*
X9231134Y-17334508D02*
X9240658Y-17344031D01*
X9240658Y-17344031D02*
X9250182Y-17363079D01*
X9250182Y-17363079D02*
X9259705Y-17401174D01*
X9259705Y-17401174D02*
X9259705Y-17448793D01*
X9259705Y-17448793D02*
X9250182Y-17486889D01*
X9250182Y-17486889D02*
X9240658Y-17505936D01*
X9240658Y-17505936D02*
X9231134Y-17515460D01*
X9231134Y-17515460D02*
X9212086Y-17524984D01*
X9212086Y-17524984D02*
X9193039Y-17524984D01*
X9193039Y-17524984D02*
X9173991Y-17515460D01*
X9173991Y-17515460D02*
X9164467Y-17505936D01*
X9164467Y-17505936D02*
X9154944Y-17486889D01*
X9154944Y-17486889D02*
X9145420Y-17448793D01*
X9145420Y-17448793D02*
X9145420Y-17401174D01*
X9145420Y-17401174D02*
X9154944Y-17363079D01*
X9154944Y-17363079D02*
X9164467Y-17344031D01*
X9164467Y-17344031D02*
X9173991Y-17334508D01*
X9173991Y-17334508D02*
X9193039Y-17324984D01*
X9345420Y-17524984D02*
X9345420Y-17391650D01*
X9345420Y-17410698D02*
X9354944Y-17401174D01*
X9354944Y-17401174D02*
X9373991Y-17391650D01*
X9373991Y-17391650D02*
X9402563Y-17391650D01*
X9402563Y-17391650D02*
X9421610Y-17401174D01*
X9421610Y-17401174D02*
X9431134Y-17420222D01*
X9431134Y-17420222D02*
X9431134Y-17524984D01*
X9431134Y-17420222D02*
X9440658Y-17401174D01*
X9440658Y-17401174D02*
X9459705Y-17391650D01*
X9459705Y-17391650D02*
X9488277Y-17391650D01*
X9488277Y-17391650D02*
X9507325Y-17401174D01*
X9507325Y-17401174D02*
X9516848Y-17420222D01*
X9516848Y-17420222D02*
X9516848Y-17524984D01*
X9612086Y-17524984D02*
X9612086Y-17391650D01*
X9612086Y-17410698D02*
X9621610Y-17401174D01*
X9621610Y-17401174D02*
X9640658Y-17391650D01*
X9640658Y-17391650D02*
X9669229Y-17391650D01*
X9669229Y-17391650D02*
X9688277Y-17401174D01*
X9688277Y-17401174D02*
X9697801Y-17420222D01*
X9697801Y-17420222D02*
X9697801Y-17524984D01*
X9697801Y-17420222D02*
X9707325Y-17401174D01*
X9707325Y-17401174D02*
X9726372Y-17391650D01*
X9726372Y-17391650D02*
X9754944Y-17391650D01*
X9754944Y-17391650D02*
X9773991Y-17401174D01*
X9773991Y-17401174D02*
X9783515Y-17420222D01*
X9783515Y-17420222D02*
X9783515Y-17524984D01*
X10173991Y-17315460D02*
X10002563Y-17572603D01*
X10431134Y-17324984D02*
X10450182Y-17324984D01*
X10450182Y-17324984D02*
X10469229Y-17334508D01*
X10469229Y-17334508D02*
X10478753Y-17344031D01*
X10478753Y-17344031D02*
X10488277Y-17363079D01*
X10488277Y-17363079D02*
X10497801Y-17401174D01*
X10497801Y-17401174D02*
X10497801Y-17448793D01*
X10497801Y-17448793D02*
X10488277Y-17486889D01*
X10488277Y-17486889D02*
X10478753Y-17505936D01*
X10478753Y-17505936D02*
X10469229Y-17515460D01*
X10469229Y-17515460D02*
X10450182Y-17524984D01*
X10450182Y-17524984D02*
X10431134Y-17524984D01*
X10431134Y-17524984D02*
X10412087Y-17515460D01*
X10412087Y-17515460D02*
X10402563Y-17505936D01*
X10402563Y-17505936D02*
X10393039Y-17486889D01*
X10393039Y-17486889D02*
X10383515Y-17448793D01*
X10383515Y-17448793D02*
X10383515Y-17401174D01*
X10383515Y-17401174D02*
X10393039Y-17363079D01*
X10393039Y-17363079D02*
X10402563Y-17344031D01*
X10402563Y-17344031D02*
X10412087Y-17334508D01*
X10412087Y-17334508D02*
X10431134Y-17324984D01*
X10583515Y-17505936D02*
X10593039Y-17515460D01*
X10593039Y-17515460D02*
X10583515Y-17524984D01*
X10583515Y-17524984D02*
X10573991Y-17515460D01*
X10573991Y-17515460D02*
X10583515Y-17505936D01*
X10583515Y-17505936D02*
X10583515Y-17524984D01*
X10783515Y-17524984D02*
X10669229Y-17524984D01*
X10726372Y-17524984D02*
X10726372Y-17324984D01*
X10726372Y-17324984D02*
X10707325Y-17353555D01*
X10707325Y-17353555D02*
X10688277Y-17372603D01*
X10688277Y-17372603D02*
X10669229Y-17382127D01*
X10859706Y-17344031D02*
X10869229Y-17334508D01*
X10869229Y-17334508D02*
X10888277Y-17324984D01*
X10888277Y-17324984D02*
X10935896Y-17324984D01*
X10935896Y-17324984D02*
X10954944Y-17334508D01*
X10954944Y-17334508D02*
X10964468Y-17344031D01*
X10964468Y-17344031D02*
X10973991Y-17363079D01*
X10973991Y-17363079D02*
X10973991Y-17382127D01*
X10973991Y-17382127D02*
X10964468Y-17410698D01*
X10964468Y-17410698D02*
X10850182Y-17524984D01*
X10850182Y-17524984D02*
X10973991Y-17524984D01*
X11040658Y-17324984D02*
X11173991Y-17324984D01*
X11173991Y-17324984D02*
X11088277Y-17524984D01*
X11240658Y-17344031D02*
X11250182Y-17334508D01*
X11250182Y-17334508D02*
X11269229Y-17324984D01*
X11269229Y-17324984D02*
X11316848Y-17324984D01*
X11316848Y-17324984D02*
X11335896Y-17334508D01*
X11335896Y-17334508D02*
X11345420Y-17344031D01*
X11345420Y-17344031D02*
X11354944Y-17363079D01*
X11354944Y-17363079D02*
X11354944Y-17382127D01*
X11354944Y-17382127D02*
X11345420Y-17410698D01*
X11345420Y-17410698D02*
X11231134Y-17524984D01*
X11231134Y-17524984D02*
X11354944Y-17524984D01*
X11431134Y-17324984D02*
X11431134Y-17363079D01*
X11507325Y-17324984D02*
X11507325Y-17363079D01*
X11802563Y-17601174D02*
X11793039Y-17591650D01*
X11793039Y-17591650D02*
X11773991Y-17563079D01*
X11773991Y-17563079D02*
X11764468Y-17544031D01*
X11764468Y-17544031D02*
X11754944Y-17515460D01*
X11754944Y-17515460D02*
X11745420Y-17467841D01*
X11745420Y-17467841D02*
X11745420Y-17429746D01*
X11745420Y-17429746D02*
X11754944Y-17382127D01*
X11754944Y-17382127D02*
X11764468Y-17353555D01*
X11764468Y-17353555D02*
X11773991Y-17334508D01*
X11773991Y-17334508D02*
X11793039Y-17305936D01*
X11793039Y-17305936D02*
X11802563Y-17296412D01*
X11869229Y-17344031D02*
X11878753Y-17334508D01*
X11878753Y-17334508D02*
X11897801Y-17324984D01*
X11897801Y-17324984D02*
X11945420Y-17324984D01*
X11945420Y-17324984D02*
X11964468Y-17334508D01*
X11964468Y-17334508D02*
X11973991Y-17344031D01*
X11973991Y-17344031D02*
X11983515Y-17363079D01*
X11983515Y-17363079D02*
X11983515Y-17382127D01*
X11983515Y-17382127D02*
X11973991Y-17410698D01*
X11973991Y-17410698D02*
X11859706Y-17524984D01*
X11859706Y-17524984D02*
X11983515Y-17524984D01*
X12221610Y-17524984D02*
X12221610Y-17324984D01*
X12307325Y-17524984D02*
X12307325Y-17420222D01*
X12307325Y-17420222D02*
X12297801Y-17401174D01*
X12297801Y-17401174D02*
X12278753Y-17391650D01*
X12278753Y-17391650D02*
X12250182Y-17391650D01*
X12250182Y-17391650D02*
X12231134Y-17401174D01*
X12231134Y-17401174D02*
X12221610Y-17410698D01*
X12431134Y-17524984D02*
X12412087Y-17515460D01*
X12412087Y-17515460D02*
X12402563Y-17505936D01*
X12402563Y-17505936D02*
X12393039Y-17486889D01*
X12393039Y-17486889D02*
X12393039Y-17429746D01*
X12393039Y-17429746D02*
X12402563Y-17410698D01*
X12402563Y-17410698D02*
X12412087Y-17401174D01*
X12412087Y-17401174D02*
X12431134Y-17391650D01*
X12431134Y-17391650D02*
X12459706Y-17391650D01*
X12459706Y-17391650D02*
X12478753Y-17401174D01*
X12478753Y-17401174D02*
X12488277Y-17410698D01*
X12488277Y-17410698D02*
X12497801Y-17429746D01*
X12497801Y-17429746D02*
X12497801Y-17486889D01*
X12497801Y-17486889D02*
X12488277Y-17505936D01*
X12488277Y-17505936D02*
X12478753Y-17515460D01*
X12478753Y-17515460D02*
X12459706Y-17524984D01*
X12459706Y-17524984D02*
X12431134Y-17524984D01*
X12612087Y-17524984D02*
X12593039Y-17515460D01*
X12593039Y-17515460D02*
X12583515Y-17496412D01*
X12583515Y-17496412D02*
X12583515Y-17324984D01*
X12764468Y-17515460D02*
X12745420Y-17524984D01*
X12745420Y-17524984D02*
X12707325Y-17524984D01*
X12707325Y-17524984D02*
X12688277Y-17515460D01*
X12688277Y-17515460D02*
X12678753Y-17496412D01*
X12678753Y-17496412D02*
X12678753Y-17420222D01*
X12678753Y-17420222D02*
X12688277Y-17401174D01*
X12688277Y-17401174D02*
X12707325Y-17391650D01*
X12707325Y-17391650D02*
X12745420Y-17391650D01*
X12745420Y-17391650D02*
X12764468Y-17401174D01*
X12764468Y-17401174D02*
X12773991Y-17420222D01*
X12773991Y-17420222D02*
X12773991Y-17439270D01*
X12773991Y-17439270D02*
X12678753Y-17458317D01*
X12850182Y-17515460D02*
X12869230Y-17524984D01*
X12869230Y-17524984D02*
X12907325Y-17524984D01*
X12907325Y-17524984D02*
X12926372Y-17515460D01*
X12926372Y-17515460D02*
X12935896Y-17496412D01*
X12935896Y-17496412D02*
X12935896Y-17486889D01*
X12935896Y-17486889D02*
X12926372Y-17467841D01*
X12926372Y-17467841D02*
X12907325Y-17458317D01*
X12907325Y-17458317D02*
X12878753Y-17458317D01*
X12878753Y-17458317D02*
X12859706Y-17448793D01*
X12859706Y-17448793D02*
X12850182Y-17429746D01*
X12850182Y-17429746D02*
X12850182Y-17420222D01*
X12850182Y-17420222D02*
X12859706Y-17401174D01*
X12859706Y-17401174D02*
X12878753Y-17391650D01*
X12878753Y-17391650D02*
X12907325Y-17391650D01*
X12907325Y-17391650D02*
X12926372Y-17401174D01*
X13002563Y-17601174D02*
X13012087Y-17591650D01*
X13012087Y-17591650D02*
X13031134Y-17563079D01*
X13031134Y-17563079D02*
X13040658Y-17544031D01*
X13040658Y-17544031D02*
X13050182Y-17515460D01*
X13050182Y-17515460D02*
X13059706Y-17467841D01*
X13059706Y-17467841D02*
X13059706Y-17429746D01*
X13059706Y-17429746D02*
X13050182Y-17382127D01*
X13050182Y-17382127D02*
X13040658Y-17353555D01*
X13040658Y-17353555D02*
X13031134Y-17334508D01*
X13031134Y-17334508D02*
X13012087Y-17305936D01*
X13012087Y-17305936D02*
X13002563Y-17296412D01*
M02*
