M48
; DRILL file {KiCad 8.0.5-dirty} date 2024-12-24T11:16:47-0800
; FORMAT={-:-/ absolute / inch / decimal}
; #@! TF.CreationDate,2024-12-24T11:16:47-08:00
; #@! TF.GenerationSoftware,Kicad,Pcbnew,8.0.5-dirty
; #@! TF.FileFunction,Plated,1,4,PTH
FMAT,2
INCH
; #@! TA.AperFunction,Plated,PTH,ViaDrill
T1C0.0157
; #@! TA.AperFunction,Plated,PTH,ComponentDrill
T2C0.0256
; #@! TA.AperFunction,Plated,PTH,ComponentDrill
T3C0.0394
; #@! TA.AperFunction,Plated,PTH,ComponentDrill
T4C0.0445
; #@! TA.AperFunction,Plated,PTH,ComponentDrill
T5C0.1272
%
G90
G05
T1
X3.2776Y-3.6846
X3.2776Y-5.1571
X3.2776Y-5.3047
X3.2776Y-5.4665
X3.2776Y-5.6252
X3.2795Y-3.378
X3.2795Y-3.5035
X3.2795Y-3.852
X3.2795Y-4.0193
X3.2795Y-4.1764
X3.2795Y-4.4878
X3.2795Y-4.6374
X3.2795Y-4.7992
X3.2795Y-4.9524
X3.3421Y-5.7858
X3.3543Y-3.2894
X3.3858Y-4.7047
X3.4143Y-4.0639
X3.4144Y-4.8788
X3.4144Y-4.9675
X3.4154Y-4.1142
X3.4154Y-4.1613
X3.4154Y-4.2087
X3.4164Y-4.8277
X3.4252Y-3.2028
X3.4253Y-4.612
X3.4449Y-4.7646
X3.4941Y-4.2608
X3.5039Y-5.2638
X3.5087Y-3.7299
X3.539Y-5.513
X3.5787Y-3.2008
X3.7205Y-4.0197
X3.7205Y-4.068
X3.7205Y-4.1142
X3.7205Y-4.168
X3.7205Y-4.218
X3.7358Y-3.2008
X3.752Y-4.3287
X3.7558Y-4.3907
X3.7623Y-4.4518
X3.7639Y-4.5257
X3.7836Y-4.3602
X3.7861Y-4.2992
X3.7874Y-4.4882
X3.7902Y-4.4213
X3.8091Y-4.5669
X3.8091Y-4.6161
X3.8091Y-4.7165
X3.8091Y-4.7638
X3.8091Y-4.815
X3.8091Y-4.8622
X3.8091Y-4.9134
X3.8091Y-4.9705
X3.8189Y-4.2618
X3.8571Y-5.0246
X3.9169Y-3.2028
X4.0256Y-3.8504
X4.0256Y-5.122
X4.0843Y-3.2008
X4.1339Y-4.2677
X4.189Y-4.1949
X4.2429Y-5.8181
X4.2441Y-4.6142
X4.248Y-4.7594
X4.248Y-4.8814
X4.248Y-4.9431
X4.2485Y-4.8204
X4.2516Y-3.2008
X4.2815Y-4.9783
X4.2822Y-4.9126
X4.2835Y-4.7165
X4.2835Y-4.8509
X4.2839Y-4.7833
X4.3346Y-4.3327
X4.339Y-5.8209
X4.3996Y-4.1437
X4.4087Y-3.2008
X4.4402Y-5.8209
X4.4409Y-5.0906
X4.5276Y-3.9252
X4.5276Y-5.1575
X4.5394Y-5.8209
X4.5705Y-3.2008
X4.5965Y-5.0197
X4.6063Y-4.3535
X4.6063Y-4.4173
X4.6063Y-4.4783
X4.6063Y-4.6268
X4.6135Y-4.2852
X4.6142Y-3.9252
X4.6161Y-4.0846
X4.6161Y-4.1516
X4.6161Y-4.2136
X4.6171Y-4.0217
X4.6171Y-4.7098
X4.6176Y-4.8146
X4.6265Y-4.877
X4.6375Y-4.938
X4.639Y-5.8209
X4.6418Y-4.7528
X4.685Y-5.0492
X4.7201Y-3.2008
X4.7257Y-4.689
X4.7409Y-5.8209
X4.748Y-4.5646
X4.7736Y-4.2392
X4.7737Y-4.0463
X4.7737Y-4.1683
X4.7753Y-4.1073
X4.7835Y-4.5197
X4.7835Y-4.5951
X4.7874Y-4.4478
X4.7923Y-4.9685
X4.7923Y-4.3233
X4.7924Y-4.9075
X4.7952Y-4.8465
X4.7961Y-4.3868
X4.7995Y-4.7854
X4.8366Y-3.9252
X4.8394Y-5.8209
X4.8697Y-3.2008
X4.8807Y-3.8717
X4.9386Y-5.8209
X4.9843Y-4.565
X5.0096Y-4.2659
X5.0096Y-4.9664
X5.0217Y-3.9252
X5.0244Y-5.8007
X5.0315Y-3.2008
X5.0419Y-4.9405
X5.0661Y-5.8022
X5.0711Y-4.4142
X5.0865Y-4.939
X5.1013Y-4.3839
X5.1122Y-4.6042
X5.1298Y-4.9389
X5.1392Y-4.3674
X5.1435Y-5.2116
X5.1467Y-4.5038
X5.1732Y-4.3425
X5.1855Y-5.0147
X5.1929Y-3.2008
X5.2047Y-4.6693
X5.2126Y-4.5935
X5.2323Y-4.0079
X5.248Y-4.9537
X5.2835Y-4.626
X5.2837Y-4.4029
X5.3066Y-4.4373
X5.3479Y-4.44
X5.3583Y-3.2008
X5.3601Y-5.0294
X5.3602Y-4.5807
X5.3784Y-4.4795
X5.3976Y-5.1217
X5.4043Y-4.0642
X5.4961Y-5.2126
X5.5197Y-4.0846
X5.5315Y-3.2008
X5.5434Y-3.7977
X5.561Y-4.9508
X5.5783Y-3.8198
X5.6161Y-3.8395
X5.6287Y-5.7425
X5.6571Y-3.8501
X5.6967Y-3.8619
X5.7047Y-3.2008
X5.7363Y-3.8737
X5.7382Y-5.6378
X5.7514Y-5.4941
X5.7617Y-5.454
X5.776Y-3.8855
X5.7782Y-5.4121
X5.788Y-5.372
X5.8031Y-5.8031
X5.8034Y-5.3316
X5.811Y-4.0787
X5.8159Y-3.896
X5.8248Y-3.8307
X5.8268Y-5.0236
X5.8361Y-5.2839
X5.8478Y-5.2443
X5.878Y-3.2008
X5.8937Y-5.8031
X5.9343Y-5.1258
X5.9862Y-5.8031
X6.0118Y-5.0953
X6.0394Y-5.4291
X6.0531Y-3.2008
X6.0896Y-5.8031
X6.0984Y-5.376
X6.1417Y-4.4843
X6.1433Y-5.035
X6.188Y-5.8031
X6.1919Y-3.7239
X6.1921Y-3.7669
X6.1929Y-3.8092
X6.215Y-3.2008
X6.2362Y-4.126
X6.2655Y-4.9805
X6.2659Y-5.1072
X6.2663Y-5.0654
X6.2667Y-5.0218
X6.2894Y-5.8022
X6.3445Y-4.0768
X6.3646Y-3.2008
X6.372Y-5.065
X6.372Y-4.9803
X6.372Y-5.0217
X6.3726Y-5.1063
X6.3868Y-5.8022
X6.468Y-4.0538
X6.4902Y-5.8022
X6.5089Y-4.9203
X6.5089Y-4.9616
X6.5089Y-5.003
X6.5089Y-5.0443
X6.5089Y-5.0856
X6.5142Y-3.2008
X6.5315Y-3.7933
X6.5512Y-3.9469
X6.5512Y-4.7598
X6.5654Y-4.5016
X6.5689Y-4.6555
X6.5728Y-4.1181
X6.5787Y-5.8031
X6.5928Y-3.8898
X6.6319Y-4.0197
X6.6457Y-5.6181
X6.6535Y-5.361
X6.676Y-3.2008
X6.6831Y-4.5889
X6.6919Y-5.8031
X6.7Y-5.1969
X6.7008Y-4.3701
X6.7012Y-4.6424
X6.7126Y-5.5118
X6.7266Y-5.1518
X6.7316Y-4.3976
X6.7441Y-4.2913
X6.7678Y-5.1493
X6.7697Y-5.6181
X6.7717Y-5.7205
X6.7771Y-4.4587
X6.8374Y-3.2008
X6.8868Y-5.814
X6.9606Y-4.6024
X6.9833Y-5.814
X7.0028Y-3.2008
X7.0866Y-5.5984
X7.1752Y-4.4823
X7.176Y-3.2008
X7.1781Y-5.4911
X7.2126Y-5.685
X7.2505Y-5.7372
X7.2776Y-5.4311
X7.2835Y-4.498
X7.3307Y-5.1654
X7.3492Y-3.2008
X7.3622Y-4.498
X7.3661Y-5.4311
X7.378Y-3.9567
X7.378Y-4.1142
X7.437Y-5.6654
X7.4409Y-4.498
X7.4409Y-5.1772
X7.4713Y-5.8121
X7.4861Y-4.5797
X7.4961Y-5.6654
X7.5197Y-4.498
X7.5224Y-3.2008
X7.5255Y-4.5985
X7.5276Y-4.9823
X7.5472Y-3.8091
X7.5472Y-3.9567
X7.5472Y-4.1142
X7.5472Y-5.6654
X7.5492Y-5.1772
X7.5618Y-5.247
X7.5637Y-4.6145
X7.5679Y-4.3701
X7.5728Y-5.0276
X7.5984Y-4.498
X7.6118Y-5.3701
X7.6142Y-5.8071
X7.6181Y-5.0591
X7.628Y-5.4882
X7.6772Y-4.498
X7.6827Y-5.0846
X7.6941Y-3.2008
X7.7087Y-3.8091
X7.7087Y-3.9567
X7.7087Y-4.1142
X7.7116Y-5.3701
X7.7224Y-5.4882
X7.7254Y-4.998
X7.7402Y-4.3386
X7.7559Y-4.498
X7.7844Y-5.8071
X7.8118Y-5.3701
X7.8219Y-4.998
X7.8559Y-3.2008
X7.874Y-3.8091
X7.874Y-3.9567
X7.874Y-4.1142
X7.874Y-4.315
X7.8839Y-4.4488
X7.9075Y-5.8067
X7.9118Y-5.3701
X7.9287Y-4.9973
X8.0055Y-3.2008
X8.0108Y-5.8071
X8.0118Y-5.0
X8.0236Y-5.4882
X8.0472Y-3.8091
X8.0472Y-3.9567
X8.0472Y-4.1142
X8.0472Y-4.315
X8.0709Y-3.5344
X8.0709Y-3.5984
X8.1004Y-3.5669
X8.1004Y-3.6299
X8.1378Y-5.7323
X8.139Y-5.7743
X8.1551Y-3.2008
X8.1556Y-5.0207
X8.1969Y-5.0207
X8.1985Y-4.9341
X8.1987Y-4.9775
X8.1988Y-4.8481
X8.199Y-4.8915
X8.2009Y-4.8068
X8.2138Y-5.7924
X8.2205Y-3.8091
X8.2205Y-3.9567
X8.2205Y-4.1142
X8.2205Y-4.315
X8.2283Y-5.1673
X8.2406Y-5.7204
X8.2625Y-5.6555
X8.2824Y-5.5906
X8.3112Y-5.1632
X8.3142Y-4.8263
X8.315Y-4.5118
X8.3169Y-3.2008
X8.3258Y-5.7608
X8.3528Y-5.1632
X8.3555Y-4.8248
X8.4252Y-5.3622
X8.4488Y-5.1299
X8.4744Y-4.6161
X8.4744Y-5.7598
X8.4783Y-3.2008
X8.5098Y-5.0896
X8.5256Y-5.0514
X8.5276Y-5.3189
X8.5531Y-5.5315
X8.5669Y-4.3307
X8.5768Y-5.3189
X8.5827Y-4.5276
X8.5925Y-3.9567
X8.5925Y-4.0846
X8.6102Y-4.9764
X8.622Y-4.9007
X8.622Y-3.6358
X8.626Y-5.3189
X8.626Y-4.8595
X8.6319Y-3.2638
X8.6319Y-3.3701
X8.6437Y-3.2008
X8.6506Y-5.1772
X8.7Y-3.5978
X8.7106Y-5.6496
X8.7372Y-5.0758
X8.7677Y-4.5276
X8.8071Y-5.0758
X8.8189Y-3.2008
X8.8258Y-3.6575
X8.8799Y-5.6496
X8.9311Y-4.5512
X8.9567Y-3.9567
X8.9567Y-5.5315
X8.9843Y-3.2008
X9.0256Y-4.5512
X9.0571Y-5.6496
X9.1339Y-3.2008
X9.185Y-4.5512
X9.2165Y-3.2795
X9.252Y-4.5
X9.252Y-4.6772
X9.252Y-4.8583
X9.252Y-5.0256
X9.252Y-5.2028
X9.252Y-5.3701
X9.252Y-5.5472
X9.2953Y-3.3583
T2
X8.374Y-4.4213
X8.374Y-4.4713
X8.4961Y-4.4213
X8.4961Y-4.4713
T3
X6.2705Y-3.4252
X6.2705Y-3.5252
X6.3705Y-3.4252
X6.3705Y-3.5252
X6.4705Y-3.4252
X6.4705Y-3.5252
X6.5705Y-3.4252
X6.5705Y-3.5252
X6.6705Y-3.4252
X6.6705Y-3.5252
X6.7705Y-3.4252
X6.7705Y-3.5252
X6.8705Y-3.4252
X6.8705Y-3.5252
X6.9705Y-3.4252
X6.9705Y-3.5252
X7.0705Y-3.4252
X7.0705Y-3.5252
X7.1705Y-3.4252
X7.1705Y-3.5252
X7.2705Y-3.4252
X7.2705Y-3.5252
X7.3705Y-3.4252
X7.3705Y-3.5252
X7.4705Y-3.4252
X7.4705Y-3.5252
X7.6205Y-5.6654
X7.7205Y-5.6654
T4
X8.9567Y-4.0372
X8.9567Y-4.1274
X8.9567Y-4.2175
X8.9567Y-4.3077
X8.9567Y-4.3978
X9.0551Y-3.9921
X9.0551Y-4.0823
X9.0551Y-4.1724
X9.0551Y-4.2626
X9.0551Y-4.3528
X9.1535Y-4.0372
X9.1535Y-4.1274
X9.1535Y-4.2175
X9.1535Y-4.3077
X9.1535Y-4.3978
T5
X9.0551Y-3.7167
X9.0551Y-4.7006
M30
